<?xml version="1.0" encoding="UTF-8" standalone="no"?>
<!DOCTYPE svg PUBLIC "-//W3C//DTD SVG 1.1//EN"
 "http://www.w3.org/Graphics/SVG/1.1/DTD/svg11.dtd">
<!-- Generated by graphviz version 12.2.1 (20241206.2353)
 -->
<!-- Title: C:/Users/emilly/Documents/Lucca/Projetos/Cpp/NikiScript/src/Command.cpp Pages: 1 -->
<svg width="318pt" height="108pt"
 viewBox="0.00 0.00 318.38 108.00" xmlns="http://www.w3.org/2000/svg" xmlns:xlink="http://www.w3.org/1999/xlink">
<g id="graph0" class="graph" transform="scale(1 1) rotate(0) translate(4 104)">
<title>C:/Users/emilly/Documents/Lucca/Projetos/Cpp/NikiScript/src/Command.cpp</title>
<!-- Node1 -->
<g id="Node000001" class="node">
<title>Node1</title>
<g id="a_Node000001"><a xlink:title=" ">
<polygon fill="#999999" stroke="#666666" points="230.12,-100 79.12,-100 79.12,-56 230.12,-56 230.12,-100"/>
<text text-anchor="start" x="87.12" y="-86.5" font-family="Helvetica,sans-Serif" font-size="10.00">C:/Users/emilly/Documents</text>
<text text-anchor="start" x="87.12" y="-74.5" font-family="Helvetica,sans-Serif" font-size="10.00">/Lucca/Projetos/Cpp/NikiScript</text>
<text text-anchor="middle" x="154.62" y="-62.5" font-family="Helvetica,sans-Serif" font-size="10.00">/src/Command.cpp</text>
</a>
</g>
</g>
<!-- Node2 -->
<g id="Node000002" class="node">
<title>Node2</title>
<g id="a_Node000002"><a xlink:title=" ">
<polygon fill="#e0e0e0" stroke="#999999" points="69.25,-20 0,-20 0,0 69.25,0 69.25,-20"/>
<text text-anchor="middle" x="34.62" y="-6.5" font-family="Helvetica,sans-Serif" font-size="10.00">Command.h</text>
</a>
</g>
</g>
<!-- Node1&#45;&gt;Node2 -->
<g id="edge1_Node000001_Node000002" class="edge">
<title>Node1&#45;&gt;Node2</title>
<g id="a_edge1_Node000001_Node000002"><a xlink:title=" ">
<path fill="none" stroke="#63b8ff" d="M115.66,-55.57C97.92,-45.81 77.38,-34.51 61.41,-25.73"/>
<polygon fill="#63b8ff" stroke="#63b8ff" points="63.43,-22.85 52.98,-21.09 60.05,-28.98 63.43,-22.85"/>
</a>
</g>
</g>
<!-- Node3 -->
<g id="Node000003" class="node">
<title>Node3</title>
<g id="a_Node000003"><a xlink:title=" ">
<polygon fill="#e0e0e0" stroke="#999999" points="138.25,-20 87,-20 87,0 138.25,0 138.25,-20"/>
<text text-anchor="middle" x="112.62" y="-6.5" font-family="Helvetica,sans-Serif" font-size="10.00">sstream</text>
</a>
</g>
</g>
<!-- Node1&#45;&gt;Node3 -->
<g id="edge2_Node000001_Node000003" class="edge">
<title>Node1&#45;&gt;Node3</title>
<g id="a_edge2_Node000001_Node000003"><a xlink:title=" ">
<path fill="none" stroke="#63b8ff" d="M141.1,-55.75C135.84,-47.47 129.84,-38.06 124.72,-30.01"/>
<polygon fill="#63b8ff" stroke="#63b8ff" points="127.75,-28.25 119.43,-21.7 121.85,-32.01 127.75,-28.25"/>
</a>
</g>
</g>
<!-- Node4 -->
<g id="Node000004" class="node">
<title>Node4</title>
<g id="a_Node000004"><a xlink:title=" ">
<polygon fill="#e0e0e0" stroke="#999999" points="239,-20 156.25,-20 156.25,0 239,0 239,-20"/>
<text text-anchor="middle" x="197.62" y="-6.5" font-family="Helvetica,sans-Serif" font-size="10.00">PrintCallback.h</text>
</a>
</g>
</g>
<!-- Node1&#45;&gt;Node4 -->
<g id="edge3_Node000001_Node000004" class="edge">
<title>Node1&#45;&gt;Node4</title>
<g id="a_edge3_Node000001_Node000004"><a xlink:title=" ">
<path fill="none" stroke="#63b8ff" d="M168.47,-55.75C173.86,-47.47 180,-38.06 185.24,-30.01"/>
<polygon fill="#63b8ff" stroke="#63b8ff" points="188.14,-31.98 190.66,-21.69 182.27,-28.16 188.14,-31.98"/>
</a>
</g>
</g>
<!-- Node5 -->
<g id="Node000005" class="node">
<title>Node5</title>
<g id="a_Node000005"><a xlink:title=" ">
<polygon fill="#e0e0e0" stroke="#999999" points="310.38,-20 256.88,-20 256.88,0 310.38,0 310.38,-20"/>
<text text-anchor="middle" x="283.62" y="-6.5" font-family="Helvetica,sans-Serif" font-size="10.00">iostream</text>
</a>
</g>
</g>
<!-- Node1&#45;&gt;Node5 -->
<g id="edge4_Node000001_Node000005" class="edge">
<title>Node1&#45;&gt;Node5</title>
<g id="a_edge4_Node000001_Node000005"><a xlink:title=" ">
<path fill="none" stroke="#63b8ff" d="M196.51,-55.57C215.76,-45.72 238.09,-34.3 255.32,-25.48"/>
<polygon fill="#63b8ff" stroke="#63b8ff" points="256.66,-28.73 263.97,-21.05 253.48,-22.49 256.66,-28.73"/>
</a>
</g>
</g>
</g>
</svg>
