<?xml version="1.0" encoding="UTF-8" standalone="no"?>
<!DOCTYPE svg PUBLIC "-//W3C//DTD SVG 1.1//EN"
 "http://www.w3.org/Graphics/SVG/1.1/DTD/svg11.dtd">
<!-- Generated by graphviz version 12.2.1 (20241206.2353)
 -->
<!-- Title: C:/Users/emilly/Documents/Lucca/Projetos/Cpp/NikiScript/src/CommandHandler.cpp Pages: 1 -->
<svg width="743pt" height="276pt"
 viewBox="0.00 0.00 743.30 276.00" xmlns="http://www.w3.org/2000/svg" xmlns:xlink="http://www.w3.org/1999/xlink">
<g id="graph0" class="graph" transform="scale(1 1) rotate(0) translate(4 272)">
<title>C:/Users/emilly/Documents/Lucca/Projetos/Cpp/NikiScript/src/CommandHandler.cpp</title>
<!-- Node1 -->
<g id="Node000001" class="node">
<title>Node1</title>
<g id="a_Node000001"><a xlink:title=" ">
<polygon fill="#999999" stroke="#666666" points="412.84,-268 261.84,-268 261.84,-224 412.84,-224 412.84,-268"/>
<text text-anchor="start" x="269.84" y="-254.5" font-family="Helvetica,sans-Serif" font-size="10.00">C:/Users/emilly/Documents</text>
<text text-anchor="start" x="269.84" y="-242.5" font-family="Helvetica,sans-Serif" font-size="10.00">/Lucca/Projetos/Cpp/NikiScript</text>
<text text-anchor="middle" x="337.34" y="-230.5" font-family="Helvetica,sans-Serif" font-size="10.00">/src/CommandHandler.cpp</text>
</a>
</g>
</g>
<!-- Node2 -->
<g id="Node000002" class="node">
<title>Node2</title>
<g id="a_Node000002"><a xlink:href="_command_handler_8h.html" target="_top" xlink:title=" ">
<polygon fill="white" stroke="#666666" points="330.84,-132 227.84,-132 227.84,-112 330.84,-112 330.84,-132"/>
<text text-anchor="middle" x="279.34" y="-118.5" font-family="Helvetica,sans-Serif" font-size="10.00">CommandHandler.h</text>
</a>
</g>
</g>
<!-- Node1&#45;&gt;Node2 -->
<g id="edge1_Node000001_Node000002" class="edge">
<title>Node1&#45;&gt;Node2</title>
<g id="a_edge1_Node000001_Node000002"><a xlink:title=" ">
<path fill="none" stroke="#63b8ff" d="M327.24,-223.75C316.35,-200.84 299.17,-164.69 288.61,-142.49"/>
<polygon fill="#63b8ff" stroke="#63b8ff" points="291.87,-141.2 284.42,-133.67 285.55,-144.2 291.87,-141.2"/>
</a>
</g>
</g>
<!-- Node9 -->
<g id="Node000009" class="node">
<title>Node9</title>
<g id="a_Node000009"><a xlink:href="_context_8h.html" target="_top" xlink:title=" ">
<polygon fill="white" stroke="#666666" points="425.72,-188 366.97,-188 366.97,-168 425.72,-168 425.72,-188"/>
<text text-anchor="middle" x="396.34" y="-174.5" font-family="Helvetica,sans-Serif" font-size="10.00">Context.h</text>
</a>
</g>
</g>
<!-- Node1&#45;&gt;Node9 -->
<g id="edge10_Node000001_Node000009" class="edge">
<title>Node1&#45;&gt;Node9</title>
<g id="a_edge10_Node000001_Node000009"><a xlink:title=" ">
<path fill="none" stroke="#63b8ff" d="M356.34,-223.75C364.07,-215.1 372.91,-205.21 380.32,-196.93"/>
<polygon fill="#63b8ff" stroke="#63b8ff" points="382.86,-199.34 386.92,-189.55 377.64,-194.67 382.86,-199.34"/>
</a>
</g>
</g>
<!-- Node3 -->
<g id="Node000003" class="node">
<title>Node3</title>
<g id="a_Node000003"><a xlink:title=" ">
<polygon fill="#e0e0e0" stroke="#999999" points="128.72,-76 45.97,-76 45.97,-56 128.72,-56 128.72,-76"/>
<text text-anchor="middle" x="87.34" y="-62.5" font-family="Helvetica,sans-Serif" font-size="10.00">unordered_map</text>
</a>
</g>
</g>
<!-- Node2&#45;&gt;Node3 -->
<g id="edge2_Node000002_Node000003" class="edge">
<title>Node2&#45;&gt;Node3</title>
<g id="a_edge2_Node000002_Node000003"><a xlink:title=" ">
<path fill="none" stroke="#63b8ff" d="M245.9,-111.59C214.3,-102.71 166.67,-89.31 131.86,-79.52"/>
<polygon fill="#63b8ff" stroke="#63b8ff" points="133.08,-76.23 122.51,-76.89 131.18,-82.97 133.08,-76.23"/>
</a>
</g>
</g>
<!-- Node4 -->
<g id="Node000004" class="node">
<title>Node4</title>
<g id="a_Node000004"><a xlink:title=" ">
<polygon fill="#e0e0e0" stroke="#999999" points="459.34,-20 419.34,-20 419.34,0 459.34,0 459.34,-20"/>
<text text-anchor="middle" x="439.34" y="-6.5" font-family="Helvetica,sans-Serif" font-size="10.00">string</text>
</a>
</g>
</g>
<!-- Node2&#45;&gt;Node4 -->
<g id="edge3_Node000002_Node000004" class="edge">
<title>Node2&#45;&gt;Node4</title>
<g id="a_edge3_Node000002_Node000004"><a xlink:title=" ">
<path fill="none" stroke="#63b8ff" d="M277.95,-111.78C276.4,-97.92 275.7,-71.68 289.34,-56 318.96,-21.96 373.2,-13.14 407.71,-11.15"/>
<polygon fill="#63b8ff" stroke="#63b8ff" points="407.65,-14.66 417.5,-10.76 407.37,-7.66 407.65,-14.66"/>
</a>
</g>
</g>
<!-- Node5 -->
<g id="Node000005" class="node">
<title>Node5</title>
<g id="a_Node000005"><a xlink:href="_command_8h.html" target="_top" xlink:title=" ">
<polygon fill="white" stroke="#666666" points="505.97,-76 436.72,-76 436.72,-56 505.97,-56 505.97,-76"/>
<text text-anchor="middle" x="471.34" y="-62.5" font-family="Helvetica,sans-Serif" font-size="10.00">Command.h</text>
</a>
</g>
</g>
<!-- Node2&#45;&gt;Node5 -->
<g id="edge4_Node000002_Node000005" class="edge">
<title>Node2&#45;&gt;Node5</title>
<g id="a_edge4_Node000002_Node000005"><a xlink:title=" ">
<path fill="none" stroke="#63b8ff" d="M312.79,-111.59C344.39,-102.71 392.02,-89.31 426.83,-79.52"/>
<polygon fill="#63b8ff" stroke="#63b8ff" points="427.5,-82.97 436.18,-76.89 425.61,-76.23 427.5,-82.97"/>
</a>
</g>
</g>
<!-- Node8 -->
<g id="Node000008" class="node">
<title>Node8</title>
<g id="a_Node000008"><a xlink:href="_d_l_l_8h.html" target="_top" xlink:title=" ">
<polygon fill="white" stroke="#666666" points="316.47,-20 274.22,-20 274.22,0 316.47,0 316.47,-20"/>
<text text-anchor="middle" x="295.34" y="-6.5" font-family="Helvetica,sans-Serif" font-size="10.00">DLL.h</text>
</a>
</g>
</g>
<!-- Node2&#45;&gt;Node8 -->
<g id="edge9_Node000002_Node000008" class="edge">
<title>Node2&#45;&gt;Node8</title>
<g id="a_edge9_Node000002_Node000008"><a xlink:title=" ">
<path fill="none" stroke="#63b8ff" d="M258.88,-111.65C236.45,-99.99 205.25,-78.82 218.34,-56 228.08,-39.03 246.96,-27.86 263.58,-20.88"/>
<polygon fill="#63b8ff" stroke="#63b8ff" points="264.55,-24.26 272.65,-17.43 262.06,-17.72 264.55,-24.26"/>
</a>
</g>
</g>
<!-- Node5&#45;&gt;Node4 -->
<g id="edge6_Node000005_Node000004" class="edge">
<title>Node5&#45;&gt;Node4</title>
<g id="a_edge6_Node000005_Node000004"><a xlink:title=" ">
<path fill="none" stroke="#63b8ff" d="M465.77,-55.59C461.59,-48.55 455.74,-38.67 450.6,-30"/>
<polygon fill="#63b8ff" stroke="#63b8ff" points="453.73,-28.42 445.63,-21.6 447.71,-31.99 453.73,-28.42"/>
</a>
</g>
</g>
<!-- Node6 -->
<g id="Node000006" class="node">
<title>Node6</title>
<g id="a_Node000006"><a xlink:title=" ">
<polygon fill="#e0e0e0" stroke="#999999" points="684.84,-20 641.84,-20 641.84,0 684.84,0 684.84,-20"/>
<text text-anchor="middle" x="663.34" y="-6.5" font-family="Helvetica,sans-Serif" font-size="10.00">vector</text>
</a>
</g>
</g>
<!-- Node5&#45;&gt;Node6 -->
<g id="edge5_Node000005_Node000006" class="edge">
<title>Node5&#45;&gt;Node6</title>
<g id="a_edge5_Node000005_Node000006"><a xlink:title=" ">
<path fill="none" stroke="#63b8ff" d="M504.79,-55.59C540.12,-45.66 595.47,-30.09 630.55,-20.22"/>
<polygon fill="#63b8ff" stroke="#63b8ff" points="631.48,-23.6 640.15,-17.52 629.58,-16.86 631.48,-23.6"/>
</a>
</g>
</g>
<!-- Node7 -->
<g id="Node000007" class="node">
<title>Node7</title>
<g id="a_Node000007"><a xlink:title=" ">
<polygon fill="#e0e0e0" stroke="#999999" points="590.47,-20 542.22,-20 542.22,0 590.47,0 590.47,-20"/>
<text text-anchor="middle" x="566.34" y="-6.5" font-family="Helvetica,sans-Serif" font-size="10.00">stdint.h</text>
</a>
</g>
</g>
<!-- Node5&#45;&gt;Node7 -->
<g id="edge7_Node000005_Node000007" class="edge">
<title>Node5&#45;&gt;Node7</title>
<g id="a_edge7_Node000005_Node000007"><a xlink:title=" ">
<path fill="none" stroke="#63b8ff" d="M487.89,-55.59C502.24,-47.44 523.27,-35.48 539.95,-26"/>
<polygon fill="#63b8ff" stroke="#63b8ff" points="541.39,-29.21 548.35,-21.23 537.93,-23.13 541.39,-29.21"/>
</a>
</g>
</g>
<!-- Node5&#45;&gt;Node8 -->
<g id="edge8_Node000005_Node000008" class="edge">
<title>Node5&#45;&gt;Node8</title>
<g id="a_edge8_Node000005_Node000008"><a xlink:title=" ">
<path fill="none" stroke="#63b8ff" d="M440.69,-55.59C408.97,-45.86 359.65,-30.73 327.42,-20.84"/>
<polygon fill="#63b8ff" stroke="#63b8ff" points="328.83,-17.61 318.24,-18.02 326.77,-24.3 328.83,-17.61"/>
</a>
</g>
</g>
<!-- Node9&#45;&gt;Node2 -->
<g id="edge16_Node000009_Node000002" class="edge">
<title>Node9&#45;&gt;Node2</title>
<g id="a_edge16_Node000009_Node000002"><a xlink:title=" ">
<path fill="none" stroke="#63b8ff" d="M375.96,-167.59C357.79,-159.21 330.92,-146.8 310.12,-137.21"/>
<polygon fill="#63b8ff" stroke="#63b8ff" points="311.8,-134.13 301.26,-133.11 308.87,-140.48 311.8,-134.13"/>
</a>
</g>
</g>
<!-- Node9&#45;&gt;Node3 -->
<g id="edge14_Node000009_Node000003" class="edge">
<title>Node9&#45;&gt;Node3</title>
<g id="a_edge14_Node000009_Node000003"><a xlink:title=" ">
<path fill="none" stroke="#63b8ff" d="M366.65,-171.43C331.01,-164.29 269.77,-150.59 219.34,-132 181.22,-117.94 139.5,-96.25 113.38,-81.85"/>
<polygon fill="#63b8ff" stroke="#63b8ff" points="115.28,-78.9 104.85,-77.09 111.87,-85.02 115.28,-78.9"/>
</a>
</g>
</g>
<!-- Node9&#45;&gt;Node4 -->
<g id="edge13_Node000009_Node000004" class="edge">
<title>Node9&#45;&gt;Node4</title>
<g id="a_edge13_Node000009_Node000004"><a xlink:title=" ">
<path fill="none" stroke="#63b8ff" d="M416.98,-167.63C446.19,-152.99 497.96,-121.57 515.34,-76 518.51,-67.69 519.75,-63.72 515.34,-56 505.63,-38.95 486.63,-27.7 470.07,-20.72"/>
<polygon fill="#63b8ff" stroke="#63b8ff" points="471.65,-17.58 461.06,-17.26 469.15,-24.11 471.65,-17.58"/>
</a>
</g>
</g>
<!-- Node9&#45;&gt;Node5 -->
<g id="edge15_Node000009_Node000005" class="edge">
<title>Node9&#45;&gt;Node5</title>
<g id="a_edge15_Node000009_Node000005"><a xlink:title=" ">
<path fill="none" stroke="#63b8ff" d="M409.86,-167.67C420.96,-159.4 436.42,-146.43 446.34,-132 455.68,-118.42 462.16,-100.88 466.18,-87.44"/>
<polygon fill="#63b8ff" stroke="#63b8ff" points="469.52,-88.52 468.79,-77.95 462.77,-86.66 469.52,-88.52"/>
</a>
</g>
</g>
<!-- Node9&#45;&gt;Node6 -->
<g id="edge11_Node000009_Node000006" class="edge">
<title>Node9&#45;&gt;Node6</title>
<g id="a_edge11_Node000009_Node000006"><a xlink:title=" ">
<path fill="none" stroke="#63b8ff" d="M425.73,-175.26C490.55,-170.97 643.51,-158.3 687.34,-132 720.44,-112.15 747.38,-90.12 729.34,-56 722.03,-42.16 708.34,-31.78 695.32,-24.5"/>
<polygon fill="#63b8ff" stroke="#63b8ff" points="697,-21.43 686.5,-20 693.82,-27.66 697,-21.43"/>
</a>
</g>
</g>
<!-- Node9&#45;&gt;Node7 -->
<g id="edge12_Node000009_Node000007" class="edge">
<title>Node9&#45;&gt;Node7</title>
<g id="a_edge12_Node000009_Node000007"><a xlink:title=" ">
<path fill="none" stroke="#63b8ff" d="M425.96,-177.58C476.37,-177.37 580.8,-171.66 657.34,-132 688.6,-115.81 699.87,-108.52 713.34,-76 716.75,-67.79 718.63,-63.15 713.34,-56 700.05,-38.02 641.18,-24.3 602.09,-16.96"/>
<polygon fill="#63b8ff" stroke="#63b8ff" points="602.87,-13.55 592.4,-15.21 601.62,-20.44 602.87,-13.55"/>
</a>
</g>
</g>
<!-- Node9&#45;&gt;Node8 -->
<g id="edge40_Node000009_Node000008" class="edge">
<title>Node9&#45;&gt;Node8</title>
<g id="a_edge40_Node000009_Node000008"><a xlink:title=" ">
<path fill="none" stroke="#63b8ff" d="M366.75,-175.53C283.69,-171.12 53,-156.71 30.34,-132 7.51,-107.09 6.53,-81.8 28.34,-56 43.38,-38.22 195.03,-21.01 262.86,-14.14"/>
<polygon fill="#63b8ff" stroke="#63b8ff" points="263.01,-17.64 272.62,-13.16 262.32,-10.67 263.01,-17.64"/>
</a>
</g>
</g>
<!-- Node10 -->
<g id="Node000010" class="node">
<title>Node10</title>
<g id="a_Node000010"><a xlink:href="_print_callback_8h.html" target="_top" xlink:title=" ">
<polygon fill="white" stroke="#666666" points="437.72,-132 354.97,-132 354.97,-112 437.72,-112 437.72,-132"/>
<text text-anchor="middle" x="396.34" y="-118.5" font-family="Helvetica,sans-Serif" font-size="10.00">PrintCallback.h</text>
</a>
</g>
</g>
<!-- Node9&#45;&gt;Node10 -->
<g id="edge17_Node000009_Node000010" class="edge">
<title>Node9&#45;&gt;Node10</title>
<g id="a_edge17_Node000009_Node000010"><a xlink:title=" ">
<path fill="none" stroke="#63b8ff" d="M396.34,-167.59C396.34,-161.01 396.34,-151.96 396.34,-143.73"/>
<polygon fill="#63b8ff" stroke="#63b8ff" points="399.84,-143.81 396.34,-133.81 392.84,-143.81 399.84,-143.81"/>
</a>
</g>
</g>
<!-- Node13 -->
<g id="Node000013" class="node">
<title>Node13</title>
<g id="a_Node000013"><a xlink:href="_program_variable_8h.html" target="_top" xlink:title=" ">
<polygon fill="white" stroke="#666666" points="135.09,-132 39.59,-132 39.59,-112 135.09,-112 135.09,-132"/>
<text text-anchor="middle" x="87.34" y="-118.5" font-family="Helvetica,sans-Serif" font-size="10.00">ProgramVariable.h</text>
</a>
</g>
</g>
<!-- Node9&#45;&gt;Node13 -->
<g id="edge26_Node000009_Node000013" class="edge">
<title>Node9&#45;&gt;Node13</title>
<g id="a_edge26_Node000009_Node000013"><a xlink:title=" ">
<path fill="none" stroke="#63b8ff" d="M366.72,-171.82C316.17,-162.99 212.35,-144.85 146.49,-133.34"/>
<polygon fill="#63b8ff" stroke="#63b8ff" points="147.41,-129.94 136.95,-131.67 146.2,-136.84 147.41,-129.94"/>
</a>
</g>
</g>
<!-- Node14 -->
<g id="Node000014" class="node">
<title>Node14</title>
<g id="a_Node000014"><a xlink:href="_lexer_8h.html" target="_top" xlink:title=" ">
<polygon fill="white" stroke="#666666" points="648.47,-132 600.22,-132 600.22,-112 648.47,-112 648.47,-132"/>
<text text-anchor="middle" x="624.34" y="-118.5" font-family="Helvetica,sans-Serif" font-size="10.00">Lexer.h</text>
</a>
</g>
</g>
<!-- Node9&#45;&gt;Node14 -->
<g id="edge31_Node000009_Node000014" class="edge">
<title>Node9&#45;&gt;Node14</title>
<g id="a_edge31_Node000009_Node000014"><a xlink:title=" ">
<path fill="none" stroke="#63b8ff" d="M426.15,-169.94C468.01,-160.03 544.1,-142.01 588.84,-131.41"/>
<polygon fill="#63b8ff" stroke="#63b8ff" points="589.37,-134.88 598.29,-129.17 587.75,-128.07 589.37,-134.88"/>
</a>
</g>
</g>
<!-- Node10&#45;&gt;Node4 -->
<g id="edge19_Node000010_Node000004" class="edge">
<title>Node10&#45;&gt;Node4</title>
<g id="a_edge19_Node000010_Node000004"><a xlink:title=" ">
<path fill="none" stroke="#63b8ff" d="M400.01,-111.62C406.96,-93.84 422.19,-54.88 431.53,-31"/>
<polygon fill="#63b8ff" stroke="#63b8ff" points="434.76,-32.35 435.14,-21.76 428.24,-29.8 434.76,-32.35"/>
</a>
</g>
</g>
<!-- Node10&#45;&gt;Node7 -->
<g id="edge18_Node000010_Node000007" class="edge">
<title>Node10&#45;&gt;Node7</title>
<g id="a_edge18_Node000010_Node000007"><a xlink:title=" ">
<path fill="none" stroke="#63b8ff" d="M437.07,-111.54C461.41,-104.51 492.02,-93.13 515.34,-76 532.11,-63.69 546.25,-44.46 555.35,-30.11"/>
<polygon fill="#63b8ff" stroke="#63b8ff" points="558.34,-31.94 560.51,-21.58 552.35,-28.32 558.34,-31.94"/>
</a>
</g>
</g>
<!-- Node10&#45;&gt;Node8 -->
<g id="edge20_Node000010_Node000008" class="edge">
<title>Node10&#45;&gt;Node8</title>
<g id="a_edge20_Node000010_Node000008"><a xlink:title=" ">
<path fill="none" stroke="#63b8ff" d="M354.63,-114.89C331.21,-109.09 303.84,-97.82 289.34,-76 280.61,-62.86 283.15,-44.79 287.29,-31.03"/>
<polygon fill="#63b8ff" stroke="#63b8ff" points="290.55,-32.31 290.58,-21.72 283.95,-29.98 290.55,-32.31"/>
</a>
</g>
</g>
<!-- Node11 -->
<g id="Node000011" class="node">
<title>Node11</title>
<g id="a_Node000011"><a xlink:href="_utils_8h.html" target="_top" xlink:title=" ">
<polygon fill="white" stroke="#666666" points="342.59,-76 298.09,-76 298.09,-56 342.59,-56 342.59,-76"/>
<text text-anchor="middle" x="320.34" y="-62.5" font-family="Helvetica,sans-Serif" font-size="10.00">Utils.h</text>
</a>
</g>
</g>
<!-- Node10&#45;&gt;Node11 -->
<g id="edge21_Node000010_Node000011" class="edge">
<title>Node10&#45;&gt;Node11</title>
<g id="a_edge21_Node000010_Node000011"><a xlink:title=" ">
<path fill="none" stroke="#63b8ff" d="M383.11,-111.59C372.06,-103.74 356.06,-92.38 342.99,-83.09"/>
<polygon fill="#63b8ff" stroke="#63b8ff" points="345.1,-80.3 334.92,-77.36 341.04,-86 345.1,-80.3"/>
</a>
</g>
</g>
<!-- Node11&#45;&gt;Node4 -->
<g id="edge23_Node000011_Node000004" class="edge">
<title>Node11&#45;&gt;Node4</title>
<g id="a_edge23_Node000011_Node000004"><a xlink:title=" ">
<path fill="none" stroke="#63b8ff" d="M341.07,-55.59C359.67,-47.15 387.22,-34.65 408.43,-25.03"/>
<polygon fill="#63b8ff" stroke="#63b8ff" points="409.82,-28.24 417.48,-20.92 406.92,-21.87 409.82,-28.24"/>
</a>
</g>
</g>
<!-- Node11&#45;&gt;Node7 -->
<g id="edge22_Node000011_Node000007" class="edge">
<title>Node11&#45;&gt;Node7</title>
<g id="a_edge22_Node000011_Node000007"><a xlink:title=" ">
<path fill="none" stroke="#63b8ff" d="M343.05,-60.02C385.97,-50.59 479.33,-30.1 530.69,-18.83"/>
<polygon fill="#63b8ff" stroke="#63b8ff" points="531.39,-22.26 540.41,-16.69 529.89,-15.42 531.39,-22.26"/>
</a>
</g>
</g>
<!-- Node11&#45;&gt;Node8 -->
<g id="edge25_Node000011_Node000008" class="edge">
<title>Node11&#45;&gt;Node8</title>
<g id="a_edge25_Node000011_Node000008"><a xlink:title=" ">
<path fill="none" stroke="#63b8ff" d="M315.99,-55.59C312.8,-48.7 308.35,-39.1 304.41,-30.57"/>
<polygon fill="#63b8ff" stroke="#63b8ff" points="307.66,-29.28 300.28,-21.67 301.31,-32.22 307.66,-29.28"/>
</a>
</g>
</g>
<!-- Node12 -->
<g id="Node000012" class="node">
<title>Node12</title>
<g id="a_Node000012"><a xlink:title=" ">
<polygon fill="#e0e0e0" stroke="#999999" points="143.97,-20 92.72,-20 92.72,0 143.97,0 143.97,-20"/>
<text text-anchor="middle" x="118.34" y="-6.5" font-family="Helvetica,sans-Serif" font-size="10.00">sstream</text>
</a>
</g>
</g>
<!-- Node11&#45;&gt;Node12 -->
<g id="edge24_Node000011_Node000012" class="edge">
<title>Node11&#45;&gt;Node12</title>
<g id="a_edge24_Node000011_Node000012"><a xlink:title=" ">
<path fill="none" stroke="#63b8ff" d="M297.95,-59.01C263.5,-49.8 197.09,-32.05 155.39,-20.9"/>
<polygon fill="#63b8ff" stroke="#63b8ff" points="156.36,-17.54 145.79,-18.34 154.55,-24.3 156.36,-17.54"/>
</a>
</g>
</g>
<!-- Node13&#45;&gt;Node3 -->
<g id="edge29_Node000013_Node000003" class="edge">
<title>Node13&#45;&gt;Node3</title>
<g id="a_edge29_Node000013_Node000003"><a xlink:title=" ">
<path fill="none" stroke="#63b8ff" d="M87.34,-111.59C87.34,-105.01 87.34,-95.96 87.34,-87.73"/>
<polygon fill="#63b8ff" stroke="#63b8ff" points="90.84,-87.81 87.34,-77.81 83.84,-87.81 90.84,-87.81"/>
</a>
</g>
</g>
<!-- Node13&#45;&gt;Node4 -->
<g id="edge27_Node000013_Node000004" class="edge">
<title>Node13&#45;&gt;Node4</title>
<g id="a_edge27_Node000013_Node000004"><a xlink:title=" ">
<path fill="none" stroke="#63b8ff" d="M113.16,-111.55C149.4,-98.42 217.51,-74.22 276.34,-56 321.87,-41.9 375.22,-27.59 408.15,-19"/>
<polygon fill="#63b8ff" stroke="#63b8ff" points="408.63,-22.49 417.43,-16.59 406.87,-15.71 408.63,-22.49"/>
</a>
</g>
</g>
<!-- Node13&#45;&gt;Node8 -->
<g id="edge30_Node000013_Node000008" class="edge">
<title>Node13&#45;&gt;Node8</title>
<g id="a_edge30_Node000013_Node000008"><a xlink:title=" ">
<path fill="none" stroke="#63b8ff" d="M71.02,-111.54C50.9,-98.71 21.22,-75.18 37.34,-56 51.74,-38.88 196.41,-21.49 262.6,-14.36"/>
<polygon fill="#63b8ff" stroke="#63b8ff" points="262.91,-17.85 272.49,-13.31 262.18,-10.89 262.91,-17.85"/>
</a>
</g>
</g>
<!-- Node13&#45;&gt;Node12 -->
<g id="edge28_Node000013_Node000012" class="edge">
<title>Node13&#45;&gt;Node12</title>
<g id="a_edge28_Node000013_Node000012"><a xlink:title=" ">
<path fill="none" stroke="#63b8ff" d="M56.62,-111.56C26.51,-100.63 -12.59,-80.89 4.34,-56 21.44,-30.87 54.96,-19.77 81.24,-14.87"/>
<polygon fill="#63b8ff" stroke="#63b8ff" points="81.55,-18.37 90.87,-13.32 80.44,-11.46 81.55,-18.37"/>
</a>
</g>
</g>
<!-- Node14&#45;&gt;Node4 -->
<g id="edge33_Node000014_Node000004" class="edge">
<title>Node14&#45;&gt;Node4</title>
<g id="a_edge33_Node000014_Node000004"><a xlink:title=" ">
<path fill="none" stroke="#63b8ff" d="M621.33,-111.55C616.34,-97.39 605,-70.76 586.34,-56 552.66,-29.35 503.23,-18.42 471.16,-13.98"/>
<polygon fill="#63b8ff" stroke="#63b8ff" points="471.65,-10.51 461.3,-12.76 470.79,-17.46 471.65,-10.51"/>
</a>
</g>
</g>
<!-- Node14&#45;&gt;Node7 -->
<g id="edge32_Node000014_Node000007" class="edge">
<title>Node14&#45;&gt;Node7</title>
<g id="a_edge32_Node000014_Node000007"><a xlink:title=" ">
<path fill="none" stroke="#63b8ff" d="M648.72,-112.07C675.97,-100.69 714.2,-79.62 697.34,-56 686.05,-40.17 636.75,-26.39 601.96,-18.38"/>
<polygon fill="#63b8ff" stroke="#63b8ff" points="602.8,-14.98 592.28,-16.22 601.28,-21.81 602.8,-14.98"/>
</a>
</g>
</g>
<!-- Node14&#45;&gt;Node8 -->
<g id="edge39_Node000014_Node000008" class="edge">
<title>Node14&#45;&gt;Node8</title>
<g id="a_edge39_Node000014_Node000008"><a xlink:title=" ">
<path fill="none" stroke="#63b8ff" d="M599.87,-117.3C562.11,-111.17 487.68,-97.42 427.34,-76 389.05,-62.41 347.38,-40.61 321.31,-26.05"/>
<polygon fill="#63b8ff" stroke="#63b8ff" points="323.22,-23.11 312.79,-21.23 319.77,-29.2 323.22,-23.11"/>
</a>
</g>
</g>
<!-- Node15 -->
<g id="Node000015" class="node">
<title>Node15</title>
<g id="a_Node000015"><a xlink:href="_token_8h.html" target="_top" xlink:title=" ">
<polygon fill="white" stroke="#666666" points="688.59,-76 638.09,-76 638.09,-56 688.59,-56 688.59,-76"/>
<text text-anchor="middle" x="663.34" y="-62.5" font-family="Helvetica,sans-Serif" font-size="10.00">Token.h</text>
</a>
</g>
</g>
<!-- Node14&#45;&gt;Node15 -->
<g id="edge34_Node000014_Node000015" class="edge">
<title>Node14&#45;&gt;Node15</title>
<g id="a_edge34_Node000014_Node000015"><a xlink:title=" ">
<path fill="none" stroke="#63b8ff" d="M631.14,-111.59C636.34,-104.39 643.68,-94.23 650.03,-85.43"/>
<polygon fill="#63b8ff" stroke="#63b8ff" points="652.72,-87.68 655.74,-77.53 647.05,-83.58 652.72,-87.68"/>
</a>
</g>
</g>
<!-- Node15&#45;&gt;Node4 -->
<g id="edge36_Node000015_Node000004" class="edge">
<title>Node15&#45;&gt;Node4</title>
<g id="a_edge36_Node000015_Node000004"><a xlink:title=" ">
<path fill="none" stroke="#63b8ff" d="M637.65,-58.81C596.4,-48.86 515.53,-29.37 470.86,-18.6"/>
<polygon fill="#63b8ff" stroke="#63b8ff" points="471.82,-15.23 461.28,-16.29 470.18,-22.03 471.82,-15.23"/>
</a>
</g>
</g>
<!-- Node15&#45;&gt;Node6 -->
<g id="edge37_Node000015_Node000006" class="edge">
<title>Node15&#45;&gt;Node6</title>
<g id="a_edge37_Node000015_Node000006"><a xlink:title=" ">
<path fill="none" stroke="#63b8ff" d="M663.34,-55.59C663.34,-49.01 663.34,-39.96 663.34,-31.73"/>
<polygon fill="#63b8ff" stroke="#63b8ff" points="666.84,-31.81 663.34,-21.81 659.84,-31.81 666.84,-31.81"/>
</a>
</g>
</g>
<!-- Node15&#45;&gt;Node7 -->
<g id="edge35_Node000015_Node000007" class="edge">
<title>Node15&#45;&gt;Node7</title>
<g id="a_edge35_Node000015_Node000007"><a xlink:title=" ">
<path fill="none" stroke="#63b8ff" d="M646.45,-55.59C631.79,-47.44 610.32,-35.48 593.3,-26"/>
<polygon fill="#63b8ff" stroke="#63b8ff" points="595.13,-23.02 584.69,-21.22 591.73,-29.14 595.13,-23.02"/>
</a>
</g>
</g>
<!-- Node15&#45;&gt;Node8 -->
<g id="edge38_Node000015_Node000008" class="edge">
<title>Node15&#45;&gt;Node8</title>
<g id="a_edge38_Node000015_Node000008"><a xlink:title=" ">
<path fill="none" stroke="#63b8ff" d="M637.76,-61.25C572.45,-51.66 399.64,-26.3 327.6,-15.73"/>
<polygon fill="#63b8ff" stroke="#63b8ff" points="328.44,-12.32 318.03,-14.33 327.42,-19.24 328.44,-12.32"/>
</a>
</g>
</g>
</g>
</svg>
