<?xml version="1.0" encoding="UTF-8" standalone="no"?>
<!DOCTYPE svg PUBLIC "-//W3C//DTD SVG 1.1//EN"
 "http://www.w3.org/Graphics/SVG/1.1/DTD/svg11.dtd">
<!-- Generated by graphviz version 12.2.1 (20241206.2353)
 -->
<!-- Title: C:/Users/emilly/Documents/Lucca/Projetos/Cpp/NikiScript/wrapper/CommandWrapper.cpp Pages: 1 -->
<svg width="272pt" height="220pt"
 viewBox="0.00 0.00 271.75 220.00" xmlns="http://www.w3.org/2000/svg" xmlns:xlink="http://www.w3.org/1999/xlink">
<g id="graph0" class="graph" transform="scale(1 1) rotate(0) translate(4 216)">
<title>C:/Users/emilly/Documents/Lucca/Projetos/Cpp/NikiScript/wrapper/CommandWrapper.cpp</title>
<!-- Node1 -->
<g id="Node000001" class="node">
<title>Node1</title>
<g id="a_Node000001"><a xlink:title=" ">
<polygon fill="#999999" stroke="#666666" points="263.75,-212 107.5,-212 107.5,-168 263.75,-168 263.75,-212"/>
<text text-anchor="start" x="115.5" y="-198.5" font-family="Helvetica,sans-Serif" font-size="10.00">C:/Users/emilly/Documents</text>
<text text-anchor="start" x="115.5" y="-186.5" font-family="Helvetica,sans-Serif" font-size="10.00">/Lucca/Projetos/Cpp/NikiScript</text>
<text text-anchor="middle" x="185.62" y="-174.5" font-family="Helvetica,sans-Serif" font-size="10.00">/wrapper/CommandWrapper.cpp</text>
</a>
</g>
</g>
<!-- Node2 -->
<g id="Node000002" class="node">
<title>Node2</title>
<g id="a_Node000002"><a xlink:href="_command_wrapper_8h.html" target="_top" xlink:title=" ">
<polygon fill="white" stroke="#666666" points="157.25,-132 52,-132 52,-112 157.25,-112 157.25,-132"/>
<text text-anchor="middle" x="104.62" y="-118.5" font-family="Helvetica,sans-Serif" font-size="10.00">CommandWrapper.h</text>
</a>
</g>
</g>
<!-- Node1&#45;&gt;Node2 -->
<g id="edge1_Node000001_Node000002" class="edge">
<title>Node1&#45;&gt;Node2</title>
<g id="a_edge1_Node000001_Node000002"><a xlink:title=" ">
<path fill="none" stroke="#63b8ff" d="M159.55,-167.75C148.36,-158.64 135.48,-148.14 125.01,-139.61"/>
<polygon fill="#63b8ff" stroke="#63b8ff" points="127.32,-136.98 117.36,-133.37 122.9,-142.41 127.32,-136.98"/>
</a>
</g>
</g>
<!-- Node5 -->
<g id="Node000005" class="node">
<title>Node5</title>
<g id="a_Node000005"><a xlink:title=" ">
<polygon fill="#e0e0e0" stroke="#999999" points="152.12,-20 109.12,-20 109.12,0 152.12,0 152.12,-20"/>
<text text-anchor="middle" x="130.62" y="-6.5" font-family="Helvetica,sans-Serif" font-size="10.00">vector</text>
</a>
</g>
</g>
<!-- Node1&#45;&gt;Node5 -->
<g id="edge7_Node000001_Node000005" class="edge">
<title>Node1&#45;&gt;Node5</title>
<g id="a_edge7_Node000001_Node000005"><a xlink:title=" ">
<path fill="none" stroke="#63b8ff" d="M185.98,-167.8C185.69,-140.75 182.65,-93.03 166.62,-56 162.28,-45.97 155.09,-36.3 148.27,-28.52"/>
<polygon fill="#63b8ff" stroke="#63b8ff" points="151.05,-26.36 141.67,-21.44 145.93,-31.14 151.05,-26.36"/>
</a>
</g>
</g>
<!-- Node6 -->
<g id="Node000006" class="node">
<title>Node6</title>
<g id="a_Node000006"><a xlink:title=" ">
<polygon fill="#e0e0e0" stroke="#999999" points="226.62,-20 186.62,-20 186.62,0 226.62,0 226.62,-20"/>
<text text-anchor="middle" x="206.62" y="-6.5" font-family="Helvetica,sans-Serif" font-size="10.00">string</text>
</a>
</g>
</g>
<!-- Node1&#45;&gt;Node6 -->
<g id="edge8_Node000001_Node000006" class="edge">
<title>Node1&#45;&gt;Node6</title>
<g id="a_edge8_Node000001_Node000006"><a xlink:title=" ">
<path fill="none" stroke="#63b8ff" d="M191.88,-167.53C194.72,-156.93 197.84,-143.89 199.62,-132 204.88,-97.08 206.25,-55.94 206.58,-31.74"/>
<polygon fill="#63b8ff" stroke="#63b8ff" points="210.07,-32.02 206.65,-21.99 203.07,-31.96 210.07,-32.02"/>
</a>
</g>
</g>
<!-- Node3 -->
<g id="Node000003" class="node">
<title>Node3</title>
<g id="a_Node000003"><a xlink:href="_d_l_l_export_8h.html" target="_top" xlink:title=" ">
<polygon fill="white" stroke="#666666" points="158,-76 87.25,-76 87.25,-56 158,-56 158,-76"/>
<text text-anchor="middle" x="122.62" y="-62.5" font-family="Helvetica,sans-Serif" font-size="10.00">DLLExport.h</text>
</a>
</g>
</g>
<!-- Node2&#45;&gt;Node3 -->
<g id="edge2_Node000002_Node000003" class="edge">
<title>Node2&#45;&gt;Node3</title>
<g id="a_edge2_Node000002_Node000003"><a xlink:title=" ">
<path fill="none" stroke="#63b8ff" d="M107.76,-111.59C110.01,-104.86 113.11,-95.53 115.91,-87.15"/>
<polygon fill="#63b8ff" stroke="#63b8ff" points="119.2,-88.33 119.05,-77.73 112.56,-86.11 119.2,-88.33"/>
</a>
</g>
</g>
<!-- Node4 -->
<g id="Node000004" class="node">
<title>Node4</title>
<g id="a_Node000004"><a xlink:href="_command_8h.html" target="_top" xlink:title=" ">
<polygon fill="white" stroke="#666666" points="69.25,-76 0,-76 0,-56 69.25,-56 69.25,-76"/>
<text text-anchor="middle" x="34.62" y="-62.5" font-family="Helvetica,sans-Serif" font-size="10.00">Command.h</text>
</a>
</g>
</g>
<!-- Node2&#45;&gt;Node4 -->
<g id="edge3_Node000002_Node000004" class="edge">
<title>Node2&#45;&gt;Node4</title>
<g id="a_edge3_Node000002_Node000004"><a xlink:title=" ">
<path fill="none" stroke="#63b8ff" d="M92.43,-111.59C82.29,-103.77 67.63,-92.46 55.61,-83.19"/>
<polygon fill="#63b8ff" stroke="#63b8ff" points="57.93,-80.56 47.88,-77.22 53.66,-86.1 57.93,-80.56"/>
</a>
</g>
</g>
<!-- Node4&#45;&gt;Node5 -->
<g id="edge4_Node000004_Node000005" class="edge">
<title>Node4&#45;&gt;Node5</title>
<g id="a_edge4_Node000004_Node000005"><a xlink:title=" ">
<path fill="none" stroke="#63b8ff" d="M51.35,-55.59C65.85,-47.44 87.1,-35.48 103.95,-26"/>
<polygon fill="#63b8ff" stroke="#63b8ff" points="105.45,-29.17 112.45,-21.22 102.02,-23.07 105.45,-29.17"/>
</a>
</g>
</g>
<!-- Node4&#45;&gt;Node6 -->
<g id="edge5_Node000004_Node000006" class="edge">
<title>Node4&#45;&gt;Node6</title>
<g id="a_edge5_Node000004_Node000006"><a xlink:title=" ">
<path fill="none" stroke="#63b8ff" d="M64.59,-55.59C95.62,-45.85 143.89,-30.7 175.38,-20.81"/>
<polygon fill="#63b8ff" stroke="#63b8ff" points="176.23,-24.21 184.72,-17.88 174.13,-17.53 176.23,-24.21"/>
</a>
</g>
</g>
<!-- Node7 -->
<g id="Node000007" class="node">
<title>Node7</title>
<g id="a_Node000007"><a xlink:title=" ">
<polygon fill="#e0e0e0" stroke="#999999" points="58.75,-20 10.5,-20 10.5,0 58.75,0 58.75,-20"/>
<text text-anchor="middle" x="34.62" y="-6.5" font-family="Helvetica,sans-Serif" font-size="10.00">stdint.h</text>
</a>
</g>
</g>
<!-- Node4&#45;&gt;Node7 -->
<g id="edge6_Node000004_Node000007" class="edge">
<title>Node4&#45;&gt;Node7</title>
<g id="a_edge6_Node000004_Node000007"><a xlink:title=" ">
<path fill="none" stroke="#63b8ff" d="M34.62,-55.59C34.62,-49.01 34.62,-39.96 34.62,-31.73"/>
<polygon fill="#63b8ff" stroke="#63b8ff" points="38.13,-31.81 34.63,-21.81 31.13,-31.81 38.13,-31.81"/>
</a>
</g>
</g>
</g>
</svg>
