<?xml version="1.0" encoding="UTF-8" standalone="no"?>
<!DOCTYPE svg PUBLIC "-//W3C//DTD SVG 1.1//EN"
 "http://www.w3.org/Graphics/SVG/1.1/DTD/svg11.dtd">
<!-- Generated by graphviz version 12.2.1 (20241206.2353)
 -->
<!-- Title: C:/Users/emilly/Documents/Lucca/Projetos/Cpp/NikiScript/src/Command.cpp Pages: 1 -->
<svg width="320pt" height="220pt"
 viewBox="0.00 0.00 319.75 220.00" xmlns="http://www.w3.org/2000/svg" xmlns:xlink="http://www.w3.org/1999/xlink">
<g id="graph0" class="graph" transform="scale(1 1) rotate(0) translate(4 216)">
<title>C:/Users/emilly/Documents/Lucca/Projetos/Cpp/NikiScript/src/Command.cpp</title>
<!-- Node1 -->
<g id="Node000001" class="node">
<title>Node1</title>
<g id="a_Node000001"><a xlink:title=" ">
<polygon fill="#999999" stroke="#666666" points="276.12,-212 125.12,-212 125.12,-168 276.12,-168 276.12,-212"/>
<text text-anchor="start" x="133.12" y="-198.5" font-family="Helvetica,sans-Serif" font-size="10.00">C:/Users/emilly/Documents</text>
<text text-anchor="start" x="133.12" y="-186.5" font-family="Helvetica,sans-Serif" font-size="10.00">/Lucca/Projetos/Cpp/NikiScript</text>
<text text-anchor="middle" x="200.62" y="-174.5" font-family="Helvetica,sans-Serif" font-size="10.00">/src/Command.cpp</text>
</a>
</g>
</g>
<!-- Node2 -->
<g id="Node000002" class="node">
<title>Node2</title>
<g id="a_Node000002"><a xlink:href="_command_8h.html" target="_top" xlink:title=" ">
<polygon fill="white" stroke="#666666" points="69.25,-76 0,-76 0,-56 69.25,-56 69.25,-76"/>
<text text-anchor="middle" x="34.62" y="-62.5" font-family="Helvetica,sans-Serif" font-size="10.00">Command.h</text>
</a>
</g>
</g>
<!-- Node1&#45;&gt;Node2 -->
<g id="edge1_Node000001_Node000002" class="edge">
<title>Node1&#45;&gt;Node2</title>
<g id="a_edge1_Node000001_Node000002"><a xlink:title=" ">
<path fill="none" stroke="#63b8ff" d="M161.6,-167.56C144.27,-157.49 123.93,-144.87 106.62,-132 86.71,-117.18 65.86,-97.88 51.75,-84.17"/>
<polygon fill="#63b8ff" stroke="#63b8ff" points="54.57,-82.03 44.99,-77.5 49.65,-87.01 54.57,-82.03"/>
</a>
</g>
</g>
<!-- Node6 -->
<g id="Node000006" class="node">
<title>Node6</title>
<g id="a_Node000006"><a xlink:title=" ">
<polygon fill="#e0e0e0" stroke="#999999" points="255.25,-20 204,-20 204,0 255.25,0 255.25,-20"/>
<text text-anchor="middle" x="229.62" y="-6.5" font-family="Helvetica,sans-Serif" font-size="10.00">sstream</text>
</a>
</g>
</g>
<!-- Node1&#45;&gt;Node6 -->
<g id="edge5_Node000001_Node000006" class="edge">
<title>Node1&#45;&gt;Node6</title>
<g id="a_edge5_Node000001_Node000006"><a xlink:title=" ">
<path fill="none" stroke="#63b8ff" d="M204.12,-167.53C209.76,-132.93 220.78,-65.29 226.3,-31.39"/>
<polygon fill="#63b8ff" stroke="#63b8ff" points="229.73,-32.12 227.88,-21.69 222.82,-30.99 229.73,-32.12"/>
</a>
</g>
</g>
<!-- Node7 -->
<g id="Node000007" class="node">
<title>Node7</title>
<g id="a_Node000007"><a xlink:title=" ">
<polygon fill="#e0e0e0" stroke="#999999" points="311.75,-132 263.5,-132 263.5,-112 311.75,-112 311.75,-132"/>
<text text-anchor="middle" x="287.62" y="-118.5" font-family="Helvetica,sans-Serif" font-size="10.00">cassert</text>
</a>
</g>
</g>
<!-- Node1&#45;&gt;Node7 -->
<g id="edge6_Node000001_Node000007" class="edge">
<title>Node1&#45;&gt;Node7</title>
<g id="a_edge6_Node000001_Node000007"><a xlink:title=" ">
<path fill="none" stroke="#63b8ff" d="M228.63,-167.75C240.77,-158.54 254.76,-147.93 266.07,-139.35"/>
<polygon fill="#63b8ff" stroke="#63b8ff" points="268.15,-142.17 274,-133.33 263.92,-136.59 268.15,-142.17"/>
</a>
</g>
</g>
<!-- Node8 -->
<g id="Node000008" class="node">
<title>Node8</title>
<g id="a_Node000008"><a xlink:href="_print_callback_8h.html" target="_top" xlink:title=" ">
<polygon fill="white" stroke="#666666" points="198,-132 115.25,-132 115.25,-112 198,-112 198,-132"/>
<text text-anchor="middle" x="156.62" y="-118.5" font-family="Helvetica,sans-Serif" font-size="10.00">PrintCallback.h</text>
</a>
</g>
</g>
<!-- Node1&#45;&gt;Node8 -->
<g id="edge7_Node000001_Node000008" class="edge">
<title>Node1&#45;&gt;Node8</title>
<g id="a_edge7_Node000001_Node000008"><a xlink:title=" ">
<path fill="none" stroke="#63b8ff" d="M186.46,-167.75C180.88,-159.38 174.52,-149.85 169.12,-141.74"/>
<polygon fill="#63b8ff" stroke="#63b8ff" points="172.2,-140.06 163.74,-133.68 166.38,-143.94 172.2,-140.06"/>
</a>
</g>
</g>
<!-- Node3 -->
<g id="Node000003" class="node">
<title>Node3</title>
<g id="a_Node000003"><a xlink:title=" ">
<polygon fill="#e0e0e0" stroke="#999999" points="55.12,-20 12.12,-20 12.12,0 55.12,0 55.12,-20"/>
<text text-anchor="middle" x="33.62" y="-6.5" font-family="Helvetica,sans-Serif" font-size="10.00">vector</text>
</a>
</g>
</g>
<!-- Node2&#45;&gt;Node3 -->
<g id="edge2_Node000002_Node000003" class="edge">
<title>Node2&#45;&gt;Node3</title>
<g id="a_edge2_Node000002_Node000003"><a xlink:title=" ">
<path fill="none" stroke="#63b8ff" d="M34.45,-55.59C34.33,-49.01 34.16,-39.96 34.01,-31.73"/>
<polygon fill="#63b8ff" stroke="#63b8ff" points="37.51,-31.75 33.83,-21.81 30.51,-31.87 37.51,-31.75"/>
</a>
</g>
</g>
<!-- Node4 -->
<g id="Node000004" class="node">
<title>Node4</title>
<g id="a_Node000004"><a xlink:title=" ">
<polygon fill="#e0e0e0" stroke="#999999" points="179.62,-20 139.62,-20 139.62,0 179.62,0 179.62,-20"/>
<text text-anchor="middle" x="159.62" y="-6.5" font-family="Helvetica,sans-Serif" font-size="10.00">string</text>
</a>
</g>
</g>
<!-- Node2&#45;&gt;Node4 -->
<g id="edge3_Node000002_Node000004" class="edge">
<title>Node2&#45;&gt;Node4</title>
<g id="a_edge3_Node000002_Node000004"><a xlink:title=" ">
<path fill="none" stroke="#63b8ff" d="M56.4,-55.59C76.48,-46.92 106.48,-33.96 128.98,-24.24"/>
<polygon fill="#63b8ff" stroke="#63b8ff" points="130.16,-27.54 137.95,-20.36 127.38,-21.12 130.16,-27.54"/>
</a>
</g>
</g>
<!-- Node5 -->
<g id="Node000005" class="node">
<title>Node5</title>
<g id="a_Node000005"><a xlink:title=" ">
<polygon fill="#e0e0e0" stroke="#999999" points="121.75,-20 73.5,-20 73.5,0 121.75,0 121.75,-20"/>
<text text-anchor="middle" x="97.62" y="-6.5" font-family="Helvetica,sans-Serif" font-size="10.00">stdint.h</text>
</a>
</g>
</g>
<!-- Node2&#45;&gt;Node5 -->
<g id="edge4_Node000002_Node000005" class="edge">
<title>Node2&#45;&gt;Node5</title>
<g id="a_edge4_Node000002_Node000005"><a xlink:title=" ">
<path fill="none" stroke="#63b8ff" d="M45.6,-55.59C54.54,-47.93 67.4,-36.91 78.09,-27.75"/>
<polygon fill="#63b8ff" stroke="#63b8ff" points="80.31,-30.45 85.63,-21.28 75.76,-25.13 80.31,-30.45"/>
</a>
</g>
</g>
<!-- Node8&#45;&gt;Node4 -->
<g id="edge9_Node000008_Node000004" class="edge">
<title>Node8&#45;&gt;Node4</title>
<g id="a_edge9_Node000008_Node000004"><a xlink:title=" ">
<path fill="none" stroke="#63b8ff" d="M162.67,-111.82C168.07,-103.04 175.57,-89.22 178.62,-76 182.23,-60.41 176.63,-43.02 170.59,-30.15"/>
<polygon fill="#63b8ff" stroke="#63b8ff" points="173.82,-28.77 166.1,-21.51 167.61,-32 173.82,-28.77"/>
</a>
</g>
</g>
<!-- Node8&#45;&gt;Node5 -->
<g id="edge8_Node000008_Node000005" class="edge">
<title>Node8&#45;&gt;Node5</title>
<g id="a_edge8_Node000008_Node000005"><a xlink:title=" ">
<path fill="none" stroke="#63b8ff" d="M145.99,-111.64C136.98,-103.16 124.32,-89.9 116.62,-76 108.95,-62.12 104.08,-44.82 101.2,-31.56"/>
<polygon fill="#63b8ff" stroke="#63b8ff" points="104.65,-30.96 99.31,-21.81 97.78,-32.3 104.65,-30.96"/>
</a>
</g>
</g>
<!-- Node9 -->
<g id="Node000009" class="node">
<title>Node9</title>
<g id="a_Node000009"><a xlink:href="_utils_8h.html" target="_top" xlink:title=" ">
<polygon fill="white" stroke="#666666" points="169.88,-76 125.38,-76 125.38,-56 169.88,-56 169.88,-76"/>
<text text-anchor="middle" x="147.62" y="-62.5" font-family="Helvetica,sans-Serif" font-size="10.00">Utils.h</text>
</a>
</g>
</g>
<!-- Node8&#45;&gt;Node9 -->
<g id="edge10_Node000008_Node000009" class="edge">
<title>Node8&#45;&gt;Node9</title>
<g id="a_edge10_Node000008_Node000009"><a xlink:title=" ">
<path fill="none" stroke="#63b8ff" d="M155.06,-111.59C153.95,-104.93 152.42,-95.75 151.03,-87.44"/>
<polygon fill="#63b8ff" stroke="#63b8ff" points="154.52,-87.08 149.42,-77.79 147.62,-88.23 154.52,-87.08"/>
</a>
</g>
</g>
<!-- Node9&#45;&gt;Node4 -->
<g id="edge12_Node000009_Node000004" class="edge">
<title>Node9&#45;&gt;Node4</title>
<g id="a_edge12_Node000009_Node000004"><a xlink:title=" ">
<path fill="none" stroke="#63b8ff" d="M149.72,-55.59C151.2,-48.93 153.24,-39.75 155.08,-31.44"/>
<polygon fill="#63b8ff" stroke="#63b8ff" points="158.48,-32.3 157.23,-21.78 151.64,-30.78 158.48,-32.3"/>
</a>
</g>
</g>
<!-- Node9&#45;&gt;Node5 -->
<g id="edge11_Node000009_Node000005" class="edge">
<title>Node9&#45;&gt;Node5</title>
<g id="a_edge11_Node000009_Node000005"><a xlink:title=" ">
<path fill="none" stroke="#63b8ff" d="M138.92,-55.59C132.03,-48.16 122.23,-37.58 113.91,-28.58"/>
<polygon fill="#63b8ff" stroke="#63b8ff" points="116.63,-26.37 107.26,-21.41 111.49,-31.12 116.63,-26.37"/>
</a>
</g>
</g>
<!-- Node9&#45;&gt;Node6 -->
<g id="edge13_Node000009_Node000006" class="edge">
<title>Node9&#45;&gt;Node6</title>
<g id="a_edge13_Node000009_Node000006"><a xlink:title=" ">
<path fill="none" stroke="#63b8ff" d="M161.91,-55.59C174.06,-47.59 191.76,-35.93 206.02,-26.54"/>
<polygon fill="#63b8ff" stroke="#63b8ff" points="207.54,-29.73 213.97,-21.31 203.69,-23.89 207.54,-29.73"/>
</a>
</g>
</g>
</g>
</svg>
