<?xml version="1.0" encoding="UTF-8" standalone="no"?>
<!DOCTYPE svg PUBLIC "-//W3C//DTD SVG 1.1//EN"
 "http://www.w3.org/Graphics/SVG/1.1/DTD/svg11.dtd">
<!-- Generated by graphviz version 12.2.1 (20241206.2353)
 -->
<!-- Title: C:/Users/emilly/Documents/Lucca/Projetos/Cpp/NikiScript/src/CommandHandler.cpp Pages: 1 -->
<svg width="644pt" height="276pt"
 viewBox="0.00 0.00 644.19 276.00" xmlns="http://www.w3.org/2000/svg" xmlns:xlink="http://www.w3.org/1999/xlink">
<g id="graph0" class="graph" transform="scale(1 1) rotate(0) translate(4 272)">
<title>C:/Users/emilly/Documents/Lucca/Projetos/Cpp/NikiScript/src/CommandHandler.cpp</title>
<!-- Node1 -->
<g id="Node000001" class="node">
<title>Node1</title>
<g id="a_Node000001"><a xlink:title=" ">
<polygon fill="#999999" stroke="#666666" points="281,-268 130,-268 130,-224 281,-224 281,-268"/>
<text text-anchor="start" x="138" y="-254.5" font-family="Helvetica,sans-Serif" font-size="10.00">C:/Users/emilly/Documents</text>
<text text-anchor="start" x="138" y="-242.5" font-family="Helvetica,sans-Serif" font-size="10.00">/Lucca/Projetos/Cpp/NikiScript</text>
<text text-anchor="middle" x="205.5" y="-230.5" font-family="Helvetica,sans-Serif" font-size="10.00">/src/CommandHandler.cpp</text>
</a>
</g>
</g>
<!-- Node2 -->
<g id="Node000002" class="node">
<title>Node2</title>
<g id="a_Node000002"><a xlink:href="_command_handler_8h.html" target="_top" xlink:title=" ">
<polygon fill="white" stroke="#666666" points="179,-132 76,-132 76,-112 179,-112 179,-132"/>
<text text-anchor="middle" x="127.5" y="-118.5" font-family="Helvetica,sans-Serif" font-size="10.00">CommandHandler.h</text>
</a>
</g>
</g>
<!-- Node1&#45;&gt;Node2 -->
<g id="edge1_Node000001_Node000002" class="edge">
<title>Node1&#45;&gt;Node2</title>
<g id="a_edge1_Node000001_Node000002"><a xlink:title=" ">
<path fill="none" stroke="#63b8ff" d="M191.91,-223.75C177.13,-200.63 153.73,-164.03 139.58,-141.89"/>
<polygon fill="#63b8ff" stroke="#63b8ff" points="142.6,-140.12 134.26,-133.58 136.7,-143.89 142.6,-140.12"/>
</a>
</g>
</g>
<!-- Node8 -->
<g id="Node000008" class="node">
<title>Node8</title>
<g id="a_Node000008"><a xlink:href="_context_8h.html" target="_top" xlink:title=" ">
<polygon fill="white" stroke="#666666" points="293.88,-188 235.12,-188 235.12,-168 293.88,-168 293.88,-188"/>
<text text-anchor="middle" x="264.5" y="-174.5" font-family="Helvetica,sans-Serif" font-size="10.00">Context.h</text>
</a>
</g>
</g>
<!-- Node1&#45;&gt;Node8 -->
<g id="edge8_Node000001_Node000008" class="edge">
<title>Node1&#45;&gt;Node8</title>
<g id="a_edge8_Node000001_Node000008"><a xlink:title=" ">
<path fill="none" stroke="#63b8ff" d="M224.49,-223.75C232.23,-215.1 241.07,-205.21 248.47,-196.93"/>
<polygon fill="#63b8ff" stroke="#63b8ff" points="251.02,-199.34 255.07,-189.55 245.8,-194.67 251.02,-199.34"/>
</a>
</g>
</g>
<!-- Node3 -->
<g id="Node000003" class="node">
<title>Node3</title>
<g id="a_Node000003"><a xlink:title=" ">
<polygon fill="#e0e0e0" stroke="#999999" points="481.88,-20 399.12,-20 399.12,0 481.88,0 481.88,-20"/>
<text text-anchor="middle" x="440.5" y="-6.5" font-family="Helvetica,sans-Serif" font-size="10.00">unordered_map</text>
</a>
</g>
</g>
<!-- Node2&#45;&gt;Node3 -->
<g id="edge2_Node000002_Node000003" class="edge">
<title>Node2&#45;&gt;Node3</title>
<g id="a_edge2_Node000002_Node000003"><a xlink:title=" ">
<path fill="none" stroke="#63b8ff" d="M179.35,-118.82C229.03,-115 305.04,-104.55 364.5,-76 388.35,-64.55 410.73,-43.7 424.95,-28.7"/>
<polygon fill="#63b8ff" stroke="#63b8ff" points="427.49,-31.11 431.66,-21.37 422.32,-26.38 427.49,-31.11"/>
</a>
</g>
</g>
<!-- Node4 -->
<g id="Node000004" class="node">
<title>Node4</title>
<g id="a_Node000004"><a xlink:title=" ">
<polygon fill="#e0e0e0" stroke="#999999" points="140.25,-20 74.75,-20 74.75,0 140.25,0 140.25,-20"/>
<text text-anchor="middle" x="107.5" y="-6.5" font-family="Helvetica,sans-Serif" font-size="10.00">string_view</text>
</a>
</g>
</g>
<!-- Node2&#45;&gt;Node4 -->
<g id="edge3_Node000002_Node000004" class="edge">
<title>Node2&#45;&gt;Node4</title>
<g id="a_edge3_Node000002_Node000004"><a xlink:title=" ">
<path fill="none" stroke="#63b8ff" d="M104.43,-111.57C89.8,-104.24 72.08,-92.51 63.5,-76 54.42,-58.51 69.64,-40.04 84.6,-27.27"/>
<polygon fill="#63b8ff" stroke="#63b8ff" points="86.34,-30.36 92.01,-21.41 82,-24.87 86.34,-30.36"/>
</a>
</g>
</g>
<!-- Node5 -->
<g id="Node000005" class="node">
<title>Node5</title>
<g id="a_Node000005"><a xlink:href="_command_8h.html" target="_top" xlink:title=" ">
<polygon fill="white" stroke="#666666" points="142.12,-76 72.88,-76 72.88,-56 142.12,-56 142.12,-76"/>
<text text-anchor="middle" x="107.5" y="-62.5" font-family="Helvetica,sans-Serif" font-size="10.00">Command.h</text>
</a>
</g>
</g>
<!-- Node2&#45;&gt;Node5 -->
<g id="edge4_Node000002_Node000005" class="edge">
<title>Node2&#45;&gt;Node5</title>
<g id="a_edge4_Node000002_Node000005"><a xlink:title=" ">
<path fill="none" stroke="#63b8ff" d="M124.02,-111.59C121.49,-104.78 117.99,-95.32 114.86,-86.86"/>
<polygon fill="#63b8ff" stroke="#63b8ff" points="118.22,-85.88 111.47,-77.72 111.66,-88.31 118.22,-85.88"/>
</a>
</g>
</g>
<!-- Node5&#45;&gt;Node4 -->
<g id="edge6_Node000005_Node000004" class="edge">
<title>Node5&#45;&gt;Node4</title>
<g id="a_edge6_Node000005_Node000004"><a xlink:title=" ">
<path fill="none" stroke="#63b8ff" d="M107.5,-55.59C107.5,-49.01 107.5,-39.96 107.5,-31.73"/>
<polygon fill="#63b8ff" stroke="#63b8ff" points="111,-31.81 107.5,-21.81 104,-31.81 111,-31.81"/>
</a>
</g>
</g>
<!-- Node6 -->
<g id="Node000006" class="node">
<title>Node6</title>
<g id="a_Node000006"><a xlink:title=" ">
<polygon fill="#e0e0e0" stroke="#999999" points="43,-20 0,-20 0,0 43,0 43,-20"/>
<text text-anchor="middle" x="21.5" y="-6.5" font-family="Helvetica,sans-Serif" font-size="10.00">vector</text>
</a>
</g>
</g>
<!-- Node5&#45;&gt;Node6 -->
<g id="edge5_Node000005_Node000006" class="edge">
<title>Node5&#45;&gt;Node6</title>
<g id="a_edge5_Node000005_Node000006"><a xlink:title=" ">
<path fill="none" stroke="#63b8ff" d="M92.52,-55.59C79.77,-47.59 61.21,-35.93 46.26,-26.54"/>
<polygon fill="#63b8ff" stroke="#63b8ff" points="48.21,-23.64 37.88,-21.28 44.49,-29.57 48.21,-23.64"/>
</a>
</g>
</g>
<!-- Node7 -->
<g id="Node000007" class="node">
<title>Node7</title>
<g id="a_Node000007"><a xlink:title=" ">
<polygon fill="#e0e0e0" stroke="#999999" points="353.5,-20 313.5,-20 313.5,0 353.5,0 353.5,-20"/>
<text text-anchor="middle" x="333.5" y="-6.5" font-family="Helvetica,sans-Serif" font-size="10.00">string</text>
</a>
</g>
</g>
<!-- Node5&#45;&gt;Node7 -->
<g id="edge7_Node000005_Node000007" class="edge">
<title>Node5&#45;&gt;Node7</title>
<g id="a_edge7_Node000005_Node000007"><a xlink:title=" ">
<path fill="none" stroke="#63b8ff" d="M142.32,-56.68C185.91,-46.26 259.95,-28.57 301.95,-18.54"/>
<polygon fill="#63b8ff" stroke="#63b8ff" points="302.76,-21.94 311.67,-16.21 301.14,-15.13 302.76,-21.94"/>
</a>
</g>
</g>
<!-- Node8&#45;&gt;Node2 -->
<g id="edge14_Node000008_Node000002" class="edge">
<title>Node8&#45;&gt;Node2</title>
<g id="a_edge14_Node000008_Node000002"><a xlink:title=" ">
<path fill="none" stroke="#63b8ff" d="M240.64,-167.59C218.96,-159.05 186.73,-146.35 162.21,-136.68"/>
<polygon fill="#63b8ff" stroke="#63b8ff" points="163.54,-133.45 152.96,-133.03 160.98,-139.96 163.54,-133.45"/>
</a>
</g>
</g>
<!-- Node8&#45;&gt;Node3 -->
<g id="edge12_Node000008_Node000003" class="edge">
<title>Node8&#45;&gt;Node3</title>
<g id="a_edge12_Node000008_Node000003"><a xlink:title=" ">
<path fill="none" stroke="#63b8ff" d="M294.23,-177.09C329.3,-175.48 386.81,-167.19 418.5,-132 443.43,-104.32 444.6,-58.18 442.81,-31.59"/>
<polygon fill="#63b8ff" stroke="#63b8ff" points="446.31,-31.42 441.93,-21.78 439.34,-32.05 446.31,-31.42"/>
</a>
</g>
</g>
<!-- Node8&#45;&gt;Node5 -->
<g id="edge13_Node000008_Node000005" class="edge">
<title>Node8&#45;&gt;Node5</title>
<g id="a_edge13_Node000008_Node000005"><a xlink:title=" ">
<path fill="none" stroke="#63b8ff" d="M255.17,-167.93C241.31,-154.72 214.16,-129.83 188.5,-112 172.19,-100.66 152.76,-89.79 137.02,-81.57"/>
<polygon fill="#63b8ff" stroke="#63b8ff" points="138.64,-78.47 128.15,-77.03 135.45,-84.7 138.64,-78.47"/>
</a>
</g>
</g>
<!-- Node8&#45;&gt;Node6 -->
<g id="edge9_Node000008_Node000006" class="edge">
<title>Node8&#45;&gt;Node6</title>
<g id="a_edge9_Node000008_Node000006"><a xlink:title=" ">
<path fill="none" stroke="#63b8ff" d="M234.67,-173.65C185.96,-167.62 92.25,-153.53 67.5,-132 37.64,-106.02 27.09,-58.52 23.42,-31.41"/>
<polygon fill="#63b8ff" stroke="#63b8ff" points="26.93,-31.27 22.31,-21.73 19.97,-32.06 26.93,-31.27"/>
</a>
</g>
</g>
<!-- Node8&#45;&gt;Node7 -->
<g id="edge11_Node000008_Node000007" class="edge">
<title>Node8&#45;&gt;Node7</title>
<g id="a_edge11_Node000008_Node000007"><a xlink:title=" ">
<path fill="none" stroke="#63b8ff" d="M266.46,-167.53C270.98,-146.65 283.29,-95.38 302.5,-56 307,-46.77 313.24,-37.29 318.94,-29.44"/>
<polygon fill="#63b8ff" stroke="#63b8ff" points="321.56,-31.78 324.8,-21.69 315.97,-27.56 321.56,-31.78"/>
</a>
</g>
</g>
<!-- Node9 -->
<g id="Node000009" class="node">
<title>Node9</title>
<g id="a_Node000009"><a xlink:title=" ">
<polygon fill="#e0e0e0" stroke="#999999" points="627.62,-20 579.38,-20 579.38,0 627.62,0 627.62,-20"/>
<text text-anchor="middle" x="603.5" y="-6.5" font-family="Helvetica,sans-Serif" font-size="10.00">stdint.h</text>
</a>
</g>
</g>
<!-- Node8&#45;&gt;Node9 -->
<g id="edge10_Node000008_Node000009" class="edge">
<title>Node8&#45;&gt;Node9</title>
<g id="a_edge10_Node000008_Node000009"><a xlink:title=" ">
<path fill="none" stroke="#63b8ff" d="M294.03,-177.62C349.49,-177.71 471.98,-172.8 564.5,-132 600.64,-116.06 616.52,-111.66 633.5,-76 641.07,-60.11 631.08,-41.91 620.65,-28.81"/>
<polygon fill="#63b8ff" stroke="#63b8ff" points="623.42,-26.67 614.21,-21.43 618.14,-31.27 623.42,-26.67"/>
</a>
</g>
</g>
<!-- Node10 -->
<g id="Node000010" class="node">
<title>Node10</title>
<g id="a_Node000010"><a xlink:href="_print_callback_8h.html" target="_top" xlink:title=" ">
<polygon fill="white" stroke="#666666" points="409.88,-132 327.12,-132 327.12,-112 409.88,-112 409.88,-132"/>
<text text-anchor="middle" x="368.5" y="-118.5" font-family="Helvetica,sans-Serif" font-size="10.00">PrintCallback.h</text>
</a>
</g>
</g>
<!-- Node8&#45;&gt;Node10 -->
<g id="edge15_Node000008_Node000010" class="edge">
<title>Node8&#45;&gt;Node10</title>
<g id="a_edge15_Node000008_Node000010"><a xlink:title=" ">
<path fill="none" stroke="#63b8ff" d="M282.62,-167.59C298.47,-159.36 321.78,-147.26 340.12,-137.74"/>
<polygon fill="#63b8ff" stroke="#63b8ff" points="341.64,-140.89 348.9,-133.18 338.41,-134.68 341.64,-140.89"/>
</a>
</g>
</g>
<!-- Node13 -->
<g id="Node000013" class="node">
<title>Node13</title>
<g id="a_Node000013"><a xlink:href="_program_variable_8h.html" target="_top" xlink:title=" ">
<polygon fill="white" stroke="#666666" points="255.25,-76 159.75,-76 159.75,-56 255.25,-56 255.25,-76"/>
<text text-anchor="middle" x="207.5" y="-62.5" font-family="Helvetica,sans-Serif" font-size="10.00">ProgramVariable.h</text>
</a>
</g>
</g>
<!-- Node8&#45;&gt;Node13 -->
<g id="edge22_Node000008_Node000013" class="edge">
<title>Node8&#45;&gt;Node13</title>
<g id="a_edge22_Node000008_Node000013"><a xlink:title=" ">
<path fill="none" stroke="#63b8ff" d="M259.64,-167.62C250.34,-149.68 229.87,-110.17 217.52,-86.35"/>
<polygon fill="#63b8ff" stroke="#63b8ff" points="220.75,-84.97 213.04,-77.7 214.54,-88.19 220.75,-84.97"/>
</a>
</g>
</g>
<!-- Node14 -->
<g id="Node000014" class="node">
<title>Node14</title>
<g id="a_Node000014"><a xlink:href="_lexer_8h.html" target="_top" xlink:title=" ">
<polygon fill="white" stroke="#666666" points="555.62,-132 507.38,-132 507.38,-112 555.62,-112 555.62,-132"/>
<text text-anchor="middle" x="531.5" y="-118.5" font-family="Helvetica,sans-Serif" font-size="10.00">Lexer.h</text>
</a>
</g>
</g>
<!-- Node8&#45;&gt;Node14 -->
<g id="edge27_Node000008_Node000014" class="edge">
<title>Node8&#45;&gt;Node14</title>
<g id="a_edge27_Node000008_Node000014"><a xlink:title=" ">
<path fill="none" stroke="#63b8ff" d="M294.35,-170.96C343.82,-160.96 442.58,-140.98 495.71,-130.24"/>
<polygon fill="#63b8ff" stroke="#63b8ff" points="496.35,-133.68 505.46,-128.27 494.96,-126.82 496.35,-133.68"/>
</a>
</g>
</g>
<!-- Node10&#45;&gt;Node7 -->
<g id="edge17_Node000010_Node000007" class="edge">
<title>Node10&#45;&gt;Node7</title>
<g id="a_edge17_Node000010_Node000007"><a xlink:title=" ">
<path fill="none" stroke="#63b8ff" d="M369.44,-111.87C370.43,-99.02 371.07,-75.02 364.5,-56 361.19,-46.42 355.24,-36.99 349.43,-29.26"/>
<polygon fill="#63b8ff" stroke="#63b8ff" points="352.32,-27.26 343.31,-21.68 346.87,-31.66 352.32,-27.26"/>
</a>
</g>
</g>
<!-- Node10&#45;&gt;Node9 -->
<g id="edge16_Node000010_Node000009" class="edge">
<title>Node10&#45;&gt;Node9</title>
<g id="a_edge16_Node000010_Node000009"><a xlink:title=" ">
<path fill="none" stroke="#63b8ff" d="M409.93,-117.41C465.35,-111.78 559.53,-99.07 584.5,-76 596.79,-64.65 601.29,-45.83 602.86,-31.35"/>
<polygon fill="#63b8ff" stroke="#63b8ff" points="606.34,-31.77 603.51,-21.56 599.35,-31.31 606.34,-31.77"/>
</a>
</g>
</g>
<!-- Node11 -->
<g id="Node000011" class="node">
<title>Node11</title>
<g id="a_Node000011"><a xlink:href="_utils_8h.html" target="_top" xlink:title=" ">
<polygon fill="white" stroke="#666666" points="355.75,-76 311.25,-76 311.25,-56 355.75,-56 355.75,-76"/>
<text text-anchor="middle" x="333.5" y="-62.5" font-family="Helvetica,sans-Serif" font-size="10.00">Utils.h</text>
</a>
</g>
</g>
<!-- Node10&#45;&gt;Node11 -->
<g id="edge18_Node000010_Node000011" class="edge">
<title>Node10&#45;&gt;Node11</title>
<g id="a_edge18_Node000010_Node000011"><a xlink:title=" ">
<path fill="none" stroke="#63b8ff" d="M362.4,-111.59C357.79,-104.47 351.29,-94.45 345.63,-85.72"/>
<polygon fill="#63b8ff" stroke="#63b8ff" points="348.73,-84.06 340.35,-77.57 342.85,-87.86 348.73,-84.06"/>
</a>
</g>
</g>
<!-- Node11&#45;&gt;Node7 -->
<g id="edge20_Node000011_Node000007" class="edge">
<title>Node11&#45;&gt;Node7</title>
<g id="a_edge20_Node000011_Node000007"><a xlink:title=" ">
<path fill="none" stroke="#63b8ff" d="M333.5,-55.59C333.5,-49.01 333.5,-39.96 333.5,-31.73"/>
<polygon fill="#63b8ff" stroke="#63b8ff" points="337,-31.81 333.5,-21.81 330,-31.81 337,-31.81"/>
</a>
</g>
</g>
<!-- Node11&#45;&gt;Node9 -->
<g id="edge19_Node000011_Node000009" class="edge">
<title>Node11&#45;&gt;Node9</title>
<g id="a_edge19_Node000011_Node000009"><a xlink:title=" ">
<path fill="none" stroke="#63b8ff" d="M356.06,-60.49C402.91,-51.12 511.12,-29.48 567.64,-18.17"/>
<polygon fill="#63b8ff" stroke="#63b8ff" points="568.28,-21.61 577.4,-16.22 566.9,-14.75 568.28,-21.61"/>
</a>
</g>
</g>
<!-- Node12 -->
<g id="Node000012" class="node">
<title>Node12</title>
<g id="a_Node000012"><a xlink:title=" ">
<polygon fill="#e0e0e0" stroke="#999999" points="264.12,-20 212.88,-20 212.88,0 264.12,0 264.12,-20"/>
<text text-anchor="middle" x="238.5" y="-6.5" font-family="Helvetica,sans-Serif" font-size="10.00">sstream</text>
</a>
</g>
</g>
<!-- Node11&#45;&gt;Node12 -->
<g id="edge21_Node000011_Node000012" class="edge">
<title>Node11&#45;&gt;Node12</title>
<g id="a_edge21_Node000011_Node000012"><a xlink:title=" ">
<path fill="none" stroke="#63b8ff" d="M316.95,-55.59C302.6,-47.44 281.57,-35.48 264.9,-26"/>
<polygon fill="#63b8ff" stroke="#63b8ff" points="266.92,-23.13 256.49,-21.23 263.46,-29.21 266.92,-23.13"/>
</a>
</g>
</g>
<!-- Node13&#45;&gt;Node3 -->
<g id="edge26_Node000013_Node000003" class="edge">
<title>Node13&#45;&gt;Node3</title>
<g id="a_edge26_Node000013_Node000003"><a xlink:title=" ">
<path fill="none" stroke="#63b8ff" d="M248.35,-55.53C287.33,-46.5 346.2,-32.85 388.51,-23.05"/>
<polygon fill="#63b8ff" stroke="#63b8ff" points="389.27,-26.47 398.22,-20.8 387.69,-19.65 389.27,-26.47"/>
</a>
</g>
</g>
<!-- Node13&#45;&gt;Node4 -->
<g id="edge24_Node000013_Node000004" class="edge">
<title>Node13&#45;&gt;Node4</title>
<g id="a_edge24_Node000013_Node000004"><a xlink:title=" ">
<path fill="none" stroke="#63b8ff" d="M190.08,-55.59C174.83,-47.36 152.42,-35.26 134.79,-25.74"/>
<polygon fill="#63b8ff" stroke="#63b8ff" points="136.85,-22.87 126.39,-21.2 133.52,-29.03 136.85,-22.87"/>
</a>
</g>
</g>
<!-- Node13&#45;&gt;Node7 -->
<g id="edge23_Node000013_Node000007" class="edge">
<title>Node13&#45;&gt;Node7</title>
<g id="a_edge23_Node000013_Node000007"><a xlink:title=" ">
<path fill="none" stroke="#63b8ff" d="M229.45,-55.59C249.69,-46.92 279.93,-33.96 302.61,-24.24"/>
<polygon fill="#63b8ff" stroke="#63b8ff" points="303.85,-27.51 311.66,-20.36 301.09,-21.08 303.85,-27.51"/>
</a>
</g>
</g>
<!-- Node13&#45;&gt;Node12 -->
<g id="edge25_Node000013_Node000012" class="edge">
<title>Node13&#45;&gt;Node12</title>
<g id="a_edge25_Node000013_Node000012"><a xlink:title=" ">
<path fill="none" stroke="#63b8ff" d="M212.9,-55.59C216.94,-48.55 222.62,-38.67 227.59,-30"/>
<polygon fill="#63b8ff" stroke="#63b8ff" points="230.47,-32.03 232.41,-21.61 224.39,-28.54 230.47,-32.03"/>
</a>
</g>
</g>
<!-- Node14&#45;&gt;Node7 -->
<g id="edge29_Node000014_Node000007" class="edge">
<title>Node14&#45;&gt;Node7</title>
<g id="a_edge29_Node000014_Node000007"><a xlink:title=" ">
<path fill="none" stroke="#63b8ff" d="M514.62,-111.62C480.21,-92.5 401.71,-48.89 360.27,-25.87"/>
<polygon fill="#63b8ff" stroke="#63b8ff" points="362.1,-22.89 351.66,-21.09 358.7,-29.01 362.1,-22.89"/>
</a>
</g>
</g>
<!-- Node14&#45;&gt;Node9 -->
<g id="edge28_Node000014_Node000009" class="edge">
<title>Node14&#45;&gt;Node9</title>
<g id="a_edge28_Node000014_Node000009"><a xlink:title=" ">
<path fill="none" stroke="#63b8ff" d="M555.98,-115.6C576.4,-109.67 604.24,-97.91 617.5,-76 625.91,-62.11 620.85,-43.87 614.59,-30.25"/>
<polygon fill="#63b8ff" stroke="#63b8ff" points="617.73,-28.69 610.01,-21.43 611.51,-31.92 617.73,-28.69"/>
</a>
</g>
</g>
<!-- Node15 -->
<g id="Node000015" class="node">
<title>Node15</title>
<g id="a_Node000015"><a xlink:href="_token_8h.html" target="_top" xlink:title=" ">
<polygon fill="white" stroke="#666666" points="575.75,-76 525.25,-76 525.25,-56 575.75,-56 575.75,-76"/>
<text text-anchor="middle" x="550.5" y="-62.5" font-family="Helvetica,sans-Serif" font-size="10.00">Token.h</text>
</a>
</g>
</g>
<!-- Node14&#45;&gt;Node15 -->
<g id="edge30_Node000014_Node000015" class="edge">
<title>Node14&#45;&gt;Node15</title>
<g id="a_edge30_Node000014_Node000015"><a xlink:title=" ">
<path fill="none" stroke="#63b8ff" d="M534.81,-111.59C537.18,-104.86 540.46,-95.53 543.41,-87.15"/>
<polygon fill="#63b8ff" stroke="#63b8ff" points="546.71,-88.32 546.73,-77.73 540.11,-86 546.71,-88.32"/>
</a>
</g>
</g>
<!-- Node15&#45;&gt;Node3 -->
<g id="edge33_Node000015_Node000003" class="edge">
<title>Node15&#45;&gt;Node3</title>
<g id="a_edge33_Node000015_Node000003"><a xlink:title=" ">
<path fill="none" stroke="#63b8ff" d="M531.34,-55.59C514.41,-47.28 489.45,-35.03 469.98,-25.47"/>
<polygon fill="#63b8ff" stroke="#63b8ff" points="471.69,-22.41 461.17,-21.15 468.6,-28.7 471.69,-22.41"/>
</a>
</g>
</g>
<!-- Node15&#45;&gt;Node7 -->
<g id="edge32_Node000015_Node000007" class="edge">
<title>Node15&#45;&gt;Node7</title>
<g id="a_edge32_Node000015_Node000007"><a xlink:title=" ">
<path fill="none" stroke="#63b8ff" d="M524.76,-58.59C484.75,-48.64 407.79,-29.49 364.69,-18.76"/>
<polygon fill="#63b8ff" stroke="#63b8ff" points="365.77,-15.42 355.22,-16.4 364.08,-22.22 365.77,-15.42"/>
</a>
</g>
</g>
<!-- Node15&#45;&gt;Node9 -->
<g id="edge31_Node000015_Node000009" class="edge">
<title>Node15&#45;&gt;Node9</title>
<g id="a_edge31_Node000015_Node000009"><a xlink:title=" ">
<path fill="none" stroke="#63b8ff" d="M559.73,-55.59C567.1,-48.08 577.63,-37.35 586.52,-28.3"/>
<polygon fill="#63b8ff" stroke="#63b8ff" points="588.81,-30.97 593.31,-21.38 583.81,-26.06 588.81,-30.97"/>
</a>
</g>
</g>
</g>
</svg>
