<?xml version="1.0" encoding="UTF-8" standalone="no"?>
<!DOCTYPE svg PUBLIC "-//W3C//DTD SVG 1.1//EN"
 "http://www.w3.org/Graphics/SVG/1.1/DTD/svg11.dtd">
<!-- Generated by graphviz version 12.2.1 (20241206.2353)
 -->
<!-- Title: C:/Users/emilly/Documents/Lucca/Projetos/Cpp/NikiScript/wrapper/CommandHandlerWrapper.cpp Pages: 1 -->
<svg width="535pt" height="220pt"
 viewBox="0.00 0.00 534.50 220.00" xmlns="http://www.w3.org/2000/svg" xmlns:xlink="http://www.w3.org/1999/xlink">
<g id="graph0" class="graph" transform="scale(1 1) rotate(0) translate(4 216)">
<title>C:/Users/emilly/Documents/Lucca/Projetos/Cpp/NikiScript/wrapper/CommandHandlerWrapper.cpp</title>
<!-- Node1 -->
<g id="Node000001" class="node">
<title>Node1</title>
<g id="a_Node000001"><a xlink:title=" ">
<polygon fill="#999999" stroke="#666666" points="487.5,-212 297.5,-212 297.5,-168 487.5,-168 487.5,-212"/>
<text text-anchor="start" x="305.5" y="-198.5" font-family="Helvetica,sans-Serif" font-size="10.00">C:/Users/emilly/Documents</text>
<text text-anchor="start" x="305.5" y="-186.5" font-family="Helvetica,sans-Serif" font-size="10.00">/Lucca/Projetos/Cpp/NikiScript</text>
<text text-anchor="middle" x="392.5" y="-174.5" font-family="Helvetica,sans-Serif" font-size="10.00">/wrapper/CommandHandlerWrapper.cpp</text>
</a>
</g>
</g>
<!-- Node2 -->
<g id="Node000002" class="node">
<title>Node2</title>
<g id="a_Node000002"><a xlink:href="_command_handler_wrapper_8h.html" target="_top" xlink:title=" ">
<polygon fill="white" stroke="#666666" points="284,-132 145,-132 145,-112 284,-112 284,-132"/>
<text text-anchor="middle" x="214.5" y="-118.5" font-family="Helvetica,sans-Serif" font-size="10.00">CommandHandlerWrapper.h</text>
</a>
</g>
</g>
<!-- Node1&#45;&gt;Node2 -->
<g id="edge1_Node000001_Node000002" class="edge">
<title>Node1&#45;&gt;Node2</title>
<g id="a_edge1_Node000001_Node000002"><a xlink:title=" ">
<path fill="none" stroke="#63b8ff" d="M334.71,-167.57C306.89,-157.26 274.42,-145.22 250.24,-136.25"/>
<polygon fill="#63b8ff" stroke="#63b8ff" points="251.77,-133.09 241.18,-132.89 249.34,-139.65 251.77,-133.09"/>
</a>
</g>
</g>
<!-- Node7 -->
<g id="Node000007" class="node">
<title>Node7</title>
<g id="a_Node000007"><a xlink:href="_base_wrapper_8h.html" target="_top" xlink:title=" ">
<polygon fill="white" stroke="#666666" points="433.88,-132 351.12,-132 351.12,-112 433.88,-112 433.88,-132"/>
<text text-anchor="middle" x="392.5" y="-118.5" font-family="Helvetica,sans-Serif" font-size="10.00">BaseWrapper.h</text>
</a>
</g>
</g>
<!-- Node1&#45;&gt;Node7 -->
<g id="edge7_Node000001_Node000007" class="edge">
<title>Node1&#45;&gt;Node7</title>
<g id="a_edge7_Node000001_Node000007"><a xlink:title=" ">
<path fill="none" stroke="#63b8ff" d="M392.5,-167.75C392.5,-160.13 392.5,-151.53 392.5,-143.93"/>
<polygon fill="#63b8ff" stroke="#63b8ff" points="396,-143.93 392.5,-133.93 389,-143.93 396,-143.93"/>
</a>
</g>
</g>
<!-- Node11 -->
<g id="Node000011" class="node">
<title>Node11</title>
<g id="a_Node000011"><a xlink:title=" ">
<polygon fill="#e0e0e0" stroke="#999999" points="510.88,-132 452.12,-132 452.12,-112 510.88,-112 510.88,-132"/>
<text text-anchor="middle" x="481.5" y="-118.5" font-family="Helvetica,sans-Serif" font-size="10.00">Context.h</text>
</a>
</g>
</g>
<!-- Node1&#45;&gt;Node11 -->
<g id="edge12_Node000001_Node000011" class="edge">
<title>Node1&#45;&gt;Node11</title>
<g id="a_edge12_Node000001_Node000011"><a xlink:title=" ">
<path fill="none" stroke="#63b8ff" d="M421.15,-167.75C433.7,-158.45 448.17,-147.71 459.8,-139.09"/>
<polygon fill="#63b8ff" stroke="#63b8ff" points="461.64,-142.09 467.58,-133.32 457.47,-136.47 461.64,-142.09"/>
</a>
</g>
</g>
<!-- Node3 -->
<g id="Node000003" class="node">
<title>Node3</title>
<g id="a_Node000003"><a xlink:href="_d_l_l_export_8h.html" target="_top" xlink:title=" ">
<polygon fill="white" stroke="#666666" points="292.88,-20 222.12,-20 222.12,0 292.88,0 292.88,-20"/>
<text text-anchor="middle" x="257.5" y="-6.5" font-family="Helvetica,sans-Serif" font-size="10.00">DLLExport.h</text>
</a>
</g>
</g>
<!-- Node2&#45;&gt;Node3 -->
<g id="edge2_Node000002_Node000003" class="edge">
<title>Node2&#45;&gt;Node3</title>
<g id="a_edge2_Node000002_Node000003"><a xlink:title=" ">
<path fill="none" stroke="#63b8ff" d="M219.15,-111.82C223.62,-102.82 230.43,-88.64 235.5,-76 241.42,-61.25 247.14,-44.23 251.26,-31.3"/>
<polygon fill="#63b8ff" stroke="#63b8ff" points="254.59,-32.41 254.23,-21.82 247.91,-30.32 254.59,-32.41"/>
</a>
</g>
</g>
<!-- Node4 -->
<g id="Node000004" class="node">
<title>Node4</title>
<g id="a_Node000004"><a xlink:title=" ">
<polygon fill="#e0e0e0" stroke="#999999" points="103,-76 0,-76 0,-56 103,-56 103,-76"/>
<text text-anchor="middle" x="51.5" y="-62.5" font-family="Helvetica,sans-Serif" font-size="10.00">CommandHandler.h</text>
</a>
</g>
</g>
<!-- Node2&#45;&gt;Node4 -->
<g id="edge3_Node000002_Node000004" class="edge">
<title>Node2&#45;&gt;Node4</title>
<g id="a_edge3_Node000002_Node000004"><a xlink:title=" ">
<path fill="none" stroke="#63b8ff" d="M186.11,-111.59C159.74,-102.86 120.24,-89.77 90.84,-80.03"/>
<polygon fill="#63b8ff" stroke="#63b8ff" points="92.14,-76.78 81.55,-76.96 89.94,-83.42 92.14,-76.78"/>
</a>
</g>
</g>
<!-- Node5 -->
<g id="Node000005" class="node">
<title>Node5</title>
<g id="a_Node000005"><a xlink:href="_command_wrapper_8h.html" target="_top" xlink:title=" ">
<polygon fill="white" stroke="#666666" points="226.12,-76 120.88,-76 120.88,-56 226.12,-56 226.12,-76"/>
<text text-anchor="middle" x="173.5" y="-62.5" font-family="Helvetica,sans-Serif" font-size="10.00">CommandWrapper.h</text>
</a>
</g>
</g>
<!-- Node2&#45;&gt;Node5 -->
<g id="edge4_Node000002_Node000005" class="edge">
<title>Node2&#45;&gt;Node5</title>
<g id="a_edge4_Node000002_Node000005"><a xlink:title=" ">
<path fill="none" stroke="#63b8ff" d="M207.36,-111.59C201.89,-104.39 194.18,-94.23 187.49,-85.43"/>
<polygon fill="#63b8ff" stroke="#63b8ff" points="190.31,-83.35 181.48,-77.5 184.73,-87.58 190.31,-83.35"/>
</a>
</g>
</g>
<!-- Node5&#45;&gt;Node3 -->
<g id="edge5_Node000005_Node000003" class="edge">
<title>Node5&#45;&gt;Node3</title>
<g id="a_edge5_Node000005_Node000003"><a xlink:title=" ">
<path fill="none" stroke="#63b8ff" d="M188.13,-55.59C200.58,-47.59 218.72,-35.93 233.32,-26.54"/>
<polygon fill="#63b8ff" stroke="#63b8ff" points="234.96,-29.65 241.48,-21.3 231.18,-23.76 234.96,-29.65"/>
</a>
</g>
</g>
<!-- Node6 -->
<g id="Node000006" class="node">
<title>Node6</title>
<g id="a_Node000006"><a xlink:title=" ">
<polygon fill="#e0e0e0" stroke="#999999" points="204.12,-20 134.88,-20 134.88,0 204.12,0 204.12,-20"/>
<text text-anchor="middle" x="169.5" y="-6.5" font-family="Helvetica,sans-Serif" font-size="10.00">Command.h</text>
</a>
</g>
</g>
<!-- Node5&#45;&gt;Node6 -->
<g id="edge6_Node000005_Node000006" class="edge">
<title>Node5&#45;&gt;Node6</title>
<g id="a_edge6_Node000005_Node000006"><a xlink:title=" ">
<path fill="none" stroke="#63b8ff" d="M172.8,-55.59C172.32,-49.01 171.65,-39.96 171.04,-31.73"/>
<polygon fill="#63b8ff" stroke="#63b8ff" points="174.53,-31.52 170.3,-21.81 167.55,-32.04 174.53,-31.52"/>
</a>
</g>
</g>
<!-- Node7&#45;&gt;Node3 -->
<g id="edge11_Node000007_Node000003" class="edge">
<title>Node7&#45;&gt;Node3</title>
<g id="a_edge11_Node000007_Node000003"><a xlink:title=" ">
<path fill="none" stroke="#63b8ff" d="M392.28,-111.8C391.47,-97.97 387.97,-71.76 373.5,-56 355.47,-36.35 327.85,-25.19 304.09,-18.9"/>
<polygon fill="#63b8ff" stroke="#63b8ff" points="305.16,-15.56 294.61,-16.62 303.52,-22.36 305.16,-15.56"/>
</a>
</g>
</g>
<!-- Node8 -->
<g id="Node000008" class="node">
<title>Node8</title>
<g id="a_Node000008"><a xlink:title=" ">
<polygon fill="#e0e0e0" stroke="#999999" points="468.62,-76 420.38,-76 420.38,-56 468.62,-56 468.62,-76"/>
<text text-anchor="middle" x="444.5" y="-62.5" font-family="Helvetica,sans-Serif" font-size="10.00">stdint.h</text>
</a>
</g>
</g>
<!-- Node7&#45;&gt;Node8 -->
<g id="edge8_Node000007_Node000008" class="edge">
<title>Node7&#45;&gt;Node8</title>
<g id="a_edge8_Node000007_Node000008"><a xlink:title=" ">
<path fill="none" stroke="#63b8ff" d="M401.56,-111.59C408.72,-104.16 418.91,-93.58 427.57,-84.58"/>
<polygon fill="#63b8ff" stroke="#63b8ff" points="430.08,-87.02 434.5,-77.39 425.04,-82.16 430.08,-87.02"/>
</a>
</g>
</g>
<!-- Node9 -->
<g id="Node000009" class="node">
<title>Node9</title>
<g id="a_Node000009"><a xlink:title=" ">
<polygon fill="#e0e0e0" stroke="#999999" points="526.5,-76 486.5,-76 486.5,-56 526.5,-56 526.5,-76"/>
<text text-anchor="middle" x="506.5" y="-62.5" font-family="Helvetica,sans-Serif" font-size="10.00">string</text>
</a>
</g>
</g>
<!-- Node7&#45;&gt;Node9 -->
<g id="edge9_Node000007_Node000009" class="edge">
<title>Node7&#45;&gt;Node9</title>
<g id="a_edge9_Node000007_Node000009"><a xlink:title=" ">
<path fill="none" stroke="#63b8ff" d="M412.36,-111.59C429.99,-103.24 456.01,-90.92 476.23,-81.34"/>
<polygon fill="#63b8ff" stroke="#63b8ff" points="477.58,-84.57 485.12,-77.13 474.58,-78.25 477.58,-84.57"/>
</a>
</g>
</g>
<!-- Node10 -->
<g id="Node000010" class="node">
<title>Node10</title>
<g id="a_Node000010"><a xlink:title=" ">
<polygon fill="#e0e0e0" stroke="#999999" points="364.88,-76 282.12,-76 282.12,-56 364.88,-56 364.88,-76"/>
<text text-anchor="middle" x="323.5" y="-62.5" font-family="Helvetica,sans-Serif" font-size="10.00">unordered_map</text>
</a>
</g>
</g>
<!-- Node7&#45;&gt;Node10 -->
<g id="edge10_Node000007_Node000010" class="edge">
<title>Node7&#45;&gt;Node10</title>
<g id="a_edge10_Node000007_Node000010"><a xlink:title=" ">
<path fill="none" stroke="#63b8ff" d="M380.48,-111.59C370.49,-103.77 356.04,-92.46 344.19,-83.19"/>
<polygon fill="#63b8ff" stroke="#63b8ff" points="346.61,-80.64 336.57,-77.23 342.29,-86.15 346.61,-80.64"/>
</a>
</g>
</g>
</g>
</svg>
