<?xml version="1.0" encoding="UTF-8" standalone="no"?>
<!DOCTYPE svg PUBLIC "-//W3C//DTD SVG 1.1//EN"
 "http://www.w3.org/Graphics/SVG/1.1/DTD/svg11.dtd">
<!-- Generated by graphviz version 12.2.1 (20241206.2353)
 -->
<!-- Title: C:/Users/emilly/Documents/Lucca/Projetos/Cpp/NikiScript/src/CommandHandler.cpp Pages: 1 -->
<svg width="636pt" height="276pt"
 viewBox="0.00 0.00 636.06 276.00" xmlns="http://www.w3.org/2000/svg" xmlns:xlink="http://www.w3.org/1999/xlink">
<g id="graph0" class="graph" transform="scale(1 1) rotate(0) translate(4 272)">
<title>C:/Users/emilly/Documents/Lucca/Projetos/Cpp/NikiScript/src/CommandHandler.cpp</title>
<!-- Node1 -->
<g id="Node000001" class="node">
<title>Node1</title>
<g id="a_Node000001"><a xlink:title=" ">
<polygon fill="#999999" stroke="#666666" points="280,-268 129,-268 129,-224 280,-224 280,-268"/>
<text text-anchor="start" x="137" y="-254.5" font-family="Helvetica,sans-Serif" font-size="10.00">C:/Users/emilly/Documents</text>
<text text-anchor="start" x="137" y="-242.5" font-family="Helvetica,sans-Serif" font-size="10.00">/Lucca/Projetos/Cpp/NikiScript</text>
<text text-anchor="middle" x="204.5" y="-230.5" font-family="Helvetica,sans-Serif" font-size="10.00">/src/CommandHandler.cpp</text>
</a>
</g>
</g>
<!-- Node2 -->
<g id="Node000002" class="node">
<title>Node2</title>
<g id="a_Node000002"><a xlink:href="_command_handler_8h.html" target="_top" xlink:title=" ">
<polygon fill="white" stroke="#666666" points="103,-132 0,-132 0,-112 103,-112 103,-132"/>
<text text-anchor="middle" x="51.5" y="-118.5" font-family="Helvetica,sans-Serif" font-size="10.00">CommandHandler.h</text>
</a>
</g>
</g>
<!-- Node1&#45;&gt;Node2 -->
<g id="edge1_Node000001_Node000002" class="edge">
<title>Node1&#45;&gt;Node2</title>
<g id="a_edge1_Node000001_Node000002"><a xlink:title=" ">
<path fill="none" stroke="#63b8ff" d="M177.85,-223.75C147.67,-199.69 99.17,-161.01 71.87,-139.24"/>
<polygon fill="#63b8ff" stroke="#63b8ff" points="74.35,-136.74 64.35,-133.24 69.98,-142.22 74.35,-136.74"/>
</a>
</g>
</g>
<!-- Node8 -->
<g id="Node000008" class="node">
<title>Node8</title>
<g id="a_Node000008"><a xlink:href="_context_8h.html" target="_top" xlink:title=" ">
<polygon fill="white" stroke="#666666" points="322.88,-188 264.12,-188 264.12,-168 322.88,-168 322.88,-188"/>
<text text-anchor="middle" x="293.5" y="-174.5" font-family="Helvetica,sans-Serif" font-size="10.00">Context.h</text>
</a>
</g>
</g>
<!-- Node1&#45;&gt;Node8 -->
<g id="edge8_Node000001_Node000008" class="edge">
<title>Node1&#45;&gt;Node8</title>
<g id="a_edge8_Node000001_Node000008"><a xlink:title=" ">
<path fill="none" stroke="#63b8ff" d="M233.15,-223.75C245.7,-214.45 260.17,-203.71 271.8,-195.09"/>
<polygon fill="#63b8ff" stroke="#63b8ff" points="273.64,-198.09 279.58,-189.32 269.47,-192.47 273.64,-198.09"/>
</a>
</g>
</g>
<!-- Node3 -->
<g id="Node000003" class="node">
<title>Node3</title>
<g id="a_Node000003"><a xlink:title=" ">
<polygon fill="#e0e0e0" stroke="#999999" points="285.88,-20 203.12,-20 203.12,0 285.88,0 285.88,-20"/>
<text text-anchor="middle" x="244.5" y="-6.5" font-family="Helvetica,sans-Serif" font-size="10.00">unordered_map</text>
</a>
</g>
</g>
<!-- Node2&#45;&gt;Node3 -->
<g id="edge2_Node000002_Node000003" class="edge">
<title>Node2&#45;&gt;Node3</title>
<g id="a_edge2_Node000002_Node000003"><a xlink:title=" ">
<path fill="none" stroke="#63b8ff" d="M67.96,-111.62C101.43,-92.54 177.69,-49.08 218.15,-26.02"/>
<polygon fill="#63b8ff" stroke="#63b8ff" points="219.82,-29.1 226.77,-21.1 216.35,-23.02 219.82,-29.1"/>
</a>
</g>
</g>
<!-- Node4 -->
<g id="Node000004" class="node">
<title>Node4</title>
<g id="a_Node000004"><a xlink:title=" ">
<polygon fill="#e0e0e0" stroke="#999999" points="92.25,-20 26.75,-20 26.75,0 92.25,0 92.25,-20"/>
<text text-anchor="middle" x="59.5" y="-6.5" font-family="Helvetica,sans-Serif" font-size="10.00">string_view</text>
</a>
</g>
</g>
<!-- Node2&#45;&gt;Node4 -->
<g id="edge3_Node000002_Node000004" class="edge">
<title>Node2&#45;&gt;Node4</title>
<g id="a_edge3_Node000002_Node000004"><a xlink:title=" ">
<path fill="none" stroke="#63b8ff" d="M40.18,-111.66C26.7,-99.34 7.03,-76.79 15.5,-56 20.03,-44.89 28.77,-35.02 37.28,-27.39"/>
<polygon fill="#63b8ff" stroke="#63b8ff" points="39.24,-30.31 44.71,-21.24 34.77,-24.92 39.24,-30.31"/>
</a>
</g>
</g>
<!-- Node5 -->
<g id="Node000005" class="node">
<title>Node5</title>
<g id="a_Node000005"><a xlink:href="_command_8h.html" target="_top" xlink:title=" ">
<polygon fill="white" stroke="#666666" points="94.12,-76 24.88,-76 24.88,-56 94.12,-56 94.12,-76"/>
<text text-anchor="middle" x="59.5" y="-62.5" font-family="Helvetica,sans-Serif" font-size="10.00">Command.h</text>
</a>
</g>
</g>
<!-- Node2&#45;&gt;Node5 -->
<g id="edge4_Node000002_Node000005" class="edge">
<title>Node2&#45;&gt;Node5</title>
<g id="a_edge4_Node000002_Node000005"><a xlink:title=" ">
<path fill="none" stroke="#63b8ff" d="M52.89,-111.59C53.88,-104.93 55.24,-95.75 56.47,-87.44"/>
<polygon fill="#63b8ff" stroke="#63b8ff" points="59.9,-88.2 57.9,-77.8 52.97,-87.17 59.9,-88.2"/>
</a>
</g>
</g>
<!-- Node5&#45;&gt;Node4 -->
<g id="edge6_Node000005_Node000004" class="edge">
<title>Node5&#45;&gt;Node4</title>
<g id="a_edge6_Node000005_Node000004"><a xlink:title=" ">
<path fill="none" stroke="#63b8ff" d="M59.5,-55.59C59.5,-49.01 59.5,-39.96 59.5,-31.73"/>
<polygon fill="#63b8ff" stroke="#63b8ff" points="63,-31.81 59.5,-21.81 56,-31.81 63,-31.81"/>
</a>
</g>
</g>
<!-- Node6 -->
<g id="Node000006" class="node">
<title>Node6</title>
<g id="a_Node000006"><a xlink:title=" ">
<polygon fill="#e0e0e0" stroke="#999999" points="173,-20 130,-20 130,0 173,0 173,-20"/>
<text text-anchor="middle" x="151.5" y="-6.5" font-family="Helvetica,sans-Serif" font-size="10.00">vector</text>
</a>
</g>
</g>
<!-- Node5&#45;&gt;Node6 -->
<g id="edge5_Node000005_Node000006" class="edge">
<title>Node5&#45;&gt;Node6</title>
<g id="a_edge5_Node000005_Node000006"><a xlink:title=" ">
<path fill="none" stroke="#63b8ff" d="M75.53,-55.59C89.29,-47.51 109.4,-35.71 125.48,-26.27"/>
<polygon fill="#63b8ff" stroke="#63b8ff" points="127.19,-29.33 134.04,-21.25 123.65,-23.29 127.19,-29.33"/>
</a>
</g>
</g>
<!-- Node7 -->
<g id="Node000007" class="node">
<title>Node7</title>
<g id="a_Node000007"><a xlink:title=" ">
<polygon fill="#e0e0e0" stroke="#999999" points="423.5,-20 383.5,-20 383.5,0 423.5,0 423.5,-20"/>
<text text-anchor="middle" x="403.5" y="-6.5" font-family="Helvetica,sans-Serif" font-size="10.00">string</text>
</a>
</g>
</g>
<!-- Node5&#45;&gt;Node7 -->
<g id="edge7_Node000005_Node000007" class="edge">
<title>Node5&#45;&gt;Node7</title>
<g id="a_edge7_Node000005_Node000007"><a xlink:title=" ">
<path fill="none" stroke="#63b8ff" d="M94.38,-59.53C161.59,-48.97 308.09,-25.98 372.29,-15.9"/>
<polygon fill="#63b8ff" stroke="#63b8ff" points="372.46,-19.42 381.79,-14.41 371.37,-12.5 372.46,-19.42"/>
</a>
</g>
</g>
<!-- Node8&#45;&gt;Node2 -->
<g id="edge14_Node000008_Node000002" class="edge">
<title>Node8&#45;&gt;Node2</title>
<g id="a_edge14_Node000008_Node000002"><a xlink:title=" ">
<path fill="none" stroke="#63b8ff" d="M263.83,-170.38C224.37,-161.57 153.93,-145.86 105.05,-134.95"/>
<polygon fill="#63b8ff" stroke="#63b8ff" points="106.05,-131.59 95.53,-132.82 104.53,-138.42 106.05,-131.59"/>
</a>
</g>
</g>
<!-- Node8&#45;&gt;Node3 -->
<g id="edge12_Node000008_Node000003" class="edge">
<title>Node8&#45;&gt;Node3</title>
<g id="a_edge12_Node000008_Node000003"><a xlink:title=" ">
<path fill="none" stroke="#63b8ff" d="M295.93,-167.68C300.89,-146.68 310.4,-94.47 293.5,-56 288.41,-44.42 278.71,-34.51 269.28,-26.97"/>
<polygon fill="#63b8ff" stroke="#63b8ff" points="271.46,-24.23 261.33,-21.13 267.32,-29.87 271.46,-24.23"/>
</a>
</g>
</g>
<!-- Node8&#45;&gt;Node5 -->
<g id="edge13_Node000008_Node000005" class="edge">
<title>Node8&#45;&gt;Node5</title>
<g id="a_edge13_Node000008_Node000005"><a xlink:title=" ">
<path fill="none" stroke="#63b8ff" d="M263.76,-169.89C235.17,-162.46 191.15,-149.45 155.5,-132 127.76,-118.42 98.79,-97.77 80.03,-83.4"/>
<polygon fill="#63b8ff" stroke="#63b8ff" points="82.2,-80.66 72.16,-77.27 77.9,-86.18 82.2,-80.66"/>
</a>
</g>
</g>
<!-- Node8&#45;&gt;Node6 -->
<g id="edge9_Node000008_Node000006" class="edge">
<title>Node8&#45;&gt;Node6</title>
<g id="a_edge9_Node000008_Node000006"><a xlink:title=" ">
<path fill="none" stroke="#63b8ff" d="M279.44,-167.67C255.95,-151.49 208.48,-116.06 179.5,-76 169.59,-62.29 162.24,-44.53 157.56,-31.04"/>
<polygon fill="#63b8ff" stroke="#63b8ff" points="161.02,-30.36 154.61,-21.93 154.36,-32.52 161.02,-30.36"/>
</a>
</g>
</g>
<!-- Node8&#45;&gt;Node7 -->
<g id="edge11_Node000008_Node000007" class="edge">
<title>Node8&#45;&gt;Node7</title>
<g id="a_edge11_Node000008_Node000007"><a xlink:title=" ">
<path fill="none" stroke="#63b8ff" d="M298.96,-167.72C311.09,-147.21 341.47,-96.63 369.5,-56 375.67,-47.06 382.87,-37.42 389.06,-29.37"/>
<polygon fill="#63b8ff" stroke="#63b8ff" points="391.66,-31.72 395.03,-21.67 386.13,-27.43 391.66,-31.72"/>
</a>
</g>
</g>
<!-- Node9 -->
<g id="Node000009" class="node">
<title>Node9</title>
<g id="a_Node000009"><a xlink:title=" ">
<polygon fill="#e0e0e0" stroke="#999999" points="627.62,-20 579.38,-20 579.38,0 627.62,0 627.62,-20"/>
<text text-anchor="middle" x="603.5" y="-6.5" font-family="Helvetica,sans-Serif" font-size="10.00">stdint.h</text>
</a>
</g>
</g>
<!-- Node8&#45;&gt;Node9 -->
<g id="edge10_Node000008_Node000009" class="edge">
<title>Node8&#45;&gt;Node9</title>
<g id="a_edge10_Node000008_Node000009"><a xlink:title=" ">
<path fill="none" stroke="#63b8ff" d="M323.12,-177.96C375.73,-178.45 487.62,-173.95 569.5,-132 600.83,-115.95 612.03,-108.52 625.5,-76 631.83,-60.71 624.82,-42.88 617.08,-29.77"/>
<polygon fill="#63b8ff" stroke="#63b8ff" points="620.18,-28.12 611.78,-21.67 614.32,-31.95 620.18,-28.12"/>
</a>
</g>
</g>
<!-- Node10 -->
<g id="Node000010" class="node">
<title>Node10</title>
<g id="a_Node000010"><a xlink:href="_print_callback_8h.html" target="_top" xlink:title=" ">
<polygon fill="white" stroke="#666666" points="560.88,-132 478.12,-132 478.12,-112 560.88,-112 560.88,-132"/>
<text text-anchor="middle" x="519.5" y="-118.5" font-family="Helvetica,sans-Serif" font-size="10.00">PrintCallback.h</text>
</a>
</g>
</g>
<!-- Node8&#45;&gt;Node10 -->
<g id="edge15_Node000008_Node000010" class="edge">
<title>Node8&#45;&gt;Node10</title>
<g id="a_edge15_Node000008_Node000010"><a xlink:title=" ">
<path fill="none" stroke="#63b8ff" d="M323.05,-169.94C360.11,-161.09 424.23,-145.76 469.1,-135.04"/>
<polygon fill="#63b8ff" stroke="#63b8ff" points="469.68,-138.5 478.6,-132.77 468.06,-131.69 469.68,-138.5"/>
</a>
</g>
</g>
<!-- Node13 -->
<g id="Node000013" class="node">
<title>Node13</title>
<g id="a_Node000013"><a xlink:href="_program_variable_8h.html" target="_top" xlink:title=" ">
<polygon fill="white" stroke="#666666" points="284.25,-76 188.75,-76 188.75,-56 284.25,-56 284.25,-76"/>
<text text-anchor="middle" x="236.5" y="-62.5" font-family="Helvetica,sans-Serif" font-size="10.00">ProgramVariable.h</text>
</a>
</g>
</g>
<!-- Node8&#45;&gt;Node13 -->
<g id="edge22_Node000008_Node000013" class="edge">
<title>Node8&#45;&gt;Node13</title>
<g id="a_edge22_Node000008_Node000013"><a xlink:title=" ">
<path fill="none" stroke="#63b8ff" d="M288.64,-167.62C279.34,-149.68 258.87,-110.17 246.52,-86.35"/>
<polygon fill="#63b8ff" stroke="#63b8ff" points="249.75,-84.97 242.04,-77.7 243.54,-88.19 249.75,-84.97"/>
</a>
</g>
</g>
<!-- Node14 -->
<g id="Node000014" class="node">
<title>Node14</title>
<g id="a_Node000014"><a xlink:href="_lexer_8h.html" target="_top" xlink:title=" ">
<polygon fill="white" stroke="#666666" points="443.62,-132 395.38,-132 395.38,-112 443.62,-112 443.62,-132"/>
<text text-anchor="middle" x="419.5" y="-118.5" font-family="Helvetica,sans-Serif" font-size="10.00">Lexer.h</text>
</a>
</g>
</g>
<!-- Node8&#45;&gt;Node14 -->
<g id="edge26_Node000008_Node000014" class="edge">
<title>Node8&#45;&gt;Node14</title>
<g id="a_edge26_Node000008_Node000014"><a xlink:title=" ">
<path fill="none" stroke="#63b8ff" d="M315.45,-167.59C335.2,-159.13 364.49,-146.58 386.97,-136.94"/>
<polygon fill="#63b8ff" stroke="#63b8ff" points="388.18,-140.23 395.99,-133.08 385.42,-133.8 388.18,-140.23"/>
</a>
</g>
</g>
<!-- Node10&#45;&gt;Node7 -->
<g id="edge17_Node000010_Node000007" class="edge">
<title>Node10&#45;&gt;Node7</title>
<g id="a_edge17_Node000010_Node000007"><a xlink:title=" ">
<path fill="none" stroke="#63b8ff" d="M510.04,-111.66C497.13,-98.96 473.24,-75.58 452.5,-56 442.55,-46.61 431.31,-36.27 422.11,-27.87"/>
<polygon fill="#63b8ff" stroke="#63b8ff" points="424.58,-25.39 414.83,-21.25 419.87,-30.56 424.58,-25.39"/>
</a>
</g>
</g>
<!-- Node10&#45;&gt;Node9 -->
<g id="edge16_Node000010_Node000009" class="edge">
<title>Node10&#45;&gt;Node9</title>
<g id="a_edge16_Node000010_Node000009"><a xlink:title=" ">
<path fill="none" stroke="#63b8ff" d="M558.49,-111.54C577.04,-104.88 597.53,-93.85 608.5,-76 616.75,-62.58 614.55,-44.53 610.82,-30.86"/>
<polygon fill="#63b8ff" stroke="#63b8ff" points="614.25,-30.08 607.85,-21.64 607.59,-32.23 614.25,-30.08"/>
</a>
</g>
</g>
<!-- Node11 -->
<g id="Node000011" class="node">
<title>Node11</title>
<g id="a_Node000011"><a xlink:href="_utils_8h.html" target="_top" xlink:title=" ">
<polygon fill="white" stroke="#666666" points="566.75,-76 522.25,-76 522.25,-56 566.75,-56 566.75,-76"/>
<text text-anchor="middle" x="544.5" y="-62.5" font-family="Helvetica,sans-Serif" font-size="10.00">Utils.h</text>
</a>
</g>
</g>
<!-- Node10&#45;&gt;Node11 -->
<g id="edge18_Node000010_Node000011" class="edge">
<title>Node10&#45;&gt;Node11</title>
<g id="a_edge18_Node000010_Node000011"><a xlink:title=" ">
<path fill="none" stroke="#63b8ff" d="M523.85,-111.59C527.05,-104.7 531.49,-95.1 535.44,-86.57"/>
<polygon fill="#63b8ff" stroke="#63b8ff" points="538.53,-88.22 539.56,-77.67 532.18,-85.28 538.53,-88.22"/>
</a>
</g>
</g>
<!-- Node11&#45;&gt;Node7 -->
<g id="edge20_Node000011_Node000007" class="edge">
<title>Node11&#45;&gt;Node7</title>
<g id="a_edge20_Node000011_Node000007"><a xlink:title=" ">
<path fill="none" stroke="#63b8ff" d="M521.85,-56.32C498.14,-47.25 460.77,-32.93 434.38,-22.83"/>
<polygon fill="#63b8ff" stroke="#63b8ff" points="435.81,-19.63 425.22,-19.32 433.31,-26.16 435.81,-19.63"/>
</a>
</g>
</g>
<!-- Node11&#45;&gt;Node9 -->
<g id="edge19_Node000011_Node000009" class="edge">
<title>Node11&#45;&gt;Node9</title>
<g id="a_edge19_Node000011_Node000009"><a xlink:title=" ">
<path fill="none" stroke="#63b8ff" d="M554.78,-55.59C563.07,-48.01 574.95,-37.13 584.9,-28.02"/>
<polygon fill="#63b8ff" stroke="#63b8ff" points="587.21,-30.65 592.22,-21.32 582.48,-25.49 587.21,-30.65"/>
</a>
</g>
</g>
<!-- Node12 -->
<g id="Node000012" class="node">
<title>Node12</title>
<g id="a_Node000012"><a xlink:title=" ">
<polygon fill="#e0e0e0" stroke="#999999" points="561.12,-20 509.88,-20 509.88,0 561.12,0 561.12,-20"/>
<text text-anchor="middle" x="535.5" y="-6.5" font-family="Helvetica,sans-Serif" font-size="10.00">sstream</text>
</a>
</g>
</g>
<!-- Node11&#45;&gt;Node12 -->
<g id="edge21_Node000011_Node000012" class="edge">
<title>Node11&#45;&gt;Node12</title>
<g id="a_edge21_Node000011_Node000012"><a xlink:title=" ">
<path fill="none" stroke="#63b8ff" d="M542.93,-55.59C541.82,-48.93 540.29,-39.75 538.91,-31.44"/>
<polygon fill="#63b8ff" stroke="#63b8ff" points="542.39,-31.08 537.3,-21.79 535.49,-32.23 542.39,-31.08"/>
</a>
</g>
</g>
<!-- Node13&#45;&gt;Node3 -->
<g id="edge25_Node000013_Node000003" class="edge">
<title>Node13&#45;&gt;Node3</title>
<g id="a_edge25_Node000013_Node000003"><a xlink:title=" ">
<path fill="none" stroke="#63b8ff" d="M237.89,-55.59C238.88,-48.93 240.24,-39.75 241.47,-31.44"/>
<polygon fill="#63b8ff" stroke="#63b8ff" points="244.9,-32.2 242.9,-21.8 237.97,-31.17 244.9,-32.2"/>
</a>
</g>
</g>
<!-- Node13&#45;&gt;Node4 -->
<g id="edge24_Node000013_Node000004" class="edge">
<title>Node13&#45;&gt;Node4</title>
<g id="a_edge24_Node000013_Node000004"><a xlink:title=" ">
<path fill="none" stroke="#63b8ff" d="M205.67,-55.59C176.79,-46.78 133.39,-33.54 101.38,-23.78"/>
<polygon fill="#63b8ff" stroke="#63b8ff" points="102.61,-20.49 92.02,-20.92 100.56,-27.19 102.61,-20.49"/>
</a>
</g>
</g>
<!-- Node13&#45;&gt;Node7 -->
<g id="edge23_Node000013_Node000007" class="edge">
<title>Node13&#45;&gt;Node7</title>
<g id="a_edge23_Node000013_Node000007"><a xlink:title=" ">
<path fill="none" stroke="#63b8ff" d="M265.59,-55.59C295.42,-45.95 341.66,-31 372.26,-21.1"/>
<polygon fill="#63b8ff" stroke="#63b8ff" points="373.27,-24.45 381.71,-18.05 371.12,-17.79 373.27,-24.45"/>
</a>
</g>
</g>
<!-- Node14&#45;&gt;Node7 -->
<g id="edge28_Node000014_Node000007" class="edge">
<title>Node14&#45;&gt;Node7</title>
<g id="a_edge28_Node000014_Node000007"><a xlink:title=" ">
<path fill="none" stroke="#63b8ff" d="M425.59,-111.65C433.09,-98.93 444.05,-75.54 437.5,-56 434.14,-45.97 427.55,-36.39 421.07,-28.66"/>
<polygon fill="#63b8ff" stroke="#63b8ff" points="423.77,-26.43 414.45,-21.38 418.59,-31.13 423.77,-26.43"/>
</a>
</g>
</g>
<!-- Node14&#45;&gt;Node9 -->
<g id="edge27_Node000014_Node000009" class="edge">
<title>Node14&#45;&gt;Node9</title>
<g id="a_edge27_Node000014_Node000009"><a xlink:title=" ">
<path fill="none" stroke="#63b8ff" d="M444.01,-116.57C482.79,-109.15 555.89,-93.29 575.5,-76 588.61,-64.45 595.79,-45.68 599.59,-31.27"/>
<polygon fill="#63b8ff" stroke="#63b8ff" points="602.91,-32.45 601.7,-21.92 596.08,-30.9 602.91,-32.45"/>
</a>
</g>
</g>
<!-- Node15 -->
<g id="Node000015" class="node">
<title>Node15</title>
<g id="a_Node000015"><a xlink:href="_token_8h.html" target="_top" xlink:title=" ">
<polygon fill="white" stroke="#666666" points="428.75,-76 378.25,-76 378.25,-56 428.75,-56 428.75,-76"/>
<text text-anchor="middle" x="403.5" y="-62.5" font-family="Helvetica,sans-Serif" font-size="10.00">Token.h</text>
</a>
</g>
</g>
<!-- Node14&#45;&gt;Node15 -->
<g id="edge29_Node000014_Node000015" class="edge">
<title>Node14&#45;&gt;Node15</title>
<g id="a_edge29_Node000014_Node000015"><a xlink:title=" ">
<path fill="none" stroke="#63b8ff" d="M416.71,-111.59C414.72,-104.86 411.95,-95.53 409.47,-87.15"/>
<polygon fill="#63b8ff" stroke="#63b8ff" points="412.88,-86.34 406.69,-77.75 406.17,-88.33 412.88,-86.34"/>
</a>
</g>
</g>
<!-- Node15&#45;&gt;Node3 -->
<g id="edge32_Node000015_Node000003" class="edge">
<title>Node15&#45;&gt;Node3</title>
<g id="a_edge32_Node000015_Node000003"><a xlink:title=" ">
<path fill="none" stroke="#63b8ff" d="M377.95,-56.32C352.34,-47.63 312.59,-34.13 283.13,-24.12"/>
<polygon fill="#63b8ff" stroke="#63b8ff" points="284.42,-20.86 273.82,-20.96 282.17,-27.49 284.42,-20.86"/>
</a>
</g>
</g>
<!-- Node15&#45;&gt;Node7 -->
<g id="edge31_Node000015_Node000007" class="edge">
<title>Node15&#45;&gt;Node7</title>
<g id="a_edge31_Node000015_Node000007"><a xlink:title=" ">
<path fill="none" stroke="#63b8ff" d="M403.5,-55.59C403.5,-49.01 403.5,-39.96 403.5,-31.73"/>
<polygon fill="#63b8ff" stroke="#63b8ff" points="407,-31.81 403.5,-21.81 400,-31.81 407,-31.81"/>
</a>
</g>
</g>
<!-- Node15&#45;&gt;Node9 -->
<g id="edge30_Node000015_Node000009" class="edge">
<title>Node15&#45;&gt;Node9</title>
<g id="a_edge30_Node000015_Node000009"><a xlink:title=" ">
<path fill="none" stroke="#63b8ff" d="M428.97,-58.16C459.68,-49.91 513.13,-35.54 568.01,-20.67"/>
<polygon fill="#63b8ff" stroke="#63b8ff" points="568.8,-24.08 577.53,-18.09 566.97,-17.33 568.8,-24.08"/>
</a>
</g>
</g>
</g>
</svg>
