<?xml version="1.0" encoding="UTF-8" standalone="no"?>
<!DOCTYPE svg PUBLIC "-//W3C//DTD SVG 1.1//EN"
 "http://www.w3.org/Graphics/SVG/1.1/DTD/svg11.dtd">
<!-- Generated by graphviz version 12.2.1 (20241206.2353)
 -->
<!-- Title: C:/Users/emilly/Documents/Lucca/Projetos/Cpp/NikiScript/src/CommandHandler.h Pages: 1 -->
<svg width="267pt" height="164pt"
 viewBox="0.00 0.00 267.38 164.00" xmlns="http://www.w3.org/2000/svg" xmlns:xlink="http://www.w3.org/1999/xlink">
<g id="graph0" class="graph" transform="scale(1 1) rotate(0) translate(4 160)">
<title>C:/Users/emilly/Documents/Lucca/Projetos/Cpp/NikiScript/src/CommandHandler.h</title>
<!-- Node1 -->
<g id="Node000001" class="node">
<title>Node1</title>
<g id="a_Node000001"><a xlink:title=" ">
<polygon fill="#999999" stroke="#666666" points="185.88,-156 34.88,-156 34.88,-112 185.88,-112 185.88,-156"/>
<text text-anchor="start" x="42.88" y="-142.5" font-family="Helvetica,sans-Serif" font-size="10.00">C:/Users/emilly/Documents</text>
<text text-anchor="start" x="42.88" y="-130.5" font-family="Helvetica,sans-Serif" font-size="10.00">/Lucca/Projetos/Cpp/NikiScript</text>
<text text-anchor="middle" x="110.38" y="-118.5" font-family="Helvetica,sans-Serif" font-size="10.00">/src/CommandHandler.h</text>
</a>
</g>
</g>
<!-- Node2 -->
<g id="Node000002" class="node">
<title>Node2</title>
<g id="a_Node000002"><a xlink:title=" ">
<polygon fill="#e0e0e0" stroke="#999999" points="82.75,-76 0,-76 0,-56 82.75,-56 82.75,-76"/>
<text text-anchor="middle" x="41.38" y="-62.5" font-family="Helvetica,sans-Serif" font-size="10.00">unordered_map</text>
</a>
</g>
</g>
<!-- Node1&#45;&gt;Node2 -->
<g id="edge1_Node000001_Node000002" class="edge">
<title>Node1&#45;&gt;Node2</title>
<g id="a_edge1_Node000001_Node000002"><a xlink:title=" ">
<path fill="none" stroke="#63b8ff" d="M88.16,-111.75C78.83,-102.82 68.11,-92.57 59.29,-84.13"/>
<polygon fill="#63b8ff" stroke="#63b8ff" points="61.96,-81.85 52.32,-77.47 57.12,-86.91 61.96,-81.85"/>
</a>
</g>
</g>
<!-- Node3 -->
<g id="Node000003" class="node">
<title>Node3</title>
<g id="a_Node000003"><a xlink:title=" ">
<polygon fill="#e0e0e0" stroke="#999999" points="140.12,-20 74.62,-20 74.62,0 140.12,0 140.12,-20"/>
<text text-anchor="middle" x="107.38" y="-6.5" font-family="Helvetica,sans-Serif" font-size="10.00">string_view</text>
</a>
</g>
</g>
<!-- Node1&#45;&gt;Node3 -->
<g id="edge2_Node000001_Node000003" class="edge">
<title>Node1&#45;&gt;Node3</title>
<g id="a_edge2_Node000001_Node000003"><a xlink:title=" ">
<path fill="none" stroke="#63b8ff" d="M109.85,-111.75C109.3,-89.26 108.43,-54.02 107.88,-31.73"/>
<polygon fill="#63b8ff" stroke="#63b8ff" points="111.39,-31.73 107.64,-21.81 104.39,-31.9 111.39,-31.73"/>
</a>
</g>
</g>
<!-- Node4 -->
<g id="Node000004" class="node">
<title>Node4</title>
<g id="a_Node000004"><a xlink:href="_command_8h.html" target="_top" xlink:title=" ">
<polygon fill="white" stroke="#666666" points="212,-76 142.75,-76 142.75,-56 212,-56 212,-76"/>
<text text-anchor="middle" x="177.38" y="-62.5" font-family="Helvetica,sans-Serif" font-size="10.00">Command.h</text>
</a>
</g>
</g>
<!-- Node1&#45;&gt;Node4 -->
<g id="edge3_Node000001_Node000004" class="edge">
<title>Node1&#45;&gt;Node4</title>
<g id="a_edge3_Node000001_Node000004"><a xlink:title=" ">
<path fill="none" stroke="#63b8ff" d="M131.94,-111.75C140.91,-102.92 151.2,-92.78 159.71,-84.4"/>
<polygon fill="#63b8ff" stroke="#63b8ff" points="162.07,-86.99 166.74,-77.48 157.15,-82.01 162.07,-86.99"/>
</a>
</g>
</g>
<!-- Node4&#45;&gt;Node3 -->
<g id="edge5_Node000004_Node000003" class="edge">
<title>Node4&#45;&gt;Node3</title>
<g id="a_edge5_Node000004_Node000003"><a xlink:title=" ">
<path fill="none" stroke="#63b8ff" d="M165.18,-55.59C155.04,-47.77 140.38,-36.46 128.36,-27.19"/>
<polygon fill="#63b8ff" stroke="#63b8ff" points="130.68,-24.56 120.63,-21.22 126.41,-30.1 130.68,-24.56"/>
</a>
</g>
</g>
<!-- Node5 -->
<g id="Node000005" class="node">
<title>Node5</title>
<g id="a_Node000005"><a xlink:title=" ">
<polygon fill="#e0e0e0" stroke="#999999" points="200.88,-20 157.88,-20 157.88,0 200.88,0 200.88,-20"/>
<text text-anchor="middle" x="179.38" y="-6.5" font-family="Helvetica,sans-Serif" font-size="10.00">vector</text>
</a>
</g>
</g>
<!-- Node4&#45;&gt;Node5 -->
<g id="edge4_Node000004_Node000005" class="edge">
<title>Node4&#45;&gt;Node5</title>
<g id="a_edge4_Node000004_Node000005"><a xlink:title=" ">
<path fill="none" stroke="#63b8ff" d="M177.72,-55.59C177.97,-49.01 178.3,-39.96 178.61,-31.73"/>
<polygon fill="#63b8ff" stroke="#63b8ff" points="182.1,-31.93 178.97,-21.81 175.11,-31.67 182.1,-31.93"/>
</a>
</g>
</g>
<!-- Node6 -->
<g id="Node000006" class="node">
<title>Node6</title>
<g id="a_Node000006"><a xlink:title=" ">
<polygon fill="#e0e0e0" stroke="#999999" points="259.38,-20 219.38,-20 219.38,0 259.38,0 259.38,-20"/>
<text text-anchor="middle" x="239.38" y="-6.5" font-family="Helvetica,sans-Serif" font-size="10.00">string</text>
</a>
</g>
</g>
<!-- Node4&#45;&gt;Node6 -->
<g id="edge6_Node000004_Node000006" class="edge">
<title>Node4&#45;&gt;Node6</title>
<g id="a_edge6_Node000004_Node000006"><a xlink:title=" ">
<path fill="none" stroke="#63b8ff" d="M188.17,-55.59C196.98,-47.93 209.63,-36.91 220.15,-27.75"/>
<polygon fill="#63b8ff" stroke="#63b8ff" points="222.32,-30.5 227.56,-21.29 217.72,-25.22 222.32,-30.5"/>
</a>
</g>
</g>
</g>
</svg>
