<?xml version="1.0" encoding="UTF-8" standalone="no"?>
<!DOCTYPE svg PUBLIC "-//W3C//DTD SVG 1.1//EN"
 "http://www.w3.org/Graphics/SVG/1.1/DTD/svg11.dtd">
<!-- Generated by graphviz version 12.2.1 (20241206.2353)
 -->
<!-- Title: C:/Users/emilly/Documents/Lucca/Projetos/Cpp/NikiScript/src/CommandHandler.cpp Pages: 1 -->
<svg width="650pt" height="276pt"
 viewBox="0.00 0.00 650.11 276.00" xmlns="http://www.w3.org/2000/svg" xmlns:xlink="http://www.w3.org/1999/xlink">
<g id="graph0" class="graph" transform="scale(1 1) rotate(0) translate(4 272)">
<title>C:/Users/emilly/Documents/Lucca/Projetos/Cpp/NikiScript/src/CommandHandler.cpp</title>
<!-- Node1 -->
<g id="Node000001" class="node">
<title>Node1</title>
<g id="a_Node000001"><a xlink:title=" ">
<polygon fill="#999999" stroke="#666666" points="426.86,-268 275.86,-268 275.86,-224 426.86,-224 426.86,-268"/>
<text text-anchor="start" x="283.86" y="-254.5" font-family="Helvetica,sans-Serif" font-size="10.00">C:/Users/emilly/Documents</text>
<text text-anchor="start" x="283.86" y="-242.5" font-family="Helvetica,sans-Serif" font-size="10.00">/Lucca/Projetos/Cpp/NikiScript</text>
<text text-anchor="middle" x="351.36" y="-230.5" font-family="Helvetica,sans-Serif" font-size="10.00">/src/CommandHandler.cpp</text>
</a>
</g>
</g>
<!-- Node2 -->
<g id="Node000002" class="node">
<title>Node2</title>
<g id="a_Node000002"><a xlink:href="_command_handler_8h.html" target="_top" xlink:title=" ">
<polygon fill="white" stroke="#666666" points="489.86,-132 386.86,-132 386.86,-112 489.86,-112 489.86,-132"/>
<text text-anchor="middle" x="438.36" y="-118.5" font-family="Helvetica,sans-Serif" font-size="10.00">CommandHandler.h</text>
</a>
</g>
</g>
<!-- Node1&#45;&gt;Node2 -->
<g id="edge1_Node000001_Node000002" class="edge">
<title>Node1&#45;&gt;Node2</title>
<g id="a_edge1_Node000001_Node000002"><a xlink:title=" ">
<path fill="none" stroke="#63b8ff" d="M366.51,-223.75C383.07,-200.53 409.33,-163.7 425.1,-141.59"/>
<polygon fill="#63b8ff" stroke="#63b8ff" points="427.89,-143.71 430.84,-133.53 422.19,-139.64 427.89,-143.71"/>
</a>
</g>
</g>
<!-- Node8 -->
<g id="Node000008" class="node">
<title>Node8</title>
<g id="a_Node000008"><a xlink:href="_context_8h.html" target="_top" xlink:title=" ">
<polygon fill="white" stroke="#666666" points="352.73,-188 293.98,-188 293.98,-168 352.73,-168 352.73,-188"/>
<text text-anchor="middle" x="323.36" y="-174.5" font-family="Helvetica,sans-Serif" font-size="10.00">Context.h</text>
</a>
</g>
</g>
<!-- Node1&#45;&gt;Node8 -->
<g id="edge8_Node000001_Node000008" class="edge">
<title>Node1&#45;&gt;Node8</title>
<g id="a_edge8_Node000001_Node000008"><a xlink:title=" ">
<path fill="none" stroke="#63b8ff" d="M342.34,-223.75C338.95,-215.75 335.1,-206.69 331.77,-198.83"/>
<polygon fill="#63b8ff" stroke="#63b8ff" points="335.07,-197.65 327.94,-189.81 328.63,-200.39 335.07,-197.65"/>
</a>
</g>
</g>
<!-- Node3 -->
<g id="Node000003" class="node">
<title>Node3</title>
<g id="a_Node000003"><a xlink:title=" ">
<polygon fill="#e0e0e0" stroke="#999999" points="554.73,-76 471.98,-76 471.98,-56 554.73,-56 554.73,-76"/>
<text text-anchor="middle" x="513.36" y="-62.5" font-family="Helvetica,sans-Serif" font-size="10.00">unordered_map</text>
</a>
</g>
</g>
<!-- Node2&#45;&gt;Node3 -->
<g id="edge2_Node000002_Node000003" class="edge">
<title>Node2&#45;&gt;Node3</title>
<g id="a_edge2_Node000002_Node000003"><a xlink:title=" ">
<path fill="none" stroke="#63b8ff" d="M451.42,-111.59C462.32,-103.74 478.11,-92.38 491.01,-83.09"/>
<polygon fill="#63b8ff" stroke="#63b8ff" points="492.89,-86.05 498.96,-77.36 488.8,-80.37 492.89,-86.05"/>
</a>
</g>
</g>
<!-- Node4 -->
<g id="Node000004" class="node">
<title>Node4</title>
<g id="a_Node000004"><a xlink:title=" ">
<polygon fill="#e0e0e0" stroke="#999999" points="363.36,-20 323.36,-20 323.36,0 363.36,0 363.36,-20"/>
<text text-anchor="middle" x="343.36" y="-6.5" font-family="Helvetica,sans-Serif" font-size="10.00">string</text>
</a>
</g>
</g>
<!-- Node2&#45;&gt;Node4 -->
<g id="edge3_Node000002_Node000004" class="edge">
<title>Node2&#45;&gt;Node4</title>
<g id="a_edge3_Node000002_Node000004"><a xlink:title=" ">
<path fill="none" stroke="#63b8ff" d="M437.94,-111.63C436.89,-98.05 433.21,-72.7 420.36,-56 408.61,-40.75 390.12,-29.7 374.2,-22.36"/>
<polygon fill="#63b8ff" stroke="#63b8ff" points="375.66,-19.18 365.09,-18.47 372.91,-25.62 375.66,-19.18"/>
</a>
</g>
</g>
<!-- Node5 -->
<g id="Node000005" class="node">
<title>Node5</title>
<g id="a_Node000005"><a xlink:href="_command_8h.html" target="_top" xlink:title=" ">
<polygon fill="white" stroke="#666666" points="239.98,-76 170.73,-76 170.73,-56 239.98,-56 239.98,-76"/>
<text text-anchor="middle" x="205.36" y="-62.5" font-family="Helvetica,sans-Serif" font-size="10.00">Command.h</text>
</a>
</g>
</g>
<!-- Node2&#45;&gt;Node5 -->
<g id="edge4_Node000002_Node000005" class="edge">
<title>Node2&#45;&gt;Node5</title>
<g id="a_edge4_Node000002_Node000005"><a xlink:title=" ">
<path fill="none" stroke="#63b8ff" d="M397.5,-111.53C356.74,-102.08 294.19,-87.59 251.62,-77.72"/>
<polygon fill="#63b8ff" stroke="#63b8ff" points="252.45,-74.32 241.92,-75.47 250.87,-81.14 252.45,-74.32"/>
</a>
</g>
</g>
<!-- Node5&#45;&gt;Node4 -->
<g id="edge6_Node000005_Node000004" class="edge">
<title>Node5&#45;&gt;Node4</title>
<g id="a_edge6_Node000005_Node000004"><a xlink:title=" ">
<path fill="none" stroke="#63b8ff" d="M229.39,-55.59C252.53,-46.54 287.62,-32.81 312.75,-22.98"/>
<polygon fill="#63b8ff" stroke="#63b8ff" points="313.73,-26.35 321.77,-19.45 311.18,-19.83 313.73,-26.35"/>
</a>
</g>
</g>
<!-- Node6 -->
<g id="Node000006" class="node">
<title>Node6</title>
<g id="a_Node000006"><a xlink:title=" ">
<polygon fill="#e0e0e0" stroke="#999999" points="72.86,-20 29.86,-20 29.86,0 72.86,0 72.86,-20"/>
<text text-anchor="middle" x="51.36" y="-6.5" font-family="Helvetica,sans-Serif" font-size="10.00">vector</text>
</a>
</g>
</g>
<!-- Node5&#45;&gt;Node6 -->
<g id="edge5_Node000005_Node000006" class="edge">
<title>Node5&#45;&gt;Node6</title>
<g id="a_edge5_Node000005_Node000006"><a xlink:title=" ">
<path fill="none" stroke="#63b8ff" d="M178.53,-55.59C152.06,-46.31 111.56,-32.11 83.41,-22.24"/>
<polygon fill="#63b8ff" stroke="#63b8ff" points="84.93,-19.07 74.34,-19.06 82.62,-25.67 84.93,-19.07"/>
</a>
</g>
</g>
<!-- Node7 -->
<g id="Node000007" class="node">
<title>Node7</title>
<g id="a_Node000007"><a xlink:title=" ">
<polygon fill="#e0e0e0" stroke="#999999" points="153.48,-20 105.23,-20 105.23,0 153.48,0 153.48,-20"/>
<text text-anchor="middle" x="129.36" y="-6.5" font-family="Helvetica,sans-Serif" font-size="10.00">stdint.h</text>
</a>
</g>
</g>
<!-- Node5&#45;&gt;Node7 -->
<g id="edge7_Node000005_Node000007" class="edge">
<title>Node5&#45;&gt;Node7</title>
<g id="a_edge7_Node000005_Node000007"><a xlink:title=" ">
<path fill="none" stroke="#63b8ff" d="M192.12,-55.59C181.07,-47.74 165.07,-36.38 152,-27.09"/>
<polygon fill="#63b8ff" stroke="#63b8ff" points="154.11,-24.3 143.93,-21.36 150.06,-30 154.11,-24.3"/>
</a>
</g>
</g>
<!-- Node8&#45;&gt;Node2 -->
<g id="edge14_Node000008_Node000002" class="edge">
<title>Node8&#45;&gt;Node2</title>
<g id="a_edge14_Node000008_Node000002"><a xlink:title=" ">
<path fill="none" stroke="#63b8ff" d="M343.39,-167.59C361.17,-159.24 387.42,-146.92 407.82,-137.34"/>
<polygon fill="#63b8ff" stroke="#63b8ff" points="409.23,-140.54 416.8,-133.12 406.26,-134.21 409.23,-140.54"/>
</a>
</g>
</g>
<!-- Node8&#45;&gt;Node3 -->
<g id="edge12_Node000008_Node000003" class="edge">
<title>Node8&#45;&gt;Node3</title>
<g id="a_edge12_Node000008_Node000003"><a xlink:title=" ">
<path fill="none" stroke="#63b8ff" d="M352.88,-173.23C397.56,-166.93 479.29,-152.85 499.36,-132 510.62,-120.29 513.73,-101.81 514.25,-87.54"/>
<polygon fill="#63b8ff" stroke="#63b8ff" points="517.75,-87.85 514.18,-77.87 510.75,-87.9 517.75,-87.85"/>
</a>
</g>
</g>
<!-- Node8&#45;&gt;Node4 -->
<g id="edge11_Node000008_Node000004" class="edge">
<title>Node8&#45;&gt;Node4</title>
<g id="a_edge11_Node000008_Node000004"><a xlink:title=" ">
<path fill="none" stroke="#63b8ff" d="M328.73,-167.65C338.37,-150.29 358.25,-111.57 365.36,-76 367.1,-67.28 367.36,-64.66 365.36,-56 363.28,-47.02 359.15,-37.76 355.02,-29.99"/>
<polygon fill="#63b8ff" stroke="#63b8ff" points="358.16,-28.43 350.16,-21.5 352.09,-31.91 358.16,-28.43"/>
</a>
</g>
</g>
<!-- Node8&#45;&gt;Node5 -->
<g id="edge13_Node000008_Node000005" class="edge">
<title>Node8&#45;&gt;Node5</title>
<g id="a_edge13_Node000008_Node000005"><a xlink:title=" ">
<path fill="none" stroke="#63b8ff" d="M296.9,-167.63C278.91,-160.2 255.54,-148.34 239.36,-132 226.75,-119.27 217.74,-100.92 212.17,-86.95"/>
<polygon fill="#63b8ff" stroke="#63b8ff" points="215.57,-86.07 208.83,-77.9 209.01,-88.49 215.57,-86.07"/>
</a>
</g>
</g>
<!-- Node8&#45;&gt;Node6 -->
<g id="edge9_Node000008_Node000006" class="edge">
<title>Node8&#45;&gt;Node6</title>
<g id="a_edge9_Node000008_Node000006"><a xlink:title=" ">
<path fill="none" stroke="#63b8ff" d="M293.64,-176.85C224.94,-175.85 58.02,-169.53 19.36,-132 -5.09,-108.27 -3.14,-87.7 9.36,-56 13.61,-45.19 21.83,-35.45 29.87,-27.82"/>
<polygon fill="#63b8ff" stroke="#63b8ff" points="31.97,-30.63 37.19,-21.41 27.36,-25.36 31.97,-30.63"/>
</a>
</g>
</g>
<!-- Node8&#45;&gt;Node7 -->
<g id="edge10_Node000008_Node000007" class="edge">
<title>Node8&#45;&gt;Node7</title>
<g id="a_edge10_Node000008_Node000007"><a xlink:title=" ">
<path fill="none" stroke="#63b8ff" d="M293.6,-169.75C251.95,-157.88 177.43,-130.03 142.36,-76 133.81,-62.83 130.68,-45.24 129.62,-31.68"/>
<polygon fill="#63b8ff" stroke="#63b8ff" points="133.12,-31.54 129.19,-21.7 126.12,-31.84 133.12,-31.54"/>
</a>
</g>
</g>
<!-- Node9 -->
<g id="Node000009" class="node">
<title>Node9</title>
<g id="a_Node000009"><a xlink:href="_print_callback_8h.html" target="_top" xlink:title=" ">
<polygon fill="white" stroke="#666666" points="330.73,-132 247.98,-132 247.98,-112 330.73,-112 330.73,-132"/>
<text text-anchor="middle" x="289.36" y="-118.5" font-family="Helvetica,sans-Serif" font-size="10.00">PrintCallback.h</text>
</a>
</g>
</g>
<!-- Node8&#45;&gt;Node9 -->
<g id="edge15_Node000008_Node000009" class="edge">
<title>Node8&#45;&gt;Node9</title>
<g id="a_edge15_Node000008_Node000009"><a xlink:title=" ">
<path fill="none" stroke="#63b8ff" d="M317.43,-167.59C313,-160.55 306.78,-150.67 301.32,-142"/>
<polygon fill="#63b8ff" stroke="#63b8ff" points="304.31,-140.18 296.02,-133.58 298.38,-143.91 304.31,-140.18"/>
</a>
</g>
</g>
<!-- Node12 -->
<g id="Node000012" class="node">
<title>Node12</title>
<g id="a_Node000012"><a xlink:href="_program_variable_8h.html" target="_top" xlink:title=" ">
<polygon fill="white" stroke="#666666" points="642.11,-132 546.61,-132 546.61,-112 642.11,-112 642.11,-132"/>
<text text-anchor="middle" x="594.36" y="-118.5" font-family="Helvetica,sans-Serif" font-size="10.00">ProgramVariable.h</text>
</a>
</g>
</g>
<!-- Node8&#45;&gt;Node12 -->
<g id="edge22_Node000008_Node000012" class="edge">
<title>Node8&#45;&gt;Node12</title>
<g id="a_edge22_Node000008_Node000012"><a xlink:title=" ">
<path fill="none" stroke="#63b8ff" d="M353.13,-171.07C396.87,-162.35 479.36,-145.91 535.58,-134.71"/>
<polygon fill="#63b8ff" stroke="#63b8ff" points="536.2,-138.16 545.32,-132.77 534.83,-131.29 536.2,-138.16"/>
</a>
</g>
</g>
<!-- Node13 -->
<g id="Node000013" class="node">
<title>Node13</title>
<g id="a_Node000013"><a xlink:href="_lexer_8h.html" target="_top" xlink:title=" ">
<polygon fill="white" stroke="#666666" points="76.48,-132 28.23,-132 28.23,-112 76.48,-112 76.48,-132"/>
<text text-anchor="middle" x="52.36" y="-118.5" font-family="Helvetica,sans-Serif" font-size="10.00">Lexer.h</text>
</a>
</g>
</g>
<!-- Node8&#45;&gt;Node13 -->
<g id="edge26_Node000008_Node000013" class="edge">
<title>Node8&#45;&gt;Node13</title>
<g id="a_edge26_Node000008_Node000013"><a xlink:title=" ">
<path fill="none" stroke="#63b8ff" d="M293.48,-171.64C249.07,-163.59 163.06,-147.62 90.36,-132 89.53,-131.82 88.71,-131.64 87.87,-131.46"/>
<polygon fill="#63b8ff" stroke="#63b8ff" points="88.85,-128.09 78.33,-129.3 87.3,-134.92 88.85,-128.09"/>
</a>
</g>
</g>
<!-- Node9&#45;&gt;Node4 -->
<g id="edge17_Node000009_Node000004" class="edge">
<title>Node9&#45;&gt;Node4</title>
<g id="a_edge17_Node000009_Node000004"><a xlink:title=" ">
<path fill="none" stroke="#63b8ff" d="M310.43,-111.54C324.27,-104.06 341.26,-92.19 349.36,-76 356.26,-62.19 354.11,-44.66 350.6,-31.29"/>
<polygon fill="#63b8ff" stroke="#63b8ff" points="353.97,-30.35 347.65,-21.85 347.29,-32.43 353.97,-30.35"/>
</a>
</g>
</g>
<!-- Node9&#45;&gt;Node7 -->
<g id="edge16_Node000009_Node000007" class="edge">
<title>Node9&#45;&gt;Node7</title>
<g id="a_edge16_Node000009_Node000007"><a xlink:title=" ">
<path fill="none" stroke="#63b8ff" d="M247.74,-114.75C220.46,-108.8 185.5,-97.42 161.36,-76 147.98,-64.13 139.59,-45.39 134.77,-31.08"/>
<polygon fill="#63b8ff" stroke="#63b8ff" points="138.21,-30.36 131.97,-21.79 131.51,-32.38 138.21,-30.36"/>
</a>
</g>
</g>
<!-- Node10 -->
<g id="Node000010" class="node">
<title>Node10</title>
<g id="a_Node000010"><a xlink:href="_utils_8h.html" target="_top" xlink:title=" ">
<polygon fill="white" stroke="#666666" points="340.61,-76 296.11,-76 296.11,-56 340.61,-56 340.61,-76"/>
<text text-anchor="middle" x="318.36" y="-62.5" font-family="Helvetica,sans-Serif" font-size="10.00">Utils.h</text>
</a>
</g>
</g>
<!-- Node9&#45;&gt;Node10 -->
<g id="edge18_Node000009_Node000010" class="edge">
<title>Node9&#45;&gt;Node10</title>
<g id="a_edge18_Node000009_Node000010"><a xlink:title=" ">
<path fill="none" stroke="#63b8ff" d="M294.41,-111.59C298.15,-104.63 303.38,-94.89 308,-86.29"/>
<polygon fill="#63b8ff" stroke="#63b8ff" points="311,-88.1 312.65,-77.63 304.83,-84.79 311,-88.1"/>
</a>
</g>
</g>
<!-- Node10&#45;&gt;Node4 -->
<g id="edge20_Node000010_Node000004" class="edge">
<title>Node10&#45;&gt;Node4</title>
<g id="a_edge20_Node000010_Node000004"><a xlink:title=" ">
<path fill="none" stroke="#63b8ff" d="M322.71,-55.59C325.9,-48.7 330.34,-39.1 334.29,-30.57"/>
<polygon fill="#63b8ff" stroke="#63b8ff" points="337.39,-32.22 338.41,-21.67 331.04,-29.28 337.39,-32.22"/>
</a>
</g>
</g>
<!-- Node10&#45;&gt;Node7 -->
<g id="edge19_Node000010_Node000007" class="edge">
<title>Node10&#45;&gt;Node7</title>
<g id="a_edge19_Node000010_Node000007"><a xlink:title=" ">
<path fill="none" stroke="#63b8ff" d="M295.93,-58.59C263.45,-49.31 202.99,-32.04 164.53,-21.05"/>
<polygon fill="#63b8ff" stroke="#63b8ff" points="165.87,-17.79 155.29,-18.41 163.95,-24.52 165.87,-17.79"/>
</a>
</g>
</g>
<!-- Node11 -->
<g id="Node000011" class="node">
<title>Node11</title>
<g id="a_Node000011"><a xlink:title=" ">
<polygon fill="#e0e0e0" stroke="#999999" points="551.98,-20 500.73,-20 500.73,0 551.98,0 551.98,-20"/>
<text text-anchor="middle" x="526.36" y="-6.5" font-family="Helvetica,sans-Serif" font-size="10.00">sstream</text>
</a>
</g>
</g>
<!-- Node10&#45;&gt;Node11 -->
<g id="edge21_Node000010_Node000011" class="edge">
<title>Node10&#45;&gt;Node11</title>
<g id="a_edge21_Node000010_Node000011"><a xlink:title=" ">
<path fill="none" stroke="#63b8ff" d="M341.01,-59.12C376.7,-49.85 446.35,-31.77 489.37,-20.6"/>
<polygon fill="#63b8ff" stroke="#63b8ff" points="490.22,-24 499.02,-18.1 488.46,-17.22 490.22,-24"/>
</a>
</g>
</g>
<!-- Node12&#45;&gt;Node3 -->
<g id="edge25_Node000012_Node000003" class="edge">
<title>Node12&#45;&gt;Node3</title>
<g id="a_edge25_Node000012_Node000003"><a xlink:title=" ">
<path fill="none" stroke="#63b8ff" d="M580.25,-111.59C568.36,-103.67 551.09,-92.16 537.08,-82.82"/>
<polygon fill="#63b8ff" stroke="#63b8ff" points="539.1,-79.95 528.83,-77.32 535.21,-85.78 539.1,-79.95"/>
</a>
</g>
</g>
<!-- Node12&#45;&gt;Node4 -->
<g id="edge23_Node000012_Node000004" class="edge">
<title>Node12&#45;&gt;Node4</title>
<g id="a_edge23_Node000012_Node000004"><a xlink:title=" ">
<path fill="none" stroke="#63b8ff" d="M592.68,-111.83C589.56,-97.55 581.48,-70.17 563.36,-56 534.38,-33.34 428.56,-19.63 374.94,-13.99"/>
<polygon fill="#63b8ff" stroke="#63b8ff" points="375.54,-10.54 365.24,-13.01 374.83,-17.5 375.54,-10.54"/>
</a>
</g>
</g>
<!-- Node12&#45;&gt;Node11 -->
<g id="edge24_Node000012_Node000011" class="edge">
<title>Node12&#45;&gt;Node11</title>
<g id="a_edge24_Node000012_Node000011"><a xlink:title=" ">
<path fill="none" stroke="#63b8ff" d="M597.35,-111.93C601.15,-98.73 606.09,-73.84 596.36,-56 588.98,-42.49 575.62,-32.43 562.54,-25.29"/>
<polygon fill="#63b8ff" stroke="#63b8ff" points="564.09,-22.16 553.58,-20.85 560.99,-28.43 564.09,-22.16"/>
</a>
</g>
</g>
<!-- Node13&#45;&gt;Node4 -->
<g id="edge28_Node000013_Node000004" class="edge">
<title>Node13&#45;&gt;Node4</title>
<g id="a_edge28_Node000013_Node000004"><a xlink:title=" ">
<path fill="none" stroke="#63b8ff" d="M76.94,-118.42C115.18,-113.75 190.6,-101.87 249.36,-76 277.65,-63.54 306.33,-42.16 324.44,-27.34"/>
<polygon fill="#63b8ff" stroke="#63b8ff" points="326.31,-30.35 331.73,-21.24 321.81,-24.98 326.31,-30.35"/>
</a>
</g>
</g>
<!-- Node13&#45;&gt;Node7 -->
<g id="edge27_Node000013_Node000007" class="edge">
<title>Node13&#45;&gt;Node7</title>
<g id="a_edge27_Node000013_Node000007"><a xlink:title=" ">
<path fill="none" stroke="#63b8ff" d="M41.03,-111.84C26.49,-98.94 4.58,-74.9 17.36,-56 26.36,-42.68 64.79,-29.17 94.14,-20.47"/>
<polygon fill="#63b8ff" stroke="#63b8ff" points="94.77,-23.93 103.42,-17.81 92.84,-17.21 94.77,-23.93"/>
</a>
</g>
</g>
<!-- Node14 -->
<g id="Node000014" class="node">
<title>Node14</title>
<g id="a_Node000014"><a xlink:href="_token_8h.html" target="_top" xlink:title=" ">
<polygon fill="white" stroke="#666666" points="76.61,-76 26.11,-76 26.11,-56 76.61,-56 76.61,-76"/>
<text text-anchor="middle" x="51.36" y="-62.5" font-family="Helvetica,sans-Serif" font-size="10.00">Token.h</text>
</a>
</g>
</g>
<!-- Node13&#45;&gt;Node14 -->
<g id="edge29_Node000013_Node000014" class="edge">
<title>Node13&#45;&gt;Node14</title>
<g id="a_edge29_Node000013_Node000014"><a xlink:title=" ">
<path fill="none" stroke="#63b8ff" d="M52.18,-111.59C52.06,-105.01 51.89,-95.96 51.74,-87.73"/>
<polygon fill="#63b8ff" stroke="#63b8ff" points="55.24,-87.75 51.56,-77.81 48.24,-87.87 55.24,-87.75"/>
</a>
</g>
</g>
<!-- Node14&#45;&gt;Node4 -->
<g id="edge31_Node000014_Node000004" class="edge">
<title>Node14&#45;&gt;Node4</title>
<g id="a_edge31_Node000014_Node000004"><a xlink:title=" ">
<path fill="none" stroke="#63b8ff" d="M77.01,-60.26C130.52,-50.36 253.88,-27.55 311.99,-16.8"/>
<polygon fill="#63b8ff" stroke="#63b8ff" points="312.34,-20.29 321.54,-15.03 311.07,-13.41 312.34,-20.29"/>
</a>
</g>
</g>
<!-- Node14&#45;&gt;Node6 -->
<g id="edge32_Node000014_Node000006" class="edge">
<title>Node14&#45;&gt;Node6</title>
<g id="a_edge32_Node000014_Node000006"><a xlink:title=" ">
<path fill="none" stroke="#63b8ff" d="M51.36,-55.59C51.36,-49.01 51.36,-39.96 51.36,-31.73"/>
<polygon fill="#63b8ff" stroke="#63b8ff" points="54.86,-31.81 51.36,-21.81 47.86,-31.81 54.86,-31.81"/>
</a>
</g>
</g>
<!-- Node14&#45;&gt;Node7 -->
<g id="edge30_Node000014_Node000007" class="edge">
<title>Node14&#45;&gt;Node7</title>
<g id="a_edge30_Node000014_Node000007"><a xlink:title=" ">
<path fill="none" stroke="#63b8ff" d="M64.94,-55.59C76.39,-47.67 93.02,-36.16 106.51,-26.82"/>
<polygon fill="#63b8ff" stroke="#63b8ff" points="108.19,-29.91 114.42,-21.34 104.2,-24.16 108.19,-29.91"/>
</a>
</g>
</g>
</g>
</svg>
