<?xml version="1.0" encoding="UTF-8" standalone="no"?>
<!DOCTYPE svg PUBLIC "-//W3C//DTD SVG 1.1//EN"
 "http://www.w3.org/Graphics/SVG/1.1/DTD/svg11.dtd">
<!-- Generated by graphviz version 12.2.1 (20241206.2353)
 -->
<!-- Title: C:/Users/emilly/Documents/Lucca/Projetos/Cpp/NikiScript/src/CommandHandler.h Pages: 1 -->
<svg width="269pt" height="164pt"
 viewBox="0.00 0.00 268.50 164.00" xmlns="http://www.w3.org/2000/svg" xmlns:xlink="http://www.w3.org/1999/xlink">
<g id="graph0" class="graph" transform="scale(1 1) rotate(0) translate(4 160)">
<title>C:/Users/emilly/Documents/Lucca/Projetos/Cpp/NikiScript/src/CommandHandler.h</title>
<!-- Node1 -->
<g id="Node000001" class="node">
<title>Node1</title>
<g id="a_Node000001"><a xlink:title=" ">
<polygon fill="#999999" stroke="#666666" points="185.88,-156 34.88,-156 34.88,-112 185.88,-112 185.88,-156"/>
<text text-anchor="start" x="42.88" y="-142.5" font-family="Helvetica,sans-Serif" font-size="10.00">C:/Users/emilly/Documents</text>
<text text-anchor="start" x="42.88" y="-130.5" font-family="Helvetica,sans-Serif" font-size="10.00">/Lucca/Projetos/Cpp/NikiScript</text>
<text text-anchor="middle" x="110.38" y="-118.5" font-family="Helvetica,sans-Serif" font-size="10.00">/src/CommandHandler.h</text>
</a>
</g>
</g>
<!-- Node2 -->
<g id="Node000002" class="node">
<title>Node2</title>
<g id="a_Node000002"><a xlink:title=" ">
<polygon fill="#e0e0e0" stroke="#999999" points="82.75,-76 0,-76 0,-56 82.75,-56 82.75,-76"/>
<text text-anchor="middle" x="41.38" y="-62.5" font-family="Helvetica,sans-Serif" font-size="10.00">unordered_map</text>
</a>
</g>
</g>
<!-- Node1&#45;&gt;Node2 -->
<g id="edge1_Node000001_Node000002" class="edge">
<title>Node1&#45;&gt;Node2</title>
<g id="a_edge1_Node000001_Node000002"><a xlink:title=" ">
<path fill="none" stroke="#63b8ff" d="M88.16,-111.75C78.83,-102.82 68.11,-92.57 59.29,-84.13"/>
<polygon fill="#63b8ff" stroke="#63b8ff" points="61.96,-81.85 52.32,-77.47 57.12,-86.91 61.96,-81.85"/>
</a>
</g>
</g>
<!-- Node3 -->
<g id="Node000003" class="node">
<title>Node3</title>
<g id="a_Node000003"><a xlink:title=" ">
<polygon fill="#e0e0e0" stroke="#999999" points="131.38,-20 91.38,-20 91.38,0 131.38,0 131.38,-20"/>
<text text-anchor="middle" x="111.38" y="-6.5" font-family="Helvetica,sans-Serif" font-size="10.00">string</text>
</a>
</g>
</g>
<!-- Node1&#45;&gt;Node3 -->
<g id="edge2_Node000001_Node000003" class="edge">
<title>Node1&#45;&gt;Node3</title>
<g id="a_edge2_Node000001_Node000003"><a xlink:title=" ">
<path fill="none" stroke="#63b8ff" d="M110.55,-111.75C110.73,-89.26 111.02,-54.02 111.21,-31.73"/>
<polygon fill="#63b8ff" stroke="#63b8ff" points="114.7,-31.84 111.29,-21.81 107.7,-31.79 114.7,-31.84"/>
</a>
</g>
</g>
<!-- Node4 -->
<g id="Node000004" class="node">
<title>Node4</title>
<g id="a_Node000004"><a xlink:href="_command_8h.html" target="_top" xlink:title=" ">
<polygon fill="white" stroke="#666666" points="208,-76 138.75,-76 138.75,-56 208,-56 208,-76"/>
<text text-anchor="middle" x="173.38" y="-62.5" font-family="Helvetica,sans-Serif" font-size="10.00">Command.h</text>
</a>
</g>
</g>
<!-- Node1&#45;&gt;Node4 -->
<g id="edge3_Node000001_Node000004" class="edge">
<title>Node1&#45;&gt;Node4</title>
<g id="a_edge3_Node000001_Node000004"><a xlink:title=" ">
<path fill="none" stroke="#63b8ff" d="M130.66,-111.75C139,-103.01 148.56,-93 156.51,-84.66"/>
<polygon fill="#63b8ff" stroke="#63b8ff" points="158.97,-87.16 163.34,-77.51 153.9,-82.33 158.97,-87.16"/>
</a>
</g>
</g>
<!-- Node4&#45;&gt;Node3 -->
<g id="edge5_Node000004_Node000003" class="edge">
<title>Node4&#45;&gt;Node3</title>
<g id="a_edge5_Node000004_Node000003"><a xlink:title=" ">
<path fill="none" stroke="#63b8ff" d="M162.58,-55.59C153.77,-47.93 141.12,-36.91 130.6,-27.75"/>
<polygon fill="#63b8ff" stroke="#63b8ff" points="133.03,-25.22 123.19,-21.29 128.43,-30.5 133.03,-25.22"/>
</a>
</g>
</g>
<!-- Node5 -->
<g id="Node000005" class="node">
<title>Node5</title>
<g id="a_Node000005"><a xlink:title=" ">
<polygon fill="#e0e0e0" stroke="#999999" points="193.88,-20 150.88,-20 150.88,0 193.88,0 193.88,-20"/>
<text text-anchor="middle" x="172.38" y="-6.5" font-family="Helvetica,sans-Serif" font-size="10.00">vector</text>
</a>
</g>
</g>
<!-- Node4&#45;&gt;Node5 -->
<g id="edge4_Node000004_Node000005" class="edge">
<title>Node4&#45;&gt;Node5</title>
<g id="a_edge4_Node000004_Node000005"><a xlink:title=" ">
<path fill="none" stroke="#63b8ff" d="M173.2,-55.59C173.08,-49.01 172.91,-39.96 172.76,-31.73"/>
<polygon fill="#63b8ff" stroke="#63b8ff" points="176.26,-31.75 172.58,-21.81 169.26,-31.87 176.26,-31.75"/>
</a>
</g>
</g>
<!-- Node6 -->
<g id="Node000006" class="node">
<title>Node6</title>
<g id="a_Node000006"><a xlink:title=" ">
<polygon fill="#e0e0e0" stroke="#999999" points="260.5,-20 212.25,-20 212.25,0 260.5,0 260.5,-20"/>
<text text-anchor="middle" x="236.38" y="-6.5" font-family="Helvetica,sans-Serif" font-size="10.00">stdint.h</text>
</a>
</g>
</g>
<!-- Node4&#45;&gt;Node6 -->
<g id="edge6_Node000004_Node000006" class="edge">
<title>Node4&#45;&gt;Node6</title>
<g id="a_edge6_Node000004_Node000006"><a xlink:title=" ">
<path fill="none" stroke="#63b8ff" d="M184.35,-55.59C193.29,-47.93 206.15,-36.91 216.84,-27.75"/>
<polygon fill="#63b8ff" stroke="#63b8ff" points="219.06,-30.45 224.38,-21.28 214.51,-25.13 219.06,-30.45"/>
</a>
</g>
</g>
</g>
</svg>
