<?xml version="1.0" encoding="UTF-8" standalone="no"?>
<!DOCTYPE svg PUBLIC "-//W3C//DTD SVG 1.1//EN"
 "http://www.w3.org/Graphics/SVG/1.1/DTD/svg11.dtd">
<!-- Generated by graphviz version 12.2.1 (20241206.2353)
 -->
<!-- Title: C:/Users/emilly/Documents/Lucca/Projetos/Cpp/NikiScript/wrapper/CommandHandlerWrapper.h Pages: 1 -->
<svg width="293pt" height="220pt"
 viewBox="0.00 0.00 293.38 220.00" xmlns="http://www.w3.org/2000/svg" xmlns:xlink="http://www.w3.org/1999/xlink">
<g id="graph0" class="graph" transform="scale(1 1) rotate(0) translate(4 216)">
<title>C:/Users/emilly/Documents/Lucca/Projetos/Cpp/NikiScript/wrapper/CommandHandlerWrapper.h</title>
<!-- Node1 -->
<g id="Node000001" class="node">
<title>Node1</title>
<g id="a_Node000001"><a xlink:title=" ">
<polygon fill="#999999" stroke="#666666" points="196.12,-212 16.62,-212 16.62,-168 196.12,-168 196.12,-212"/>
<text text-anchor="start" x="24.62" y="-198.5" font-family="Helvetica,sans-Serif" font-size="10.00">C:/Users/emilly/Documents</text>
<text text-anchor="start" x="24.62" y="-186.5" font-family="Helvetica,sans-Serif" font-size="10.00">/Lucca/Projetos/Cpp/NikiScript</text>
<text text-anchor="middle" x="106.38" y="-174.5" font-family="Helvetica,sans-Serif" font-size="10.00">/wrapper/CommandHandlerWrapper.h</text>
</a>
</g>
</g>
<!-- Node2 -->
<g id="Node000002" class="node">
<title>Node2</title>
<g id="a_Node000002"><a xlink:href="_d_l_l_export_8h.html" target="_top" xlink:title=" ">
<polygon fill="white" stroke="#666666" points="70.75,-76 0,-76 0,-56 70.75,-56 70.75,-76"/>
<text text-anchor="middle" x="35.38" y="-62.5" font-family="Helvetica,sans-Serif" font-size="10.00">DLLExport.h</text>
</a>
</g>
</g>
<!-- Node1&#45;&gt;Node2 -->
<g id="edge1_Node000001_Node000002" class="edge">
<title>Node1&#45;&gt;Node2</title>
<g id="a_edge1_Node000001_Node000002"><a xlink:title=" ">
<path fill="none" stroke="#63b8ff" d="M75.19,-167.63C63.66,-158.09 51.63,-145.86 44.38,-132 37.24,-118.39 35.13,-101.07 34.72,-87.74"/>
<polygon fill="#63b8ff" stroke="#63b8ff" points="38.22,-87.94 34.75,-77.94 31.22,-87.93 38.22,-87.94"/>
</a>
</g>
</g>
<!-- Node3 -->
<g id="Node000003" class="node">
<title>Node3</title>
<g id="a_Node000003"><a xlink:href="_command_handler_8h.html" target="_top" xlink:title=" ">
<polygon fill="white" stroke="#666666" points="279.88,-132 176.88,-132 176.88,-112 279.88,-112 279.88,-132"/>
<text text-anchor="middle" x="228.38" y="-118.5" font-family="Helvetica,sans-Serif" font-size="10.00">CommandHandler.h</text>
</a>
</g>
</g>
<!-- Node1&#45;&gt;Node3 -->
<g id="edge2_Node000001_Node000003" class="edge">
<title>Node1&#45;&gt;Node3</title>
<g id="a_edge2_Node000001_Node000003"><a xlink:title=" ">
<path fill="none" stroke="#63b8ff" d="M145.98,-167.57C164.02,-157.81 184.91,-146.51 201.15,-137.73"/>
<polygon fill="#63b8ff" stroke="#63b8ff" points="202.6,-140.92 209.73,-133.09 199.27,-134.77 202.6,-140.92"/>
</a>
</g>
</g>
<!-- Node9 -->
<g id="Node000009" class="node">
<title>Node9</title>
<g id="a_Node000009"><a xlink:href="_command_wrapper_8h.html" target="_top" xlink:title=" ">
<polygon fill="white" stroke="#666666" points="159,-132 53.75,-132 53.75,-112 159,-112 159,-132"/>
<text text-anchor="middle" x="106.38" y="-118.5" font-family="Helvetica,sans-Serif" font-size="10.00">CommandWrapper.h</text>
</a>
</g>
</g>
<!-- Node1&#45;&gt;Node9 -->
<g id="edge9_Node000001_Node000009" class="edge">
<title>Node1&#45;&gt;Node9</title>
<g id="a_edge9_Node000001_Node000009"><a xlink:title=" ">
<path fill="none" stroke="#63b8ff" d="M106.38,-167.75C106.38,-160.13 106.38,-151.53 106.38,-143.93"/>
<polygon fill="#63b8ff" stroke="#63b8ff" points="109.88,-143.93 106.38,-133.93 102.88,-143.93 109.88,-143.93"/>
</a>
</g>
</g>
<!-- Node4 -->
<g id="Node000004" class="node">
<title>Node4</title>
<g id="a_Node000004"><a xlink:title=" ">
<polygon fill="#e0e0e0" stroke="#999999" points="263.75,-76 181,-76 181,-56 263.75,-56 263.75,-76"/>
<text text-anchor="middle" x="222.38" y="-62.5" font-family="Helvetica,sans-Serif" font-size="10.00">unordered_map</text>
</a>
</g>
</g>
<!-- Node3&#45;&gt;Node4 -->
<g id="edge3_Node000003_Node000004" class="edge">
<title>Node3&#45;&gt;Node4</title>
<g id="a_edge3_Node000003_Node000004"><a xlink:title=" ">
<path fill="none" stroke="#63b8ff" d="M227.33,-111.59C226.6,-105.01 225.59,-95.96 224.68,-87.73"/>
<polygon fill="#63b8ff" stroke="#63b8ff" points="228.16,-87.35 223.58,-77.8 221.2,-88.13 228.16,-87.35"/>
</a>
</g>
</g>
<!-- Node5 -->
<g id="Node000005" class="node">
<title>Node5</title>
<g id="a_Node000005"><a xlink:title=" ">
<polygon fill="#e0e0e0" stroke="#999999" points="285.38,-20 245.38,-20 245.38,0 285.38,0 285.38,-20"/>
<text text-anchor="middle" x="265.38" y="-6.5" font-family="Helvetica,sans-Serif" font-size="10.00">string</text>
</a>
</g>
</g>
<!-- Node3&#45;&gt;Node5 -->
<g id="edge4_Node000003_Node000005" class="edge">
<title>Node3&#45;&gt;Node5</title>
<g id="a_edge4_Node000003_Node000005"><a xlink:title=" ">
<path fill="none" stroke="#63b8ff" d="M242,-111.73C252.52,-103.68 266.27,-90.97 272.38,-76 278.21,-61.68 275.85,-44.18 272.37,-30.95"/>
<polygon fill="#63b8ff" stroke="#63b8ff" points="275.79,-30.18 269.5,-21.66 269.1,-32.25 275.79,-30.18"/>
</a>
</g>
</g>
<!-- Node6 -->
<g id="Node000006" class="node">
<title>Node6</title>
<g id="a_Node000006"><a xlink:href="_command_8h.html" target="_top" xlink:title=" ">
<polygon fill="white" stroke="#666666" points="163,-76 93.75,-76 93.75,-56 163,-56 163,-76"/>
<text text-anchor="middle" x="128.38" y="-62.5" font-family="Helvetica,sans-Serif" font-size="10.00">Command.h</text>
</a>
</g>
</g>
<!-- Node3&#45;&gt;Node6 -->
<g id="edge5_Node000003_Node000006" class="edge">
<title>Node3&#45;&gt;Node6</title>
<g id="a_edge5_Node000003_Node000006"><a xlink:title=" ">
<path fill="none" stroke="#63b8ff" d="M210.96,-111.59C195.71,-103.36 173.3,-91.26 155.67,-81.74"/>
<polygon fill="#63b8ff" stroke="#63b8ff" points="157.72,-78.87 147.26,-77.2 154.4,-85.03 157.72,-78.87"/>
</a>
</g>
</g>
<!-- Node6&#45;&gt;Node5 -->
<g id="edge7_Node000006_Node000005" class="edge">
<title>Node6&#45;&gt;Node5</title>
<g id="a_edge7_Node000006_Node000005"><a xlink:title=" ">
<path fill="none" stroke="#63b8ff" d="M152.24,-55.59C174.98,-46.63 209.33,-33.09 234.22,-23.28"/>
<polygon fill="#63b8ff" stroke="#63b8ff" points="235.48,-26.54 243.5,-19.62 232.92,-20.03 235.48,-26.54"/>
</a>
</g>
</g>
<!-- Node7 -->
<g id="Node000007" class="node">
<title>Node7</title>
<g id="a_Node000007"><a xlink:title=" ">
<polygon fill="#e0e0e0" stroke="#999999" points="110.88,-20 67.88,-20 67.88,0 110.88,0 110.88,-20"/>
<text text-anchor="middle" x="89.38" y="-6.5" font-family="Helvetica,sans-Serif" font-size="10.00">vector</text>
</a>
</g>
</g>
<!-- Node6&#45;&gt;Node7 -->
<g id="edge6_Node000006_Node000007" class="edge">
<title>Node6&#45;&gt;Node7</title>
<g id="a_edge6_Node000006_Node000007"><a xlink:title=" ">
<path fill="none" stroke="#63b8ff" d="M121.58,-55.59C116.38,-48.39 109.04,-38.23 102.69,-29.43"/>
<polygon fill="#63b8ff" stroke="#63b8ff" points="105.67,-27.58 96.98,-21.53 99.99,-31.68 105.67,-27.58"/>
</a>
</g>
</g>
<!-- Node8 -->
<g id="Node000008" class="node">
<title>Node8</title>
<g id="a_Node000008"><a xlink:title=" ">
<polygon fill="#e0e0e0" stroke="#999999" points="177.5,-20 129.25,-20 129.25,0 177.5,0 177.5,-20"/>
<text text-anchor="middle" x="153.38" y="-6.5" font-family="Helvetica,sans-Serif" font-size="10.00">stdint.h</text>
</a>
</g>
</g>
<!-- Node6&#45;&gt;Node8 -->
<g id="edge8_Node000006_Node000008" class="edge">
<title>Node6&#45;&gt;Node8</title>
<g id="a_edge8_Node000006_Node000008"><a xlink:title=" ">
<path fill="none" stroke="#63b8ff" d="M132.73,-55.59C135.92,-48.7 140.36,-39.1 144.31,-30.57"/>
<polygon fill="#63b8ff" stroke="#63b8ff" points="147.41,-32.22 148.43,-21.67 141.06,-29.28 147.41,-32.22"/>
</a>
</g>
</g>
<!-- Node9&#45;&gt;Node2 -->
<g id="edge10_Node000009_Node000002" class="edge">
<title>Node9&#45;&gt;Node2</title>
<g id="a_edge10_Node000009_Node000002"><a xlink:title=" ">
<path fill="none" stroke="#63b8ff" d="M94.01,-111.59C83.73,-103.77 68.86,-92.46 56.66,-83.19"/>
<polygon fill="#63b8ff" stroke="#63b8ff" points="58.88,-80.48 48.81,-77.21 54.65,-86.05 58.88,-80.48"/>
</a>
</g>
</g>
<!-- Node9&#45;&gt;Node6 -->
<g id="edge11_Node000009_Node000006" class="edge">
<title>Node9&#45;&gt;Node6</title>
<g id="a_edge11_Node000009_Node000006"><a xlink:title=" ">
<path fill="none" stroke="#63b8ff" d="M110.21,-111.59C112.98,-104.78 116.84,-95.32 120.28,-86.86"/>
<polygon fill="#63b8ff" stroke="#63b8ff" points="123.48,-88.28 124.02,-77.7 117,-85.64 123.48,-88.28"/>
</a>
</g>
</g>
</g>
</svg>
