<?xml version="1.0" encoding="UTF-8" standalone="no"?>
<!DOCTYPE svg PUBLIC "-//W3C//DTD SVG 1.1//EN"
 "http://www.w3.org/Graphics/SVG/1.1/DTD/svg11.dtd">
<!-- Generated by graphviz version 12.2.1 (20241206.2353)
 -->
<!-- Title: C:/Users/emilly/Documents/Lucca/Projetos/Cpp/NikiScript/src/CommandHandler.cpp Pages: 1 -->
<svg width="630pt" height="276pt"
 viewBox="0.00 0.00 630.28 276.00" xmlns="http://www.w3.org/2000/svg" xmlns:xlink="http://www.w3.org/1999/xlink">
<g id="graph0" class="graph" transform="scale(1 1) rotate(0) translate(4 272)">
<title>C:/Users/emilly/Documents/Lucca/Projetos/Cpp/NikiScript/src/CommandHandler.cpp</title>
<!-- Node1 -->
<g id="Node000001" class="node">
<title>Node1</title>
<g id="a_Node000001"><a xlink:title=" ">
<polygon fill="#999999" stroke="#666666" points="248.25,-268 97.25,-268 97.25,-224 248.25,-224 248.25,-268"/>
<text text-anchor="start" x="105.25" y="-254.5" font-family="Helvetica,sans-Serif" font-size="10.00">C:/Users/emilly/Documents</text>
<text text-anchor="start" x="105.25" y="-242.5" font-family="Helvetica,sans-Serif" font-size="10.00">/Lucca/Projetos/Cpp/NikiScript</text>
<text text-anchor="middle" x="172.75" y="-230.5" font-family="Helvetica,sans-Serif" font-size="10.00">/src/CommandHandler.cpp</text>
</a>
</g>
</g>
<!-- Node2 -->
<g id="Node000002" class="node">
<title>Node2</title>
<g id="a_Node000002"><a xlink:href="_command_handler_8h.html" target="_top" xlink:title=" ">
<polygon fill="white" stroke="#666666" points="127.25,-132 24.25,-132 24.25,-112 127.25,-112 127.25,-132"/>
<text text-anchor="middle" x="75.75" y="-118.5" font-family="Helvetica,sans-Serif" font-size="10.00">CommandHandler.h</text>
</a>
</g>
</g>
<!-- Node1&#45;&gt;Node2 -->
<g id="edge1_Node000001_Node000002" class="edge">
<title>Node1&#45;&gt;Node2</title>
<g id="a_edge1_Node000001_Node000002"><a xlink:title=" ">
<path fill="none" stroke="#63b8ff" d="M155.85,-223.75C137.31,-200.42 107.84,-163.36 90.29,-141.29"/>
<polygon fill="#63b8ff" stroke="#63b8ff" points="93.05,-139.14 84.09,-133.49 87.57,-143.49 93.05,-139.14"/>
</a>
</g>
</g>
<!-- Node8 -->
<g id="Node000008" class="node">
<title>Node8</title>
<g id="a_Node000008"><a xlink:href="_context_8h.html" target="_top" xlink:title=" ">
<polygon fill="white" stroke="#666666" points="261.12,-188 202.38,-188 202.38,-168 261.12,-168 261.12,-188"/>
<text text-anchor="middle" x="231.75" y="-174.5" font-family="Helvetica,sans-Serif" font-size="10.00">Context.h</text>
</a>
</g>
</g>
<!-- Node1&#45;&gt;Node8 -->
<g id="edge8_Node000001_Node000008" class="edge">
<title>Node1&#45;&gt;Node8</title>
<g id="a_edge8_Node000001_Node000008"><a xlink:title=" ">
<path fill="none" stroke="#63b8ff" d="M191.74,-223.75C199.48,-215.1 208.32,-205.21 215.72,-196.93"/>
<polygon fill="#63b8ff" stroke="#63b8ff" points="218.27,-199.34 222.32,-189.55 213.05,-194.67 218.27,-199.34"/>
</a>
</g>
</g>
<!-- Node3 -->
<g id="Node000003" class="node">
<title>Node3</title>
<g id="a_Node000003"><a xlink:title=" ">
<polygon fill="#e0e0e0" stroke="#999999" points="204.12,-76 121.38,-76 121.38,-56 204.12,-56 204.12,-76"/>
<text text-anchor="middle" x="162.75" y="-62.5" font-family="Helvetica,sans-Serif" font-size="10.00">unordered_map</text>
</a>
</g>
</g>
<!-- Node2&#45;&gt;Node3 -->
<g id="edge2_Node000002_Node000003" class="edge">
<title>Node2&#45;&gt;Node3</title>
<g id="a_edge2_Node000002_Node000003"><a xlink:title=" ">
<path fill="none" stroke="#63b8ff" d="M90.9,-111.59C103.8,-103.59 122.58,-91.93 137.71,-82.54"/>
<polygon fill="#63b8ff" stroke="#63b8ff" points="139.54,-85.53 146.19,-77.28 135.85,-79.58 139.54,-85.53"/>
</a>
</g>
</g>
<!-- Node4 -->
<g id="Node000004" class="node">
<title>Node4</title>
<g id="a_Node000004"><a xlink:title=" ">
<polygon fill="#e0e0e0" stroke="#999999" points="65.5,-20 0,-20 0,0 65.5,0 65.5,-20"/>
<text text-anchor="middle" x="32.75" y="-6.5" font-family="Helvetica,sans-Serif" font-size="10.00">string_view</text>
</a>
</g>
</g>
<!-- Node2&#45;&gt;Node4 -->
<g id="edge3_Node000002_Node000004" class="edge">
<title>Node2&#45;&gt;Node4</title>
<g id="a_edge3_Node000002_Node000004"><a xlink:title=" ">
<path fill="none" stroke="#63b8ff" d="M59.02,-111.6C47.01,-103.8 31.74,-91.5 24.75,-76 18.38,-61.88 21.06,-44.37 24.96,-31.08"/>
<polygon fill="#63b8ff" stroke="#63b8ff" points="28.23,-32.31 28.17,-21.72 21.61,-30.04 28.23,-32.31"/>
</a>
</g>
</g>
<!-- Node5 -->
<g id="Node000005" class="node">
<title>Node5</title>
<g id="a_Node000005"><a xlink:href="_command_8h.html" target="_top" xlink:title=" ">
<polygon fill="white" stroke="#666666" points="103.38,-76 34.12,-76 34.12,-56 103.38,-56 103.38,-76"/>
<text text-anchor="middle" x="68.75" y="-62.5" font-family="Helvetica,sans-Serif" font-size="10.00">Command.h</text>
</a>
</g>
</g>
<!-- Node2&#45;&gt;Node5 -->
<g id="edge4_Node000002_Node000005" class="edge">
<title>Node2&#45;&gt;Node5</title>
<g id="a_edge4_Node000002_Node000005"><a xlink:title=" ">
<path fill="none" stroke="#63b8ff" d="M74.53,-111.59C73.67,-104.93 72.48,-95.75 71.4,-87.44"/>
<polygon fill="#63b8ff" stroke="#63b8ff" points="74.91,-87.27 70.15,-77.8 67.96,-88.17 74.91,-87.27"/>
</a>
</g>
</g>
<!-- Node5&#45;&gt;Node4 -->
<g id="edge6_Node000005_Node000004" class="edge">
<title>Node5&#45;&gt;Node4</title>
<g id="a_edge6_Node000005_Node000004"><a xlink:title=" ">
<path fill="none" stroke="#63b8ff" d="M62.48,-55.59C57.73,-48.47 51.05,-38.45 45.23,-29.72"/>
<polygon fill="#63b8ff" stroke="#63b8ff" points="48.25,-27.94 39.79,-21.56 42.42,-31.82 48.25,-27.94"/>
</a>
</g>
</g>
<!-- Node6 -->
<g id="Node000006" class="node">
<title>Node6</title>
<g id="a_Node000006"><a xlink:title=" ">
<polygon fill="#e0e0e0" stroke="#999999" points="126.25,-20 83.25,-20 83.25,0 126.25,0 126.25,-20"/>
<text text-anchor="middle" x="104.75" y="-6.5" font-family="Helvetica,sans-Serif" font-size="10.00">vector</text>
</a>
</g>
</g>
<!-- Node5&#45;&gt;Node6 -->
<g id="edge5_Node000005_Node000006" class="edge">
<title>Node5&#45;&gt;Node6</title>
<g id="a_edge5_Node000005_Node000006"><a xlink:title=" ">
<path fill="none" stroke="#63b8ff" d="M75.02,-55.59C79.77,-48.47 86.45,-38.45 92.27,-29.72"/>
<polygon fill="#63b8ff" stroke="#63b8ff" points="95.08,-31.82 97.71,-21.56 89.25,-27.94 95.08,-31.82"/>
</a>
</g>
</g>
<!-- Node7 -->
<g id="Node000007" class="node">
<title>Node7</title>
<g id="a_Node000007"><a xlink:title=" ">
<polygon fill="#e0e0e0" stroke="#999999" points="403.75,-20 363.75,-20 363.75,0 403.75,0 403.75,-20"/>
<text text-anchor="middle" x="383.75" y="-6.5" font-family="Helvetica,sans-Serif" font-size="10.00">string</text>
</a>
</g>
</g>
<!-- Node5&#45;&gt;Node7 -->
<g id="edge7_Node000005_Node000007" class="edge">
<title>Node5&#45;&gt;Node7</title>
<g id="a_edge7_Node000005_Node000007"><a xlink:title=" ">
<path fill="none" stroke="#63b8ff" d="M103.79,-57.71C106.82,-57.12 109.84,-56.54 112.75,-56 199.15,-40 301.54,-23.72 352.17,-15.85"/>
<polygon fill="#63b8ff" stroke="#63b8ff" points="352.46,-19.35 361.81,-14.36 351.39,-12.43 352.46,-19.35"/>
</a>
</g>
</g>
<!-- Node8&#45;&gt;Node2 -->
<g id="edge14_Node000008_Node000002" class="edge">
<title>Node8&#45;&gt;Node2</title>
<g id="a_edge14_Node000008_Node000002"><a xlink:title=" ">
<path fill="none" stroke="#63b8ff" d="M204.58,-167.59C179.45,-158.9 141.87,-145.89 113.77,-136.16"/>
<polygon fill="#63b8ff" stroke="#63b8ff" points="115.16,-132.94 104.57,-132.97 112.87,-139.55 115.16,-132.94"/>
</a>
</g>
</g>
<!-- Node8&#45;&gt;Node3 -->
<g id="edge12_Node000008_Node000003" class="edge">
<title>Node8&#45;&gt;Node3</title>
<g id="a_edge12_Node000008_Node000003"><a xlink:title=" ">
<path fill="none" stroke="#63b8ff" d="M225.87,-167.62C214.56,-149.6 189.61,-109.81 174.68,-86.02"/>
<polygon fill="#63b8ff" stroke="#63b8ff" points="177.7,-84.25 169.42,-77.64 171.77,-87.97 177.7,-84.25"/>
</a>
</g>
</g>
<!-- Node8&#45;&gt;Node5 -->
<g id="edge13_Node000008_Node000005" class="edge">
<title>Node8&#45;&gt;Node5</title>
<g id="a_edge13_Node000008_Node000005"><a xlink:title=" ">
<path fill="none" stroke="#63b8ff" d="M218.27,-167.68C199.89,-155 165.93,-131.64 136.75,-112 122.06,-102.11 105.48,-91.14 92.38,-82.51"/>
<polygon fill="#63b8ff" stroke="#63b8ff" points="94.66,-79.82 84.38,-77.25 90.82,-85.67 94.66,-79.82"/>
</a>
</g>
</g>
<!-- Node8&#45;&gt;Node6 -->
<g id="edge9_Node000008_Node000006" class="edge">
<title>Node8&#45;&gt;Node6</title>
<g id="a_edge9_Node000008_Node000006"><a xlink:title=" ">
<path fill="none" stroke="#63b8ff" d="M201.93,-175.29C148.28,-171.52 38.89,-160.46 15.75,-132 4.78,-118.5 7.04,-81.4 24.75,-56 36.19,-39.59 55.64,-28.46 72.5,-21.37"/>
<polygon fill="#63b8ff" stroke="#63b8ff" points="73.61,-24.69 81.68,-17.82 71.09,-18.16 73.61,-24.69"/>
</a>
</g>
</g>
<!-- Node8&#45;&gt;Node7 -->
<g id="edge11_Node000008_Node000007" class="edge">
<title>Node8&#45;&gt;Node7</title>
<g id="a_edge11_Node000008_Node000007"><a xlink:title=" ">
<path fill="none" stroke="#63b8ff" d="M261.47,-168.79C281.98,-161.85 308.7,-150.09 326.75,-132 355.35,-103.34 371.44,-57.58 378.79,-31.31"/>
<polygon fill="#63b8ff" stroke="#63b8ff" points="382.1,-32.47 381.25,-21.91 375.33,-30.7 382.1,-32.47"/>
</a>
</g>
</g>
<!-- Node9 -->
<g id="Node000009" class="node">
<title>Node9</title>
<g id="a_Node000009"><a xlink:title=" ">
<polygon fill="#e0e0e0" stroke="#999999" points="613.88,-20 565.62,-20 565.62,0 613.88,0 613.88,-20"/>
<text text-anchor="middle" x="589.75" y="-6.5" font-family="Helvetica,sans-Serif" font-size="10.00">stdint.h</text>
</a>
</g>
</g>
<!-- Node8&#45;&gt;Node9 -->
<g id="edge10_Node000008_Node000009" class="edge">
<title>Node8&#45;&gt;Node9</title>
<g id="a_edge10_Node000008_Node000009"><a xlink:title=" ">
<path fill="none" stroke="#63b8ff" d="M261.54,-175.09C331.51,-170.25 504.38,-156.15 556.75,-132 590.77,-116.31 604.4,-110.18 619.75,-76 626.96,-59.94 617.01,-41.76 606.68,-28.71"/>
<polygon fill="#63b8ff" stroke="#63b8ff" points="609.52,-26.64 600.32,-21.37 604.23,-31.22 609.52,-26.64"/>
</a>
</g>
</g>
<!-- Node10 -->
<g id="Node000010" class="node">
<title>Node10</title>
<g id="a_Node000010"><a xlink:href="_print_callback_8h.html" target="_top" xlink:title=" ">
<polygon fill="white" stroke="#666666" points="548.12,-132 465.38,-132 465.38,-112 548.12,-112 548.12,-132"/>
<text text-anchor="middle" x="506.75" y="-118.5" font-family="Helvetica,sans-Serif" font-size="10.00">PrintCallback.h</text>
</a>
</g>
</g>
<!-- Node8&#45;&gt;Node10 -->
<g id="edge15_Node000008_Node000010" class="edge">
<title>Node8&#45;&gt;Node10</title>
<g id="a_edge15_Node000008_Node000010"><a xlink:title=" ">
<path fill="none" stroke="#63b8ff" d="M261.44,-171.17C307.53,-162.12 396.94,-144.56 454.14,-133.33"/>
<polygon fill="#63b8ff" stroke="#63b8ff" points="454.51,-136.83 463.65,-131.46 453.16,-129.96 454.51,-136.83"/>
</a>
</g>
</g>
<!-- Node13 -->
<g id="Node000013" class="node">
<title>Node13</title>
<g id="a_Node000013"><a xlink:href="_program_variable_8h.html" target="_top" xlink:title=" ">
<polygon fill="white" stroke="#666666" points="317.5,-132 222,-132 222,-112 317.5,-112 317.5,-132"/>
<text text-anchor="middle" x="269.75" y="-118.5" font-family="Helvetica,sans-Serif" font-size="10.00">ProgramVariable.h</text>
</a>
</g>
</g>
<!-- Node8&#45;&gt;Node13 -->
<g id="edge22_Node000008_Node000013" class="edge">
<title>Node8&#45;&gt;Node13</title>
<g id="a_edge22_Node000008_Node000013"><a xlink:title=" ">
<path fill="none" stroke="#63b8ff" d="M238.37,-167.59C243.44,-160.39 250.59,-150.23 256.78,-141.43"/>
<polygon fill="#63b8ff" stroke="#63b8ff" points="259.44,-143.73 262.34,-133.54 253.72,-139.7 259.44,-143.73"/>
</a>
</g>
</g>
<!-- Node14 -->
<g id="Node000014" class="node">
<title>Node14</title>
<g id="a_Node000014"><a xlink:href="_lexer_8h.html" target="_top" xlink:title=" ">
<polygon fill="white" stroke="#666666" points="442.88,-132 394.62,-132 394.62,-112 442.88,-112 442.88,-132"/>
<text text-anchor="middle" x="418.75" y="-118.5" font-family="Helvetica,sans-Serif" font-size="10.00">Lexer.h</text>
</a>
</g>
</g>
<!-- Node8&#45;&gt;Node14 -->
<g id="edge27_Node000008_Node000014" class="edge">
<title>Node8&#45;&gt;Node14</title>
<g id="a_edge27_Node000008_Node000014"><a xlink:title=" ">
<path fill="none" stroke="#63b8ff" d="M261.38,-168.44C294.56,-158.86 348.28,-143.35 383.57,-133.16"/>
<polygon fill="#63b8ff" stroke="#63b8ff" points="384.23,-136.61 392.87,-130.47 382.29,-129.89 384.23,-136.61"/>
</a>
</g>
</g>
<!-- Node10&#45;&gt;Node7 -->
<g id="edge17_Node000010_Node000007" class="edge">
<title>Node10&#45;&gt;Node7</title>
<g id="a_edge17_Node000010_Node000007"><a xlink:title=" ">
<path fill="none" stroke="#63b8ff" d="M503.69,-111.95C498.68,-98.31 487.59,-72.36 470.75,-56 454.9,-40.59 432.7,-29.23 414.7,-21.77"/>
<polygon fill="#63b8ff" stroke="#63b8ff" points="416.13,-18.57 405.54,-18.19 413.58,-25.09 416.13,-18.57"/>
</a>
</g>
</g>
<!-- Node10&#45;&gt;Node9 -->
<g id="edge16_Node000010_Node000009" class="edge">
<title>Node10&#45;&gt;Node9</title>
<g id="a_edge16_Node000010_Node000009"><a xlink:title=" ">
<path fill="none" stroke="#63b8ff" d="M548.14,-112.77C568.59,-106.39 591.46,-95.25 603.75,-76 612.57,-62.18 607.3,-43.69 600.85,-29.96"/>
<polygon fill="#63b8ff" stroke="#63b8ff" points="604.14,-28.7 596.38,-21.49 597.95,-31.97 604.14,-28.7"/>
</a>
</g>
</g>
<!-- Node11 -->
<g id="Node000011" class="node">
<title>Node11</title>
<g id="a_Node000011"><a xlink:href="_utils_8h.html" target="_top" xlink:title=" ">
<polygon fill="white" stroke="#666666" points="562,-76 517.5,-76 517.5,-56 562,-56 562,-76"/>
<text text-anchor="middle" x="539.75" y="-62.5" font-family="Helvetica,sans-Serif" font-size="10.00">Utils.h</text>
</a>
</g>
</g>
<!-- Node10&#45;&gt;Node11 -->
<g id="edge18_Node000010_Node000011" class="edge">
<title>Node10&#45;&gt;Node11</title>
<g id="a_edge18_Node000010_Node000011"><a xlink:title=" ">
<path fill="none" stroke="#63b8ff" d="M512.5,-111.59C516.8,-104.55 522.84,-94.67 528.14,-86"/>
<polygon fill="#63b8ff" stroke="#63b8ff" points="531.05,-87.95 533.28,-77.59 525.08,-84.3 531.05,-87.95"/>
</a>
</g>
</g>
<!-- Node11&#45;&gt;Node7 -->
<g id="edge20_Node000011_Node000007" class="edge">
<title>Node11&#45;&gt;Node7</title>
<g id="a_edge20_Node000011_Node000007"><a xlink:title=" ">
<path fill="none" stroke="#63b8ff" d="M517.07,-57.15C490.09,-47.81 444.93,-32.18 414.75,-21.73"/>
<polygon fill="#63b8ff" stroke="#63b8ff" points="416,-18.46 405.41,-18.5 413.71,-25.08 416,-18.46"/>
</a>
</g>
</g>
<!-- Node11&#45;&gt;Node9 -->
<g id="edge19_Node000011_Node000009" class="edge">
<title>Node11&#45;&gt;Node9</title>
<g id="a_edge19_Node000011_Node000009"><a xlink:title=" ">
<path fill="none" stroke="#63b8ff" d="M548.46,-55.59C555.34,-48.16 565.14,-37.58 573.47,-28.58"/>
<polygon fill="#63b8ff" stroke="#63b8ff" points="575.89,-31.12 580.11,-21.41 570.75,-26.37 575.89,-31.12"/>
</a>
</g>
</g>
<!-- Node12 -->
<g id="Node000012" class="node">
<title>Node12</title>
<g id="a_Node000012"><a xlink:title=" ">
<polygon fill="#e0e0e0" stroke="#999999" points="510.38,-20 459.12,-20 459.12,0 510.38,0 510.38,-20"/>
<text text-anchor="middle" x="484.75" y="-6.5" font-family="Helvetica,sans-Serif" font-size="10.00">sstream</text>
</a>
</g>
</g>
<!-- Node11&#45;&gt;Node12 -->
<g id="edge21_Node000011_Node000012" class="edge">
<title>Node11&#45;&gt;Node12</title>
<g id="a_edge21_Node000011_Node000012"><a xlink:title=" ">
<path fill="none" stroke="#63b8ff" d="M530.17,-55.59C522.52,-48.08 511.59,-37.35 502.37,-28.3"/>
<polygon fill="#63b8ff" stroke="#63b8ff" points="504.89,-25.87 495.3,-21.36 499.98,-30.86 504.89,-25.87"/>
</a>
</g>
</g>
<!-- Node13&#45;&gt;Node3 -->
<g id="edge26_Node000013_Node000003" class="edge">
<title>Node13&#45;&gt;Node3</title>
<g id="a_edge26_Node000013_Node000003"><a xlink:title=" ">
<path fill="none" stroke="#63b8ff" d="M251.11,-111.59C234.72,-103.32 210.59,-91.14 191.69,-81.6"/>
<polygon fill="#63b8ff" stroke="#63b8ff" points="193.39,-78.54 182.88,-77.16 190.24,-84.79 193.39,-78.54"/>
</a>
</g>
</g>
<!-- Node13&#45;&gt;Node4 -->
<g id="edge24_Node000013_Node000004" class="edge">
<title>Node13&#45;&gt;Node4</title>
<g id="a_edge24_Node000013_Node000004"><a xlink:title=" ">
<path fill="none" stroke="#63b8ff" d="M264.35,-111.88C255.46,-97.67 236.32,-70.39 212.75,-56 201.11,-48.9 126.13,-31.51 76.69,-20.54"/>
<polygon fill="#63b8ff" stroke="#63b8ff" points="77.64,-17.17 67.12,-18.43 76.13,-24 77.64,-17.17"/>
</a>
</g>
</g>
<!-- Node13&#45;&gt;Node7 -->
<g id="edge23_Node000013_Node000007" class="edge">
<title>Node13&#45;&gt;Node7</title>
<g id="a_edge23_Node000013_Node000007"><a xlink:title=" ">
<path fill="none" stroke="#63b8ff" d="M270.95,-111.93C273.17,-98.28 279.14,-72.31 293.75,-56 309.44,-38.49 333.5,-26.95 352.81,-19.95"/>
<polygon fill="#63b8ff" stroke="#63b8ff" points="353.73,-23.33 362.08,-16.82 351.49,-16.7 353.73,-23.33"/>
</a>
</g>
</g>
<!-- Node13&#45;&gt;Node12 -->
<g id="edge25_Node000013_Node000012" class="edge">
<title>Node13&#45;&gt;Node12</title>
<g id="a_edge25_Node000013_Node000012"><a xlink:title=" ">
<path fill="none" stroke="#63b8ff" d="M288.08,-111.62C325.61,-92.42 411.41,-48.52 456.26,-25.58"/>
<polygon fill="#63b8ff" stroke="#63b8ff" points="457.81,-28.71 465.12,-21.04 454.62,-22.48 457.81,-28.71"/>
</a>
</g>
</g>
<!-- Node14&#45;&gt;Node7 -->
<g id="edge29_Node000014_Node000007" class="edge">
<title>Node14&#45;&gt;Node7</title>
<g id="a_edge29_Node000014_Node000007"><a xlink:title=" ">
<path fill="none" stroke="#63b8ff" d="M415.28,-111.75C411.93,-102.68 406.78,-88.46 402.75,-76 397.92,-61.08 392.97,-44.06 389.33,-31.18"/>
<polygon fill="#63b8ff" stroke="#63b8ff" points="392.76,-30.46 386.7,-21.77 386.02,-32.34 392.76,-30.46"/>
</a>
</g>
</g>
<!-- Node14&#45;&gt;Node9 -->
<g id="edge28_Node000014_Node000009" class="edge">
<title>Node14&#45;&gt;Node9</title>
<g id="a_edge28_Node000014_Node000009"><a xlink:title=" ">
<path fill="none" stroke="#63b8ff" d="M443.29,-115.1C483.92,-105.14 561.62,-85.16 570.75,-76 582.43,-64.28 587.01,-45.79 588.77,-31.53"/>
<polygon fill="#63b8ff" stroke="#63b8ff" points="592.23,-32.12 589.57,-21.86 585.25,-31.54 592.23,-32.12"/>
</a>
</g>
</g>
<!-- Node15 -->
<g id="Node000015" class="node">
<title>Node15</title>
<g id="a_Node000015"><a xlink:href="_token_8h.html" target="_top" xlink:title=" ">
<polygon fill="white" stroke="#666666" points="462,-76 411.5,-76 411.5,-56 462,-56 462,-76"/>
<text text-anchor="middle" x="436.75" y="-62.5" font-family="Helvetica,sans-Serif" font-size="10.00">Token.h</text>
</a>
</g>
</g>
<!-- Node14&#45;&gt;Node15 -->
<g id="edge30_Node000014_Node000015" class="edge">
<title>Node14&#45;&gt;Node15</title>
<g id="a_edge30_Node000014_Node000015"><a xlink:title=" ">
<path fill="none" stroke="#63b8ff" d="M421.89,-111.59C424.13,-104.86 427.24,-95.53 430.03,-87.15"/>
<polygon fill="#63b8ff" stroke="#63b8ff" points="433.33,-88.33 433.17,-77.73 426.69,-86.11 433.33,-88.33"/>
</a>
</g>
</g>
<!-- Node15&#45;&gt;Node6 -->
<g id="edge33_Node000015_Node000006" class="edge">
<title>Node15&#45;&gt;Node6</title>
<g id="a_edge33_Node000015_Node000006"><a xlink:title=" ">
<path fill="none" stroke="#63b8ff" d="M411.25,-60.85C351.66,-51.16 203.35,-27.04 137.34,-16.3"/>
<polygon fill="#63b8ff" stroke="#63b8ff" points="138.3,-12.91 127.87,-14.76 137.18,-19.82 138.3,-12.91"/>
</a>
</g>
</g>
<!-- Node15&#45;&gt;Node7 -->
<g id="edge32_Node000015_Node000007" class="edge">
<title>Node15&#45;&gt;Node7</title>
<g id="a_edge32_Node000015_Node000007"><a xlink:title=" ">
<path fill="none" stroke="#63b8ff" d="M427.52,-55.59C420.15,-48.08 409.62,-37.35 400.73,-28.3"/>
<polygon fill="#63b8ff" stroke="#63b8ff" points="403.44,-26.06 393.94,-21.38 398.44,-30.97 403.44,-26.06"/>
</a>
</g>
</g>
<!-- Node15&#45;&gt;Node9 -->
<g id="edge31_Node000015_Node000009" class="edge">
<title>Node15&#45;&gt;Node9</title>
<g id="a_edge31_Node000015_Node000009"><a xlink:title=" ">
<path fill="none" stroke="#63b8ff" d="M462.36,-55.96C487.74,-47 526.81,-33.21 554.99,-23.27"/>
<polygon fill="#63b8ff" stroke="#63b8ff" points="555.88,-26.67 564.15,-20.04 553.55,-20.06 555.88,-26.67"/>
</a>
</g>
</g>
</g>
</svg>
