<?xml version="1.0" encoding="UTF-8" standalone="no"?>
<!DOCTYPE svg PUBLIC "-//W3C//DTD SVG 1.1//EN"
 "http://www.w3.org/Graphics/SVG/1.1/DTD/svg11.dtd">
<!-- Generated by graphviz version 12.2.1 (20241206.2353)
 -->
<!-- Title: C:/Users/emilly/Documents/Lucca/Projetos/Cpp/NikiScript/src/Command.cpp Pages: 1 -->
<svg width="415pt" height="220pt"
 viewBox="0.00 0.00 414.88 220.00" xmlns="http://www.w3.org/2000/svg" xmlns:xlink="http://www.w3.org/1999/xlink">
<g id="graph0" class="graph" transform="scale(1 1) rotate(0) translate(4 216)">
<title>C:/Users/emilly/Documents/Lucca/Projetos/Cpp/NikiScript/src/Command.cpp</title>
<!-- Node1 -->
<g id="Node000001" class="node">
<title>Node1</title>
<g id="a_Node000001"><a xlink:title=" ">
<polygon fill="#999999" stroke="#666666" points="371.25,-212 220.25,-212 220.25,-168 371.25,-168 371.25,-212"/>
<text text-anchor="start" x="228.25" y="-198.5" font-family="Helvetica,sans-Serif" font-size="10.00">C:/Users/emilly/Documents</text>
<text text-anchor="start" x="228.25" y="-186.5" font-family="Helvetica,sans-Serif" font-size="10.00">/Lucca/Projetos/Cpp/NikiScript</text>
<text text-anchor="middle" x="295.75" y="-174.5" font-family="Helvetica,sans-Serif" font-size="10.00">/src/Command.cpp</text>
</a>
</g>
</g>
<!-- Node2 -->
<g id="Node000002" class="node">
<title>Node2</title>
<g id="a_Node000002"><a xlink:href="_command_8h.html" target="_top" xlink:title=" ">
<polygon fill="white" stroke="#666666" points="170.38,-132 101.12,-132 101.12,-112 170.38,-112 170.38,-132"/>
<text text-anchor="middle" x="135.75" y="-118.5" font-family="Helvetica,sans-Serif" font-size="10.00">Command.h</text>
</a>
</g>
</g>
<!-- Node1&#45;&gt;Node2 -->
<g id="edge1_Node000001_Node000002" class="edge">
<title>Node1&#45;&gt;Node2</title>
<g id="a_edge1_Node000001_Node000002"><a xlink:title=" ">
<path fill="none" stroke="#63b8ff" d="M243.8,-167.57C219.25,-157.44 190.66,-145.65 169.05,-136.74"/>
<polygon fill="#63b8ff" stroke="#63b8ff" points="170.43,-133.52 159.85,-132.94 167.76,-139.99 170.43,-133.52"/>
</a>
</g>
</g>
<!-- Node6 -->
<g id="Node000006" class="node">
<title>Node6</title>
<g id="a_Node000006"><a xlink:title=" ">
<polygon fill="#e0e0e0" stroke="#999999" points="354.38,-20 303.12,-20 303.12,0 354.38,0 354.38,-20"/>
<text text-anchor="middle" x="328.75" y="-6.5" font-family="Helvetica,sans-Serif" font-size="10.00">sstream</text>
</a>
</g>
</g>
<!-- Node1&#45;&gt;Node6 -->
<g id="edge5_Node000001_Node000006" class="edge">
<title>Node1&#45;&gt;Node6</title>
<g id="a_edge5_Node000001_Node000006"><a xlink:title=" ">
<path fill="none" stroke="#63b8ff" d="M299.73,-167.53C306.15,-132.93 318.68,-65.29 324.97,-31.39"/>
<polygon fill="#63b8ff" stroke="#63b8ff" points="328.39,-32.15 326.77,-21.68 321.51,-30.87 328.39,-32.15"/>
</a>
</g>
</g>
<!-- Node7 -->
<g id="Node000007" class="node">
<title>Node7</title>
<g id="a_Node000007"><a xlink:title=" ">
<polygon fill="#e0e0e0" stroke="#999999" points="406.88,-132 358.62,-132 358.62,-112 406.88,-112 406.88,-132"/>
<text text-anchor="middle" x="382.75" y="-118.5" font-family="Helvetica,sans-Serif" font-size="10.00">cassert</text>
</a>
</g>
</g>
<!-- Node1&#45;&gt;Node7 -->
<g id="edge6_Node000001_Node000007" class="edge">
<title>Node1&#45;&gt;Node7</title>
<g id="a_edge6_Node000001_Node000007"><a xlink:title=" ">
<path fill="none" stroke="#63b8ff" d="M323.76,-167.75C335.9,-158.54 349.89,-147.93 361.2,-139.35"/>
<polygon fill="#63b8ff" stroke="#63b8ff" points="363.28,-142.17 369.13,-133.33 359.05,-136.59 363.28,-142.17"/>
</a>
</g>
</g>
<!-- Node8 -->
<g id="Node000008" class="node">
<title>Node8</title>
<g id="a_Node000008"><a xlink:href="_print_callback_8h.html" target="_top" xlink:title=" ">
<polygon fill="white" stroke="#666666" points="287.12,-132 204.38,-132 204.38,-112 287.12,-112 287.12,-132"/>
<text text-anchor="middle" x="245.75" y="-118.5" font-family="Helvetica,sans-Serif" font-size="10.00">PrintCallback.h</text>
</a>
</g>
</g>
<!-- Node1&#45;&gt;Node8 -->
<g id="edge7_Node000001_Node000008" class="edge">
<title>Node1&#45;&gt;Node8</title>
<g id="a_edge7_Node000001_Node000008"><a xlink:title=" ">
<path fill="none" stroke="#63b8ff" d="M279.65,-167.75C273.24,-159.29 265.93,-149.64 259.74,-141.47"/>
<polygon fill="#63b8ff" stroke="#63b8ff" points="262.63,-139.48 253.8,-133.63 257.05,-143.71 262.63,-139.48"/>
</a>
</g>
</g>
<!-- Node3 -->
<g id="Node000003" class="node">
<title>Node3</title>
<g id="a_Node000003"><a xlink:title=" ">
<polygon fill="#e0e0e0" stroke="#999999" points="126.25,-76 83.25,-76 83.25,-56 126.25,-56 126.25,-76"/>
<text text-anchor="middle" x="104.75" y="-62.5" font-family="Helvetica,sans-Serif" font-size="10.00">vector</text>
</a>
</g>
</g>
<!-- Node2&#45;&gt;Node3 -->
<g id="edge2_Node000002_Node000003" class="edge">
<title>Node2&#45;&gt;Node3</title>
<g id="a_edge2_Node000002_Node000003"><a xlink:title=" ">
<path fill="none" stroke="#63b8ff" d="M130.35,-111.59C126.31,-104.55 120.63,-94.67 115.66,-86"/>
<polygon fill="#63b8ff" stroke="#63b8ff" points="118.86,-84.54 110.84,-77.61 112.78,-88.03 118.86,-84.54"/>
</a>
</g>
</g>
<!-- Node4 -->
<g id="Node000004" class="node">
<title>Node4</title>
<g id="a_Node000004"><a xlink:title=" ">
<polygon fill="#e0e0e0" stroke="#999999" points="65.5,-76 0,-76 0,-56 65.5,-56 65.5,-76"/>
<text text-anchor="middle" x="32.75" y="-62.5" font-family="Helvetica,sans-Serif" font-size="10.00">string_view</text>
</a>
</g>
</g>
<!-- Node2&#45;&gt;Node4 -->
<g id="edge3_Node000002_Node000004" class="edge">
<title>Node2&#45;&gt;Node4</title>
<g id="a_edge3_Node000002_Node000004"><a xlink:title=" ">
<path fill="none" stroke="#63b8ff" d="M117.81,-111.59C102.1,-103.36 79.02,-91.26 60.86,-81.74"/>
<polygon fill="#63b8ff" stroke="#63b8ff" points="62.65,-78.73 52.17,-77.18 59.4,-84.93 62.65,-78.73"/>
</a>
</g>
</g>
<!-- Node5 -->
<g id="Node000005" class="node">
<title>Node5</title>
<g id="a_Node000005"><a xlink:title=" ">
<polygon fill="#e0e0e0" stroke="#999999" points="212.75,-20 172.75,-20 172.75,0 212.75,0 212.75,-20"/>
<text text-anchor="middle" x="192.75" y="-6.5" font-family="Helvetica,sans-Serif" font-size="10.00">string</text>
</a>
</g>
</g>
<!-- Node2&#45;&gt;Node5 -->
<g id="edge4_Node000002_Node000005" class="edge">
<title>Node2&#45;&gt;Node5</title>
<g id="a_edge4_Node000002_Node000005"><a xlink:title=" ">
<path fill="none" stroke="#63b8ff" d="M140.61,-111.62C149.91,-93.68 170.38,-54.17 182.73,-30.35"/>
<polygon fill="#63b8ff" stroke="#63b8ff" points="185.71,-32.19 187.21,-21.7 179.5,-28.97 185.71,-32.19"/>
</a>
</g>
</g>
<!-- Node8&#45;&gt;Node5 -->
<g id="edge9_Node000008_Node000005" class="edge">
<title>Node8&#45;&gt;Node5</title>
<g id="a_edge9_Node000008_Node000005"><a xlink:title=" ">
<path fill="none" stroke="#63b8ff" d="M241.23,-111.62C232.63,-93.76 213.72,-54.53 202.23,-30.67"/>
<polygon fill="#63b8ff" stroke="#63b8ff" points="205.41,-29.21 197.91,-21.72 199.1,-32.25 205.41,-29.21"/>
</a>
</g>
</g>
<!-- Node9 -->
<g id="Node000009" class="node">
<title>Node9</title>
<g id="a_Node000009"><a xlink:title=" ">
<polygon fill="#e0e0e0" stroke="#999999" points="282.88,-20 234.62,-20 234.62,0 282.88,0 282.88,-20"/>
<text text-anchor="middle" x="258.75" y="-6.5" font-family="Helvetica,sans-Serif" font-size="10.00">stdint.h</text>
</a>
</g>
</g>
<!-- Node8&#45;&gt;Node9 -->
<g id="edge8_Node000008_Node000009" class="edge">
<title>Node8&#45;&gt;Node9</title>
<g id="a_edge8_Node000008_Node000009"><a xlink:title=" ">
<path fill="none" stroke="#63b8ff" d="M245.93,-111.71C246.25,-99.06 247.18,-75.73 249.75,-56 250.8,-47.91 252.46,-39.08 254.06,-31.41"/>
<polygon fill="#63b8ff" stroke="#63b8ff" points="257.46,-32.24 256.19,-21.72 250.62,-30.74 257.46,-32.24"/>
</a>
</g>
</g>
<!-- Node10 -->
<g id="Node000010" class="node">
<title>Node10</title>
<g id="a_Node000010"><a xlink:href="_utils_8h.html" target="_top" xlink:title=" ">
<polygon fill="white" stroke="#666666" points="303,-76 258.5,-76 258.5,-56 303,-56 303,-76"/>
<text text-anchor="middle" x="280.75" y="-62.5" font-family="Helvetica,sans-Serif" font-size="10.00">Utils.h</text>
</a>
</g>
</g>
<!-- Node8&#45;&gt;Node10 -->
<g id="edge10_Node000008_Node000010" class="edge">
<title>Node8&#45;&gt;Node10</title>
<g id="a_edge10_Node000008_Node000010"><a xlink:title=" ">
<path fill="none" stroke="#63b8ff" d="M251.85,-111.59C256.46,-104.47 262.96,-94.45 268.62,-85.72"/>
<polygon fill="#63b8ff" stroke="#63b8ff" points="271.4,-87.86 273.9,-77.57 265.52,-84.06 271.4,-87.86"/>
</a>
</g>
</g>
<!-- Node10&#45;&gt;Node5 -->
<g id="edge12_Node000010_Node000005" class="edge">
<title>Node10&#45;&gt;Node5</title>
<g id="a_edge12_Node000010_Node000005"><a xlink:title=" ">
<path fill="none" stroke="#63b8ff" d="M265.42,-55.59C252.25,-47.51 233.02,-35.71 217.64,-26.27"/>
<polygon fill="#63b8ff" stroke="#63b8ff" points="219.84,-23.52 209.49,-21.27 216.18,-29.48 219.84,-23.52"/>
</a>
</g>
</g>
<!-- Node10&#45;&gt;Node6 -->
<g id="edge13_Node000010_Node000006" class="edge">
<title>Node10&#45;&gt;Node6</title>
<g id="a_edge13_Node000010_Node000006"><a xlink:title=" ">
<path fill="none" stroke="#63b8ff" d="M289.11,-55.59C295.65,-48.24 304.93,-37.8 312.87,-28.87"/>
<polygon fill="#63b8ff" stroke="#63b8ff" points="315.45,-31.23 319.48,-21.43 310.22,-26.58 315.45,-31.23"/>
</a>
</g>
</g>
<!-- Node10&#45;&gt;Node9 -->
<g id="edge11_Node000010_Node000009" class="edge">
<title>Node10&#45;&gt;Node9</title>
<g id="a_edge11_Node000010_Node000009"><a xlink:title=" ">
<path fill="none" stroke="#63b8ff" d="M276.92,-55.59C274.14,-48.78 270.29,-39.32 266.84,-30.86"/>
<polygon fill="#63b8ff" stroke="#63b8ff" points="270.12,-29.64 263.11,-21.7 263.64,-32.28 270.12,-29.64"/>
</a>
</g>
</g>
</g>
</svg>
