<?xml version="1.0" encoding="UTF-8" standalone="no"?>
<!DOCTYPE svg PUBLIC "-//W3C//DTD SVG 1.1//EN"
 "http://www.w3.org/Graphics/SVG/1.1/DTD/svg11.dtd">
<!-- Generated by graphviz version 12.2.1 (20241206.2353)
 -->
<!-- Title: C:/Users/emilly/Documents/Lucca/Projetos/Cpp/NikiScript/include/NikiScript/CommandHandler.h Pages: 1 -->
<svg width="296pt" height="164pt"
 viewBox="0.00 0.00 295.50 164.00" xmlns="http://www.w3.org/2000/svg" xmlns:xlink="http://www.w3.org/1999/xlink">
<g id="graph0" class="graph" transform="scale(1 1) rotate(0) translate(4 160)">
<title>C:/Users/emilly/Documents/Lucca/Projetos/Cpp/NikiScript/include/NikiScript/CommandHandler.h</title>
<!-- Node1 -->
<g id="Node000001" class="node">
<title>Node1</title>
<g id="a_Node000001"><a xlink:title=" ">
<polygon fill="#999999" stroke="#666666" points="234.12,-156 48.62,-156 48.62,-112 234.12,-112 234.12,-156"/>
<text text-anchor="start" x="56.62" y="-142.5" font-family="Helvetica,sans-Serif" font-size="10.00">C:/Users/emilly/Documents</text>
<text text-anchor="start" x="56.62" y="-130.5" font-family="Helvetica,sans-Serif" font-size="10.00">/Lucca/Projetos/Cpp/NikiScript</text>
<text text-anchor="middle" x="141.38" y="-118.5" font-family="Helvetica,sans-Serif" font-size="10.00">/include/NikiScript/CommandHandler.h</text>
</a>
</g>
</g>
<!-- Node2 -->
<g id="Node000002" class="node">
<title>Node2</title>
<g id="a_Node000002"><a xlink:title=" ">
<polygon fill="#e0e0e0" stroke="#999999" points="82.75,-76 0,-76 0,-56 82.75,-56 82.75,-76"/>
<text text-anchor="middle" x="41.38" y="-62.5" font-family="Helvetica,sans-Serif" font-size="10.00">unordered_map</text>
</a>
</g>
</g>
<!-- Node1&#45;&gt;Node2 -->
<g id="edge1_Node000001_Node000002" class="edge">
<title>Node1&#45;&gt;Node2</title>
<g id="a_edge1_Node000001_Node000002"><a xlink:title=" ">
<path fill="none" stroke="#63b8ff" d="M108.91,-111.57C94.55,-102.09 77.98,-91.16 64.84,-82.49"/>
<polygon fill="#63b8ff" stroke="#63b8ff" points="67.1,-79.79 56.83,-77.2 63.25,-85.63 67.1,-79.79"/>
</a>
</g>
</g>
<!-- Node3 -->
<g id="Node000003" class="node">
<title>Node3</title>
<g id="a_Node000003"><a xlink:title=" ">
<polygon fill="#e0e0e0" stroke="#999999" points="99.38,-20 59.38,-20 59.38,0 99.38,0 99.38,-20"/>
<text text-anchor="middle" x="79.38" y="-6.5" font-family="Helvetica,sans-Serif" font-size="10.00">string</text>
</a>
</g>
</g>
<!-- Node1&#45;&gt;Node3 -->
<g id="edge2_Node000001_Node000003" class="edge">
<title>Node1&#45;&gt;Node3</title>
<g id="a_edge2_Node000001_Node000003"><a xlink:title=" ">
<path fill="none" stroke="#63b8ff" d="M130.58,-111.75C118.93,-88.84 100.56,-52.69 89.28,-30.49"/>
<polygon fill="#63b8ff" stroke="#63b8ff" points="92.44,-28.98 84.79,-21.65 86.2,-32.15 92.44,-28.98"/>
</a>
</g>
</g>
<!-- Node4 -->
<g id="Node000004" class="node">
<title>Node4</title>
<g id="a_Node000004"><a xlink:href="_command_8h.html" target="_top" xlink:title=" ">
<polygon fill="white" stroke="#666666" points="208,-76 138.75,-76 138.75,-56 208,-56 208,-76"/>
<text text-anchor="middle" x="173.38" y="-62.5" font-family="Helvetica,sans-Serif" font-size="10.00">Command.h</text>
</a>
</g>
</g>
<!-- Node1&#45;&gt;Node4 -->
<g id="edge3_Node000001_Node000004" class="edge">
<title>Node1&#45;&gt;Node4</title>
<g id="a_edge3_Node000001_Node000004"><a xlink:title=" ">
<path fill="none" stroke="#63b8ff" d="M151.68,-111.75C155.6,-103.66 160.05,-94.48 163.9,-86.55"/>
<polygon fill="#63b8ff" stroke="#63b8ff" points="166.93,-88.31 168.15,-77.78 160.64,-85.25 166.93,-88.31"/>
</a>
</g>
</g>
<!-- Node7 -->
<g id="Node000007" class="node">
<title>Node7</title>
<g id="a_Node000007"><a xlink:href="_d_l_l_8h.html" target="_top" xlink:title=" ">
<polygon fill="white" stroke="#666666" points="287.5,-20 245.25,-20 245.25,0 287.5,0 287.5,-20"/>
<text text-anchor="middle" x="266.38" y="-6.5" font-family="Helvetica,sans-Serif" font-size="10.00">DLL.h</text>
</a>
</g>
</g>
<!-- Node1&#45;&gt;Node7 -->
<g id="edge8_Node000001_Node000007" class="edge">
<title>Node1&#45;&gt;Node7</title>
<g id="a_edge8_Node000001_Node000007"><a xlink:title=" ">
<path fill="none" stroke="#63b8ff" d="M174.05,-111.57C188.12,-101.59 204.3,-89.05 217.38,-76 231.57,-61.84 245.07,-43.42 254.3,-29.8"/>
<polygon fill="#63b8ff" stroke="#63b8ff" points="257.03,-32.01 259.63,-21.74 251.19,-28.16 257.03,-32.01"/>
</a>
</g>
</g>
<!-- Node4&#45;&gt;Node3 -->
<g id="edge5_Node000004_Node000003" class="edge">
<title>Node4&#45;&gt;Node3</title>
<g id="a_edge5_Node000004_Node000003"><a xlink:title=" ">
<path fill="none" stroke="#63b8ff" d="M157,-55.59C142.8,-47.44 121.99,-35.48 105.49,-26"/>
<polygon fill="#63b8ff" stroke="#63b8ff" points="107.6,-23.18 97.19,-21.23 104.12,-29.25 107.6,-23.18"/>
</a>
</g>
</g>
<!-- Node5 -->
<g id="Node000005" class="node">
<title>Node5</title>
<g id="a_Node000005"><a xlink:title=" ">
<polygon fill="#e0e0e0" stroke="#999999" points="160.88,-20 117.88,-20 117.88,0 160.88,0 160.88,-20"/>
<text text-anchor="middle" x="139.38" y="-6.5" font-family="Helvetica,sans-Serif" font-size="10.00">vector</text>
</a>
</g>
</g>
<!-- Node4&#45;&gt;Node5 -->
<g id="edge4_Node000004_Node000005" class="edge">
<title>Node4&#45;&gt;Node5</title>
<g id="a_edge4_Node000004_Node000005"><a xlink:title=" ">
<path fill="none" stroke="#63b8ff" d="M167.45,-55.59C163.02,-48.55 156.8,-38.67 151.34,-30"/>
<polygon fill="#63b8ff" stroke="#63b8ff" points="154.33,-28.18 146.04,-21.58 148.4,-31.91 154.33,-28.18"/>
</a>
</g>
</g>
<!-- Node6 -->
<g id="Node000006" class="node">
<title>Node6</title>
<g id="a_Node000006"><a xlink:title=" ">
<polygon fill="#e0e0e0" stroke="#999999" points="227.5,-20 179.25,-20 179.25,0 227.5,0 227.5,-20"/>
<text text-anchor="middle" x="203.38" y="-6.5" font-family="Helvetica,sans-Serif" font-size="10.00">stdint.h</text>
</a>
</g>
</g>
<!-- Node4&#45;&gt;Node6 -->
<g id="edge6_Node000004_Node000006" class="edge">
<title>Node4&#45;&gt;Node6</title>
<g id="a_edge6_Node000004_Node000006"><a xlink:title=" ">
<path fill="none" stroke="#63b8ff" d="M178.6,-55.59C182.47,-48.63 187.88,-38.89 192.66,-30.29"/>
<polygon fill="#63b8ff" stroke="#63b8ff" points="195.68,-32.06 197.47,-21.62 189.56,-28.66 195.68,-32.06"/>
</a>
</g>
</g>
<!-- Node4&#45;&gt;Node7 -->
<g id="edge7_Node000004_Node000007" class="edge">
<title>Node4&#45;&gt;Node7</title>
<g id="a_edge7_Node000004_Node000007"><a xlink:title=" ">
<path fill="none" stroke="#63b8ff" d="M189.57,-55.59C203.62,-47.44 224.21,-35.48 240.53,-26"/>
<polygon fill="#63b8ff" stroke="#63b8ff" points="241.85,-29.29 248.74,-21.24 238.33,-23.23 241.85,-29.29"/>
</a>
</g>
</g>
</g>
</svg>
