<?xml version="1.0" encoding="UTF-8" standalone="no"?>
<!DOCTYPE svg PUBLIC "-//W3C//DTD SVG 1.1//EN"
 "http://www.w3.org/Graphics/SVG/1.1/DTD/svg11.dtd">
<!-- Generated by graphviz version 12.2.1 (20241206.2353)
 -->
<!-- Title: C:/Users/emilly/Documents/Lucca/Projetos/Cpp/NikiScript/wrapper/CommandHandlerWrapper.cpp Pages: 1 -->
<svg width="885pt" height="276pt"
 viewBox="0.00 0.00 885.02 276.00" xmlns="http://www.w3.org/2000/svg" xmlns:xlink="http://www.w3.org/1999/xlink">
<g id="graph0" class="graph" transform="scale(1 1) rotate(0) translate(4 272)">
<title>C:/Users/emilly/Documents/Lucca/Projetos/Cpp/NikiScript/wrapper/CommandHandlerWrapper.cpp</title>
<!-- Node1 -->
<g id="Node000001" class="node">
<title>Node1</title>
<g id="a_Node000001"><a xlink:title=" ">
<polygon fill="#999999" stroke="#666666" points="272.38,-268 82.38,-268 82.38,-224 272.38,-224 272.38,-268"/>
<text text-anchor="start" x="90.38" y="-254.5" font-family="Helvetica,sans-Serif" font-size="10.00">C:/Users/emilly/Documents</text>
<text text-anchor="start" x="90.38" y="-242.5" font-family="Helvetica,sans-Serif" font-size="10.00">/Lucca/Projetos/Cpp/NikiScript</text>
<text text-anchor="middle" x="177.38" y="-230.5" font-family="Helvetica,sans-Serif" font-size="10.00">/wrapper/CommandHandlerWrapper.cpp</text>
</a>
</g>
</g>
<!-- Node2 -->
<g id="Node000002" class="node">
<title>Node2</title>
<g id="a_Node000002"><a xlink:href="_command_handler_wrapper_8h.html" target="_top" xlink:title=" ">
<polygon fill="white" stroke="#666666" points="141.88,-188 2.88,-188 2.88,-168 141.88,-168 141.88,-188"/>
<text text-anchor="middle" x="72.38" y="-174.5" font-family="Helvetica,sans-Serif" font-size="10.00">CommandHandlerWrapper.h</text>
</a>
</g>
</g>
<!-- Node1&#45;&gt;Node2 -->
<g id="edge1_Node000001_Node000002" class="edge">
<title>Node1&#45;&gt;Node2</title>
<g id="a_edge1_Node000001_Node000002"><a xlink:title=" ">
<path fill="none" stroke="#63b8ff" d="M143.29,-223.57C128.21,-214.09 110.81,-203.16 97.02,-194.49"/>
<polygon fill="#63b8ff" stroke="#63b8ff" points="98.89,-191.53 88.56,-189.17 95.17,-197.46 98.89,-191.53"/>
</a>
</g>
</g>
<!-- Node11 -->
<g id="Node000011" class="node">
<title>Node11</title>
<g id="a_Node000011"><a xlink:href="_base_wrapper_8h.html" target="_top" xlink:title=" ">
<polygon fill="white" stroke="#666666" points="218.76,-132 136.01,-132 136.01,-112 218.76,-112 218.76,-132"/>
<text text-anchor="middle" x="177.38" y="-118.5" font-family="Helvetica,sans-Serif" font-size="10.00">BaseWrapper.h</text>
</a>
</g>
</g>
<!-- Node1&#45;&gt;Node11 -->
<g id="edge13_Node000001_Node000011" class="edge">
<title>Node1&#45;&gt;Node11</title>
<g id="a_edge13_Node000001_Node000011"><a xlink:title=" ">
<path fill="none" stroke="#63b8ff" d="M177.38,-223.75C177.38,-201.26 177.38,-166.02 177.38,-143.73"/>
<polygon fill="#63b8ff" stroke="#63b8ff" points="180.88,-143.81 177.38,-133.81 173.88,-143.81 180.88,-143.81"/>
</a>
</g>
</g>
<!-- Node12 -->
<g id="Node000012" class="node">
<title>Node12</title>
<g id="a_Node000012"><a xlink:href="_context_8h.html" target="_top" xlink:title=" ">
<polygon fill="white" stroke="#666666" points="514.76,-188 456.01,-188 456.01,-168 514.76,-168 514.76,-188"/>
<text text-anchor="middle" x="485.38" y="-174.5" font-family="Helvetica,sans-Serif" font-size="10.00">Context.h</text>
</a>
</g>
</g>
<!-- Node1&#45;&gt;Node12 -->
<g id="edge18_Node000001_Node000012" class="edge">
<title>Node1&#45;&gt;Node12</title>
<g id="a_edge18_Node000001_Node000012"><a xlink:title=" ">
<path fill="none" stroke="#63b8ff" d="M272.73,-224.57C330.46,-212.2 401.13,-197.05 444.7,-187.72"/>
<polygon fill="#63b8ff" stroke="#63b8ff" points="445.18,-191.19 454.22,-185.68 443.71,-184.35 445.18,-191.19"/>
</a>
</g>
</g>
<!-- Node3 -->
<g id="Node000003" class="node">
<title>Node3</title>
<g id="a_Node000003"><a xlink:href="_d_l_l_export_8h.html" target="_top" xlink:title=" ">
<polygon fill="white" stroke="#666666" points="100.76,-76 30.01,-76 30.01,-56 100.76,-56 100.76,-76"/>
<text text-anchor="middle" x="65.38" y="-62.5" font-family="Helvetica,sans-Serif" font-size="10.00">DLLExport.h</text>
</a>
</g>
</g>
<!-- Node2&#45;&gt;Node3 -->
<g id="edge2_Node000002_Node000003" class="edge">
<title>Node2&#45;&gt;Node3</title>
<g id="a_edge2_Node000002_Node000003"><a xlink:title=" ">
<path fill="none" stroke="#63b8ff" d="M46.53,-167.56C30.99,-160.39 12.51,-148.85 3.38,-132 -7.41,-112.08 14,-93.85 34.55,-81.79"/>
<polygon fill="#63b8ff" stroke="#63b8ff" points="36,-84.99 43.09,-77.12 32.64,-78.85 36,-84.99"/>
</a>
</g>
</g>
<!-- Node4 -->
<g id="Node000004" class="node">
<title>Node4</title>
<g id="a_Node000004"><a xlink:href="_command_handler_8h.html" target="_top" xlink:title=" ">
<polygon fill="white" stroke="#666666" points="377.88,-132 274.88,-132 274.88,-112 377.88,-112 377.88,-132"/>
<text text-anchor="middle" x="326.38" y="-118.5" font-family="Helvetica,sans-Serif" font-size="10.00">CommandHandler.h</text>
</a>
</g>
</g>
<!-- Node2&#45;&gt;Node4 -->
<g id="edge3_Node000002_Node000004" class="edge">
<title>Node2&#45;&gt;Node4</title>
<g id="a_edge3_Node000002_Node000004"><a xlink:title=" ">
<path fill="none" stroke="#63b8ff" d="M116.92,-167.53C159.77,-158.42 224.68,-144.62 270.88,-134.8"/>
<polygon fill="#63b8ff" stroke="#63b8ff" points="271.36,-138.27 280.42,-132.77 269.91,-131.43 271.36,-138.27"/>
</a>
</g>
</g>
<!-- Node10 -->
<g id="Node000010" class="node">
<title>Node10</title>
<g id="a_Node000010"><a xlink:href="_command_wrapper_8h.html" target="_top" xlink:title=" ">
<polygon fill="white" stroke="#666666" points="118.01,-132 12.76,-132 12.76,-112 118.01,-112 118.01,-132"/>
<text text-anchor="middle" x="65.38" y="-118.5" font-family="Helvetica,sans-Serif" font-size="10.00">CommandWrapper.h</text>
</a>
</g>
</g>
<!-- Node2&#45;&gt;Node10 -->
<g id="edge10_Node000002_Node000010" class="edge">
<title>Node2&#45;&gt;Node10</title>
<g id="a_edge10_Node000002_Node000010"><a xlink:title=" ">
<path fill="none" stroke="#63b8ff" d="M71.16,-167.59C70.3,-160.93 69.11,-151.75 68.03,-143.44"/>
<polygon fill="#63b8ff" stroke="#63b8ff" points="71.54,-143.27 66.78,-133.8 64.6,-144.17 71.54,-143.27"/>
</a>
</g>
</g>
<!-- Node5 -->
<g id="Node000005" class="node">
<title>Node5</title>
<g id="a_Node000005"><a xlink:title=" ">
<polygon fill="#e0e0e0" stroke="#999999" points="488.76,-76 406.01,-76 406.01,-56 488.76,-56 488.76,-76"/>
<text text-anchor="middle" x="447.38" y="-62.5" font-family="Helvetica,sans-Serif" font-size="10.00">unordered_map</text>
</a>
</g>
</g>
<!-- Node4&#45;&gt;Node5 -->
<g id="edge4_Node000004_Node000005" class="edge">
<title>Node4&#45;&gt;Node5</title>
<g id="a_edge4_Node000004_Node000005"><a xlink:title=" ">
<path fill="none" stroke="#63b8ff" d="M347.46,-111.59C366.34,-103.17 394.3,-90.69 415.84,-81.07"/>
<polygon fill="#63b8ff" stroke="#63b8ff" points="417.05,-84.37 424.76,-77.1 414.2,-77.98 417.05,-84.37"/>
</a>
</g>
</g>
<!-- Node6 -->
<g id="Node000006" class="node">
<title>Node6</title>
<g id="a_Node000006"><a xlink:title=" ">
<polygon fill="#e0e0e0" stroke="#999999" points="536.38,-20 496.38,-20 496.38,0 536.38,0 536.38,-20"/>
<text text-anchor="middle" x="516.38" y="-6.5" font-family="Helvetica,sans-Serif" font-size="10.00">string</text>
</a>
</g>
</g>
<!-- Node4&#45;&gt;Node6 -->
<g id="edge5_Node000004_Node000006" class="edge">
<title>Node4&#45;&gt;Node6</title>
<g id="a_edge5_Node000004_Node000006"><a xlink:title=" ">
<path fill="none" stroke="#63b8ff" d="M308.37,-111.57C286.61,-98.95 254.82,-75.88 271.38,-56 298.18,-23.83 424.64,-14.58 484.64,-11.98"/>
<polygon fill="#63b8ff" stroke="#63b8ff" points="484.67,-15.48 494.53,-11.59 484.4,-8.49 484.67,-15.48"/>
</a>
</g>
</g>
<!-- Node7 -->
<g id="Node000007" class="node">
<title>Node7</title>
<g id="a_Node000007"><a xlink:href="_command_8h.html" target="_top" xlink:title=" ">
<polygon fill="white" stroke="#666666" points="350.01,-76 280.76,-76 280.76,-56 350.01,-56 350.01,-76"/>
<text text-anchor="middle" x="315.38" y="-62.5" font-family="Helvetica,sans-Serif" font-size="10.00">Command.h</text>
</a>
</g>
</g>
<!-- Node4&#45;&gt;Node7 -->
<g id="edge6_Node000004_Node000007" class="edge">
<title>Node4&#45;&gt;Node7</title>
<g id="a_edge6_Node000004_Node000007"><a xlink:title=" ">
<path fill="none" stroke="#63b8ff" d="M324.47,-111.59C323.11,-104.93 321.24,-95.75 319.55,-87.44"/>
<polygon fill="#63b8ff" stroke="#63b8ff" points="323,-86.88 317.58,-77.78 316.14,-88.28 323,-86.88"/>
</a>
</g>
</g>
<!-- Node7&#45;&gt;Node6 -->
<g id="edge8_Node000007_Node000006" class="edge">
<title>Node7&#45;&gt;Node6</title>
<g id="a_edge8_Node000007_Node000006"><a xlink:title=" ">
<path fill="none" stroke="#63b8ff" d="M350.39,-55.59C388.45,-45.37 448.71,-29.18 485.19,-19.38"/>
<polygon fill="#63b8ff" stroke="#63b8ff" points="485.94,-22.8 494.69,-16.83 484.12,-16.04 485.94,-22.8"/>
</a>
</g>
</g>
<!-- Node8 -->
<g id="Node000008" class="node">
<title>Node8</title>
<g id="a_Node000008"><a xlink:title=" ">
<polygon fill="#e0e0e0" stroke="#999999" points="682.88,-20 639.88,-20 639.88,0 682.88,0 682.88,-20"/>
<text text-anchor="middle" x="661.38" y="-6.5" font-family="Helvetica,sans-Serif" font-size="10.00">vector</text>
</a>
</g>
</g>
<!-- Node7&#45;&gt;Node8 -->
<g id="edge7_Node000007_Node000008" class="edge">
<title>Node7&#45;&gt;Node8</title>
<g id="a_edge7_Node000007_Node000008"><a xlink:title=" ">
<path fill="none" stroke="#63b8ff" d="M350.42,-58.43C355.11,-57.59 359.86,-56.76 364.38,-56 460.22,-39.94 573.88,-23.42 628.66,-15.62"/>
<polygon fill="#63b8ff" stroke="#63b8ff" points="628.82,-19.13 638.23,-14.26 627.84,-12.2 628.82,-19.13"/>
</a>
</g>
</g>
<!-- Node9 -->
<g id="Node000009" class="node">
<title>Node9</title>
<g id="a_Node000009"><a xlink:title=" ">
<polygon fill="#e0e0e0" stroke="#999999" points="818.51,-20 770.26,-20 770.26,0 818.51,0 818.51,-20"/>
<text text-anchor="middle" x="794.38" y="-6.5" font-family="Helvetica,sans-Serif" font-size="10.00">stdint.h</text>
</a>
</g>
</g>
<!-- Node7&#45;&gt;Node9 -->
<g id="edge9_Node000007_Node000009" class="edge">
<title>Node7&#45;&gt;Node9</title>
<g id="a_edge9_Node000007_Node000009"><a xlink:title=" ">
<path fill="none" stroke="#63b8ff" d="M350.38,-58.17C355.08,-57.37 359.84,-56.62 364.38,-56 536.31,-32.46 585.04,-50.65 758.9,-20.15"/>
<polygon fill="#63b8ff" stroke="#63b8ff" points="759.26,-23.64 768.49,-18.43 758.03,-16.75 759.26,-23.64"/>
</a>
</g>
</g>
<!-- Node10&#45;&gt;Node3 -->
<g id="edge11_Node000010_Node000003" class="edge">
<title>Node10&#45;&gt;Node3</title>
<g id="a_edge11_Node000010_Node000003"><a xlink:title=" ">
<path fill="none" stroke="#63b8ff" d="M65.38,-111.59C65.38,-105.01 65.38,-95.96 65.38,-87.73"/>
<polygon fill="#63b8ff" stroke="#63b8ff" points="68.88,-87.81 65.38,-77.81 61.88,-87.81 68.88,-87.81"/>
</a>
</g>
</g>
<!-- Node10&#45;&gt;Node7 -->
<g id="edge12_Node000010_Node000007" class="edge">
<title>Node10&#45;&gt;Node7</title>
<g id="a_edge12_Node000010_Node000007"><a xlink:title=" ">
<path fill="none" stroke="#63b8ff" d="M109.21,-111.53C154.14,-101.83 223.71,-86.8 269.4,-76.93"/>
<polygon fill="#63b8ff" stroke="#63b8ff" points="269.96,-80.39 279,-74.86 268.48,-73.55 269.96,-80.39"/>
</a>
</g>
</g>
<!-- Node11&#45;&gt;Node3 -->
<g id="edge17_Node000011_Node000003" class="edge">
<title>Node11&#45;&gt;Node3</title>
<g id="a_edge17_Node000011_Node000003"><a xlink:title=" ">
<path fill="none" stroke="#63b8ff" d="M157.87,-111.59C140.63,-103.28 115.22,-91.03 95.4,-81.47"/>
<polygon fill="#63b8ff" stroke="#63b8ff" points="96.93,-78.33 86.41,-77.14 93.89,-84.63 96.93,-78.33"/>
</a>
</g>
</g>
<!-- Node11&#45;&gt;Node5 -->
<g id="edge16_Node000011_Node000005" class="edge">
<title>Node11&#45;&gt;Node5</title>
<g id="a_edge16_Node000011_Node000005"><a xlink:title=" ">
<path fill="none" stroke="#63b8ff" d="M218.98,-112.68C266.15,-103.25 343.16,-87.84 394.54,-77.57"/>
<polygon fill="#63b8ff" stroke="#63b8ff" points="395.14,-81.02 404.25,-75.63 393.76,-74.15 395.14,-81.02"/>
</a>
</g>
</g>
<!-- Node11&#45;&gt;Node6 -->
<g id="edge15_Node000011_Node000006" class="edge">
<title>Node11&#45;&gt;Node6</title>
<g id="a_edge15_Node000011_Node000006"><a xlink:title=" ">
<path fill="none" stroke="#63b8ff" d="M177.77,-111.78C178.91,-97.43 183.34,-69.95 200.38,-56 243.45,-20.74 413.5,-13.11 484.73,-11.46"/>
<polygon fill="#63b8ff" stroke="#63b8ff" points="484.62,-14.96 494.54,-11.26 484.47,-7.96 484.62,-14.96"/>
</a>
</g>
</g>
<!-- Node11&#45;&gt;Node9 -->
<g id="edge14_Node000011_Node000009" class="edge">
<title>Node11&#45;&gt;Node9</title>
<g id="a_edge14_Node000011_Node000009"><a xlink:title=" ">
<path fill="none" stroke="#63b8ff" d="M219.09,-113.68C256.55,-106.4 312.68,-93.76 359.38,-76 377.22,-69.22 379.1,-61.49 397.38,-56 549.59,-10.32 599.28,-47.73 758.81,-20.15"/>
<polygon fill="#63b8ff" stroke="#63b8ff" points="759.26,-23.62 768.49,-18.41 758.03,-16.73 759.26,-23.62"/>
</a>
</g>
</g>
<!-- Node12&#45;&gt;Node4 -->
<g id="edge24_Node000012_Node000004" class="edge">
<title>Node12&#45;&gt;Node4</title>
<g id="a_edge24_Node000012_Node000004"><a xlink:title=" ">
<path fill="none" stroke="#63b8ff" d="M457.69,-167.59C432.08,-158.9 393.77,-145.89 365.13,-136.16"/>
<polygon fill="#63b8ff" stroke="#63b8ff" points="366.32,-132.87 355.73,-132.97 364.07,-139.5 366.32,-132.87"/>
</a>
</g>
</g>
<!-- Node12&#45;&gt;Node5 -->
<g id="edge22_Node000012_Node000005" class="edge">
<title>Node12&#45;&gt;Node5</title>
<g id="a_edge22_Node000012_Node000005"><a xlink:title=" ">
<path fill="none" stroke="#63b8ff" d="M481.14,-167.81C477.06,-158.81 470.87,-144.62 466.38,-132 461.12,-117.23 456.19,-100.2 452.66,-87.29"/>
<polygon fill="#63b8ff" stroke="#63b8ff" points="456.1,-86.59 450.15,-77.83 449.34,-88.39 456.1,-86.59"/>
</a>
</g>
</g>
<!-- Node12&#45;&gt;Node6 -->
<g id="edge21_Node000012_Node000006" class="edge">
<title>Node12&#45;&gt;Node6</title>
<g id="a_edge21_Node000012_Node000006"><a xlink:title=" ">
<path fill="none" stroke="#63b8ff" d="M455.77,-175.22C401.85,-171.32 290.94,-160.02 266.38,-132 244.09,-106.56 240.65,-81.92 262.38,-56 290.44,-22.54 423.13,-13.94 484.77,-11.75"/>
<polygon fill="#63b8ff" stroke="#63b8ff" points="484.7,-15.25 494.58,-11.44 484.48,-8.26 484.7,-15.25"/>
</a>
</g>
</g>
<!-- Node12&#45;&gt;Node7 -->
<g id="edge23_Node000012_Node000007" class="edge">
<title>Node12&#45;&gt;Node7</title>
<g id="a_edge23_Node000012_Node000007"><a xlink:title=" ">
<path fill="none" stroke="#63b8ff" d="M471.5,-167.62C452.58,-154.88 417.59,-131.45 387.38,-112 371.72,-101.92 353.99,-90.83 340.03,-82.18"/>
<polygon fill="#63b8ff" stroke="#63b8ff" points="342.26,-79.44 331.91,-77.16 338.58,-85.39 342.26,-79.44"/>
</a>
</g>
</g>
<!-- Node12&#45;&gt;Node8 -->
<g id="edge19_Node000012_Node000008" class="edge">
<title>Node12&#45;&gt;Node8</title>
<g id="a_edge19_Node000012_Node000008"><a xlink:title=" ">
<path fill="none" stroke="#63b8ff" d="M515.17,-167.61C535.19,-160.24 561.31,-148.45 580.38,-132 614.07,-102.95 639.71,-56.67 652.46,-30.57"/>
<polygon fill="#63b8ff" stroke="#63b8ff" points="655.49,-32.33 656.61,-21.8 649.17,-29.34 655.49,-32.33"/>
</a>
</g>
</g>
<!-- Node12&#45;&gt;Node9 -->
<g id="edge20_Node000012_Node000009" class="edge">
<title>Node12&#45;&gt;Node9</title>
<g id="a_edge20_Node000012_Node000009"><a xlink:title=" ">
<path fill="none" stroke="#63b8ff" d="M515.06,-177.63C593.74,-178.68 805.02,-177.12 854.38,-132 879.62,-108.93 882.96,-85.91 866.38,-56 858.27,-41.37 843.21,-30.87 828.95,-23.71"/>
<polygon fill="#63b8ff" stroke="#63b8ff" points="830.74,-20.68 820.19,-19.71 827.83,-27.05 830.74,-20.68"/>
</a>
</g>
</g>
<!-- Node13 -->
<g id="Node000013" class="node">
<title>Node13</title>
<g id="a_Node000013"><a xlink:href="_print_callback_8h.html" target="_top" xlink:title=" ">
<polygon fill="white" stroke="#666666" points="845.76,-132 763.01,-132 763.01,-112 845.76,-112 845.76,-132"/>
<text text-anchor="middle" x="804.38" y="-118.5" font-family="Helvetica,sans-Serif" font-size="10.00">PrintCallback.h</text>
</a>
</g>
</g>
<!-- Node12&#45;&gt;Node13 -->
<g id="edge25_Node000012_Node000013" class="edge">
<title>Node12&#45;&gt;Node13</title>
<g id="a_edge25_Node000012_Node000013"><a xlink:title=" ">
<path fill="none" stroke="#63b8ff" d="M515.14,-172.09C562.68,-164.22 658.99,-148.21 751.39,-132.33"/>
<polygon fill="#63b8ff" stroke="#63b8ff" points="751.88,-135.8 761.15,-130.65 750.7,-128.9 751.88,-135.8"/>
</a>
</g>
</g>
<!-- Node16 -->
<g id="Node000016" class="node">
<title>Node16</title>
<g id="a_Node000016"><a xlink:href="_program_variable_8h.html" target="_top" xlink:title=" ">
<polygon fill="white" stroke="#666666" points="571.13,-132 475.63,-132 475.63,-112 571.13,-112 571.13,-132"/>
<text text-anchor="middle" x="523.38" y="-118.5" font-family="Helvetica,sans-Serif" font-size="10.00">ProgramVariable.h</text>
</a>
</g>
</g>
<!-- Node12&#45;&gt;Node16 -->
<g id="edge32_Node000012_Node000016" class="edge">
<title>Node12&#45;&gt;Node16</title>
<g id="a_edge32_Node000012_Node000016"><a xlink:title=" ">
<path fill="none" stroke="#63b8ff" d="M492,-167.59C497.07,-160.39 504.22,-150.23 510.41,-141.43"/>
<polygon fill="#63b8ff" stroke="#63b8ff" points="513.07,-143.73 515.97,-133.54 507.35,-139.7 513.07,-143.73"/>
</a>
</g>
</g>
<!-- Node17 -->
<g id="Node000017" class="node">
<title>Node17</title>
<g id="a_Node000017"><a xlink:href="_lexer_8h.html" target="_top" xlink:title=" ">
<polygon fill="white" stroke="#666666" points="744.51,-132 696.26,-132 696.26,-112 744.51,-112 744.51,-132"/>
<text text-anchor="middle" x="720.38" y="-118.5" font-family="Helvetica,sans-Serif" font-size="10.00">Lexer.h</text>
</a>
</g>
</g>
<!-- Node12&#45;&gt;Node17 -->
<g id="edge36_Node000012_Node000017" class="edge">
<title>Node12&#45;&gt;Node17</title>
<g id="a_edge36_Node000012_Node000017"><a xlink:title=" ">
<path fill="none" stroke="#63b8ff" d="M515.1,-170.29C553.68,-161.56 623.1,-145.79 682.38,-132 683.2,-131.81 684.03,-131.62 684.86,-131.42"/>
<polygon fill="#63b8ff" stroke="#63b8ff" points="685.45,-134.88 694.39,-129.18 683.85,-128.06 685.45,-134.88"/>
</a>
</g>
</g>
<!-- Node13&#45;&gt;Node6 -->
<g id="edge27_Node000013_Node000006" class="edge">
<title>Node13&#45;&gt;Node6</title>
<g id="a_edge27_Node000013_Node000006"><a xlink:title=" ">
<path fill="none" stroke="#63b8ff" d="M779.58,-111.53C727,-91.45 604.5,-44.66 547.09,-22.73"/>
<polygon fill="#63b8ff" stroke="#63b8ff" points="548.52,-19.53 537.93,-19.23 546.03,-26.07 548.52,-19.53"/>
</a>
</g>
</g>
<!-- Node13&#45;&gt;Node9 -->
<g id="edge26_Node000013_Node000009" class="edge">
<title>Node13&#45;&gt;Node9</title>
<g id="a_edge26_Node000013_Node000009"><a xlink:title=" ">
<path fill="none" stroke="#63b8ff" d="M819.62,-111.56C837.02,-99.49 861.83,-77.55 851.38,-56 845.45,-43.75 834.38,-33.83 823.57,-26.45"/>
<polygon fill="#63b8ff" stroke="#63b8ff" points="825.48,-23.52 815.15,-21.2 821.78,-29.46 825.48,-23.52"/>
</a>
</g>
</g>
<!-- Node14 -->
<g id="Node000014" class="node">
<title>Node14</title>
<g id="a_Node000014"><a xlink:href="_utils_8h.html" target="_top" xlink:title=" ">
<polygon fill="white" stroke="#666666" points="809.63,-76 765.13,-76 765.13,-56 809.63,-56 809.63,-76"/>
<text text-anchor="middle" x="787.38" y="-62.5" font-family="Helvetica,sans-Serif" font-size="10.00">Utils.h</text>
</a>
</g>
</g>
<!-- Node13&#45;&gt;Node14 -->
<g id="edge28_Node000013_Node000014" class="edge">
<title>Node13&#45;&gt;Node14</title>
<g id="a_edge28_Node000013_Node000014"><a xlink:title=" ">
<path fill="none" stroke="#63b8ff" d="M801.42,-111.59C799.3,-104.86 796.36,-95.53 793.73,-87.15"/>
<polygon fill="#63b8ff" stroke="#63b8ff" points="797.1,-86.23 790.76,-77.74 790.43,-88.33 797.1,-86.23"/>
</a>
</g>
</g>
<!-- Node14&#45;&gt;Node6 -->
<g id="edge30_Node000014_Node000006" class="edge">
<title>Node14&#45;&gt;Node6</title>
<g id="a_edge30_Node000014_Node000006"><a xlink:title=" ">
<path fill="none" stroke="#63b8ff" d="M764.72,-58.36C761.59,-57.52 758.42,-56.71 755.38,-56 681.61,-38.72 593.81,-23.55 547.91,-16.03"/>
<polygon fill="#63b8ff" stroke="#63b8ff" points="548.58,-12.59 538.15,-14.44 547.46,-19.5 548.58,-12.59"/>
</a>
</g>
</g>
<!-- Node14&#45;&gt;Node9 -->
<g id="edge29_Node000014_Node000009" class="edge">
<title>Node14&#45;&gt;Node9</title>
<g id="a_edge29_Node000014_Node000009"><a xlink:title=" ">
<path fill="none" stroke="#63b8ff" d="M788.6,-55.59C789.46,-48.93 790.66,-39.75 791.73,-31.44"/>
<polygon fill="#63b8ff" stroke="#63b8ff" points="795.17,-32.17 792.98,-21.8 788.23,-31.27 795.17,-32.17"/>
</a>
</g>
</g>
<!-- Node15 -->
<g id="Node000015" class="node">
<title>Node15</title>
<g id="a_Node000015"><a xlink:title=" ">
<polygon fill="#e0e0e0" stroke="#999999" points="752.01,-20 700.76,-20 700.76,0 752.01,0 752.01,-20"/>
<text text-anchor="middle" x="726.38" y="-6.5" font-family="Helvetica,sans-Serif" font-size="10.00">sstream</text>
</a>
</g>
</g>
<!-- Node14&#45;&gt;Node15 -->
<g id="edge31_Node000014_Node000015" class="edge">
<title>Node14&#45;&gt;Node15</title>
<g id="a_edge31_Node000014_Node000015"><a xlink:title=" ">
<path fill="none" stroke="#63b8ff" d="M776.76,-55.59C768.1,-47.93 755.65,-36.91 745.3,-27.75"/>
<polygon fill="#63b8ff" stroke="#63b8ff" points="747.83,-25.31 738.02,-21.3 743.19,-30.55 747.83,-25.31"/>
</a>
</g>
</g>
<!-- Node16&#45;&gt;Node5 -->
<g id="edge35_Node000016_Node000005" class="edge">
<title>Node16&#45;&gt;Node5</title>
<g id="a_edge35_Node000016_Node000005"><a xlink:title=" ">
<path fill="none" stroke="#63b8ff" d="M510.14,-111.59C499.1,-103.74 483.1,-92.38 470.02,-83.09"/>
<polygon fill="#63b8ff" stroke="#63b8ff" points="472.14,-80.3 461.96,-77.36 468.08,-86 472.14,-80.3"/>
</a>
</g>
</g>
<!-- Node16&#45;&gt;Node6 -->
<g id="edge33_Node000016_Node000006" class="edge">
<title>Node16&#45;&gt;Node6</title>
<g id="a_edge33_Node000016_Node000006"><a xlink:title=" ">
<path fill="none" stroke="#63b8ff" d="M522.78,-111.62C521.66,-94.01 519.22,-55.59 517.7,-31.65"/>
<polygon fill="#63b8ff" stroke="#63b8ff" points="521.2,-31.62 517.07,-21.87 514.22,-32.07 521.2,-31.62"/>
</a>
</g>
</g>
<!-- Node16&#45;&gt;Node15 -->
<g id="edge34_Node000016_Node000015" class="edge">
<title>Node16&#45;&gt;Node15</title>
<g id="a_edge34_Node000016_Node000015"><a xlink:title=" ">
<path fill="none" stroke="#63b8ff" d="M540.69,-111.62C576.05,-92.46 656.79,-48.71 699.21,-25.72"/>
<polygon fill="#63b8ff" stroke="#63b8ff" points="700.66,-28.92 707.79,-21.08 697.33,-22.76 700.66,-28.92"/>
</a>
</g>
</g>
<!-- Node17&#45;&gt;Node6 -->
<g id="edge38_Node000017_Node000006" class="edge">
<title>Node17&#45;&gt;Node6</title>
<g id="a_edge38_Node000017_Node000006"><a xlink:title=" ">
<path fill="none" stroke="#63b8ff" d="M695.88,-111.75C674.46,-103.35 642.73,-90.14 616.38,-76 588.57,-61.08 558.42,-40.88 538.58,-26.98"/>
<polygon fill="#63b8ff" stroke="#63b8ff" points="540.63,-24.15 530.45,-21.22 536.59,-29.86 540.63,-24.15"/>
</a>
</g>
</g>
<!-- Node17&#45;&gt;Node9 -->
<g id="edge37_Node000017_Node000009" class="edge">
<title>Node17&#45;&gt;Node9</title>
<g id="a_edge37_Node000017_Node000009"><a xlink:title=" ">
<path fill="none" stroke="#63b8ff" d="M744.62,-113.24C770.81,-104.3 809.94,-89.16 818.38,-76 827.68,-61.5 819.06,-42.87 809.66,-29.28"/>
<polygon fill="#63b8ff" stroke="#63b8ff" points="812.68,-27.46 803.84,-21.61 807.1,-31.69 812.68,-27.46"/>
</a>
</g>
</g>
<!-- Node18 -->
<g id="Node000018" class="node">
<title>Node18</title>
<g id="a_Node000018"><a xlink:href="_token_8h.html" target="_top" xlink:title=" ">
<polygon fill="white" stroke="#666666" points="746.63,-76 696.13,-76 696.13,-56 746.63,-56 746.63,-76"/>
<text text-anchor="middle" x="721.38" y="-62.5" font-family="Helvetica,sans-Serif" font-size="10.00">Token.h</text>
</a>
</g>
</g>
<!-- Node17&#45;&gt;Node18 -->
<g id="edge39_Node000017_Node000018" class="edge">
<title>Node17&#45;&gt;Node18</title>
<g id="a_edge39_Node000017_Node000018"><a xlink:title=" ">
<path fill="none" stroke="#63b8ff" d="M720.56,-111.59C720.68,-105.01 720.85,-95.96 721,-87.73"/>
<polygon fill="#63b8ff" stroke="#63b8ff" points="724.5,-87.87 721.18,-77.81 717.5,-87.75 724.5,-87.87"/>
</a>
</g>
</g>
<!-- Node18&#45;&gt;Node6 -->
<g id="edge41_Node000018_Node000006" class="edge">
<title>Node18&#45;&gt;Node6</title>
<g id="a_edge41_Node000018_Node000006"><a xlink:title=" ">
<path fill="none" stroke="#63b8ff" d="M695.83,-58.27C658.32,-48.39 588.4,-29.97 547.8,-19.28"/>
<polygon fill="#63b8ff" stroke="#63b8ff" points="548.72,-15.9 538.16,-16.74 546.94,-22.67 548.72,-15.9"/>
</a>
</g>
</g>
<!-- Node18&#45;&gt;Node8 -->
<g id="edge42_Node000018_Node000008" class="edge">
<title>Node18&#45;&gt;Node8</title>
<g id="a_edge42_Node000018_Node000008"><a xlink:title=" ">
<path fill="none" stroke="#63b8ff" d="M710.93,-55.59C702.41,-47.93 690.17,-36.91 679.99,-27.75"/>
<polygon fill="#63b8ff" stroke="#63b8ff" points="682.61,-25.4 672.84,-21.31 677.93,-30.6 682.61,-25.4"/>
</a>
</g>
</g>
<!-- Node18&#45;&gt;Node9 -->
<g id="edge40_Node000018_Node000009" class="edge">
<title>Node18&#45;&gt;Node9</title>
<g id="a_edge40_Node000018_Node000009"><a xlink:title=" ">
<path fill="none" stroke="#63b8ff" d="M734.1,-55.59C744.77,-47.7 760.26,-36.24 772.86,-26.92"/>
<polygon fill="#63b8ff" stroke="#63b8ff" points="774.64,-29.96 780.6,-21.2 770.47,-24.33 774.64,-29.96"/>
</a>
</g>
</g>
</g>
</svg>
