<?xml version="1.0" encoding="UTF-8" standalone="no"?>
<!DOCTYPE svg PUBLIC "-//W3C//DTD SVG 1.1//EN"
 "http://www.w3.org/Graphics/SVG/1.1/DTD/svg11.dtd">
<!-- Generated by graphviz version 12.2.1 (20241206.2353)
 -->
<!-- Title: C:/Users/emilly/Documents/Lucca/Projetos/Cpp/NikiScript/src/Command.h Pages: 1 -->
<svg width="1306pt" height="372pt"
 viewBox="0.00 0.00 1305.62 372.00" xmlns="http://www.w3.org/2000/svg" xmlns:xlink="http://www.w3.org/1999/xlink">
<g id="graph0" class="graph" transform="scale(1 1) rotate(0) translate(4 368)">
<title>C:/Users/emilly/Documents/Lucca/Projetos/Cpp/NikiScript/src/Command.h</title>
<!-- Node1 -->
<g id="Node000001" class="node">
<title>Node1</title>
<g id="a_Node000001"><a xlink:title=" ">
<polygon fill="#999999" stroke="#666666" points="901,-364 750,-364 750,-320 901,-320 901,-364"/>
<text text-anchor="start" x="758" y="-350.5" font-family="Helvetica,sans-Serif" font-size="10.00">C:/Users/emilly/Documents</text>
<text text-anchor="start" x="758" y="-338.5" font-family="Helvetica,sans-Serif" font-size="10.00">/Lucca/Projetos/Cpp/NikiScript</text>
<text text-anchor="middle" x="825.5" y="-326.5" font-family="Helvetica,sans-Serif" font-size="10.00">/src/Command.h</text>
</a>
</g>
</g>
<!-- Node2 -->
<g id="Node000002" class="node">
<title>Node2</title>
<g id="a_Node000002"><a xlink:href="_command_8cpp.html" target="_top" xlink:title=" ">
<polygon fill="white" stroke="#666666" points="745,-284 594,-284 594,-240 745,-240 745,-284"/>
<text text-anchor="start" x="602" y="-270.5" font-family="Helvetica,sans-Serif" font-size="10.00">C:/Users/emilly/Documents</text>
<text text-anchor="start" x="602" y="-258.5" font-family="Helvetica,sans-Serif" font-size="10.00">/Lucca/Projetos/Cpp/NikiScript</text>
<text text-anchor="middle" x="669.5" y="-246.5" font-family="Helvetica,sans-Serif" font-size="10.00">/src/Command.cpp</text>
</a>
</g>
</g>
<!-- Node1&#45;&gt;Node2 -->
<g id="edge1_Node000001_Node000002" class="edge">
<title>Node1&#45;&gt;Node2</title>
<g id="a_edge1_Node000001_Node000002"><a xlink:title=" ">
<path fill="none" stroke="#63b8ff" d="M772.83,-314.66C753.14,-304.82 731.04,-293.77 712.35,-284.42"/>
<polygon fill="#63b8ff" stroke="#63b8ff" points="771.01,-317.67 781.52,-319.01 774.14,-311.41 771.01,-317.67"/>
</a>
</g>
</g>
<!-- Node3 -->
<g id="Node000003" class="node">
<title>Node3</title>
<g id="a_Node000003"><a xlink:href="_command_handler_8h.html" target="_top" xlink:title=" ">
<polygon fill="white" stroke="#666666" points="953,-284 802,-284 802,-240 953,-240 953,-284"/>
<text text-anchor="start" x="810" y="-270.5" font-family="Helvetica,sans-Serif" font-size="10.00">C:/Users/emilly/Documents</text>
<text text-anchor="start" x="810" y="-258.5" font-family="Helvetica,sans-Serif" font-size="10.00">/Lucca/Projetos/Cpp/NikiScript</text>
<text text-anchor="middle" x="877.5" y="-246.5" font-family="Helvetica,sans-Serif" font-size="10.00">/src/CommandHandler.h</text>
</a>
</g>
</g>
<!-- Node1&#45;&gt;Node3 -->
<g id="edge2_Node000001_Node000003" class="edge">
<title>Node1&#45;&gt;Node3</title>
<g id="a_edge2_Node000001_Node000003"><a xlink:title=" ">
<path fill="none" stroke="#63b8ff" d="M846.02,-310.22C851.81,-301.54 857.98,-292.28 863.31,-284.29"/>
<polygon fill="#63b8ff" stroke="#63b8ff" points="843.18,-308.16 840.55,-318.43 849.01,-312.05 843.18,-308.16"/>
</a>
</g>
</g>
<!-- Node5 -->
<g id="Node000005" class="node">
<title>Node5</title>
<g id="a_Node000005"><a xlink:href="_context_8h.html" target="_top" xlink:title=" ">
<polygon fill="white" stroke="#666666" points="781,-204 630,-204 630,-160 781,-160 781,-204"/>
<text text-anchor="start" x="638" y="-190.5" font-family="Helvetica,sans-Serif" font-size="10.00">C:/Users/emilly/Documents</text>
<text text-anchor="start" x="638" y="-178.5" font-family="Helvetica,sans-Serif" font-size="10.00">/Lucca/Projetos/Cpp/NikiScript</text>
<text text-anchor="middle" x="705.5" y="-166.5" font-family="Helvetica,sans-Serif" font-size="10.00">/src/Context.h</text>
</a>
</g>
</g>
<!-- Node1&#45;&gt;Node5 -->
<g id="edge20_Node000001_Node000005" class="edge">
<title>Node1&#45;&gt;Node5</title>
<g id="a_edge20_Node000001_Node000005"><a xlink:title=" ">
<path fill="none" stroke="#63b8ff" d="M805.06,-310.29C791.26,-289.98 772.38,-262.97 754.5,-240 745.04,-227.85 733.89,-214.79 724.62,-204.24"/>
<polygon fill="#63b8ff" stroke="#63b8ff" points="802.05,-312.09 810.55,-318.42 807.85,-308.18 802.05,-312.09"/>
</a>
</g>
</g>
<!-- Node16 -->
<g id="Node000016" class="node">
<title>Node16</title>
<g id="a_Node000016"><a xlink:href="_command_wrapper_8h.html" target="_top" xlink:title=" ">
<polygon fill="white" stroke="#666666" points="1122,-284 971,-284 971,-240 1122,-240 1122,-284"/>
<text text-anchor="start" x="979" y="-270.5" font-family="Helvetica,sans-Serif" font-size="10.00">C:/Users/emilly/Documents</text>
<text text-anchor="start" x="979" y="-258.5" font-family="Helvetica,sans-Serif" font-size="10.00">/Lucca/Projetos/Cpp/NikiScript</text>
<text text-anchor="middle" x="1046.5" y="-246.5" font-family="Helvetica,sans-Serif" font-size="10.00">/wrapper/CommandWrapper.h</text>
</a>
</g>
</g>
<!-- Node1&#45;&gt;Node16 -->
<g id="edge21_Node000001_Node000016" class="edge">
<title>Node1&#45;&gt;Node16</title>
<g id="a_edge21_Node000001_Node000016"><a xlink:title=" ">
<path fill="none" stroke="#63b8ff" d="M896.97,-315.78C925.69,-305.64 958.44,-294.08 985.95,-284.37"/>
<polygon fill="#63b8ff" stroke="#63b8ff" points="895.87,-312.45 887.61,-319.08 898.2,-319.05 895.87,-312.45"/>
</a>
</g>
</g>
<!-- Node4 -->
<g id="Node000004" class="node">
<title>Node4</title>
<g id="a_Node000004"><a xlink:href="_command_handler_8cpp.html" target="_top" xlink:title=" ">
<polygon fill="white" stroke="#666666" points="1035,-124 884,-124 884,-80 1035,-80 1035,-124"/>
<text text-anchor="start" x="892" y="-110.5" font-family="Helvetica,sans-Serif" font-size="10.00">C:/Users/emilly/Documents</text>
<text text-anchor="start" x="892" y="-98.5" font-family="Helvetica,sans-Serif" font-size="10.00">/Lucca/Projetos/Cpp/NikiScript</text>
<text text-anchor="middle" x="959.5" y="-86.5" font-family="Helvetica,sans-Serif" font-size="10.00">/src/CommandHandler.cpp</text>
</a>
</g>
</g>
<!-- Node3&#45;&gt;Node4 -->
<g id="edge3_Node000003_Node000004" class="edge">
<title>Node3&#45;&gt;Node4</title>
<g id="a_edge3_Node000003_Node000004"><a xlink:title=" ">
<path fill="none" stroke="#63b8ff" d="M893.7,-229.79C909.86,-198.66 934.25,-151.65 948.35,-124.48"/>
<polygon fill="#63b8ff" stroke="#63b8ff" points="890.76,-227.86 889.26,-238.35 896.97,-231.08 890.76,-227.86"/>
</a>
</g>
</g>
<!-- Node3&#45;&gt;Node5 -->
<g id="edge4_Node000003_Node000005" class="edge">
<title>Node3&#45;&gt;Node5</title>
<g id="a_edge4_Node000003_Node000005"><a xlink:title=" ">
<path fill="none" stroke="#63b8ff" d="M820.02,-234.93C798.17,-225.02 773.54,-213.86 752.74,-204.42"/>
<polygon fill="#63b8ff" stroke="#63b8ff" points="818.57,-238.12 829.12,-239.06 821.46,-231.74 818.57,-238.12"/>
</a>
</g>
</g>
<!-- Node15 -->
<g id="Node000015" class="node">
<title>Node15</title>
<g id="a_Node000015"><a xlink:href="_command_handler_wrapper_8h.html" target="_top" xlink:title=" ">
<polygon fill="white" stroke="#666666" points="1123.25,-204 943.75,-204 943.75,-160 1123.25,-160 1123.25,-204"/>
<text text-anchor="start" x="951.75" y="-190.5" font-family="Helvetica,sans-Serif" font-size="10.00">C:/Users/emilly/Documents</text>
<text text-anchor="start" x="951.75" y="-178.5" font-family="Helvetica,sans-Serif" font-size="10.00">/Lucca/Projetos/Cpp/NikiScript</text>
<text text-anchor="middle" x="1033.5" y="-166.5" font-family="Helvetica,sans-Serif" font-size="10.00">/wrapper/CommandHandlerWrapper.h</text>
</a>
</g>
</g>
<!-- Node3&#45;&gt;Node15 -->
<g id="edge18_Node000003_Node000015" class="edge">
<title>Node3&#45;&gt;Node15</title>
<g id="a_edge18_Node000003_Node000015"><a xlink:title=" ">
<path fill="none" stroke="#63b8ff" d="M930.17,-234.66C949.86,-224.82 971.96,-213.77 990.65,-204.42"/>
<polygon fill="#63b8ff" stroke="#63b8ff" points="928.86,-231.41 921.48,-239.01 931.99,-237.67 928.86,-231.41"/>
</a>
</g>
</g>
<!-- Node5&#45;&gt;Node4 -->
<g id="edge6_Node000005_Node000004" class="edge">
<title>Node5&#45;&gt;Node4</title>
<g id="a_edge6_Node000005_Node000004"><a xlink:title=" ">
<path fill="none" stroke="#63b8ff" d="M785.9,-156.31C819.32,-146.05 857.73,-134.25 889.91,-124.37"/>
<polygon fill="#63b8ff" stroke="#63b8ff" points="785.22,-152.86 776.69,-159.14 787.28,-159.55 785.22,-152.86"/>
</a>
</g>
</g>
<!-- Node6 -->
<g id="Node000006" class="node">
<title>Node6</title>
<g id="a_Node000006"><a xlink:href="example_8cpp.html" target="_top" xlink:title=" ">
<polygon fill="white" stroke="#666666" points="541,-44 390,-44 390,0 541,0 541,-44"/>
<text text-anchor="start" x="398" y="-30.5" font-family="Helvetica,sans-Serif" font-size="10.00">C:/Users/emilly/Documents</text>
<text text-anchor="start" x="398" y="-18.5" font-family="Helvetica,sans-Serif" font-size="10.00">/Lucca/Projetos/Cpp/NikiScript</text>
<text text-anchor="middle" x="465.5" y="-6.5" font-family="Helvetica,sans-Serif" font-size="10.00">/example/src/example.cpp</text>
</a>
</g>
</g>
<!-- Node5&#45;&gt;Node6 -->
<g id="edge5_Node000005_Node000006" class="edge">
<title>Node5&#45;&gt;Node6</title>
<g id="a_edge5_Node000005_Node000006"><a xlink:title=" ">
<path fill="none" stroke="#63b8ff" d="M619.22,-163.3C590.99,-154.65 560.69,-142.08 536.5,-124 521.65,-112.9 494.44,-70.68 478.37,-44.47"/>
<polygon fill="#63b8ff" stroke="#63b8ff" points="617.88,-166.55 628.46,-166 619.85,-159.84 617.88,-166.55"/>
</a>
</g>
</g>
<!-- Node7 -->
<g id="Node000007" class="node">
<title>Node7</title>
<g id="a_Node000007"><a xlink:href="_context_8cpp.html" target="_top" xlink:title=" ">
<polygon fill="white" stroke="#666666" points="697,-124 546,-124 546,-80 697,-80 697,-124"/>
<text text-anchor="start" x="554" y="-110.5" font-family="Helvetica,sans-Serif" font-size="10.00">C:/Users/emilly/Documents</text>
<text text-anchor="start" x="554" y="-98.5" font-family="Helvetica,sans-Serif" font-size="10.00">/Lucca/Projetos/Cpp/NikiScript</text>
<text text-anchor="middle" x="621.5" y="-86.5" font-family="Helvetica,sans-Serif" font-size="10.00">/src/Context.cpp</text>
</a>
</g>
</g>
<!-- Node5&#45;&gt;Node7 -->
<g id="edge7_Node000005_Node000007" class="edge">
<title>Node5&#45;&gt;Node7</title>
<g id="a_edge7_Node000005_Node000007"><a xlink:title=" ">
<path fill="none" stroke="#63b8ff" d="M674.16,-151.89C664.29,-142.74 653.59,-132.8 644.43,-124.29"/>
<polygon fill="#63b8ff" stroke="#63b8ff" points="671.73,-154.42 681.44,-158.66 676.49,-149.29 671.73,-154.42"/>
</a>
</g>
</g>
<!-- Node8 -->
<g id="Node000008" class="node">
<title>Node8</title>
<g id="a_Node000008"><a xlink:href="_niki_script_8h.html" target="_top" xlink:title=" ">
<polygon fill="white" stroke="#666666" points="489,-124 338,-124 338,-80 489,-80 489,-124"/>
<text text-anchor="start" x="346" y="-110.5" font-family="Helvetica,sans-Serif" font-size="10.00">C:/Users/emilly/Documents</text>
<text text-anchor="start" x="346" y="-98.5" font-family="Helvetica,sans-Serif" font-size="10.00">/Lucca/Projetos/Cpp/NikiScript</text>
<text text-anchor="middle" x="413.5" y="-86.5" font-family="Helvetica,sans-Serif" font-size="10.00">/src/NikiScript.h</text>
</a>
</g>
</g>
<!-- Node5&#45;&gt;Node8 -->
<g id="edge8_Node000005_Node000008" class="edge">
<title>Node5&#45;&gt;Node8</title>
<g id="a_edge8_Node000005_Node000008"><a xlink:title=" ">
<path fill="none" stroke="#63b8ff" d="M618.45,-157.75C577.39,-146.78 528.86,-133.82 489.33,-123.26"/>
<polygon fill="#63b8ff" stroke="#63b8ff" points="617.52,-161.12 628.08,-160.32 619.32,-154.36 617.52,-161.12"/>
</a>
</g>
</g>
<!-- Node10 -->
<g id="Node000010" class="node">
<title>Node10</title>
<g id="a_Node000010"><a xlink:href="_parser_8h.html" target="_top" xlink:title=" ">
<polygon fill="white" stroke="#666666" points="320,-124 169,-124 169,-80 320,-80 320,-124"/>
<text text-anchor="start" x="177" y="-110.5" font-family="Helvetica,sans-Serif" font-size="10.00">C:/Users/emilly/Documents</text>
<text text-anchor="start" x="177" y="-98.5" font-family="Helvetica,sans-Serif" font-size="10.00">/Lucca/Projetos/Cpp/NikiScript</text>
<text text-anchor="middle" x="244.5" y="-86.5" font-family="Helvetica,sans-Serif" font-size="10.00">/src/Parser.h</text>
</a>
</g>
</g>
<!-- Node5&#45;&gt;Node10 -->
<g id="edge11_Node000005_Node000010" class="edge">
<title>Node5&#45;&gt;Node10</title>
<g id="a_edge11_Node000005_Node000010"><a xlink:title=" ">
<path fill="none" stroke="#63b8ff" d="M618.64,-170.25C541.96,-160.19 427.33,-143.78 328.5,-124 325.85,-123.47 323.15,-122.91 320.43,-122.33"/>
<polygon fill="#63b8ff" stroke="#63b8ff" points="617.8,-173.67 628.17,-171.49 618.7,-166.73 617.8,-173.67"/>
</a>
</g>
</g>
<!-- Node12 -->
<g id="Node000012" class="node">
<title>Node12</title>
<g id="a_Node000012"><a xlink:href="_program_variable_8cpp.html" target="_top" xlink:title=" ">
<polygon fill="white" stroke="#666666" points="866,-124 715,-124 715,-80 866,-80 866,-124"/>
<text text-anchor="start" x="723" y="-110.5" font-family="Helvetica,sans-Serif" font-size="10.00">C:/Users/emilly/Documents</text>
<text text-anchor="start" x="723" y="-98.5" font-family="Helvetica,sans-Serif" font-size="10.00">/Lucca/Projetos/Cpp/NikiScript</text>
<text text-anchor="middle" x="790.5" y="-86.5" font-family="Helvetica,sans-Serif" font-size="10.00">/src/ProgramVariable.cpp</text>
</a>
</g>
</g>
<!-- Node5&#45;&gt;Node12 -->
<g id="edge15_Node000005_Node000012" class="edge">
<title>Node5&#45;&gt;Node12</title>
<g id="a_edge15_Node000005_Node000012"><a xlink:title=" ">
<path fill="none" stroke="#63b8ff" d="M736.92,-152.17C746.98,-142.94 757.93,-132.88 767.3,-124.29"/>
<polygon fill="#63b8ff" stroke="#63b8ff" points="734.84,-149.32 729.84,-158.66 739.58,-154.48 734.84,-149.32"/>
</a>
</g>
</g>
<!-- Node13 -->
<g id="Node000013" class="node">
<title>Node13</title>
<g id="a_Node000013"><a xlink:href="_token_8cpp.html" target="_top" xlink:title=" ">
<polygon fill="white" stroke="#666666" points="151,-124 0,-124 0,-80 151,-80 151,-124"/>
<text text-anchor="start" x="8" y="-110.5" font-family="Helvetica,sans-Serif" font-size="10.00">C:/Users/emilly/Documents</text>
<text text-anchor="start" x="8" y="-98.5" font-family="Helvetica,sans-Serif" font-size="10.00">/Lucca/Projetos/Cpp/NikiScript</text>
<text text-anchor="middle" x="75.5" y="-86.5" font-family="Helvetica,sans-Serif" font-size="10.00">/src/Token.cpp</text>
</a>
</g>
</g>
<!-- Node5&#45;&gt;Node13 -->
<g id="edge16_Node000005_Node000013" class="edge">
<title>Node5&#45;&gt;Node13</title>
<g id="a_edge16_Node000005_Node000013"><a xlink:title=" ">
<path fill="none" stroke="#63b8ff" d="M618.34,-175.7C510.12,-168.26 320.18,-152.33 159.5,-124 156.84,-123.53 154.13,-123.02 151.4,-122.49"/>
<polygon fill="#63b8ff" stroke="#63b8ff" points="617.79,-179.17 628,-176.36 618.26,-172.19 617.79,-179.17"/>
</a>
</g>
</g>
<!-- Node14 -->
<g id="Node000014" class="node">
<title>Node14</title>
<g id="a_Node000014"><a xlink:href="_command_handler_wrapper_8cpp.html" target="_top" xlink:title=" ">
<polygon fill="white" stroke="#666666" points="1243.5,-124 1053.5,-124 1053.5,-80 1243.5,-80 1243.5,-124"/>
<text text-anchor="start" x="1061.5" y="-110.5" font-family="Helvetica,sans-Serif" font-size="10.00">C:/Users/emilly/Documents</text>
<text text-anchor="start" x="1061.5" y="-98.5" font-family="Helvetica,sans-Serif" font-size="10.00">/Lucca/Projetos/Cpp/NikiScript</text>
<text text-anchor="middle" x="1148.5" y="-86.5" font-family="Helvetica,sans-Serif" font-size="10.00">/wrapper/CommandHandlerWrapper.cpp</text>
</a>
</g>
</g>
<!-- Node5&#45;&gt;Node14 -->
<g id="edge17_Node000005_Node000014" class="edge">
<title>Node5&#45;&gt;Node14</title>
<g id="a_edge17_Node000005_Node000014"><a xlink:title=" ">
<path fill="none" stroke="#63b8ff" d="M792.53,-167.17C861.09,-156.08 959.03,-139.81 1044.5,-124 1047.31,-123.48 1050.16,-122.95 1053.03,-122.4"/>
<polygon fill="#63b8ff" stroke="#63b8ff" points="792.17,-163.68 782.85,-168.73 793.28,-170.59 792.17,-163.68"/>
</a>
</g>
</g>
<!-- Node8&#45;&gt;Node6 -->
<g id="edge9_Node000008_Node000006" class="edge">
<title>Node8&#45;&gt;Node6</title>
<g id="a_edge9_Node000008_Node000006"><a xlink:title=" ">
<path fill="none" stroke="#63b8ff" d="M434.02,-70.22C439.81,-61.54 445.98,-52.28 451.31,-44.29"/>
<polygon fill="#63b8ff" stroke="#63b8ff" points="431.18,-68.16 428.55,-78.43 437.01,-72.05 431.18,-68.16"/>
</a>
</g>
</g>
<!-- Node9 -->
<g id="Node000009" class="node">
<title>Node9</title>
<g id="a_Node000009"><a xlink:href="_niki_script_8cpp.html" target="_top" xlink:title=" ">
<polygon fill="white" stroke="#666666" points="372,-44 221,-44 221,0 372,0 372,-44"/>
<text text-anchor="start" x="229" y="-30.5" font-family="Helvetica,sans-Serif" font-size="10.00">C:/Users/emilly/Documents</text>
<text text-anchor="start" x="229" y="-18.5" font-family="Helvetica,sans-Serif" font-size="10.00">/Lucca/Projetos/Cpp/NikiScript</text>
<text text-anchor="middle" x="296.5" y="-6.5" font-family="Helvetica,sans-Serif" font-size="10.00">/src/NikiScript.cpp</text>
</a>
</g>
</g>
<!-- Node8&#45;&gt;Node9 -->
<g id="edge10_Node000008_Node000009" class="edge">
<title>Node8&#45;&gt;Node9</title>
<g id="a_edge10_Node000008_Node000009"><a xlink:title=" ">
<path fill="none" stroke="#63b8ff" d="M372.33,-73.55C357.92,-63.95 341.97,-53.31 328.43,-44.29"/>
<polygon fill="#63b8ff" stroke="#63b8ff" points="370.01,-76.21 380.27,-78.85 373.89,-70.39 370.01,-76.21"/>
</a>
</g>
</g>
<!-- Node10&#45;&gt;Node6 -->
<g id="edge12_Node000010_Node000006" class="edge">
<title>Node10&#45;&gt;Node6</title>
<g id="a_edge12_Node000010_Node000006"><a xlink:title=" ">
<path fill="none" stroke="#63b8ff" d="M315.97,-75.78C344.69,-65.64 377.44,-54.08 404.95,-44.37"/>
<polygon fill="#63b8ff" stroke="#63b8ff" points="314.87,-72.45 306.61,-79.08 317.2,-79.05 314.87,-72.45"/>
</a>
</g>
</g>
<!-- Node10&#45;&gt;Node9 -->
<g id="edge13_Node000010_Node000009" class="edge">
<title>Node10&#45;&gt;Node9</title>
<g id="a_edge13_Node000010_Node000009"><a xlink:title=" ">
<path fill="none" stroke="#63b8ff" d="M265.02,-70.22C270.81,-61.54 276.98,-52.28 282.31,-44.29"/>
<polygon fill="#63b8ff" stroke="#63b8ff" points="262.18,-68.16 259.55,-78.43 268.01,-72.05 262.18,-68.16"/>
</a>
</g>
</g>
<!-- Node11 -->
<g id="Node000011" class="node">
<title>Node11</title>
<g id="a_Node000011"><a xlink:href="_parser_8cpp.html" target="_top" xlink:title=" ">
<polygon fill="white" stroke="#666666" points="203,-44 52,-44 52,0 203,0 203,-44"/>
<text text-anchor="start" x="60" y="-30.5" font-family="Helvetica,sans-Serif" font-size="10.00">C:/Users/emilly/Documents</text>
<text text-anchor="start" x="60" y="-18.5" font-family="Helvetica,sans-Serif" font-size="10.00">/Lucca/Projetos/Cpp/NikiScript</text>
<text text-anchor="middle" x="127.5" y="-6.5" font-family="Helvetica,sans-Serif" font-size="10.00">/src/Parser.cpp</text>
</a>
</g>
</g>
<!-- Node10&#45;&gt;Node11 -->
<g id="edge14_Node000010_Node000011" class="edge">
<title>Node10&#45;&gt;Node11</title>
<g id="a_edge14_Node000010_Node000011"><a xlink:title=" ">
<path fill="none" stroke="#63b8ff" d="M203.33,-73.55C188.92,-63.95 172.97,-53.31 159.43,-44.29"/>
<polygon fill="#63b8ff" stroke="#63b8ff" points="201.01,-76.21 211.27,-78.85 204.89,-70.39 201.01,-76.21"/>
</a>
</g>
</g>
<!-- Node15&#45;&gt;Node14 -->
<g id="edge19_Node000015_Node000014" class="edge">
<title>Node15&#45;&gt;Node14</title>
<g id="a_edge19_Node000015_Node000014"><a xlink:title=" ">
<path fill="none" stroke="#63b8ff" d="M1074.38,-153.28C1088.43,-143.74 1103.93,-133.23 1117.11,-124.29"/>
<polygon fill="#63b8ff" stroke="#63b8ff" points="1072.49,-150.33 1066.18,-158.84 1076.42,-156.12 1072.49,-150.33"/>
</a>
</g>
</g>
<!-- Node16&#45;&gt;Node15 -->
<g id="edge22_Node000016_Node000015" class="edge">
<title>Node16&#45;&gt;Node15</title>
<g id="a_edge22_Node000016_Node000015"><a xlink:title=" ">
<path fill="none" stroke="#63b8ff" d="M1041.09,-228.53C1039.72,-220.35 1038.29,-211.77 1037.05,-204.29"/>
<polygon fill="#63b8ff" stroke="#63b8ff" points="1037.6,-228.9 1042.7,-238.19 1044.51,-227.75 1037.6,-228.9"/>
</a>
</g>
</g>
<!-- Node17 -->
<g id="Node000017" class="node">
<title>Node17</title>
<g id="a_Node000017"><a xlink:href="_command_wrapper_8cpp.html" target="_top" xlink:title=" ">
<polygon fill="white" stroke="#666666" points="1297.62,-204 1141.38,-204 1141.38,-160 1297.62,-160 1297.62,-204"/>
<text text-anchor="start" x="1149.38" y="-190.5" font-family="Helvetica,sans-Serif" font-size="10.00">C:/Users/emilly/Documents</text>
<text text-anchor="start" x="1149.38" y="-178.5" font-family="Helvetica,sans-Serif" font-size="10.00">/Lucca/Projetos/Cpp/NikiScript</text>
<text text-anchor="middle" x="1219.5" y="-166.5" font-family="Helvetica,sans-Serif" font-size="10.00">/wrapper/CommandWrapper.cpp</text>
</a>
</g>
</g>
<!-- Node16&#45;&gt;Node17 -->
<g id="edge23_Node000016_Node000017" class="edge">
<title>Node16&#45;&gt;Node17</title>
<g id="a_edge23_Node000016_Node000017"><a xlink:title=" ">
<path fill="none" stroke="#63b8ff" d="M1104.01,-235.07C1126.07,-225.13 1150.97,-213.9 1171.98,-204.42"/>
<polygon fill="#63b8ff" stroke="#63b8ff" points="1102.83,-231.76 1095.15,-239.06 1105.71,-238.14 1102.83,-231.76"/>
</a>
</g>
</g>
</g>
</svg>
