<?xml version="1.0" encoding="UTF-8" standalone="no"?>
<!DOCTYPE svg PUBLIC "-//W3C//DTD SVG 1.1//EN"
 "http://www.w3.org/Graphics/SVG/1.1/DTD/svg11.dtd">
<!-- Generated by graphviz version 12.2.1 (20241206.2353)
 -->
<!-- Title: C:/Users/emilly/Documents/Lucca/Projetos/Cpp/NikiScript/src/Command.cpp Pages: 1 -->
<svg width="372pt" height="220pt"
 viewBox="0.00 0.00 372.25 220.00" xmlns="http://www.w3.org/2000/svg" xmlns:xlink="http://www.w3.org/1999/xlink">
<g id="graph0" class="graph" transform="scale(1 1) rotate(0) translate(4 216)">
<title>C:/Users/emilly/Documents/Lucca/Projetos/Cpp/NikiScript/src/Command.cpp</title>
<!-- Node1 -->
<g id="Node000001" class="node">
<title>Node1</title>
<g id="a_Node000001"><a xlink:title=" ">
<polygon fill="#999999" stroke="#666666" points="314,-212 163,-212 163,-168 314,-168 314,-212"/>
<text text-anchor="start" x="171" y="-198.5" font-family="Helvetica,sans-Serif" font-size="10.00">C:/Users/emilly/Documents</text>
<text text-anchor="start" x="171" y="-186.5" font-family="Helvetica,sans-Serif" font-size="10.00">/Lucca/Projetos/Cpp/NikiScript</text>
<text text-anchor="middle" x="238.5" y="-174.5" font-family="Helvetica,sans-Serif" font-size="10.00">/src/Command.cpp</text>
</a>
</g>
</g>
<!-- Node2 -->
<g id="Node000002" class="node">
<title>Node2</title>
<g id="a_Node000002"><a xlink:href="_command_8h.html" target="_top" xlink:title=" ">
<polygon fill="white" stroke="#666666" points="116.12,-76 46.88,-76 46.88,-56 116.12,-56 116.12,-76"/>
<text text-anchor="middle" x="81.5" y="-62.5" font-family="Helvetica,sans-Serif" font-size="10.00">Command.h</text>
</a>
</g>
</g>
<!-- Node1&#45;&gt;Node2 -->
<g id="edge1_Node000001_Node000002" class="edge">
<title>Node1&#45;&gt;Node2</title>
<g id="a_edge1_Node000001_Node000002"><a xlink:title=" ">
<path fill="none" stroke="#63b8ff" d="M198.13,-167.57C180.94,-157.68 161.06,-145.21 144.5,-132 126.53,-117.67 108.53,-98.5 96.4,-84.7"/>
<polygon fill="#63b8ff" stroke="#63b8ff" points="99.18,-82.56 90,-77.27 93.88,-87.13 99.18,-82.56"/>
</a>
</g>
</g>
<!-- Node7 -->
<g id="Node000007" class="node">
<title>Node7</title>
<g id="a_Node000007"><a xlink:title=" ">
<polygon fill="#e0e0e0" stroke="#999999" points="302.12,-20 250.88,-20 250.88,0 302.12,0 302.12,-20"/>
<text text-anchor="middle" x="276.5" y="-6.5" font-family="Helvetica,sans-Serif" font-size="10.00">sstream</text>
</a>
</g>
</g>
<!-- Node1&#45;&gt;Node7 -->
<g id="edge6_Node000001_Node000007" class="edge">
<title>Node1&#45;&gt;Node7</title>
<g id="a_edge6_Node000001_Node000007"><a xlink:title=" ">
<path fill="none" stroke="#63b8ff" d="M243.08,-167.53C250.47,-132.93 264.91,-65.29 272.15,-31.39"/>
<polygon fill="#63b8ff" stroke="#63b8ff" points="275.56,-32.18 274.22,-21.67 268.71,-30.72 275.56,-32.18"/>
</a>
</g>
</g>
<!-- Node8 -->
<g id="Node000008" class="node">
<title>Node8</title>
<g id="a_Node000008"><a xlink:href="_print_callback_8h.html" target="_top" xlink:title=" ">
<polygon fill="white" stroke="#666666" points="235.88,-132 153.12,-132 153.12,-112 235.88,-112 235.88,-132"/>
<text text-anchor="middle" x="194.5" y="-118.5" font-family="Helvetica,sans-Serif" font-size="10.00">PrintCallback.h</text>
</a>
</g>
</g>
<!-- Node1&#45;&gt;Node8 -->
<g id="edge7_Node000001_Node000008" class="edge">
<title>Node1&#45;&gt;Node8</title>
<g id="a_edge7_Node000001_Node000008"><a xlink:title=" ">
<path fill="none" stroke="#63b8ff" d="M224.34,-167.75C218.75,-159.38 212.4,-149.85 206.99,-141.74"/>
<polygon fill="#63b8ff" stroke="#63b8ff" points="210.08,-140.06 201.62,-133.68 204.25,-143.94 210.08,-140.06"/>
</a>
</g>
</g>
<!-- Node10 -->
<g id="Node000010" class="node">
<title>Node10</title>
<g id="a_Node000010"><a xlink:title=" ">
<polygon fill="#e0e0e0" stroke="#999999" points="364.25,-132 310.75,-132 310.75,-112 364.25,-112 364.25,-132"/>
<text text-anchor="middle" x="337.5" y="-118.5" font-family="Helvetica,sans-Serif" font-size="10.00">iostream</text>
</a>
</g>
</g>
<!-- Node1&#45;&gt;Node10 -->
<g id="edge16_Node000001_Node000010" class="edge">
<title>Node1&#45;&gt;Node10</title>
<g id="a_edge16_Node000001_Node000010"><a xlink:title=" ">
<path fill="none" stroke="#63b8ff" d="M270.64,-167.57C284.72,-158.19 300.94,-147.37 313.88,-138.75"/>
<polygon fill="#63b8ff" stroke="#63b8ff" points="315.81,-141.66 322.19,-133.2 311.93,-135.84 315.81,-141.66"/>
</a>
</g>
</g>
<!-- Node3 -->
<g id="Node000003" class="node">
<title>Node3</title>
<g id="a_Node000003"><a xlink:title=" ">
<polygon fill="#e0e0e0" stroke="#999999" points="43,-20 0,-20 0,0 43,0 43,-20"/>
<text text-anchor="middle" x="21.5" y="-6.5" font-family="Helvetica,sans-Serif" font-size="10.00">vector</text>
</a>
</g>
</g>
<!-- Node2&#45;&gt;Node3 -->
<g id="edge2_Node000002_Node000003" class="edge">
<title>Node2&#45;&gt;Node3</title>
<g id="a_edge2_Node000002_Node000003"><a xlink:title=" ">
<path fill="none" stroke="#63b8ff" d="M71.05,-55.59C62.53,-47.93 50.29,-36.91 40.11,-27.75"/>
<polygon fill="#63b8ff" stroke="#63b8ff" points="42.73,-25.4 32.96,-21.31 38.05,-30.6 42.73,-25.4"/>
</a>
</g>
</g>
<!-- Node4 -->
<g id="Node000004" class="node">
<title>Node4</title>
<g id="a_Node000004"><a xlink:title=" ">
<polygon fill="#e0e0e0" stroke="#999999" points="101.5,-20 61.5,-20 61.5,0 101.5,0 101.5,-20"/>
<text text-anchor="middle" x="81.5" y="-6.5" font-family="Helvetica,sans-Serif" font-size="10.00">string</text>
</a>
</g>
</g>
<!-- Node2&#45;&gt;Node4 -->
<g id="edge3_Node000002_Node000004" class="edge">
<title>Node2&#45;&gt;Node4</title>
<g id="a_edge3_Node000002_Node000004"><a xlink:title=" ">
<path fill="none" stroke="#63b8ff" d="M81.5,-55.59C81.5,-49.01 81.5,-39.96 81.5,-31.73"/>
<polygon fill="#63b8ff" stroke="#63b8ff" points="85,-31.81 81.5,-21.81 78,-31.81 85,-31.81"/>
</a>
</g>
</g>
<!-- Node5 -->
<g id="Node000005" class="node">
<title>Node5</title>
<g id="a_Node000005"><a xlink:title=" ">
<polygon fill="#e0e0e0" stroke="#999999" points="167.62,-20 119.38,-20 119.38,0 167.62,0 167.62,-20"/>
<text text-anchor="middle" x="143.5" y="-6.5" font-family="Helvetica,sans-Serif" font-size="10.00">stdint.h</text>
</a>
</g>
</g>
<!-- Node2&#45;&gt;Node5 -->
<g id="edge4_Node000002_Node000005" class="edge">
<title>Node2&#45;&gt;Node5</title>
<g id="a_edge4_Node000002_Node000005"><a xlink:title=" ">
<path fill="none" stroke="#63b8ff" d="M92.3,-55.59C101.1,-47.93 113.75,-36.91 124.27,-27.75"/>
<polygon fill="#63b8ff" stroke="#63b8ff" points="126.44,-30.5 131.68,-21.29 121.84,-25.22 126.44,-30.5"/>
</a>
</g>
</g>
<!-- Node6 -->
<g id="Node000006" class="node">
<title>Node6</title>
<g id="a_Node000006"><a xlink:href="_d_l_l_8h.html" target="_top" xlink:title=" ">
<polygon fill="white" stroke="#666666" points="227.62,-20 185.38,-20 185.38,0 227.62,0 227.62,-20"/>
<text text-anchor="middle" x="206.5" y="-6.5" font-family="Helvetica,sans-Serif" font-size="10.00">DLL.h</text>
</a>
</g>
</g>
<!-- Node2&#45;&gt;Node6 -->
<g id="edge5_Node000002_Node000006" class="edge">
<title>Node2&#45;&gt;Node6</title>
<g id="a_edge5_Node000002_Node000006"><a xlink:title=" ">
<path fill="none" stroke="#63b8ff" d="M103.27,-55.59C122.99,-47.08 152.28,-34.42 174.63,-24.77"/>
<polygon fill="#63b8ff" stroke="#63b8ff" points="175.79,-28.08 183.59,-20.9 173.02,-21.65 175.79,-28.08"/>
</a>
</g>
</g>
<!-- Node8&#45;&gt;Node4 -->
<g id="edge9_Node000008_Node000004" class="edge">
<title>Node8&#45;&gt;Node4</title>
<g id="a_edge9_Node000008_Node000004"><a xlink:title=" ">
<path fill="none" stroke="#63b8ff" d="M152.9,-114.81C111.25,-107.65 51.41,-94.45 37.5,-76 25.32,-59.84 42.08,-40.56 58.3,-27.21"/>
<polygon fill="#63b8ff" stroke="#63b8ff" points="60.07,-30.26 65.87,-21.39 55.81,-24.71 60.07,-30.26"/>
</a>
</g>
</g>
<!-- Node8&#45;&gt;Node5 -->
<g id="edge8_Node000008_Node000005" class="edge">
<title>Node8&#45;&gt;Node5</title>
<g id="a_edge8_Node000008_Node000005"><a xlink:title=" ">
<path fill="none" stroke="#63b8ff" d="M186.69,-111.52C179.79,-102.76 169.87,-89.15 163.5,-76 156.56,-61.67 151.38,-44.39 148.03,-31.25"/>
<polygon fill="#63b8ff" stroke="#63b8ff" points="151.46,-30.55 145.74,-21.63 144.65,-32.17 151.46,-30.55"/>
</a>
</g>
</g>
<!-- Node8&#45;&gt;Node6 -->
<g id="edge10_Node000008_Node000006" class="edge">
<title>Node8&#45;&gt;Node6</title>
<g id="a_edge10_Node000008_Node000006"><a xlink:title=" ">
<path fill="none" stroke="#63b8ff" d="M203.57,-111.57C211.09,-103.05 221.22,-89.77 225.5,-76 230.25,-60.72 224.58,-43.31 218.22,-30.36"/>
<polygon fill="#63b8ff" stroke="#63b8ff" points="221.31,-28.7 213.43,-21.61 215.17,-32.07 221.31,-28.7"/>
</a>
</g>
</g>
<!-- Node9 -->
<g id="Node000009" class="node">
<title>Node9</title>
<g id="a_Node000009"><a xlink:href="_utils_8h.html" target="_top" xlink:title=" ">
<polygon fill="white" stroke="#666666" points="216.75,-76 172.25,-76 172.25,-56 216.75,-56 216.75,-76"/>
<text text-anchor="middle" x="194.5" y="-62.5" font-family="Helvetica,sans-Serif" font-size="10.00">Utils.h</text>
</a>
</g>
</g>
<!-- Node8&#45;&gt;Node9 -->
<g id="edge11_Node000008_Node000009" class="edge">
<title>Node8&#45;&gt;Node9</title>
<g id="a_edge11_Node000008_Node000009"><a xlink:title=" ">
<path fill="none" stroke="#63b8ff" d="M194.5,-111.59C194.5,-105.01 194.5,-95.96 194.5,-87.73"/>
<polygon fill="#63b8ff" stroke="#63b8ff" points="198,-87.81 194.5,-77.81 191,-87.81 198,-87.81"/>
</a>
</g>
</g>
<!-- Node9&#45;&gt;Node4 -->
<g id="edge13_Node000009_Node000004" class="edge">
<title>Node9&#45;&gt;Node4</title>
<g id="a_edge13_Node000009_Node000004"><a xlink:title=" ">
<path fill="none" stroke="#63b8ff" d="M174.82,-55.59C157.34,-47.24 131.55,-34.92 111.5,-25.34"/>
<polygon fill="#63b8ff" stroke="#63b8ff" points="113.23,-22.29 102.7,-21.13 110.22,-28.6 113.23,-22.29"/>
</a>
</g>
</g>
<!-- Node9&#45;&gt;Node5 -->
<g id="edge12_Node000009_Node000005" class="edge">
<title>Node9&#45;&gt;Node5</title>
<g id="a_edge12_Node000009_Node000005"><a xlink:title=" ">
<path fill="none" stroke="#63b8ff" d="M185.62,-55.59C178.6,-48.16 168.6,-37.58 160.11,-28.58"/>
<polygon fill="#63b8ff" stroke="#63b8ff" points="162.73,-26.27 153.32,-21.4 157.64,-31.07 162.73,-26.27"/>
</a>
</g>
</g>
<!-- Node9&#45;&gt;Node6 -->
<g id="edge15_Node000009_Node000006" class="edge">
<title>Node9&#45;&gt;Node6</title>
<g id="a_edge15_Node000009_Node000006"><a xlink:title=" ">
<path fill="none" stroke="#63b8ff" d="M196.59,-55.59C198.07,-48.93 200.11,-39.75 201.96,-31.44"/>
<polygon fill="#63b8ff" stroke="#63b8ff" points="205.35,-32.3 204.11,-21.78 198.52,-30.78 205.35,-32.3"/>
</a>
</g>
</g>
<!-- Node9&#45;&gt;Node7 -->
<g id="edge14_Node000009_Node000007" class="edge">
<title>Node9&#45;&gt;Node7</title>
<g id="a_edge14_Node000009_Node000007"><a xlink:title=" ">
<path fill="none" stroke="#63b8ff" d="M208.78,-55.59C220.94,-47.59 238.64,-35.93 252.9,-26.54"/>
<polygon fill="#63b8ff" stroke="#63b8ff" points="254.41,-29.73 260.84,-21.31 250.56,-23.89 254.41,-29.73"/>
</a>
</g>
</g>
</g>
</svg>
