<?xml version="1.0" encoding="UTF-8" standalone="no"?>
<!DOCTYPE svg PUBLIC "-//W3C//DTD SVG 1.1//EN"
 "http://www.w3.org/Graphics/SVG/1.1/DTD/svg11.dtd">
<!-- Generated by graphviz version 12.2.1 (20241206.2353)
 -->
<!-- Title: C:/Users/emilly/Documents/Lucca/Projetos/Cpp/NikiScript/wrapper/CommandWrapper.cpp Pages: 1 -->
<svg width="259pt" height="164pt"
 viewBox="0.00 0.00 259.38 164.00" xmlns="http://www.w3.org/2000/svg" xmlns:xlink="http://www.w3.org/1999/xlink">
<g id="graph0" class="graph" transform="scale(1 1) rotate(0) translate(4 160)">
<title>C:/Users/emilly/Documents/Lucca/Projetos/Cpp/NikiScript/wrapper/CommandWrapper.cpp</title>
<!-- Node1 -->
<g id="Node000001" class="node">
<title>Node1</title>
<g id="a_Node000001"><a xlink:title=" ">
<polygon fill="#999999" stroke="#666666" points="249.5,-156 93.25,-156 93.25,-112 249.5,-112 249.5,-156"/>
<text text-anchor="start" x="101.25" y="-142.5" font-family="Helvetica,sans-Serif" font-size="10.00">C:/Users/emilly/Documents</text>
<text text-anchor="start" x="101.25" y="-130.5" font-family="Helvetica,sans-Serif" font-size="10.00">/Lucca/Projetos/Cpp/NikiScript</text>
<text text-anchor="middle" x="171.38" y="-118.5" font-family="Helvetica,sans-Serif" font-size="10.00">/wrapper/CommandWrapper.cpp</text>
</a>
</g>
</g>
<!-- Node2 -->
<g id="Node000002" class="node">
<title>Node2</title>
<g id="a_Node000002"><a xlink:href="_command_wrapper_8h.html" target="_top" xlink:title=" ">
<polygon fill="white" stroke="#666666" points="132,-76 26.75,-76 26.75,-56 132,-56 132,-76"/>
<text text-anchor="middle" x="79.38" y="-62.5" font-family="Helvetica,sans-Serif" font-size="10.00">CommandWrapper.h</text>
</a>
</g>
</g>
<!-- Node1&#45;&gt;Node2 -->
<g id="edge1_Node000001_Node000002" class="edge">
<title>Node1&#45;&gt;Node2</title>
<g id="a_edge1_Node000001_Node000002"><a xlink:title=" ">
<path fill="none" stroke="#63b8ff" d="M141.51,-111.57C128.55,-102.28 113.65,-91.59 101.68,-83"/>
<polygon fill="#63b8ff" stroke="#63b8ff" points="103.83,-80.23 93.66,-77.25 99.74,-85.92 103.83,-80.23"/>
</a>
</g>
</g>
<!-- Node5 -->
<g id="Node000005" class="node">
<title>Node5</title>
<g id="a_Node000005"><a xlink:title=" ">
<polygon fill="#e0e0e0" stroke="#999999" points="192.88,-76 149.88,-76 149.88,-56 192.88,-56 192.88,-76"/>
<text text-anchor="middle" x="171.38" y="-62.5" font-family="Helvetica,sans-Serif" font-size="10.00">vector</text>
</a>
</g>
</g>
<!-- Node1&#45;&gt;Node5 -->
<g id="edge4_Node000001_Node000005" class="edge">
<title>Node1&#45;&gt;Node5</title>
<g id="a_edge4_Node000001_Node000005"><a xlink:title=" ">
<path fill="none" stroke="#63b8ff" d="M171.38,-111.75C171.38,-104.13 171.38,-95.53 171.38,-87.93"/>
<polygon fill="#63b8ff" stroke="#63b8ff" points="174.88,-87.93 171.38,-77.93 167.88,-87.93 174.88,-87.93"/>
</a>
</g>
</g>
<!-- Node6 -->
<g id="Node000006" class="node">
<title>Node6</title>
<g id="a_Node000006"><a xlink:title=" ">
<polygon fill="#e0e0e0" stroke="#999999" points="251.38,-76 211.38,-76 211.38,-56 251.38,-56 251.38,-76"/>
<text text-anchor="middle" x="231.38" y="-62.5" font-family="Helvetica,sans-Serif" font-size="10.00">string</text>
</a>
</g>
</g>
<!-- Node1&#45;&gt;Node6 -->
<g id="edge5_Node000001_Node000006" class="edge">
<title>Node1&#45;&gt;Node6</title>
<g id="a_edge5_Node000001_Node000006"><a xlink:title=" ">
<path fill="none" stroke="#63b8ff" d="M190.69,-111.75C198.55,-103.1 207.55,-93.21 215.07,-84.93"/>
<polygon fill="#63b8ff" stroke="#63b8ff" points="217.66,-87.29 221.79,-77.54 212.48,-82.58 217.66,-87.29"/>
</a>
</g>
</g>
<!-- Node3 -->
<g id="Node000003" class="node">
<title>Node3</title>
<g id="a_Node000003"><a xlink:href="_d_l_l_export_8h.html" target="_top" xlink:title=" ">
<polygon fill="white" stroke="#666666" points="70.75,-20 0,-20 0,0 70.75,0 70.75,-20"/>
<text text-anchor="middle" x="35.38" y="-6.5" font-family="Helvetica,sans-Serif" font-size="10.00">DLLExport.h</text>
</a>
</g>
</g>
<!-- Node2&#45;&gt;Node3 -->
<g id="edge2_Node000002_Node000003" class="edge">
<title>Node2&#45;&gt;Node3</title>
<g id="a_edge2_Node000002_Node000003"><a xlink:title=" ">
<path fill="none" stroke="#63b8ff" d="M71.71,-55.59C65.78,-48.32 57.39,-38.02 50.16,-29.15"/>
<polygon fill="#63b8ff" stroke="#63b8ff" points="52.94,-27.01 43.91,-21.47 47.51,-31.43 52.94,-27.01"/>
</a>
</g>
</g>
<!-- Node4 -->
<g id="Node000004" class="node">
<title>Node4</title>
<g id="a_Node000004"><a xlink:title=" ">
<polygon fill="#e0e0e0" stroke="#999999" points="158,-20 88.75,-20 88.75,0 158,0 158,-20"/>
<text text-anchor="middle" x="123.38" y="-6.5" font-family="Helvetica,sans-Serif" font-size="10.00">Command.h</text>
</a>
</g>
</g>
<!-- Node2&#45;&gt;Node4 -->
<g id="edge3_Node000002_Node000004" class="edge">
<title>Node2&#45;&gt;Node4</title>
<g id="a_edge3_Node000002_Node000004"><a xlink:title=" ">
<path fill="none" stroke="#63b8ff" d="M87.04,-55.59C92.97,-48.32 101.36,-38.02 108.59,-29.15"/>
<polygon fill="#63b8ff" stroke="#63b8ff" points="111.24,-31.43 114.84,-21.47 105.81,-27.01 111.24,-31.43"/>
</a>
</g>
</g>
</g>
</svg>
