<?xml version="1.0" encoding="UTF-8" standalone="no"?>
<!DOCTYPE svg PUBLIC "-//W3C//DTD SVG 1.1//EN"
 "http://www.w3.org/Graphics/SVG/1.1/DTD/svg11.dtd">
<!-- Generated by graphviz version 12.2.1 (20241206.2353)
 -->
<!-- Title: C:/Users/emilly/Documents/Lucca/Projetos/Cpp/NikiScript/src/CommandHandler.cpp Pages: 1 -->
<svg width="817pt" height="276pt"
 viewBox="0.00 0.00 817.05 276.00" xmlns="http://www.w3.org/2000/svg" xmlns:xlink="http://www.w3.org/1999/xlink">
<g id="graph0" class="graph" transform="scale(1 1) rotate(0) translate(4 272)">
<title>C:/Users/emilly/Documents/Lucca/Projetos/Cpp/NikiScript/src/CommandHandler.cpp</title>
<!-- Node1 -->
<g id="Node000001" class="node">
<title>Node1</title>
<g id="a_Node000001"><a xlink:title=" ">
<polygon fill="#999999" stroke="#666666" points="243.92,-268 92.92,-268 92.92,-224 243.92,-224 243.92,-268"/>
<text text-anchor="start" x="100.92" y="-254.5" font-family="Helvetica,sans-Serif" font-size="10.00">C:/Users/emilly/Documents</text>
<text text-anchor="start" x="100.92" y="-242.5" font-family="Helvetica,sans-Serif" font-size="10.00">/Lucca/Projetos/Cpp/NikiScript</text>
<text text-anchor="middle" x="168.42" y="-230.5" font-family="Helvetica,sans-Serif" font-size="10.00">/src/CommandHandler.cpp</text>
</a>
</g>
</g>
<!-- Node2 -->
<g id="Node000002" class="node">
<title>Node2</title>
<g id="a_Node000002"><a xlink:href="_command_handler_8h.html" target="_top" xlink:title=" ">
<polygon fill="white" stroke="#666666" points="160.92,-132 57.92,-132 57.92,-112 160.92,-112 160.92,-132"/>
<text text-anchor="middle" x="109.42" y="-118.5" font-family="Helvetica,sans-Serif" font-size="10.00">CommandHandler.h</text>
</a>
</g>
</g>
<!-- Node1&#45;&gt;Node2 -->
<g id="edge1_Node000001_Node000002" class="edge">
<title>Node1&#45;&gt;Node2</title>
<g id="a_edge1_Node000001_Node000002"><a xlink:title=" ">
<path fill="none" stroke="#63b8ff" d="M158.15,-223.75C147.07,-200.84 129.59,-164.69 118.85,-142.49"/>
<polygon fill="#63b8ff" stroke="#63b8ff" points="122.09,-141.14 114.58,-133.66 115.78,-144.19 122.09,-141.14"/>
</a>
</g>
</g>
<!-- Node9 -->
<g id="Node000009" class="node">
<title>Node9</title>
<g id="a_Node000009"><a xlink:href="_context_8h.html" target="_top" xlink:title=" ">
<polygon fill="white" stroke="#666666" points="256.8,-188 198.05,-188 198.05,-168 256.8,-168 256.8,-188"/>
<text text-anchor="middle" x="227.42" y="-174.5" font-family="Helvetica,sans-Serif" font-size="10.00">Context.h</text>
</a>
</g>
</g>
<!-- Node1&#45;&gt;Node9 -->
<g id="edge10_Node000001_Node000009" class="edge">
<title>Node1&#45;&gt;Node9</title>
<g id="a_edge10_Node000001_Node000009"><a xlink:title=" ">
<path fill="none" stroke="#63b8ff" d="M187.42,-223.75C195.15,-215.1 203.99,-205.21 211.4,-196.93"/>
<polygon fill="#63b8ff" stroke="#63b8ff" points="213.94,-199.34 218,-189.55 208.72,-194.67 213.94,-199.34"/>
</a>
</g>
</g>
<!-- Node3 -->
<g id="Node000003" class="node">
<title>Node3</title>
<g id="a_Node000003"><a xlink:title=" ">
<polygon fill="#e0e0e0" stroke="#999999" points="244.8,-76 162.05,-76 162.05,-56 244.8,-56 244.8,-76"/>
<text text-anchor="middle" x="203.42" y="-62.5" font-family="Helvetica,sans-Serif" font-size="10.00">unordered_map</text>
</a>
</g>
</g>
<!-- Node2&#45;&gt;Node3 -->
<g id="edge2_Node000002_Node000003" class="edge">
<title>Node2&#45;&gt;Node3</title>
<g id="a_edge2_Node000002_Node000003"><a xlink:title=" ">
<path fill="none" stroke="#63b8ff" d="M125.8,-111.59C140,-103.44 160.81,-91.48 177.31,-82"/>
<polygon fill="#63b8ff" stroke="#63b8ff" points="178.68,-85.25 185.61,-77.23 175.2,-79.18 178.68,-85.25"/>
</a>
</g>
</g>
<!-- Node4 -->
<g id="Node000004" class="node">
<title>Node4</title>
<g id="a_Node000004"><a xlink:title=" ">
<polygon fill="#e0e0e0" stroke="#999999" points="474.42,-20 434.42,-20 434.42,0 474.42,0 474.42,-20"/>
<text text-anchor="middle" x="454.42" y="-6.5" font-family="Helvetica,sans-Serif" font-size="10.00">string</text>
</a>
</g>
</g>
<!-- Node2&#45;&gt;Node4 -->
<g id="edge3_Node000002_Node000004" class="edge">
<title>Node2&#45;&gt;Node4</title>
<g id="a_edge3_Node000002_Node000004"><a xlink:title=" ">
<path fill="none" stroke="#63b8ff" d="M95.17,-111.62C76.86,-98.46 49.29,-74.11 65.42,-56 77.3,-42.67 331.68,-20.91 422.53,-13.54"/>
<polygon fill="#63b8ff" stroke="#63b8ff" points="422.79,-17.03 432.47,-12.73 422.22,-10.05 422.79,-17.03"/>
</a>
</g>
</g>
<!-- Node5 -->
<g id="Node000005" class="node">
<title>Node5</title>
<g id="a_Node000005"><a xlink:href="_command_8h.html" target="_top" xlink:title=" ">
<polygon fill="white" stroke="#666666" points="144.05,-76 74.8,-76 74.8,-56 144.05,-56 144.05,-76"/>
<text text-anchor="middle" x="109.42" y="-62.5" font-family="Helvetica,sans-Serif" font-size="10.00">Command.h</text>
</a>
</g>
</g>
<!-- Node2&#45;&gt;Node5 -->
<g id="edge4_Node000002_Node000005" class="edge">
<title>Node2&#45;&gt;Node5</title>
<g id="a_edge4_Node000002_Node000005"><a xlink:title=" ">
<path fill="none" stroke="#63b8ff" d="M109.42,-111.59C109.42,-105.01 109.42,-95.96 109.42,-87.73"/>
<polygon fill="#63b8ff" stroke="#63b8ff" points="112.92,-87.81 109.42,-77.81 105.92,-87.81 112.92,-87.81"/>
</a>
</g>
</g>
<!-- Node8 -->
<g id="Node000008" class="node">
<title>Node8</title>
<g id="a_Node000008"><a xlink:href="_d_l_l_8h.html" target="_top" xlink:title=" ">
<polygon fill="white" stroke="#666666" points="319.55,-20 277.3,-20 277.3,0 319.55,0 319.55,-20"/>
<text text-anchor="middle" x="298.42" y="-6.5" font-family="Helvetica,sans-Serif" font-size="10.00">DLL.h</text>
</a>
</g>
</g>
<!-- Node2&#45;&gt;Node8 -->
<g id="edge9_Node000002_Node000008" class="edge">
<title>Node2&#45;&gt;Node8</title>
<g id="a_edge9_Node000002_Node000008"><a xlink:title=" ">
<path fill="none" stroke="#63b8ff" d="M82.44,-111.51C53.25,-99.8 13.29,-78.65 32.42,-56 61.96,-21.05 201.39,-13.24 265.74,-11.5"/>
<polygon fill="#63b8ff" stroke="#63b8ff" points="265.76,-15 275.68,-11.26 265.6,-8 265.76,-15"/>
</a>
</g>
</g>
<!-- Node5&#45;&gt;Node4 -->
<g id="edge6_Node000005_Node000004" class="edge">
<title>Node5&#45;&gt;Node4</title>
<g id="a_edge6_Node000005_Node000004"><a xlink:title=" ">
<path fill="none" stroke="#63b8ff" d="M144.46,-57.66C147.49,-57.08 150.51,-56.52 153.42,-56 251.14,-38.72 367.47,-22.57 422.52,-15.2"/>
<polygon fill="#63b8ff" stroke="#63b8ff" points="422.98,-18.67 432.43,-13.88 422.05,-11.73 422.98,-18.67"/>
</a>
</g>
</g>
<!-- Node6 -->
<g id="Node000006" class="node">
<title>Node6</title>
<g id="a_Node000006"><a xlink:title=" ">
<polygon fill="#e0e0e0" stroke="#999999" points="130.92,-20 87.92,-20 87.92,0 130.92,0 130.92,-20"/>
<text text-anchor="middle" x="109.42" y="-6.5" font-family="Helvetica,sans-Serif" font-size="10.00">vector</text>
</a>
</g>
</g>
<!-- Node5&#45;&gt;Node6 -->
<g id="edge5_Node000005_Node000006" class="edge">
<title>Node5&#45;&gt;Node6</title>
<g id="a_edge5_Node000005_Node000006"><a xlink:title=" ">
<path fill="none" stroke="#63b8ff" d="M109.42,-55.59C109.42,-49.01 109.42,-39.96 109.42,-31.73"/>
<polygon fill="#63b8ff" stroke="#63b8ff" points="112.92,-31.81 109.42,-21.81 105.92,-31.81 112.92,-31.81"/>
</a>
</g>
</g>
<!-- Node7 -->
<g id="Node000007" class="node">
<title>Node7</title>
<g id="a_Node000007"><a xlink:title=" ">
<polygon fill="#e0e0e0" stroke="#999999" points="652.55,-20 604.3,-20 604.3,0 652.55,0 652.55,-20"/>
<text text-anchor="middle" x="628.42" y="-6.5" font-family="Helvetica,sans-Serif" font-size="10.00">stdint.h</text>
</a>
</g>
</g>
<!-- Node5&#45;&gt;Node7 -->
<g id="edge7_Node000005_Node000007" class="edge">
<title>Node5&#45;&gt;Node7</title>
<g id="a_edge7_Node000005_Node000007"><a xlink:title=" ">
<path fill="none" stroke="#63b8ff" d="M144.43,-57.49C147.46,-56.94 150.49,-56.44 153.42,-56 316.49,-31.67 513.12,-17.97 592.55,-13.08"/>
<polygon fill="#63b8ff" stroke="#63b8ff" points="592.56,-16.59 602.33,-12.49 592.14,-9.6 592.56,-16.59"/>
</a>
</g>
</g>
<!-- Node5&#45;&gt;Node8 -->
<g id="edge8_Node000005_Node000008" class="edge">
<title>Node5&#45;&gt;Node8</title>
<g id="a_edge8_Node000005_Node000008"><a xlink:title=" ">
<path fill="none" stroke="#63b8ff" d="M142.35,-55.59C177.12,-45.66 231.61,-30.09 266.14,-20.22"/>
<polygon fill="#63b8ff" stroke="#63b8ff" points="266.92,-23.64 275.58,-17.53 265,-16.91 266.92,-23.64"/>
</a>
</g>
</g>
<!-- Node9&#45;&gt;Node2 -->
<g id="edge16_Node000009_Node000002" class="edge">
<title>Node9&#45;&gt;Node2</title>
<g id="a_edge16_Node000009_Node000002"><a xlink:title=" ">
<path fill="none" stroke="#63b8ff" d="M206.87,-167.59C188.54,-159.21 161.44,-146.8 140.47,-137.21"/>
<polygon fill="#63b8ff" stroke="#63b8ff" points="142.07,-134.09 131.52,-133.11 139.15,-140.45 142.07,-134.09"/>
</a>
</g>
</g>
<!-- Node9&#45;&gt;Node3 -->
<g id="edge14_Node000009_Node000003" class="edge">
<title>Node9&#45;&gt;Node3</title>
<g id="a_edge14_Node000009_Node000003"><a xlink:title=" ">
<path fill="none" stroke="#63b8ff" d="M225.38,-167.62C221.52,-149.92 213.08,-111.24 207.86,-87.32"/>
<polygon fill="#63b8ff" stroke="#63b8ff" points="211.34,-86.86 205.79,-77.83 204.5,-88.35 211.34,-86.86"/>
</a>
</g>
</g>
<!-- Node9&#45;&gt;Node4 -->
<g id="edge13_Node000009_Node000004" class="edge">
<title>Node9&#45;&gt;Node4</title>
<g id="a_edge13_Node000009_Node000004"><a xlink:title=" ">
<path fill="none" stroke="#63b8ff" d="M257.19,-177.59C310.7,-177.53 425.53,-172.23 511.42,-132 545.65,-115.97 559.81,-110.42 575.42,-76 593,-37.28 527.38,-20.96 485.94,-14.63"/>
<polygon fill="#63b8ff" stroke="#63b8ff" points="486.62,-11.19 476.23,-13.27 485.65,-18.12 486.62,-11.19"/>
</a>
</g>
</g>
<!-- Node9&#45;&gt;Node5 -->
<g id="edge15_Node000009_Node000005" class="edge">
<title>Node9&#45;&gt;Node5</title>
<g id="a_edge15_Node000009_Node000005"><a xlink:title=" ">
<path fill="none" stroke="#63b8ff" d="M220.25,-167.61C209.97,-154.44 190.1,-130.08 170.42,-112 158.77,-101.29 144.59,-90.7 132.84,-82.49"/>
<polygon fill="#63b8ff" stroke="#63b8ff" points="135.13,-79.82 124.9,-77.06 131.18,-85.6 135.13,-79.82"/>
</a>
</g>
</g>
<!-- Node9&#45;&gt;Node6 -->
<g id="edge11_Node000009_Node000006" class="edge">
<title>Node9&#45;&gt;Node6</title>
<g id="a_edge11_Node000009_Node000006"><a xlink:title=" ">
<path fill="none" stroke="#63b8ff" d="M197.8,-174.15C147.84,-168.75 49.87,-155.43 25.42,-132 0.57,-108.18 -8.21,-84.95 10.42,-56 24.94,-33.46 53.81,-22.08 76.65,-16.41"/>
<polygon fill="#63b8ff" stroke="#63b8ff" points="77.12,-19.89 86.13,-14.33 75.62,-13.06 77.12,-19.89"/>
</a>
</g>
</g>
<!-- Node9&#45;&gt;Node7 -->
<g id="edge12_Node000009_Node000007" class="edge">
<title>Node9&#45;&gt;Node7</title>
<g id="a_edge12_Node000009_Node000007"><a xlink:title=" ">
<path fill="none" stroke="#63b8ff" d="M257.18,-176.39C362.46,-173.95 713.15,-163.53 751.42,-132 778.07,-110.05 787.73,-83.91 767.42,-56 744.04,-23.85 697.18,-14.2 664.36,-11.55"/>
<polygon fill="#63b8ff" stroke="#63b8ff" points="664.67,-8.06 654.48,-10.95 664.25,-15.05 664.67,-8.06"/>
</a>
</g>
</g>
<!-- Node9&#45;&gt;Node8 -->
<g id="edge41_Node000009_Node000008" class="edge">
<title>Node9&#45;&gt;Node8</title>
<g id="a_edge41_Node000009_Node000008"><a xlink:title=" ">
<path fill="none" stroke="#63b8ff" d="M197.81,-177.01C159.4,-175.5 92.26,-167.49 49.42,-132 21.93,-109.22 0.31,-83.21 23.42,-56 39.01,-37.66 196.52,-20.64 265.9,-13.97"/>
<polygon fill="#63b8ff" stroke="#63b8ff" points="265.88,-17.49 275.51,-13.06 265.22,-10.52 265.88,-17.49"/>
</a>
</g>
</g>
<!-- Node10 -->
<g id="Node000010" class="node">
<title>Node10</title>
<g id="a_Node000010"><a xlink:href="_print_callback_8h.html" target="_top" xlink:title=" ">
<polygon fill="white" stroke="#666666" points="742.8,-132 660.05,-132 660.05,-112 742.8,-112 742.8,-132"/>
<text text-anchor="middle" x="701.42" y="-118.5" font-family="Helvetica,sans-Serif" font-size="10.00">PrintCallback.h</text>
</a>
</g>
</g>
<!-- Node9&#45;&gt;Node10 -->
<g id="edge17_Node000009_Node000010" class="edge">
<title>Node9&#45;&gt;Node10</title>
<g id="a_edge17_Node000009_Node000010"><a xlink:title=" ">
<path fill="none" stroke="#63b8ff" d="M257.21,-174.37C325.94,-168.18 500.88,-151.71 646.42,-132 647.1,-131.91 647.78,-131.82 648.46,-131.72"/>
<polygon fill="#63b8ff" stroke="#63b8ff" points="648.83,-135.2 658.22,-130.29 647.82,-128.28 648.83,-135.2"/>
</a>
</g>
</g>
<!-- Node13 -->
<g id="Node000013" class="node">
<title>Node13</title>
<g id="a_Node000013"><a xlink:href="_program_variable_8h.html" target="_top" xlink:title=" ">
<polygon fill="white" stroke="#666666" points="502.17,-132 406.67,-132 406.67,-112 502.17,-112 502.17,-132"/>
<text text-anchor="middle" x="454.42" y="-118.5" font-family="Helvetica,sans-Serif" font-size="10.00">ProgramVariable.h</text>
</a>
</g>
</g>
<!-- Node9&#45;&gt;Node13 -->
<g id="edge26_Node000009_Node000013" class="edge">
<title>Node9&#45;&gt;Node13</title>
<g id="a_edge26_Node000009_Node000013"><a xlink:title=" ">
<path fill="none" stroke="#63b8ff" d="M257.1,-169.94C294.33,-161.09 358.73,-145.76 403.8,-135.04"/>
<polygon fill="#63b8ff" stroke="#63b8ff" points="404.43,-138.49 413.35,-132.77 402.81,-131.68 404.43,-138.49"/>
</a>
</g>
</g>
<!-- Node15 -->
<g id="Node000015" class="node">
<title>Node15</title>
<g id="a_Node000015"><a xlink:href="_lexer_8h.html" target="_top" xlink:title=" ">
<polygon fill="white" stroke="#666666" points="349.55,-132 301.3,-132 301.3,-112 349.55,-112 349.55,-132"/>
<text text-anchor="middle" x="325.42" y="-118.5" font-family="Helvetica,sans-Serif" font-size="10.00">Lexer.h</text>
</a>
</g>
</g>
<!-- Node9&#45;&gt;Node15 -->
<g id="edge32_Node000009_Node000015" class="edge">
<title>Node9&#45;&gt;Node15</title>
<g id="a_edge32_Node000009_Node000015"><a xlink:title=" ">
<path fill="none" stroke="#63b8ff" d="M244.5,-167.59C259.3,-159.44 280.99,-147.48 298.19,-138"/>
<polygon fill="#63b8ff" stroke="#63b8ff" points="299.83,-141.1 306.9,-133.21 296.45,-134.97 299.83,-141.1"/>
</a>
</g>
</g>
<!-- Node10&#45;&gt;Node4 -->
<g id="edge19_Node000010_Node000004" class="edge">
<title>Node10&#45;&gt;Node4</title>
<g id="a_edge19_Node000010_Node000004"><a xlink:title=" ">
<path fill="none" stroke="#63b8ff" d="M696.33,-111.84C687.89,-97.57 669.62,-70.2 646.42,-56 596.02,-25.14 526.28,-15.44 486.21,-12.39"/>
<polygon fill="#63b8ff" stroke="#63b8ff" points="486.49,-8.9 476.29,-11.74 486.04,-15.89 486.49,-8.9"/>
</a>
</g>
</g>
<!-- Node10&#45;&gt;Node7 -->
<g id="edge18_Node000010_Node000007" class="edge">
<title>Node10&#45;&gt;Node7</title>
<g id="a_edge18_Node000010_Node000007"><a xlink:title=" ">
<path fill="none" stroke="#63b8ff" d="M717.9,-111.52C737.42,-99.04 765.62,-76.3 751.42,-56 731.9,-28.07 693.09,-17.42 664.26,-13.39"/>
<polygon fill="#63b8ff" stroke="#63b8ff" points="664.83,-9.93 654.49,-12.25 664.02,-16.88 664.83,-9.93"/>
</a>
</g>
</g>
<!-- Node10&#45;&gt;Node8 -->
<g id="edge20_Node000010_Node000008" class="edge">
<title>Node10&#45;&gt;Node8</title>
<g id="a_edge20_Node000010_Node000008"><a xlink:title=" ">
<path fill="none" stroke="#63b8ff" d="M686.97,-111.6C664.21,-97.26 618.2,-70.11 575.42,-56 490.01,-27.82 383.73,-16.88 331.1,-12.97"/>
<polygon fill="#63b8ff" stroke="#63b8ff" points="331.54,-9.49 321.32,-12.29 331.05,-16.48 331.54,-9.49"/>
</a>
</g>
</g>
<!-- Node11 -->
<g id="Node000011" class="node">
<title>Node11</title>
<g id="a_Node000011"><a xlink:href="_utils_8h.html" target="_top" xlink:title=" ">
<polygon fill="white" stroke="#666666" points="742.67,-76 698.17,-76 698.17,-56 742.67,-56 742.67,-76"/>
<text text-anchor="middle" x="720.42" y="-62.5" font-family="Helvetica,sans-Serif" font-size="10.00">Utils.h</text>
</a>
</g>
</g>
<!-- Node10&#45;&gt;Node11 -->
<g id="edge21_Node000010_Node000011" class="edge">
<title>Node10&#45;&gt;Node11</title>
<g id="a_edge21_Node000010_Node000011"><a xlink:title=" ">
<path fill="none" stroke="#63b8ff" d="M704.73,-111.59C707.1,-104.86 710.39,-95.53 713.33,-87.15"/>
<polygon fill="#63b8ff" stroke="#63b8ff" points="716.63,-88.32 716.65,-77.73 710.03,-86 716.63,-88.32"/>
</a>
</g>
</g>
<!-- Node11&#45;&gt;Node4 -->
<g id="edge23_Node000011_Node000004" class="edge">
<title>Node11&#45;&gt;Node4</title>
<g id="a_edge23_Node000011_Node000004"><a xlink:title=" ">
<path fill="none" stroke="#63b8ff" d="M698,-59.2C693.51,-58.1 688.83,-56.98 684.42,-56 613.85,-40.28 530.43,-24.7 486,-16.64"/>
<polygon fill="#63b8ff" stroke="#63b8ff" points="486.76,-13.22 476.29,-14.89 485.51,-20.11 486.76,-13.22"/>
</a>
</g>
</g>
<!-- Node11&#45;&gt;Node7 -->
<g id="edge22_Node000011_Node000007" class="edge">
<title>Node11&#45;&gt;Node7</title>
<g id="a_edge22_Node000011_Node000007"><a xlink:title=" ">
<path fill="none" stroke="#63b8ff" d="M704.4,-55.59C690.63,-47.51 670.52,-35.71 654.45,-26.27"/>
<polygon fill="#63b8ff" stroke="#63b8ff" points="656.28,-23.29 645.88,-21.25 652.73,-29.33 656.28,-23.29"/>
</a>
</g>
</g>
<!-- Node11&#45;&gt;Node8 -->
<g id="edge25_Node000011_Node000008" class="edge">
<title>Node11&#45;&gt;Node8</title>
<g id="a_edge25_Node000011_Node000008"><a xlink:title=" ">
<path fill="none" stroke="#63b8ff" d="M697.74,-62.1C627.56,-53.12 413.82,-25.77 331.36,-15.21"/>
<polygon fill="#63b8ff" stroke="#63b8ff" points="331.82,-11.74 321.46,-13.95 330.93,-18.69 331.82,-11.74"/>
</a>
</g>
</g>
<!-- Node12 -->
<g id="Node000012" class="node">
<title>Node12</title>
<g id="a_Node000012"><a xlink:title=" ">
<polygon fill="#e0e0e0" stroke="#999999" points="809.05,-20 757.8,-20 757.8,0 809.05,0 809.05,-20"/>
<text text-anchor="middle" x="783.42" y="-6.5" font-family="Helvetica,sans-Serif" font-size="10.00">sstream</text>
</a>
</g>
</g>
<!-- Node11&#45;&gt;Node12 -->
<g id="edge24_Node000011_Node000012" class="edge">
<title>Node11&#45;&gt;Node12</title>
<g id="a_edge24_Node000011_Node000012"><a xlink:title=" ">
<path fill="none" stroke="#63b8ff" d="M731.4,-55.59C740.34,-47.93 753.2,-36.91 763.89,-27.75"/>
<polygon fill="#63b8ff" stroke="#63b8ff" points="766.11,-30.45 771.43,-21.28 761.56,-25.13 766.11,-30.45"/>
</a>
</g>
</g>
<!-- Node13&#45;&gt;Node3 -->
<g id="edge30_Node000013_Node000003" class="edge">
<title>Node13&#45;&gt;Node3</title>
<g id="a_edge30_Node000013_Node000003"><a xlink:title=" ">
<path fill="none" stroke="#63b8ff" d="M410.42,-111.53C367.51,-102.3 302.23,-88.26 256.48,-78.41"/>
<polygon fill="#63b8ff" stroke="#63b8ff" points="257.28,-75.01 246.77,-76.33 255.81,-81.85 257.28,-75.01"/>
</a>
</g>
</g>
<!-- Node13&#45;&gt;Node4 -->
<g id="edge27_Node000013_Node000004" class="edge">
<title>Node13&#45;&gt;Node4</title>
<g id="a_edge27_Node000013_Node000004"><a xlink:title=" ">
<path fill="none" stroke="#63b8ff" d="M454.42,-111.62C454.42,-94.01 454.42,-55.59 454.42,-31.65"/>
<polygon fill="#63b8ff" stroke="#63b8ff" points="457.92,-31.87 454.42,-21.87 450.92,-31.87 457.92,-31.87"/>
</a>
</g>
</g>
<!-- Node13&#45;&gt;Node8 -->
<g id="edge31_Node000013_Node000008" class="edge">
<title>Node13&#45;&gt;Node8</title>
<g id="a_edge31_Node000013_Node000008"><a xlink:title=" ">
<path fill="none" stroke="#63b8ff" d="M441.12,-111.62C414.41,-92.79 353.99,-50.18 320.99,-26.91"/>
<polygon fill="#63b8ff" stroke="#63b8ff" points="323.12,-24.13 312.93,-21.23 319.08,-29.85 323.12,-24.13"/>
</a>
</g>
</g>
<!-- Node13&#45;&gt;Node12 -->
<g id="edge29_Node000013_Node000012" class="edge">
<title>Node13&#45;&gt;Node12</title>
<g id="a_edge29_Node000013_Node000012"><a xlink:title=" ">
<path fill="none" stroke="#63b8ff" d="M502.5,-119.05C576.22,-115.19 712.71,-104.34 751.42,-76 766.02,-65.32 774.31,-46.14 778.78,-31.37"/>
<polygon fill="#63b8ff" stroke="#63b8ff" points="782.15,-32.31 781.3,-21.75 775.38,-30.54 782.15,-32.31"/>
</a>
</g>
</g>
<!-- Node14 -->
<g id="Node000014" class="node">
<title>Node14</title>
<g id="a_Node000014"><a xlink:title=" ">
<polygon fill="#e0e0e0" stroke="#999999" points="566.05,-76 520.8,-76 520.8,-56 566.05,-56 566.05,-76"/>
<text text-anchor="middle" x="543.42" y="-62.5" font-family="Helvetica,sans-Serif" font-size="10.00">cstring</text>
</a>
</g>
</g>
<!-- Node13&#45;&gt;Node14 -->
<g id="edge28_Node000013_Node000014" class="edge">
<title>Node13&#45;&gt;Node14</title>
<g id="a_edge28_Node000013_Node000014"><a xlink:title=" ">
<path fill="none" stroke="#63b8ff" d="M469.93,-111.59C483.25,-103.51 502.7,-91.71 518.25,-82.27"/>
<polygon fill="#63b8ff" stroke="#63b8ff" points="519.77,-85.44 526.51,-77.26 516.14,-79.46 519.77,-85.44"/>
</a>
</g>
</g>
<!-- Node15&#45;&gt;Node4 -->
<g id="edge34_Node000015_Node000004" class="edge">
<title>Node15&#45;&gt;Node4</title>
<g id="a_edge34_Node000015_Node000004"><a xlink:title=" ">
<path fill="none" stroke="#63b8ff" d="M336.42,-111.62C358.22,-93.03 407.19,-51.28 434.7,-27.82"/>
<polygon fill="#63b8ff" stroke="#63b8ff" points="436.96,-30.49 442.3,-21.34 432.42,-25.16 436.96,-30.49"/>
</a>
</g>
</g>
<!-- Node15&#45;&gt;Node7 -->
<g id="edge33_Node000015_Node000007" class="edge">
<title>Node15&#45;&gt;Node7</title>
<g id="a_edge33_Node000015_Node000007"><a xlink:title=" ">
<path fill="none" stroke="#63b8ff" d="M349.96,-112.09C403.55,-92.64 531.18,-46.3 593.28,-23.76"/>
<polygon fill="#63b8ff" stroke="#63b8ff" points="594.45,-27.06 602.66,-20.35 592.06,-20.48 594.45,-27.06"/>
</a>
</g>
</g>
<!-- Node15&#45;&gt;Node8 -->
<g id="edge40_Node000015_Node000008" class="edge">
<title>Node15&#45;&gt;Node8</title>
<g id="a_edge40_Node000015_Node000008"><a xlink:title=" ">
<path fill="none" stroke="#63b8ff" d="M315.49,-111.74C307.26,-103.33 296.16,-90.11 291.42,-76 286.56,-61.48 288.76,-44.22 291.94,-31.13"/>
<polygon fill="#63b8ff" stroke="#63b8ff" points="295.3,-32.12 294.67,-21.55 288.56,-30.21 295.3,-32.12"/>
</a>
</g>
</g>
<!-- Node16 -->
<g id="Node000016" class="node">
<title>Node16</title>
<g id="a_Node000016"><a xlink:href="_token_8h.html" target="_top" xlink:title=" ">
<polygon fill="white" stroke="#666666" points="350.67,-76 300.17,-76 300.17,-56 350.67,-56 350.67,-76"/>
<text text-anchor="middle" x="325.42" y="-62.5" font-family="Helvetica,sans-Serif" font-size="10.00">Token.h</text>
</a>
</g>
</g>
<!-- Node15&#45;&gt;Node16 -->
<g id="edge35_Node000015_Node000016" class="edge">
<title>Node15&#45;&gt;Node16</title>
<g id="a_edge35_Node000015_Node000016"><a xlink:title=" ">
<path fill="none" stroke="#63b8ff" d="M325.42,-111.59C325.42,-105.01 325.42,-95.96 325.42,-87.73"/>
<polygon fill="#63b8ff" stroke="#63b8ff" points="328.92,-87.81 325.42,-77.81 321.92,-87.81 328.92,-87.81"/>
</a>
</g>
</g>
<!-- Node16&#45;&gt;Node4 -->
<g id="edge37_Node000016_Node000004" class="edge">
<title>Node16&#45;&gt;Node4</title>
<g id="a_edge37_Node000016_Node000004"><a xlink:title=" ">
<path fill="none" stroke="#63b8ff" d="M347.89,-55.59C368.96,-46.78 400.61,-33.53 423.95,-23.76"/>
<polygon fill="#63b8ff" stroke="#63b8ff" points="425.06,-27.09 432.93,-20 422.36,-20.63 425.06,-27.09"/>
</a>
</g>
</g>
<!-- Node16&#45;&gt;Node6 -->
<g id="edge38_Node000016_Node000006" class="edge">
<title>Node16&#45;&gt;Node6</title>
<g id="a_edge38_Node000016_Node000006"><a xlink:title=" ">
<path fill="none" stroke="#63b8ff" d="M299.8,-58.59C260.49,-48.77 185.34,-29.98 142.15,-19.18"/>
<polygon fill="#63b8ff" stroke="#63b8ff" points="143.14,-15.82 132.59,-16.79 141.45,-22.61 143.14,-15.82"/>
</a>
</g>
</g>
<!-- Node16&#45;&gt;Node7 -->
<g id="edge36_Node000016_Node000007" class="edge">
<title>Node16&#45;&gt;Node7</title>
<g id="a_edge36_Node000016_Node000007"><a xlink:title=" ">
<path fill="none" stroke="#63b8ff" d="M351,-60.44C405.01,-50.82 530.84,-28.39 592.74,-17.36"/>
<polygon fill="#63b8ff" stroke="#63b8ff" points="593.15,-20.84 602.39,-15.64 591.93,-13.95 593.15,-20.84"/>
</a>
</g>
</g>
<!-- Node16&#45;&gt;Node8 -->
<g id="edge39_Node000016_Node000008" class="edge">
<title>Node16&#45;&gt;Node8</title>
<g id="a_edge39_Node000016_Node000008"><a xlink:title=" ">
<path fill="none" stroke="#63b8ff" d="M320.72,-55.59C317.28,-48.7 312.48,-39.1 308.21,-30.57"/>
<polygon fill="#63b8ff" stroke="#63b8ff" points="311.35,-29.03 303.75,-21.65 305.09,-32.16 311.35,-29.03"/>
</a>
</g>
</g>
</g>
</svg>
