<?xml version="1.0" encoding="UTF-8" standalone="no"?>
<!DOCTYPE svg PUBLIC "-//W3C//DTD SVG 1.1//EN"
 "http://www.w3.org/Graphics/SVG/1.1/DTD/svg11.dtd">
<!-- Generated by graphviz version 12.2.1 (20241206.2353)
 -->
<!-- Title: C:/Users/emilly/Documents/Lucca/Projetos/Cpp/NikiScript/wrapper/CommandWrapper.h Pages: 1 -->
<svg width="218pt" height="164pt"
 viewBox="0.00 0.00 217.50 164.00" xmlns="http://www.w3.org/2000/svg" xmlns:xlink="http://www.w3.org/1999/xlink">
<g id="graph0" class="graph" transform="scale(1 1) rotate(0) translate(4 160)">
<title>C:/Users/emilly/Documents/Lucca/Projetos/Cpp/NikiScript/wrapper/CommandWrapper.h</title>
<!-- Node1 -->
<g id="Node000001" class="node">
<title>Node1</title>
<g id="a_Node000001"><a xlink:title=" ">
<polygon fill="#999999" stroke="#666666" points="154.88,-156 3.88,-156 3.88,-112 154.88,-112 154.88,-156"/>
<text text-anchor="start" x="11.88" y="-142.5" font-family="Helvetica,sans-Serif" font-size="10.00">C:/Users/emilly/Documents</text>
<text text-anchor="start" x="11.88" y="-130.5" font-family="Helvetica,sans-Serif" font-size="10.00">/Lucca/Projetos/Cpp/NikiScript</text>
<text text-anchor="middle" x="79.38" y="-118.5" font-family="Helvetica,sans-Serif" font-size="10.00">/wrapper/CommandWrapper.h</text>
</a>
</g>
</g>
<!-- Node2 -->
<g id="Node000002" class="node">
<title>Node2</title>
<g id="a_Node000002"><a xlink:href="_d_l_l_export_8h.html" target="_top" xlink:title=" ">
<polygon fill="white" stroke="#666666" points="70.75,-76 0,-76 0,-56 70.75,-56 70.75,-76"/>
<text text-anchor="middle" x="35.38" y="-62.5" font-family="Helvetica,sans-Serif" font-size="10.00">DLLExport.h</text>
</a>
</g>
</g>
<!-- Node1&#45;&gt;Node2 -->
<g id="edge1_Node000001_Node000002" class="edge">
<title>Node1&#45;&gt;Node2</title>
<g id="a_edge1_Node000001_Node000002"><a xlink:title=" ">
<path fill="none" stroke="#63b8ff" d="M65.21,-111.75C59.63,-103.38 53.27,-93.85 47.87,-85.74"/>
<polygon fill="#63b8ff" stroke="#63b8ff" points="50.95,-84.06 42.49,-77.68 45.13,-87.94 50.95,-84.06"/>
</a>
</g>
</g>
<!-- Node3 -->
<g id="Node000003" class="node">
<title>Node3</title>
<g id="a_Node000003"><a xlink:href="_command_8h.html" target="_top" xlink:title=" ">
<polygon fill="white" stroke="#666666" points="158,-76 88.75,-76 88.75,-56 158,-56 158,-76"/>
<text text-anchor="middle" x="123.38" y="-62.5" font-family="Helvetica,sans-Serif" font-size="10.00">Command.h</text>
</a>
</g>
</g>
<!-- Node1&#45;&gt;Node3 -->
<g id="edge2_Node000001_Node000003" class="edge">
<title>Node1&#45;&gt;Node3</title>
<g id="a_edge2_Node000001_Node000003"><a xlink:title=" ">
<path fill="none" stroke="#63b8ff" d="M93.54,-111.75C99.12,-103.38 105.48,-93.85 110.88,-85.74"/>
<polygon fill="#63b8ff" stroke="#63b8ff" points="113.62,-87.94 116.26,-77.68 107.8,-84.06 113.62,-87.94"/>
</a>
</g>
</g>
<!-- Node4 -->
<g id="Node000004" class="node">
<title>Node4</title>
<g id="a_Node000004"><a xlink:title=" ">
<polygon fill="#e0e0e0" stroke="#999999" points="84.88,-20 41.88,-20 41.88,0 84.88,0 84.88,-20"/>
<text text-anchor="middle" x="63.38" y="-6.5" font-family="Helvetica,sans-Serif" font-size="10.00">vector</text>
</a>
</g>
</g>
<!-- Node3&#45;&gt;Node4 -->
<g id="edge3_Node000003_Node000004" class="edge">
<title>Node3&#45;&gt;Node4</title>
<g id="a_edge3_Node000003_Node000004"><a xlink:title=" ">
<path fill="none" stroke="#63b8ff" d="M112.92,-55.59C104.41,-47.93 92.16,-36.91 81.98,-27.75"/>
<polygon fill="#63b8ff" stroke="#63b8ff" points="84.61,-25.4 74.83,-21.31 79.92,-30.6 84.61,-25.4"/>
</a>
</g>
</g>
<!-- Node5 -->
<g id="Node000005" class="node">
<title>Node5</title>
<g id="a_Node000005"><a xlink:title=" ">
<polygon fill="#e0e0e0" stroke="#999999" points="143.38,-20 103.38,-20 103.38,0 143.38,0 143.38,-20"/>
<text text-anchor="middle" x="123.38" y="-6.5" font-family="Helvetica,sans-Serif" font-size="10.00">string</text>
</a>
</g>
</g>
<!-- Node3&#45;&gt;Node5 -->
<g id="edge4_Node000003_Node000005" class="edge">
<title>Node3&#45;&gt;Node5</title>
<g id="a_edge4_Node000003_Node000005"><a xlink:title=" ">
<path fill="none" stroke="#63b8ff" d="M123.38,-55.59C123.38,-49.01 123.38,-39.96 123.38,-31.73"/>
<polygon fill="#63b8ff" stroke="#63b8ff" points="126.88,-31.81 123.38,-21.81 119.88,-31.81 126.88,-31.81"/>
</a>
</g>
</g>
<!-- Node6 -->
<g id="Node000006" class="node">
<title>Node6</title>
<g id="a_Node000006"><a xlink:title=" ">
<polygon fill="#e0e0e0" stroke="#999999" points="209.5,-20 161.25,-20 161.25,0 209.5,0 209.5,-20"/>
<text text-anchor="middle" x="185.38" y="-6.5" font-family="Helvetica,sans-Serif" font-size="10.00">stdint.h</text>
</a>
</g>
</g>
<!-- Node3&#45;&gt;Node6 -->
<g id="edge5_Node000003_Node000006" class="edge">
<title>Node3&#45;&gt;Node6</title>
<g id="a_edge5_Node000003_Node000006"><a xlink:title=" ">
<path fill="none" stroke="#63b8ff" d="M134.17,-55.59C142.98,-47.93 155.63,-36.91 166.15,-27.75"/>
<polygon fill="#63b8ff" stroke="#63b8ff" points="168.32,-30.5 173.56,-21.29 163.72,-25.22 168.32,-30.5"/>
</a>
</g>
</g>
</g>
</svg>
