<?xml version="1.0" encoding="UTF-8" standalone="no"?>
<!DOCTYPE svg PUBLIC "-//W3C//DTD SVG 1.1//EN"
 "http://www.w3.org/Graphics/SVG/1.1/DTD/svg11.dtd">
<!-- Generated by graphviz version 12.2.1 (20241206.2353)
 -->
<!-- Title: C:/Users/emilly/Documents/Lucca/Projetos/Cpp/NikiScript/src/Context.cpp Pages: 1 -->
<svg width="634pt" height="276pt"
 viewBox="0.00 0.00 634.40 276.00" xmlns="http://www.w3.org/2000/svg" xmlns:xlink="http://www.w3.org/1999/xlink">
<g id="graph0" class="graph" transform="scale(1 1) rotate(0) translate(4 272)">
<title>C:/Users/emilly/Documents/Lucca/Projetos/Cpp/NikiScript/src/Context.cpp</title>
<!-- Node1 -->
<g id="Node000001" class="node">
<title>Node1</title>
<g id="a_Node000001"><a xlink:title=" ">
<polygon fill="#999999" stroke="#666666" points="386,-268 235,-268 235,-224 386,-224 386,-268"/>
<text text-anchor="start" x="243" y="-254.5" font-family="Helvetica,sans-Serif" font-size="10.00">C:/Users/emilly/Documents</text>
<text text-anchor="start" x="243" y="-242.5" font-family="Helvetica,sans-Serif" font-size="10.00">/Lucca/Projetos/Cpp/NikiScript</text>
<text text-anchor="middle" x="310.5" y="-230.5" font-family="Helvetica,sans-Serif" font-size="10.00">/src/Context.cpp</text>
</a>
</g>
</g>
<!-- Node2 -->
<g id="Node000002" class="node">
<title>Node2</title>
<g id="a_Node000002"><a xlink:href="_context_8h.html" target="_top" xlink:title=" ">
<polygon fill="white" stroke="#666666" points="339.88,-188 281.12,-188 281.12,-168 339.88,-168 339.88,-188"/>
<text text-anchor="middle" x="310.5" y="-174.5" font-family="Helvetica,sans-Serif" font-size="10.00">Context.h</text>
</a>
</g>
</g>
<!-- Node1&#45;&gt;Node2 -->
<g id="edge1_Node000001_Node000002" class="edge">
<title>Node1&#45;&gt;Node2</title>
<g id="a_edge1_Node000001_Node000002"><a xlink:title=" ">
<path fill="none" stroke="#63b8ff" d="M310.5,-223.75C310.5,-216.13 310.5,-207.53 310.5,-199.93"/>
<polygon fill="#63b8ff" stroke="#63b8ff" points="314,-199.93 310.5,-189.93 307,-199.93 314,-199.93"/>
</a>
</g>
</g>
<!-- Node3 -->
<g id="Node000003" class="node">
<title>Node3</title>
<g id="a_Node000003"><a xlink:title=" ">
<polygon fill="#e0e0e0" stroke="#999999" points="43,-20 0,-20 0,0 43,0 43,-20"/>
<text text-anchor="middle" x="21.5" y="-6.5" font-family="Helvetica,sans-Serif" font-size="10.00">vector</text>
</a>
</g>
</g>
<!-- Node2&#45;&gt;Node3 -->
<g id="edge2_Node000002_Node000003" class="edge">
<title>Node2&#45;&gt;Node3</title>
<g id="a_edge2_Node000002_Node000003"><a xlink:title=" ">
<path fill="none" stroke="#63b8ff" d="M280.86,-177C233.49,-175.82 138.97,-168.61 69.5,-132 38.36,-115.59 26.97,-108.52 13.5,-76 7.57,-61.68 10.22,-44.19 14,-30.96"/>
<polygon fill="#63b8ff" stroke="#63b8ff" points="17.26,-32.25 17.09,-21.65 10.61,-30.04 17.26,-32.25"/>
</a>
</g>
</g>
<!-- Node4 -->
<g id="Node000004" class="node">
<title>Node4</title>
<g id="a_Node000004"><a xlink:title=" ">
<polygon fill="#e0e0e0" stroke="#999999" points="625.62,-20 577.38,-20 577.38,0 625.62,0 625.62,-20"/>
<text text-anchor="middle" x="601.5" y="-6.5" font-family="Helvetica,sans-Serif" font-size="10.00">stdint.h</text>
</a>
</g>
</g>
<!-- Node2&#45;&gt;Node4 -->
<g id="edge3_Node000002_Node000004" class="edge">
<title>Node2&#45;&gt;Node4</title>
<g id="a_edge3_Node000002_Node000004"><a xlink:title=" ">
<path fill="none" stroke="#63b8ff" d="M340.05,-176.69C388.32,-175.1 486.08,-167.36 559.5,-132 593.55,-115.6 607.88,-110.42 623.5,-76 630.34,-60.93 623.28,-43.09 615.39,-29.91"/>
<polygon fill="#63b8ff" stroke="#63b8ff" points="618.42,-28.14 609.98,-21.74 612.59,-32.01 618.42,-28.14"/>
</a>
</g>
</g>
<!-- Node5 -->
<g id="Node000005" class="node">
<title>Node5</title>
<g id="a_Node000005"><a xlink:title=" ">
<polygon fill="#e0e0e0" stroke="#999999" points="406.5,-20 366.5,-20 366.5,0 406.5,0 406.5,-20"/>
<text text-anchor="middle" x="386.5" y="-6.5" font-family="Helvetica,sans-Serif" font-size="10.00">string</text>
</a>
</g>
</g>
<!-- Node2&#45;&gt;Node5 -->
<g id="edge4_Node000002_Node000005" class="edge">
<title>Node2&#45;&gt;Node5</title>
<g id="a_edge4_Node000002_Node000005"><a xlink:title=" ">
<path fill="none" stroke="#63b8ff" d="M314.8,-167.6C326.87,-141.23 361.23,-66.19 377.61,-30.42"/>
<polygon fill="#63b8ff" stroke="#63b8ff" points="380.63,-32.22 381.61,-21.67 374.27,-29.31 380.63,-32.22"/>
</a>
</g>
</g>
<!-- Node6 -->
<g id="Node000006" class="node">
<title>Node6</title>
<g id="a_Node000006"><a xlink:title=" ">
<polygon fill="#e0e0e0" stroke="#999999" points="311.88,-20 229.12,-20 229.12,0 311.88,0 311.88,-20"/>
<text text-anchor="middle" x="270.5" y="-6.5" font-family="Helvetica,sans-Serif" font-size="10.00">unordered_map</text>
</a>
</g>
</g>
<!-- Node2&#45;&gt;Node6 -->
<g id="edge5_Node000002_Node000006" class="edge">
<title>Node2&#45;&gt;Node6</title>
<g id="a_edge5_Node000002_Node000006"><a xlink:title=" ">
<path fill="none" stroke="#63b8ff" d="M309.93,-167.69C308.48,-147.14 303.85,-96.47 291.5,-56 288.86,-47.36 284.86,-38.25 281.06,-30.5"/>
<polygon fill="#63b8ff" stroke="#63b8ff" points="284.21,-28.97 276.51,-21.69 277.99,-32.18 284.21,-28.97"/>
</a>
</g>
</g>
<!-- Node7 -->
<g id="Node000007" class="node">
<title>Node7</title>
<g id="a_Node000007"><a xlink:href="_command_8h.html" target="_top" xlink:title=" ">
<polygon fill="white" stroke="#666666" points="92.12,-76 22.88,-76 22.88,-56 92.12,-56 92.12,-76"/>
<text text-anchor="middle" x="57.5" y="-62.5" font-family="Helvetica,sans-Serif" font-size="10.00">Command.h</text>
</a>
</g>
</g>
<!-- Node2&#45;&gt;Node7 -->
<g id="edge6_Node000002_Node000007" class="edge">
<title>Node2&#45;&gt;Node7</title>
<g id="a_edge6_Node000002_Node000007"><a xlink:title=" ">
<path fill="none" stroke="#63b8ff" d="M280.72,-174.19C227.56,-168.65 119.11,-154.84 89.5,-132 75.18,-120.96 66.86,-101.82 62.3,-87.16"/>
<polygon fill="#63b8ff" stroke="#63b8ff" points="65.72,-86.37 59.72,-77.64 58.96,-88.21 65.72,-86.37"/>
</a>
</g>
</g>
<!-- Node9 -->
<g id="Node000009" class="node">
<title>Node9</title>
<g id="a_Node000009"><a xlink:href="_command_handler_8h.html" target="_top" xlink:title=" ">
<polygon fill="white" stroke="#666666" points="201,-132 98,-132 98,-112 201,-112 201,-132"/>
<text text-anchor="middle" x="149.5" y="-118.5" font-family="Helvetica,sans-Serif" font-size="10.00">CommandHandler.h</text>
</a>
</g>
</g>
<!-- Node2&#45;&gt;Node9 -->
<g id="edge10_Node000002_Node000009" class="edge">
<title>Node2&#45;&gt;Node9</title>
<g id="a_edge10_Node000002_Node000009"><a xlink:title=" ">
<path fill="none" stroke="#63b8ff" d="M282.46,-167.59C256.41,-158.86 217.4,-145.77 188.36,-136.03"/>
<polygon fill="#63b8ff" stroke="#63b8ff" points="189.79,-132.82 179.2,-132.96 187.57,-139.46 189.79,-132.82"/>
</a>
</g>
</g>
<!-- Node10 -->
<g id="Node000010" class="node">
<title>Node10</title>
<g id="a_Node000010"><a xlink:href="_print_callback_8h.html" target="_top" xlink:title=" ">
<polygon fill="white" stroke="#666666" points="550.88,-132 468.12,-132 468.12,-112 550.88,-112 550.88,-132"/>
<text text-anchor="middle" x="509.5" y="-118.5" font-family="Helvetica,sans-Serif" font-size="10.00">PrintCallback.h</text>
</a>
</g>
</g>
<!-- Node2&#45;&gt;Node10 -->
<g id="edge14_Node000002_Node000010" class="edge">
<title>Node2&#45;&gt;Node10</title>
<g id="a_edge14_Node000002_Node000010"><a xlink:title=" ">
<path fill="none" stroke="#63b8ff" d="M340.29,-168.92C373.06,-160.03 426.08,-145.64 464.04,-135.33"/>
<polygon fill="#63b8ff" stroke="#63b8ff" points="464.62,-138.81 473.35,-132.81 462.78,-132.05 464.62,-138.81"/>
</a>
</g>
</g>
<!-- Node13 -->
<g id="Node000013" class="node">
<title>Node13</title>
<g id="a_Node000013"><a xlink:href="_program_variable_8h.html" target="_top" xlink:title=" ">
<polygon fill="white" stroke="#666666" points="282.25,-76 186.75,-76 186.75,-56 282.25,-56 282.25,-76"/>
<text text-anchor="middle" x="234.5" y="-62.5" font-family="Helvetica,sans-Serif" font-size="10.00">ProgramVariable.h</text>
</a>
</g>
</g>
<!-- Node2&#45;&gt;Node13 -->
<g id="edge21_Node000002_Node000013" class="edge">
<title>Node2&#45;&gt;Node13</title>
<g id="a_edge21_Node000002_Node000013"><a xlink:title=" ">
<path fill="none" stroke="#63b8ff" d="M304.02,-167.62C291.51,-149.52 263.83,-109.45 247.42,-85.7"/>
<polygon fill="#63b8ff" stroke="#63b8ff" points="250.39,-83.84 241.82,-77.6 244.63,-87.82 250.39,-83.84"/>
</a>
</g>
</g>
<!-- Node14 -->
<g id="Node000014" class="node">
<title>Node14</title>
<g id="a_Node000014"><a xlink:href="_lexer_8h.html" target="_top" xlink:title=" ">
<polygon fill="white" stroke="#666666" points="445.62,-132 397.38,-132 397.38,-112 445.62,-112 445.62,-132"/>
<text text-anchor="middle" x="421.5" y="-118.5" font-family="Helvetica,sans-Serif" font-size="10.00">Lexer.h</text>
</a>
</g>
</g>
<!-- Node2&#45;&gt;Node14 -->
<g id="edge25_Node000002_Node000014" class="edge">
<title>Node2&#45;&gt;Node14</title>
<g id="a_edge25_Node000002_Node000014"><a xlink:title=" ">
<path fill="none" stroke="#63b8ff" d="M329.83,-167.59C346.92,-159.28 372.1,-147.03 391.75,-137.47"/>
<polygon fill="#63b8ff" stroke="#63b8ff" points="393.19,-140.66 400.65,-133.14 390.13,-134.37 393.19,-140.66"/>
</a>
</g>
</g>
<!-- Node7&#45;&gt;Node3 -->
<g id="edge7_Node000007_Node000003" class="edge">
<title>Node7&#45;&gt;Node3</title>
<g id="a_edge7_Node000007_Node000003"><a xlink:title=" ">
<path fill="none" stroke="#63b8ff" d="M51.23,-55.59C46.48,-48.47 39.8,-38.45 33.98,-29.72"/>
<polygon fill="#63b8ff" stroke="#63b8ff" points="37,-27.94 28.54,-21.56 31.17,-31.82 37,-27.94"/>
</a>
</g>
</g>
<!-- Node7&#45;&gt;Node5 -->
<g id="edge9_Node000007_Node000005" class="edge">
<title>Node7&#45;&gt;Node5</title>
<g id="a_edge9_Node000007_Node000005"><a xlink:title=" ">
<path fill="none" stroke="#63b8ff" d="M92.4,-59.27C156.74,-48.71 293.12,-26.33 354.9,-16.19"/>
<polygon fill="#63b8ff" stroke="#63b8ff" points="355.43,-19.65 364.73,-14.57 354.29,-12.74 355.43,-19.65"/>
</a>
</g>
</g>
<!-- Node8 -->
<g id="Node000008" class="node">
<title>Node8</title>
<g id="a_Node000008"><a xlink:title=" ">
<polygon fill="#e0e0e0" stroke="#999999" points="153.25,-20 87.75,-20 87.75,0 153.25,0 153.25,-20"/>
<text text-anchor="middle" x="120.5" y="-6.5" font-family="Helvetica,sans-Serif" font-size="10.00">string_view</text>
</a>
</g>
</g>
<!-- Node7&#45;&gt;Node8 -->
<g id="edge8_Node000007_Node000008" class="edge">
<title>Node7&#45;&gt;Node8</title>
<g id="a_edge8_Node000007_Node000008"><a xlink:title=" ">
<path fill="none" stroke="#63b8ff" d="M68.47,-55.59C77.42,-47.93 90.27,-36.91 100.96,-27.75"/>
<polygon fill="#63b8ff" stroke="#63b8ff" points="103.19,-30.45 108.5,-21.28 98.63,-25.13 103.19,-30.45"/>
</a>
</g>
</g>
<!-- Node9&#45;&gt;Node6 -->
<g id="edge11_Node000009_Node000006" class="edge">
<title>Node9&#45;&gt;Node6</title>
<g id="a_edge11_Node000009_Node000006"><a xlink:title=" ">
<path fill="none" stroke="#63b8ff" d="M151.29,-111.9C154.41,-98.19 162.04,-72.16 177.5,-56 191.06,-41.83 209.99,-31.56 227.24,-24.44"/>
<polygon fill="#63b8ff" stroke="#63b8ff" points="228.22,-27.81 236.29,-20.95 225.7,-21.28 228.22,-27.81"/>
</a>
</g>
</g>
<!-- Node9&#45;&gt;Node7 -->
<g id="edge13_Node000009_Node000007" class="edge">
<title>Node9&#45;&gt;Node7</title>
<g id="a_edge13_Node000009_Node000007"><a xlink:title=" ">
<path fill="none" stroke="#63b8ff" d="M133.47,-111.59C119.71,-103.51 99.6,-91.71 83.52,-82.27"/>
<polygon fill="#63b8ff" stroke="#63b8ff" points="85.35,-79.29 74.96,-77.25 81.81,-85.33 85.35,-79.29"/>
</a>
</g>
</g>
<!-- Node9&#45;&gt;Node8 -->
<g id="edge12_Node000009_Node000008" class="edge">
<title>Node9&#45;&gt;Node8</title>
<g id="a_edge12_Node000009_Node000008"><a xlink:title=" ">
<path fill="none" stroke="#63b8ff" d="M147.03,-111.62C142.36,-93.92 132.16,-55.24 125.86,-31.32"/>
<polygon fill="#63b8ff" stroke="#63b8ff" points="129.29,-30.6 123.35,-21.82 122.52,-32.38 129.29,-30.6"/>
</a>
</g>
</g>
<!-- Node10&#45;&gt;Node4 -->
<g id="edge15_Node000010_Node000004" class="edge">
<title>Node10&#45;&gt;Node4</title>
<g id="a_edge15_Node000010_Node000004"><a xlink:title=" ">
<path fill="none" stroke="#63b8ff" d="M550.89,-112.77C571.34,-106.39 594.21,-95.25 606.5,-76 614.98,-62.72 612.76,-44.66 608.97,-30.95"/>
<polygon fill="#63b8ff" stroke="#63b8ff" points="612.37,-30.1 605.93,-21.68 605.72,-32.28 612.37,-30.1"/>
</a>
</g>
</g>
<!-- Node10&#45;&gt;Node5 -->
<g id="edge16_Node000010_Node000005" class="edge">
<title>Node10&#45;&gt;Node5</title>
<g id="a_edge16_Node000010_Node000005"><a xlink:title=" ">
<path fill="none" stroke="#63b8ff" d="M506.44,-111.95C501.43,-98.31 490.34,-72.36 473.5,-56 457.65,-40.59 435.45,-29.23 417.45,-21.77"/>
<polygon fill="#63b8ff" stroke="#63b8ff" points="418.88,-18.57 408.29,-18.19 416.33,-25.09 418.88,-18.57"/>
</a>
</g>
</g>
<!-- Node11 -->
<g id="Node000011" class="node">
<title>Node11</title>
<g id="a_Node000011"><a xlink:href="_utils_8h.html" target="_top" xlink:title=" ">
<polygon fill="white" stroke="#666666" points="564.75,-76 520.25,-76 520.25,-56 564.75,-56 564.75,-76"/>
<text text-anchor="middle" x="542.5" y="-62.5" font-family="Helvetica,sans-Serif" font-size="10.00">Utils.h</text>
</a>
</g>
</g>
<!-- Node10&#45;&gt;Node11 -->
<g id="edge17_Node000010_Node000011" class="edge">
<title>Node10&#45;&gt;Node11</title>
<g id="a_edge17_Node000010_Node000011"><a xlink:title=" ">
<path fill="none" stroke="#63b8ff" d="M515.25,-111.59C519.55,-104.55 525.59,-94.67 530.89,-86"/>
<polygon fill="#63b8ff" stroke="#63b8ff" points="533.8,-87.95 536.03,-77.59 527.83,-84.3 533.8,-87.95"/>
</a>
</g>
</g>
<!-- Node11&#45;&gt;Node4 -->
<g id="edge18_Node000011_Node000004" class="edge">
<title>Node11&#45;&gt;Node4</title>
<g id="a_edge18_Node000011_Node000004"><a xlink:title=" ">
<path fill="none" stroke="#63b8ff" d="M552.78,-55.59C561.07,-48.01 572.95,-37.13 582.9,-28.02"/>
<polygon fill="#63b8ff" stroke="#63b8ff" points="585.21,-30.65 590.22,-21.32 580.48,-25.49 585.21,-30.65"/>
</a>
</g>
</g>
<!-- Node11&#45;&gt;Node5 -->
<g id="edge19_Node000011_Node000005" class="edge">
<title>Node11&#45;&gt;Node5</title>
<g id="a_edge19_Node000011_Node000005"><a xlink:title=" ">
<path fill="none" stroke="#63b8ff" d="M519.82,-57.15C492.84,-47.81 447.68,-32.18 417.5,-21.73"/>
<polygon fill="#63b8ff" stroke="#63b8ff" points="418.75,-18.46 408.16,-18.5 416.46,-25.08 418.75,-18.46"/>
</a>
</g>
</g>
<!-- Node12 -->
<g id="Node000012" class="node">
<title>Node12</title>
<g id="a_Node000012"><a xlink:title=" ">
<polygon fill="#e0e0e0" stroke="#999999" points="559.12,-20 507.88,-20 507.88,0 559.12,0 559.12,-20"/>
<text text-anchor="middle" x="533.5" y="-6.5" font-family="Helvetica,sans-Serif" font-size="10.00">sstream</text>
</a>
</g>
</g>
<!-- Node11&#45;&gt;Node12 -->
<g id="edge20_Node000011_Node000012" class="edge">
<title>Node11&#45;&gt;Node12</title>
<g id="a_edge20_Node000011_Node000012"><a xlink:title=" ">
<path fill="none" stroke="#63b8ff" d="M540.93,-55.59C539.82,-48.93 538.29,-39.75 536.91,-31.44"/>
<polygon fill="#63b8ff" stroke="#63b8ff" points="540.39,-31.08 535.3,-21.79 533.49,-32.23 540.39,-31.08"/>
</a>
</g>
</g>
<!-- Node13&#45;&gt;Node5 -->
<g id="edge22_Node000013_Node000005" class="edge">
<title>Node13&#45;&gt;Node5</title>
<g id="a_edge22_Node000013_Node000005"><a xlink:title=" ">
<path fill="none" stroke="#63b8ff" d="M260.98,-55.59C287.29,-46.25 327.63,-31.91 355.45,-22.03"/>
<polygon fill="#63b8ff" stroke="#63b8ff" points="356.48,-25.38 364.73,-18.73 354.14,-18.78 356.48,-25.38"/>
</a>
</g>
</g>
<!-- Node13&#45;&gt;Node6 -->
<g id="edge24_Node000013_Node000006" class="edge">
<title>Node13&#45;&gt;Node6</title>
<g id="a_edge24_Node000013_Node000006"><a xlink:title=" ">
<path fill="none" stroke="#63b8ff" d="M240.77,-55.59C245.52,-48.47 252.2,-38.45 258.02,-29.72"/>
<polygon fill="#63b8ff" stroke="#63b8ff" points="260.83,-31.82 263.46,-21.56 255,-27.94 260.83,-31.82"/>
</a>
</g>
</g>
<!-- Node13&#45;&gt;Node8 -->
<g id="edge23_Node000013_Node000008" class="edge">
<title>Node13&#45;&gt;Node8</title>
<g id="a_edge23_Node000013_Node000008"><a xlink:title=" ">
<path fill="none" stroke="#63b8ff" d="M214.64,-55.59C197.01,-47.24 170.99,-34.92 150.77,-25.34"/>
<polygon fill="#63b8ff" stroke="#63b8ff" points="152.42,-22.25 141.88,-21.13 149.42,-28.57 152.42,-22.25"/>
</a>
</g>
</g>
<!-- Node14&#45;&gt;Node4 -->
<g id="edge26_Node000014_Node000004" class="edge">
<title>Node14&#45;&gt;Node4</title>
<g id="a_edge26_Node000014_Node000004"><a xlink:title=" ">
<path fill="none" stroke="#63b8ff" d="M445.93,-114.98C486.39,-104.83 563.83,-84.59 573.5,-76 586.57,-64.4 593.76,-45.64 597.57,-31.24"/>
<polygon fill="#63b8ff" stroke="#63b8ff" points="600.88,-32.44 599.69,-21.91 594.06,-30.88 600.88,-32.44"/>
</a>
</g>
</g>
<!-- Node14&#45;&gt;Node5 -->
<g id="edge27_Node000014_Node000005" class="edge">
<title>Node14&#45;&gt;Node5</title>
<g id="a_edge27_Node000014_Node000005"><a xlink:title=" ">
<path fill="none" stroke="#63b8ff" d="M418.03,-111.75C414.68,-102.68 409.53,-88.46 405.5,-76 400.67,-61.08 395.72,-44.06 392.08,-31.18"/>
<polygon fill="#63b8ff" stroke="#63b8ff" points="395.51,-30.46 389.45,-21.77 388.77,-32.34 395.51,-30.46"/>
</a>
</g>
</g>
<!-- Node15 -->
<g id="Node000015" class="node">
<title>Node15</title>
<g id="a_Node000015"><a xlink:href="_token_8h.html" target="_top" xlink:title=" ">
<polygon fill="white" stroke="#666666" points="464.75,-76 414.25,-76 414.25,-56 464.75,-56 464.75,-76"/>
<text text-anchor="middle" x="439.5" y="-62.5" font-family="Helvetica,sans-Serif" font-size="10.00">Token.h</text>
</a>
</g>
</g>
<!-- Node14&#45;&gt;Node15 -->
<g id="edge28_Node000014_Node000015" class="edge">
<title>Node14&#45;&gt;Node15</title>
<g id="a_edge28_Node000014_Node000015"><a xlink:title=" ">
<path fill="none" stroke="#63b8ff" d="M424.64,-111.59C426.88,-104.86 429.99,-95.53 432.78,-87.15"/>
<polygon fill="#63b8ff" stroke="#63b8ff" points="436.08,-88.33 435.92,-77.73 429.44,-86.11 436.08,-88.33"/>
</a>
</g>
</g>
<!-- Node15&#45;&gt;Node4 -->
<g id="edge29_Node000015_Node000004" class="edge">
<title>Node15&#45;&gt;Node4</title>
<g id="a_edge29_Node000015_Node000004"><a xlink:title=" ">
<path fill="none" stroke="#63b8ff" d="M465.17,-56.44C492.5,-47.33 535.94,-32.85 566.42,-22.69"/>
<polygon fill="#63b8ff" stroke="#63b8ff" points="567.2,-26.12 575.58,-19.64 564.98,-19.48 567.2,-26.12"/>
</a>
</g>
</g>
<!-- Node15&#45;&gt;Node5 -->
<g id="edge30_Node000015_Node000005" class="edge">
<title>Node15&#45;&gt;Node5</title>
<g id="a_edge30_Node000015_Node000005"><a xlink:title=" ">
<path fill="none" stroke="#63b8ff" d="M430.27,-55.59C422.9,-48.08 412.37,-37.35 403.48,-28.3"/>
<polygon fill="#63b8ff" stroke="#63b8ff" points="406.19,-26.06 396.69,-21.38 401.19,-30.97 406.19,-26.06"/>
</a>
</g>
</g>
<!-- Node15&#45;&gt;Node6 -->
<g id="edge31_Node000015_Node000006" class="edge">
<title>Node15&#45;&gt;Node6</title>
<g id="a_edge31_Node000015_Node000006"><a xlink:title=" ">
<path fill="none" stroke="#63b8ff" d="M413.83,-56.8C386.49,-48.06 342.84,-34.11 310.88,-23.9"/>
<polygon fill="#63b8ff" stroke="#63b8ff" points="312.15,-20.63 301.56,-20.92 310.02,-27.3 312.15,-20.63"/>
</a>
</g>
</g>
</g>
</svg>
