<?xml version="1.0" encoding="UTF-8" standalone="no"?>
<!DOCTYPE svg PUBLIC "-//W3C//DTD SVG 1.1//EN"
 "http://www.w3.org/Graphics/SVG/1.1/DTD/svg11.dtd">
<!-- Generated by graphviz version 12.2.1 (20241206.2353)
 -->
<!-- Title: C:/Users/emilly/Documents/Lucca/Projetos/Cpp/NikiScript/src/Context.cpp Pages: 1 -->
<svg width="664pt" height="276pt"
 viewBox="0.00 0.00 664.07 276.00" xmlns="http://www.w3.org/2000/svg" xmlns:xlink="http://www.w3.org/1999/xlink">
<g id="graph0" class="graph" transform="scale(1 1) rotate(0) translate(4 272)">
<title>C:/Users/emilly/Documents/Lucca/Projetos/Cpp/NikiScript/src/Context.cpp</title>
<!-- Node1 -->
<g id="Node000001" class="node">
<title>Node1</title>
<g id="a_Node000001"><a xlink:title=" ">
<polygon fill="#999999" stroke="#666666" points="378.82,-268 227.82,-268 227.82,-224 378.82,-224 378.82,-268"/>
<text text-anchor="start" x="235.82" y="-254.5" font-family="Helvetica,sans-Serif" font-size="10.00">C:/Users/emilly/Documents</text>
<text text-anchor="start" x="235.82" y="-242.5" font-family="Helvetica,sans-Serif" font-size="10.00">/Lucca/Projetos/Cpp/NikiScript</text>
<text text-anchor="middle" x="303.32" y="-230.5" font-family="Helvetica,sans-Serif" font-size="10.00">/src/Context.cpp</text>
</a>
</g>
</g>
<!-- Node2 -->
<g id="Node000002" class="node">
<title>Node2</title>
<g id="a_Node000002"><a xlink:href="_context_8h.html" target="_top" xlink:title=" ">
<polygon fill="white" stroke="#666666" points="332.69,-188 273.94,-188 273.94,-168 332.69,-168 332.69,-188"/>
<text text-anchor="middle" x="303.32" y="-174.5" font-family="Helvetica,sans-Serif" font-size="10.00">Context.h</text>
</a>
</g>
</g>
<!-- Node1&#45;&gt;Node2 -->
<g id="edge1_Node000001_Node000002" class="edge">
<title>Node1&#45;&gt;Node2</title>
<g id="a_edge1_Node000001_Node000002"><a xlink:title=" ">
<path fill="none" stroke="#63b8ff" d="M303.32,-223.75C303.32,-216.13 303.32,-207.53 303.32,-199.93"/>
<polygon fill="#63b8ff" stroke="#63b8ff" points="306.82,-199.93 303.32,-189.93 299.82,-199.93 306.82,-199.93"/>
</a>
</g>
</g>
<!-- Node3 -->
<g id="Node000003" class="node">
<title>Node3</title>
<g id="a_Node000003"><a xlink:title=" ">
<polygon fill="#e0e0e0" stroke="#999999" points="72.82,-20 29.82,-20 29.82,0 72.82,0 72.82,-20"/>
<text text-anchor="middle" x="51.32" y="-6.5" font-family="Helvetica,sans-Serif" font-size="10.00">vector</text>
</a>
</g>
</g>
<!-- Node2&#45;&gt;Node3 -->
<g id="edge2_Node000002_Node000003" class="edge">
<title>Node2&#45;&gt;Node3</title>
<g id="a_edge2_Node000002_Node000003"><a xlink:title=" ">
<path fill="none" stroke="#63b8ff" d="M273.61,-176.5C208.25,-174.76 54.96,-166.95 19.32,-132 -5.01,-108.15 -3.18,-87.7 9.32,-56 13.58,-45.19 21.79,-35.45 29.83,-27.82"/>
<polygon fill="#63b8ff" stroke="#63b8ff" points="31.94,-30.63 37.16,-21.41 27.33,-25.36 31.94,-30.63"/>
</a>
</g>
</g>
<!-- Node4 -->
<g id="Node000004" class="node">
<title>Node4</title>
<g id="a_Node000004"><a xlink:title=" ">
<polygon fill="#e0e0e0" stroke="#999999" points="153.44,-20 105.19,-20 105.19,0 153.44,0 153.44,-20"/>
<text text-anchor="middle" x="129.32" y="-6.5" font-family="Helvetica,sans-Serif" font-size="10.00">stdint.h</text>
</a>
</g>
</g>
<!-- Node2&#45;&gt;Node4 -->
<g id="edge3_Node000002_Node000004" class="edge">
<title>Node2&#45;&gt;Node4</title>
<g id="a_edge3_Node000002_Node000004"><a xlink:title=" ">
<path fill="none" stroke="#63b8ff" d="M287.47,-167.7C260.91,-151.55 206.73,-116.18 170.32,-76 157.72,-62.1 146.59,-43.85 139.12,-30.24"/>
<polygon fill="#63b8ff" stroke="#63b8ff" points="142.22,-28.62 134.46,-21.42 136.03,-31.89 142.22,-28.62"/>
</a>
</g>
</g>
<!-- Node5 -->
<g id="Node000005" class="node">
<title>Node5</title>
<g id="a_Node000005"><a xlink:title=" ">
<polygon fill="#e0e0e0" stroke="#999999" points="363.32,-20 323.32,-20 323.32,0 363.32,0 363.32,-20"/>
<text text-anchor="middle" x="343.32" y="-6.5" font-family="Helvetica,sans-Serif" font-size="10.00">string</text>
</a>
</g>
</g>
<!-- Node2&#45;&gt;Node5 -->
<g id="edge4_Node000002_Node000005" class="edge">
<title>Node2&#45;&gt;Node5</title>
<g id="a_edge4_Node000002_Node000005"><a xlink:title=" ">
<path fill="none" stroke="#63b8ff" d="M317.88,-167.72C329.3,-159.66 344.66,-146.96 353.32,-132 370.44,-102.4 373.03,-89.32 365.32,-56 363.24,-47.02 359.11,-37.76 354.98,-29.99"/>
<polygon fill="#63b8ff" stroke="#63b8ff" points="358.13,-28.43 350.12,-21.5 352.05,-31.91 358.13,-28.43"/>
</a>
</g>
</g>
<!-- Node6 -->
<g id="Node000006" class="node">
<title>Node6</title>
<g id="a_Node000006"><a xlink:title=" ">
<polygon fill="#e0e0e0" stroke="#999999" points="554.69,-76 471.94,-76 471.94,-56 554.69,-56 554.69,-76"/>
<text text-anchor="middle" x="513.32" y="-62.5" font-family="Helvetica,sans-Serif" font-size="10.00">unordered_map</text>
</a>
</g>
</g>
<!-- Node2&#45;&gt;Node6 -->
<g id="edge5_Node000002_Node000006" class="edge">
<title>Node2&#45;&gt;Node6</title>
<g id="a_edge5_Node000002_Node000006"><a xlink:title=" ">
<path fill="none" stroke="#63b8ff" d="M333.14,-175.09C385.61,-171.05 490.99,-159.62 513.32,-132 523.3,-119.65 522.31,-101.23 519.39,-87.15"/>
<polygon fill="#63b8ff" stroke="#63b8ff" points="522.82,-86.43 516.93,-77.62 516.04,-88.17 522.82,-86.43"/>
</a>
</g>
</g>
<!-- Node7 -->
<g id="Node000007" class="node">
<title>Node7</title>
<g id="a_Node000007"><a xlink:href="_command_8h.html" target="_top" xlink:title=" ">
<polygon fill="white" stroke="#666666" points="277.94,-76 208.69,-76 208.69,-56 277.94,-56 277.94,-76"/>
<text text-anchor="middle" x="243.32" y="-62.5" font-family="Helvetica,sans-Serif" font-size="10.00">Command.h</text>
</a>
</g>
</g>
<!-- Node2&#45;&gt;Node7 -->
<g id="edge6_Node000002_Node000007" class="edge">
<title>Node2&#45;&gt;Node7</title>
<g id="a_edge6_Node000002_Node000007"><a xlink:title=" ">
<path fill="none" stroke="#63b8ff" d="M288.04,-167.52C276.54,-159.53 261.42,-147 253.32,-132 246,-118.45 243.61,-101.13 243,-87.78"/>
<polygon fill="#63b8ff" stroke="#63b8ff" points="246.5,-87.91 242.87,-77.96 239.5,-88.01 246.5,-87.91"/>
</a>
</g>
</g>
<!-- Node8 -->
<g id="Node000008" class="node">
<title>Node8</title>
<g id="a_Node000008"><a xlink:href="_command_handler_8h.html" target="_top" xlink:title=" ">
<polygon fill="white" stroke="#666666" points="503.82,-132 400.82,-132 400.82,-112 503.82,-112 503.82,-132"/>
<text text-anchor="middle" x="452.32" y="-118.5" font-family="Helvetica,sans-Serif" font-size="10.00">CommandHandler.h</text>
</a>
</g>
</g>
<!-- Node2&#45;&gt;Node8 -->
<g id="edge10_Node000002_Node000008" class="edge">
<title>Node2&#45;&gt;Node8</title>
<g id="a_edge10_Node000002_Node000008"><a xlink:title=" ">
<path fill="none" stroke="#63b8ff" d="M329.27,-167.59C353.16,-158.94 388.85,-146 415.64,-136.29"/>
<polygon fill="#63b8ff" stroke="#63b8ff" points="416.53,-139.69 424.74,-133 414.14,-133.11 416.53,-139.69"/>
</a>
</g>
</g>
<!-- Node9 -->
<g id="Node000009" class="node">
<title>Node9</title>
<g id="a_Node000009"><a xlink:href="_print_callback_8h.html" target="_top" xlink:title=" ">
<polygon fill="white" stroke="#666666" points="344.69,-132 261.94,-132 261.94,-112 344.69,-112 344.69,-132"/>
<text text-anchor="middle" x="303.32" y="-118.5" font-family="Helvetica,sans-Serif" font-size="10.00">PrintCallback.h</text>
</a>
</g>
</g>
<!-- Node2&#45;&gt;Node9 -->
<g id="edge14_Node000002_Node000009" class="edge">
<title>Node2&#45;&gt;Node9</title>
<g id="a_edge14_Node000002_Node000009"><a xlink:title=" ">
<path fill="none" stroke="#63b8ff" d="M303.32,-167.59C303.32,-161.01 303.32,-151.96 303.32,-143.73"/>
<polygon fill="#63b8ff" stroke="#63b8ff" points="306.82,-143.81 303.32,-133.81 299.82,-143.81 306.82,-143.81"/>
</a>
</g>
</g>
<!-- Node12 -->
<g id="Node000012" class="node">
<title>Node12</title>
<g id="a_Node000012"><a xlink:href="_program_variable_8h.html" target="_top" xlink:title=" ">
<polygon fill="white" stroke="#666666" points="656.07,-132 560.57,-132 560.57,-112 656.07,-112 656.07,-132"/>
<text text-anchor="middle" x="608.32" y="-118.5" font-family="Helvetica,sans-Serif" font-size="10.00">ProgramVariable.h</text>
</a>
</g>
</g>
<!-- Node2&#45;&gt;Node12 -->
<g id="edge21_Node000002_Node000012" class="edge">
<title>Node2&#45;&gt;Node12</title>
<g id="a_edge21_Node000002_Node000012"><a xlink:title=" ">
<path fill="none" stroke="#63b8ff" d="M333.12,-171.72C382.96,-162.9 484.15,-144.98 548.96,-133.51"/>
<polygon fill="#63b8ff" stroke="#63b8ff" points="549.49,-136.97 558.73,-131.78 548.27,-130.08 549.49,-136.97"/>
</a>
</g>
</g>
<!-- Node13 -->
<g id="Node000013" class="node">
<title>Node13</title>
<g id="a_Node000013"><a xlink:href="_lexer_8h.html" target="_top" xlink:title=" ">
<polygon fill="white" stroke="#666666" points="76.44,-132 28.19,-132 28.19,-112 76.44,-112 76.44,-132"/>
<text text-anchor="middle" x="52.32" y="-118.5" font-family="Helvetica,sans-Serif" font-size="10.00">Lexer.h</text>
</a>
</g>
</g>
<!-- Node2&#45;&gt;Node13 -->
<g id="edge25_Node000002_Node000013" class="edge">
<title>Node2&#45;&gt;Node13</title>
<g id="a_edge25_Node000002_Node000013"><a xlink:title=" ">
<path fill="none" stroke="#63b8ff" d="M273.63,-170.97C232.43,-162.54 155.6,-146.62 90.32,-132 89.5,-131.82 88.67,-131.63 87.84,-131.44"/>
<polygon fill="#63b8ff" stroke="#63b8ff" points="88.83,-128.08 78.3,-129.24 87.26,-134.9 88.83,-128.08"/>
</a>
</g>
</g>
<!-- Node7&#45;&gt;Node3 -->
<g id="edge7_Node000007_Node000003" class="edge">
<title>Node7&#45;&gt;Node3</title>
<g id="a_edge7_Node000007_Node000003"><a xlink:title=" ">
<path fill="none" stroke="#63b8ff" d="M209.87,-55.59C174.54,-45.66 119.19,-30.09 84.11,-20.22"/>
<polygon fill="#63b8ff" stroke="#63b8ff" points="85.08,-16.86 74.51,-17.52 83.19,-23.6 85.08,-16.86"/>
</a>
</g>
</g>
<!-- Node7&#45;&gt;Node4 -->
<g id="edge9_Node000007_Node000004" class="edge">
<title>Node7&#45;&gt;Node4</title>
<g id="a_edge9_Node000007_Node000004"><a xlink:title=" ">
<path fill="none" stroke="#63b8ff" d="M223.46,-55.59C205.83,-47.24 179.81,-34.92 159.59,-25.34"/>
<polygon fill="#63b8ff" stroke="#63b8ff" points="161.23,-22.25 150.7,-21.13 158.24,-28.57 161.23,-22.25"/>
</a>
</g>
</g>
<!-- Node7&#45;&gt;Node5 -->
<g id="edge8_Node000007_Node000005" class="edge">
<title>Node7&#45;&gt;Node5</title>
<g id="a_edge8_Node000007_Node000005"><a xlink:title=" ">
<path fill="none" stroke="#63b8ff" d="M260.74,-55.59C275.99,-47.36 298.4,-35.26 316.03,-25.74"/>
<polygon fill="#63b8ff" stroke="#63b8ff" points="317.29,-29.03 324.43,-21.2 313.97,-22.87 317.29,-29.03"/>
</a>
</g>
</g>
<!-- Node8&#45;&gt;Node5 -->
<g id="edge12_Node000008_Node000005" class="edge">
<title>Node8&#45;&gt;Node5</title>
<g id="a_edge12_Node000008_Node000005"><a xlink:title=" ">
<path fill="none" stroke="#63b8ff" d="M449.61,-111.6C445.3,-97.97 435.74,-72.57 420.32,-56 407.37,-42.1 389.15,-31.18 373.68,-23.59"/>
<polygon fill="#63b8ff" stroke="#63b8ff" points="375.43,-20.54 364.88,-19.5 372.48,-26.89 375.43,-20.54"/>
</a>
</g>
</g>
<!-- Node8&#45;&gt;Node6 -->
<g id="edge11_Node000008_Node000006" class="edge">
<title>Node8&#45;&gt;Node6</title>
<g id="a_edge11_Node000008_Node000006"><a xlink:title=" ">
<path fill="none" stroke="#63b8ff" d="M462.94,-111.59C471.6,-103.93 484.05,-92.91 494.4,-83.75"/>
<polygon fill="#63b8ff" stroke="#63b8ff" points="496.51,-86.55 501.68,-77.3 491.87,-81.31 496.51,-86.55"/>
</a>
</g>
</g>
<!-- Node8&#45;&gt;Node7 -->
<g id="edge13_Node000008_Node000007" class="edge">
<title>Node8&#45;&gt;Node7</title>
<g id="a_edge13_Node000008_Node000007"><a xlink:title=" ">
<path fill="none" stroke="#63b8ff" d="M415.91,-111.59C380.68,-102.49 327.15,-88.66 289.06,-78.82"/>
<polygon fill="#63b8ff" stroke="#63b8ff" points="290.29,-75.52 279.73,-76.41 288.53,-82.3 290.29,-75.52"/>
</a>
</g>
</g>
<!-- Node9&#45;&gt;Node4 -->
<g id="edge15_Node000009_Node000004" class="edge">
<title>Node9&#45;&gt;Node4</title>
<g id="a_edge15_Node000009_Node000004"><a xlink:title=" ">
<path fill="none" stroke="#63b8ff" d="M274.64,-111.59C252.98,-103.79 223.04,-91.49 199.32,-76 178.81,-62.61 158.67,-43.05 145.3,-28.88"/>
<polygon fill="#63b8ff" stroke="#63b8ff" points="147.93,-26.57 138.58,-21.58 142.78,-31.31 147.93,-26.57"/>
</a>
</g>
</g>
<!-- Node9&#45;&gt;Node5 -->
<g id="edge16_Node000009_Node000005" class="edge">
<title>Node9&#45;&gt;Node5</title>
<g id="a_edge16_Node000009_Node000005"><a xlink:title=" ">
<path fill="none" stroke="#63b8ff" d="M317.99,-111.54C328.92,-103.56 342.99,-91.03 349.32,-76 355.31,-61.76 353.22,-44.26 349.96,-31.01"/>
<polygon fill="#63b8ff" stroke="#63b8ff" points="353.4,-30.33 347.25,-21.7 346.68,-32.28 353.4,-30.33"/>
</a>
</g>
</g>
<!-- Node10 -->
<g id="Node000010" class="node">
<title>Node10</title>
<g id="a_Node000010"><a xlink:href="_utils_8h.html" target="_top" xlink:title=" ">
<polygon fill="white" stroke="#666666" points="340.57,-76 296.07,-76 296.07,-56 340.57,-56 340.57,-76"/>
<text text-anchor="middle" x="318.32" y="-62.5" font-family="Helvetica,sans-Serif" font-size="10.00">Utils.h</text>
</a>
</g>
</g>
<!-- Node9&#45;&gt;Node10 -->
<g id="edge17_Node000009_Node000010" class="edge">
<title>Node9&#45;&gt;Node10</title>
<g id="a_edge17_Node000009_Node000010"><a xlink:title=" ">
<path fill="none" stroke="#63b8ff" d="M305.93,-111.59C307.8,-104.86 310.39,-95.53 312.72,-87.15"/>
<polygon fill="#63b8ff" stroke="#63b8ff" points="316.03,-88.33 315.33,-77.76 309.28,-86.46 316.03,-88.33"/>
</a>
</g>
</g>
<!-- Node10&#45;&gt;Node4 -->
<g id="edge18_Node000010_Node000004" class="edge">
<title>Node10&#45;&gt;Node4</title>
<g id="a_edge18_Node000010_Node000004"><a xlink:title=" ">
<path fill="none" stroke="#63b8ff" d="M295.63,-58.4C292.83,-57.59 290.01,-56.77 287.32,-56 245.21,-43.89 196.73,-30.11 164.7,-21.02"/>
<polygon fill="#63b8ff" stroke="#63b8ff" points="165.72,-17.67 155.14,-18.31 163.81,-24.41 165.72,-17.67"/>
</a>
</g>
</g>
<!-- Node10&#45;&gt;Node5 -->
<g id="edge19_Node000010_Node000005" class="edge">
<title>Node10&#45;&gt;Node5</title>
<g id="a_edge19_Node000010_Node000005"><a xlink:title=" ">
<path fill="none" stroke="#63b8ff" d="M322.67,-55.59C325.86,-48.7 330.31,-39.1 334.26,-30.57"/>
<polygon fill="#63b8ff" stroke="#63b8ff" points="337.35,-32.22 338.38,-21.67 331,-29.28 337.35,-32.22"/>
</a>
</g>
</g>
<!-- Node11 -->
<g id="Node000011" class="node">
<title>Node11</title>
<g id="a_Node000011"><a xlink:title=" ">
<polygon fill="#e0e0e0" stroke="#999999" points="551.94,-20 500.69,-20 500.69,0 551.94,0 551.94,-20"/>
<text text-anchor="middle" x="526.32" y="-6.5" font-family="Helvetica,sans-Serif" font-size="10.00">sstream</text>
</a>
</g>
</g>
<!-- Node10&#45;&gt;Node11 -->
<g id="edge20_Node000010_Node000011" class="edge">
<title>Node10&#45;&gt;Node11</title>
<g id="a_edge20_Node000010_Node000011"><a xlink:title=" ">
<path fill="none" stroke="#63b8ff" d="M340.97,-59.12C376.66,-49.85 446.32,-31.77 489.33,-20.6"/>
<polygon fill="#63b8ff" stroke="#63b8ff" points="490.18,-24 498.98,-18.1 488.42,-17.22 490.18,-24"/>
</a>
</g>
</g>
<!-- Node12&#45;&gt;Node5 -->
<g id="edge22_Node000012_Node000005" class="edge">
<title>Node12&#45;&gt;Node5</title>
<g id="a_edge22_Node000012_Node000005"><a xlink:title=" ">
<path fill="none" stroke="#63b8ff" d="M604.64,-111.77C598.42,-97.41 584.39,-69.91 563.32,-56 505.05,-17.54 420.65,-10.86 375.19,-10.33"/>
<polygon fill="#63b8ff" stroke="#63b8ff" points="375.23,-6.83 365.23,-10.32 375.22,-13.83 375.23,-6.83"/>
</a>
</g>
</g>
<!-- Node12&#45;&gt;Node6 -->
<g id="edge24_Node000012_Node000006" class="edge">
<title>Node12&#45;&gt;Node6</title>
<g id="a_edge24_Node000012_Node000006"><a xlink:title=" ">
<path fill="none" stroke="#63b8ff" d="M591.77,-111.59C577.42,-103.44 556.39,-91.48 539.71,-82"/>
<polygon fill="#63b8ff" stroke="#63b8ff" points="541.73,-79.13 531.31,-77.23 538.27,-85.21 541.73,-79.13"/>
</a>
</g>
</g>
<!-- Node12&#45;&gt;Node11 -->
<g id="edge23_Node000012_Node000011" class="edge">
<title>Node12&#45;&gt;Node11</title>
<g id="a_edge23_Node000012_Node000011"><a xlink:title=" ">
<path fill="none" stroke="#63b8ff" d="M608.82,-111.75C609.08,-98.32 607.83,-73.15 596.32,-56 587.62,-43.03 573.78,-32.99 560.7,-25.72"/>
<polygon fill="#63b8ff" stroke="#63b8ff" points="562.32,-22.62 551.83,-21.17 559.13,-28.85 562.32,-22.62"/>
</a>
</g>
</g>
<!-- Node13&#45;&gt;Node4 -->
<g id="edge26_Node000013_Node000004" class="edge">
<title>Node13&#45;&gt;Node4</title>
<g id="a_edge26_Node000013_Node000004"><a xlink:title=" ">
<path fill="none" stroke="#63b8ff" d="M40.99,-111.84C26.45,-98.94 4.54,-74.9 17.32,-56 26.32,-42.68 64.75,-29.17 94.11,-20.47"/>
<polygon fill="#63b8ff" stroke="#63b8ff" points="94.74,-23.93 103.38,-17.81 92.8,-17.21 94.74,-23.93"/>
</a>
</g>
</g>
<!-- Node13&#45;&gt;Node5 -->
<g id="edge27_Node000013_Node000005" class="edge">
<title>Node13&#45;&gt;Node5</title>
<g id="a_edge27_Node000013_Node000005"><a xlink:title=" ">
<path fill="none" stroke="#63b8ff" d="M71.52,-111.67C99.32,-98.35 152.56,-73.58 199.32,-56 237.63,-41.6 282.82,-28.01 312.22,-19.61"/>
<polygon fill="#63b8ff" stroke="#63b8ff" points="312.91,-23.05 321.58,-16.96 311.01,-16.32 312.91,-23.05"/>
</a>
</g>
</g>
<!-- Node14 -->
<g id="Node000014" class="node">
<title>Node14</title>
<g id="a_Node000014"><a xlink:href="_token_8h.html" target="_top" xlink:title=" ">
<polygon fill="white" stroke="#666666" points="76.57,-76 26.07,-76 26.07,-56 76.57,-56 76.57,-76"/>
<text text-anchor="middle" x="51.32" y="-62.5" font-family="Helvetica,sans-Serif" font-size="10.00">Token.h</text>
</a>
</g>
</g>
<!-- Node13&#45;&gt;Node14 -->
<g id="edge28_Node000013_Node000014" class="edge">
<title>Node13&#45;&gt;Node14</title>
<g id="a_edge28_Node000013_Node000014"><a xlink:title=" ">
<path fill="none" stroke="#63b8ff" d="M52.14,-111.59C52.02,-105.01 51.85,-95.96 51.7,-87.73"/>
<polygon fill="#63b8ff" stroke="#63b8ff" points="55.2,-87.75 51.52,-77.81 48.2,-87.87 55.2,-87.75"/>
</a>
</g>
</g>
<!-- Node14&#45;&gt;Node3 -->
<g id="edge31_Node000014_Node000003" class="edge">
<title>Node14&#45;&gt;Node3</title>
<g id="a_edge31_Node000014_Node000003"><a xlink:title=" ">
<path fill="none" stroke="#63b8ff" d="M51.32,-55.59C51.32,-49.01 51.32,-39.96 51.32,-31.73"/>
<polygon fill="#63b8ff" stroke="#63b8ff" points="54.82,-31.81 51.32,-21.81 47.82,-31.81 54.82,-31.81"/>
</a>
</g>
</g>
<!-- Node14&#45;&gt;Node4 -->
<g id="edge29_Node000014_Node000004" class="edge">
<title>Node14&#45;&gt;Node4</title>
<g id="a_edge29_Node000014_Node000004"><a xlink:title=" ">
<path fill="none" stroke="#63b8ff" d="M64.9,-55.59C76.35,-47.67 92.98,-36.16 106.47,-26.82"/>
<polygon fill="#63b8ff" stroke="#63b8ff" points="108.15,-29.91 114.38,-21.34 104.17,-24.16 108.15,-29.91"/>
</a>
</g>
</g>
<!-- Node14&#45;&gt;Node5 -->
<g id="edge30_Node000014_Node000005" class="edge">
<title>Node14&#45;&gt;Node5</title>
<g id="a_edge30_Node000014_Node000005"><a xlink:title=" ">
<path fill="none" stroke="#63b8ff" d="M76.97,-60.26C130.49,-50.36 253.84,-27.55 311.95,-16.8"/>
<polygon fill="#63b8ff" stroke="#63b8ff" points="312.31,-20.29 321.5,-15.03 311.03,-13.41 312.31,-20.29"/>
</a>
</g>
</g>
</g>
</svg>
