<?xml version="1.0" encoding="UTF-8" standalone="no"?>
<!DOCTYPE svg PUBLIC "-//W3C//DTD SVG 1.1//EN"
 "http://www.w3.org/Graphics/SVG/1.1/DTD/svg11.dtd">
<!-- Generated by graphviz version 12.2.1 (20241206.2353)
 -->
<!-- Title: C:/Users/emilly/Documents/Lucca/Projetos/Cpp/NikiScript/src/Context.cpp Pages: 1 -->
<svg width="734pt" height="276pt"
 viewBox="0.00 0.00 734.29 276.00" xmlns="http://www.w3.org/2000/svg" xmlns:xlink="http://www.w3.org/1999/xlink">
<g id="graph0" class="graph" transform="scale(1 1) rotate(0) translate(4 272)">
<title>C:/Users/emilly/Documents/Lucca/Projetos/Cpp/NikiScript/src/Context.cpp</title>
<!-- Node1 -->
<g id="Node000001" class="node">
<title>Node1</title>
<g id="a_Node000001"><a xlink:title=" ">
<polygon fill="#999999" stroke="#666666" points="381.3,-268 230.3,-268 230.3,-224 381.3,-224 381.3,-268"/>
<text text-anchor="start" x="238.3" y="-254.5" font-family="Helvetica,sans-Serif" font-size="10.00">C:/Users/emilly/Documents</text>
<text text-anchor="start" x="238.3" y="-242.5" font-family="Helvetica,sans-Serif" font-size="10.00">/Lucca/Projetos/Cpp/NikiScript</text>
<text text-anchor="middle" x="305.8" y="-230.5" font-family="Helvetica,sans-Serif" font-size="10.00">/src/Context.cpp</text>
</a>
</g>
</g>
<!-- Node2 -->
<g id="Node000002" class="node">
<title>Node2</title>
<g id="a_Node000002"><a xlink:href="_context_8h.html" target="_top" xlink:title=" ">
<polygon fill="white" stroke="#666666" points="335.18,-188 276.43,-188 276.43,-168 335.18,-168 335.18,-188"/>
<text text-anchor="middle" x="305.8" y="-174.5" font-family="Helvetica,sans-Serif" font-size="10.00">Context.h</text>
</a>
</g>
</g>
<!-- Node1&#45;&gt;Node2 -->
<g id="edge1_Node000001_Node000002" class="edge">
<title>Node1&#45;&gt;Node2</title>
<g id="a_edge1_Node000001_Node000002"><a xlink:title=" ">
<path fill="none" stroke="#63b8ff" d="M305.8,-223.75C305.8,-216.13 305.8,-207.53 305.8,-199.93"/>
<polygon fill="#63b8ff" stroke="#63b8ff" points="309.3,-199.93 305.8,-189.93 302.3,-199.93 309.3,-199.93"/>
</a>
</g>
</g>
<!-- Node3 -->
<g id="Node000003" class="node">
<title>Node3</title>
<g id="a_Node000003"><a xlink:title=" ">
<polygon fill="#e0e0e0" stroke="#999999" points="76.3,-20 33.3,-20 33.3,0 76.3,0 76.3,-20"/>
<text text-anchor="middle" x="54.8" y="-6.5" font-family="Helvetica,sans-Serif" font-size="10.00">vector</text>
</a>
</g>
</g>
<!-- Node2&#45;&gt;Node3 -->
<g id="edge2_Node000002_Node000003" class="edge">
<title>Node2&#45;&gt;Node3</title>
<g id="a_edge2_Node000002_Node000003"><a xlink:title=" ">
<path fill="none" stroke="#63b8ff" d="M276.39,-175.34C214.64,-171.34 74.04,-159.41 35.8,-132 6.29,-110.84 -8.8,-89.25 5.8,-56 10.89,-44.42 20.59,-34.51 30.03,-26.97"/>
<polygon fill="#63b8ff" stroke="#63b8ff" points="31.99,-29.87 37.97,-21.13 27.84,-24.23 31.99,-29.87"/>
</a>
</g>
</g>
<!-- Node4 -->
<g id="Node000004" class="node">
<title>Node4</title>
<g id="a_Node000004"><a xlink:title=" ">
<polygon fill="#e0e0e0" stroke="#999999" points="156.93,-20 108.68,-20 108.68,0 156.93,0 156.93,-20"/>
<text text-anchor="middle" x="132.8" y="-6.5" font-family="Helvetica,sans-Serif" font-size="10.00">stdint.h</text>
</a>
</g>
</g>
<!-- Node2&#45;&gt;Node4 -->
<g id="edge3_Node000002_Node000004" class="edge">
<title>Node2&#45;&gt;Node4</title>
<g id="a_edge3_Node000002_Node000004"><a xlink:title=" ">
<path fill="none" stroke="#63b8ff" d="M276.11,-176.25C230.5,-174.01 141.5,-165.34 74.8,-132 41.59,-115.4 27.88,-109.93 12.8,-76 9.19,-67.88 7.74,-63.31 12.8,-56 22.74,-41.67 65.49,-28.01 97.16,-19.58"/>
<polygon fill="#63b8ff" stroke="#63b8ff" points="97.97,-22.99 106.77,-17.1 96.22,-16.21 97.97,-22.99"/>
</a>
</g>
</g>
<!-- Node5 -->
<g id="Node000005" class="node">
<title>Node5</title>
<g id="a_Node000005"><a xlink:title=" ">
<polygon fill="#e0e0e0" stroke="#999999" points="461.8,-20 421.8,-20 421.8,0 461.8,0 461.8,-20"/>
<text text-anchor="middle" x="441.8" y="-6.5" font-family="Helvetica,sans-Serif" font-size="10.00">string</text>
</a>
</g>
</g>
<!-- Node2&#45;&gt;Node5 -->
<g id="edge4_Node000002_Node000005" class="edge">
<title>Node2&#45;&gt;Node5</title>
<g id="a_edge4_Node000002_Node000005"><a xlink:title=" ">
<path fill="none" stroke="#63b8ff" d="M335.63,-176C426.17,-172.67 693.25,-160.49 718.8,-132 738.37,-110.18 714.8,-72.96 692.8,-56 658.93,-29.89 533.24,-17.56 473.6,-13.08"/>
<polygon fill="#63b8ff" stroke="#63b8ff" points="474,-9.6 463.78,-12.38 473.5,-16.58 474,-9.6"/>
</a>
</g>
</g>
<!-- Node6 -->
<g id="Node000006" class="node">
<title>Node6</title>
<g id="a_Node000006"><a xlink:title=" ">
<polygon fill="#e0e0e0" stroke="#999999" points="634.18,-76 551.43,-76 551.43,-56 634.18,-56 634.18,-76"/>
<text text-anchor="middle" x="592.8" y="-62.5" font-family="Helvetica,sans-Serif" font-size="10.00">unordered_map</text>
</a>
</g>
</g>
<!-- Node2&#45;&gt;Node6 -->
<g id="edge5_Node000002_Node000006" class="edge">
<title>Node2&#45;&gt;Node6</title>
<g id="a_edge5_Node000002_Node000006"><a xlink:title=" ">
<path fill="none" stroke="#63b8ff" d="M335.66,-174.88C377.21,-170.98 453.97,-160.29 512.8,-132 537.61,-120.07 561.49,-99.01 576.6,-84.1"/>
<polygon fill="#63b8ff" stroke="#63b8ff" points="578.84,-86.81 583.36,-77.23 573.85,-81.9 578.84,-86.81"/>
</a>
</g>
</g>
<!-- Node7 -->
<g id="Node000007" class="node">
<title>Node7</title>
<g id="a_Node000007"><a xlink:href="_command_8h.html" target="_top" xlink:title=" ">
<polygon fill="white" stroke="#666666" points="243.43,-76 174.18,-76 174.18,-56 243.43,-56 243.43,-76"/>
<text text-anchor="middle" x="208.8" y="-62.5" font-family="Helvetica,sans-Serif" font-size="10.00">Command.h</text>
</a>
</g>
</g>
<!-- Node2&#45;&gt;Node7 -->
<g id="edge6_Node000002_Node000007" class="edge">
<title>Node2&#45;&gt;Node7</title>
<g id="a_edge6_Node000002_Node000007"><a xlink:title=" ">
<path fill="none" stroke="#63b8ff" d="M295,-167.83C284.93,-159.07 269.71,-145.26 257.8,-132 244.41,-117.09 230.81,-98.74 221.35,-85.35"/>
<polygon fill="#63b8ff" stroke="#63b8ff" points="224.44,-83.67 215.86,-77.46 218.7,-87.66 224.44,-83.67"/>
</a>
</g>
</g>
<!-- Node8 -->
<g id="Node000008" class="node">
<title>Node8</title>
<g id="a_Node000008"><a xlink:href="_d_l_l_8h.html" target="_top" xlink:title=" ">
<polygon fill="white" stroke="#666666" points="311.93,-20 269.68,-20 269.68,0 311.93,0 311.93,-20"/>
<text text-anchor="middle" x="290.8" y="-6.5" font-family="Helvetica,sans-Serif" font-size="10.00">DLL.h</text>
</a>
</g>
</g>
<!-- Node2&#45;&gt;Node8 -->
<g id="edge39_Node000002_Node000008" class="edge">
<title>Node2&#45;&gt;Node8</title>
<g id="a_edge39_Node000002_Node000008"><a xlink:title=" ">
<path fill="none" stroke="#63b8ff" d="M301.67,-167.57C297.98,-158.62 292.86,-144.68 290.8,-132 285.16,-97.2 286.91,-56.02 288.79,-31.79"/>
<polygon fill="#63b8ff" stroke="#63b8ff" points="292.26,-32.27 289.65,-22 285.29,-31.66 292.26,-32.27"/>
</a>
</g>
</g>
<!-- Node9 -->
<g id="Node000009" class="node">
<title>Node9</title>
<g id="a_Node000009"><a xlink:href="_command_handler_8h.html" target="_top" xlink:title=" ">
<polygon fill="white" stroke="#666666" points="503.3,-132 400.3,-132 400.3,-112 503.3,-112 503.3,-132"/>
<text text-anchor="middle" x="451.8" y="-118.5" font-family="Helvetica,sans-Serif" font-size="10.00">CommandHandler.h</text>
</a>
</g>
</g>
<!-- Node2&#45;&gt;Node9 -->
<g id="edge11_Node000002_Node000009" class="edge">
<title>Node2&#45;&gt;Node9</title>
<g id="a_edge11_Node000002_Node000009"><a xlink:title=" ">
<path fill="none" stroke="#63b8ff" d="M331.23,-167.59C354.54,-158.97 389.3,-146.12 415.52,-136.42"/>
<polygon fill="#63b8ff" stroke="#63b8ff" points="416.59,-139.76 424.75,-133 414.16,-133.19 416.59,-139.76"/>
</a>
</g>
</g>
<!-- Node10 -->
<g id="Node000010" class="node">
<title>Node10</title>
<g id="a_Node000010"><a xlink:href="_print_callback_8h.html" target="_top" xlink:title=" ">
<polygon fill="white" stroke="#666666" points="382.18,-132 299.43,-132 299.43,-112 382.18,-112 382.18,-132"/>
<text text-anchor="middle" x="340.8" y="-118.5" font-family="Helvetica,sans-Serif" font-size="10.00">PrintCallback.h</text>
</a>
</g>
</g>
<!-- Node2&#45;&gt;Node10 -->
<g id="edge16_Node000002_Node000010" class="edge">
<title>Node2&#45;&gt;Node10</title>
<g id="a_edge16_Node000002_Node000010"><a xlink:title=" ">
<path fill="none" stroke="#63b8ff" d="M311.9,-167.59C316.52,-160.47 323.01,-150.45 328.67,-141.72"/>
<polygon fill="#63b8ff" stroke="#63b8ff" points="331.45,-143.86 333.95,-133.57 325.58,-140.06 331.45,-143.86"/>
</a>
</g>
</g>
<!-- Node13 -->
<g id="Node000013" class="node">
<title>Node13</title>
<g id="a_Node000013"><a xlink:href="_program_variable_8h.html" target="_top" xlink:title=" ">
<polygon fill="white" stroke="#666666" points="709.55,-132 614.05,-132 614.05,-112 709.55,-112 709.55,-132"/>
<text text-anchor="middle" x="661.8" y="-118.5" font-family="Helvetica,sans-Serif" font-size="10.00">ProgramVariable.h</text>
</a>
</g>
</g>
<!-- Node2&#45;&gt;Node13 -->
<g id="edge25_Node000002_Node000013" class="edge">
<title>Node2&#45;&gt;Node13</title>
<g id="a_edge25_Node000002_Node000013"><a xlink:title=" ">
<path fill="none" stroke="#63b8ff" d="M335.54,-172.49C394.24,-163.59 525.94,-143.61 602.86,-131.94"/>
<polygon fill="#63b8ff" stroke="#63b8ff" points="602.94,-135.47 612.3,-130.51 601.89,-128.55 602.94,-135.47"/>
</a>
</g>
</g>
<!-- Node14 -->
<g id="Node000014" class="node">
<title>Node14</title>
<g id="a_Node000014"><a xlink:href="_lexer_8h.html" target="_top" xlink:title=" ">
<polygon fill="white" stroke="#666666" points="131.93,-132 83.68,-132 83.68,-112 131.93,-112 131.93,-132"/>
<text text-anchor="middle" x="107.8" y="-118.5" font-family="Helvetica,sans-Serif" font-size="10.00">Lexer.h</text>
</a>
</g>
</g>
<!-- Node2&#45;&gt;Node14 -->
<g id="edge30_Node000002_Node000014" class="edge">
<title>Node2&#45;&gt;Node14</title>
<g id="a_edge30_Node000002_Node000014"><a xlink:title=" ">
<path fill="none" stroke="#63b8ff" d="M276.16,-168.92C240.67,-159.24 181.28,-143.04 143.36,-132.7"/>
<polygon fill="#63b8ff" stroke="#63b8ff" points="144.36,-129.34 133.79,-130.09 142.52,-136.1 144.36,-129.34"/>
</a>
</g>
</g>
<!-- Node7&#45;&gt;Node3 -->
<g id="edge7_Node000007_Node000003" class="edge">
<title>Node7&#45;&gt;Node3</title>
<g id="a_edge7_Node000007_Node000003"><a xlink:title=" ">
<path fill="none" stroke="#63b8ff" d="M181.98,-55.59C155.5,-46.31 115.01,-32.11 86.86,-22.24"/>
<polygon fill="#63b8ff" stroke="#63b8ff" points="88.38,-19.07 77.79,-19.06 86.06,-25.67 88.38,-19.07"/>
</a>
</g>
</g>
<!-- Node7&#45;&gt;Node4 -->
<g id="edge9_Node000007_Node000004" class="edge">
<title>Node7&#45;&gt;Node4</title>
<g id="a_edge9_Node000007_Node000004"><a xlink:title=" ">
<path fill="none" stroke="#63b8ff" d="M195.56,-55.59C184.52,-47.74 168.52,-36.38 155.45,-27.09"/>
<polygon fill="#63b8ff" stroke="#63b8ff" points="157.56,-24.3 147.38,-21.36 153.5,-30 157.56,-24.3"/>
</a>
</g>
</g>
<!-- Node7&#45;&gt;Node5 -->
<g id="edge8_Node000007_Node000005" class="edge">
<title>Node7&#45;&gt;Node5</title>
<g id="a_edge8_Node000007_Node000005"><a xlink:title=" ">
<path fill="none" stroke="#63b8ff" d="M243.69,-56.92C288.92,-46.43 367.15,-28.3 410.54,-18.25"/>
<polygon fill="#63b8ff" stroke="#63b8ff" points="411.12,-21.7 420.07,-16.04 409.54,-14.88 411.12,-21.7"/>
</a>
</g>
</g>
<!-- Node7&#45;&gt;Node8 -->
<g id="edge10_Node000007_Node000008" class="edge">
<title>Node7&#45;&gt;Node8</title>
<g id="a_edge10_Node000007_Node000008"><a xlink:title=" ">
<path fill="none" stroke="#63b8ff" d="M223.09,-55.59C235.24,-47.59 252.94,-35.93 267.2,-26.54"/>
<polygon fill="#63b8ff" stroke="#63b8ff" points="268.72,-29.73 275.14,-21.31 264.87,-23.89 268.72,-29.73"/>
</a>
</g>
</g>
<!-- Node9&#45;&gt;Node5 -->
<g id="edge13_Node000009_Node000005" class="edge">
<title>Node9&#45;&gt;Node5</title>
<g id="a_edge13_Node000009_Node000005"><a xlink:title=" ">
<path fill="none" stroke="#63b8ff" d="M467.34,-111.6C485.1,-99.56 510.42,-77.67 499.8,-56 493.73,-43.61 482.42,-33.65 471.39,-26.28"/>
<polygon fill="#63b8ff" stroke="#63b8ff" points="473.55,-23.5 463.19,-21.27 469.9,-29.47 473.55,-23.5"/>
</a>
</g>
</g>
<!-- Node9&#45;&gt;Node6 -->
<g id="edge12_Node000009_Node000006" class="edge">
<title>Node9&#45;&gt;Node6</title>
<g id="a_edge12_Node000009_Node000006"><a xlink:title=" ">
<path fill="none" stroke="#63b8ff" d="M476.36,-111.59C498.77,-103.01 532.14,-90.23 557.42,-80.55"/>
<polygon fill="#63b8ff" stroke="#63b8ff" points="558.55,-83.87 566.64,-77.02 556.05,-77.33 558.55,-83.87"/>
</a>
</g>
</g>
<!-- Node9&#45;&gt;Node7 -->
<g id="edge14_Node000009_Node000007" class="edge">
<title>Node9&#45;&gt;Node7</title>
<g id="a_edge14_Node000009_Node000007"><a xlink:title=" ">
<path fill="none" stroke="#63b8ff" d="M409.2,-111.53C366,-101.93 299.36,-87.12 254.93,-77.25"/>
<polygon fill="#63b8ff" stroke="#63b8ff" points="255.86,-73.87 245.34,-75.12 254.35,-80.71 255.86,-73.87"/>
</a>
</g>
</g>
<!-- Node9&#45;&gt;Node8 -->
<g id="edge15_Node000009_Node000008" class="edge">
<title>Node9&#45;&gt;Node8</title>
<g id="a_edge15_Node000009_Node000008"><a xlink:title=" ">
<path fill="none" stroke="#63b8ff" d="M451.06,-111.66C449.44,-97.65 444.4,-71.21 428.8,-56 400.25,-28.15 354.25,-17.54 323.29,-13.49"/>
<polygon fill="#63b8ff" stroke="#63b8ff" points="324.07,-10.06 313.74,-12.41 323.28,-17.01 324.07,-10.06"/>
</a>
</g>
</g>
<!-- Node10&#45;&gt;Node4 -->
<g id="edge17_Node000010_Node000004" class="edge">
<title>Node10&#45;&gt;Node4</title>
<g id="a_edge17_Node000010_Node000004"><a xlink:title=" ">
<path fill="none" stroke="#63b8ff" d="M299.08,-119.99C260.37,-117 203.13,-107.11 164.8,-76 150.76,-64.61 142.4,-45.51 137.77,-30.96"/>
<polygon fill="#63b8ff" stroke="#63b8ff" points="141.19,-30.21 135.12,-21.53 134.45,-32.1 141.19,-30.21"/>
</a>
</g>
</g>
<!-- Node10&#45;&gt;Node5 -->
<g id="edge18_Node000010_Node000005" class="edge">
<title>Node10&#45;&gt;Node5</title>
<g id="a_edge18_Node000010_Node000005"><a xlink:title=" ">
<path fill="none" stroke="#63b8ff" d="M374.86,-111.64C393.55,-104.77 415.55,-93.52 428.8,-76 438.37,-63.35 441.41,-45.49 442.17,-31.68"/>
<polygon fill="#63b8ff" stroke="#63b8ff" points="445.66,-31.99 442.33,-21.93 438.66,-31.87 445.66,-31.99"/>
</a>
</g>
</g>
<!-- Node10&#45;&gt;Node8 -->
<g id="edge19_Node000010_Node000008" class="edge">
<title>Node10&#45;&gt;Node8</title>
<g id="a_edge19_Node000010_Node000008"><a xlink:title=" ">
<path fill="none" stroke="#63b8ff" d="M336.54,-111.62C328.42,-93.76 310.59,-54.53 299.74,-30.67"/>
<polygon fill="#63b8ff" stroke="#63b8ff" points="303.01,-29.39 295.68,-21.73 296.63,-32.28 303.01,-29.39"/>
</a>
</g>
</g>
<!-- Node11 -->
<g id="Node000011" class="node">
<title>Node11</title>
<g id="a_Node000011"><a xlink:href="_utils_8h.html" target="_top" xlink:title=" ">
<polygon fill="white" stroke="#666666" points="420.05,-76 375.55,-76 375.55,-56 420.05,-56 420.05,-76"/>
<text text-anchor="middle" x="397.8" y="-62.5" font-family="Helvetica,sans-Serif" font-size="10.00">Utils.h</text>
</a>
</g>
</g>
<!-- Node10&#45;&gt;Node11 -->
<g id="edge20_Node000010_Node000011" class="edge">
<title>Node10&#45;&gt;Node11</title>
<g id="a_edge20_Node000010_Node000011"><a xlink:title=" ">
<path fill="none" stroke="#63b8ff" d="M350.73,-111.59C358.74,-104.01 370.22,-93.13 379.83,-84.02"/>
<polygon fill="#63b8ff" stroke="#63b8ff" points="382.04,-86.76 386.89,-77.34 377.22,-81.68 382.04,-86.76"/>
</a>
</g>
</g>
<!-- Node11&#45;&gt;Node4 -->
<g id="edge21_Node000011_Node000004" class="edge">
<title>Node11&#45;&gt;Node4</title>
<g id="a_edge21_Node000011_Node000004"><a xlink:title=" ">
<path fill="none" stroke="#63b8ff" d="M375.21,-60.4C329.05,-50.99 223.63,-29.51 168.26,-18.23"/>
<polygon fill="#63b8ff" stroke="#63b8ff" points="169.23,-14.85 158.73,-16.28 167.83,-21.71 169.23,-14.85"/>
</a>
</g>
</g>
<!-- Node11&#45;&gt;Node5 -->
<g id="edge22_Node000011_Node000005" class="edge">
<title>Node11&#45;&gt;Node5</title>
<g id="a_edge22_Node000011_Node000005"><a xlink:title=" ">
<path fill="none" stroke="#63b8ff" d="M405.47,-55.59C411.4,-48.32 419.79,-38.02 427.02,-29.15"/>
<polygon fill="#63b8ff" stroke="#63b8ff" points="429.67,-31.43 433.27,-21.47 424.24,-27.01 429.67,-31.43"/>
</a>
</g>
</g>
<!-- Node11&#45;&gt;Node8 -->
<g id="edge24_Node000011_Node000008" class="edge">
<title>Node11&#45;&gt;Node8</title>
<g id="a_edge24_Node000011_Node000008"><a xlink:title=" ">
<path fill="none" stroke="#63b8ff" d="M379.16,-55.59C362.77,-47.32 338.64,-35.14 319.74,-25.6"/>
<polygon fill="#63b8ff" stroke="#63b8ff" points="321.44,-22.54 310.94,-21.16 318.29,-28.79 321.44,-22.54"/>
</a>
</g>
</g>
<!-- Node12 -->
<g id="Node000012" class="node">
<title>Node12</title>
<g id="a_Node000012"><a xlink:title=" ">
<polygon fill="#e0e0e0" stroke="#999999" points="669.43,-20 618.18,-20 618.18,0 669.43,0 669.43,-20"/>
<text text-anchor="middle" x="643.8" y="-6.5" font-family="Helvetica,sans-Serif" font-size="10.00">sstream</text>
</a>
</g>
</g>
<!-- Node11&#45;&gt;Node12 -->
<g id="edge23_Node000011_Node000012" class="edge">
<title>Node11&#45;&gt;Node12</title>
<g id="a_edge23_Node000011_Node000012"><a xlink:title=" ">
<path fill="none" stroke="#63b8ff" d="M420.5,-60.02C463.08,-50.67 555.26,-30.44 606.88,-19.11"/>
<polygon fill="#63b8ff" stroke="#63b8ff" points="607.36,-22.58 616.38,-17.02 605.86,-15.75 607.36,-22.58"/>
</a>
</g>
</g>
<!-- Node13&#45;&gt;Node5 -->
<g id="edge26_Node000013_Node000005" class="edge">
<title>Node13&#45;&gt;Node5</title>
<g id="a_edge26_Node000013_Node000005"><a xlink:title=" ">
<path fill="none" stroke="#63b8ff" d="M667.99,-111.91C676.46,-98.22 689.18,-72.2 675.8,-56 650.47,-25.33 531.13,-15.34 473.33,-12.27"/>
<polygon fill="#63b8ff" stroke="#63b8ff" points="473.66,-8.79 463.5,-11.79 473.32,-15.78 473.66,-8.79"/>
</a>
</g>
</g>
<!-- Node13&#45;&gt;Node6 -->
<g id="edge28_Node000013_Node000006" class="edge">
<title>Node13&#45;&gt;Node6</title>
<g id="a_edge28_Node000013_Node000006"><a xlink:title=" ">
<path fill="none" stroke="#63b8ff" d="M649.78,-111.59C639.79,-103.77 625.34,-92.46 613.49,-83.19"/>
<polygon fill="#63b8ff" stroke="#63b8ff" points="615.91,-80.64 605.88,-77.23 611.59,-86.15 615.91,-80.64"/>
</a>
</g>
</g>
<!-- Node13&#45;&gt;Node8 -->
<g id="edge29_Node000013_Node000008" class="edge">
<title>Node13&#45;&gt;Node8</title>
<g id="a_edge29_Node000013_Node000008"><a xlink:title=" ">
<path fill="none" stroke="#63b8ff" d="M662.04,-111.8C661.87,-97.48 659.25,-70.05 642.8,-56 618.74,-35.45 406.64,-18.91 323.77,-13.17"/>
<polygon fill="#63b8ff" stroke="#63b8ff" points="324.02,-9.68 313.81,-12.49 323.55,-16.66 324.02,-9.68"/>
</a>
</g>
</g>
<!-- Node13&#45;&gt;Node12 -->
<g id="edge27_Node000013_Node000012" class="edge">
<title>Node13&#45;&gt;Node12</title>
<g id="a_edge27_Node000013_Node000012"><a xlink:title=" ">
<path fill="none" stroke="#63b8ff" d="M678.77,-111.64C698.15,-99.66 725.71,-77.82 713.8,-56 706.43,-42.49 693.07,-32.43 679.99,-25.29"/>
<polygon fill="#63b8ff" stroke="#63b8ff" points="681.54,-22.16 671.03,-20.85 678.43,-28.43 681.54,-22.16"/>
</a>
</g>
</g>
<!-- Node14&#45;&gt;Node4 -->
<g id="edge31_Node000014_Node000004" class="edge">
<title>Node14&#45;&gt;Node4</title>
<g id="a_edge31_Node000014_Node000004"><a xlink:title=" ">
<path fill="none" stroke="#63b8ff" d="M83.26,-114.32C51.41,-104.37 2.01,-83.8 20.8,-56 29.8,-42.68 68.23,-29.17 97.59,-20.47"/>
<polygon fill="#63b8ff" stroke="#63b8ff" points="98.22,-23.93 106.86,-17.81 96.29,-17.21 98.22,-23.93"/>
</a>
</g>
</g>
<!-- Node14&#45;&gt;Node5 -->
<g id="edge32_Node000014_Node000005" class="edge">
<title>Node14&#45;&gt;Node5</title>
<g id="a_edge32_Node000014_Node000005"><a xlink:title=" ">
<path fill="none" stroke="#63b8ff" d="M132.25,-113.66C161.13,-104.93 210.59,-89.81 252.8,-76 308.69,-57.72 373.41,-35.16 410.78,-21.99"/>
<polygon fill="#63b8ff" stroke="#63b8ff" points="411.76,-25.36 420.03,-18.73 409.43,-18.76 411.76,-25.36"/>
</a>
</g>
</g>
<!-- Node14&#45;&gt;Node8 -->
<g id="edge38_Node000014_Node000008" class="edge">
<title>Node14&#45;&gt;Node8</title>
<g id="a_edge38_Node000014_Node000008"><a xlink:title=" ">
<path fill="none" stroke="#63b8ff" d="M113.67,-111.7C122.93,-97.73 142.21,-71.36 164.8,-56 193.42,-36.55 231.39,-24.5 258.15,-17.82"/>
<polygon fill="#63b8ff" stroke="#63b8ff" points="258.82,-21.26 267.75,-15.55 257.21,-14.45 258.82,-21.26"/>
</a>
</g>
</g>
<!-- Node15 -->
<g id="Node000015" class="node">
<title>Node15</title>
<g id="a_Node000015"><a xlink:href="_token_8h.html" target="_top" xlink:title=" ">
<polygon fill="white" stroke="#666666" points="80.05,-76 29.55,-76 29.55,-56 80.05,-56 80.05,-76"/>
<text text-anchor="middle" x="54.8" y="-62.5" font-family="Helvetica,sans-Serif" font-size="10.00">Token.h</text>
</a>
</g>
</g>
<!-- Node14&#45;&gt;Node15 -->
<g id="edge33_Node000014_Node000015" class="edge">
<title>Node14&#45;&gt;Node15</title>
<g id="a_edge33_Node000014_Node000015"><a xlink:title=" ">
<path fill="none" stroke="#63b8ff" d="M98.57,-111.59C91.2,-104.08 80.67,-93.35 71.79,-84.3"/>
<polygon fill="#63b8ff" stroke="#63b8ff" points="74.49,-82.06 64.99,-77.38 69.5,-86.97 74.49,-82.06"/>
</a>
</g>
</g>
<!-- Node15&#45;&gt;Node3 -->
<g id="edge36_Node000015_Node000003" class="edge">
<title>Node15&#45;&gt;Node3</title>
<g id="a_edge36_Node000015_Node000003"><a xlink:title=" ">
<path fill="none" stroke="#63b8ff" d="M54.8,-55.59C54.8,-49.01 54.8,-39.96 54.8,-31.73"/>
<polygon fill="#63b8ff" stroke="#63b8ff" points="58.3,-31.81 54.8,-21.81 51.3,-31.81 58.3,-31.81"/>
</a>
</g>
</g>
<!-- Node15&#45;&gt;Node4 -->
<g id="edge34_Node000015_Node000004" class="edge">
<title>Node15&#45;&gt;Node4</title>
<g id="a_edge34_Node000015_Node000004"><a xlink:title=" ">
<path fill="none" stroke="#63b8ff" d="M68.39,-55.59C79.84,-47.67 96.47,-36.16 109.96,-26.82"/>
<polygon fill="#63b8ff" stroke="#63b8ff" points="111.64,-29.91 117.87,-21.34 107.65,-24.16 111.64,-29.91"/>
</a>
</g>
</g>
<!-- Node15&#45;&gt;Node5 -->
<g id="edge35_Node000015_Node000005" class="edge">
<title>Node15&#45;&gt;Node5</title>
<g id="a_edge35_Node000015_Node000005"><a xlink:title=" ">
<path fill="none" stroke="#63b8ff" d="M80.49,-61.42C148.94,-51.86 335.54,-25.83 410.25,-15.4"/>
<polygon fill="#63b8ff" stroke="#63b8ff" points="410.73,-18.87 420.15,-14.02 409.77,-11.94 410.73,-18.87"/>
</a>
</g>
</g>
<!-- Node15&#45;&gt;Node8 -->
<g id="edge37_Node000015_Node000008" class="edge">
<title>Node15&#45;&gt;Node8</title>
<g id="a_edge37_Node000015_Node000008"><a xlink:title=" ">
<path fill="none" stroke="#63b8ff" d="M80.39,-59.09C84.86,-58.06 89.47,-57 93.8,-56 151.59,-42.73 218.95,-27.37 258.04,-18.46"/>
<polygon fill="#63b8ff" stroke="#63b8ff" points="258.78,-21.88 267.75,-16.25 257.22,-15.06 258.78,-21.88"/>
</a>
</g>
</g>
</g>
</svg>
