<?xml version="1.0" encoding="UTF-8" standalone="no"?>
<!DOCTYPE svg PUBLIC "-//W3C//DTD SVG 1.1//EN"
 "http://www.w3.org/Graphics/SVG/1.1/DTD/svg11.dtd">
<!-- Generated by graphviz version 12.2.1 (20241206.2353)
 -->
<!-- Title: C:/Users/emilly/Documents/Lucca/Projetos/Cpp/NikiScript/src/Context.h Pages: 1 -->
<svg width="648pt" height="220pt"
 viewBox="0.00 0.00 648.33 220.00" xmlns="http://www.w3.org/2000/svg" xmlns:xlink="http://www.w3.org/1999/xlink">
<g id="graph0" class="graph" transform="scale(1 1) rotate(0) translate(4 216)">
<title>C:/Users/emilly/Documents/Lucca/Projetos/Cpp/NikiScript/src/Context.h</title>
<!-- Node1 -->
<g id="Node000001" class="node">
<title>Node1</title>
<g id="a_Node000001"><a xlink:title=" ">
<polygon fill="#999999" stroke="#666666" points="335.54,-212 184.54,-212 184.54,-168 335.54,-168 335.54,-212"/>
<text text-anchor="start" x="192.54" y="-198.5" font-family="Helvetica,sans-Serif" font-size="10.00">C:/Users/emilly/Documents</text>
<text text-anchor="start" x="192.54" y="-186.5" font-family="Helvetica,sans-Serif" font-size="10.00">/Lucca/Projetos/Cpp/NikiScript</text>
<text text-anchor="middle" x="260.04" y="-174.5" font-family="Helvetica,sans-Serif" font-size="10.00">/src/Context.h</text>
</a>
</g>
</g>
<!-- Node2 -->
<g id="Node000002" class="node">
<title>Node2</title>
<g id="a_Node000002"><a xlink:title=" ">
<polygon fill="#e0e0e0" stroke="#999999" points="65.54,-20 22.54,-20 22.54,0 65.54,0 65.54,-20"/>
<text text-anchor="middle" x="44.04" y="-6.5" font-family="Helvetica,sans-Serif" font-size="10.00">vector</text>
</a>
</g>
</g>
<!-- Node1&#45;&gt;Node2 -->
<g id="edge1_Node000001_Node000002" class="edge">
<title>Node1&#45;&gt;Node2</title>
<g id="a_edge1_Node000001_Node000002"><a xlink:title=" ">
<path fill="none" stroke="#63b8ff" d="M184.24,-185.82C136.37,-180.27 75.73,-166.28 33.04,-132 4.97,-109.46 -7.54,-89.73 5.04,-56 9.02,-45.33 16.79,-35.51 24.36,-27.79"/>
<polygon fill="#63b8ff" stroke="#63b8ff" points="26.34,-30.73 31.2,-21.32 21.53,-25.65 26.34,-30.73"/>
</a>
</g>
</g>
<!-- Node3 -->
<g id="Node000003" class="node">
<title>Node3</title>
<g id="a_Node000003"><a xlink:title=" ">
<polygon fill="#e0e0e0" stroke="#999999" points="632.16,-20 583.91,-20 583.91,0 632.16,0 632.16,-20"/>
<text text-anchor="middle" x="608.04" y="-6.5" font-family="Helvetica,sans-Serif" font-size="10.00">stdint.h</text>
</a>
</g>
</g>
<!-- Node1&#45;&gt;Node3 -->
<g id="edge2_Node000001_Node000003" class="edge">
<title>Node1&#45;&gt;Node3</title>
<g id="a_edge2_Node000001_Node000003"><a xlink:title=" ">
<path fill="none" stroke="#63b8ff" d="M335.72,-188.53C403.99,-185.22 505.31,-172.91 583.04,-132 613.91,-115.75 624.83,-108.29 638.04,-76 644.7,-59.71 634.81,-41.55 624.64,-28.57"/>
<polygon fill="#63b8ff" stroke="#63b8ff" points="627.57,-26.61 618.41,-21.29 622.25,-31.17 627.57,-26.61"/>
</a>
</g>
</g>
<!-- Node4 -->
<g id="Node000004" class="node">
<title>Node4</title>
<g id="a_Node000004"><a xlink:title=" ">
<polygon fill="#e0e0e0" stroke="#999999" points="384.04,-20 344.04,-20 344.04,0 384.04,0 384.04,-20"/>
<text text-anchor="middle" x="364.04" y="-6.5" font-family="Helvetica,sans-Serif" font-size="10.00">string</text>
</a>
</g>
</g>
<!-- Node1&#45;&gt;Node4 -->
<g id="edge3_Node000001_Node000004" class="edge">
<title>Node1&#45;&gt;Node4</title>
<g id="a_edge3_Node000001_Node000004"><a xlink:title=" ">
<path fill="none" stroke="#63b8ff" d="M285.73,-167.65C296.49,-157.68 308.47,-145.13 317.04,-132 338.1,-99.7 352,-56.53 358.91,-31.44"/>
<polygon fill="#63b8ff" stroke="#63b8ff" points="362.26,-32.44 361.42,-21.88 355.49,-30.66 362.26,-32.44"/>
</a>
</g>
</g>
<!-- Node5 -->
<g id="Node000005" class="node">
<title>Node5</title>
<g id="a_Node000005"><a xlink:title=" ">
<polygon fill="#e0e0e0" stroke="#999999" points="222.41,-76 139.66,-76 139.66,-56 222.41,-56 222.41,-76"/>
<text text-anchor="middle" x="181.04" y="-62.5" font-family="Helvetica,sans-Serif" font-size="10.00">unordered_map</text>
</a>
</g>
</g>
<!-- Node1&#45;&gt;Node5 -->
<g id="edge4_Node000001_Node000005" class="edge">
<title>Node1&#45;&gt;Node5</title>
<g id="a_edge4_Node000001_Node000005"><a xlink:title=" ">
<path fill="none" stroke="#63b8ff" d="M233.78,-167.56C223.04,-157.66 211.23,-145.2 203.04,-132 194.47,-118.21 188.79,-100.68 185.35,-87.3"/>
<polygon fill="#63b8ff" stroke="#63b8ff" points="188.83,-86.82 183.15,-77.88 182.02,-88.42 188.83,-86.82"/>
</a>
</g>
</g>
<!-- Node6 -->
<g id="Node000006" class="node">
<title>Node6</title>
<g id="a_Node000006"><a xlink:href="_command_8h.html" target="_top" xlink:title=" ">
<polygon fill="white" stroke="#666666" points="83.66,-76 14.41,-76 14.41,-56 83.66,-56 83.66,-76"/>
<text text-anchor="middle" x="49.04" y="-62.5" font-family="Helvetica,sans-Serif" font-size="10.00">Command.h</text>
</a>
</g>
</g>
<!-- Node1&#45;&gt;Node6 -->
<g id="edge5_Node000001_Node000006" class="edge">
<title>Node1&#45;&gt;Node6</title>
<g id="a_edge5_Node000001_Node000006"><a xlink:title=" ">
<path fill="none" stroke="#63b8ff" d="M184.24,-178.9C129.14,-169.81 61.32,-154.43 44.04,-132 34.22,-119.25 36.85,-100.61 41.13,-86.56"/>
<polygon fill="#63b8ff" stroke="#63b8ff" points="44.3,-88.08 44.37,-77.49 37.71,-85.73 44.3,-88.08"/>
</a>
</g>
</g>
<!-- Node8 -->
<g id="Node000008" class="node">
<title>Node8</title>
<g id="a_Node000008"><a xlink:href="_command_handler_8h.html" target="_top" xlink:title=" ">
<polygon fill="white" stroke="#666666" points="155.54,-132 52.54,-132 52.54,-112 155.54,-112 155.54,-132"/>
<text text-anchor="middle" x="104.04" y="-118.5" font-family="Helvetica,sans-Serif" font-size="10.00">CommandHandler.h</text>
</a>
</g>
</g>
<!-- Node1&#45;&gt;Node8 -->
<g id="edge9_Node000001_Node000008" class="edge">
<title>Node1&#45;&gt;Node8</title>
<g id="a_edge9_Node000001_Node000008"><a xlink:title=" ">
<path fill="none" stroke="#63b8ff" d="M209.39,-167.57C185.45,-157.44 157.57,-145.65 136.51,-136.74"/>
<polygon fill="#63b8ff" stroke="#63b8ff" points="138.14,-133.63 127.57,-132.96 135.41,-140.07 138.14,-133.63"/>
</a>
</g>
</g>
<!-- Node9 -->
<g id="Node000009" class="node">
<title>Node9</title>
<g id="a_Node000009"><a xlink:href="_print_callback_8h.html" target="_top" xlink:title=" ">
<polygon fill="white" stroke="#666666" points="574.41,-132 491.66,-132 491.66,-112 574.41,-112 574.41,-132"/>
<text text-anchor="middle" x="533.04" y="-118.5" font-family="Helvetica,sans-Serif" font-size="10.00">PrintCallback.h</text>
</a>
</g>
</g>
<!-- Node1&#45;&gt;Node9 -->
<g id="edge13_Node000001_Node000009" class="edge">
<title>Node1&#45;&gt;Node9</title>
<g id="a_edge13_Node000001_Node000009"><a xlink:title=" ">
<path fill="none" stroke="#63b8ff" d="M335.72,-170.7C382.6,-159.37 441.5,-145.13 482.7,-135.17"/>
<polygon fill="#63b8ff" stroke="#63b8ff" points="483.46,-138.59 492.35,-132.84 481.81,-131.78 483.46,-138.59"/>
</a>
</g>
</g>
<!-- Node12 -->
<g id="Node000012" class="node">
<title>Node12</title>
<g id="a_Node000012"><a xlink:href="_program_variable_8h.html" target="_top" xlink:title=" ">
<polygon fill="white" stroke="#666666" points="307.79,-132 212.29,-132 212.29,-112 307.79,-112 307.79,-132"/>
<text text-anchor="middle" x="260.04" y="-118.5" font-family="Helvetica,sans-Serif" font-size="10.00">ProgramVariable.h</text>
</a>
</g>
</g>
<!-- Node1&#45;&gt;Node12 -->
<g id="edge20_Node000001_Node000012" class="edge">
<title>Node1&#45;&gt;Node12</title>
<g id="a_edge20_Node000001_Node000012"><a xlink:title=" ">
<path fill="none" stroke="#63b8ff" d="M260.04,-167.75C260.04,-160.13 260.04,-151.53 260.04,-143.93"/>
<polygon fill="#63b8ff" stroke="#63b8ff" points="263.54,-143.93 260.04,-133.93 256.54,-143.93 263.54,-143.93"/>
</a>
</g>
</g>
<!-- Node13 -->
<g id="Node000013" class="node">
<title>Node13</title>
<g id="a_Node000013"><a xlink:href="_lexer_8h.html" target="_top" xlink:title=" ">
<polygon fill="white" stroke="#666666" points="427.16,-132 378.91,-132 378.91,-112 427.16,-112 427.16,-132"/>
<text text-anchor="middle" x="403.04" y="-118.5" font-family="Helvetica,sans-Serif" font-size="10.00">Lexer.h</text>
</a>
</g>
</g>
<!-- Node1&#45;&gt;Node13 -->
<g id="edge25_Node000001_Node000013" class="edge">
<title>Node1&#45;&gt;Node13</title>
<g id="a_edge25_Node000001_Node000013"><a xlink:title=" ">
<path fill="none" stroke="#63b8ff" d="M306.47,-167.57C328.11,-157.58 353.26,-145.97 372.47,-137.11"/>
<polygon fill="#63b8ff" stroke="#63b8ff" points="373.76,-140.37 381.37,-133 370.83,-134.01 373.76,-140.37"/>
</a>
</g>
</g>
<!-- Node6&#45;&gt;Node2 -->
<g id="edge6_Node000006_Node000002" class="edge">
<title>Node6&#45;&gt;Node2</title>
<g id="a_edge6_Node000006_Node000002"><a xlink:title=" ">
<path fill="none" stroke="#63b8ff" d="M48.17,-55.59C47.56,-49.01 46.72,-39.96 45.96,-31.73"/>
<polygon fill="#63b8ff" stroke="#63b8ff" points="49.44,-31.44 45.04,-21.81 42.47,-32.09 49.44,-31.44"/>
</a>
</g>
</g>
<!-- Node6&#45;&gt;Node4 -->
<g id="edge8_Node000006_Node000004" class="edge">
<title>Node6&#45;&gt;Node4</title>
<g id="a_edge8_Node000006_Node000004"><a xlink:title=" ">
<path fill="none" stroke="#63b8ff" d="M83.95,-59.01C145.69,-48.43 273.21,-26.57 332.48,-16.41"/>
<polygon fill="#63b8ff" stroke="#63b8ff" points="332.95,-19.88 342.22,-14.74 331.77,-12.98 332.95,-19.88"/>
</a>
</g>
</g>
<!-- Node7 -->
<g id="Node000007" class="node">
<title>Node7</title>
<g id="a_Node000007"><a xlink:title=" ">
<polygon fill="#e0e0e0" stroke="#999999" points="148.79,-20 83.29,-20 83.29,0 148.79,0 148.79,-20"/>
<text text-anchor="middle" x="116.04" y="-6.5" font-family="Helvetica,sans-Serif" font-size="10.00">string_view</text>
</a>
</g>
</g>
<!-- Node6&#45;&gt;Node7 -->
<g id="edge7_Node000006_Node000007" class="edge">
<title>Node6&#45;&gt;Node7</title>
<g id="a_edge7_Node000006_Node000007"><a xlink:title=" ">
<path fill="none" stroke="#63b8ff" d="M60.71,-55.59C70.32,-47.85 84.17,-36.69 95.6,-27.47"/>
<polygon fill="#63b8ff" stroke="#63b8ff" points="97.73,-30.25 103.32,-21.25 93.34,-24.8 97.73,-30.25"/>
</a>
</g>
</g>
<!-- Node8&#45;&gt;Node5 -->
<g id="edge10_Node000008_Node000005" class="edge">
<title>Node8&#45;&gt;Node5</title>
<g id="a_edge10_Node000008_Node000005"><a xlink:title=" ">
<path fill="none" stroke="#63b8ff" d="M117.45,-111.59C128.64,-103.74 144.85,-92.38 158.1,-83.09"/>
<polygon fill="#63b8ff" stroke="#63b8ff" points="160.1,-85.96 166.28,-77.35 156.08,-80.22 160.1,-85.96"/>
</a>
</g>
</g>
<!-- Node8&#45;&gt;Node6 -->
<g id="edge12_Node000008_Node000006" class="edge">
<title>Node8&#45;&gt;Node6</title>
<g id="a_edge12_Node000008_Node000006"><a xlink:title=" ">
<path fill="none" stroke="#63b8ff" d="M94.46,-111.59C86.81,-104.08 75.88,-93.35 66.66,-84.3"/>
<polygon fill="#63b8ff" stroke="#63b8ff" points="69.18,-81.87 59.59,-77.36 64.27,-86.86 69.18,-81.87"/>
</a>
</g>
</g>
<!-- Node8&#45;&gt;Node7 -->
<g id="edge11_Node000008_Node000007" class="edge">
<title>Node8&#45;&gt;Node7</title>
<g id="a_edge11_Node000008_Node000007"><a xlink:title=" ">
<path fill="none" stroke="#63b8ff" d="M105.06,-111.62C106.98,-94.01 111.17,-55.59 113.78,-31.65"/>
<polygon fill="#63b8ff" stroke="#63b8ff" points="117.25,-32.18 114.85,-21.86 110.29,-31.42 117.25,-32.18"/>
</a>
</g>
</g>
<!-- Node9&#45;&gt;Node3 -->
<g id="edge14_Node000009_Node000003" class="edge">
<title>Node9&#45;&gt;Node3</title>
<g id="a_edge14_Node000009_Node000003"><a xlink:title=" ">
<path fill="none" stroke="#63b8ff" d="M572.03,-111.54C590.58,-104.88 611.06,-93.85 622.04,-76 630.54,-62.17 625.48,-43.92 619.19,-30.28"/>
<polygon fill="#63b8ff" stroke="#63b8ff" points="622.31,-28.7 614.58,-21.45 616.1,-31.93 622.31,-28.7"/>
</a>
</g>
</g>
<!-- Node9&#45;&gt;Node4 -->
<g id="edge15_Node000009_Node000004" class="edge">
<title>Node9&#45;&gt;Node4</title>
<g id="a_edge15_Node000009_Node000004"><a xlink:title=" ">
<path fill="none" stroke="#63b8ff" d="M522.66,-111.69C507.56,-98.4 478.35,-73.65 451.04,-56 432.94,-44.3 411.45,-33.16 394.35,-24.89"/>
<polygon fill="#63b8ff" stroke="#63b8ff" points="396.24,-21.92 385.71,-20.78 393.24,-28.24 396.24,-21.92"/>
</a>
</g>
</g>
<!-- Node10 -->
<g id="Node000010" class="node">
<title>Node10</title>
<g id="a_Node000010"><a xlink:href="_utils_8h.html" target="_top" xlink:title=" ">
<polygon fill="white" stroke="#666666" points="580.29,-76 535.79,-76 535.79,-56 580.29,-56 580.29,-76"/>
<text text-anchor="middle" x="558.04" y="-62.5" font-family="Helvetica,sans-Serif" font-size="10.00">Utils.h</text>
</a>
</g>
</g>
<!-- Node9&#45;&gt;Node10 -->
<g id="edge16_Node000009_Node000010" class="edge">
<title>Node9&#45;&gt;Node10</title>
<g id="a_edge16_Node000009_Node000010"><a xlink:title=" ">
<path fill="none" stroke="#63b8ff" d="M537.39,-111.59C540.58,-104.7 545.03,-95.1 548.98,-86.57"/>
<polygon fill="#63b8ff" stroke="#63b8ff" points="552.07,-88.22 553.1,-77.67 545.72,-85.28 552.07,-88.22"/>
</a>
</g>
</g>
<!-- Node10&#45;&gt;Node3 -->
<g id="edge17_Node000010_Node000003" class="edge">
<title>Node10&#45;&gt;Node3</title>
<g id="a_edge17_Node000010_Node000003"><a xlink:title=" ">
<path fill="none" stroke="#63b8ff" d="M566.75,-55.59C573.63,-48.16 583.43,-37.58 591.76,-28.58"/>
<polygon fill="#63b8ff" stroke="#63b8ff" points="594.17,-31.12 598.4,-21.41 589.04,-26.37 594.17,-31.12"/>
</a>
</g>
</g>
<!-- Node10&#45;&gt;Node4 -->
<g id="edge18_Node000010_Node000004" class="edge">
<title>Node10&#45;&gt;Node4</title>
<g id="a_edge18_Node000010_Node000004"><a xlink:title=" ">
<path fill="none" stroke="#63b8ff" d="M535.4,-58.7C500.82,-49.07 434.71,-30.67 395.48,-19.75"/>
<polygon fill="#63b8ff" stroke="#63b8ff" points="396.5,-16.4 385.93,-17.09 394.63,-23.15 396.5,-16.4"/>
</a>
</g>
</g>
<!-- Node11 -->
<g id="Node000011" class="node">
<title>Node11</title>
<g id="a_Node000011"><a xlink:title=" ">
<polygon fill="#e0e0e0" stroke="#999999" points="530.66,-20 479.41,-20 479.41,0 530.66,0 530.66,-20"/>
<text text-anchor="middle" x="505.04" y="-6.5" font-family="Helvetica,sans-Serif" font-size="10.00">sstream</text>
</a>
</g>
</g>
<!-- Node10&#45;&gt;Node11 -->
<g id="edge19_Node000010_Node000011" class="edge">
<title>Node10&#45;&gt;Node11</title>
<g id="a_edge19_Node000010_Node000011"><a xlink:title=" ">
<path fill="none" stroke="#63b8ff" d="M548.81,-55.59C541.43,-48.08 530.9,-37.35 522.02,-28.3"/>
<polygon fill="#63b8ff" stroke="#63b8ff" points="524.73,-26.06 515.22,-21.38 519.73,-30.97 524.73,-26.06"/>
</a>
</g>
</g>
<!-- Node12&#45;&gt;Node4 -->
<g id="edge21_Node000012_Node000004" class="edge">
<title>Node12&#45;&gt;Node4</title>
<g id="a_edge21_Node000012_Node000004"><a xlink:title=" ">
<path fill="none" stroke="#63b8ff" d="M266.61,-111.74C276.03,-98.72 294.2,-74.54 312.04,-56 321.7,-45.96 333.36,-35.72 343.18,-27.55"/>
<polygon fill="#63b8ff" stroke="#63b8ff" points="345.21,-30.42 350.75,-21.39 340.79,-24.99 345.21,-30.42"/>
</a>
</g>
</g>
<!-- Node12&#45;&gt;Node5 -->
<g id="edge24_Node000012_Node000005" class="edge">
<title>Node12&#45;&gt;Node5</title>
<g id="a_edge24_Node000012_Node000005"><a xlink:title=" ">
<path fill="none" stroke="#63b8ff" d="M246.28,-111.59C234.68,-103.67 217.84,-92.16 204.17,-82.82"/>
<polygon fill="#63b8ff" stroke="#63b8ff" points="206.39,-80.09 196.15,-77.33 202.44,-85.87 206.39,-80.09"/>
</a>
</g>
</g>
<!-- Node12&#45;&gt;Node7 -->
<g id="edge22_Node000012_Node000007" class="edge">
<title>Node12&#45;&gt;Node7</title>
<g id="a_edge22_Node000012_Node000007"><a xlink:title=" ">
<path fill="none" stroke="#63b8ff" d="M258.25,-111.74C255.1,-97.83 247.31,-71.53 231.04,-56 211.64,-37.49 183.76,-26.33 160.31,-19.75"/>
<polygon fill="#63b8ff" stroke="#63b8ff" points="161.23,-16.37 150.67,-17.26 159.47,-23.15 161.23,-16.37"/>
</a>
</g>
</g>
<!-- Node12&#45;&gt;Node11 -->
<g id="edge23_Node000012_Node000011" class="edge">
<title>Node12&#45;&gt;Node11</title>
<g id="a_edge23_Node000012_Node000011"><a xlink:title=" ">
<path fill="none" stroke="#63b8ff" d="M308,-118.17C348.71,-113.87 407.3,-103.08 451.04,-76 469.5,-64.56 484.67,-44.61 494.18,-29.82"/>
<polygon fill="#63b8ff" stroke="#63b8ff" points="497.07,-31.81 499.28,-21.45 491.09,-28.17 497.07,-31.81"/>
</a>
</g>
</g>
<!-- Node13&#45;&gt;Node3 -->
<g id="edge26_Node000013_Node000003" class="edge">
<title>Node13&#45;&gt;Node3</title>
<g id="a_edge26_Node000013_Node000003"><a xlink:title=" ">
<path fill="none" stroke="#63b8ff" d="M427.42,-118.14C472.39,-112.4 565.9,-98.07 589.04,-76 601.01,-64.58 605.56,-46.06 607.23,-31.71"/>
<polygon fill="#63b8ff" stroke="#63b8ff" points="610.71,-32.19 607.96,-21.96 603.73,-31.67 610.71,-32.19"/>
</a>
</g>
</g>
<!-- Node13&#45;&gt;Node4 -->
<g id="edge27_Node000013_Node000004" class="edge">
<title>Node13&#45;&gt;Node4</title>
<g id="a_edge27_Node000013_Node000004"><a xlink:title=" ">
<path fill="none" stroke="#63b8ff" d="M398.53,-111.84C394.21,-102.85 387.69,-88.68 383.04,-76 377.64,-61.28 372.71,-44.25 369.22,-31.32"/>
<polygon fill="#63b8ff" stroke="#63b8ff" points="372.66,-30.63 366.74,-21.85 365.89,-32.41 372.66,-30.63"/>
</a>
</g>
</g>
<!-- Node14 -->
<g id="Node000014" class="node">
<title>Node14</title>
<g id="a_Node000014"><a xlink:href="_token_8h.html" target="_top" xlink:title=" ">
<polygon fill="white" stroke="#666666" points="442.29,-76 391.79,-76 391.79,-56 442.29,-56 442.29,-76"/>
<text text-anchor="middle" x="417.04" y="-62.5" font-family="Helvetica,sans-Serif" font-size="10.00">Token.h</text>
</a>
</g>
</g>
<!-- Node13&#45;&gt;Node14 -->
<g id="edge28_Node000013_Node000014" class="edge">
<title>Node13&#45;&gt;Node14</title>
<g id="a_edge28_Node000013_Node000014"><a xlink:title=" ">
<path fill="none" stroke="#63b8ff" d="M405.48,-111.59C407.2,-104.93 409.58,-95.75 411.74,-87.44"/>
<polygon fill="#63b8ff" stroke="#63b8ff" points="415.13,-88.32 414.25,-77.76 408.35,-86.56 415.13,-88.32"/>
</a>
</g>
</g>
<!-- Node14&#45;&gt;Node2 -->
<g id="edge31_Node000014_Node000002" class="edge">
<title>Node14&#45;&gt;Node2</title>
<g id="a_edge31_Node000014_Node000002"><a xlink:title=" ">
<path fill="none" stroke="#63b8ff" d="M391.41,-63.06C335.74,-58.54 199.5,-45.86 76.94,-20.34"/>
<polygon fill="#63b8ff" stroke="#63b8ff" points="77.88,-16.96 67.37,-18.31 76.42,-23.81 77.88,-16.96"/>
</a>
</g>
</g>
<!-- Node14&#45;&gt;Node3 -->
<g id="edge29_Node000014_Node000003" class="edge">
<title>Node14&#45;&gt;Node3</title>
<g id="a_edge29_Node000014_Node000003"><a xlink:title=" ">
<path fill="none" stroke="#63b8ff" d="M442.4,-57.83C475.78,-48.39 534.65,-31.75 572.47,-21.06"/>
<polygon fill="#63b8ff" stroke="#63b8ff" points="573.35,-24.44 582.02,-18.36 571.45,-17.71 573.35,-24.44"/>
</a>
</g>
</g>
<!-- Node14&#45;&gt;Node4 -->
<g id="edge30_Node000014_Node000004" class="edge">
<title>Node14&#45;&gt;Node4</title>
<g id="a_edge30_Node000014_Node000004"><a xlink:title=" ">
<path fill="none" stroke="#63b8ff" d="M407.81,-55.59C400.43,-48.08 389.9,-37.35 381.02,-28.3"/>
<polygon fill="#63b8ff" stroke="#63b8ff" points="383.73,-26.06 374.22,-21.38 378.73,-30.97 383.73,-26.06"/>
</a>
</g>
</g>
</g>
</svg>
