<?xml version="1.0" encoding="UTF-8" standalone="no"?>
<!DOCTYPE svg PUBLIC "-//W3C//DTD SVG 1.1//EN"
 "http://www.w3.org/Graphics/SVG/1.1/DTD/svg11.dtd">
<!-- Generated by graphviz version 12.2.1 (20241206.2353)
 -->
<!-- Title: C:/Users/emilly/Documents/Lucca/Projetos/Cpp/NikiScript/src/Context.cpp Pages: 1 -->
<svg width="636pt" height="276pt"
 viewBox="0.00 0.00 636.03 276.00" xmlns="http://www.w3.org/2000/svg" xmlns:xlink="http://www.w3.org/1999/xlink">
<g id="graph0" class="graph" transform="scale(1 1) rotate(0) translate(4 272)">
<title>C:/Users/emilly/Documents/Lucca/Projetos/Cpp/NikiScript/src/Context.cpp</title>
<!-- Node1 -->
<g id="Node000001" class="node">
<title>Node1</title>
<g id="a_Node000001"><a xlink:title=" ">
<polygon fill="#999999" stroke="#666666" points="310,-268 159,-268 159,-224 310,-224 310,-268"/>
<text text-anchor="start" x="167" y="-254.5" font-family="Helvetica,sans-Serif" font-size="10.00">C:/Users/emilly/Documents</text>
<text text-anchor="start" x="167" y="-242.5" font-family="Helvetica,sans-Serif" font-size="10.00">/Lucca/Projetos/Cpp/NikiScript</text>
<text text-anchor="middle" x="234.5" y="-230.5" font-family="Helvetica,sans-Serif" font-size="10.00">/src/Context.cpp</text>
</a>
</g>
</g>
<!-- Node2 -->
<g id="Node000002" class="node">
<title>Node2</title>
<g id="a_Node000002"><a xlink:href="_context_8h.html" target="_top" xlink:title=" ">
<polygon fill="white" stroke="#666666" points="263.88,-188 205.12,-188 205.12,-168 263.88,-168 263.88,-188"/>
<text text-anchor="middle" x="234.5" y="-174.5" font-family="Helvetica,sans-Serif" font-size="10.00">Context.h</text>
</a>
</g>
</g>
<!-- Node1&#45;&gt;Node2 -->
<g id="edge1_Node000001_Node000002" class="edge">
<title>Node1&#45;&gt;Node2</title>
<g id="a_edge1_Node000001_Node000002"><a xlink:title=" ">
<path fill="none" stroke="#63b8ff" d="M234.5,-223.75C234.5,-216.13 234.5,-207.53 234.5,-199.93"/>
<polygon fill="#63b8ff" stroke="#63b8ff" points="238,-199.93 234.5,-189.93 231,-199.93 238,-199.93"/>
</a>
</g>
</g>
<!-- Node3 -->
<g id="Node000003" class="node">
<title>Node3</title>
<g id="a_Node000003"><a xlink:title=" ">
<polygon fill="#e0e0e0" stroke="#999999" points="43,-20 0,-20 0,0 43,0 43,-20"/>
<text text-anchor="middle" x="21.5" y="-6.5" font-family="Helvetica,sans-Serif" font-size="10.00">vector</text>
</a>
</g>
</g>
<!-- Node2&#45;&gt;Node3 -->
<g id="edge2_Node000002_Node000003" class="edge">
<title>Node2&#45;&gt;Node3</title>
<g id="a_edge2_Node000002_Node000003"><a xlink:title=" ">
<path fill="none" stroke="#63b8ff" d="M204.93,-177C164.94,-175.55 93.16,-167.68 45.5,-132 16.16,-110.03 10.28,-92.51 13.5,-56 14.21,-47.9 15.64,-39.08 17.09,-31.41"/>
<polygon fill="#63b8ff" stroke="#63b8ff" points="20.49,-32.22 19.06,-21.73 13.64,-30.83 20.49,-32.22"/>
</a>
</g>
</g>
<!-- Node4 -->
<g id="Node000004" class="node">
<title>Node4</title>
<g id="a_Node000004"><a xlink:title=" ">
<polygon fill="#e0e0e0" stroke="#999999" points="448.62,-20 400.38,-20 400.38,0 448.62,0 448.62,-20"/>
<text text-anchor="middle" x="424.5" y="-6.5" font-family="Helvetica,sans-Serif" font-size="10.00">stdint.h</text>
</a>
</g>
</g>
<!-- Node2&#45;&gt;Node4 -->
<g id="edge3_Node000002_Node000004" class="edge">
<title>Node2&#45;&gt;Node4</title>
<g id="a_edge3_Node000002_Node000004"><a xlink:title=" ">
<path fill="none" stroke="#63b8ff" d="M232.89,-167.71C229.57,-145.35 224.57,-88.03 253.5,-56 271.44,-36.13 344.31,-22.45 388.93,-15.74"/>
<polygon fill="#63b8ff" stroke="#63b8ff" points="389.27,-19.23 398.66,-14.33 388.26,-12.31 389.27,-19.23"/>
</a>
</g>
</g>
<!-- Node5 -->
<g id="Node000005" class="node">
<title>Node5</title>
<g id="a_Node000005"><a xlink:title=" ">
<polygon fill="#e0e0e0" stroke="#999999" points="576.5,-20 536.5,-20 536.5,0 576.5,0 576.5,-20"/>
<text text-anchor="middle" x="556.5" y="-6.5" font-family="Helvetica,sans-Serif" font-size="10.00">string</text>
</a>
</g>
</g>
<!-- Node2&#45;&gt;Node5 -->
<g id="edge4_Node000002_Node000005" class="edge">
<title>Node2&#45;&gt;Node5</title>
<g id="a_edge4_Node000002_Node000005"><a xlink:title=" ">
<path fill="none" stroke="#63b8ff" d="M264.34,-175.44C335.75,-171.31 514.49,-158.55 567.5,-132 604.78,-113.33 641.98,-92.86 622.5,-56 614.86,-41.54 600.25,-30.85 586.71,-23.53"/>
<polygon fill="#63b8ff" stroke="#63b8ff" points="588.58,-20.55 578.06,-19.25 585.48,-26.82 588.58,-20.55"/>
</a>
</g>
</g>
<!-- Node6 -->
<g id="Node000006" class="node">
<title>Node6</title>
<g id="a_Node000006"><a xlink:title=" ">
<polygon fill="#e0e0e0" stroke="#999999" points="302.88,-20 220.12,-20 220.12,0 302.88,0 302.88,-20"/>
<text text-anchor="middle" x="261.5" y="-6.5" font-family="Helvetica,sans-Serif" font-size="10.00">unordered_map</text>
</a>
</g>
</g>
<!-- Node2&#45;&gt;Node6 -->
<g id="edge5_Node000002_Node000006" class="edge">
<title>Node2&#45;&gt;Node6</title>
<g id="a_edge5_Node000002_Node000006"><a xlink:title=" ">
<path fill="none" stroke="#63b8ff" d="M230.47,-167.51C222.19,-146.59 205.3,-95.24 220.5,-56 224.6,-45.4 232.49,-35.77 240.27,-28.16"/>
<polygon fill="#63b8ff" stroke="#63b8ff" points="242.57,-30.79 247.66,-21.49 237.89,-25.59 242.57,-30.79"/>
</a>
</g>
</g>
<!-- Node7 -->
<g id="Node000007" class="node">
<title>Node7</title>
<g id="a_Node000007"><a xlink:href="_command_8h.html" target="_top" xlink:title=" ">
<polygon fill="white" stroke="#666666" points="92.12,-76 22.88,-76 22.88,-56 92.12,-56 92.12,-76"/>
<text text-anchor="middle" x="57.5" y="-62.5" font-family="Helvetica,sans-Serif" font-size="10.00">Command.h</text>
</a>
</g>
</g>
<!-- Node2&#45;&gt;Node7 -->
<g id="edge6_Node000002_Node000007" class="edge">
<title>Node2&#45;&gt;Node7</title>
<g id="a_edge6_Node000002_Node000007"><a xlink:title=" ">
<path fill="none" stroke="#63b8ff" d="M204.83,-173.86C159.05,-168.33 74.57,-155.2 56.5,-132 46.74,-119.46 48.02,-101.06 51.14,-87.03"/>
<polygon fill="#63b8ff" stroke="#63b8ff" points="54.47,-88.12 53.74,-77.55 47.72,-86.27 54.47,-88.12"/>
</a>
</g>
</g>
<!-- Node9 -->
<g id="Node000009" class="node">
<title>Node9</title>
<g id="a_Node000009"><a xlink:href="_command_handler_8h.html" target="_top" xlink:title=" ">
<polygon fill="white" stroke="#666666" points="168,-132 65,-132 65,-112 168,-112 168,-132"/>
<text text-anchor="middle" x="116.5" y="-118.5" font-family="Helvetica,sans-Serif" font-size="10.00">CommandHandler.h</text>
</a>
</g>
</g>
<!-- Node2&#45;&gt;Node9 -->
<g id="edge10_Node000002_Node000009" class="edge">
<title>Node2&#45;&gt;Node9</title>
<g id="a_edge10_Node000002_Node000009"><a xlink:title=" ">
<path fill="none" stroke="#63b8ff" d="M213.95,-167.59C195.62,-159.21 168.51,-146.8 147.54,-137.21"/>
<polygon fill="#63b8ff" stroke="#63b8ff" points="149.14,-134.09 138.59,-133.11 146.23,-140.45 149.14,-134.09"/>
</a>
</g>
</g>
<!-- Node10 -->
<g id="Node000010" class="node">
<title>Node10</title>
<g id="a_Node000010"><a xlink:href="_print_callback_8h.html" target="_top" xlink:title=" ">
<polygon fill="white" stroke="#666666" points="558.88,-132 476.12,-132 476.12,-112 558.88,-112 558.88,-132"/>
<text text-anchor="middle" x="517.5" y="-118.5" font-family="Helvetica,sans-Serif" font-size="10.00">PrintCallback.h</text>
</a>
</g>
</g>
<!-- Node2&#45;&gt;Node10 -->
<g id="edge14_Node000002_Node000010" class="edge">
<title>Node2&#45;&gt;Node10</title>
<g id="a_edge14_Node000002_Node000010"><a xlink:title=" ">
<path fill="none" stroke="#63b8ff" d="M264.25,-171.32C311.85,-162.24 405.75,-144.32 464.88,-133.04"/>
<polygon fill="#63b8ff" stroke="#63b8ff" points="465.2,-136.54 474.37,-131.23 463.89,-129.67 465.2,-136.54"/>
</a>
</g>
</g>
<!-- Node13 -->
<g id="Node000013" class="node">
<title>Node13</title>
<g id="a_Node000013"><a xlink:href="_program_variable_8h.html" target="_top" xlink:title=" ">
<polygon fill="white" stroke="#666666" points="358.25,-76 262.75,-76 262.75,-56 358.25,-56 358.25,-76"/>
<text text-anchor="middle" x="310.5" y="-62.5" font-family="Helvetica,sans-Serif" font-size="10.00">ProgramVariable.h</text>
</a>
</g>
</g>
<!-- Node2&#45;&gt;Node13 -->
<g id="edge21_Node000002_Node000013" class="edge">
<title>Node2&#45;&gt;Node13</title>
<g id="a_edge21_Node000002_Node000013"><a xlink:title=" ">
<path fill="none" stroke="#63b8ff" d="M240.98,-167.62C253.49,-149.52 281.17,-109.45 297.58,-85.7"/>
<polygon fill="#63b8ff" stroke="#63b8ff" points="300.37,-87.82 303.18,-77.6 294.61,-83.84 300.37,-87.82"/>
</a>
</g>
</g>
<!-- Node14 -->
<g id="Node000014" class="node">
<title>Node14</title>
<g id="a_Node000014"><a xlink:href="_lexer_8h.html" target="_top" xlink:title=" ">
<polygon fill="white" stroke="#666666" points="433.62,-132 385.38,-132 385.38,-112 433.62,-112 433.62,-132"/>
<text text-anchor="middle" x="409.5" y="-118.5" font-family="Helvetica,sans-Serif" font-size="10.00">Lexer.h</text>
</a>
</g>
</g>
<!-- Node2&#45;&gt;Node14 -->
<g id="edge26_Node000002_Node000014" class="edge">
<title>Node2&#45;&gt;Node14</title>
<g id="a_edge26_Node000002_Node000014"><a xlink:title=" ">
<path fill="none" stroke="#63b8ff" d="M264.19,-167.84C294.63,-158.45 341.97,-143.84 374.29,-133.86"/>
<polygon fill="#63b8ff" stroke="#63b8ff" points="375.07,-137.29 383.6,-130.99 373.01,-130.6 375.07,-137.29"/>
</a>
</g>
</g>
<!-- Node7&#45;&gt;Node3 -->
<g id="edge7_Node000007_Node000003" class="edge">
<title>Node7&#45;&gt;Node3</title>
<g id="a_edge7_Node000007_Node000003"><a xlink:title=" ">
<path fill="none" stroke="#63b8ff" d="M51.23,-55.59C46.48,-48.47 39.8,-38.45 33.98,-29.72"/>
<polygon fill="#63b8ff" stroke="#63b8ff" points="37,-27.94 28.54,-21.56 31.17,-31.82 37,-27.94"/>
</a>
</g>
</g>
<!-- Node7&#45;&gt;Node5 -->
<g id="edge9_Node000007_Node000005" class="edge">
<title>Node7&#45;&gt;Node5</title>
<g id="a_edge9_Node000007_Node000005"><a xlink:title=" ">
<path fill="none" stroke="#63b8ff" d="M92.35,-64.11C169.12,-61.62 358.59,-52.64 525.11,-20.1"/>
<polygon fill="#63b8ff" stroke="#63b8ff" points="525.43,-23.6 534.56,-18.22 524.06,-16.74 525.43,-23.6"/>
</a>
</g>
</g>
<!-- Node8 -->
<g id="Node000008" class="node">
<title>Node8</title>
<g id="a_Node000008"><a xlink:title=" ">
<polygon fill="#e0e0e0" stroke="#999999" points="153.25,-20 87.75,-20 87.75,0 153.25,0 153.25,-20"/>
<text text-anchor="middle" x="120.5" y="-6.5" font-family="Helvetica,sans-Serif" font-size="10.00">string_view</text>
</a>
</g>
</g>
<!-- Node7&#45;&gt;Node8 -->
<g id="edge8_Node000007_Node000008" class="edge">
<title>Node7&#45;&gt;Node8</title>
<g id="a_edge8_Node000007_Node000008"><a xlink:title=" ">
<path fill="none" stroke="#63b8ff" d="M68.47,-55.59C77.42,-47.93 90.27,-36.91 100.96,-27.75"/>
<polygon fill="#63b8ff" stroke="#63b8ff" points="103.19,-30.45 108.5,-21.28 98.63,-25.13 103.19,-30.45"/>
</a>
</g>
</g>
<!-- Node9&#45;&gt;Node6 -->
<g id="edge11_Node000009_Node000006" class="edge">
<title>Node9&#45;&gt;Node6</title>
<g id="a_edge11_Node000009_Node000006"><a xlink:title=" ">
<path fill="none" stroke="#63b8ff" d="M124.39,-111.83C136.16,-98.51 159.42,-73.47 182.5,-56 197.84,-44.39 216.48,-33.64 231.8,-25.55"/>
<polygon fill="#63b8ff" stroke="#63b8ff" points="233.16,-28.79 240.45,-21.1 229.96,-22.57 233.16,-28.79"/>
</a>
</g>
</g>
<!-- Node9&#45;&gt;Node7 -->
<g id="edge13_Node000009_Node000007" class="edge">
<title>Node9&#45;&gt;Node7</title>
<g id="a_edge13_Node000009_Node000007"><a xlink:title=" ">
<path fill="none" stroke="#63b8ff" d="M106.22,-111.59C97.93,-104.01 86.05,-93.13 76.1,-84.02"/>
<polygon fill="#63b8ff" stroke="#63b8ff" points="78.52,-81.49 68.78,-77.32 73.79,-86.65 78.52,-81.49"/>
</a>
</g>
</g>
<!-- Node9&#45;&gt;Node8 -->
<g id="edge12_Node000009_Node000008" class="edge">
<title>Node9&#45;&gt;Node8</title>
<g id="a_edge12_Node000009_Node000008"><a xlink:title=" ">
<path fill="none" stroke="#63b8ff" d="M116.84,-111.62C117.48,-94.01 118.88,-55.59 119.75,-31.65"/>
<polygon fill="#63b8ff" stroke="#63b8ff" points="123.24,-31.99 120.1,-21.87 116.24,-31.73 123.24,-31.99"/>
</a>
</g>
</g>
<!-- Node10&#45;&gt;Node4 -->
<g id="edge15_Node000010_Node000004" class="edge">
<title>Node10&#45;&gt;Node4</title>
<g id="a_edge15_Node000010_Node000004"><a xlink:title=" ">
<path fill="none" stroke="#63b8ff" d="M512.15,-111.69C504.42,-98.62 489.34,-74.37 473.5,-56 464.79,-45.9 453.96,-35.75 444.71,-27.66"/>
<polygon fill="#63b8ff" stroke="#63b8ff" points="447.14,-25.13 437.26,-21.3 442.6,-30.46 447.14,-25.13"/>
</a>
</g>
</g>
<!-- Node10&#45;&gt;Node5 -->
<g id="edge16_Node000010_Node000005" class="edge">
<title>Node10&#45;&gt;Node5</title>
<g id="a_edge16_Node000010_Node000005"><a xlink:title=" ">
<path fill="none" stroke="#63b8ff" d="M556.49,-111.54C575.04,-104.88 595.53,-93.85 606.5,-76 617.39,-58.3 599.6,-39.65 582.3,-26.89"/>
<polygon fill="#63b8ff" stroke="#63b8ff" points="584.4,-24.08 574.18,-21.31 580.44,-29.85 584.4,-24.08"/>
</a>
</g>
</g>
<!-- Node11 -->
<g id="Node000011" class="node">
<title>Node11</title>
<g id="a_Node000011"><a xlink:href="_utils_8h.html" target="_top" xlink:title=" ">
<polygon fill="white" stroke="#666666" points="564.75,-76 520.25,-76 520.25,-56 564.75,-56 564.75,-76"/>
<text text-anchor="middle" x="542.5" y="-62.5" font-family="Helvetica,sans-Serif" font-size="10.00">Utils.h</text>
</a>
</g>
</g>
<!-- Node10&#45;&gt;Node11 -->
<g id="edge17_Node000010_Node000011" class="edge">
<title>Node10&#45;&gt;Node11</title>
<g id="a_edge17_Node000010_Node000011"><a xlink:title=" ">
<path fill="none" stroke="#63b8ff" d="M521.85,-111.59C525.05,-104.7 529.49,-95.1 533.44,-86.57"/>
<polygon fill="#63b8ff" stroke="#63b8ff" points="536.53,-88.22 537.56,-77.67 530.18,-85.28 536.53,-88.22"/>
</a>
</g>
</g>
<!-- Node11&#45;&gt;Node4 -->
<g id="edge18_Node000011_Node000004" class="edge">
<title>Node11&#45;&gt;Node4</title>
<g id="a_edge18_Node000011_Node000004"><a xlink:title=" ">
<path fill="none" stroke="#63b8ff" d="M521.95,-55.59C503.62,-47.21 476.51,-34.8 455.54,-25.21"/>
<polygon fill="#63b8ff" stroke="#63b8ff" points="457.14,-22.09 446.59,-21.11 454.23,-28.45 457.14,-22.09"/>
</a>
</g>
</g>
<!-- Node11&#45;&gt;Node5 -->
<g id="edge19_Node000011_Node000005" class="edge">
<title>Node11&#45;&gt;Node5</title>
<g id="a_edge19_Node000011_Node000005"><a xlink:title=" ">
<path fill="none" stroke="#63b8ff" d="M544.94,-55.59C546.67,-48.93 549.05,-39.75 551.2,-31.44"/>
<polygon fill="#63b8ff" stroke="#63b8ff" points="554.59,-32.32 553.71,-21.76 547.81,-30.56 554.59,-32.32"/>
</a>
</g>
</g>
<!-- Node12 -->
<g id="Node000012" class="node">
<title>Node12</title>
<g id="a_Node000012"><a xlink:title=" ">
<polygon fill="#e0e0e0" stroke="#999999" points="518.12,-20 466.88,-20 466.88,0 518.12,0 518.12,-20"/>
<text text-anchor="middle" x="492.5" y="-6.5" font-family="Helvetica,sans-Serif" font-size="10.00">sstream</text>
</a>
</g>
</g>
<!-- Node11&#45;&gt;Node12 -->
<g id="edge20_Node000011_Node000012" class="edge">
<title>Node11&#45;&gt;Node12</title>
<g id="a_edge20_Node000011_Node000012"><a xlink:title=" ">
<path fill="none" stroke="#63b8ff" d="M533.79,-55.59C526.91,-48.16 517.11,-37.58 508.78,-28.58"/>
<polygon fill="#63b8ff" stroke="#63b8ff" points="511.5,-26.37 502.14,-21.41 506.36,-31.12 511.5,-26.37"/>
</a>
</g>
</g>
<!-- Node13&#45;&gt;Node5 -->
<g id="edge22_Node000013_Node000005" class="edge">
<title>Node13&#45;&gt;Node5</title>
<g id="a_edge22_Node000013_Node000005"><a xlink:title=" ">
<path fill="none" stroke="#63b8ff" d="M358.64,-56.4C400.41,-48.63 462.67,-36.3 525.4,-20.35"/>
<polygon fill="#63b8ff" stroke="#63b8ff" points="526.01,-23.81 534.82,-17.92 524.27,-17.03 526.01,-23.81"/>
</a>
</g>
</g>
<!-- Node13&#45;&gt;Node6 -->
<g id="edge25_Node000013_Node000006" class="edge">
<title>Node13&#45;&gt;Node6</title>
<g id="a_edge25_Node000013_Node000006"><a xlink:title=" ">
<path fill="none" stroke="#63b8ff" d="M301.96,-55.59C295.22,-48.16 285.61,-37.58 277.46,-28.58"/>
<polygon fill="#63b8ff" stroke="#63b8ff" points="280.27,-26.47 270.95,-21.42 275.08,-31.18 280.27,-26.47"/>
</a>
</g>
</g>
<!-- Node13&#45;&gt;Node8 -->
<g id="edge23_Node000013_Node000008" class="edge">
<title>Node13&#45;&gt;Node8</title>
<g id="a_edge23_Node000013_Node000008"><a xlink:title=" ">
<path fill="none" stroke="#63b8ff" d="M277.4,-55.59C246.03,-46.68 198.71,-33.23 164.24,-23.43"/>
<polygon fill="#63b8ff" stroke="#63b8ff" points="165.57,-20.17 154.99,-20.8 163.65,-26.9 165.57,-20.17"/>
</a>
</g>
</g>
<!-- Node13&#45;&gt;Node12 -->
<g id="edge24_Node000013_Node000012" class="edge">
<title>Node13&#45;&gt;Node12</title>
<g id="a_edge24_Node000013_Node000012"><a xlink:title=" ">
<path fill="none" stroke="#63b8ff" d="M342.2,-55.59C373.86,-46.2 422.48,-31.77 455.8,-21.89"/>
<polygon fill="#63b8ff" stroke="#63b8ff" points="456.42,-25.36 465.01,-19.16 454.43,-18.65 456.42,-25.36"/>
</a>
</g>
</g>
<!-- Node14&#45;&gt;Node4 -->
<g id="edge27_Node000014_Node000004" class="edge">
<title>Node14&#45;&gt;Node4</title>
<g id="a_edge27_Node000014_Node000004"><a xlink:title=" ">
<path fill="none" stroke="#63b8ff" d="M407.42,-111.64C404.92,-98.91 401.55,-75.5 405.5,-56 407.26,-47.29 410.77,-38.17 414.29,-30.43"/>
<polygon fill="#63b8ff" stroke="#63b8ff" points="417.33,-32.18 418.6,-21.66 411.05,-29.09 417.33,-32.18"/>
</a>
</g>
</g>
<!-- Node14&#45;&gt;Node5 -->
<g id="edge28_Node000014_Node000005" class="edge">
<title>Node14&#45;&gt;Node5</title>
<g id="a_edge28_Node000014_Node000005"><a xlink:title=" ">
<path fill="none" stroke="#63b8ff" d="M433.85,-116.01C477.41,-106.84 564.93,-87.24 573.5,-76 583.65,-62.7 577.08,-43.89 569.35,-29.93"/>
<polygon fill="#63b8ff" stroke="#63b8ff" points="572.49,-28.34 564.26,-21.66 566.52,-32.01 572.49,-28.34"/>
</a>
</g>
</g>
<!-- Node15 -->
<g id="Node000015" class="node">
<title>Node15</title>
<g id="a_Node000015"><a xlink:href="_token_8h.html" target="_top" xlink:title=" ">
<polygon fill="white" stroke="#666666" points="464.75,-76 414.25,-76 414.25,-56 464.75,-56 464.75,-76"/>
<text text-anchor="middle" x="439.5" y="-62.5" font-family="Helvetica,sans-Serif" font-size="10.00">Token.h</text>
</a>
</g>
</g>
<!-- Node14&#45;&gt;Node15 -->
<g id="edge29_Node000014_Node000015" class="edge">
<title>Node14&#45;&gt;Node15</title>
<g id="a_edge29_Node000014_Node000015"><a xlink:title=" ">
<path fill="none" stroke="#63b8ff" d="M414.73,-111.59C418.6,-104.63 424.01,-94.89 428.78,-86.29"/>
<polygon fill="#63b8ff" stroke="#63b8ff" points="431.8,-88.06 433.6,-77.62 425.68,-84.66 431.8,-88.06"/>
</a>
</g>
</g>
<!-- Node15&#45;&gt;Node4 -->
<g id="edge30_Node000015_Node000004" class="edge">
<title>Node15&#45;&gt;Node4</title>
<g id="a_edge30_Node000015_Node000004"><a xlink:title=" ">
<path fill="none" stroke="#63b8ff" d="M436.89,-55.59C435.02,-48.86 432.43,-39.53 430.1,-31.15"/>
<polygon fill="#63b8ff" stroke="#63b8ff" points="433.54,-30.46 427.49,-21.76 426.79,-32.33 433.54,-30.46"/>
</a>
</g>
</g>
<!-- Node15&#45;&gt;Node5 -->
<g id="edge31_Node000015_Node000005" class="edge">
<title>Node15&#45;&gt;Node5</title>
<g id="a_edge31_Node000015_Node000005"><a xlink:title=" ">
<path fill="none" stroke="#63b8ff" d="M459.88,-55.59C478.17,-47.15 505.26,-34.65 526.1,-25.03"/>
<polygon fill="#63b8ff" stroke="#63b8ff" points="527.37,-28.3 534.98,-20.93 524.43,-21.95 527.37,-28.3"/>
</a>
</g>
</g>
<!-- Node15&#45;&gt;Node6 -->
<g id="edge32_Node000015_Node000006" class="edge">
<title>Node15&#45;&gt;Node6</title>
<g id="a_edge32_Node000015_Node000006"><a xlink:title=" ">
<path fill="none" stroke="#63b8ff" d="M414,-57.26C385.11,-48.5 337.61,-34.09 303.29,-23.68"/>
<polygon fill="#63b8ff" stroke="#63b8ff" points="304.68,-20.44 294.1,-20.89 302.65,-27.14 304.68,-20.44"/>
</a>
</g>
</g>
</g>
</svg>
