<?xml version="1.0" encoding="UTF-8" standalone="no"?>
<!DOCTYPE svg PUBLIC "-//W3C//DTD SVG 1.1//EN"
 "http://www.w3.org/Graphics/SVG/1.1/DTD/svg11.dtd">
<!-- Generated by graphviz version 12.2.1 (20241206.2353)
 -->
<!-- Title: C:/Users/emilly/Documents/Lucca/Projetos/Cpp/NikiScript/include/NikiScript/Context.h Pages: 1 -->
<svg width="734pt" height="220pt"
 viewBox="0.00 0.00 733.97 220.00" xmlns="http://www.w3.org/2000/svg" xmlns:xlink="http://www.w3.org/1999/xlink">
<g id="graph0" class="graph" transform="scale(1 1) rotate(0) translate(4 216)">
<title>C:/Users/emilly/Documents/Lucca/Projetos/Cpp/NikiScript/include/NikiScript/Context.h</title>
<!-- Node1 -->
<g id="Node000001" class="node">
<title>Node1</title>
<g id="a_Node000001"><a xlink:title=" ">
<polygon fill="#999999" stroke="#666666" points="381.36,-212 230.36,-212 230.36,-168 381.36,-168 381.36,-212"/>
<text text-anchor="start" x="238.36" y="-198.5" font-family="Helvetica,sans-Serif" font-size="10.00">C:/Users/emilly/Documents</text>
<text text-anchor="start" x="238.36" y="-186.5" font-family="Helvetica,sans-Serif" font-size="10.00">/Lucca/Projetos/Cpp/NikiScript</text>
<text text-anchor="middle" x="305.86" y="-174.5" font-family="Helvetica,sans-Serif" font-size="10.00">/include/NikiScript/Context.h</text>
</a>
</g>
</g>
<!-- Node2 -->
<g id="Node000002" class="node">
<title>Node2</title>
<g id="a_Node000002"><a xlink:title=" ">
<polygon fill="#e0e0e0" stroke="#999999" points="76.36,-20 33.36,-20 33.36,0 76.36,0 76.36,-20"/>
<text text-anchor="middle" x="54.86" y="-6.5" font-family="Helvetica,sans-Serif" font-size="10.00">vector</text>
</a>
</g>
</g>
<!-- Node1&#45;&gt;Node2 -->
<g id="edge1_Node000001_Node000002" class="edge">
<title>Node1&#45;&gt;Node2</title>
<g id="a_edge1_Node000001_Node000002"><a xlink:title=" ">
<path fill="none" stroke="#63b8ff" d="M230.09,-180.4C160.93,-171.26 65.05,-154.95 34.86,-132 6.08,-110.12 -8.68,-89.1 5.86,-56 10.95,-44.42 20.65,-34.51 30.09,-26.97"/>
<polygon fill="#63b8ff" stroke="#63b8ff" points="32.05,-29.87 38.03,-21.13 27.9,-24.23 32.05,-29.87"/>
</a>
</g>
</g>
<!-- Node3 -->
<g id="Node000003" class="node">
<title>Node3</title>
<g id="a_Node000003"><a xlink:title=" ">
<polygon fill="#e0e0e0" stroke="#999999" points="156.99,-20 108.74,-20 108.74,0 156.99,0 156.99,-20"/>
<text text-anchor="middle" x="132.86" y="-6.5" font-family="Helvetica,sans-Serif" font-size="10.00">stdint.h</text>
</a>
</g>
</g>
<!-- Node1&#45;&gt;Node3 -->
<g id="edge2_Node000001_Node000003" class="edge">
<title>Node1&#45;&gt;Node3</title>
<g id="a_edge2_Node000001_Node000003"><a xlink:title=" ">
<path fill="none" stroke="#63b8ff" d="M230.18,-187.07C155.86,-180.38 48.61,-156.47 12.86,-76 9.25,-67.88 7.8,-63.31 12.86,-56 22.79,-41.67 65.55,-28.01 97.22,-19.58"/>
<polygon fill="#63b8ff" stroke="#63b8ff" points="98.02,-22.99 106.83,-17.1 96.27,-16.21 98.02,-22.99"/>
</a>
</g>
</g>
<!-- Node4 -->
<g id="Node000004" class="node">
<title>Node4</title>
<g id="a_Node000004"><a xlink:title=" ">
<polygon fill="#e0e0e0" stroke="#999999" points="461.86,-20 421.86,-20 421.86,0 461.86,0 461.86,-20"/>
<text text-anchor="middle" x="441.86" y="-6.5" font-family="Helvetica,sans-Serif" font-size="10.00">string</text>
</a>
</g>
</g>
<!-- Node1&#45;&gt;Node4 -->
<g id="edge3_Node000001_Node000004" class="edge">
<title>Node1&#45;&gt;Node4</title>
<g id="a_edge3_Node000001_Node000004"><a xlink:title=" ">
<path fill="none" stroke="#63b8ff" d="M381.69,-189.9C488.75,-189.36 676,-181.18 718.86,-132 738.1,-109.93 713.83,-72.17 692.86,-56 658.99,-29.89 533.3,-17.56 473.66,-13.08"/>
<polygon fill="#63b8ff" stroke="#63b8ff" points="474.06,-9.6 463.84,-12.38 473.56,-16.58 474.06,-9.6"/>
</a>
</g>
</g>
<!-- Node5 -->
<g id="Node000005" class="node">
<title>Node5</title>
<g id="a_Node000005"><a xlink:title=" ">
<polygon fill="#e0e0e0" stroke="#999999" points="634.24,-76 551.49,-76 551.49,-56 634.24,-56 634.24,-76"/>
<text text-anchor="middle" x="592.86" y="-62.5" font-family="Helvetica,sans-Serif" font-size="10.00">unordered_map</text>
</a>
</g>
</g>
<!-- Node1&#45;&gt;Node5 -->
<g id="edge4_Node000001_Node000005" class="edge">
<title>Node1&#45;&gt;Node5</title>
<g id="a_edge4_Node000001_Node000005"><a xlink:title=" ">
<path fill="none" stroke="#63b8ff" d="M381.44,-176.04C421.92,-167.19 471.77,-153.16 512.86,-132 537.07,-119.54 560.76,-98.93 576,-84.26"/>
<polygon fill="#63b8ff" stroke="#63b8ff" points="578.2,-87 582.85,-77.48 573.28,-82.02 578.2,-87"/>
</a>
</g>
</g>
<!-- Node6 -->
<g id="Node000006" class="node">
<title>Node6</title>
<g id="a_Node000006"><a xlink:href="_command_8h.html" target="_top" xlink:title=" ">
<polygon fill="white" stroke="#666666" points="243.49,-76 174.24,-76 174.24,-56 243.49,-56 243.49,-76"/>
<text text-anchor="middle" x="208.86" y="-62.5" font-family="Helvetica,sans-Serif" font-size="10.00">Command.h</text>
</a>
</g>
</g>
<!-- Node1&#45;&gt;Node6 -->
<g id="edge5_Node000001_Node000006" class="edge">
<title>Node1&#45;&gt;Node6</title>
<g id="a_edge5_Node000001_Node000006"><a xlink:title=" ">
<path fill="none" stroke="#63b8ff" d="M287.35,-167.57C278.32,-156.98 267.38,-143.94 257.86,-132 245.51,-116.5 231.98,-98.47 222.28,-85.34"/>
<polygon fill="#63b8ff" stroke="#63b8ff" points="225.33,-83.58 216.58,-77.6 219.69,-87.73 225.33,-83.58"/>
</a>
</g>
</g>
<!-- Node7 -->
<g id="Node000007" class="node">
<title>Node7</title>
<g id="a_Node000007"><a xlink:href="_d_l_l_8h.html" target="_top" xlink:title=" ">
<polygon fill="white" stroke="#666666" points="311.99,-20 269.74,-20 269.74,0 311.99,0 311.99,-20"/>
<text text-anchor="middle" x="290.86" y="-6.5" font-family="Helvetica,sans-Serif" font-size="10.00">DLL.h</text>
</a>
</g>
</g>
<!-- Node1&#45;&gt;Node7 -->
<g id="edge38_Node000001_Node000007" class="edge">
<title>Node1&#45;&gt;Node7</title>
<g id="a_edge38_Node000001_Node000007"><a xlink:title=" ">
<path fill="none" stroke="#63b8ff" d="M298.84,-167.61C295.72,-157.02 292.41,-143.97 290.86,-132 286.34,-97.03 287.75,-55.91 289.25,-31.73"/>
<polygon fill="#63b8ff" stroke="#63b8ff" points="292.73,-32.2 289.93,-21.98 285.75,-31.71 292.73,-32.2"/>
</a>
</g>
</g>
<!-- Node8 -->
<g id="Node000008" class="node">
<title>Node8</title>
<g id="a_Node000008"><a xlink:href="_command_handler_8h.html" target="_top" xlink:title=" ">
<polygon fill="white" stroke="#666666" points="503.36,-132 400.36,-132 400.36,-112 503.36,-112 503.36,-132"/>
<text text-anchor="middle" x="451.86" y="-118.5" font-family="Helvetica,sans-Serif" font-size="10.00">CommandHandler.h</text>
</a>
</g>
</g>
<!-- Node1&#45;&gt;Node8 -->
<g id="edge10_Node000001_Node000008" class="edge">
<title>Node1&#45;&gt;Node8</title>
<g id="a_edge10_Node000001_Node000008"><a xlink:title=" ">
<path fill="none" stroke="#63b8ff" d="M353.26,-167.57C375.36,-157.58 401.04,-145.97 420.65,-137.11"/>
<polygon fill="#63b8ff" stroke="#63b8ff" points="422.1,-140.3 429.77,-132.99 419.21,-133.92 422.1,-140.3"/>
</a>
</g>
</g>
<!-- Node9 -->
<g id="Node000009" class="node">
<title>Node9</title>
<g id="a_Node000009"><a xlink:href="_print_callback_8h.html" target="_top" xlink:title=" ">
<polygon fill="white" stroke="#666666" points="382.24,-132 299.49,-132 299.49,-112 382.24,-112 382.24,-132"/>
<text text-anchor="middle" x="340.86" y="-118.5" font-family="Helvetica,sans-Serif" font-size="10.00">PrintCallback.h</text>
</a>
</g>
</g>
<!-- Node1&#45;&gt;Node9 -->
<g id="edge15_Node000001_Node000009" class="edge">
<title>Node1&#45;&gt;Node9</title>
<g id="a_edge15_Node000001_Node000009"><a xlink:title=" ">
<path fill="none" stroke="#63b8ff" d="M317.13,-167.75C321.42,-159.66 326.29,-150.48 330.49,-142.55"/>
<polygon fill="#63b8ff" stroke="#63b8ff" points="333.56,-144.23 335.16,-133.76 327.38,-140.95 333.56,-144.23"/>
</a>
</g>
</g>
<!-- Node12 -->
<g id="Node000012" class="node">
<title>Node12</title>
<g id="a_Node000012"><a xlink:href="_program_variable_8h.html" target="_top" xlink:title=" ">
<polygon fill="white" stroke="#666666" points="709.61,-132 614.11,-132 614.11,-112 709.61,-112 709.61,-132"/>
<text text-anchor="middle" x="661.86" y="-118.5" font-family="Helvetica,sans-Serif" font-size="10.00">ProgramVariable.h</text>
</a>
</g>
</g>
<!-- Node1&#45;&gt;Node12 -->
<g id="edge24_Node000001_Node000012" class="edge">
<title>Node1&#45;&gt;Node12</title>
<g id="a_edge24_Node000001_Node000012"><a xlink:title=" ">
<path fill="none" stroke="#63b8ff" d="M381.8,-174.92C447.69,-162.71 541.78,-145.26 602.34,-134.03"/>
<polygon fill="#63b8ff" stroke="#63b8ff" points="602.94,-137.48 612.13,-132.22 601.66,-130.6 602.94,-137.48"/>
</a>
</g>
</g>
<!-- Node13 -->
<g id="Node000013" class="node">
<title>Node13</title>
<g id="a_Node000013"><a xlink:href="_lexer_8h.html" target="_top" xlink:title=" ">
<polygon fill="white" stroke="#666666" points="131.99,-132 83.74,-132 83.74,-112 131.99,-112 131.99,-132"/>
<text text-anchor="middle" x="107.86" y="-118.5" font-family="Helvetica,sans-Serif" font-size="10.00">Lexer.h</text>
</a>
</g>
</g>
<!-- Node1&#45;&gt;Node13 -->
<g id="edge29_Node000001_Node000013" class="edge">
<title>Node1&#45;&gt;Node13</title>
<g id="a_edge29_Node000001_Node000013"><a xlink:title=" ">
<path fill="none" stroke="#63b8ff" d="M241.58,-167.57C208.83,-156.65 170.27,-143.8 143,-134.71"/>
<polygon fill="#63b8ff" stroke="#63b8ff" points="144.44,-131.5 133.85,-131.66 142.23,-138.14 144.44,-131.5"/>
</a>
</g>
</g>
<!-- Node6&#45;&gt;Node2 -->
<g id="edge6_Node000006_Node000002" class="edge">
<title>Node6&#45;&gt;Node2</title>
<g id="a_edge6_Node000006_Node000002"><a xlink:title=" ">
<path fill="none" stroke="#63b8ff" d="M182.04,-55.59C155.56,-46.31 115.07,-32.11 86.92,-22.24"/>
<polygon fill="#63b8ff" stroke="#63b8ff" points="88.44,-19.07 77.85,-19.06 86.12,-25.67 88.44,-19.07"/>
</a>
</g>
</g>
<!-- Node6&#45;&gt;Node3 -->
<g id="edge8_Node000006_Node000003" class="edge">
<title>Node6&#45;&gt;Node3</title>
<g id="a_edge8_Node000006_Node000003"><a xlink:title=" ">
<path fill="none" stroke="#63b8ff" d="M195.62,-55.59C184.58,-47.74 168.58,-36.38 155.5,-27.09"/>
<polygon fill="#63b8ff" stroke="#63b8ff" points="157.62,-24.3 147.44,-21.36 153.56,-30 157.62,-24.3"/>
</a>
</g>
</g>
<!-- Node6&#45;&gt;Node4 -->
<g id="edge7_Node000006_Node000004" class="edge">
<title>Node6&#45;&gt;Node4</title>
<g id="a_edge7_Node000006_Node000004"><a xlink:title=" ">
<path fill="none" stroke="#63b8ff" d="M243.74,-56.92C288.98,-46.43 367.21,-28.3 410.6,-18.25"/>
<polygon fill="#63b8ff" stroke="#63b8ff" points="411.18,-21.7 420.13,-16.04 409.6,-14.88 411.18,-21.7"/>
</a>
</g>
</g>
<!-- Node6&#45;&gt;Node7 -->
<g id="edge9_Node000006_Node000007" class="edge">
<title>Node6&#45;&gt;Node7</title>
<g id="a_edge9_Node000006_Node000007"><a xlink:title=" ">
<path fill="none" stroke="#63b8ff" d="M223.15,-55.59C235.3,-47.59 253,-35.93 267.26,-26.54"/>
<polygon fill="#63b8ff" stroke="#63b8ff" points="268.78,-29.73 275.2,-21.31 264.93,-23.89 268.78,-29.73"/>
</a>
</g>
</g>
<!-- Node8&#45;&gt;Node4 -->
<g id="edge12_Node000008_Node000004" class="edge">
<title>Node8&#45;&gt;Node4</title>
<g id="a_edge12_Node000008_Node000004"><a xlink:title=" ">
<path fill="none" stroke="#63b8ff" d="M467.4,-111.6C485.16,-99.56 510.48,-77.67 499.86,-56 493.79,-43.61 482.48,-33.65 471.45,-26.28"/>
<polygon fill="#63b8ff" stroke="#63b8ff" points="473.61,-23.5 463.25,-21.27 469.96,-29.47 473.61,-23.5"/>
</a>
</g>
</g>
<!-- Node8&#45;&gt;Node5 -->
<g id="edge11_Node000008_Node000005" class="edge">
<title>Node8&#45;&gt;Node5</title>
<g id="a_edge11_Node000008_Node000005"><a xlink:title=" ">
<path fill="none" stroke="#63b8ff" d="M476.42,-111.59C498.83,-103.01 532.2,-90.23 557.48,-80.55"/>
<polygon fill="#63b8ff" stroke="#63b8ff" points="558.61,-83.87 566.7,-77.02 556.11,-77.33 558.61,-83.87"/>
</a>
</g>
</g>
<!-- Node8&#45;&gt;Node6 -->
<g id="edge13_Node000008_Node000006" class="edge">
<title>Node8&#45;&gt;Node6</title>
<g id="a_edge13_Node000008_Node000006"><a xlink:title=" ">
<path fill="none" stroke="#63b8ff" d="M409.26,-111.53C366.06,-101.93 299.41,-87.12 254.99,-77.25"/>
<polygon fill="#63b8ff" stroke="#63b8ff" points="255.92,-73.87 245.4,-75.12 254.41,-80.71 255.92,-73.87"/>
</a>
</g>
</g>
<!-- Node8&#45;&gt;Node7 -->
<g id="edge14_Node000008_Node000007" class="edge">
<title>Node8&#45;&gt;Node7</title>
<g id="a_edge14_Node000008_Node000007"><a xlink:title=" ">
<path fill="none" stroke="#63b8ff" d="M451.12,-111.66C449.5,-97.65 444.46,-71.21 428.86,-56 400.31,-28.15 354.31,-17.54 323.35,-13.49"/>
<polygon fill="#63b8ff" stroke="#63b8ff" points="324.13,-10.06 313.8,-12.41 323.34,-17.01 324.13,-10.06"/>
</a>
</g>
</g>
<!-- Node9&#45;&gt;Node3 -->
<g id="edge16_Node000009_Node000003" class="edge">
<title>Node9&#45;&gt;Node3</title>
<g id="a_edge16_Node000009_Node000003"><a xlink:title=" ">
<path fill="none" stroke="#63b8ff" d="M299.13,-119.99C260.43,-117 203.18,-107.11 164.86,-76 150.82,-64.61 142.46,-45.51 137.83,-30.96"/>
<polygon fill="#63b8ff" stroke="#63b8ff" points="141.25,-30.21 135.18,-21.53 134.51,-32.1 141.25,-30.21"/>
</a>
</g>
</g>
<!-- Node9&#45;&gt;Node4 -->
<g id="edge17_Node000009_Node000004" class="edge">
<title>Node9&#45;&gt;Node4</title>
<g id="a_edge17_Node000009_Node000004"><a xlink:title=" ">
<path fill="none" stroke="#63b8ff" d="M374.92,-111.64C393.61,-104.77 415.61,-93.52 428.86,-76 438.43,-63.35 441.47,-45.49 442.23,-31.68"/>
<polygon fill="#63b8ff" stroke="#63b8ff" points="445.72,-31.99 442.39,-21.93 438.72,-31.87 445.72,-31.99"/>
</a>
</g>
</g>
<!-- Node9&#45;&gt;Node7 -->
<g id="edge18_Node000009_Node000007" class="edge">
<title>Node9&#45;&gt;Node7</title>
<g id="a_edge18_Node000009_Node000007"><a xlink:title=" ">
<path fill="none" stroke="#63b8ff" d="M336.6,-111.62C328.48,-93.76 310.65,-54.53 299.8,-30.67"/>
<polygon fill="#63b8ff" stroke="#63b8ff" points="303.06,-29.39 295.74,-21.73 296.69,-32.28 303.06,-29.39"/>
</a>
</g>
</g>
<!-- Node10 -->
<g id="Node000010" class="node">
<title>Node10</title>
<g id="a_Node000010"><a xlink:href="_utils_8h.html" target="_top" xlink:title=" ">
<polygon fill="white" stroke="#666666" points="420.11,-76 375.61,-76 375.61,-56 420.11,-56 420.11,-76"/>
<text text-anchor="middle" x="397.86" y="-62.5" font-family="Helvetica,sans-Serif" font-size="10.00">Utils.h</text>
</a>
</g>
</g>
<!-- Node9&#45;&gt;Node10 -->
<g id="edge19_Node000009_Node000010" class="edge">
<title>Node9&#45;&gt;Node10</title>
<g id="a_edge19_Node000009_Node000010"><a xlink:title=" ">
<path fill="none" stroke="#63b8ff" d="M350.79,-111.59C358.8,-104.01 370.28,-93.13 379.89,-84.02"/>
<polygon fill="#63b8ff" stroke="#63b8ff" points="382.1,-86.76 386.95,-77.34 377.28,-81.68 382.1,-86.76"/>
</a>
</g>
</g>
<!-- Node10&#45;&gt;Node3 -->
<g id="edge20_Node000010_Node000003" class="edge">
<title>Node10&#45;&gt;Node3</title>
<g id="a_edge20_Node000010_Node000003"><a xlink:title=" ">
<path fill="none" stroke="#63b8ff" d="M375.27,-60.4C329.11,-50.99 223.69,-29.51 168.32,-18.23"/>
<polygon fill="#63b8ff" stroke="#63b8ff" points="169.29,-14.85 158.79,-16.28 167.89,-21.71 169.29,-14.85"/>
</a>
</g>
</g>
<!-- Node10&#45;&gt;Node4 -->
<g id="edge21_Node000010_Node000004" class="edge">
<title>Node10&#45;&gt;Node4</title>
<g id="a_edge21_Node000010_Node000004"><a xlink:title=" ">
<path fill="none" stroke="#63b8ff" d="M405.53,-55.59C411.46,-48.32 419.85,-38.02 427.07,-29.15"/>
<polygon fill="#63b8ff" stroke="#63b8ff" points="429.73,-31.43 433.33,-21.47 424.3,-27.01 429.73,-31.43"/>
</a>
</g>
</g>
<!-- Node10&#45;&gt;Node7 -->
<g id="edge23_Node000010_Node000007" class="edge">
<title>Node10&#45;&gt;Node7</title>
<g id="a_edge23_Node000010_Node000007"><a xlink:title=" ">
<path fill="none" stroke="#63b8ff" d="M379.22,-55.59C362.83,-47.32 338.7,-35.14 319.8,-25.6"/>
<polygon fill="#63b8ff" stroke="#63b8ff" points="321.5,-22.54 311,-21.16 318.35,-28.79 321.5,-22.54"/>
</a>
</g>
</g>
<!-- Node11 -->
<g id="Node000011" class="node">
<title>Node11</title>
<g id="a_Node000011"><a xlink:title=" ">
<polygon fill="#e0e0e0" stroke="#999999" points="669.49,-20 618.24,-20 618.24,0 669.49,0 669.49,-20"/>
<text text-anchor="middle" x="643.86" y="-6.5" font-family="Helvetica,sans-Serif" font-size="10.00">sstream</text>
</a>
</g>
</g>
<!-- Node10&#45;&gt;Node11 -->
<g id="edge22_Node000010_Node000011" class="edge">
<title>Node10&#45;&gt;Node11</title>
<g id="a_edge22_Node000010_Node000011"><a xlink:title=" ">
<path fill="none" stroke="#63b8ff" d="M420.56,-60.02C463.14,-50.67 555.32,-30.44 606.94,-19.11"/>
<polygon fill="#63b8ff" stroke="#63b8ff" points="607.42,-22.58 616.44,-17.02 605.92,-15.75 607.42,-22.58"/>
</a>
</g>
</g>
<!-- Node12&#45;&gt;Node4 -->
<g id="edge25_Node000012_Node000004" class="edge">
<title>Node12&#45;&gt;Node4</title>
<g id="a_edge25_Node000012_Node000004"><a xlink:title=" ">
<path fill="none" stroke="#63b8ff" d="M668.05,-111.91C676.52,-98.22 689.24,-72.2 675.86,-56 650.53,-25.33 531.19,-15.34 473.39,-12.27"/>
<polygon fill="#63b8ff" stroke="#63b8ff" points="473.72,-8.79 463.56,-11.79 473.38,-15.78 473.72,-8.79"/>
</a>
</g>
</g>
<!-- Node12&#45;&gt;Node5 -->
<g id="edge27_Node000012_Node000005" class="edge">
<title>Node12&#45;&gt;Node5</title>
<g id="a_edge27_Node000012_Node000005"><a xlink:title=" ">
<path fill="none" stroke="#63b8ff" d="M649.84,-111.59C639.85,-103.77 625.4,-92.46 613.55,-83.19"/>
<polygon fill="#63b8ff" stroke="#63b8ff" points="615.97,-80.64 605.93,-77.23 611.65,-86.15 615.97,-80.64"/>
</a>
</g>
</g>
<!-- Node12&#45;&gt;Node7 -->
<g id="edge28_Node000012_Node000007" class="edge">
<title>Node12&#45;&gt;Node7</title>
<g id="a_edge28_Node000012_Node000007"><a xlink:title=" ">
<path fill="none" stroke="#63b8ff" d="M662.1,-111.8C661.93,-97.48 659.31,-70.05 642.86,-56 618.8,-35.45 406.7,-18.91 323.83,-13.17"/>
<polygon fill="#63b8ff" stroke="#63b8ff" points="324.08,-9.68 313.87,-12.49 323.61,-16.66 324.08,-9.68"/>
</a>
</g>
</g>
<!-- Node12&#45;&gt;Node11 -->
<g id="edge26_Node000012_Node000011" class="edge">
<title>Node12&#45;&gt;Node11</title>
<g id="a_edge26_Node000012_Node000011"><a xlink:title=" ">
<path fill="none" stroke="#63b8ff" d="M678.83,-111.64C698.2,-99.66 725.77,-77.82 713.86,-56 706.49,-42.49 693.13,-32.43 680.05,-25.29"/>
<polygon fill="#63b8ff" stroke="#63b8ff" points="681.6,-22.16 671.09,-20.85 678.49,-28.43 681.6,-22.16"/>
</a>
</g>
</g>
<!-- Node13&#45;&gt;Node3 -->
<g id="edge30_Node000013_Node000003" class="edge">
<title>Node13&#45;&gt;Node3</title>
<g id="a_edge30_Node000013_Node000003"><a xlink:title=" ">
<path fill="none" stroke="#63b8ff" d="M83.32,-114.32C51.47,-104.37 2.07,-83.8 20.86,-56 29.86,-42.68 68.29,-29.17 97.65,-20.47"/>
<polygon fill="#63b8ff" stroke="#63b8ff" points="98.28,-23.93 106.92,-17.81 96.35,-17.21 98.28,-23.93"/>
</a>
</g>
</g>
<!-- Node13&#45;&gt;Node4 -->
<g id="edge31_Node000013_Node000004" class="edge">
<title>Node13&#45;&gt;Node4</title>
<g id="a_edge31_Node000013_Node000004"><a xlink:title=" ">
<path fill="none" stroke="#63b8ff" d="M132.31,-113.66C161.19,-104.93 210.65,-89.81 252.86,-76 308.75,-57.72 373.47,-35.16 410.84,-21.99"/>
<polygon fill="#63b8ff" stroke="#63b8ff" points="411.82,-25.36 420.09,-18.73 409.49,-18.76 411.82,-25.36"/>
</a>
</g>
</g>
<!-- Node13&#45;&gt;Node7 -->
<g id="edge37_Node000013_Node000007" class="edge">
<title>Node13&#45;&gt;Node7</title>
<g id="a_edge37_Node000013_Node000007"><a xlink:title=" ">
<path fill="none" stroke="#63b8ff" d="M113.73,-111.7C122.99,-97.73 142.27,-71.36 164.86,-56 193.48,-36.55 231.45,-24.5 258.21,-17.82"/>
<polygon fill="#63b8ff" stroke="#63b8ff" points="258.88,-21.26 267.81,-15.55 257.27,-14.45 258.88,-21.26"/>
</a>
</g>
</g>
<!-- Node14 -->
<g id="Node000014" class="node">
<title>Node14</title>
<g id="a_Node000014"><a xlink:href="_token_8h.html" target="_top" xlink:title=" ">
<polygon fill="white" stroke="#666666" points="80.11,-76 29.61,-76 29.61,-56 80.11,-56 80.11,-76"/>
<text text-anchor="middle" x="54.86" y="-62.5" font-family="Helvetica,sans-Serif" font-size="10.00">Token.h</text>
</a>
</g>
</g>
<!-- Node13&#45;&gt;Node14 -->
<g id="edge32_Node000013_Node000014" class="edge">
<title>Node13&#45;&gt;Node14</title>
<g id="a_edge32_Node000013_Node000014"><a xlink:title=" ">
<path fill="none" stroke="#63b8ff" d="M98.63,-111.59C91.26,-104.08 80.73,-93.35 71.84,-84.3"/>
<polygon fill="#63b8ff" stroke="#63b8ff" points="74.55,-82.06 65.05,-77.38 69.56,-86.97 74.55,-82.06"/>
</a>
</g>
</g>
<!-- Node14&#45;&gt;Node2 -->
<g id="edge35_Node000014_Node000002" class="edge">
<title>Node14&#45;&gt;Node2</title>
<g id="a_edge35_Node000014_Node000002"><a xlink:title=" ">
<path fill="none" stroke="#63b8ff" d="M54.86,-55.59C54.86,-49.01 54.86,-39.96 54.86,-31.73"/>
<polygon fill="#63b8ff" stroke="#63b8ff" points="58.36,-31.81 54.86,-21.81 51.36,-31.81 58.36,-31.81"/>
</a>
</g>
</g>
<!-- Node14&#45;&gt;Node3 -->
<g id="edge33_Node000014_Node000003" class="edge">
<title>Node14&#45;&gt;Node3</title>
<g id="a_edge33_Node000014_Node000003"><a xlink:title=" ">
<path fill="none" stroke="#63b8ff" d="M68.45,-55.59C79.9,-47.67 96.52,-36.16 110.02,-26.82"/>
<polygon fill="#63b8ff" stroke="#63b8ff" points="111.7,-29.91 117.92,-21.34 107.71,-24.16 111.7,-29.91"/>
</a>
</g>
</g>
<!-- Node14&#45;&gt;Node4 -->
<g id="edge34_Node000014_Node000004" class="edge">
<title>Node14&#45;&gt;Node4</title>
<g id="a_edge34_Node000014_Node000004"><a xlink:title=" ">
<path fill="none" stroke="#63b8ff" d="M80.55,-61.42C149,-51.86 335.6,-25.83 410.31,-15.4"/>
<polygon fill="#63b8ff" stroke="#63b8ff" points="410.79,-18.87 420.21,-14.02 409.83,-11.94 410.79,-18.87"/>
</a>
</g>
</g>
<!-- Node14&#45;&gt;Node7 -->
<g id="edge36_Node000014_Node000007" class="edge">
<title>Node14&#45;&gt;Node7</title>
<g id="a_edge36_Node000014_Node000007"><a xlink:title=" ">
<path fill="none" stroke="#63b8ff" d="M80.45,-59.09C84.92,-58.06 89.53,-57 93.86,-56 151.65,-42.73 219,-27.37 258.1,-18.46"/>
<polygon fill="#63b8ff" stroke="#63b8ff" points="258.84,-21.88 267.81,-16.25 257.28,-15.06 258.84,-21.88"/>
</a>
</g>
</g>
</g>
</svg>
