<?xml version="1.0" encoding="UTF-8" standalone="no"?>
<!DOCTYPE svg PUBLIC "-//W3C//DTD SVG 1.1//EN"
 "http://www.w3.org/Graphics/SVG/1.1/DTD/svg11.dtd">
<!-- Generated by graphviz version 12.2.1 (20241206.2353)
 -->
<!-- Title: C:/Users/emilly/Documents/Lucca/Projetos/Cpp/NikiScript/src/Context.h Pages: 1 -->
<svg width="634pt" height="220pt"
 viewBox="0.00 0.00 634.40 220.00" xmlns="http://www.w3.org/2000/svg" xmlns:xlink="http://www.w3.org/1999/xlink">
<g id="graph0" class="graph" transform="scale(1 1) rotate(0) translate(4 216)">
<title>C:/Users/emilly/Documents/Lucca/Projetos/Cpp/NikiScript/src/Context.h</title>
<!-- Node1 -->
<g id="Node000001" class="node">
<title>Node1</title>
<g id="a_Node000001"><a xlink:title=" ">
<polygon fill="#999999" stroke="#666666" points="386,-212 235,-212 235,-168 386,-168 386,-212"/>
<text text-anchor="start" x="243" y="-198.5" font-family="Helvetica,sans-Serif" font-size="10.00">C:/Users/emilly/Documents</text>
<text text-anchor="start" x="243" y="-186.5" font-family="Helvetica,sans-Serif" font-size="10.00">/Lucca/Projetos/Cpp/NikiScript</text>
<text text-anchor="middle" x="310.5" y="-174.5" font-family="Helvetica,sans-Serif" font-size="10.00">/src/Context.h</text>
</a>
</g>
</g>
<!-- Node2 -->
<g id="Node000002" class="node">
<title>Node2</title>
<g id="a_Node000002"><a xlink:title=" ">
<polygon fill="#e0e0e0" stroke="#999999" points="43,-20 0,-20 0,0 43,0 43,-20"/>
<text text-anchor="middle" x="21.5" y="-6.5" font-family="Helvetica,sans-Serif" font-size="10.00">vector</text>
</a>
</g>
</g>
<!-- Node1&#45;&gt;Node2 -->
<g id="edge1_Node000001_Node000002" class="edge">
<title>Node1&#45;&gt;Node2</title>
<g id="a_edge1_Node000001_Node000002"><a xlink:title=" ">
<path fill="none" stroke="#63b8ff" d="M234.67,-181.91C185.15,-174.74 120.47,-160.43 69.5,-132 38.76,-114.85 26.97,-108.52 13.5,-76 7.57,-61.68 10.22,-44.19 14,-30.96"/>
<polygon fill="#63b8ff" stroke="#63b8ff" points="17.26,-32.25 17.09,-21.65 10.61,-30.04 17.26,-32.25"/>
</a>
</g>
</g>
<!-- Node3 -->
<g id="Node000003" class="node">
<title>Node3</title>
<g id="a_Node000003"><a xlink:title=" ">
<polygon fill="#e0e0e0" stroke="#999999" points="625.62,-20 577.38,-20 577.38,0 625.62,0 625.62,-20"/>
<text text-anchor="middle" x="601.5" y="-6.5" font-family="Helvetica,sans-Serif" font-size="10.00">stdint.h</text>
</a>
</g>
</g>
<!-- Node1&#45;&gt;Node3 -->
<g id="edge2_Node000001_Node000003" class="edge">
<title>Node1&#45;&gt;Node3</title>
<g id="a_edge2_Node000001_Node000003"><a xlink:title=" ">
<path fill="none" stroke="#63b8ff" d="M386.25,-181.49C437.39,-174.11 505.19,-159.72 559.5,-132 593.16,-114.82 607.88,-110.42 623.5,-76 630.34,-60.93 623.28,-43.09 615.39,-29.91"/>
<polygon fill="#63b8ff" stroke="#63b8ff" points="618.42,-28.14 609.98,-21.74 612.59,-32.01 618.42,-28.14"/>
</a>
</g>
</g>
<!-- Node4 -->
<g id="Node000004" class="node">
<title>Node4</title>
<g id="a_Node000004"><a xlink:title=" ">
<polygon fill="#e0e0e0" stroke="#999999" points="406.5,-20 366.5,-20 366.5,0 406.5,0 406.5,-20"/>
<text text-anchor="middle" x="386.5" y="-6.5" font-family="Helvetica,sans-Serif" font-size="10.00">string</text>
</a>
</g>
</g>
<!-- Node1&#45;&gt;Node4 -->
<g id="edge3_Node000001_Node000004" class="edge">
<title>Node1&#45;&gt;Node4</title>
<g id="a_edge3_Node000001_Node000004"><a xlink:title=" ">
<path fill="none" stroke="#63b8ff" d="M319.67,-167.53C334.57,-132.62 363.83,-64.1 378.17,-30.51"/>
<polygon fill="#63b8ff" stroke="#63b8ff" points="381.27,-32.16 381.98,-21.58 374.84,-29.41 381.27,-32.16"/>
</a>
</g>
</g>
<!-- Node5 -->
<g id="Node000005" class="node">
<title>Node5</title>
<g id="a_Node000005"><a xlink:title=" ">
<polygon fill="#e0e0e0" stroke="#999999" points="311.88,-20 229.12,-20 229.12,0 311.88,0 311.88,-20"/>
<text text-anchor="middle" x="270.5" y="-6.5" font-family="Helvetica,sans-Serif" font-size="10.00">unordered_map</text>
</a>
</g>
</g>
<!-- Node1&#45;&gt;Node5 -->
<g id="edge4_Node000001_Node000005" class="edge">
<title>Node1&#45;&gt;Node5</title>
<g id="a_edge4_Node000001_Node000005"><a xlink:title=" ">
<path fill="none" stroke="#63b8ff" d="M309.4,-167.86C307.59,-141.27 302.94,-94.45 291.5,-56 288.92,-47.34 284.94,-38.23 281.12,-30.48"/>
<polygon fill="#63b8ff" stroke="#63b8ff" points="284.27,-28.94 276.55,-21.68 278.05,-32.17 284.27,-28.94"/>
</a>
</g>
</g>
<!-- Node6 -->
<g id="Node000006" class="node">
<title>Node6</title>
<g id="a_Node000006"><a xlink:href="_command_8h.html" target="_top" xlink:title=" ">
<polygon fill="white" stroke="#666666" points="92.12,-76 22.88,-76 22.88,-56 92.12,-56 92.12,-76"/>
<text text-anchor="middle" x="57.5" y="-62.5" font-family="Helvetica,sans-Serif" font-size="10.00">Command.h</text>
</a>
</g>
</g>
<!-- Node1&#45;&gt;Node6 -->
<g id="edge5_Node000001_Node000006" class="edge">
<title>Node1&#45;&gt;Node6</title>
<g id="a_edge5_Node000001_Node000006"><a xlink:title=" ">
<path fill="none" stroke="#63b8ff" d="M234.52,-185.17C188.22,-179.29 130.31,-165.19 89.5,-132 75.47,-120.59 67.11,-101.5 62.47,-86.95"/>
<polygon fill="#63b8ff" stroke="#63b8ff" points="65.9,-86.2 59.82,-77.52 59.16,-88.1 65.9,-86.2"/>
</a>
</g>
</g>
<!-- Node8 -->
<g id="Node000008" class="node">
<title>Node8</title>
<g id="a_Node000008"><a xlink:href="_command_handler_8h.html" target="_top" xlink:title=" ">
<polygon fill="white" stroke="#666666" points="201,-132 98,-132 98,-112 201,-112 201,-132"/>
<text text-anchor="middle" x="149.5" y="-118.5" font-family="Helvetica,sans-Serif" font-size="10.00">CommandHandler.h</text>
</a>
</g>
</g>
<!-- Node1&#45;&gt;Node8 -->
<g id="edge9_Node000001_Node000008" class="edge">
<title>Node1&#45;&gt;Node8</title>
<g id="a_edge9_Node000001_Node000008"><a xlink:title=" ">
<path fill="none" stroke="#63b8ff" d="M258.23,-167.57C233.41,-157.4 204.49,-145.54 182.71,-136.62"/>
<polygon fill="#63b8ff" stroke="#63b8ff" points="184.33,-133.49 173.75,-132.94 181.67,-139.97 184.33,-133.49"/>
</a>
</g>
</g>
<!-- Node9 -->
<g id="Node000009" class="node">
<title>Node9</title>
<g id="a_Node000009"><a xlink:href="_print_callback_8h.html" target="_top" xlink:title=" ">
<polygon fill="white" stroke="#666666" points="550.88,-132 468.12,-132 468.12,-112 550.88,-112 550.88,-132"/>
<text text-anchor="middle" x="509.5" y="-118.5" font-family="Helvetica,sans-Serif" font-size="10.00">PrintCallback.h</text>
</a>
</g>
</g>
<!-- Node1&#45;&gt;Node9 -->
<g id="edge13_Node000001_Node000009" class="edge">
<title>Node1&#45;&gt;Node9</title>
<g id="a_edge13_Node000001_Node000009"><a xlink:title=" ">
<path fill="none" stroke="#63b8ff" d="M375.11,-167.57C406.53,-157.15 443.26,-144.97 470.38,-135.97"/>
<polygon fill="#63b8ff" stroke="#63b8ff" points="471.17,-139.4 479.56,-132.93 468.97,-132.75 471.17,-139.4"/>
</a>
</g>
</g>
<!-- Node12 -->
<g id="Node000012" class="node">
<title>Node12</title>
<g id="a_Node000012"><a xlink:href="_program_variable_8h.html" target="_top" xlink:title=" ">
<polygon fill="white" stroke="#666666" points="282.25,-76 186.75,-76 186.75,-56 282.25,-56 282.25,-76"/>
<text text-anchor="middle" x="234.5" y="-62.5" font-family="Helvetica,sans-Serif" font-size="10.00">ProgramVariable.h</text>
</a>
</g>
</g>
<!-- Node1&#45;&gt;Node12 -->
<g id="edge20_Node000001_Node000012" class="edge">
<title>Node1&#45;&gt;Node12</title>
<g id="a_edge20_Node000001_Node000012"><a xlink:title=" ">
<path fill="none" stroke="#63b8ff" d="M297.26,-167.75C282.86,-144.63 260.06,-108.03 246.27,-85.89"/>
<polygon fill="#63b8ff" stroke="#63b8ff" points="249.35,-84.22 241.09,-77.59 243.41,-87.92 249.35,-84.22"/>
</a>
</g>
</g>
<!-- Node13 -->
<g id="Node000013" class="node">
<title>Node13</title>
<g id="a_Node000013"><a xlink:href="_lexer_8h.html" target="_top" xlink:title=" ">
<polygon fill="white" stroke="#666666" points="445.62,-132 397.38,-132 397.38,-112 445.62,-112 445.62,-132"/>
<text text-anchor="middle" x="421.5" y="-118.5" font-family="Helvetica,sans-Serif" font-size="10.00">Lexer.h</text>
</a>
</g>
</g>
<!-- Node1&#45;&gt;Node13 -->
<g id="edge24_Node000001_Node000013" class="edge">
<title>Node1&#45;&gt;Node13</title>
<g id="a_edge24_Node000001_Node000013"><a xlink:title=" ">
<path fill="none" stroke="#63b8ff" d="M346.54,-167.57C362.64,-158 381.23,-146.94 395.88,-138.24"/>
<polygon fill="#63b8ff" stroke="#63b8ff" points="397.64,-141.26 404.45,-133.14 394.06,-135.24 397.64,-141.26"/>
</a>
</g>
</g>
<!-- Node6&#45;&gt;Node2 -->
<g id="edge6_Node000006_Node000002" class="edge">
<title>Node6&#45;&gt;Node2</title>
<g id="a_edge6_Node000006_Node000002"><a xlink:title=" ">
<path fill="none" stroke="#63b8ff" d="M51.23,-55.59C46.48,-48.47 39.8,-38.45 33.98,-29.72"/>
<polygon fill="#63b8ff" stroke="#63b8ff" points="37,-27.94 28.54,-21.56 31.17,-31.82 37,-27.94"/>
</a>
</g>
</g>
<!-- Node6&#45;&gt;Node4 -->
<g id="edge8_Node000006_Node000004" class="edge">
<title>Node6&#45;&gt;Node4</title>
<g id="a_edge8_Node000006_Node000004"><a xlink:title=" ">
<path fill="none" stroke="#63b8ff" d="M92.4,-59.27C156.74,-48.71 293.12,-26.33 354.9,-16.19"/>
<polygon fill="#63b8ff" stroke="#63b8ff" points="355.43,-19.65 364.73,-14.57 354.29,-12.74 355.43,-19.65"/>
</a>
</g>
</g>
<!-- Node7 -->
<g id="Node000007" class="node">
<title>Node7</title>
<g id="a_Node000007"><a xlink:title=" ">
<polygon fill="#e0e0e0" stroke="#999999" points="153.25,-20 87.75,-20 87.75,0 153.25,0 153.25,-20"/>
<text text-anchor="middle" x="120.5" y="-6.5" font-family="Helvetica,sans-Serif" font-size="10.00">string_view</text>
</a>
</g>
</g>
<!-- Node6&#45;&gt;Node7 -->
<g id="edge7_Node000006_Node000007" class="edge">
<title>Node6&#45;&gt;Node7</title>
<g id="a_edge7_Node000006_Node000007"><a xlink:title=" ">
<path fill="none" stroke="#63b8ff" d="M68.47,-55.59C77.42,-47.93 90.27,-36.91 100.96,-27.75"/>
<polygon fill="#63b8ff" stroke="#63b8ff" points="103.19,-30.45 108.5,-21.28 98.63,-25.13 103.19,-30.45"/>
</a>
</g>
</g>
<!-- Node8&#45;&gt;Node5 -->
<g id="edge10_Node000008_Node000005" class="edge">
<title>Node8&#45;&gt;Node5</title>
<g id="a_edge10_Node000008_Node000005"><a xlink:title=" ">
<path fill="none" stroke="#63b8ff" d="M151.29,-111.9C154.41,-98.19 162.04,-72.16 177.5,-56 191.06,-41.83 209.99,-31.56 227.24,-24.44"/>
<polygon fill="#63b8ff" stroke="#63b8ff" points="228.22,-27.81 236.29,-20.95 225.7,-21.28 228.22,-27.81"/>
</a>
</g>
</g>
<!-- Node8&#45;&gt;Node6 -->
<g id="edge12_Node000008_Node000006" class="edge">
<title>Node8&#45;&gt;Node6</title>
<g id="a_edge12_Node000008_Node000006"><a xlink:title=" ">
<path fill="none" stroke="#63b8ff" d="M133.47,-111.59C119.71,-103.51 99.6,-91.71 83.52,-82.27"/>
<polygon fill="#63b8ff" stroke="#63b8ff" points="85.35,-79.29 74.96,-77.25 81.81,-85.33 85.35,-79.29"/>
</a>
</g>
</g>
<!-- Node8&#45;&gt;Node7 -->
<g id="edge11_Node000008_Node000007" class="edge">
<title>Node8&#45;&gt;Node7</title>
<g id="a_edge11_Node000008_Node000007"><a xlink:title=" ">
<path fill="none" stroke="#63b8ff" d="M147.03,-111.62C142.36,-93.92 132.16,-55.24 125.86,-31.32"/>
<polygon fill="#63b8ff" stroke="#63b8ff" points="129.29,-30.6 123.35,-21.82 122.52,-32.38 129.29,-30.6"/>
</a>
</g>
</g>
<!-- Node9&#45;&gt;Node3 -->
<g id="edge14_Node000009_Node000003" class="edge">
<title>Node9&#45;&gt;Node3</title>
<g id="a_edge14_Node000009_Node000003"><a xlink:title=" ">
<path fill="none" stroke="#63b8ff" d="M550.89,-112.77C571.34,-106.39 594.21,-95.25 606.5,-76 614.98,-62.72 612.76,-44.66 608.97,-30.95"/>
<polygon fill="#63b8ff" stroke="#63b8ff" points="612.37,-30.1 605.93,-21.68 605.72,-32.28 612.37,-30.1"/>
</a>
</g>
</g>
<!-- Node9&#45;&gt;Node4 -->
<g id="edge15_Node000009_Node000004" class="edge">
<title>Node9&#45;&gt;Node4</title>
<g id="a_edge15_Node000009_Node000004"><a xlink:title=" ">
<path fill="none" stroke="#63b8ff" d="M506.44,-111.95C501.43,-98.31 490.34,-72.36 473.5,-56 457.65,-40.59 435.45,-29.23 417.45,-21.77"/>
<polygon fill="#63b8ff" stroke="#63b8ff" points="418.88,-18.57 408.29,-18.19 416.33,-25.09 418.88,-18.57"/>
</a>
</g>
</g>
<!-- Node10 -->
<g id="Node000010" class="node">
<title>Node10</title>
<g id="a_Node000010"><a xlink:href="_utils_8h.html" target="_top" xlink:title=" ">
<polygon fill="white" stroke="#666666" points="564.75,-76 520.25,-76 520.25,-56 564.75,-56 564.75,-76"/>
<text text-anchor="middle" x="542.5" y="-62.5" font-family="Helvetica,sans-Serif" font-size="10.00">Utils.h</text>
</a>
</g>
</g>
<!-- Node9&#45;&gt;Node10 -->
<g id="edge16_Node000009_Node000010" class="edge">
<title>Node9&#45;&gt;Node10</title>
<g id="a_edge16_Node000009_Node000010"><a xlink:title=" ">
<path fill="none" stroke="#63b8ff" d="M515.25,-111.59C519.55,-104.55 525.59,-94.67 530.89,-86"/>
<polygon fill="#63b8ff" stroke="#63b8ff" points="533.8,-87.95 536.03,-77.59 527.83,-84.3 533.8,-87.95"/>
</a>
</g>
</g>
<!-- Node10&#45;&gt;Node3 -->
<g id="edge17_Node000010_Node000003" class="edge">
<title>Node10&#45;&gt;Node3</title>
<g id="a_edge17_Node000010_Node000003"><a xlink:title=" ">
<path fill="none" stroke="#63b8ff" d="M552.78,-55.59C561.07,-48.01 572.95,-37.13 582.9,-28.02"/>
<polygon fill="#63b8ff" stroke="#63b8ff" points="585.21,-30.65 590.22,-21.32 580.48,-25.49 585.21,-30.65"/>
</a>
</g>
</g>
<!-- Node10&#45;&gt;Node4 -->
<g id="edge18_Node000010_Node000004" class="edge">
<title>Node10&#45;&gt;Node4</title>
<g id="a_edge18_Node000010_Node000004"><a xlink:title=" ">
<path fill="none" stroke="#63b8ff" d="M519.82,-57.15C492.84,-47.81 447.68,-32.18 417.5,-21.73"/>
<polygon fill="#63b8ff" stroke="#63b8ff" points="418.75,-18.46 408.16,-18.5 416.46,-25.08 418.75,-18.46"/>
</a>
</g>
</g>
<!-- Node11 -->
<g id="Node000011" class="node">
<title>Node11</title>
<g id="a_Node000011"><a xlink:title=" ">
<polygon fill="#e0e0e0" stroke="#999999" points="559.12,-20 507.88,-20 507.88,0 559.12,0 559.12,-20"/>
<text text-anchor="middle" x="533.5" y="-6.5" font-family="Helvetica,sans-Serif" font-size="10.00">sstream</text>
</a>
</g>
</g>
<!-- Node10&#45;&gt;Node11 -->
<g id="edge19_Node000010_Node000011" class="edge">
<title>Node10&#45;&gt;Node11</title>
<g id="a_edge19_Node000010_Node000011"><a xlink:title=" ">
<path fill="none" stroke="#63b8ff" d="M540.93,-55.59C539.82,-48.93 538.29,-39.75 536.91,-31.44"/>
<polygon fill="#63b8ff" stroke="#63b8ff" points="540.39,-31.08 535.3,-21.79 533.49,-32.23 540.39,-31.08"/>
</a>
</g>
</g>
<!-- Node12&#45;&gt;Node4 -->
<g id="edge21_Node000012_Node000004" class="edge">
<title>Node12&#45;&gt;Node4</title>
<g id="a_edge21_Node000012_Node000004"><a xlink:title=" ">
<path fill="none" stroke="#63b8ff" d="M260.98,-55.59C287.29,-46.25 327.63,-31.91 355.45,-22.03"/>
<polygon fill="#63b8ff" stroke="#63b8ff" points="356.48,-25.38 364.73,-18.73 354.14,-18.78 356.48,-25.38"/>
</a>
</g>
</g>
<!-- Node12&#45;&gt;Node5 -->
<g id="edge23_Node000012_Node000005" class="edge">
<title>Node12&#45;&gt;Node5</title>
<g id="a_edge23_Node000012_Node000005"><a xlink:title=" ">
<path fill="none" stroke="#63b8ff" d="M240.77,-55.59C245.52,-48.47 252.2,-38.45 258.02,-29.72"/>
<polygon fill="#63b8ff" stroke="#63b8ff" points="260.83,-31.82 263.46,-21.56 255,-27.94 260.83,-31.82"/>
</a>
</g>
</g>
<!-- Node12&#45;&gt;Node7 -->
<g id="edge22_Node000012_Node000007" class="edge">
<title>Node12&#45;&gt;Node7</title>
<g id="a_edge22_Node000012_Node000007"><a xlink:title=" ">
<path fill="none" stroke="#63b8ff" d="M214.64,-55.59C197.01,-47.24 170.99,-34.92 150.77,-25.34"/>
<polygon fill="#63b8ff" stroke="#63b8ff" points="152.42,-22.25 141.88,-21.13 149.42,-28.57 152.42,-22.25"/>
</a>
</g>
</g>
<!-- Node13&#45;&gt;Node3 -->
<g id="edge25_Node000013_Node000003" class="edge">
<title>Node13&#45;&gt;Node3</title>
<g id="a_edge25_Node000013_Node000003"><a xlink:title=" ">
<path fill="none" stroke="#63b8ff" d="M445.93,-114.98C486.39,-104.83 563.83,-84.59 573.5,-76 586.57,-64.4 593.76,-45.64 597.57,-31.24"/>
<polygon fill="#63b8ff" stroke="#63b8ff" points="600.88,-32.44 599.69,-21.91 594.06,-30.88 600.88,-32.44"/>
</a>
</g>
</g>
<!-- Node13&#45;&gt;Node4 -->
<g id="edge26_Node000013_Node000004" class="edge">
<title>Node13&#45;&gt;Node4</title>
<g id="a_edge26_Node000013_Node000004"><a xlink:title=" ">
<path fill="none" stroke="#63b8ff" d="M418.03,-111.75C414.68,-102.68 409.53,-88.46 405.5,-76 400.67,-61.08 395.72,-44.06 392.08,-31.18"/>
<polygon fill="#63b8ff" stroke="#63b8ff" points="395.51,-30.46 389.45,-21.77 388.77,-32.34 395.51,-30.46"/>
</a>
</g>
</g>
<!-- Node14 -->
<g id="Node000014" class="node">
<title>Node14</title>
<g id="a_Node000014"><a xlink:href="_token_8h.html" target="_top" xlink:title=" ">
<polygon fill="white" stroke="#666666" points="464.75,-76 414.25,-76 414.25,-56 464.75,-56 464.75,-76"/>
<text text-anchor="middle" x="439.5" y="-62.5" font-family="Helvetica,sans-Serif" font-size="10.00">Token.h</text>
</a>
</g>
</g>
<!-- Node13&#45;&gt;Node14 -->
<g id="edge27_Node000013_Node000014" class="edge">
<title>Node13&#45;&gt;Node14</title>
<g id="a_edge27_Node000013_Node000014"><a xlink:title=" ">
<path fill="none" stroke="#63b8ff" d="M424.64,-111.59C426.88,-104.86 429.99,-95.53 432.78,-87.15"/>
<polygon fill="#63b8ff" stroke="#63b8ff" points="436.08,-88.33 435.92,-77.73 429.44,-86.11 436.08,-88.33"/>
</a>
</g>
</g>
<!-- Node14&#45;&gt;Node3 -->
<g id="edge28_Node000014_Node000003" class="edge">
<title>Node14&#45;&gt;Node3</title>
<g id="a_edge28_Node000014_Node000003"><a xlink:title=" ">
<path fill="none" stroke="#63b8ff" d="M465.17,-56.44C492.5,-47.33 535.94,-32.85 566.42,-22.69"/>
<polygon fill="#63b8ff" stroke="#63b8ff" points="567.2,-26.12 575.58,-19.64 564.98,-19.48 567.2,-26.12"/>
</a>
</g>
</g>
<!-- Node14&#45;&gt;Node4 -->
<g id="edge29_Node000014_Node000004" class="edge">
<title>Node14&#45;&gt;Node4</title>
<g id="a_edge29_Node000014_Node000004"><a xlink:title=" ">
<path fill="none" stroke="#63b8ff" d="M430.27,-55.59C422.9,-48.08 412.37,-37.35 403.48,-28.3"/>
<polygon fill="#63b8ff" stroke="#63b8ff" points="406.19,-26.06 396.69,-21.38 401.19,-30.97 406.19,-26.06"/>
</a>
</g>
</g>
<!-- Node14&#45;&gt;Node5 -->
<g id="edge30_Node000014_Node000005" class="edge">
<title>Node14&#45;&gt;Node5</title>
<g id="a_edge30_Node000014_Node000005"><a xlink:title=" ">
<path fill="none" stroke="#63b8ff" d="M413.83,-56.8C386.49,-48.06 342.84,-34.11 310.88,-23.9"/>
<polygon fill="#63b8ff" stroke="#63b8ff" points="312.15,-20.63 301.56,-20.92 310.02,-27.3 312.15,-20.63"/>
</a>
</g>
</g>
</g>
</svg>
