<?xml version="1.0" encoding="UTF-8" standalone="no"?>
<!DOCTYPE svg PUBLIC "-//W3C//DTD SVG 1.1//EN"
 "http://www.w3.org/Graphics/SVG/1.1/DTD/svg11.dtd">
<!-- Generated by graphviz version 12.2.1 (20241206.2353)
 -->
<!-- Title: C:/Users/emilly/Documents/Lucca/Projetos/Cpp/NikiScript/src/Context.h Pages: 1 -->
<svg width="664pt" height="220pt"
 viewBox="0.00 0.00 663.91 220.00" xmlns="http://www.w3.org/2000/svg" xmlns:xlink="http://www.w3.org/1999/xlink">
<g id="graph0" class="graph" transform="scale(1 1) rotate(0) translate(4 216)">
<title>C:/Users/emilly/Documents/Lucca/Projetos/Cpp/NikiScript/src/Context.h</title>
<!-- Node1 -->
<g id="Node000001" class="node">
<title>Node1</title>
<g id="a_Node000001"><a xlink:title=" ">
<polygon fill="#999999" stroke="#666666" points="378.66,-212 227.66,-212 227.66,-168 378.66,-168 378.66,-212"/>
<text text-anchor="start" x="235.66" y="-198.5" font-family="Helvetica,sans-Serif" font-size="10.00">C:/Users/emilly/Documents</text>
<text text-anchor="start" x="235.66" y="-186.5" font-family="Helvetica,sans-Serif" font-size="10.00">/Lucca/Projetos/Cpp/NikiScript</text>
<text text-anchor="middle" x="303.16" y="-174.5" font-family="Helvetica,sans-Serif" font-size="10.00">/src/Context.h</text>
</a>
</g>
</g>
<!-- Node2 -->
<g id="Node000002" class="node">
<title>Node2</title>
<g id="a_Node000002"><a xlink:title=" ">
<polygon fill="#e0e0e0" stroke="#999999" points="72.66,-20 29.66,-20 29.66,0 72.66,0 72.66,-20"/>
<text text-anchor="middle" x="51.16" y="-6.5" font-family="Helvetica,sans-Serif" font-size="10.00">vector</text>
</a>
</g>
</g>
<!-- Node1&#45;&gt;Node2 -->
<g id="edge1_Node000001_Node000002" class="edge">
<title>Node1&#45;&gt;Node2</title>
<g id="a_edge1_Node000001_Node000002"><a xlink:title=" ">
<path fill="none" stroke="#63b8ff" d="M227.25,-183.3C153.16,-176.11 47.57,-161.02 19.16,-132 -4.67,-107.65 -3.33,-87.7 9.16,-56 13.42,-45.19 21.64,-35.45 29.68,-27.82"/>
<polygon fill="#63b8ff" stroke="#63b8ff" points="31.78,-30.63 37,-21.41 27.17,-25.36 31.78,-30.63"/>
</a>
</g>
</g>
<!-- Node3 -->
<g id="Node000003" class="node">
<title>Node3</title>
<g id="a_Node000003"><a xlink:title=" ">
<polygon fill="#e0e0e0" stroke="#999999" points="153.29,-20 105.04,-20 105.04,0 153.29,0 153.29,-20"/>
<text text-anchor="middle" x="129.16" y="-6.5" font-family="Helvetica,sans-Serif" font-size="10.00">stdint.h</text>
</a>
</g>
</g>
<!-- Node1&#45;&gt;Node3 -->
<g id="edge2_Node000001_Node000003" class="edge">
<title>Node1&#45;&gt;Node3</title>
<g id="a_edge2_Node000001_Node000003"><a xlink:title=" ">
<path fill="none" stroke="#63b8ff" d="M273.13,-167.7C244.57,-146.51 201.44,-112.05 170.16,-76 158,-61.99 146.96,-44.02 139.4,-30.52"/>
<polygon fill="#63b8ff" stroke="#63b8ff" points="142.49,-28.88 134.65,-21.76 136.34,-32.22 142.49,-28.88"/>
</a>
</g>
</g>
<!-- Node4 -->
<g id="Node000004" class="node">
<title>Node4</title>
<g id="a_Node000004"><a xlink:title=" ">
<polygon fill="#e0e0e0" stroke="#999999" points="363.16,-20 323.16,-20 323.16,0 363.16,0 363.16,-20"/>
<text text-anchor="middle" x="343.16" y="-6.5" font-family="Helvetica,sans-Serif" font-size="10.00">string</text>
</a>
</g>
</g>
<!-- Node1&#45;&gt;Node4 -->
<g id="edge3_Node000001_Node000004" class="edge">
<title>Node1&#45;&gt;Node4</title>
<g id="a_edge3_Node000001_Node000004"><a xlink:title=" ">
<path fill="none" stroke="#63b8ff" d="M326.54,-167.69C336.15,-157.73 346.54,-145.17 353.16,-132 368.52,-101.44 372.87,-89.32 365.16,-56 363.08,-47.02 358.95,-37.76 354.83,-29.99"/>
<polygon fill="#63b8ff" stroke="#63b8ff" points="357.97,-28.43 349.96,-21.5 351.9,-31.91 357.97,-28.43"/>
</a>
</g>
</g>
<!-- Node5 -->
<g id="Node000005" class="node">
<title>Node5</title>
<g id="a_Node000005"><a xlink:title=" ">
<polygon fill="#e0e0e0" stroke="#999999" points="554.54,-76 471.79,-76 471.79,-56 554.54,-56 554.54,-76"/>
<text text-anchor="middle" x="513.16" y="-62.5" font-family="Helvetica,sans-Serif" font-size="10.00">unordered_map</text>
</a>
</g>
</g>
<!-- Node1&#45;&gt;Node5 -->
<g id="edge4_Node000001_Node000005" class="edge">
<title>Node1&#45;&gt;Node5</title>
<g id="a_edge4_Node000001_Node000005"><a xlink:title=" ">
<path fill="none" stroke="#63b8ff" d="M379.09,-178.22C432.26,-168.94 496.64,-153.61 513.16,-132 522.81,-119.38 521.85,-100.99 519.03,-86.98"/>
<polygon fill="#63b8ff" stroke="#63b8ff" points="522.49,-86.38 516.66,-77.53 515.7,-88.08 522.49,-86.38"/>
</a>
</g>
</g>
<!-- Node6 -->
<g id="Node000006" class="node">
<title>Node6</title>
<g id="a_Node000006"><a xlink:href="_command_8h.html" target="_top" xlink:title=" ">
<polygon fill="white" stroke="#666666" points="277.79,-76 208.54,-76 208.54,-56 277.79,-56 277.79,-76"/>
<text text-anchor="middle" x="243.16" y="-62.5" font-family="Helvetica,sans-Serif" font-size="10.00">Command.h</text>
</a>
</g>
</g>
<!-- Node1&#45;&gt;Node6 -->
<g id="edge5_Node000001_Node000006" class="edge">
<title>Node1&#45;&gt;Node6</title>
<g id="a_edge5_Node000001_Node000006"><a xlink:title=" ">
<path fill="none" stroke="#63b8ff" d="M279.16,-167.6C269.56,-157.72 259.34,-145.24 253.16,-132 246.65,-118.04 244.23,-100.75 243.39,-87.51"/>
<polygon fill="#63b8ff" stroke="#63b8ff" points="246.9,-87.68 243.04,-77.81 239.9,-87.93 246.9,-87.68"/>
</a>
</g>
</g>
<!-- Node7 -->
<g id="Node000007" class="node">
<title>Node7</title>
<g id="a_Node000007"><a xlink:href="_command_handler_8h.html" target="_top" xlink:title=" ">
<polygon fill="white" stroke="#666666" points="503.66,-132 400.66,-132 400.66,-112 503.66,-112 503.66,-132"/>
<text text-anchor="middle" x="452.16" y="-118.5" font-family="Helvetica,sans-Serif" font-size="10.00">CommandHandler.h</text>
</a>
</g>
</g>
<!-- Node1&#45;&gt;Node7 -->
<g id="edge9_Node000001_Node000007" class="edge">
<title>Node1&#45;&gt;Node7</title>
<g id="a_edge9_Node000001_Node000007"><a xlink:title=" ">
<path fill="none" stroke="#63b8ff" d="M351.54,-167.57C374.2,-157.54 400.54,-145.87 420.59,-136.98"/>
<polygon fill="#63b8ff" stroke="#63b8ff" points="421.91,-140.23 429.64,-132.98 419.08,-133.83 421.91,-140.23"/>
</a>
</g>
</g>
<!-- Node8 -->
<g id="Node000008" class="node">
<title>Node8</title>
<g id="a_Node000008"><a xlink:href="_print_callback_8h.html" target="_top" xlink:title=" ">
<polygon fill="white" stroke="#666666" points="344.54,-132 261.79,-132 261.79,-112 344.54,-112 344.54,-132"/>
<text text-anchor="middle" x="303.16" y="-118.5" font-family="Helvetica,sans-Serif" font-size="10.00">PrintCallback.h</text>
</a>
</g>
</g>
<!-- Node1&#45;&gt;Node8 -->
<g id="edge13_Node000001_Node000008" class="edge">
<title>Node1&#45;&gt;Node8</title>
<g id="a_edge13_Node000001_Node000008"><a xlink:title=" ">
<path fill="none" stroke="#63b8ff" d="M303.16,-167.75C303.16,-160.13 303.16,-151.53 303.16,-143.93"/>
<polygon fill="#63b8ff" stroke="#63b8ff" points="306.66,-143.93 303.16,-133.93 299.66,-143.93 306.66,-143.93"/>
</a>
</g>
</g>
<!-- Node11 -->
<g id="Node000011" class="node">
<title>Node11</title>
<g id="a_Node000011"><a xlink:href="_program_variable_8h.html" target="_top" xlink:title=" ">
<polygon fill="white" stroke="#666666" points="655.91,-132 560.41,-132 560.41,-112 655.91,-112 655.91,-132"/>
<text text-anchor="middle" x="608.16" y="-118.5" font-family="Helvetica,sans-Serif" font-size="10.00">ProgramVariable.h</text>
</a>
</g>
</g>
<!-- Node1&#45;&gt;Node11 -->
<g id="edge20_Node000001_Node000011" class="edge">
<title>Node1&#45;&gt;Node11</title>
<g id="a_edge20_Node000001_Node000011"><a xlink:title=" ">
<path fill="none" stroke="#63b8ff" d="M378.95,-172.6C433.01,-160.9 504.47,-145.44 553.13,-134.91"/>
<polygon fill="#63b8ff" stroke="#63b8ff" points="553.86,-138.33 562.89,-132.8 552.38,-131.49 553.86,-138.33"/>
</a>
</g>
</g>
<!-- Node12 -->
<g id="Node000012" class="node">
<title>Node12</title>
<g id="a_Node000012"><a xlink:href="_lexer_8h.html" target="_top" xlink:title=" ">
<polygon fill="white" stroke="#666666" points="76.29,-132 28.04,-132 28.04,-112 76.29,-112 76.29,-132"/>
<text text-anchor="middle" x="52.16" y="-118.5" font-family="Helvetica,sans-Serif" font-size="10.00">Lexer.h</text>
</a>
</g>
</g>
<!-- Node1&#45;&gt;Node12 -->
<g id="edge24_Node000001_Node000012" class="edge">
<title>Node1&#45;&gt;Node12</title>
<g id="a_edge24_Node000001_Node000012"><a xlink:title=" ">
<path fill="none" stroke="#63b8ff" d="M227.17,-169.02C180.82,-156.83 123.74,-141.82 87.64,-132.33"/>
<polygon fill="#63b8ff" stroke="#63b8ff" points="88.72,-128.99 78.16,-129.84 86.94,-135.76 88.72,-128.99"/>
</a>
</g>
</g>
<!-- Node6&#45;&gt;Node2 -->
<g id="edge6_Node000006_Node000002" class="edge">
<title>Node6&#45;&gt;Node2</title>
<g id="a_edge6_Node000006_Node000002"><a xlink:title=" ">
<path fill="none" stroke="#63b8ff" d="M209.72,-55.59C174.39,-45.66 119.04,-30.09 83.96,-20.22"/>
<polygon fill="#63b8ff" stroke="#63b8ff" points="84.93,-16.86 74.35,-17.52 83.03,-23.6 84.93,-16.86"/>
</a>
</g>
</g>
<!-- Node6&#45;&gt;Node3 -->
<g id="edge8_Node000006_Node000003" class="edge">
<title>Node6&#45;&gt;Node3</title>
<g id="a_edge8_Node000006_Node000003"><a xlink:title=" ">
<path fill="none" stroke="#63b8ff" d="M223.31,-55.59C205.68,-47.24 179.65,-34.92 159.43,-25.34"/>
<polygon fill="#63b8ff" stroke="#63b8ff" points="161.08,-22.25 150.54,-21.13 158.08,-28.57 161.08,-22.25"/>
</a>
</g>
</g>
<!-- Node6&#45;&gt;Node4 -->
<g id="edge7_Node000006_Node000004" class="edge">
<title>Node6&#45;&gt;Node4</title>
<g id="a_edge7_Node000006_Node000004"><a xlink:title=" ">
<path fill="none" stroke="#63b8ff" d="M260.58,-55.59C275.83,-47.36 298.24,-35.26 315.87,-25.74"/>
<polygon fill="#63b8ff" stroke="#63b8ff" points="317.14,-29.03 324.28,-21.2 313.81,-22.87 317.14,-29.03"/>
</a>
</g>
</g>
<!-- Node7&#45;&gt;Node4 -->
<g id="edge11_Node000007_Node000004" class="edge">
<title>Node7&#45;&gt;Node4</title>
<g id="a_edge11_Node000007_Node000004"><a xlink:title=" ">
<path fill="none" stroke="#63b8ff" d="M449.46,-111.6C445.14,-97.97 435.59,-72.57 420.16,-56 407.22,-42.1 389,-31.18 373.53,-23.59"/>
<polygon fill="#63b8ff" stroke="#63b8ff" points="375.27,-20.54 364.73,-19.5 372.33,-26.89 375.27,-20.54"/>
</a>
</g>
</g>
<!-- Node7&#45;&gt;Node5 -->
<g id="edge10_Node000007_Node000005" class="edge">
<title>Node7&#45;&gt;Node5</title>
<g id="a_edge10_Node000007_Node000005"><a xlink:title=" ">
<path fill="none" stroke="#63b8ff" d="M462.79,-111.59C471.45,-103.93 483.89,-92.91 494.25,-83.75"/>
<polygon fill="#63b8ff" stroke="#63b8ff" points="496.36,-86.55 501.53,-77.3 491.72,-81.31 496.36,-86.55"/>
</a>
</g>
</g>
<!-- Node7&#45;&gt;Node6 -->
<g id="edge12_Node000007_Node000006" class="edge">
<title>Node7&#45;&gt;Node6</title>
<g id="a_edge12_Node000007_Node000006"><a xlink:title=" ">
<path fill="none" stroke="#63b8ff" d="M415.76,-111.59C380.52,-102.49 327,-88.66 288.91,-78.82"/>
<polygon fill="#63b8ff" stroke="#63b8ff" points="290.13,-75.52 279.57,-76.41 288.38,-82.3 290.13,-75.52"/>
</a>
</g>
</g>
<!-- Node8&#45;&gt;Node3 -->
<g id="edge14_Node000008_Node000003" class="edge">
<title>Node8&#45;&gt;Node3</title>
<g id="a_edge14_Node000008_Node000003"><a xlink:title=" ">
<path fill="none" stroke="#63b8ff" d="M274.48,-111.59C252.83,-103.79 222.89,-91.49 199.16,-76 178.66,-62.61 158.52,-43.05 145.15,-28.88"/>
<polygon fill="#63b8ff" stroke="#63b8ff" points="147.77,-26.57 138.42,-21.58 142.63,-31.31 147.77,-26.57"/>
</a>
</g>
</g>
<!-- Node8&#45;&gt;Node4 -->
<g id="edge15_Node000008_Node000004" class="edge">
<title>Node8&#45;&gt;Node4</title>
<g id="a_edge15_Node000008_Node000004"><a xlink:title=" ">
<path fill="none" stroke="#63b8ff" d="M317.84,-111.54C328.77,-103.56 342.84,-91.03 349.16,-76 355.15,-61.76 353.06,-44.26 349.8,-31.01"/>
<polygon fill="#63b8ff" stroke="#63b8ff" points="353.25,-30.33 347.1,-21.7 346.53,-32.28 353.25,-30.33"/>
</a>
</g>
</g>
<!-- Node9 -->
<g id="Node000009" class="node">
<title>Node9</title>
<g id="a_Node000009"><a xlink:href="_utils_8h.html" target="_top" xlink:title=" ">
<polygon fill="white" stroke="#666666" points="340.41,-76 295.91,-76 295.91,-56 340.41,-56 340.41,-76"/>
<text text-anchor="middle" x="318.16" y="-62.5" font-family="Helvetica,sans-Serif" font-size="10.00">Utils.h</text>
</a>
</g>
</g>
<!-- Node8&#45;&gt;Node9 -->
<g id="edge16_Node000008_Node000009" class="edge">
<title>Node8&#45;&gt;Node9</title>
<g id="a_edge16_Node000008_Node000009"><a xlink:title=" ">
<path fill="none" stroke="#63b8ff" d="M305.78,-111.59C307.65,-104.86 310.24,-95.53 312.57,-87.15"/>
<polygon fill="#63b8ff" stroke="#63b8ff" points="315.87,-88.33 315.18,-77.76 309.13,-86.46 315.87,-88.33"/>
</a>
</g>
</g>
<!-- Node9&#45;&gt;Node3 -->
<g id="edge17_Node000009_Node000003" class="edge">
<title>Node9&#45;&gt;Node3</title>
<g id="a_edge17_Node000009_Node000003"><a xlink:title=" ">
<path fill="none" stroke="#63b8ff" d="M295.48,-58.4C292.68,-57.59 289.86,-56.77 287.16,-56 245.05,-43.89 196.58,-30.11 164.55,-21.02"/>
<polygon fill="#63b8ff" stroke="#63b8ff" points="165.57,-17.67 154.99,-18.31 163.66,-24.41 165.57,-17.67"/>
</a>
</g>
</g>
<!-- Node9&#45;&gt;Node4 -->
<g id="edge18_Node000009_Node000004" class="edge">
<title>Node9&#45;&gt;Node4</title>
<g id="a_edge18_Node000009_Node000004"><a xlink:title=" ">
<path fill="none" stroke="#63b8ff" d="M322.52,-55.59C325.71,-48.7 330.15,-39.1 334.1,-30.57"/>
<polygon fill="#63b8ff" stroke="#63b8ff" points="337.2,-32.22 338.22,-21.67 330.85,-29.28 337.2,-32.22"/>
</a>
</g>
</g>
<!-- Node10 -->
<g id="Node000010" class="node">
<title>Node10</title>
<g id="a_Node000010"><a xlink:title=" ">
<polygon fill="#e0e0e0" stroke="#999999" points="551.79,-20 500.54,-20 500.54,0 551.79,0 551.79,-20"/>
<text text-anchor="middle" x="526.16" y="-6.5" font-family="Helvetica,sans-Serif" font-size="10.00">sstream</text>
</a>
</g>
</g>
<!-- Node9&#45;&gt;Node10 -->
<g id="edge19_Node000009_Node000010" class="edge">
<title>Node9&#45;&gt;Node10</title>
<g id="a_edge19_Node000009_Node000010"><a xlink:title=" ">
<path fill="none" stroke="#63b8ff" d="M340.82,-59.12C376.5,-49.85 446.16,-31.77 489.18,-20.6"/>
<polygon fill="#63b8ff" stroke="#63b8ff" points="490.03,-24 498.83,-18.1 488.27,-17.22 490.03,-24"/>
</a>
</g>
</g>
<!-- Node11&#45;&gt;Node4 -->
<g id="edge21_Node000011_Node000004" class="edge">
<title>Node11&#45;&gt;Node4</title>
<g id="a_edge21_Node000011_Node000004"><a xlink:title=" ">
<path fill="none" stroke="#63b8ff" d="M604.49,-111.77C598.27,-97.41 584.24,-69.91 563.16,-56 504.9,-17.54 420.49,-10.86 375.03,-10.33"/>
<polygon fill="#63b8ff" stroke="#63b8ff" points="375.08,-6.83 365.07,-10.32 375.07,-13.83 375.08,-6.83"/>
</a>
</g>
</g>
<!-- Node11&#45;&gt;Node5 -->
<g id="edge23_Node000011_Node000005" class="edge">
<title>Node11&#45;&gt;Node5</title>
<g id="a_edge23_Node000011_Node000005"><a xlink:title=" ">
<path fill="none" stroke="#63b8ff" d="M591.62,-111.59C577.26,-103.44 556.24,-91.48 539.56,-82"/>
<polygon fill="#63b8ff" stroke="#63b8ff" points="541.58,-79.13 531.16,-77.23 538.12,-85.21 541.58,-79.13"/>
</a>
</g>
</g>
<!-- Node11&#45;&gt;Node10 -->
<g id="edge22_Node000011_Node000010" class="edge">
<title>Node11&#45;&gt;Node10</title>
<g id="a_edge22_Node000011_Node000010"><a xlink:title=" ">
<path fill="none" stroke="#63b8ff" d="M608.66,-111.75C608.93,-98.32 607.67,-73.15 596.16,-56 587.46,-43.03 573.63,-32.99 560.55,-25.72"/>
<polygon fill="#63b8ff" stroke="#63b8ff" points="562.17,-22.62 551.68,-21.17 558.97,-28.85 562.17,-22.62"/>
</a>
</g>
</g>
<!-- Node12&#45;&gt;Node3 -->
<g id="edge25_Node000012_Node000003" class="edge">
<title>Node12&#45;&gt;Node3</title>
<g id="a_edge25_Node000012_Node000003"><a xlink:title=" ">
<path fill="none" stroke="#63b8ff" d="M40.84,-111.84C26.3,-98.94 4.39,-74.9 17.16,-56 26.16,-42.68 64.59,-29.17 93.95,-20.47"/>
<polygon fill="#63b8ff" stroke="#63b8ff" points="94.58,-23.93 103.22,-17.81 92.65,-17.21 94.58,-23.93"/>
</a>
</g>
</g>
<!-- Node12&#45;&gt;Node4 -->
<g id="edge26_Node000012_Node000004" class="edge">
<title>Node12&#45;&gt;Node4</title>
<g id="a_edge26_Node000012_Node000004"><a xlink:title=" ">
<path fill="none" stroke="#63b8ff" d="M71.37,-111.67C99.17,-98.35 152.41,-73.58 199.16,-56 237.47,-41.6 282.66,-28.01 312.06,-19.61"/>
<polygon fill="#63b8ff" stroke="#63b8ff" points="312.76,-23.05 321.43,-16.96 310.85,-16.32 312.76,-23.05"/>
</a>
</g>
</g>
<!-- Node13 -->
<g id="Node000013" class="node">
<title>Node13</title>
<g id="a_Node000013"><a xlink:href="_token_8h.html" target="_top" xlink:title=" ">
<polygon fill="white" stroke="#666666" points="76.41,-76 25.91,-76 25.91,-56 76.41,-56 76.41,-76"/>
<text text-anchor="middle" x="51.16" y="-62.5" font-family="Helvetica,sans-Serif" font-size="10.00">Token.h</text>
</a>
</g>
</g>
<!-- Node12&#45;&gt;Node13 -->
<g id="edge27_Node000012_Node000013" class="edge">
<title>Node12&#45;&gt;Node13</title>
<g id="a_edge27_Node000012_Node000013"><a xlink:title=" ">
<path fill="none" stroke="#63b8ff" d="M51.99,-111.59C51.87,-105.01 51.7,-95.96 51.55,-87.73"/>
<polygon fill="#63b8ff" stroke="#63b8ff" points="55.05,-87.75 51.36,-77.81 48.05,-87.87 55.05,-87.75"/>
</a>
</g>
</g>
<!-- Node13&#45;&gt;Node2 -->
<g id="edge30_Node000013_Node000002" class="edge">
<title>Node13&#45;&gt;Node2</title>
<g id="a_edge30_Node000013_Node000002"><a xlink:title=" ">
<path fill="none" stroke="#63b8ff" d="M51.16,-55.59C51.16,-49.01 51.16,-39.96 51.16,-31.73"/>
<polygon fill="#63b8ff" stroke="#63b8ff" points="54.66,-31.81 51.16,-21.81 47.66,-31.81 54.66,-31.81"/>
</a>
</g>
</g>
<!-- Node13&#45;&gt;Node3 -->
<g id="edge28_Node000013_Node000003" class="edge">
<title>Node13&#45;&gt;Node3</title>
<g id="a_edge28_Node000013_Node000003"><a xlink:title=" ">
<path fill="none" stroke="#63b8ff" d="M64.75,-55.59C76.2,-47.67 92.83,-36.16 106.32,-26.82"/>
<polygon fill="#63b8ff" stroke="#63b8ff" points="108,-29.91 114.23,-21.34 104.01,-24.16 108,-29.91"/>
</a>
</g>
</g>
<!-- Node13&#45;&gt;Node4 -->
<g id="edge29_Node000013_Node000004" class="edge">
<title>Node13&#45;&gt;Node4</title>
<g id="a_edge29_Node000013_Node000004"><a xlink:title=" ">
<path fill="none" stroke="#63b8ff" d="M76.82,-60.26C130.33,-50.36 253.69,-27.55 311.8,-16.8"/>
<polygon fill="#63b8ff" stroke="#63b8ff" points="312.15,-20.29 321.35,-15.03 310.88,-13.41 312.15,-20.29"/>
</a>
</g>
</g>
</g>
</svg>
