<?xml version="1.0" encoding="UTF-8" standalone="no"?>
<!DOCTYPE svg PUBLIC "-//W3C//DTD SVG 1.1//EN"
 "http://www.w3.org/Graphics/SVG/1.1/DTD/svg11.dtd">
<!-- Generated by graphviz version 12.2.1 (20241206.2353)
 -->
<!-- Title: C:/Users/emilly/Documents/Lucca/Projetos/Cpp/NikiScript/include/NikiScript/DLL.h Pages: 1 -->
<svg width="1498pt" height="452pt"
 viewBox="0.00 0.00 1498.00 452.00" xmlns="http://www.w3.org/2000/svg" xmlns:xlink="http://www.w3.org/1999/xlink">
<g id="graph0" class="graph" transform="scale(1 1) rotate(0) translate(4 448)">
<title>C:/Users/emilly/Documents/Lucca/Projetos/Cpp/NikiScript/include/NikiScript/DLL.h</title>
<!-- Node1 -->
<g id="Node000001" class="node">
<title>Node1</title>
<g id="a_Node000001"><a xlink:title=" ">
<polygon fill="#999999" stroke="#666666" points="771,-444 620,-444 620,-400 771,-400 771,-444"/>
<text text-anchor="start" x="628" y="-430.5" font-family="Helvetica,sans-Serif" font-size="10.00">C:/Users/emilly/Documents</text>
<text text-anchor="start" x="628" y="-418.5" font-family="Helvetica,sans-Serif" font-size="10.00">/Lucca/Projetos/Cpp/NikiScript</text>
<text text-anchor="middle" x="695.5" y="-406.5" font-family="Helvetica,sans-Serif" font-size="10.00">/include/NikiScript/DLL.h</text>
</a>
</g>
</g>
<!-- Node2 -->
<g id="Node000002" class="node">
<title>Node2</title>
<g id="a_Node000002"><a xlink:href="_command_8h.html" target="_top" xlink:title=" ">
<polygon fill="white" stroke="#666666" points="412.38,-364 260.62,-364 260.62,-320 412.38,-320 412.38,-364"/>
<text text-anchor="start" x="268.62" y="-350.5" font-family="Helvetica,sans-Serif" font-size="10.00">C:/Users/emilly/Documents</text>
<text text-anchor="start" x="268.62" y="-338.5" font-family="Helvetica,sans-Serif" font-size="10.00">/Lucca/Projetos/Cpp/NikiScript</text>
<text text-anchor="middle" x="336.5" y="-326.5" font-family="Helvetica,sans-Serif" font-size="10.00">/include/NikiScript/Command.h</text>
</a>
</g>
</g>
<!-- Node1&#45;&gt;Node2 -->
<g id="edge1_Node000001_Node000002" class="edge">
<title>Node1&#45;&gt;Node2</title>
<g id="a_edge1_Node000001_Node000002"><a xlink:title=" ">
<path fill="none" stroke="#63b8ff" d="M608.75,-403.09C555.99,-392.08 487.3,-377.53 426.5,-364 421.96,-362.99 417.29,-361.94 412.58,-360.87"/>
<polygon fill="#63b8ff" stroke="#63b8ff" points="607.77,-406.46 618.27,-405.07 609.2,-399.6 607.77,-406.46"/>
</a>
</g>
</g>
<!-- Node3 -->
<g id="Node000003" class="node">
<title>Node3</title>
<g id="a_Node000003"><a xlink:href="_command_handler_8h.html" target="_top" xlink:title=" ">
<polygon fill="white" stroke="#666666" points="325.25,-284 139.75,-284 139.75,-240 325.25,-240 325.25,-284"/>
<text text-anchor="start" x="147.75" y="-270.5" font-family="Helvetica,sans-Serif" font-size="10.00">C:/Users/emilly/Documents</text>
<text text-anchor="start" x="147.75" y="-258.5" font-family="Helvetica,sans-Serif" font-size="10.00">/Lucca/Projetos/Cpp/NikiScript</text>
<text text-anchor="middle" x="232.5" y="-246.5" font-family="Helvetica,sans-Serif" font-size="10.00">/include/NikiScript/CommandHandler.h</text>
</a>
</g>
</g>
<!-- Node1&#45;&gt;Node3 -->
<g id="edge17_Node000001_Node000003" class="edge">
<title>Node1&#45;&gt;Node3</title>
<g id="a_edge17_Node000001_Node000003"><a xlink:title=" ">
<path fill="none" stroke="#63b8ff" d="M608.43,-421.54C493.94,-420.34 301.44,-411.11 251.5,-364 229.96,-343.68 228.36,-307.24 229.91,-284.14"/>
<polygon fill="#63b8ff" stroke="#63b8ff" points="608.39,-425.04 618.42,-421.63 608.45,-418.04 608.39,-425.04"/>
</a>
</g>
</g>
<!-- Node4 -->
<g id="Node000004" class="node">
<title>Node4</title>
<g id="a_Node000004"><a xlink:href="_context_8h.html" target="_top" xlink:title=" ">
<polygon fill="white" stroke="#666666" points="510,-204 359,-204 359,-160 510,-160 510,-204"/>
<text text-anchor="start" x="367" y="-190.5" font-family="Helvetica,sans-Serif" font-size="10.00">C:/Users/emilly/Documents</text>
<text text-anchor="start" x="367" y="-178.5" font-family="Helvetica,sans-Serif" font-size="10.00">/Lucca/Projetos/Cpp/NikiScript</text>
<text text-anchor="middle" x="434.5" y="-166.5" font-family="Helvetica,sans-Serif" font-size="10.00">/include/NikiScript/Context.h</text>
</a>
</g>
</g>
<!-- Node1&#45;&gt;Node4 -->
<g id="edge18_Node000001_Node000004" class="edge">
<title>Node1&#45;&gt;Node4</title>
<g id="a_edge18_Node000001_Node000004"><a xlink:title=" ">
<path fill="none" stroke="#63b8ff" d="M608.85,-405.11C541.88,-387.78 453.57,-352.75 410.5,-284 395.09,-259.41 408.56,-225.8 420.67,-204.24"/>
<polygon fill="#63b8ff" stroke="#63b8ff" points="607.81,-408.46 618.36,-407.47 609.5,-401.66 607.81,-408.46"/>
</a>
</g>
</g>
<!-- Node5 -->
<g id="Node000005" class="node">
<title>Node5</title>
<g id="a_Node000005"><a xlink:href="_niki_script_8h.html" target="_top" xlink:title=" ">
<polygon fill="white" stroke="#666666" points="151,-124 0,-124 0,-80 151,-80 151,-124"/>
<text text-anchor="start" x="8" y="-110.5" font-family="Helvetica,sans-Serif" font-size="10.00">C:/Users/emilly/Documents</text>
<text text-anchor="start" x="8" y="-98.5" font-family="Helvetica,sans-Serif" font-size="10.00">/Lucca/Projetos/Cpp/NikiScript</text>
<text text-anchor="middle" x="75.5" y="-86.5" font-family="Helvetica,sans-Serif" font-size="10.00">/include/NikiScript/NikiScript.h</text>
</a>
</g>
</g>
<!-- Node1&#45;&gt;Node5 -->
<g id="edge23_Node000001_Node000005" class="edge">
<title>Node1&#45;&gt;Node5</title>
<g id="a_edge23_Node000001_Node000005"><a xlink:title=" ">
<path fill="none" stroke="#63b8ff" d="M608.52,-416.24C492.54,-408.9 294.1,-392.59 227.5,-364 176.15,-341.96 161.5,-330.49 130.5,-284 96.43,-232.9 82.79,-159.88 77.91,-124.22"/>
<polygon fill="#63b8ff" stroke="#63b8ff" points="608.12,-419.72 618.32,-416.85 608.55,-412.74 608.12,-419.72"/>
</a>
</g>
</g>
<!-- Node7 -->
<g id="Node000007" class="node">
<title>Node7</title>
<g id="a_Node000007"><a xlink:href="_parser_8h.html" target="_top" xlink:title=" ">
<polygon fill="white" stroke="#666666" points="1438,-124 1287,-124 1287,-80 1438,-80 1438,-124"/>
<text text-anchor="start" x="1295" y="-110.5" font-family="Helvetica,sans-Serif" font-size="10.00">C:/Users/emilly/Documents</text>
<text text-anchor="start" x="1295" y="-98.5" font-family="Helvetica,sans-Serif" font-size="10.00">/Lucca/Projetos/Cpp/NikiScript</text>
<text text-anchor="middle" x="1362.5" y="-86.5" font-family="Helvetica,sans-Serif" font-size="10.00">/include/NikiScript/Parser.h</text>
</a>
</g>
</g>
<!-- Node1&#45;&gt;Node7 -->
<g id="edge24_Node000001_Node000007" class="edge">
<title>Node1&#45;&gt;Node7</title>
<g id="a_edge24_Node000001_Node000007"><a xlink:title=" ">
<path fill="none" stroke="#63b8ff" d="M782.82,-418.28C946.94,-412.44 1288.81,-396.5 1331.5,-364 1405.69,-307.52 1394.71,-252.16 1380.5,-160 1378.63,-147.9 1374.66,-134.84 1370.93,-124.28"/>
<polygon fill="#63b8ff" stroke="#63b8ff" points="782.7,-414.79 772.83,-418.63 782.95,-421.78 782.7,-414.79"/>
</a>
</g>
</g>
<!-- Node14 -->
<g id="Node000014" class="node">
<title>Node14</title>
<g id="a_Node000014"><a xlink:href="_lexer_8h.html" target="_top" xlink:title=" ">
<polygon fill="white" stroke="#666666" points="1272,-284 1121,-284 1121,-240 1272,-240 1272,-284"/>
<text text-anchor="start" x="1129" y="-270.5" font-family="Helvetica,sans-Serif" font-size="10.00">C:/Users/emilly/Documents</text>
<text text-anchor="start" x="1129" y="-258.5" font-family="Helvetica,sans-Serif" font-size="10.00">/Lucca/Projetos/Cpp/NikiScript</text>
<text text-anchor="middle" x="1196.5" y="-246.5" font-family="Helvetica,sans-Serif" font-size="10.00">/include/NikiScript/Lexer.h</text>
</a>
</g>
</g>
<!-- Node1&#45;&gt;Node14 -->
<g id="edge19_Node000001_Node000014" class="edge">
<title>Node1&#45;&gt;Node14</title>
<g id="a_edge19_Node000001_Node000014"><a xlink:title=" ">
<path fill="none" stroke="#63b8ff" d="M774.56,-396.07C872.14,-365.29 1036.41,-313.49 1128.56,-284.43"/>
<polygon fill="#63b8ff" stroke="#63b8ff" points="773.52,-392.73 765.03,-399.07 775.62,-399.4 773.52,-392.73"/>
</a>
</g>
</g>
<!-- Node16 -->
<g id="Node000016" class="node">
<title>Node16</title>
<g id="a_Node000016"><a xlink:href="_print_callback_8h.html" target="_top" xlink:title=" ">
<polygon fill="white" stroke="#666666" points="1064.12,-284 898.88,-284 898.88,-240 1064.12,-240 1064.12,-284"/>
<text text-anchor="start" x="906.88" y="-270.5" font-family="Helvetica,sans-Serif" font-size="10.00">C:/Users/emilly/Documents</text>
<text text-anchor="start" x="906.88" y="-258.5" font-family="Helvetica,sans-Serif" font-size="10.00">/Lucca/Projetos/Cpp/NikiScript</text>
<text text-anchor="middle" x="981.5" y="-246.5" font-family="Helvetica,sans-Serif" font-size="10.00">/include/NikiScript/PrintCallback.h</text>
</a>
</g>
</g>
<!-- Node1&#45;&gt;Node16 -->
<g id="edge25_Node000001_Node000016" class="edge">
<title>Node1&#45;&gt;Node16</title>
<g id="a_edge25_Node000001_Node000016"><a xlink:title=" ">
<path fill="none" stroke="#63b8ff" d="M756.39,-394.86C776.73,-385.65 799.34,-374.86 819.5,-364 866.18,-338.85 917.79,-305.68 949.94,-284.35"/>
<polygon fill="#63b8ff" stroke="#63b8ff" points="755.05,-391.63 747.36,-398.91 757.92,-398.01 755.05,-391.63"/>
</a>
</g>
</g>
<!-- Node18 -->
<g id="Node000018" class="node">
<title>Node18</title>
<g id="a_Node000018"><a xlink:href="_program_variable_8h.html" target="_top" xlink:title=" ">
<polygon fill="white" stroke="#666666" points="597.5,-284 419.5,-284 419.5,-240 597.5,-240 597.5,-284"/>
<text text-anchor="start" x="427.5" y="-270.5" font-family="Helvetica,sans-Serif" font-size="10.00">C:/Users/emilly/Documents</text>
<text text-anchor="start" x="427.5" y="-258.5" font-family="Helvetica,sans-Serif" font-size="10.00">/Lucca/Projetos/Cpp/NikiScript</text>
<text text-anchor="middle" x="508.5" y="-246.5" font-family="Helvetica,sans-Serif" font-size="10.00">/include/NikiScript/ProgramVariable.h</text>
</a>
</g>
</g>
<!-- Node1&#45;&gt;Node18 -->
<g id="edge31_Node000001_Node000018" class="edge">
<title>Node1&#45;&gt;Node18</title>
<g id="a_edge31_Node000001_Node000018"><a xlink:title=" ">
<path fill="none" stroke="#63b8ff" d="M661.88,-392.59C625.12,-361.53 567.06,-312.48 533.92,-284.48"/>
<polygon fill="#63b8ff" stroke="#63b8ff" points="659.23,-394.93 669.12,-398.71 663.74,-389.59 659.23,-394.93"/>
</a>
</g>
</g>
<!-- Node19 -->
<g id="Node000019" class="node">
<title>Node19</title>
<g id="a_Node000019"><a xlink:href="_token_8h.html" target="_top" xlink:title=" ">
<polygon fill="white" stroke="#666666" points="1322,-364 1171,-364 1171,-320 1322,-320 1322,-364"/>
<text text-anchor="start" x="1179" y="-350.5" font-family="Helvetica,sans-Serif" font-size="10.00">C:/Users/emilly/Documents</text>
<text text-anchor="start" x="1179" y="-338.5" font-family="Helvetica,sans-Serif" font-size="10.00">/Lucca/Projetos/Cpp/NikiScript</text>
<text text-anchor="middle" x="1246.5" y="-326.5" font-family="Helvetica,sans-Serif" font-size="10.00">/include/NikiScript/Token.h</text>
</a>
</g>
</g>
<!-- Node1&#45;&gt;Node19 -->
<g id="edge34_Node000001_Node000019" class="edge">
<title>Node1&#45;&gt;Node19</title>
<g id="a_edge34_Node000001_Node000019"><a xlink:title=" ">
<path fill="none" stroke="#63b8ff" d="M782.64,-408.66C889.6,-393.52 1069.23,-368.09 1170.72,-353.73"/>
<polygon fill="#63b8ff" stroke="#63b8ff" points="782.16,-405.2 772.75,-410.07 783.14,-412.13 782.16,-405.2"/>
</a>
</g>
</g>
<!-- Node20 -->
<g id="Node000020" class="node">
<title>Node20</title>
<g id="a_Node000020"><a xlink:href="_utils_8h.html" target="_top" xlink:title=" ">
<polygon fill="white" stroke="#666666" points="810,-364 659,-364 659,-320 810,-320 810,-364"/>
<text text-anchor="start" x="667" y="-350.5" font-family="Helvetica,sans-Serif" font-size="10.00">C:/Users/emilly/Documents</text>
<text text-anchor="start" x="667" y="-338.5" font-family="Helvetica,sans-Serif" font-size="10.00">/Lucca/Projetos/Cpp/NikiScript</text>
<text text-anchor="middle" x="734.5" y="-326.5" font-family="Helvetica,sans-Serif" font-size="10.00">/include/NikiScript/Utils.h</text>
</a>
</g>
</g>
<!-- Node1&#45;&gt;Node20 -->
<g id="edge38_Node000001_Node000020" class="edge">
<title>Node1&#45;&gt;Node20</title>
<g id="a_edge38_Node000001_Node000020"><a xlink:title=" ">
<path fill="none" stroke="#63b8ff" d="M711.17,-389.66C715.43,-381.14 719.95,-372.11 723.86,-364.29"/>
<polygon fill="#63b8ff" stroke="#63b8ff" points="708.18,-387.82 706.83,-398.33 714.44,-390.95 708.18,-387.82"/>
</a>
</g>
</g>
<!-- Node2&#45;&gt;Node3 -->
<g id="edge2_Node000002_Node000003" class="edge">
<title>Node2&#45;&gt;Node3</title>
<g id="a_edge2_Node000002_Node000003"><a xlink:title=" ">
<path fill="none" stroke="#63b8ff" d="M299.17,-313C286.55,-303.54 272.69,-293.14 260.88,-284.29"/>
<polygon fill="#63b8ff" stroke="#63b8ff" points="296.77,-315.58 306.87,-318.78 300.97,-309.98 296.77,-315.58"/>
</a>
</g>
</g>
<!-- Node2&#45;&gt;Node4 -->
<g id="edge15_Node000002_Node000004" class="edge">
<title>Node2&#45;&gt;Node4</title>
<g id="a_edge15_Node000002_Node000004"><a xlink:title=" ">
<path fill="none" stroke="#63b8ff" d="M345.86,-308.91C352.75,-288.22 363.38,-261.29 377.5,-240 386.16,-226.94 398.15,-214.39 408.91,-204.42"/>
<polygon fill="#63b8ff" stroke="#63b8ff" points="342.58,-307.66 342.87,-318.25 349.25,-309.79 342.58,-307.66"/>
</a>
</g>
</g>
<!-- Node13 -->
<g id="Node000013" class="node">
<title>Node13</title>
<g id="a_Node000013"><a xlink:href="_command_8cpp.html" target="_top" xlink:title=" ">
<polygon fill="white" stroke="#666666" points="843,-204 692,-204 692,-160 843,-160 843,-204"/>
<text text-anchor="start" x="700" y="-190.5" font-family="Helvetica,sans-Serif" font-size="10.00">C:/Users/emilly/Documents</text>
<text text-anchor="start" x="700" y="-178.5" font-family="Helvetica,sans-Serif" font-size="10.00">/Lucca/Projetos/Cpp/NikiScript</text>
<text text-anchor="middle" x="767.5" y="-166.5" font-family="Helvetica,sans-Serif" font-size="10.00">/src/Command.cpp</text>
</a>
</g>
</g>
<!-- Node2&#45;&gt;Node13 -->
<g id="edge16_Node000002_Node000013" class="edge">
<title>Node2&#45;&gt;Node13</title>
<g id="a_edge16_Node000002_Node000013"><a xlink:title=" ">
<path fill="none" stroke="#63b8ff" d="M424.07,-330.49C478.06,-322.09 547.93,-307.68 606.5,-284 656.98,-263.6 709.27,-227.54 740.07,-204.48"/>
<polygon fill="#63b8ff" stroke="#63b8ff" points="423.66,-327.01 414.29,-331.97 424.7,-333.94 423.66,-327.01"/>
</a>
</g>
</g>
<!-- Node3&#45;&gt;Node4 -->
<g id="edge3_Node000003_Node000004" class="edge">
<title>Node3&#45;&gt;Node4</title>
<g id="a_edge3_Node000003_Node000004"><a xlink:title=" ">
<path fill="none" stroke="#63b8ff" d="M298.52,-235.51C324.6,-225.44 354.23,-214 379.16,-204.37"/>
<polygon fill="#63b8ff" stroke="#63b8ff" points="297.44,-232.17 289.38,-239.04 299.97,-238.7 297.44,-232.17"/>
</a>
</g>
</g>
<!-- Node10 -->
<g id="Node000010" class="node">
<title>Node10</title>
<g id="a_Node000010"><a xlink:href="_command_handler_8cpp.html" target="_top" xlink:title=" ">
<polygon fill="white" stroke="#666666" points="320,-124 169,-124 169,-80 320,-80 320,-124"/>
<text text-anchor="start" x="177" y="-110.5" font-family="Helvetica,sans-Serif" font-size="10.00">C:/Users/emilly/Documents</text>
<text text-anchor="start" x="177" y="-98.5" font-family="Helvetica,sans-Serif" font-size="10.00">/Lucca/Projetos/Cpp/NikiScript</text>
<text text-anchor="middle" x="244.5" y="-86.5" font-family="Helvetica,sans-Serif" font-size="10.00">/src/CommandHandler.cpp</text>
</a>
</g>
</g>
<!-- Node3&#45;&gt;Node10 -->
<g id="edge14_Node000003_Node000010" class="edge">
<title>Node3&#45;&gt;Node10</title>
<g id="a_edge14_Node000003_Node000010"><a xlink:title=" ">
<path fill="none" stroke="#63b8ff" d="M234.96,-228.57C237.33,-197.43 240.83,-151.3 242.87,-124.48"/>
<polygon fill="#63b8ff" stroke="#63b8ff" points="231.5,-227.95 234.23,-238.18 238.48,-228.48 231.5,-227.95"/>
</a>
</g>
</g>
<!-- Node4&#45;&gt;Node5 -->
<g id="edge4_Node000004_Node000005" class="edge">
<title>Node4&#45;&gt;Node5</title>
<g id="a_edge4_Node000004_Node000005"><a xlink:title=" ">
<path fill="none" stroke="#63b8ff" d="M347.78,-163.96C293.55,-153.08 222.31,-138.35 159.5,-124 156.86,-123.4 154.18,-122.78 151.47,-122.14"/>
<polygon fill="#63b8ff" stroke="#63b8ff" points="346.77,-167.33 357.26,-165.86 348.14,-160.47 346.77,-167.33"/>
</a>
</g>
</g>
<!-- Node4&#45;&gt;Node7 -->
<g id="edge6_Node000004_Node000007" class="edge">
<title>Node4&#45;&gt;Node7</title>
<g id="a_edge6_Node000004_Node000007"><a xlink:title=" ">
<path fill="none" stroke="#63b8ff" d="M521.48,-173.66C569.3,-169.62 629.67,-164.53 683.5,-160 902.46,-141.58 1161.15,-119.88 1286.64,-109.36"/>
<polygon fill="#63b8ff" stroke="#63b8ff" points="521.41,-170.15 511.74,-174.48 522,-177.12 521.41,-170.15"/>
</a>
</g>
</g>
<!-- Node9 -->
<g id="Node000009" class="node">
<title>Node9</title>
<g id="a_Node000009"><a xlink:href="_token_8cpp.html" target="_top" xlink:title=" ">
<polygon fill="white" stroke="#666666" points="1247,-44 1096,-44 1096,0 1247,0 1247,-44"/>
<text text-anchor="start" x="1104" y="-30.5" font-family="Helvetica,sans-Serif" font-size="10.00">C:/Users/emilly/Documents</text>
<text text-anchor="start" x="1104" y="-18.5" font-family="Helvetica,sans-Serif" font-size="10.00">/Lucca/Projetos/Cpp/NikiScript</text>
<text text-anchor="middle" x="1171.5" y="-6.5" font-family="Helvetica,sans-Serif" font-size="10.00">/src/Token.cpp</text>
</a>
</g>
</g>
<!-- Node4&#45;&gt;Node9 -->
<g id="edge13_Node000004_Node000009" class="edge">
<title>Node4&#45;&gt;Node9</title>
<g id="a_edge13_Node000004_Node000009"><a xlink:title=" ">
<path fill="none" stroke="#63b8ff" d="M468.24,-152.28C478.21,-143.45 488.99,-133.53 498.5,-124 516.96,-105.5 514.17,-91.77 537.5,-80 617.77,-39.49 850.95,-52.07 940.5,-44 992.24,-39.34 1050.49,-34.04 1095.55,-29.93"/>
<polygon fill="#63b8ff" stroke="#63b8ff" points="466.09,-149.51 460.88,-158.74 470.71,-154.78 466.09,-149.51"/>
</a>
</g>
</g>
<!-- Node4&#45;&gt;Node10 -->
<g id="edge10_Node000004_Node000010" class="edge">
<title>Node4&#45;&gt;Node10</title>
<g id="a_edge10_Node000004_Node000010"><a xlink:title=" ">
<path fill="none" stroke="#63b8ff" d="M371.75,-155.24C347.38,-145.23 319.79,-133.91 296.55,-124.37"/>
<polygon fill="#63b8ff" stroke="#63b8ff" points="370.35,-158.45 380.93,-159.01 373.01,-151.97 370.35,-158.45"/>
</a>
</g>
</g>
<!-- Node11 -->
<g id="Node000011" class="node">
<title>Node11</title>
<g id="a_Node000011"><a xlink:href="_context_8cpp.html" target="_top" xlink:title=" ">
<polygon fill="white" stroke="#666666" points="489,-124 338,-124 338,-80 489,-80 489,-124"/>
<text text-anchor="start" x="346" y="-110.5" font-family="Helvetica,sans-Serif" font-size="10.00">C:/Users/emilly/Documents</text>
<text text-anchor="start" x="346" y="-98.5" font-family="Helvetica,sans-Serif" font-size="10.00">/Lucca/Projetos/Cpp/NikiScript</text>
<text text-anchor="middle" x="413.5" y="-86.5" font-family="Helvetica,sans-Serif" font-size="10.00">/src/Context.cpp</text>
</a>
</g>
</g>
<!-- Node4&#45;&gt;Node11 -->
<g id="edge11_Node000004_Node000011" class="edge">
<title>Node4&#45;&gt;Node11</title>
<g id="a_edge11_Node000004_Node000011"><a xlink:title=" ">
<path fill="none" stroke="#63b8ff" d="M425.83,-148.82C423.61,-140.54 421.27,-131.85 419.23,-124.29"/>
<polygon fill="#63b8ff" stroke="#63b8ff" points="422.39,-149.48 428.37,-158.22 429.15,-147.66 422.39,-149.48"/>
</a>
</g>
</g>
<!-- Node12 -->
<g id="Node000012" class="node">
<title>Node12</title>
<g id="a_Node000012"><a xlink:href="_program_variable_8cpp.html" target="_top" xlink:title=" ">
<polygon fill="white" stroke="#666666" points="697,-124 546,-124 546,-80 697,-80 697,-124"/>
<text text-anchor="start" x="554" y="-110.5" font-family="Helvetica,sans-Serif" font-size="10.00">C:/Users/emilly/Documents</text>
<text text-anchor="start" x="554" y="-98.5" font-family="Helvetica,sans-Serif" font-size="10.00">/Lucca/Projetos/Cpp/NikiScript</text>
<text text-anchor="middle" x="621.5" y="-86.5" font-family="Helvetica,sans-Serif" font-size="10.00">/src/ProgramVariable.cpp</text>
</a>
</g>
</g>
<!-- Node4&#45;&gt;Node12 -->
<g id="edge12_Node000004_Node000012" class="edge">
<title>Node4&#45;&gt;Node12</title>
<g id="a_edge12_Node000004_Node000012"><a xlink:title=" ">
<path fill="none" stroke="#63b8ff" d="M496.02,-155.34C520.02,-145.33 547.22,-133.99 570.14,-124.42"/>
<polygon fill="#63b8ff" stroke="#63b8ff" points="494.88,-152.02 487,-159.1 497.57,-158.48 494.88,-152.02"/>
</a>
</g>
</g>
<!-- Node6 -->
<g id="Node000006" class="node">
<title>Node6</title>
<g id="a_Node000006"><a xlink:href="_niki_script_8cpp.html" target="_top" xlink:title=" ">
<polygon fill="white" stroke="#666666" points="931,-44 780,-44 780,0 931,0 931,-44"/>
<text text-anchor="start" x="788" y="-30.5" font-family="Helvetica,sans-Serif" font-size="10.00">C:/Users/emilly/Documents</text>
<text text-anchor="start" x="788" y="-18.5" font-family="Helvetica,sans-Serif" font-size="10.00">/Lucca/Projetos/Cpp/NikiScript</text>
<text text-anchor="middle" x="855.5" y="-6.5" font-family="Helvetica,sans-Serif" font-size="10.00">/src/NikiScript.cpp</text>
</a>
</g>
</g>
<!-- Node5&#45;&gt;Node6 -->
<g id="edge5_Node000005_Node000006" class="edge">
<title>Node5&#45;&gt;Node6</title>
<g id="a_edge5_Node000005_Node000006"><a xlink:title=" ">
<path fill="none" stroke="#63b8ff" d="M162.62,-79.61C391.65,-42.73 653.17,-29.66 779.56,-25.16"/>
<polygon fill="#63b8ff" stroke="#63b8ff" points="162.19,-76.13 152.88,-81.19 163.32,-83.04 162.19,-76.13"/>
</a>
</g>
</g>
<!-- Node7&#45;&gt;Node6 -->
<g id="edge7_Node000007_Node000006" class="edge">
<title>Node7&#45;&gt;Node6</title>
<g id="a_edge7_Node000007_Node000006"><a xlink:title=" ">
<path fill="none" stroke="#63b8ff" d="M1275.75,-86.61C1261.96,-84.36 1247.84,-82.1 1234.5,-80 1129.49,-63.49 1007.96,-45.39 931.41,-34.11"/>
<polygon fill="#63b8ff" stroke="#63b8ff" points="1274.79,-90 1285.23,-88.15 1275.92,-83.09 1274.79,-90"/>
</a>
</g>
</g>
<!-- Node8 -->
<g id="Node000008" class="node">
<title>Node8</title>
<g id="a_Node000008"><a xlink:href="_parser_8cpp.html" target="_top" xlink:title=" ">
<polygon fill="white" stroke="#666666" points="1490,-44 1339,-44 1339,0 1490,0 1490,-44"/>
<text text-anchor="start" x="1347" y="-30.5" font-family="Helvetica,sans-Serif" font-size="10.00">C:/Users/emilly/Documents</text>
<text text-anchor="start" x="1347" y="-18.5" font-family="Helvetica,sans-Serif" font-size="10.00">/Lucca/Projetos/Cpp/NikiScript</text>
<text text-anchor="middle" x="1414.5" y="-6.5" font-family="Helvetica,sans-Serif" font-size="10.00">/src/Parser.cpp</text>
</a>
</g>
</g>
<!-- Node7&#45;&gt;Node8 -->
<g id="edge8_Node000007_Node000008" class="edge">
<title>Node7&#45;&gt;Node8</title>
<g id="a_edge8_Node000007_Node000008"><a xlink:title=" ">
<path fill="none" stroke="#63b8ff" d="M1383.02,-70.22C1388.81,-61.54 1394.98,-52.28 1400.31,-44.29"/>
<polygon fill="#63b8ff" stroke="#63b8ff" points="1380.18,-68.16 1377.55,-78.43 1386.01,-72.05 1380.18,-68.16"/>
</a>
</g>
</g>
<!-- Node7&#45;&gt;Node9 -->
<g id="edge9_Node000007_Node000009" class="edge">
<title>Node7&#45;&gt;Node9</title>
<g id="a_edge9_Node000007_Node000009"><a xlink:title=" ">
<path fill="none" stroke="#63b8ff" d="M1299.42,-75.24C1274.92,-65.23 1247.19,-53.91 1223.83,-44.37"/>
<polygon fill="#63b8ff" stroke="#63b8ff" points="1298.07,-78.47 1308.65,-79.01 1300.72,-71.99 1298.07,-78.47"/>
</a>
</g>
</g>
<!-- Node14&#45;&gt;Node4 -->
<g id="edge20_Node000014_Node000004" class="edge">
<title>Node14&#45;&gt;Node4</title>
<g id="a_edge20_Node000014_Node000004"><a xlink:title=" ">
<path fill="none" stroke="#63b8ff" d="M1109.52,-245.26C1097.44,-243.33 1085.18,-241.52 1073.5,-240 1018.9,-232.91 667.36,-202.76 510.21,-189.41"/>
<polygon fill="#63b8ff" stroke="#63b8ff" points="1108.61,-248.66 1119.04,-246.81 1109.73,-241.75 1108.61,-248.66"/>
</a>
</g>
</g>
<!-- Node14&#45;&gt;Node6 -->
<g id="edge22_Node000014_Node000006" class="edge">
<title>Node14&#45;&gt;Node6</title>
<g id="a_edge22_Node000014_Node000006"><a xlink:title=" ">
<path fill="none" stroke="#63b8ff" d="M1243.98,-232.8C1253.47,-224.77 1262.16,-215.13 1267.5,-204 1275.96,-186.37 1278.94,-175.86 1267.5,-160 1190.66,-53.47 1027.54,-28.49 931.2,-23.4"/>
<polygon fill="#63b8ff" stroke="#63b8ff" points="1242.03,-229.88 1236.29,-238.79 1246.33,-235.4 1242.03,-229.88"/>
</a>
</g>
</g>
<!-- Node15 -->
<g id="Node000015" class="node">
<title>Node15</title>
<g id="a_Node000015"><a xlink:href="_lexer_8cpp.html" target="_top" xlink:title=" ">
<polygon fill="white" stroke="#666666" points="1258,-204 1107,-204 1107,-160 1258,-160 1258,-204"/>
<text text-anchor="start" x="1115" y="-190.5" font-family="Helvetica,sans-Serif" font-size="10.00">C:/Users/emilly/Documents</text>
<text text-anchor="start" x="1115" y="-178.5" font-family="Helvetica,sans-Serif" font-size="10.00">/Lucca/Projetos/Cpp/NikiScript</text>
<text text-anchor="middle" x="1182.5" y="-166.5" font-family="Helvetica,sans-Serif" font-size="10.00">/src/Lexer.cpp</text>
</a>
</g>
</g>
<!-- Node14&#45;&gt;Node15 -->
<g id="edge21_Node000014_Node000015" class="edge">
<title>Node14&#45;&gt;Node15</title>
<g id="a_edge21_Node000014_Node000015"><a xlink:title=" ">
<path fill="none" stroke="#63b8ff" d="M1190.67,-228.53C1189.2,-220.35 1187.66,-211.77 1186.32,-204.29"/>
<polygon fill="#63b8ff" stroke="#63b8ff" points="1187.2,-228.97 1192.41,-238.2 1194.09,-227.74 1187.2,-228.97"/>
</a>
</g>
</g>
<!-- Node16&#45;&gt;Node4 -->
<g id="edge26_Node000016_Node000004" class="edge">
<title>Node16&#45;&gt;Node4</title>
<g id="a_edge26_Node000016_Node000004"><a xlink:title=" ">
<path fill="none" stroke="#63b8ff" d="M887.55,-239.55C749.34,-215.51 598.68,-198.86 510.3,-190.07"/>
<polygon fill="#63b8ff" stroke="#63b8ff" points="886.8,-242.98 897.26,-241.26 888.01,-236.08 886.8,-242.98"/>
</a>
</g>
</g>
<!-- Node16&#45;&gt;Node8 -->
<g id="edge28_Node000016_Node000008" class="edge">
<title>Node16&#45;&gt;Node8</title>
<g id="a_edge28_Node000016_Node000008"><a xlink:title=" ">
<path fill="none" stroke="#63b8ff" d="M1022.3,-233.09C1034.34,-224.25 1047.29,-214.13 1058.5,-204 1078.1,-186.28 1074.91,-171.92 1098.5,-160 1168.09,-124.84 1395.27,-181.89 1447.5,-124 1467.64,-101.67 1448.76,-66.83 1432.38,-44.46"/>
<polygon fill="#63b8ff" stroke="#63b8ff" points="1020.6,-230 1014.54,-238.69 1024.69,-235.68 1020.6,-230"/>
</a>
</g>
</g>
<!-- Node16&#45;&gt;Node9 -->
<g id="edge30_Node000016_Node000009" class="edge">
<title>Node16&#45;&gt;Node9</title>
<g id="a_edge30_Node000016_Node000009"><a xlink:title=" ">
<path fill="none" stroke="#63b8ff" d="M1005.4,-231.06C1044.31,-182.32 1120.42,-86.98 1154.4,-44.42"/>
<polygon fill="#63b8ff" stroke="#63b8ff" points="1002.81,-228.7 999.31,-238.7 1008.28,-233.06 1002.81,-228.7"/>
</a>
</g>
</g>
<!-- Node16&#45;&gt;Node13 -->
<g id="edge27_Node000016_Node000013" class="edge">
<title>Node16&#45;&gt;Node13</title>
<g id="a_edge27_Node000016_Node000013"><a xlink:title=" ">
<path fill="none" stroke="#63b8ff" d="M911.93,-235.64C884.21,-225.54 852.66,-214.04 826.13,-204.37"/>
<polygon fill="#63b8ff" stroke="#63b8ff" points="910.72,-238.93 921.32,-239.06 913.12,-232.35 910.72,-238.93"/>
</a>
</g>
</g>
<!-- Node17 -->
<g id="Node000017" class="node">
<title>Node17</title>
<g id="a_Node000017"><a xlink:href="_print_callback_8cpp.html" target="_top" xlink:title=" ">
<polygon fill="white" stroke="#666666" points="1012,-204 861,-204 861,-160 1012,-160 1012,-204"/>
<text text-anchor="start" x="869" y="-190.5" font-family="Helvetica,sans-Serif" font-size="10.00">C:/Users/emilly/Documents</text>
<text text-anchor="start" x="869" y="-178.5" font-family="Helvetica,sans-Serif" font-size="10.00">/Lucca/Projetos/Cpp/NikiScript</text>
<text text-anchor="middle" x="936.5" y="-166.5" font-family="Helvetica,sans-Serif" font-size="10.00">/src/PrintCallback.cpp</text>
</a>
</g>
</g>
<!-- Node16&#45;&gt;Node17 -->
<g id="edge29_Node000016_Node000017" class="edge">
<title>Node16&#45;&gt;Node17</title>
<g id="a_edge29_Node000016_Node000017"><a xlink:title=" ">
<path fill="none" stroke="#63b8ff" d="M963.58,-229.94C958.62,-221.34 953.34,-212.2 948.78,-204.29"/>
<polygon fill="#63b8ff" stroke="#63b8ff" points="960.42,-231.46 968.45,-238.38 966.48,-227.96 960.42,-231.46"/>
</a>
</g>
</g>
<!-- Node18&#45;&gt;Node4 -->
<g id="edge32_Node000018_Node000004" class="edge">
<title>Node18&#45;&gt;Node4</title>
<g id="a_edge32_Node000018_Node000004"><a xlink:title=" ">
<path fill="none" stroke="#63b8ff" d="M480.36,-231.34C471.82,-222.33 462.61,-212.63 454.7,-204.29"/>
<polygon fill="#63b8ff" stroke="#63b8ff" points="477.82,-233.74 487.24,-238.59 482.89,-228.92 477.82,-233.74"/>
</a>
</g>
</g>
<!-- Node18&#45;&gt;Node12 -->
<g id="edge33_Node000018_Node000012" class="edge">
<title>Node18&#45;&gt;Node12</title>
<g id="a_edge33_Node000018_Node000012"><a xlink:title=" ">
<path fill="none" stroke="#63b8ff" d="M530.24,-230.6C552.5,-199.47 586.54,-151.89 606.14,-124.48"/>
<polygon fill="#63b8ff" stroke="#63b8ff" points="527.59,-228.29 524.62,-238.46 533.28,-232.36 527.59,-228.29"/>
</a>
</g>
</g>
<!-- Node19&#45;&gt;Node7 -->
<g id="edge36_Node000019_Node000007" class="edge">
<title>Node19&#45;&gt;Node7</title>
<g id="a_edge36_Node000019_Node000007"><a xlink:title=" ">
<path fill="none" stroke="#63b8ff" d="M1307.98,-313.54C1319.8,-305.62 1330.85,-295.83 1338.5,-284 1370.77,-234.09 1368.64,-160.19 1365.2,-124.22"/>
<polygon fill="#63b8ff" stroke="#63b8ff" points="1306.32,-310.45 1299.68,-318.71 1310.02,-316.4 1306.32,-310.45"/>
</a>
</g>
</g>
<!-- Node19&#45;&gt;Node9 -->
<g id="edge37_Node000019_Node000009" class="edge">
<title>Node19&#45;&gt;Node9</title>
<g id="a_edge37_Node000019_Node000009"><a xlink:title=" ">
<path fill="none" stroke="#63b8ff" d="M1269.46,-309.85C1274.29,-301.8 1278.75,-292.89 1281.5,-284 1297.81,-231.33 1304.25,-211.85 1285.5,-160 1268.14,-111.99 1225.8,-68.95 1197.89,-44.43"/>
<polygon fill="#63b8ff" stroke="#63b8ff" points="1266.53,-307.94 1264.06,-318.24 1272.41,-311.72 1266.53,-307.94"/>
</a>
</g>
</g>
<!-- Node19&#45;&gt;Node14 -->
<g id="edge35_Node000019_Node000014" class="edge">
<title>Node19&#45;&gt;Node14</title>
<g id="a_edge35_Node000019_Node000014"><a xlink:title=" ">
<path fill="none" stroke="#63b8ff" d="M1226.77,-310.22C1221.2,-301.54 1215.27,-292.28 1210.15,-284.29"/>
<polygon fill="#63b8ff" stroke="#63b8ff" points="1223.68,-311.88 1232.02,-318.41 1229.57,-308.1 1223.68,-311.88"/>
</a>
</g>
</g>
<!-- Node20&#45;&gt;Node6 -->
<g id="edge41_Node000020_Node000006" class="edge">
<title>Node20&#45;&gt;Node6</title>
<g id="a_edge41_Node000020_Node000006"><a xlink:title=" ">
<path fill="none" stroke="#63b8ff" d="M712.87,-310.26C689.74,-273.28 659.43,-209.95 683.5,-160 709.52,-106.01 768.32,-66.71 809.9,-44.39"/>
<polygon fill="#63b8ff" stroke="#63b8ff" points="709.66,-311.74 718.03,-318.24 715.54,-307.94 709.66,-311.74"/>
</a>
</g>
</g>
<!-- Node20&#45;&gt;Node12 -->
<g id="edge42_Node000020_Node000012" class="edge">
<title>Node20&#45;&gt;Node12</title>
<g id="a_edge42_Node000020_Node000012"><a xlink:title=" ">
<path fill="none" stroke="#63b8ff" d="M678.87,-313.4C667.56,-305.38 656.88,-295.59 649.5,-284 617.57,-233.84 617.35,-160.38 619.55,-124.43"/>
<polygon fill="#63b8ff" stroke="#63b8ff" points="676.92,-316.31 687.2,-318.89 680.77,-310.47 676.92,-316.31"/>
</a>
</g>
</g>
<!-- Node20&#45;&gt;Node15 -->
<g id="edge40_Node000020_Node000015" class="edge">
<title>Node20&#45;&gt;Node15</title>
<g id="a_edge40_Node000020_Node000015"><a xlink:title=" ">
<path fill="none" stroke="#63b8ff" d="M821.75,-332.98C907.47,-323.93 1031.35,-307.36 1073.5,-284 1096.36,-271.33 1093.64,-258.09 1112.5,-240 1125.51,-227.53 1140.95,-214.76 1154.02,-204.47"/>
<polygon fill="#63b8ff" stroke="#63b8ff" points="821.53,-329.49 811.95,-334 822.26,-336.45 821.53,-329.49"/>
</a>
</g>
</g>
<!-- Node20&#45;&gt;Node16 -->
<g id="edge39_Node000020_Node000016" class="edge">
<title>Node20&#45;&gt;Node16</title>
<g id="a_edge39_Node000020_Node000016"><a xlink:title=" ">
<path fill="none" stroke="#63b8ff" d="M813.11,-316.18C845.5,-305.95 882.67,-294.21 913.83,-284.37"/>
<polygon fill="#63b8ff" stroke="#63b8ff" points="812.25,-312.78 803.76,-319.13 814.35,-319.45 812.25,-312.78"/>
</a>
</g>
</g>
<!-- Node21 -->
<g id="Node000021" class="node">
<title>Node21</title>
<g id="a_Node000021"><a xlink:href="_utils_8cpp.html" target="_top" xlink:title=" ">
<polygon fill="white" stroke="#666666" points="881,-284 730,-284 730,-240 881,-240 881,-284"/>
<text text-anchor="start" x="738" y="-270.5" font-family="Helvetica,sans-Serif" font-size="10.00">C:/Users/emilly/Documents</text>
<text text-anchor="start" x="738" y="-258.5" font-family="Helvetica,sans-Serif" font-size="10.00">/Lucca/Projetos/Cpp/NikiScript</text>
<text text-anchor="middle" x="805.5" y="-246.5" font-family="Helvetica,sans-Serif" font-size="10.00">/src/Utils.cpp</text>
</a>
</g>
</g>
<!-- Node20&#45;&gt;Node21 -->
<g id="edge43_Node000020_Node000021" class="edge">
<title>Node20&#45;&gt;Node21</title>
<g id="a_edge43_Node000020_Node000021"><a xlink:title=" ">
<path fill="none" stroke="#63b8ff" d="M761.5,-311.34C769.7,-302.33 778.53,-292.63 786.12,-284.29"/>
<polygon fill="#63b8ff" stroke="#63b8ff" points="759.06,-308.82 754.92,-318.57 764.24,-313.53 759.06,-308.82"/>
</a>
</g>
</g>
</g>
</svg>
