<?xml version="1.0" encoding="UTF-8" standalone="no"?>
<!DOCTYPE svg PUBLIC "-//W3C//DTD SVG 1.1//EN"
 "http://www.w3.org/Graphics/SVG/1.1/DTD/svg11.dtd">
<!-- Generated by graphviz version 12.2.1 (20241206.2353)
 -->
<!-- Title: C:/Users/emilly/Documents/Lucca/Projetos/Cpp/NikiScript/include/NikiScript/DLL.h Pages: 1 -->
<svg width="1478pt" height="452pt"
 viewBox="0.00 0.00 1478.00 452.00" xmlns="http://www.w3.org/2000/svg" xmlns:xlink="http://www.w3.org/1999/xlink">
<g id="graph0" class="graph" transform="scale(1 1) rotate(0) translate(4 448)">
<title>C:/Users/emilly/Documents/Lucca/Projetos/Cpp/NikiScript/include/NikiScript/DLL.h</title>
<!-- Node1 -->
<g id="Node000001" class="node">
<title>Node1</title>
<g id="a_Node000001"><a xlink:title=" ">
<polygon fill="#999999" stroke="#666666" points="675,-444 524,-444 524,-400 675,-400 675,-444"/>
<text text-anchor="start" x="532" y="-430.5" font-family="Helvetica,sans-Serif" font-size="10.00">C:/Users/emilly/Documents</text>
<text text-anchor="start" x="532" y="-418.5" font-family="Helvetica,sans-Serif" font-size="10.00">/Lucca/Projetos/Cpp/NikiScript</text>
<text text-anchor="middle" x="599.5" y="-406.5" font-family="Helvetica,sans-Serif" font-size="10.00">/include/NikiScript/DLL.h</text>
</a>
</g>
</g>
<!-- Node2 -->
<g id="Node000002" class="node">
<title>Node2</title>
<g id="a_Node000002"><a xlink:href="_command_8h.html" target="_top" xlink:title=" ">
<polygon fill="white" stroke="#666666" points="552.38,-364 400.62,-364 400.62,-320 552.38,-320 552.38,-364"/>
<text text-anchor="start" x="408.62" y="-350.5" font-family="Helvetica,sans-Serif" font-size="10.00">C:/Users/emilly/Documents</text>
<text text-anchor="start" x="408.62" y="-338.5" font-family="Helvetica,sans-Serif" font-size="10.00">/Lucca/Projetos/Cpp/NikiScript</text>
<text text-anchor="middle" x="476.5" y="-326.5" font-family="Helvetica,sans-Serif" font-size="10.00">/include/NikiScript/Command.h</text>
</a>
</g>
</g>
<!-- Node1&#45;&gt;Node2 -->
<g id="edge1_Node000001_Node000002" class="edge">
<title>Node1&#45;&gt;Node2</title>
<g id="a_edge1_Node000001_Node000002"><a xlink:title=" ">
<path fill="none" stroke="#63b8ff" d="M556.21,-393.55C541.07,-383.95 524.3,-373.31 510.07,-364.29"/>
<polygon fill="#63b8ff" stroke="#63b8ff" points="554.29,-396.48 564.61,-398.88 558.04,-390.56 554.29,-396.48"/>
</a>
</g>
</g>
<!-- Node3 -->
<g id="Node000003" class="node">
<title>Node3</title>
<g id="a_Node000003"><a xlink:href="_command_handler_8h.html" target="_top" xlink:title=" ">
<polygon fill="white" stroke="#666666" points="344.25,-284 158.75,-284 158.75,-240 344.25,-240 344.25,-284"/>
<text text-anchor="start" x="166.75" y="-270.5" font-family="Helvetica,sans-Serif" font-size="10.00">C:/Users/emilly/Documents</text>
<text text-anchor="start" x="166.75" y="-258.5" font-family="Helvetica,sans-Serif" font-size="10.00">/Lucca/Projetos/Cpp/NikiScript</text>
<text text-anchor="middle" x="251.5" y="-246.5" font-family="Helvetica,sans-Serif" font-size="10.00">/include/NikiScript/CommandHandler.h</text>
</a>
</g>
</g>
<!-- Node1&#45;&gt;Node3 -->
<g id="edge17_Node000001_Node000003" class="edge">
<title>Node1&#45;&gt;Node3</title>
<g id="a_edge17_Node000001_Node000003"><a xlink:title=" ">
<path fill="none" stroke="#63b8ff" d="M512.43,-411.61C464.79,-403.79 405.98,-389.59 358.5,-364 321.17,-343.88 287.26,-307.38 268.04,-284.21"/>
<polygon fill="#63b8ff" stroke="#63b8ff" points="511.75,-415.05 522.17,-413.14 512.83,-408.13 511.75,-415.05"/>
</a>
</g>
</g>
<!-- Node4 -->
<g id="Node000004" class="node">
<title>Node4</title>
<g id="a_Node000004"><a xlink:href="_context_8h.html" target="_top" xlink:title=" ">
<polygon fill="white" stroke="#666666" points="486,-204 335,-204 335,-160 486,-160 486,-204"/>
<text text-anchor="start" x="343" y="-190.5" font-family="Helvetica,sans-Serif" font-size="10.00">C:/Users/emilly/Documents</text>
<text text-anchor="start" x="343" y="-178.5" font-family="Helvetica,sans-Serif" font-size="10.00">/Lucca/Projetos/Cpp/NikiScript</text>
<text text-anchor="middle" x="410.5" y="-166.5" font-family="Helvetica,sans-Serif" font-size="10.00">/include/NikiScript/Context.h</text>
</a>
</g>
</g>
<!-- Node1&#45;&gt;Node4 -->
<g id="edge18_Node000001_Node000004" class="edge">
<title>Node1&#45;&gt;Node4</title>
<g id="a_edge18_Node000001_Node000004"><a xlink:title=" ">
<path fill="none" stroke="#63b8ff" d="M512.51,-407.97C462.5,-398.5 406.65,-383.86 391.5,-364 355.38,-316.65 382.75,-240.89 399.7,-204.24"/>
<polygon fill="#63b8ff" stroke="#63b8ff" points="511.78,-411.39 522.25,-409.75 513.05,-404.51 511.78,-411.39"/>
</a>
</g>
</g>
<!-- Node5 -->
<g id="Node000005" class="node">
<title>Node5</title>
<g id="a_Node000005"><a xlink:href="_niki_script_8h.html" target="_top" xlink:title=" ">
<polygon fill="white" stroke="#666666" points="151,-124 0,-124 0,-80 151,-80 151,-124"/>
<text text-anchor="start" x="8" y="-110.5" font-family="Helvetica,sans-Serif" font-size="10.00">C:/Users/emilly/Documents</text>
<text text-anchor="start" x="8" y="-98.5" font-family="Helvetica,sans-Serif" font-size="10.00">/Lucca/Projetos/Cpp/NikiScript</text>
<text text-anchor="middle" x="75.5" y="-86.5" font-family="Helvetica,sans-Serif" font-size="10.00">/include/NikiScript/NikiScript.h</text>
</a>
</g>
</g>
<!-- Node1&#45;&gt;Node5 -->
<g id="edge23_Node000001_Node000005" class="edge">
<title>Node1&#45;&gt;Node5</title>
<g id="a_edge23_Node000001_Node000005"><a xlink:title=" ">
<path fill="none" stroke="#63b8ff" d="M512.46,-419.96C410.03,-413.78 242.19,-387.23 149.5,-284 106.86,-236.51 86.94,-161.16 79.36,-124.48"/>
<polygon fill="#63b8ff" stroke="#63b8ff" points="512.01,-423.45 522.18,-420.49 512.39,-416.46 512.01,-423.45"/>
</a>
</g>
</g>
<!-- Node7 -->
<g id="Node000007" class="node">
<title>Node7</title>
<g id="a_Node000007"><a xlink:href="_parser_8h.html" target="_top" xlink:title=" ">
<polygon fill="white" stroke="#666666" points="1348,-124 1197,-124 1197,-80 1348,-80 1348,-124"/>
<text text-anchor="start" x="1205" y="-110.5" font-family="Helvetica,sans-Serif" font-size="10.00">C:/Users/emilly/Documents</text>
<text text-anchor="start" x="1205" y="-98.5" font-family="Helvetica,sans-Serif" font-size="10.00">/Lucca/Projetos/Cpp/NikiScript</text>
<text text-anchor="middle" x="1272.5" y="-86.5" font-family="Helvetica,sans-Serif" font-size="10.00">/include/NikiScript/Parser.h</text>
</a>
</g>
</g>
<!-- Node1&#45;&gt;Node7 -->
<g id="edge24_Node000001_Node000007" class="edge">
<title>Node1&#45;&gt;Node7</title>
<g id="a_edge24_Node000001_Node000007"><a xlink:title=" ">
<path fill="none" stroke="#63b8ff" d="M686.83,-418.48C860.86,-411.32 1240.41,-384.29 1312.5,-284 1347.72,-235 1309.89,-160.68 1287.12,-124.42"/>
<polygon fill="#63b8ff" stroke="#63b8ff" points="686.78,-414.98 676.93,-418.87 687.06,-421.97 686.78,-414.98"/>
</a>
</g>
</g>
<!-- Node14 -->
<g id="Node000014" class="node">
<title>Node14</title>
<g id="a_Node000014"><a xlink:href="_lexer_8h.html" target="_top" xlink:title=" ">
<polygon fill="white" stroke="#666666" points="786,-284 635,-284 635,-240 786,-240 786,-284"/>
<text text-anchor="start" x="643" y="-270.5" font-family="Helvetica,sans-Serif" font-size="10.00">C:/Users/emilly/Documents</text>
<text text-anchor="start" x="643" y="-258.5" font-family="Helvetica,sans-Serif" font-size="10.00">/Lucca/Projetos/Cpp/NikiScript</text>
<text text-anchor="middle" x="710.5" y="-246.5" font-family="Helvetica,sans-Serif" font-size="10.00">/include/NikiScript/Lexer.h</text>
</a>
</g>
</g>
<!-- Node1&#45;&gt;Node14 -->
<g id="edge19_Node000001_Node000014" class="edge">
<title>Node1&#45;&gt;Node14</title>
<g id="a_edge19_Node000001_Node000014"><a xlink:title=" ">
<path fill="none" stroke="#63b8ff" d="M607.2,-388.72C613.3,-367.74 623.36,-340.56 638.5,-320 648.62,-306.26 662.85,-294.05 676,-284.49"/>
<polygon fill="#63b8ff" stroke="#63b8ff" points="603.87,-387.63 604.61,-398.2 610.62,-389.48 603.87,-387.63"/>
</a>
</g>
</g>
<!-- Node16 -->
<g id="Node000016" class="node">
<title>Node16</title>
<g id="a_Node000016"><a xlink:href="_print_callback_8h.html" target="_top" xlink:title=" ">
<polygon fill="white" stroke="#666666" points="1303.12,-284 1137.88,-284 1137.88,-240 1303.12,-240 1303.12,-284"/>
<text text-anchor="start" x="1145.88" y="-270.5" font-family="Helvetica,sans-Serif" font-size="10.00">C:/Users/emilly/Documents</text>
<text text-anchor="start" x="1145.88" y="-258.5" font-family="Helvetica,sans-Serif" font-size="10.00">/Lucca/Projetos/Cpp/NikiScript</text>
<text text-anchor="middle" x="1220.5" y="-246.5" font-family="Helvetica,sans-Serif" font-size="10.00">/include/NikiScript/PrintCallback.h</text>
</a>
</g>
</g>
<!-- Node1&#45;&gt;Node16 -->
<g id="edge25_Node000001_Node000016" class="edge">
<title>Node1&#45;&gt;Node16</title>
<g id="a_edge25_Node000001_Node000016"><a xlink:title=" ">
<path fill="none" stroke="#63b8ff" d="M686.69,-416.41C770.22,-410.24 899.09,-396.06 1006.5,-364 1071.85,-344.5 1142.43,-307.82 1183.98,-284.44"/>
<polygon fill="#63b8ff" stroke="#63b8ff" points="686.45,-412.92 676.72,-417.12 686.95,-419.9 686.45,-412.92"/>
</a>
</g>
</g>
<!-- Node18 -->
<g id="Node000018" class="node">
<title>Node18</title>
<g id="a_Node000018"><a xlink:href="_program_variable_8h.html" target="_top" xlink:title=" ">
<polygon fill="white" stroke="#666666" points="616.5,-284 438.5,-284 438.5,-240 616.5,-240 616.5,-284"/>
<text text-anchor="start" x="446.5" y="-270.5" font-family="Helvetica,sans-Serif" font-size="10.00">C:/Users/emilly/Documents</text>
<text text-anchor="start" x="446.5" y="-258.5" font-family="Helvetica,sans-Serif" font-size="10.00">/Lucca/Projetos/Cpp/NikiScript</text>
<text text-anchor="middle" x="527.5" y="-246.5" font-family="Helvetica,sans-Serif" font-size="10.00">/include/NikiScript/ProgramVariable.h</text>
</a>
</g>
</g>
<!-- Node1&#45;&gt;Node18 -->
<g id="edge31_Node000001_Node000018" class="edge">
<title>Node1&#45;&gt;Node18</title>
<g id="a_edge31_Node000001_Node000018"><a xlink:title=" ">
<path fill="none" stroke="#63b8ff" d="M589.05,-388.87C582.1,-368.71 572.29,-342.4 561.5,-320 555.65,-307.85 548.05,-294.9 541.51,-284.42"/>
<polygon fill="#63b8ff" stroke="#63b8ff" points="585.7,-389.87 592.22,-398.22 592.33,-387.63 585.7,-389.87"/>
</a>
</g>
</g>
<!-- Node19 -->
<g id="Node000019" class="node">
<title>Node19</title>
<g id="a_Node000019"><a xlink:href="_token_8h.html" target="_top" xlink:title=" ">
<polygon fill="white" stroke="#666666" points="798,-364 647,-364 647,-320 798,-320 798,-364"/>
<text text-anchor="start" x="655" y="-350.5" font-family="Helvetica,sans-Serif" font-size="10.00">C:/Users/emilly/Documents</text>
<text text-anchor="start" x="655" y="-338.5" font-family="Helvetica,sans-Serif" font-size="10.00">/Lucca/Projetos/Cpp/NikiScript</text>
<text text-anchor="middle" x="722.5" y="-326.5" font-family="Helvetica,sans-Serif" font-size="10.00">/include/NikiScript/Token.h</text>
</a>
</g>
</g>
<!-- Node1&#45;&gt;Node19 -->
<g id="edge34_Node000001_Node000019" class="edge">
<title>Node1&#45;&gt;Node19</title>
<g id="a_edge34_Node000001_Node000019"><a xlink:title=" ">
<path fill="none" stroke="#63b8ff" d="M642.79,-393.55C657.93,-383.95 674.7,-373.31 688.93,-364.29"/>
<polygon fill="#63b8ff" stroke="#63b8ff" points="640.96,-390.56 634.39,-398.88 644.71,-396.48 640.96,-390.56"/>
</a>
</g>
</g>
<!-- Node20 -->
<g id="Node000020" class="node">
<title>Node20</title>
<g id="a_Node000020"><a xlink:href="_utils_8h.html" target="_top" xlink:title=" ">
<polygon fill="white" stroke="#666666" points="997,-364 846,-364 846,-320 997,-320 997,-364"/>
<text text-anchor="start" x="854" y="-350.5" font-family="Helvetica,sans-Serif" font-size="10.00">C:/Users/emilly/Documents</text>
<text text-anchor="start" x="854" y="-338.5" font-family="Helvetica,sans-Serif" font-size="10.00">/Lucca/Projetos/Cpp/NikiScript</text>
<text text-anchor="middle" x="921.5" y="-326.5" font-family="Helvetica,sans-Serif" font-size="10.00">/include/NikiScript/Utils.h</text>
</a>
</g>
</g>
<!-- Node1&#45;&gt;Node20 -->
<g id="edge37_Node000001_Node000020" class="edge">
<title>Node1&#45;&gt;Node20</title>
<g id="a_edge37_Node000001_Node000020"><a xlink:title=" ">
<path fill="none" stroke="#63b8ff" d="M686.46,-399.94C736.13,-387.9 797.83,-372.96 845.55,-361.4"/>
<polygon fill="#63b8ff" stroke="#63b8ff" points="685.77,-396.5 676.87,-402.26 687.42,-403.3 685.77,-396.5"/>
</a>
</g>
</g>
<!-- Node2&#45;&gt;Node3 -->
<g id="edge2_Node000002_Node000003" class="edge">
<title>Node2&#45;&gt;Node3</title>
<g id="a_edge2_Node000002_Node000003"><a xlink:title=" ">
<path fill="none" stroke="#63b8ff" d="M404.12,-315.91C374.79,-305.74 341.28,-294.12 313.14,-284.37"/>
<polygon fill="#63b8ff" stroke="#63b8ff" points="402.7,-319.12 413.29,-319.09 404.99,-312.5 402.7,-319.12"/>
</a>
</g>
</g>
<!-- Node2&#45;&gt;Node4 -->
<g id="edge15_Node000002_Node000004" class="edge">
<title>Node2&#45;&gt;Node4</title>
<g id="a_edge15_Node000002_Node000004"><a xlink:title=" ">
<path fill="none" stroke="#63b8ff" d="M446.9,-310.81C440.28,-302.66 433.92,-293.45 429.5,-284 417.47,-258.31 413.06,-225.57 411.44,-204.45"/>
<polygon fill="#63b8ff" stroke="#63b8ff" points="444.24,-313.08 453.41,-318.39 449.55,-308.52 444.24,-313.08"/>
</a>
</g>
</g>
<!-- Node13 -->
<g id="Node000013" class="node">
<title>Node13</title>
<g id="a_Node000013"><a xlink:href="_command_8cpp.html" target="_top" xlink:title=" ">
<polygon fill="white" stroke="#666666" points="901,-204 750,-204 750,-160 901,-160 901,-204"/>
<text text-anchor="start" x="758" y="-190.5" font-family="Helvetica,sans-Serif" font-size="10.00">C:/Users/emilly/Documents</text>
<text text-anchor="start" x="758" y="-178.5" font-family="Helvetica,sans-Serif" font-size="10.00">/Lucca/Projetos/Cpp/NikiScript</text>
<text text-anchor="middle" x="825.5" y="-166.5" font-family="Helvetica,sans-Serif" font-size="10.00">/src/Command.cpp</text>
</a>
</g>
</g>
<!-- Node2&#45;&gt;Node13 -->
<g id="edge16_Node000002_Node000013" class="edge">
<title>Node2&#45;&gt;Node13</title>
<g id="a_edge16_Node000002_Node000013"><a xlink:title=" ">
<path fill="none" stroke="#63b8ff" d="M564.11,-330.12C652.5,-318.4 778.32,-299.36 795.5,-284 818.14,-263.76 824.03,-227.3 825.38,-204.17"/>
<polygon fill="#63b8ff" stroke="#63b8ff" points="563.68,-326.65 554.22,-331.42 564.59,-333.59 563.68,-326.65"/>
</a>
</g>
</g>
<!-- Node3&#45;&gt;Node4 -->
<g id="edge3_Node000003_Node000004" class="edge">
<title>Node3&#45;&gt;Node4</title>
<g id="a_edge3_Node000003_Node000004"><a xlink:title=" ">
<path fill="none" stroke="#63b8ff" d="M305.18,-234.66C325.25,-224.82 347.78,-213.77 366.83,-204.42"/>
<polygon fill="#63b8ff" stroke="#63b8ff" points="303.74,-231.47 296.31,-239.02 306.83,-237.76 303.74,-231.47"/>
</a>
</g>
</g>
<!-- Node10 -->
<g id="Node000010" class="node">
<title>Node10</title>
<g id="a_Node000010"><a xlink:href="_command_handler_8cpp.html" target="_top" xlink:title=" ">
<polygon fill="white" stroke="#666666" points="320,-124 169,-124 169,-80 320,-80 320,-124"/>
<text text-anchor="start" x="177" y="-110.5" font-family="Helvetica,sans-Serif" font-size="10.00">C:/Users/emilly/Documents</text>
<text text-anchor="start" x="177" y="-98.5" font-family="Helvetica,sans-Serif" font-size="10.00">/Lucca/Projetos/Cpp/NikiScript</text>
<text text-anchor="middle" x="244.5" y="-86.5" font-family="Helvetica,sans-Serif" font-size="10.00">/src/CommandHandler.cpp</text>
</a>
</g>
</g>
<!-- Node3&#45;&gt;Node10 -->
<g id="edge14_Node000003_Node000010" class="edge">
<title>Node3&#45;&gt;Node10</title>
<g id="a_edge14_Node000003_Node000010"><a xlink:title=" ">
<path fill="none" stroke="#63b8ff" d="M250.06,-228.57C248.68,-197.43 246.64,-151.3 245.45,-124.48"/>
<polygon fill="#63b8ff" stroke="#63b8ff" points="246.55,-228.34 250.49,-238.18 253.54,-228.03 246.55,-228.34"/>
</a>
</g>
</g>
<!-- Node4&#45;&gt;Node5 -->
<g id="edge4_Node000004_Node000005" class="edge">
<title>Node4&#45;&gt;Node5</title>
<g id="a_edge4_Node000004_Node000005"><a xlink:title=" ">
<path fill="none" stroke="#63b8ff" d="M323.55,-161.74C275.19,-150.91 213.94,-136.98 159.5,-124 156.87,-123.37 154.19,-122.73 151.49,-122.08"/>
<polygon fill="#63b8ff" stroke="#63b8ff" points="322.61,-165.12 333.14,-163.89 324.14,-158.29 322.61,-165.12"/>
</a>
</g>
</g>
<!-- Node4&#45;&gt;Node7 -->
<g id="edge6_Node000004_Node000007" class="edge">
<title>Node4&#45;&gt;Node7</title>
<g id="a_edge6_Node000004_Node000007"><a xlink:title=" ">
<path fill="none" stroke="#63b8ff" d="M497.57,-168.94C521.8,-165.79 548.15,-162.57 572.5,-160 799.1,-136.1 1067.88,-116.72 1196.51,-108"/>
<polygon fill="#63b8ff" stroke="#63b8ff" points="497.2,-165.46 487.74,-170.23 498.11,-172.4 497.2,-165.46"/>
</a>
</g>
</g>
<!-- Node9 -->
<g id="Node000009" class="node">
<title>Node9</title>
<g id="a_Node000009"><a xlink:href="_token_8cpp.html" target="_top" xlink:title=" ">
<polygon fill="white" stroke="#666666" points="1263,-44 1112,-44 1112,0 1263,0 1263,-44"/>
<text text-anchor="start" x="1120" y="-30.5" font-family="Helvetica,sans-Serif" font-size="10.00">C:/Users/emilly/Documents</text>
<text text-anchor="start" x="1120" y="-18.5" font-family="Helvetica,sans-Serif" font-size="10.00">/Lucca/Projetos/Cpp/NikiScript</text>
<text text-anchor="middle" x="1187.5" y="-6.5" font-family="Helvetica,sans-Serif" font-size="10.00">/src/Token.cpp</text>
</a>
</g>
</g>
<!-- Node4&#45;&gt;Node9 -->
<g id="edge13_Node000004_Node000009" class="edge">
<title>Node4&#45;&gt;Node9</title>
<g id="a_edge13_Node000004_Node000009"><a xlink:title=" ">
<path fill="none" stroke="#63b8ff" d="M458.16,-153.46C471.73,-144.74 486.17,-134.6 498.5,-124 518.31,-106.96 514.16,-91.75 537.5,-80 543.86,-76.8 941.43,-43.44 1111.58,-29.29"/>
<polygon fill="#63b8ff" stroke="#63b8ff" points="456.36,-150.45 449.75,-158.73 460.08,-156.38 456.36,-150.45"/>
</a>
</g>
</g>
<!-- Node4&#45;&gt;Node10 -->
<g id="edge10_Node000004_Node000010" class="edge">
<title>Node4&#45;&gt;Node10</title>
<g id="a_edge10_Node000004_Node000010"><a xlink:title=" ">
<path fill="none" stroke="#63b8ff" d="M354.74,-154.8C333.72,-144.92 310.08,-133.81 290.09,-124.42"/>
<polygon fill="#63b8ff" stroke="#63b8ff" points="353.23,-157.96 363.77,-159.04 356.21,-151.62 353.23,-157.96"/>
</a>
</g>
</g>
<!-- Node11 -->
<g id="Node000011" class="node">
<title>Node11</title>
<g id="a_Node000011"><a xlink:href="_context_8cpp.html" target="_top" xlink:title=" ">
<polygon fill="white" stroke="#666666" points="489,-124 338,-124 338,-80 489,-80 489,-124"/>
<text text-anchor="start" x="346" y="-110.5" font-family="Helvetica,sans-Serif" font-size="10.00">C:/Users/emilly/Documents</text>
<text text-anchor="start" x="346" y="-98.5" font-family="Helvetica,sans-Serif" font-size="10.00">/Lucca/Projetos/Cpp/NikiScript</text>
<text text-anchor="middle" x="413.5" y="-86.5" font-family="Helvetica,sans-Serif" font-size="10.00">/src/Context.cpp</text>
</a>
</g>
</g>
<!-- Node4&#45;&gt;Node11 -->
<g id="edge11_Node000004_Node000011" class="edge">
<title>Node4&#45;&gt;Node11</title>
<g id="a_edge11_Node000004_Node000011"><a xlink:title=" ">
<path fill="none" stroke="#63b8ff" d="M411.76,-148.25C412.07,-140.15 412.4,-131.68 412.68,-124.29"/>
<polygon fill="#63b8ff" stroke="#63b8ff" points="408.26,-148.05 411.38,-158.17 415.26,-148.32 408.26,-148.05"/>
</a>
</g>
</g>
<!-- Node12 -->
<g id="Node000012" class="node">
<title>Node12</title>
<g id="a_Node000012"><a xlink:href="_program_variable_8cpp.html" target="_top" xlink:title=" ">
<polygon fill="white" stroke="#666666" points="697,-124 546,-124 546,-80 697,-80 697,-124"/>
<text text-anchor="start" x="554" y="-110.5" font-family="Helvetica,sans-Serif" font-size="10.00">C:/Users/emilly/Documents</text>
<text text-anchor="start" x="554" y="-98.5" font-family="Helvetica,sans-Serif" font-size="10.00">/Lucca/Projetos/Cpp/NikiScript</text>
<text text-anchor="middle" x="621.5" y="-86.5" font-family="Helvetica,sans-Serif" font-size="10.00">/src/ProgramVariable.cpp</text>
</a>
</g>
</g>
<!-- Node4&#45;&gt;Node12 -->
<g id="edge12_Node000004_Node000012" class="edge">
<title>Node4&#45;&gt;Node12</title>
<g id="a_edge12_Node000004_Node000012"><a xlink:title=" ">
<path fill="none" stroke="#63b8ff" d="M479.1,-155.64C506.43,-145.54 537.54,-134.04 563.69,-124.37"/>
<polygon fill="#63b8ff" stroke="#63b8ff" points="478.02,-152.31 469.86,-159.06 480.45,-158.87 478.02,-152.31"/>
</a>
</g>
</g>
<!-- Node6 -->
<g id="Node000006" class="node">
<title>Node6</title>
<g id="a_Node000006"><a xlink:href="_niki_script_8cpp.html" target="_top" xlink:title=" ">
<polygon fill="white" stroke="#666666" points="926,-44 775,-44 775,0 926,0 926,-44"/>
<text text-anchor="start" x="783" y="-30.5" font-family="Helvetica,sans-Serif" font-size="10.00">C:/Users/emilly/Documents</text>
<text text-anchor="start" x="783" y="-18.5" font-family="Helvetica,sans-Serif" font-size="10.00">/Lucca/Projetos/Cpp/NikiScript</text>
<text text-anchor="middle" x="850.5" y="-6.5" font-family="Helvetica,sans-Serif" font-size="10.00">/src/NikiScript.cpp</text>
</a>
</g>
</g>
<!-- Node5&#45;&gt;Node6 -->
<g id="edge5_Node000005_Node000006" class="edge">
<title>Node5&#45;&gt;Node6</title>
<g id="a_edge5_Node000005_Node000006"><a xlink:title=" ">
<path fill="none" stroke="#63b8ff" d="M162.52,-79.62C389.67,-42.97 648.92,-29.8 774.6,-25.23"/>
<polygon fill="#63b8ff" stroke="#63b8ff" points="162.19,-76.13 152.88,-81.2 163.32,-83.04 162.19,-76.13"/>
</a>
</g>
</g>
<!-- Node7&#45;&gt;Node6 -->
<g id="edge7_Node000007_Node000006" class="edge">
<title>Node7&#45;&gt;Node6</title>
<g id="a_edge7_Node000007_Node000006"><a xlink:title=" ">
<path fill="none" stroke="#63b8ff" d="M1185.54,-84.93C1109.12,-70.8 999.03,-50.45 926.18,-36.99"/>
<polygon fill="#63b8ff" stroke="#63b8ff" points="1184.61,-88.31 1195.08,-86.69 1185.88,-81.43 1184.61,-88.31"/>
</a>
</g>
</g>
<!-- Node8 -->
<g id="Node000008" class="node">
<title>Node8</title>
<g id="a_Node000008"><a xlink:href="_parser_8cpp.html" target="_top" xlink:title=" ">
<polygon fill="white" stroke="#666666" points="1470,-44 1319,-44 1319,0 1470,0 1470,-44"/>
<text text-anchor="start" x="1327" y="-30.5" font-family="Helvetica,sans-Serif" font-size="10.00">C:/Users/emilly/Documents</text>
<text text-anchor="start" x="1327" y="-18.5" font-family="Helvetica,sans-Serif" font-size="10.00">/Lucca/Projetos/Cpp/NikiScript</text>
<text text-anchor="middle" x="1394.5" y="-6.5" font-family="Helvetica,sans-Serif" font-size="10.00">/src/Parser.cpp</text>
</a>
</g>
</g>
<!-- Node7&#45;&gt;Node8 -->
<g id="edge8_Node000007_Node000008" class="edge">
<title>Node7&#45;&gt;Node8</title>
<g id="a_edge8_Node000007_Node000008"><a xlink:title=" ">
<path fill="none" stroke="#63b8ff" d="M1315.43,-73.55C1330.46,-63.95 1347.09,-53.31 1361.2,-44.29"/>
<polygon fill="#63b8ff" stroke="#63b8ff" points="1313.65,-70.54 1307.11,-78.87 1317.42,-76.43 1313.65,-70.54"/>
</a>
</g>
</g>
<!-- Node7&#45;&gt;Node9 -->
<g id="edge9_Node000007_Node000009" class="edge">
<title>Node7&#45;&gt;Node9</title>
<g id="a_edge9_Node000007_Node000009"><a xlink:title=" ">
<path fill="none" stroke="#63b8ff" d="M1241.08,-72.17C1231.02,-62.94 1220.07,-52.88 1210.7,-44.29"/>
<polygon fill="#63b8ff" stroke="#63b8ff" points="1238.42,-74.48 1248.16,-78.66 1243.16,-69.32 1238.42,-74.48"/>
</a>
</g>
</g>
<!-- Node14&#45;&gt;Node4 -->
<g id="edge20_Node000014_Node000004" class="edge">
<title>Node14&#45;&gt;Node4</title>
<g id="a_edge20_Node000014_Node000004"><a xlink:title=" ">
<path fill="none" stroke="#63b8ff" d="M623.67,-238.42C580.27,-227.14 528.23,-213.61 486.44,-202.74"/>
<polygon fill="#63b8ff" stroke="#63b8ff" points="622.77,-241.81 633.33,-240.94 624.54,-235.03 622.77,-241.81"/>
</a>
</g>
</g>
<!-- Node14&#45;&gt;Node6 -->
<g id="edge22_Node000014_Node000006" class="edge">
<title>Node14&#45;&gt;Node6</title>
<g id="a_edge22_Node000014_Node000006"><a xlink:title=" ">
<path fill="none" stroke="#63b8ff" d="M628.38,-235.73C603.03,-226.16 579.82,-214.94 572.5,-204 561.63,-187.75 560.6,-175.52 572.5,-160 610.02,-111.06 650.63,-150.1 706.5,-124 752.15,-102.67 798.77,-66.88 826.15,-44.13"/>
<polygon fill="#63b8ff" stroke="#63b8ff" points="626.93,-238.92 637.52,-239.06 629.33,-232.35 626.93,-238.92"/>
</a>
</g>
</g>
<!-- Node15 -->
<g id="Node000015" class="node">
<title>Node15</title>
<g id="a_Node000015"><a xlink:href="_lexer_8cpp.html" target="_top" xlink:title=" ">
<polygon fill="white" stroke="#666666" points="732,-204 581,-204 581,-160 732,-160 732,-204"/>
<text text-anchor="start" x="589" y="-190.5" font-family="Helvetica,sans-Serif" font-size="10.00">C:/Users/emilly/Documents</text>
<text text-anchor="start" x="589" y="-178.5" font-family="Helvetica,sans-Serif" font-size="10.00">/Lucca/Projetos/Cpp/NikiScript</text>
<text text-anchor="middle" x="656.5" y="-166.5" font-family="Helvetica,sans-Serif" font-size="10.00">/src/Lexer.cpp</text>
</a>
</g>
</g>
<!-- Node14&#45;&gt;Node15 -->
<g id="edge21_Node000014_Node000015" class="edge">
<title>Node14&#45;&gt;Node15</title>
<g id="a_edge21_Node000014_Node000015"><a xlink:title=" ">
<path fill="none" stroke="#63b8ff" d="M689.19,-230.22C683.18,-221.54 676.77,-212.28 671.24,-204.29"/>
<polygon fill="#63b8ff" stroke="#63b8ff" points="686.31,-232.21 694.88,-238.44 692.07,-228.23 686.31,-232.21"/>
</a>
</g>
</g>
<!-- Node16&#45;&gt;Node4 -->
<g id="edge26_Node000016_Node000004" class="edge">
<title>Node16&#45;&gt;Node4</title>
<g id="a_edge26_Node000016_Node000004"><a xlink:title=" ">
<path fill="none" stroke="#63b8ff" d="M1126.39,-239.66C882.06,-204.71 815.68,-227.6 572.5,-204 544.27,-201.26 513.38,-197.46 486.21,-193.84"/>
<polygon fill="#63b8ff" stroke="#63b8ff" points="1125.88,-243.12 1136.28,-241.09 1126.89,-236.19 1125.88,-243.12"/>
</a>
</g>
</g>
<!-- Node16&#45;&gt;Node8 -->
<g id="edge28_Node000016_Node000008" class="edge">
<title>Node16&#45;&gt;Node8</title>
<g id="a_edge28_Node000016_Node000008"><a xlink:title=" ">
<path fill="none" stroke="#63b8ff" d="M1256.89,-232.41C1287.36,-206.83 1330.15,-166.83 1357.5,-124 1373.58,-98.82 1384.01,-65.66 1389.58,-44.33"/>
<polygon fill="#63b8ff" stroke="#63b8ff" points="1254.89,-229.52 1249.42,-238.59 1259.35,-234.92 1254.89,-229.52"/>
</a>
</g>
</g>
<!-- Node16&#45;&gt;Node9 -->
<g id="edge30_Node000016_Node000009" class="edge">
<title>Node16&#45;&gt;Node9</title>
<g id="a_edge30_Node000016_Node000009"><a xlink:title=" ">
<path fill="none" stroke="#63b8ff" d="M1210.91,-228.97C1203.18,-201.43 1192.89,-160.5 1188.5,-124 1185.21,-96.67 1185.58,-64.87 1186.36,-44.37"/>
<polygon fill="#63b8ff" stroke="#63b8ff" points="1207.51,-229.8 1213.63,-238.45 1214.24,-227.87 1207.51,-229.8"/>
</a>
</g>
</g>
<!-- Node16&#45;&gt;Node13 -->
<g id="edge27_Node000016_Node000013" class="edge">
<title>Node16&#45;&gt;Node13</title>
<g id="a_edge27_Node000016_Node000013"><a xlink:title=" ">
<path fill="none" stroke="#63b8ff" d="M1126.64,-239.44C1044.36,-222.39 960.22,-206.87 901.26,-196.3"/>
<polygon fill="#63b8ff" stroke="#63b8ff" points="1125.72,-242.82 1136.22,-241.43 1127.15,-235.97 1125.72,-242.82"/>
</a>
</g>
</g>
<!-- Node17 -->
<g id="Node000017" class="node">
<title>Node17</title>
<g id="a_Node000017"><a xlink:href="_print_callback_8cpp.html" target="_top" xlink:title=" ">
<polygon fill="white" stroke="#666666" points="1147,-204 996,-204 996,-160 1147,-160 1147,-204"/>
<text text-anchor="start" x="1004" y="-190.5" font-family="Helvetica,sans-Serif" font-size="10.00">C:/Users/emilly/Documents</text>
<text text-anchor="start" x="1004" y="-178.5" font-family="Helvetica,sans-Serif" font-size="10.00">/Lucca/Projetos/Cpp/NikiScript</text>
<text text-anchor="middle" x="1071.5" y="-166.5" font-family="Helvetica,sans-Serif" font-size="10.00">/src/PrintCallback.cpp</text>
</a>
</g>
</g>
<!-- Node16&#45;&gt;Node17 -->
<g id="edge29_Node000016_Node000017" class="edge">
<title>Node16&#45;&gt;Node17</title>
<g id="a_edge29_Node000016_Node000017"><a xlink:title=" ">
<path fill="none" stroke="#63b8ff" d="M1169.67,-234.39C1151,-224.62 1130.12,-213.68 1112.42,-204.42"/>
<polygon fill="#63b8ff" stroke="#63b8ff" points="1167.96,-237.45 1178.44,-238.98 1171.21,-231.25 1167.96,-237.45"/>
</a>
</g>
</g>
<!-- Node18&#45;&gt;Node4 -->
<g id="edge32_Node000018_Node000004" class="edge">
<title>Node18&#45;&gt;Node4</title>
<g id="a_edge32_Node000018_Node000004"><a xlink:title=" ">
<path fill="none" stroke="#63b8ff" d="M486.33,-233.55C471.92,-223.95 455.97,-213.31 442.43,-204.29"/>
<polygon fill="#63b8ff" stroke="#63b8ff" points="484.01,-236.21 494.27,-238.85 487.89,-230.39 484.01,-236.21"/>
</a>
</g>
</g>
<!-- Node18&#45;&gt;Node12 -->
<g id="edge33_Node000018_Node000012" class="edge">
<title>Node18&#45;&gt;Node12</title>
<g id="a_edge33_Node000018_Node000012"><a xlink:title=" ">
<path fill="none" stroke="#63b8ff" d="M524.36,-228.44C523.88,-207.49 526.26,-180.47 538.5,-160 547.38,-145.15 561.8,-133.26 576.16,-124.26"/>
<polygon fill="#63b8ff" stroke="#63b8ff" points="520.85,-228.33 524.83,-238.15 527.85,-228 520.85,-228.33"/>
</a>
</g>
</g>
<!-- Node19&#45;&gt;Node9 -->
<g id="edge36_Node000019_Node000009" class="edge">
<title>Node19&#45;&gt;Node9</title>
<g id="a_edge36_Node000019_Node000009"><a xlink:title=" ">
<path fill="none" stroke="#63b8ff" d="M809.76,-324.08C819.1,-322.56 828.48,-321.16 837.5,-320 890,-313.24 1271.55,-317.53 1312.5,-284 1384.34,-225.18 1411.72,-155.37 1357.5,-80 1345.82,-63.76 1303.03,-49.47 1263.31,-39.25"/>
<polygon fill="#63b8ff" stroke="#63b8ff" points="809.19,-320.62 799.9,-325.73 810.34,-327.53 809.19,-320.62"/>
</a>
</g>
</g>
<!-- Node19&#45;&gt;Node14 -->
<g id="edge35_Node000019_Node000014" class="edge">
<title>Node19&#45;&gt;Node14</title>
<g id="a_edge35_Node000019_Node000014"><a xlink:title=" ">
<path fill="none" stroke="#63b8ff" d="M717.51,-308.53C716.25,-300.35 714.93,-291.77 713.78,-284.29"/>
<polygon fill="#63b8ff" stroke="#63b8ff" points="714.01,-308.84 718.99,-318.19 720.93,-307.77 714.01,-308.84"/>
</a>
</g>
</g>
<!-- Node20&#45;&gt;Node6 -->
<g id="edge40_Node000020_Node000006" class="edge">
<title>Node20&#45;&gt;Node6</title>
<g id="a_edge40_Node000020_Node000006"><a xlink:title=" ">
<path fill="none" stroke="#63b8ff" d="M929.38,-308.62C936.94,-271.89 945.32,-210.54 931.5,-160 919.18,-114.96 887.83,-69.68 867.94,-44.11"/>
<polygon fill="#63b8ff" stroke="#63b8ff" points="926.01,-307.64 927.31,-318.16 932.86,-309.13 926.01,-307.64"/>
</a>
</g>
</g>
<!-- Node20&#45;&gt;Node12 -->
<g id="edge41_Node000020_Node000012" class="edge">
<title>Node20&#45;&gt;Node12</title>
<g id="a_edge41_Node000020_Node000012"><a xlink:title=" ">
<path fill="none" stroke="#63b8ff" d="M924.1,-308.19C927.01,-262.08 929.14,-181.32 910.5,-160 883.07,-128.62 773.41,-114.09 697.35,-107.68"/>
<polygon fill="#63b8ff" stroke="#63b8ff" points="920.61,-307.93 923.42,-318.15 927.59,-308.41 920.61,-307.93"/>
</a>
</g>
</g>
<!-- Node20&#45;&gt;Node15 -->
<g id="edge39_Node000020_Node000015" class="edge">
<title>Node20&#45;&gt;Node15</title>
<g id="a_edge39_Node000020_Node000015"><a xlink:title=" ">
<path fill="none" stroke="#63b8ff" d="M890.82,-312.22C866.38,-290.37 830.57,-260.66 795.5,-240 771.79,-226.03 744.02,-213.9 719.56,-204.45"/>
<polygon fill="#63b8ff" stroke="#63b8ff" points="888.4,-314.75 898.16,-318.87 893.1,-309.56 888.4,-314.75"/>
</a>
</g>
</g>
<!-- Node20&#45;&gt;Node16 -->
<g id="edge38_Node000020_Node000016" class="edge">
<title>Node20&#45;&gt;Node16</title>
<g id="a_edge38_Node000020_Node000016"><a xlink:title=" ">
<path fill="none" stroke="#63b8ff" d="M1008.39,-318.33C1049.3,-307.66 1097.86,-294.99 1138.18,-284.48"/>
<polygon fill="#63b8ff" stroke="#63b8ff" points="1007.59,-314.92 998.8,-320.83 1009.36,-321.7 1007.59,-314.92"/>
</a>
</g>
</g>
<!-- Node21 -->
<g id="Node000021" class="node">
<title>Node21</title>
<g id="a_Node000021"><a xlink:href="_utils_8cpp.html" target="_top" xlink:title=" ">
<polygon fill="white" stroke="#666666" points="1120,-284 969,-284 969,-240 1120,-240 1120,-284"/>
<text text-anchor="start" x="977" y="-270.5" font-family="Helvetica,sans-Serif" font-size="10.00">C:/Users/emilly/Documents</text>
<text text-anchor="start" x="977" y="-258.5" font-family="Helvetica,sans-Serif" font-size="10.00">/Lucca/Projetos/Cpp/NikiScript</text>
<text text-anchor="middle" x="1044.5" y="-246.5" font-family="Helvetica,sans-Serif" font-size="10.00">/src/Utils.cpp</text>
</a>
</g>
</g>
<!-- Node20&#45;&gt;Node21 -->
<g id="edge42_Node000020_Node000021" class="edge">
<title>Node20&#45;&gt;Node21</title>
<g id="a_edge42_Node000020_Node000021"><a xlink:title=" ">
<path fill="none" stroke="#63b8ff" d="M964.79,-313.55C979.93,-303.95 996.7,-293.31 1010.93,-284.29"/>
<polygon fill="#63b8ff" stroke="#63b8ff" points="962.96,-310.56 956.39,-318.88 966.71,-316.48 962.96,-310.56"/>
</a>
</g>
</g>
</g>
</svg>
