<?xml version="1.0" encoding="UTF-8" standalone="no"?>
<!DOCTYPE svg PUBLIC "-//W3C//DTD SVG 1.1//EN"
 "http://www.w3.org/Graphics/SVG/1.1/DTD/svg11.dtd">
<!-- Generated by graphviz version 12.2.1 (20241206.2353)
 -->
<!-- Title: C:/Users/emilly/Documents/Lucca/Projetos/Cpp/NikiScript/src/Lexer.cpp Pages: 1 -->
<svg width="736pt" height="276pt"
 viewBox="0.00 0.00 736.12 276.00" xmlns="http://www.w3.org/2000/svg" xmlns:xlink="http://www.w3.org/1999/xlink">
<g id="graph0" class="graph" transform="scale(1 1) rotate(0) translate(4 272)">
<title>C:/Users/emilly/Documents/Lucca/Projetos/Cpp/NikiScript/src/Lexer.cpp</title>
<!-- Node1 -->
<g id="Node000001" class="node">
<title>Node1</title>
<g id="a_Node000001"><a xlink:title=" ">
<polygon fill="#999999" stroke="#666666" points="333.12,-268 182.12,-268 182.12,-224 333.12,-224 333.12,-268"/>
<text text-anchor="start" x="190.12" y="-254.5" font-family="Helvetica,sans-Serif" font-size="10.00">C:/Users/emilly/Documents</text>
<text text-anchor="start" x="190.12" y="-242.5" font-family="Helvetica,sans-Serif" font-size="10.00">/Lucca/Projetos/Cpp/NikiScript</text>
<text text-anchor="middle" x="257.62" y="-230.5" font-family="Helvetica,sans-Serif" font-size="10.00">/src/Lexer.cpp</text>
</a>
</g>
</g>
<!-- Node2 -->
<g id="Node000002" class="node">
<title>Node2</title>
<g id="a_Node000002"><a xlink:href="_lexer_8h.html" target="_top" xlink:title=" ">
<polygon fill="white" stroke="#666666" points="302.75,-132 254.5,-132 254.5,-112 302.75,-112 302.75,-132"/>
<text text-anchor="middle" x="278.62" y="-118.5" font-family="Helvetica,sans-Serif" font-size="10.00">Lexer.h</text>
</a>
</g>
</g>
<!-- Node1&#45;&gt;Node2 -->
<g id="edge1_Node000001_Node000002" class="edge">
<title>Node1&#45;&gt;Node2</title>
<g id="a_edge1_Node000001_Node000002"><a xlink:title=" ">
<path fill="none" stroke="#63b8ff" d="M261.28,-223.75C265.17,-201.16 271.28,-165.69 275.11,-143.42"/>
<polygon fill="#63b8ff" stroke="#63b8ff" points="278.52,-144.24 276.77,-133.79 271.62,-143.05 278.52,-144.24"/>
</a>
</g>
</g>
<!-- Node7 -->
<g id="Node000007" class="node">
<title>Node7</title>
<g id="a_Node000007"><a xlink:title=" ">
<polygon fill="#e0e0e0" stroke="#999999" points="51.25,-20 0,-20 0,0 51.25,0 51.25,-20"/>
<text text-anchor="middle" x="25.62" y="-6.5" font-family="Helvetica,sans-Serif" font-size="10.00">sstream</text>
</a>
</g>
</g>
<!-- Node1&#45;&gt;Node7 -->
<g id="edge8_Node000001_Node000007" class="edge">
<title>Node1&#45;&gt;Node7</title>
<g id="a_edge8_Node000001_Node000007"><a xlink:title=" ">
<path fill="none" stroke="#63b8ff" d="M221.99,-223.6C189.3,-202.85 140.77,-169.14 105.62,-132 75.45,-100.12 49.28,-55.56 35.65,-30.36"/>
<polygon fill="#63b8ff" stroke="#63b8ff" points="38.78,-28.8 31.01,-21.6 32.6,-32.08 38.78,-28.8"/>
</a>
</g>
</g>
<!-- Node8 -->
<g id="Node000008" class="node">
<title>Node8</title>
<g id="a_Node000008"><a xlink:href="_print_callback_8h.html" target="_top" xlink:title=" ">
<polygon fill="white" stroke="#666666" points="236,-132 153.25,-132 153.25,-112 236,-112 236,-132"/>
<text text-anchor="middle" x="194.62" y="-118.5" font-family="Helvetica,sans-Serif" font-size="10.00">PrintCallback.h</text>
</a>
</g>
</g>
<!-- Node1&#45;&gt;Node8 -->
<g id="edge9_Node000001_Node000008" class="edge">
<title>Node1&#45;&gt;Node8</title>
<g id="a_edge9_Node000001_Node000008"><a xlink:title=" ">
<path fill="none" stroke="#63b8ff" d="M246.65,-223.75C234.82,-200.84 216.16,-164.69 204.69,-142.49"/>
<polygon fill="#63b8ff" stroke="#63b8ff" points="207.82,-140.93 200.12,-133.65 201.6,-144.14 207.82,-140.93"/>
</a>
</g>
</g>
<!-- Node10 -->
<g id="Node000010" class="node">
<title>Node10</title>
<g id="a_Node000010"><a xlink:href="_context_8h.html" target="_top" xlink:title=" ">
<polygon fill="white" stroke="#666666" points="405,-188 346.25,-188 346.25,-168 405,-168 405,-188"/>
<text text-anchor="middle" x="375.62" y="-174.5" font-family="Helvetica,sans-Serif" font-size="10.00">Context.h</text>
</a>
</g>
</g>
<!-- Node1&#45;&gt;Node10 -->
<g id="edge16_Node000001_Node000010" class="edge">
<title>Node1&#45;&gt;Node10</title>
<g id="a_edge16_Node000001_Node000010"><a xlink:title=" ">
<path fill="none" stroke="#63b8ff" d="M295.94,-223.57C313.21,-213.91 333.2,-202.73 348.84,-193.98"/>
<polygon fill="#63b8ff" stroke="#63b8ff" points="350.54,-197.04 357.56,-189.1 347.12,-190.93 350.54,-197.04"/>
</a>
</g>
</g>
<!-- Node3 -->
<g id="Node000003" class="node">
<title>Node3</title>
<g id="a_Node000003"><a xlink:title=" ">
<polygon fill="#e0e0e0" stroke="#999999" points="146.75,-20 98.5,-20 98.5,0 146.75,0 146.75,-20"/>
<text text-anchor="middle" x="122.62" y="-6.5" font-family="Helvetica,sans-Serif" font-size="10.00">stdint.h</text>
</a>
</g>
</g>
<!-- Node2&#45;&gt;Node3 -->
<g id="edge2_Node000002_Node000003" class="edge">
<title>Node2&#45;&gt;Node3</title>
<g id="a_edge2_Node000002_Node000003"><a xlink:title=" ">
<path fill="none" stroke="#63b8ff" d="M265.32,-111.62C238.61,-92.79 178.19,-50.18 145.19,-26.91"/>
<polygon fill="#63b8ff" stroke="#63b8ff" points="147.32,-24.13 137.13,-21.23 143.28,-29.85 147.32,-24.13"/>
</a>
</g>
</g>
<!-- Node4 -->
<g id="Node000004" class="node">
<title>Node4</title>
<g id="a_Node000004"><a xlink:title=" ">
<polygon fill="#e0e0e0" stroke="#999999" points="336.62,-20 296.62,-20 296.62,0 336.62,0 336.62,-20"/>
<text text-anchor="middle" x="316.62" y="-6.5" font-family="Helvetica,sans-Serif" font-size="10.00">string</text>
</a>
</g>
</g>
<!-- Node2&#45;&gt;Node4 -->
<g id="edge3_Node000002_Node000004" class="edge">
<title>Node2&#45;&gt;Node4</title>
<g id="a_edge3_Node000002_Node000004"><a xlink:title=" ">
<path fill="none" stroke="#63b8ff" d="M282.87,-111.81C286.95,-102.81 293.13,-88.62 297.62,-76 302.88,-61.23 307.82,-44.2 311.34,-31.29"/>
<polygon fill="#63b8ff" stroke="#63b8ff" points="314.67,-32.39 313.86,-21.83 307.91,-30.59 314.67,-32.39"/>
</a>
</g>
</g>
<!-- Node5 -->
<g id="Node000005" class="node">
<title>Node5</title>
<g id="a_Node000005"><a xlink:href="_token_8h.html" target="_top" xlink:title=" ">
<polygon fill="white" stroke="#666666" points="288.88,-76 238.38,-76 238.38,-56 288.88,-56 288.88,-76"/>
<text text-anchor="middle" x="263.62" y="-62.5" font-family="Helvetica,sans-Serif" font-size="10.00">Token.h</text>
</a>
</g>
</g>
<!-- Node2&#45;&gt;Node5 -->
<g id="edge4_Node000002_Node000005" class="edge">
<title>Node2&#45;&gt;Node5</title>
<g id="a_edge4_Node000002_Node000005"><a xlink:title=" ">
<path fill="none" stroke="#63b8ff" d="M276.01,-111.59C274.14,-104.86 271.55,-95.53 269.22,-87.15"/>
<polygon fill="#63b8ff" stroke="#63b8ff" points="272.66,-86.46 266.61,-77.76 265.92,-88.33 272.66,-86.46"/>
</a>
</g>
</g>
<!-- Node5&#45;&gt;Node3 -->
<g id="edge5_Node000005_Node000003" class="edge">
<title>Node5&#45;&gt;Node3</title>
<g id="a_edge5_Node000005_Node000003"><a xlink:title=" ">
<path fill="none" stroke="#63b8ff" d="M239.06,-55.59C216.52,-46.96 182.88,-34.08 157.54,-24.37"/>
<polygon fill="#63b8ff" stroke="#63b8ff" points="158.91,-21.15 148.32,-20.84 156.4,-27.68 158.91,-21.15"/>
</a>
</g>
</g>
<!-- Node5&#45;&gt;Node4 -->
<g id="edge6_Node000005_Node000004" class="edge">
<title>Node5&#45;&gt;Node4</title>
<g id="a_edge6_Node000005_Node000004"><a xlink:title=" ">
<path fill="none" stroke="#63b8ff" d="M272.86,-55.59C280.23,-48.08 290.76,-37.35 299.64,-28.3"/>
<polygon fill="#63b8ff" stroke="#63b8ff" points="301.93,-30.97 306.44,-21.38 296.94,-26.06 301.93,-30.97"/>
</a>
</g>
</g>
<!-- Node6 -->
<g id="Node000006" class="node">
<title>Node6</title>
<g id="a_Node000006"><a xlink:title=" ">
<polygon fill="#e0e0e0" stroke="#999999" points="666,-20 583.25,-20 583.25,0 666,0 666,-20"/>
<text text-anchor="middle" x="624.62" y="-6.5" font-family="Helvetica,sans-Serif" font-size="10.00">unordered_map</text>
</a>
</g>
</g>
<!-- Node5&#45;&gt;Node6 -->
<g id="edge7_Node000005_Node000006" class="edge">
<title>Node5&#45;&gt;Node6</title>
<g id="a_edge7_Node000005_Node000006"><a xlink:title=" ">
<path fill="none" stroke="#63b8ff" d="M289.3,-61.5C340.6,-54.45 459.69,-37.84 571.75,-20.09"/>
<polygon fill="#63b8ff" stroke="#63b8ff" points="572.1,-23.58 581.42,-18.56 571,-16.67 572.1,-23.58"/>
</a>
</g>
</g>
<!-- Node8&#45;&gt;Node3 -->
<g id="edge10_Node000008_Node000003" class="edge">
<title>Node8&#45;&gt;Node3</title>
<g id="a_edge10_Node000008_Node000003"><a xlink:title=" ">
<path fill="none" stroke="#63b8ff" d="M152.86,-114.03C130.65,-107.97 105.2,-96.74 91.62,-76 81.72,-60.87 92.9,-42.09 104.51,-28.61"/>
<polygon fill="#63b8ff" stroke="#63b8ff" points="107.03,-31.03 111.32,-21.34 101.92,-26.25 107.03,-31.03"/>
</a>
</g>
</g>
<!-- Node8&#45;&gt;Node4 -->
<g id="edge11_Node000008_Node000004" class="edge">
<title>Node8&#45;&gt;Node4</title>
<g id="a_edge11_Node000008_Node000004"><a xlink:title=" ">
<path fill="none" stroke="#63b8ff" d="M197.54,-111.95C202.32,-98.31 212.99,-72.36 229.62,-56 245.39,-40.5 267.58,-29.13 285.61,-21.7"/>
<polygon fill="#63b8ff" stroke="#63b8ff" points="286.73,-25.02 294.78,-18.13 284.2,-18.5 286.73,-25.02"/>
</a>
</g>
</g>
<!-- Node9 -->
<g id="Node000009" class="node">
<title>Node9</title>
<g id="a_Node000009"><a xlink:href="_utils_8h.html" target="_top" xlink:title=" ">
<polygon fill="white" stroke="#666666" points="144.88,-76 100.38,-76 100.38,-56 144.88,-56 144.88,-76"/>
<text text-anchor="middle" x="122.62" y="-62.5" font-family="Helvetica,sans-Serif" font-size="10.00">Utils.h</text>
</a>
</g>
</g>
<!-- Node8&#45;&gt;Node9 -->
<g id="edge12_Node000008_Node000009" class="edge">
<title>Node8&#45;&gt;Node9</title>
<g id="a_edge12_Node000008_Node000009"><a xlink:title=" ">
<path fill="none" stroke="#63b8ff" d="M182.08,-111.59C171.66,-103.77 156.58,-92.46 144.21,-83.19"/>
<polygon fill="#63b8ff" stroke="#63b8ff" points="146.33,-80.41 136.23,-77.21 142.13,-86.01 146.33,-80.41"/>
</a>
</g>
</g>
<!-- Node9&#45;&gt;Node3 -->
<g id="edge13_Node000009_Node000003" class="edge">
<title>Node9&#45;&gt;Node3</title>
<g id="a_edge13_Node000009_Node000003"><a xlink:title=" ">
<path fill="none" stroke="#63b8ff" d="M122.62,-55.59C122.62,-49.01 122.62,-39.96 122.62,-31.73"/>
<polygon fill="#63b8ff" stroke="#63b8ff" points="126.13,-31.81 122.63,-21.81 119.13,-31.81 126.13,-31.81"/>
</a>
</g>
</g>
<!-- Node9&#45;&gt;Node4 -->
<g id="edge14_Node000009_Node000004" class="edge">
<title>Node9&#45;&gt;Node4</title>
<g id="a_edge14_Node000009_Node000004"><a xlink:title=" ">
<path fill="none" stroke="#63b8ff" d="M145.26,-58.7C179.84,-49.07 245.95,-30.67 285.18,-19.75"/>
<polygon fill="#63b8ff" stroke="#63b8ff" points="286.04,-23.15 294.73,-17.09 284.16,-16.4 286.04,-23.15"/>
</a>
</g>
</g>
<!-- Node9&#45;&gt;Node7 -->
<g id="edge15_Node000009_Node000007" class="edge">
<title>Node9&#45;&gt;Node7</title>
<g id="a_edge15_Node000009_Node000007"><a xlink:title=" ">
<path fill="none" stroke="#63b8ff" d="M105.73,-55.59C91.08,-47.44 69.6,-35.48 52.58,-26"/>
<polygon fill="#63b8ff" stroke="#63b8ff" points="54.42,-23.02 43.98,-21.22 51.01,-29.14 54.42,-23.02"/>
</a>
</g>
</g>
<!-- Node10&#45;&gt;Node2 -->
<g id="edge34_Node000010_Node000002" class="edge">
<title>Node10&#45;&gt;Node2</title>
<g id="a_edge34_Node000010_Node000002"><a xlink:title=" ">
<path fill="none" stroke="#63b8ff" d="M358.73,-167.59C344.08,-159.44 322.6,-147.48 305.58,-138"/>
<polygon fill="#63b8ff" stroke="#63b8ff" points="307.42,-135.02 296.98,-133.22 304.01,-141.14 307.42,-135.02"/>
</a>
</g>
</g>
<!-- Node10&#45;&gt;Node3 -->
<g id="edge18_Node000010_Node000003" class="edge">
<title>Node10&#45;&gt;Node3</title>
<g id="a_edge18_Node000010_Node000003"><a xlink:title=" ">
<path fill="none" stroke="#63b8ff" d="M345.89,-176.31C300.24,-174.17 211.19,-165.61 144.62,-132 111.77,-115.41 98.43,-109.69 83.62,-76 76.11,-58.9 88.91,-40.79 101.82,-28.03"/>
<polygon fill="#63b8ff" stroke="#63b8ff" points="103.94,-30.83 108.98,-21.51 99.23,-25.66 103.94,-30.83"/>
</a>
</g>
</g>
<!-- Node10&#45;&gt;Node4 -->
<g id="edge19_Node000010_Node000004" class="edge">
<title>Node10&#45;&gt;Node4</title>
<g id="a_edge19_Node000010_Node000004"><a xlink:title=" ">
<path fill="none" stroke="#63b8ff" d="M372.28,-167.6C362.95,-141.35 336.47,-66.84 323.69,-30.89"/>
<polygon fill="#63b8ff" stroke="#63b8ff" points="327.08,-29.97 320.44,-21.72 320.49,-32.32 327.08,-29.97"/>
</a>
</g>
</g>
<!-- Node10&#45;&gt;Node6 -->
<g id="edge20_Node000010_Node000006" class="edge">
<title>Node10&#45;&gt;Node6</title>
<g id="a_edge20_Node000010_Node000006"><a xlink:title=" ">
<path fill="none" stroke="#63b8ff" d="M405.47,-175.41C461.73,-171.77 580.3,-160.79 607.62,-132 633.22,-105.04 631.74,-58.29 628.26,-31.48"/>
<polygon fill="#63b8ff" stroke="#63b8ff" points="631.76,-31.24 626.78,-21.89 624.84,-32.31 631.76,-31.24"/>
</a>
</g>
</g>
<!-- Node10&#45;&gt;Node8 -->
<g id="edge29_Node000010_Node000008" class="edge">
<title>Node10&#45;&gt;Node8</title>
<g id="a_edge29_Node000010_Node000008"><a xlink:title=" ">
<path fill="none" stroke="#63b8ff" d="M346.14,-168.2C316.53,-159.37 270.61,-145.67 237.08,-135.67"/>
<polygon fill="#63b8ff" stroke="#63b8ff" points="238.26,-132.37 227.68,-132.86 236.26,-139.07 238.26,-132.37"/>
</a>
</g>
</g>
<!-- Node11 -->
<g id="Node000011" class="node">
<title>Node11</title>
<g id="a_Node000011"><a xlink:title=" ">
<polygon fill="#e0e0e0" stroke="#999999" points="728.12,-20 685.12,-20 685.12,0 728.12,0 728.12,-20"/>
<text text-anchor="middle" x="706.62" y="-6.5" font-family="Helvetica,sans-Serif" font-size="10.00">vector</text>
</a>
</g>
</g>
<!-- Node10&#45;&gt;Node11 -->
<g id="edge17_Node000010_Node000011" class="edge">
<title>Node10&#45;&gt;Node11</title>
<g id="a_edge17_Node000010_Node000011"><a xlink:title=" ">
<path fill="none" stroke="#63b8ff" d="M405.13,-174.66C463.54,-169.57 591.4,-155.97 627.62,-132 664.8,-107.4 688.43,-58.65 699.41,-31.13"/>
<polygon fill="#63b8ff" stroke="#63b8ff" points="702.65,-32.46 702.92,-21.87 696.1,-29.98 702.65,-32.46"/>
</a>
</g>
</g>
<!-- Node12 -->
<g id="Node000012" class="node">
<title>Node12</title>
<g id="a_Node000012"><a xlink:href="_command_8h.html" target="_top" xlink:title=" ">
<polygon fill="white" stroke="#666666" points="565.25,-76 496,-76 496,-56 565.25,-56 565.25,-76"/>
<text text-anchor="middle" x="530.62" y="-62.5" font-family="Helvetica,sans-Serif" font-size="10.00">Command.h</text>
</a>
</g>
</g>
<!-- Node10&#45;&gt;Node12 -->
<g id="edge21_Node000010_Node000012" class="edge">
<title>Node10&#45;&gt;Node12</title>
<g id="a_edge21_Node000010_Node000012"><a xlink:title=" ">
<path fill="none" stroke="#63b8ff" d="M388.84,-167.62C415.38,-148.79 475.41,-106.18 508.21,-82.91"/>
<polygon fill="#63b8ff" stroke="#63b8ff" points="510.08,-85.87 516.21,-77.23 506.03,-80.16 510.08,-85.87"/>
</a>
</g>
</g>
<!-- Node14 -->
<g id="Node000014" class="node">
<title>Node14</title>
<g id="a_Node000014"><a xlink:href="_command_handler_8h.html" target="_top" xlink:title=" ">
<polygon fill="white" stroke="#666666" points="598.12,-132 495.12,-132 495.12,-112 598.12,-112 598.12,-132"/>
<text text-anchor="middle" x="546.62" y="-118.5" font-family="Helvetica,sans-Serif" font-size="10.00">CommandHandler.h</text>
</a>
</g>
</g>
<!-- Node10&#45;&gt;Node14 -->
<g id="edge25_Node000010_Node000014" class="edge">
<title>Node10&#45;&gt;Node14</title>
<g id="a_edge25_Node000010_Node000014"><a xlink:title=" ">
<path fill="none" stroke="#63b8ff" d="M405.41,-167.59C433.19,-158.82 474.88,-145.66 505.76,-135.9"/>
<polygon fill="#63b8ff" stroke="#63b8ff" points="506.68,-139.28 515.16,-132.94 504.57,-132.61 506.68,-139.28"/>
</a>
</g>
</g>
<!-- Node15 -->
<g id="Node000015" class="node">
<title>Node15</title>
<g id="a_Node000015"><a xlink:href="_program_variable_8h.html" target="_top" xlink:title=" ">
<polygon fill="white" stroke="#666666" points="478.38,-76 382.88,-76 382.88,-56 478.38,-56 478.38,-76"/>
<text text-anchor="middle" x="430.62" y="-62.5" font-family="Helvetica,sans-Serif" font-size="10.00">ProgramVariable.h</text>
</a>
</g>
</g>
<!-- Node10&#45;&gt;Node15 -->
<g id="edge30_Node000010_Node000015" class="edge">
<title>Node10&#45;&gt;Node15</title>
<g id="a_edge30_Node000010_Node000015"><a xlink:title=" ">
<path fill="none" stroke="#63b8ff" d="M380.31,-167.62C389.28,-149.68 409.04,-110.17 420.95,-86.35"/>
<polygon fill="#63b8ff" stroke="#63b8ff" points="423.93,-88.22 425.27,-77.71 417.67,-85.09 423.93,-88.22"/>
</a>
</g>
</g>
<!-- Node12&#45;&gt;Node4 -->
<g id="edge24_Node000012_Node000004" class="edge">
<title>Node12&#45;&gt;Node4</title>
<g id="a_edge24_Node000012_Node000004"><a xlink:title=" ">
<path fill="none" stroke="#63b8ff" d="M495.77,-56.2C454.78,-45.86 387.37,-28.85 347.98,-18.91"/>
<polygon fill="#63b8ff" stroke="#63b8ff" points="348.96,-15.55 338.41,-16.5 347.25,-22.34 348.96,-15.55"/>
</a>
</g>
</g>
<!-- Node12&#45;&gt;Node11 -->
<g id="edge22_Node000012_Node000011" class="edge">
<title>Node12&#45;&gt;Node11</title>
<g id="a_edge22_Node000012_Node000011"><a xlink:title=" ">
<path fill="none" stroke="#63b8ff" d="M561.28,-55.59C592.82,-45.92 641.77,-30.9 674.01,-21.01"/>
<polygon fill="#63b8ff" stroke="#63b8ff" points="674.68,-24.46 683.21,-18.18 672.62,-17.77 674.68,-24.46"/>
</a>
</g>
</g>
<!-- Node13 -->
<g id="Node000013" class="node">
<title>Node13</title>
<g id="a_Node000013"><a xlink:title=" ">
<polygon fill="#e0e0e0" stroke="#999999" points="563.38,-20 497.88,-20 497.88,0 563.38,0 563.38,-20"/>
<text text-anchor="middle" x="530.62" y="-6.5" font-family="Helvetica,sans-Serif" font-size="10.00">string_view</text>
</a>
</g>
</g>
<!-- Node12&#45;&gt;Node13 -->
<g id="edge23_Node000012_Node000013" class="edge">
<title>Node12&#45;&gt;Node13</title>
<g id="a_edge23_Node000012_Node000013"><a xlink:title=" ">
<path fill="none" stroke="#63b8ff" d="M530.62,-55.59C530.62,-49.01 530.62,-39.96 530.62,-31.73"/>
<polygon fill="#63b8ff" stroke="#63b8ff" points="534.13,-31.81 530.63,-21.81 527.13,-31.81 534.13,-31.81"/>
</a>
</g>
</g>
<!-- Node14&#45;&gt;Node6 -->
<g id="edge26_Node000014_Node000006" class="edge">
<title>Node14&#45;&gt;Node6</title>
<g id="a_edge26_Node000014_Node000006"><a xlink:title=" ">
<path fill="none" stroke="#63b8ff" d="M557.01,-111.67C566.27,-103.01 579.84,-89.46 589.62,-76 600,-61.72 609.33,-44 615.75,-30.67"/>
<polygon fill="#63b8ff" stroke="#63b8ff" points="618.9,-32.2 619.95,-21.66 612.56,-29.24 618.9,-32.2"/>
</a>
</g>
</g>
<!-- Node14&#45;&gt;Node12 -->
<g id="edge28_Node000014_Node000012" class="edge">
<title>Node14&#45;&gt;Node12</title>
<g id="a_edge28_Node000014_Node000012"><a xlink:title=" ">
<path fill="none" stroke="#63b8ff" d="M543.84,-111.59C541.84,-104.86 539.08,-95.53 536.6,-87.15"/>
<polygon fill="#63b8ff" stroke="#63b8ff" points="540.01,-86.34 533.81,-77.75 533.3,-88.33 540.01,-86.34"/>
</a>
</g>
</g>
<!-- Node14&#45;&gt;Node13 -->
<g id="edge27_Node000014_Node000013" class="edge">
<title>Node14&#45;&gt;Node13</title>
<g id="a_edge27_Node000014_Node000013"><a xlink:title=" ">
<path fill="none" stroke="#63b8ff" d="M555.51,-111.79C566.49,-99.24 582.79,-76.03 574.62,-56 570.09,-44.89 561.35,-35.02 552.84,-27.39"/>
<polygon fill="#63b8ff" stroke="#63b8ff" points="555.35,-24.92 545.42,-21.24 550.89,-30.31 555.35,-24.92"/>
</a>
</g>
</g>
<!-- Node15&#45;&gt;Node4 -->
<g id="edge31_Node000015_Node000004" class="edge">
<title>Node15&#45;&gt;Node4</title>
<g id="a_edge31_Node000015_Node000004"><a xlink:title=" ">
<path fill="none" stroke="#63b8ff" d="M410.77,-55.59C393.14,-47.24 367.12,-34.92 346.9,-25.34"/>
<polygon fill="#63b8ff" stroke="#63b8ff" points="348.54,-22.25 338.01,-21.13 345.54,-28.57 348.54,-22.25"/>
</a>
</g>
</g>
<!-- Node15&#45;&gt;Node6 -->
<g id="edge33_Node000015_Node000006" class="edge">
<title>Node15&#45;&gt;Node6</title>
<g id="a_edge33_Node000015_Node000006"><a xlink:title=" ">
<path fill="none" stroke="#63b8ff" d="M464.42,-55.59C496.35,-46.71 544.47,-33.31 579.64,-23.52"/>
<polygon fill="#63b8ff" stroke="#63b8ff" points="580.42,-26.94 589.11,-20.89 578.54,-20.2 580.42,-26.94"/>
</a>
</g>
</g>
<!-- Node15&#45;&gt;Node13 -->
<g id="edge32_Node000015_Node000013" class="edge">
<title>Node15&#45;&gt;Node13</title>
<g id="a_edge32_Node000015_Node000013"><a xlink:title=" ">
<path fill="none" stroke="#63b8ff" d="M448.04,-55.59C463.29,-47.36 485.7,-35.26 503.33,-25.74"/>
<polygon fill="#63b8ff" stroke="#63b8ff" points="504.6,-29.03 511.74,-21.2 501.28,-22.87 504.6,-29.03"/>
</a>
</g>
</g>
</g>
</svg>
