<?xml version="1.0" encoding="UTF-8" standalone="no"?>
<!DOCTYPE svg PUBLIC "-//W3C//DTD SVG 1.1//EN"
 "http://www.w3.org/Graphics/SVG/1.1/DTD/svg11.dtd">
<!-- Generated by graphviz version 12.2.1 (20241206.2353)
 -->
<!-- Title: C:/Users/emilly/Documents/Lucca/Projetos/Cpp/NikiScript/include/NikiScript/Lexer.h Pages: 1 -->
<svg width="236pt" height="164pt"
 viewBox="0.00 0.00 236.25 164.00" xmlns="http://www.w3.org/2000/svg" xmlns:xlink="http://www.w3.org/1999/xlink">
<g id="graph0" class="graph" transform="scale(1 1) rotate(0) translate(4 160)">
<title>C:/Users/emilly/Documents/Lucca/Projetos/Cpp/NikiScript/include/NikiScript/Lexer.h</title>
<!-- Node1 -->
<g id="Node000001" class="node">
<title>Node1</title>
<g id="a_Node000001"><a xlink:title=" ">
<polygon fill="#999999" stroke="#666666" points="187.62,-156 36.62,-156 36.62,-112 187.62,-112 187.62,-156"/>
<text text-anchor="start" x="44.62" y="-142.5" font-family="Helvetica,sans-Serif" font-size="10.00">C:/Users/emilly/Documents</text>
<text text-anchor="start" x="44.62" y="-130.5" font-family="Helvetica,sans-Serif" font-size="10.00">/Lucca/Projetos/Cpp/NikiScript</text>
<text text-anchor="middle" x="112.12" y="-118.5" font-family="Helvetica,sans-Serif" font-size="10.00">/include/NikiScript/Lexer.h</text>
</a>
</g>
</g>
<!-- Node2 -->
<g id="Node000002" class="node">
<title>Node2</title>
<g id="a_Node000002"><a xlink:title=" ">
<polygon fill="#e0e0e0" stroke="#999999" points="48.25,-20 0,-20 0,0 48.25,0 48.25,-20"/>
<text text-anchor="middle" x="24.12" y="-6.5" font-family="Helvetica,sans-Serif" font-size="10.00">stdint.h</text>
</a>
</g>
</g>
<!-- Node1&#45;&gt;Node2 -->
<g id="edge1_Node000001_Node000002" class="edge">
<title>Node1&#45;&gt;Node2</title>
<g id="a_edge1_Node000001_Node000002"><a xlink:title=" ">
<path fill="none" stroke="#63b8ff" d="M96.8,-111.75C80.05,-88.53 53.48,-51.7 37.53,-29.59"/>
<polygon fill="#63b8ff" stroke="#63b8ff" points="40.41,-27.59 31.72,-21.53 34.73,-31.69 40.41,-27.59"/>
</a>
</g>
</g>
<!-- Node3 -->
<g id="Node000003" class="node">
<title>Node3</title>
<g id="a_Node000003"><a xlink:title=" ">
<polygon fill="#e0e0e0" stroke="#999999" points="106.12,-20 66.12,-20 66.12,0 106.12,0 106.12,-20"/>
<text text-anchor="middle" x="86.12" y="-6.5" font-family="Helvetica,sans-Serif" font-size="10.00">string</text>
</a>
</g>
</g>
<!-- Node1&#45;&gt;Node3 -->
<g id="edge2_Node000001_Node000003" class="edge">
<title>Node1&#45;&gt;Node3</title>
<g id="a_edge2_Node000001_Node000003"><a xlink:title=" ">
<path fill="none" stroke="#63b8ff" d="M107.6,-111.75C102.78,-89.16 95.22,-53.69 90.48,-31.42"/>
<polygon fill="#63b8ff" stroke="#63b8ff" points="93.93,-30.83 88.42,-21.78 87.08,-32.29 93.93,-30.83"/>
</a>
</g>
</g>
<!-- Node4 -->
<g id="Node000004" class="node">
<title>Node4</title>
<g id="a_Node000004"><a xlink:href="_token_8h.html" target="_top" xlink:title=" ">
<polygon fill="white" stroke="#666666" points="164.38,-76 113.88,-76 113.88,-56 164.38,-56 164.38,-76"/>
<text text-anchor="middle" x="139.12" y="-62.5" font-family="Helvetica,sans-Serif" font-size="10.00">Token.h</text>
</a>
</g>
</g>
<!-- Node1&#45;&gt;Node4 -->
<g id="edge3_Node000001_Node000004" class="edge">
<title>Node1&#45;&gt;Node4</title>
<g id="a_edge3_Node000001_Node000004"><a xlink:title=" ">
<path fill="none" stroke="#63b8ff" d="M120.82,-111.75C124.09,-103.75 127.8,-94.69 131.01,-86.83"/>
<polygon fill="#63b8ff" stroke="#63b8ff" points="134.15,-88.4 134.7,-77.82 127.67,-85.75 134.15,-88.4"/>
</a>
</g>
</g>
<!-- Node6 -->
<g id="Node000006" class="node">
<title>Node6</title>
<g id="a_Node000006"><a xlink:href="_d_l_l_8h.html" target="_top" xlink:title=" ">
<polygon fill="white" stroke="#666666" points="228.25,-20 186,-20 186,0 228.25,0 228.25,-20"/>
<text text-anchor="middle" x="207.12" y="-6.5" font-family="Helvetica,sans-Serif" font-size="10.00">DLL.h</text>
</a>
</g>
</g>
<!-- Node1&#45;&gt;Node6 -->
<g id="edge8_Node000001_Node000006" class="edge">
<title>Node1&#45;&gt;Node6</title>
<g id="a_edge8_Node000001_Node000006"><a xlink:title=" ">
<path fill="none" stroke="#63b8ff" d="M138.68,-111.71C150.16,-101.67 163.21,-89.03 173.12,-76 183.74,-62.05 192.77,-44.3 198.85,-30.88"/>
<polygon fill="#63b8ff" stroke="#63b8ff" points="202.03,-32.36 202.8,-21.79 195.61,-29.57 202.03,-32.36"/>
</a>
</g>
</g>
<!-- Node4&#45;&gt;Node2 -->
<g id="edge4_Node000004_Node000002" class="edge">
<title>Node4&#45;&gt;Node2</title>
<g id="a_edge4_Node000004_Node000002"><a xlink:title=" ">
<path fill="none" stroke="#63b8ff" d="M119.09,-55.59C101.31,-47.24 75.06,-34.92 54.66,-25.34"/>
<polygon fill="#63b8ff" stroke="#63b8ff" points="56.22,-22.21 45.68,-21.12 53.25,-28.54 56.22,-22.21"/>
</a>
</g>
</g>
<!-- Node4&#45;&gt;Node3 -->
<g id="edge5_Node000004_Node000003" class="edge">
<title>Node4&#45;&gt;Node3</title>
<g id="a_edge5_Node000004_Node000003"><a xlink:title=" ">
<path fill="none" stroke="#63b8ff" d="M129.89,-55.59C122.52,-48.08 111.99,-37.35 103.11,-28.3"/>
<polygon fill="#63b8ff" stroke="#63b8ff" points="105.81,-26.06 96.31,-21.38 100.82,-30.97 105.81,-26.06"/>
</a>
</g>
</g>
<!-- Node5 -->
<g id="Node000005" class="node">
<title>Node5</title>
<g id="a_Node000005"><a xlink:title=" ">
<polygon fill="#e0e0e0" stroke="#999999" points="167.62,-20 124.62,-20 124.62,0 167.62,0 167.62,-20"/>
<text text-anchor="middle" x="146.12" y="-6.5" font-family="Helvetica,sans-Serif" font-size="10.00">vector</text>
</a>
</g>
</g>
<!-- Node4&#45;&gt;Node5 -->
<g id="edge6_Node000004_Node000005" class="edge">
<title>Node4&#45;&gt;Node5</title>
<g id="a_edge6_Node000004_Node000005"><a xlink:title=" ">
<path fill="none" stroke="#63b8ff" d="M140.34,-55.59C141.21,-48.93 142.4,-39.75 143.48,-31.44"/>
<polygon fill="#63b8ff" stroke="#63b8ff" points="146.91,-32.17 144.73,-21.8 139.97,-31.27 146.91,-32.17"/>
</a>
</g>
</g>
<!-- Node4&#45;&gt;Node6 -->
<g id="edge7_Node000004_Node000006" class="edge">
<title>Node4&#45;&gt;Node6</title>
<g id="a_edge7_Node000004_Node000006"><a xlink:title=" ">
<path fill="none" stroke="#63b8ff" d="M150.97,-55.59C160.82,-47.77 175.06,-36.46 186.73,-27.19"/>
<polygon fill="#63b8ff" stroke="#63b8ff" points="188.58,-30.2 194.23,-21.24 184.22,-24.72 188.58,-30.2"/>
</a>
</g>
</g>
</g>
</svg>
