<?xml version="1.0" encoding="UTF-8" standalone="no"?>
<!DOCTYPE svg PUBLIC "-//W3C//DTD SVG 1.1//EN"
 "http://www.w3.org/Graphics/SVG/1.1/DTD/svg11.dtd">
<!-- Generated by graphviz version 12.2.1 (20241206.2353)
 -->
<!-- Title: C:/Users/emilly/Documents/Lucca/Projetos/Cpp/NikiScript/src/Lexer.cpp Pages: 1 -->
<svg width="267pt" height="220pt"
 viewBox="0.00 0.00 266.75 220.00" xmlns="http://www.w3.org/2000/svg" xmlns:xlink="http://www.w3.org/1999/xlink">
<g id="graph0" class="graph" transform="scale(1 1) rotate(0) translate(4 216)">
<title>C:/Users/emilly/Documents/Lucca/Projetos/Cpp/NikiScript/src/Lexer.cpp</title>
<!-- Node1 -->
<g id="Node000001" class="node">
<title>Node1</title>
<g id="a_Node000001"><a xlink:title=" ">
<polygon fill="#999999" stroke="#666666" points="254.62,-212 103.62,-212 103.62,-168 254.62,-168 254.62,-212"/>
<text text-anchor="start" x="111.62" y="-198.5" font-family="Helvetica,sans-Serif" font-size="10.00">C:/Users/emilly/Documents</text>
<text text-anchor="start" x="111.62" y="-186.5" font-family="Helvetica,sans-Serif" font-size="10.00">/Lucca/Projetos/Cpp/NikiScript</text>
<text text-anchor="middle" x="179.12" y="-174.5" font-family="Helvetica,sans-Serif" font-size="10.00">/src/Lexer.cpp</text>
</a>
</g>
</g>
<!-- Node2 -->
<g id="Node000002" class="node">
<title>Node2</title>
<g id="a_Node000002"><a xlink:href="_lexer_8h.html" target="_top" xlink:title=" ">
<polygon fill="white" stroke="#666666" points="126.25,-132 78,-132 78,-112 126.25,-112 126.25,-132"/>
<text text-anchor="middle" x="102.12" y="-118.5" font-family="Helvetica,sans-Serif" font-size="10.00">Lexer.h</text>
</a>
</g>
</g>
<!-- Node1&#45;&gt;Node2 -->
<g id="edge1_Node000001_Node000002" class="edge">
<title>Node1&#45;&gt;Node2</title>
<g id="a_edge1_Node000001_Node000002"><a xlink:title=" ">
<path fill="none" stroke="#63b8ff" d="M154.34,-167.75C143.81,-158.73 131.71,-148.36 121.81,-139.87"/>
<polygon fill="#63b8ff" stroke="#63b8ff" points="124.13,-137.25 114.26,-133.4 119.58,-142.57 124.13,-137.25"/>
</a>
</g>
</g>
<!-- Node7 -->
<g id="Node000007" class="node">
<title>Node7</title>
<g id="a_Node000007"><a xlink:title=" ">
<polygon fill="#e0e0e0" stroke="#999999" points="258.75,-76 207.5,-76 207.5,-56 258.75,-56 258.75,-76"/>
<text text-anchor="middle" x="233.12" y="-62.5" font-family="Helvetica,sans-Serif" font-size="10.00">sstream</text>
</a>
</g>
</g>
<!-- Node1&#45;&gt;Node7 -->
<g id="edge8_Node000001_Node000007" class="edge">
<title>Node1&#45;&gt;Node7</title>
<g id="a_edge8_Node000001_Node000007"><a xlink:title=" ">
<path fill="none" stroke="#63b8ff" d="M191.72,-167.75C197.71,-157.2 204.72,-144.14 210.12,-132 216.69,-117.27 222.72,-100.03 226.95,-87.02"/>
<polygon fill="#63b8ff" stroke="#63b8ff" points="230.16,-88.47 229.85,-77.88 223.49,-86.36 230.16,-88.47"/>
</a>
</g>
</g>
<!-- Node8 -->
<g id="Node000008" class="node">
<title>Node8</title>
<g id="a_Node000008"><a xlink:href="_utils_8h.html" target="_top" xlink:title=" ">
<polygon fill="white" stroke="#666666" points="201.38,-132 156.88,-132 156.88,-112 201.38,-112 201.38,-132"/>
<text text-anchor="middle" x="179.12" y="-118.5" font-family="Helvetica,sans-Serif" font-size="10.00">Utils.h</text>
</a>
</g>
</g>
<!-- Node1&#45;&gt;Node8 -->
<g id="edge9_Node000001_Node000008" class="edge">
<title>Node1&#45;&gt;Node8</title>
<g id="a_edge9_Node000001_Node000008"><a xlink:title=" ">
<path fill="none" stroke="#63b8ff" d="M179.12,-167.75C179.12,-160.13 179.12,-151.53 179.12,-143.93"/>
<polygon fill="#63b8ff" stroke="#63b8ff" points="182.63,-143.93 179.13,-133.93 175.63,-143.93 182.63,-143.93"/>
</a>
</g>
</g>
<!-- Node3 -->
<g id="Node000003" class="node">
<title>Node3</title>
<g id="a_Node000003"><a xlink:title=" ">
<polygon fill="#e0e0e0" stroke="#999999" points="48.25,-20 0,-20 0,0 48.25,0 48.25,-20"/>
<text text-anchor="middle" x="24.12" y="-6.5" font-family="Helvetica,sans-Serif" font-size="10.00">stdint.h</text>
</a>
</g>
</g>
<!-- Node2&#45;&gt;Node3 -->
<g id="edge2_Node000002_Node000003" class="edge">
<title>Node2&#45;&gt;Node3</title>
<g id="a_edge2_Node000002_Node000003"><a xlink:title=" ">
<path fill="none" stroke="#63b8ff" d="M77.87,-114.81C58.73,-108.51 33.28,-96.66 21.12,-76 13.23,-62.58 14.7,-44.77 17.75,-31.19"/>
<polygon fill="#63b8ff" stroke="#63b8ff" points="21.11,-32.18 20.36,-21.61 14.35,-30.34 21.11,-32.18"/>
</a>
</g>
</g>
<!-- Node4 -->
<g id="Node000004" class="node">
<title>Node4</title>
<g id="a_Node000004"><a xlink:title=" ">
<polygon fill="#e0e0e0" stroke="#999999" points="168.12,-20 128.12,-20 128.12,0 168.12,0 168.12,-20"/>
<text text-anchor="middle" x="148.12" y="-6.5" font-family="Helvetica,sans-Serif" font-size="10.00">string</text>
</a>
</g>
</g>
<!-- Node2&#45;&gt;Node4 -->
<g id="edge3_Node000002_Node000004" class="edge">
<title>Node2&#45;&gt;Node4</title>
<g id="a_edge3_Node000002_Node000004"><a xlink:title=" ">
<path fill="none" stroke="#63b8ff" d="M106.36,-111.74C110.49,-102.67 116.87,-88.45 122.12,-76 128.49,-60.91 135.36,-43.7 140.44,-30.78"/>
<polygon fill="#63b8ff" stroke="#63b8ff" points="143.6,-32.3 143.98,-21.71 137.08,-29.75 143.6,-32.3"/>
</a>
</g>
</g>
<!-- Node5 -->
<g id="Node000005" class="node">
<title>Node5</title>
<g id="a_Node000005"><a xlink:href="_token_8h.html" target="_top" xlink:title=" ">
<polygon fill="white" stroke="#666666" points="113.38,-76 62.88,-76 62.88,-56 113.38,-56 113.38,-76"/>
<text text-anchor="middle" x="88.12" y="-62.5" font-family="Helvetica,sans-Serif" font-size="10.00">Token.h</text>
</a>
</g>
</g>
<!-- Node2&#45;&gt;Node5 -->
<g id="edge4_Node000002_Node000005" class="edge">
<title>Node2&#45;&gt;Node5</title>
<g id="a_edge4_Node000002_Node000005"><a xlink:title=" ">
<path fill="none" stroke="#63b8ff" d="M99.69,-111.59C97.96,-104.93 95.58,-95.75 93.42,-87.44"/>
<polygon fill="#63b8ff" stroke="#63b8ff" points="96.81,-86.56 90.92,-77.76 90.04,-88.32 96.81,-86.56"/>
</a>
</g>
</g>
<!-- Node5&#45;&gt;Node3 -->
<g id="edge5_Node000005_Node000003" class="edge">
<title>Node5&#45;&gt;Node3</title>
<g id="a_edge5_Node000005_Node000003"><a xlink:title=" ">
<path fill="none" stroke="#63b8ff" d="M76.98,-55.59C67.8,-47.85 54.57,-36.69 43.64,-27.47"/>
<polygon fill="#63b8ff" stroke="#63b8ff" points="46.2,-25.05 36.3,-21.27 41.69,-30.4 46.2,-25.05"/>
</a>
</g>
</g>
<!-- Node5&#45;&gt;Node4 -->
<g id="edge6_Node000005_Node000004" class="edge">
<title>Node5&#45;&gt;Node4</title>
<g id="a_edge6_Node000005_Node000004"><a xlink:title=" ">
<path fill="none" stroke="#63b8ff" d="M98.58,-55.59C107.09,-47.93 119.34,-36.91 129.52,-27.75"/>
<polygon fill="#63b8ff" stroke="#63b8ff" points="131.58,-30.6 136.67,-21.31 126.89,-25.4 131.58,-30.6"/>
</a>
</g>
</g>
<!-- Node6 -->
<g id="Node000006" class="node">
<title>Node6</title>
<g id="a_Node000006"><a xlink:title=" ">
<polygon fill="#e0e0e0" stroke="#999999" points="109.62,-20 66.62,-20 66.62,0 109.62,0 109.62,-20"/>
<text text-anchor="middle" x="88.12" y="-6.5" font-family="Helvetica,sans-Serif" font-size="10.00">vector</text>
</a>
</g>
</g>
<!-- Node5&#45;&gt;Node6 -->
<g id="edge7_Node000005_Node000006" class="edge">
<title>Node5&#45;&gt;Node6</title>
<g id="a_edge7_Node000005_Node000006"><a xlink:title=" ">
<path fill="none" stroke="#63b8ff" d="M88.12,-55.59C88.12,-49.01 88.12,-39.96 88.12,-31.73"/>
<polygon fill="#63b8ff" stroke="#63b8ff" points="91.63,-31.81 88.13,-21.81 84.63,-31.81 91.63,-31.81"/>
</a>
</g>
</g>
<!-- Node8&#45;&gt;Node3 -->
<g id="edge10_Node000008_Node000003" class="edge">
<title>Node8&#45;&gt;Node3</title>
<g id="a_edge10_Node000008_Node000003"><a xlink:title=" ">
<path fill="none" stroke="#63b8ff" d="M156.4,-115.09C124.7,-106.48 69.38,-89.99 54.12,-76 41.1,-64.06 33.29,-45.33 28.92,-31.04"/>
<polygon fill="#63b8ff" stroke="#63b8ff" points="32.4,-30.52 26.41,-21.78 25.65,-32.35 32.4,-30.52"/>
</a>
</g>
</g>
<!-- Node8&#45;&gt;Node4 -->
<g id="edge11_Node000008_Node000004" class="edge">
<title>Node8&#45;&gt;Node4</title>
<g id="a_edge11_Node000008_Node000004"><a xlink:title=" ">
<path fill="none" stroke="#63b8ff" d="M176.48,-111.62C171.49,-93.92 160.59,-55.24 153.85,-31.32"/>
<polygon fill="#63b8ff" stroke="#63b8ff" points="157.25,-30.49 151.17,-21.81 150.52,-32.39 157.25,-30.49"/>
</a>
</g>
</g>
<!-- Node8&#45;&gt;Node7 -->
<g id="edge12_Node000008_Node000007" class="edge">
<title>Node8&#45;&gt;Node7</title>
<g id="a_edge12_Node000008_Node000007"><a xlink:title=" ">
<path fill="none" stroke="#63b8ff" d="M188.53,-111.59C196.04,-104.08 206.77,-93.35 215.82,-84.3"/>
<polygon fill="#63b8ff" stroke="#63b8ff" points="218.16,-86.91 222.76,-77.37 213.21,-81.96 218.16,-86.91"/>
</a>
</g>
</g>
</g>
</svg>
