<?xml version="1.0" encoding="UTF-8" standalone="no"?>
<!DOCTYPE svg PUBLIC "-//W3C//DTD SVG 1.1//EN"
 "http://www.w3.org/Graphics/SVG/1.1/DTD/svg11.dtd">
<!-- Generated by graphviz version 12.2.1 (20241206.2353)
 -->
<!-- Title: C:/Users/emilly/Documents/Lucca/Projetos/Cpp/NikiScript/src/Lexer.cpp Pages: 1 -->
<svg width="690pt" height="276pt"
 viewBox="0.00 0.00 689.64 276.00" xmlns="http://www.w3.org/2000/svg" xmlns:xlink="http://www.w3.org/1999/xlink">
<g id="graph0" class="graph" transform="scale(1 1) rotate(0) translate(4 272)">
<title>C:/Users/emilly/Documents/Lucca/Projetos/Cpp/NikiScript/src/Lexer.cpp</title>
<!-- Node1 -->
<g id="Node000001" class="node">
<title>Node1</title>
<g id="a_Node000001"><a xlink:title=" ">
<polygon fill="#999999" stroke="#666666" points="607.51,-268 456.51,-268 456.51,-224 607.51,-224 607.51,-268"/>
<text text-anchor="start" x="464.51" y="-254.5" font-family="Helvetica,sans-Serif" font-size="10.00">C:/Users/emilly/Documents</text>
<text text-anchor="start" x="464.51" y="-242.5" font-family="Helvetica,sans-Serif" font-size="10.00">/Lucca/Projetos/Cpp/NikiScript</text>
<text text-anchor="middle" x="532.01" y="-230.5" font-family="Helvetica,sans-Serif" font-size="10.00">/src/Lexer.cpp</text>
</a>
</g>
</g>
<!-- Node2 -->
<g id="Node000002" class="node">
<title>Node2</title>
<g id="a_Node000002"><a xlink:href="_lexer_8h.html" target="_top" xlink:title=" ">
<polygon fill="white" stroke="#666666" points="466.14,-132 417.89,-132 417.89,-112 466.14,-112 466.14,-132"/>
<text text-anchor="middle" x="442.01" y="-118.5" font-family="Helvetica,sans-Serif" font-size="10.00">Lexer.h</text>
</a>
</g>
</g>
<!-- Node1&#45;&gt;Node2 -->
<g id="edge1_Node000001_Node000002" class="edge">
<title>Node1&#45;&gt;Node2</title>
<g id="a_edge1_Node000001_Node000002"><a xlink:title=" ">
<path fill="none" stroke="#63b8ff" d="M516.34,-223.75C499.13,-200.42 471.79,-163.36 455.5,-141.29"/>
<polygon fill="#63b8ff" stroke="#63b8ff" points="458.53,-139.49 449.77,-133.52 452.89,-143.64 458.53,-139.49"/>
</a>
</g>
</g>
<!-- Node7 -->
<g id="Node000007" class="node">
<title>Node7</title>
<g id="a_Node000007"><a xlink:title=" ">
<polygon fill="#e0e0e0" stroke="#999999" points="681.64,-20 630.39,-20 630.39,0 681.64,0 681.64,-20"/>
<text text-anchor="middle" x="656.01" y="-6.5" font-family="Helvetica,sans-Serif" font-size="10.00">sstream</text>
</a>
</g>
</g>
<!-- Node1&#45;&gt;Node7 -->
<g id="edge8_Node000001_Node000007" class="edge">
<title>Node1&#45;&gt;Node7</title>
<g id="a_edge8_Node000001_Node000007"><a xlink:title=" ">
<path fill="none" stroke="#63b8ff" d="M557.71,-223.8C581.55,-202.83 616.36,-168.62 637.01,-132 654.89,-100.3 657.36,-56.9 657.03,-31.61"/>
<polygon fill="#63b8ff" stroke="#63b8ff" points="660.53,-31.6 656.71,-21.71 653.53,-31.82 660.53,-31.6"/>
</a>
</g>
</g>
<!-- Node8 -->
<g id="Node000008" class="node">
<title>Node8</title>
<g id="a_Node000008"><a xlink:href="_print_callback_8h.html" target="_top" xlink:title=" ">
<polygon fill="white" stroke="#666666" points="628.39,-132 545.64,-132 545.64,-112 628.39,-112 628.39,-132"/>
<text text-anchor="middle" x="587.01" y="-118.5" font-family="Helvetica,sans-Serif" font-size="10.00">PrintCallback.h</text>
</a>
</g>
</g>
<!-- Node1&#45;&gt;Node8 -->
<g id="edge9_Node000001_Node000008" class="edge">
<title>Node1&#45;&gt;Node8</title>
<g id="a_edge9_Node000001_Node000008"><a xlink:title=" ">
<path fill="none" stroke="#63b8ff" d="M541.59,-223.75C551.92,-200.84 568.22,-164.69 578.22,-142.49"/>
<polygon fill="#63b8ff" stroke="#63b8ff" points="581.28,-144.24 582.2,-133.68 574.9,-141.36 581.28,-144.24"/>
</a>
</g>
</g>
<!-- Node10 -->
<g id="Node000010" class="node">
<title>Node10</title>
<g id="a_Node000010"><a xlink:href="_context_8h.html" target="_top" xlink:title=" ">
<polygon fill="white" stroke="#666666" points="346.39,-188 287.64,-188 287.64,-168 346.39,-168 346.39,-188"/>
<text text-anchor="middle" x="317.01" y="-174.5" font-family="Helvetica,sans-Serif" font-size="10.00">Context.h</text>
</a>
</g>
</g>
<!-- Node1&#45;&gt;Node10 -->
<g id="edge16_Node000001_Node000010" class="edge">
<title>Node1&#45;&gt;Node10</title>
<g id="a_edge16_Node000001_Node000010"><a xlink:title=" ">
<path fill="none" stroke="#63b8ff" d="M462.21,-223.57C427.53,-212.92 386.85,-200.44 357.39,-191.39"/>
<polygon fill="#63b8ff" stroke="#63b8ff" points="358.71,-188.14 348.13,-188.55 356.66,-194.83 358.71,-188.14"/>
</a>
</g>
</g>
<!-- Node3 -->
<g id="Node000003" class="node">
<title>Node3</title>
<g id="a_Node000003"><a xlink:title=" ">
<polygon fill="#e0e0e0" stroke="#999999" points="542.14,-20 493.89,-20 493.89,0 542.14,0 542.14,-20"/>
<text text-anchor="middle" x="518.01" y="-6.5" font-family="Helvetica,sans-Serif" font-size="10.00">stdint.h</text>
</a>
</g>
</g>
<!-- Node2&#45;&gt;Node3 -->
<g id="edge2_Node000002_Node000003" class="edge">
<title>Node2&#45;&gt;Node3</title>
<g id="a_edge2_Node000002_Node000003"><a xlink:title=" ">
<path fill="none" stroke="#63b8ff" d="M448.49,-111.62C461,-93.52 488.68,-53.45 505.09,-29.7"/>
<polygon fill="#63b8ff" stroke="#63b8ff" points="507.88,-31.82 510.69,-21.6 502.13,-27.84 507.88,-31.82"/>
</a>
</g>
</g>
<!-- Node4 -->
<g id="Node000004" class="node">
<title>Node4</title>
<g id="a_Node000004"><a xlink:title=" ">
<polygon fill="#e0e0e0" stroke="#999999" points="409.01,-20 369.01,-20 369.01,0 409.01,0 409.01,-20"/>
<text text-anchor="middle" x="389.01" y="-6.5" font-family="Helvetica,sans-Serif" font-size="10.00">string</text>
</a>
</g>
</g>
<!-- Node2&#45;&gt;Node4 -->
<g id="edge3_Node000002_Node000004" class="edge">
<title>Node2&#45;&gt;Node4</title>
<g id="a_edge3_Node000002_Node000004"><a xlink:title=" ">
<path fill="none" stroke="#63b8ff" d="M440.41,-111.78C437.93,-98.82 432.41,-74.7 423.01,-56 418.2,-46.42 411.28,-36.81 404.94,-28.94"/>
<polygon fill="#63b8ff" stroke="#63b8ff" points="407.78,-26.87 398.66,-21.48 402.43,-31.38 407.78,-26.87"/>
</a>
</g>
</g>
<!-- Node5 -->
<g id="Node000005" class="node">
<title>Node5</title>
<g id="a_Node000005"><a xlink:href="_token_8h.html" target="_top" xlink:title=" ">
<polygon fill="white" stroke="#666666" points="414.26,-76 363.76,-76 363.76,-56 414.26,-56 414.26,-76"/>
<text text-anchor="middle" x="389.01" y="-62.5" font-family="Helvetica,sans-Serif" font-size="10.00">Token.h</text>
</a>
</g>
</g>
<!-- Node2&#45;&gt;Node5 -->
<g id="edge4_Node000002_Node000005" class="edge">
<title>Node2&#45;&gt;Node5</title>
<g id="a_edge4_Node000002_Node000005"><a xlink:title=" ">
<path fill="none" stroke="#63b8ff" d="M432.78,-111.59C425.41,-104.08 414.88,-93.35 406,-84.3"/>
<polygon fill="#63b8ff" stroke="#63b8ff" points="408.7,-82.06 399.2,-77.38 403.71,-86.97 408.7,-82.06"/>
</a>
</g>
</g>
<!-- Node5&#45;&gt;Node3 -->
<g id="edge5_Node000005_Node000003" class="edge">
<title>Node5&#45;&gt;Node3</title>
<g id="a_edge5_Node000005_Node000003"><a xlink:title=" ">
<path fill="none" stroke="#63b8ff" d="M411.48,-55.59C431.8,-47.09 461.97,-34.46 485.02,-24.81"/>
<polygon fill="#63b8ff" stroke="#63b8ff" points="486.1,-28.15 493.97,-21.06 483.4,-21.7 486.1,-28.15"/>
</a>
</g>
</g>
<!-- Node5&#45;&gt;Node4 -->
<g id="edge6_Node000005_Node000004" class="edge">
<title>Node5&#45;&gt;Node4</title>
<g id="a_edge6_Node000005_Node000004"><a xlink:title=" ">
<path fill="none" stroke="#63b8ff" d="M389.01,-55.59C389.01,-49.01 389.01,-39.96 389.01,-31.73"/>
<polygon fill="#63b8ff" stroke="#63b8ff" points="392.51,-31.81 389.01,-21.81 385.51,-31.81 392.51,-31.81"/>
</a>
</g>
</g>
<!-- Node6 -->
<g id="Node000006" class="node">
<title>Node6</title>
<g id="a_Node000006"><a xlink:title=" ">
<polygon fill="#e0e0e0" stroke="#999999" points="281.51,-20 238.51,-20 238.51,0 281.51,0 281.51,-20"/>
<text text-anchor="middle" x="260.01" y="-6.5" font-family="Helvetica,sans-Serif" font-size="10.00">vector</text>
</a>
</g>
</g>
<!-- Node5&#45;&gt;Node6 -->
<g id="edge7_Node000005_Node000006" class="edge">
<title>Node5&#45;&gt;Node6</title>
<g id="a_edge7_Node000005_Node000006"><a xlink:title=" ">
<path fill="none" stroke="#63b8ff" d="M366.54,-55.59C345.98,-46.99 315.32,-34.15 292.16,-24.46"/>
<polygon fill="#63b8ff" stroke="#63b8ff" points="293.77,-21.34 283.19,-20.7 291.06,-27.79 293.77,-21.34"/>
</a>
</g>
</g>
<!-- Node8&#45;&gt;Node3 -->
<g id="edge10_Node000008_Node000003" class="edge">
<title>Node8&#45;&gt;Node3</title>
<g id="a_edge10_Node000008_Node000003"><a xlink:title=" ">
<path fill="none" stroke="#63b8ff" d="M603.45,-111.54C622.94,-99.08 651.1,-76.38 637.01,-56 618.45,-29.13 581.62,-18.29 553.83,-13.92"/>
<polygon fill="#63b8ff" stroke="#63b8ff" points="554.43,-10.47 544.05,-12.62 553.5,-17.41 554.43,-10.47"/>
</a>
</g>
</g>
<!-- Node8&#45;&gt;Node4 -->
<g id="edge11_Node000008_Node000004" class="edge">
<title>Node8&#45;&gt;Node4</title>
<g id="a_edge11_Node000008_Node000004"><a xlink:title=" ">
<path fill="none" stroke="#63b8ff" d="M570.13,-111.62C535.72,-92.5 457.22,-48.89 415.78,-25.87"/>
<polygon fill="#63b8ff" stroke="#63b8ff" points="417.62,-22.89 407.17,-21.09 414.22,-29.01 417.62,-22.89"/>
</a>
</g>
</g>
<!-- Node9 -->
<g id="Node000009" class="node">
<title>Node9</title>
<g id="a_Node000009"><a xlink:href="_utils_8h.html" target="_top" xlink:title=" ">
<polygon fill="white" stroke="#666666" points="628.26,-76 583.76,-76 583.76,-56 628.26,-56 628.26,-76"/>
<text text-anchor="middle" x="606.01" y="-62.5" font-family="Helvetica,sans-Serif" font-size="10.00">Utils.h</text>
</a>
</g>
</g>
<!-- Node8&#45;&gt;Node9 -->
<g id="edge12_Node000008_Node000009" class="edge">
<title>Node8&#45;&gt;Node9</title>
<g id="a_edge12_Node000008_Node000009"><a xlink:title=" ">
<path fill="none" stroke="#63b8ff" d="M590.32,-111.59C592.69,-104.86 595.97,-95.53 598.92,-87.15"/>
<polygon fill="#63b8ff" stroke="#63b8ff" points="602.22,-88.32 602.24,-77.73 595.62,-86 602.22,-88.32"/>
</a>
</g>
</g>
<!-- Node9&#45;&gt;Node3 -->
<g id="edge13_Node000009_Node000003" class="edge">
<title>Node9&#45;&gt;Node3</title>
<g id="a_edge13_Node000009_Node000003"><a xlink:title=" ">
<path fill="none" stroke="#63b8ff" d="M590.68,-55.59C577.52,-47.51 558.28,-35.71 542.9,-26.27"/>
<polygon fill="#63b8ff" stroke="#63b8ff" points="545.1,-23.52 534.75,-21.27 541.44,-29.48 545.1,-23.52"/>
</a>
</g>
</g>
<!-- Node9&#45;&gt;Node4 -->
<g id="edge14_Node000009_Node000004" class="edge">
<title>Node9&#45;&gt;Node4</title>
<g id="a_edge14_Node000009_Node000004"><a xlink:title=" ">
<path fill="none" stroke="#63b8ff" d="M583.55,-59.38C579.06,-58.26 574.39,-57.09 570.01,-56 517.42,-42.89 456.22,-27.68 420.16,-18.73"/>
<polygon fill="#63b8ff" stroke="#63b8ff" points="421.39,-15.43 410.84,-16.42 419.7,-22.22 421.39,-15.43"/>
</a>
</g>
</g>
<!-- Node9&#45;&gt;Node7 -->
<g id="edge15_Node000009_Node000007" class="edge">
<title>Node9&#45;&gt;Node7</title>
<g id="a_edge15_Node000009_Node000007"><a xlink:title=" ">
<path fill="none" stroke="#63b8ff" d="M614.72,-55.59C621.6,-48.16 631.41,-37.58 639.73,-28.58"/>
<polygon fill="#63b8ff" stroke="#63b8ff" points="642.15,-31.12 646.37,-21.41 637.01,-26.37 642.15,-31.12"/>
</a>
</g>
</g>
<!-- Node10&#45;&gt;Node2 -->
<g id="edge35_Node000010_Node000002" class="edge">
<title>Node10&#45;&gt;Node2</title>
<g id="a_edge35_Node000010_Node000002"><a xlink:title=" ">
<path fill="none" stroke="#63b8ff" d="M338.79,-167.59C358.38,-159.13 387.44,-146.58 409.74,-136.94"/>
<polygon fill="#63b8ff" stroke="#63b8ff" points="410.89,-140.26 418.68,-133.08 408.11,-133.83 410.89,-140.26"/>
</a>
</g>
</g>
<!-- Node10&#45;&gt;Node3 -->
<g id="edge18_Node000010_Node000003" class="edge">
<title>Node10&#45;&gt;Node3</title>
<g id="a_edge18_Node000010_Node000003"><a xlink:title=" ">
<path fill="none" stroke="#63b8ff" d="M346.86,-176.39C381.92,-174.08 439.75,-165.07 475.01,-132 503.51,-105.27 513.14,-58.43 516.38,-31.55"/>
<polygon fill="#63b8ff" stroke="#63b8ff" points="519.83,-32.23 517.34,-21.94 512.87,-31.54 519.83,-32.23"/>
</a>
</g>
</g>
<!-- Node10&#45;&gt;Node4 -->
<g id="edge19_Node000010_Node000004" class="edge">
<title>Node10&#45;&gt;Node4</title>
<g id="a_edge19_Node000010_Node000004"><a xlink:title=" ">
<path fill="none" stroke="#63b8ff" d="M318.78,-167.78C323,-146.98 334.85,-95.15 355.01,-56 359.92,-46.47 366.85,-36.86 373.17,-28.98"/>
<polygon fill="#63b8ff" stroke="#63b8ff" points="375.69,-31.43 379.44,-21.51 370.33,-26.93 375.69,-31.43"/>
</a>
</g>
</g>
<!-- Node10&#45;&gt;Node6 -->
<g id="edge17_Node000010_Node000006" class="edge">
<title>Node10&#45;&gt;Node6</title>
<g id="a_edge17_Node000010_Node000006"><a xlink:title=" ">
<path fill="none" stroke="#63b8ff" d="M313.78,-167.6C304.77,-141.35 279.19,-66.84 266.84,-30.89"/>
<polygon fill="#63b8ff" stroke="#63b8ff" points="270.25,-30.05 263.7,-21.73 263.63,-32.32 270.25,-30.05"/>
</a>
</g>
</g>
<!-- Node10&#45;&gt;Node8 -->
<g id="edge29_Node000010_Node000008" class="edge">
<title>Node10&#45;&gt;Node8</title>
<g id="a_edge29_Node000010_Node000008"><a xlink:title=" ">
<path fill="none" stroke="#63b8ff" d="M346.68,-171.07C391.79,-162.04 478.3,-144.74 534.28,-133.55"/>
<polygon fill="#63b8ff" stroke="#63b8ff" points="534.79,-137.01 543.91,-131.62 533.42,-130.15 534.79,-137.01"/>
</a>
</g>
</g>
<!-- Node11 -->
<g id="Node000011" class="node">
<title>Node11</title>
<g id="a_Node000011"><a xlink:title=" ">
<polygon fill="#e0e0e0" stroke="#999999" points="194.39,-76 111.64,-76 111.64,-56 194.39,-56 194.39,-76"/>
<text text-anchor="middle" x="153.01" y="-62.5" font-family="Helvetica,sans-Serif" font-size="10.00">unordered_map</text>
</a>
</g>
</g>
<!-- Node10&#45;&gt;Node11 -->
<g id="edge20_Node000010_Node000011" class="edge">
<title>Node10&#45;&gt;Node11</title>
<g id="a_edge20_Node000010_Node000011"><a xlink:title=" ">
<path fill="none" stroke="#63b8ff" d="M287.37,-176.94C252.74,-175.16 196.22,-166.67 165.01,-132 154.21,-119.99 151.66,-101.54 151.55,-87.36"/>
<polygon fill="#63b8ff" stroke="#63b8ff" points="155.03,-87.89 151.89,-77.77 148.04,-87.65 155.03,-87.89"/>
</a>
</g>
</g>
<!-- Node12 -->
<g id="Node000012" class="node">
<title>Node12</title>
<g id="a_Node000012"><a xlink:href="_command_8h.html" target="_top" xlink:title=" ">
<polygon fill="white" stroke="#666666" points="93.64,-76 24.39,-76 24.39,-56 93.64,-56 93.64,-76"/>
<text text-anchor="middle" x="59.01" y="-62.5" font-family="Helvetica,sans-Serif" font-size="10.00">Command.h</text>
</a>
</g>
</g>
<!-- Node10&#45;&gt;Node12 -->
<g id="edge21_Node000010_Node000012" class="edge">
<title>Node10&#45;&gt;Node12</title>
<g id="a_edge21_Node000010_Node000012"><a xlink:title=" ">
<path fill="none" stroke="#63b8ff" d="M287.37,-177.41C216.69,-177.69 41.42,-174.04 5.01,-132 -9.51,-115.23 11.97,-95.58 31.99,-82.32"/>
<polygon fill="#63b8ff" stroke="#63b8ff" points="33.62,-85.42 40.25,-77.16 29.92,-79.49 33.62,-85.42"/>
</a>
</g>
</g>
<!-- Node14 -->
<g id="Node000014" class="node">
<title>Node14</title>
<g id="a_Node000014"><a xlink:href="_command_handler_8h.html" target="_top" xlink:title=" ">
<polygon fill="white" stroke="#666666" points="117.51,-132 14.51,-132 14.51,-112 117.51,-112 117.51,-132"/>
<text text-anchor="middle" x="66.01" y="-118.5" font-family="Helvetica,sans-Serif" font-size="10.00">CommandHandler.h</text>
</a>
</g>
</g>
<!-- Node10&#45;&gt;Node14 -->
<g id="edge25_Node000010_Node000014" class="edge">
<title>Node10&#45;&gt;Node14</title>
<g id="a_edge25_Node000010_Node000014"><a xlink:title=" ">
<path fill="none" stroke="#63b8ff" d="M287.23,-170.59C246.43,-161.81 172.38,-145.88 121.27,-134.89"/>
<polygon fill="#63b8ff" stroke="#63b8ff" points="122.08,-131.48 111.57,-132.8 120.61,-138.33 122.08,-131.48"/>
</a>
</g>
</g>
<!-- Node15 -->
<g id="Node000015" class="node">
<title>Node15</title>
<g id="a_Node000015"><a xlink:href="_program_variable_8h.html" target="_top" xlink:title=" ">
<polygon fill="white" stroke="#666666" points="269.76,-132 174.26,-132 174.26,-112 269.76,-112 269.76,-132"/>
<text text-anchor="middle" x="222.01" y="-118.5" font-family="Helvetica,sans-Serif" font-size="10.00">ProgramVariable.h</text>
</a>
</g>
</g>
<!-- Node10&#45;&gt;Node15 -->
<g id="edge30_Node000010_Node000015" class="edge">
<title>Node10&#45;&gt;Node15</title>
<g id="a_edge30_Node000010_Node000015"><a xlink:title=" ">
<path fill="none" stroke="#63b8ff" d="M300.47,-167.59C286.11,-159.44 265.08,-147.48 248.41,-138"/>
<polygon fill="#63b8ff" stroke="#63b8ff" points="250.43,-135.13 240.01,-133.23 246.97,-141.21 250.43,-135.13"/>
</a>
</g>
</g>
<!-- Node12&#45;&gt;Node4 -->
<g id="edge24_Node000012_Node000004" class="edge">
<title>Node12&#45;&gt;Node4</title>
<g id="a_edge24_Node000012_Node000004"><a xlink:title=" ">
<path fill="none" stroke="#63b8ff" d="M94.05,-57.68C97.08,-57.1 100.1,-56.53 103.01,-56 195.25,-39.32 304.86,-23.06 357.6,-15.46"/>
<polygon fill="#63b8ff" stroke="#63b8ff" points="357.95,-18.95 367.35,-14.06 356.95,-12.02 357.95,-18.95"/>
</a>
</g>
</g>
<!-- Node12&#45;&gt;Node6 -->
<g id="edge22_Node000012_Node000006" class="edge">
<title>Node12&#45;&gt;Node6</title>
<g id="a_edge22_Node000012_Node000006"><a xlink:title=" ">
<path fill="none" stroke="#63b8ff" d="M94.02,-55.59C131.47,-45.53 190.42,-29.7 227.06,-19.85"/>
<polygon fill="#63b8ff" stroke="#63b8ff" points="227.9,-23.25 236.65,-17.28 226.09,-16.49 227.9,-23.25"/>
</a>
</g>
</g>
<!-- Node13 -->
<g id="Node000013" class="node">
<title>Node13</title>
<g id="a_Node000013"><a xlink:title=" ">
<polygon fill="#e0e0e0" stroke="#999999" points="91.76,-20 26.26,-20 26.26,0 91.76,0 91.76,-20"/>
<text text-anchor="middle" x="59.01" y="-6.5" font-family="Helvetica,sans-Serif" font-size="10.00">string_view</text>
</a>
</g>
</g>
<!-- Node12&#45;&gt;Node13 -->
<g id="edge23_Node000012_Node000013" class="edge">
<title>Node12&#45;&gt;Node13</title>
<g id="a_edge23_Node000012_Node000013"><a xlink:title=" ">
<path fill="none" stroke="#63b8ff" d="M59.01,-55.59C59.01,-49.01 59.01,-39.96 59.01,-31.73"/>
<polygon fill="#63b8ff" stroke="#63b8ff" points="62.51,-31.81 59.01,-21.81 55.51,-31.81 62.51,-31.81"/>
</a>
</g>
</g>
<!-- Node14&#45;&gt;Node11 -->
<g id="edge26_Node000014_Node000011" class="edge">
<title>Node14&#45;&gt;Node11</title>
<g id="a_edge26_Node000014_Node000011"><a xlink:title=" ">
<path fill="none" stroke="#63b8ff" d="M81.17,-111.59C94.06,-103.59 112.84,-91.93 127.97,-82.54"/>
<polygon fill="#63b8ff" stroke="#63b8ff" points="129.8,-85.53 136.45,-77.28 126.11,-79.58 129.8,-85.53"/>
</a>
</g>
</g>
<!-- Node14&#45;&gt;Node12 -->
<g id="edge28_Node000014_Node000012" class="edge">
<title>Node14&#45;&gt;Node12</title>
<g id="a_edge28_Node000014_Node000012"><a xlink:title=" ">
<path fill="none" stroke="#63b8ff" d="M64.79,-111.59C63.93,-104.93 62.74,-95.75 61.66,-87.44"/>
<polygon fill="#63b8ff" stroke="#63b8ff" points="65.17,-87.27 60.41,-77.8 58.23,-88.17 65.17,-87.27"/>
</a>
</g>
</g>
<!-- Node14&#45;&gt;Node13 -->
<g id="edge27_Node000014_Node000013" class="edge">
<title>Node14&#45;&gt;Node13</title>
<g id="a_edge27_Node000014_Node000013"><a xlink:title=" ">
<path fill="none" stroke="#63b8ff" d="M49.29,-111.6C37.27,-103.8 22.01,-91.5 15.01,-76 6.98,-58.21 21.72,-39.97 36.26,-27.36"/>
<polygon fill="#63b8ff" stroke="#63b8ff" points="38.28,-30.22 43.9,-21.24 33.91,-24.76 38.28,-30.22"/>
</a>
</g>
</g>
<!-- Node15&#45;&gt;Node4 -->
<g id="edge31_Node000015_Node000004" class="edge">
<title>Node15&#45;&gt;Node4</title>
<g id="a_edge31_Node000015_Node000004"><a xlink:title=" ">
<path fill="none" stroke="#63b8ff" d="M236.25,-111.62C264.97,-92.71 330.08,-49.82 365.31,-26.61"/>
<polygon fill="#63b8ff" stroke="#63b8ff" points="367.12,-29.61 373.55,-21.19 363.27,-23.77 367.12,-29.61"/>
</a>
</g>
</g>
<!-- Node15&#45;&gt;Node7 -->
<g id="edge33_Node000015_Node000007" class="edge">
<title>Node15&#45;&gt;Node7</title>
<g id="a_edge33_Node000015_Node000007"><a xlink:title=" ">
<path fill="none" stroke="#63b8ff" d="M270.07,-118.76C373.34,-113.54 609.34,-99.18 637.01,-76 649.84,-65.26 654.28,-46.37 655.69,-31.72"/>
<polygon fill="#63b8ff" stroke="#63b8ff" points="659.18,-31.92 656.21,-21.75 652.19,-31.55 659.18,-31.92"/>
</a>
</g>
</g>
<!-- Node15&#45;&gt;Node11 -->
<g id="edge34_Node000015_Node000011" class="edge">
<title>Node15&#45;&gt;Node11</title>
<g id="a_edge34_Node000015_Node000011"><a xlink:title=" ">
<path fill="none" stroke="#63b8ff" d="M209.99,-111.59C200,-103.77 185.55,-92.46 173.7,-83.19"/>
<polygon fill="#63b8ff" stroke="#63b8ff" points="176.12,-80.64 166.09,-77.23 171.8,-86.15 176.12,-80.64"/>
</a>
</g>
</g>
<!-- Node15&#45;&gt;Node13 -->
<g id="edge32_Node000015_Node000013" class="edge">
<title>Node15&#45;&gt;Node13</title>
<g id="a_edge32_Node000015_Node000013"><a xlink:title=" ">
<path fill="none" stroke="#63b8ff" d="M221.93,-111.67C221.28,-97.68 218,-71.27 203.01,-56 176.87,-29.36 135.21,-18.44 103.41,-13.99"/>
<polygon fill="#63b8ff" stroke="#63b8ff" points="104.04,-10.54 93.69,-12.8 103.2,-17.49 104.04,-10.54"/>
</a>
</g>
</g>
</g>
</svg>
