<?xml version="1.0" encoding="UTF-8" standalone="no"?>
<!DOCTYPE svg PUBLIC "-//W3C//DTD SVG 1.1//EN"
 "http://www.w3.org/Graphics/SVG/1.1/DTD/svg11.dtd">
<!-- Generated by graphviz version 12.2.1 (20241206.2353)
 -->
<!-- Title: C:/Users/emilly/Documents/Lucca/Projetos/Cpp/NikiScript/src/Lexer.h Pages: 1 -->
<svg width="1262pt" height="292pt"
 viewBox="0.00 0.00 1262.43 292.00" xmlns="http://www.w3.org/2000/svg" xmlns:xlink="http://www.w3.org/1999/xlink">
<g id="graph0" class="graph" transform="scale(1 1) rotate(0) translate(4 288)">
<title>C:/Users/emilly/Documents/Lucca/Projetos/Cpp/NikiScript/src/Lexer.h</title>
<!-- Node1 -->
<g id="Node000001" class="node">
<title>Node1</title>
<g id="a_Node000001"><a xlink:title=" ">
<polygon fill="#999999" stroke="#666666" points="971.31,-284 820.31,-284 820.31,-240 971.31,-240 971.31,-284"/>
<text text-anchor="start" x="828.31" y="-270.5" font-family="Helvetica,sans-Serif" font-size="10.00">C:/Users/emilly/Documents</text>
<text text-anchor="start" x="828.31" y="-258.5" font-family="Helvetica,sans-Serif" font-size="10.00">/Lucca/Projetos/Cpp/NikiScript</text>
<text text-anchor="middle" x="895.81" y="-246.5" font-family="Helvetica,sans-Serif" font-size="10.00">/src/Lexer.h</text>
</a>
</g>
</g>
<!-- Node2 -->
<g id="Node000002" class="node">
<title>Node2</title>
<g id="a_Node000002"><a xlink:href="example_8cpp.html" target="_top" xlink:title=" ">
<polygon fill="white" stroke="#666666" points="328.31,-44 177.31,-44 177.31,0 328.31,0 328.31,-44"/>
<text text-anchor="start" x="185.31" y="-30.5" font-family="Helvetica,sans-Serif" font-size="10.00">C:/Users/emilly/Documents</text>
<text text-anchor="start" x="185.31" y="-18.5" font-family="Helvetica,sans-Serif" font-size="10.00">/Lucca/Projetos/Cpp/NikiScript</text>
<text text-anchor="middle" x="252.81" y="-6.5" font-family="Helvetica,sans-Serif" font-size="10.00">/example/src/example.cpp</text>
</a>
</g>
</g>
<!-- Node1&#45;&gt;Node2 -->
<g id="edge1_Node000001_Node000002" class="edge">
<title>Node1&#45;&gt;Node2</title>
<g id="a_edge1_Node000001_Node000002"><a xlink:title=" ">
<path fill="none" stroke="#63b8ff" d="M808.62,-261.19C606.23,-259.58 113.98,-243.22 11.81,-124 -39.26,-64.41 88.75,-39.23 177.13,-29.17"/>
<polygon fill="#63b8ff" stroke="#63b8ff" points="808.54,-264.69 818.57,-261.26 808.59,-257.69 808.54,-264.69"/>
</a>
</g>
</g>
<!-- Node3 -->
<g id="Node000003" class="node">
<title>Node3</title>
<g id="a_Node000003"><a xlink:href="_context_8h.html" target="_top" xlink:title=" ">
<polygon fill="white" stroke="#666666" points="718.31,-204 567.31,-204 567.31,-160 718.31,-160 718.31,-204"/>
<text text-anchor="start" x="575.31" y="-190.5" font-family="Helvetica,sans-Serif" font-size="10.00">C:/Users/emilly/Documents</text>
<text text-anchor="start" x="575.31" y="-178.5" font-family="Helvetica,sans-Serif" font-size="10.00">/Lucca/Projetos/Cpp/NikiScript</text>
<text text-anchor="middle" x="642.81" y="-166.5" font-family="Helvetica,sans-Serif" font-size="10.00">/src/Context.h</text>
</a>
</g>
</g>
<!-- Node1&#45;&gt;Node3 -->
<g id="edge2_Node000001_Node000003" class="edge">
<title>Node1&#45;&gt;Node3</title>
<g id="a_edge2_Node000001_Node000003"><a xlink:title=" ">
<path fill="none" stroke="#63b8ff" d="M815.72,-236.31C782.44,-226.05 744.17,-214.25 712.12,-204.37"/>
<polygon fill="#63b8ff" stroke="#63b8ff" points="814.3,-239.54 824.89,-239.14 816.37,-232.85 814.3,-239.54"/>
</a>
</g>
</g>
<!-- Node6 -->
<g id="Node000006" class="node">
<title>Node6</title>
<g id="a_Node000006"><a xlink:href="_lexer_8cpp.html" target="_top" xlink:title=" ">
<polygon fill="white" stroke="#666666" points="1225.31,-124 1074.31,-124 1074.31,-80 1225.31,-80 1225.31,-124"/>
<text text-anchor="start" x="1082.31" y="-110.5" font-family="Helvetica,sans-Serif" font-size="10.00">C:/Users/emilly/Documents</text>
<text text-anchor="start" x="1082.31" y="-98.5" font-family="Helvetica,sans-Serif" font-size="10.00">/Lucca/Projetos/Cpp/NikiScript</text>
<text text-anchor="middle" x="1149.81" y="-86.5" font-family="Helvetica,sans-Serif" font-size="10.00">/src/Lexer.cpp</text>
</a>
</g>
</g>
<!-- Node1&#45;&gt;Node6 -->
<g id="edge16_Node000001_Node000006" class="edge">
<title>Node1&#45;&gt;Node6</title>
<g id="a_edge16_Node000001_Node000006"><a xlink:title=" ">
<path fill="none" stroke="#63b8ff" d="M939.87,-233.59C989.73,-202.58 1069.87,-152.72 1115.36,-124.43"/>
<polygon fill="#63b8ff" stroke="#63b8ff" points="938.25,-230.47 931.61,-238.73 941.95,-236.42 938.25,-230.47"/>
</a>
</g>
</g>
<!-- Node8 -->
<g id="Node000008" class="node">
<title>Node8</title>
<g id="a_Node000008"><a xlink:href="_niki_script_8cpp.html" target="_top" xlink:title=" ">
<polygon fill="white" stroke="#666666" points="523.31,-44 372.31,-44 372.31,0 523.31,0 523.31,-44"/>
<text text-anchor="start" x="380.31" y="-30.5" font-family="Helvetica,sans-Serif" font-size="10.00">C:/Users/emilly/Documents</text>
<text text-anchor="start" x="380.31" y="-18.5" font-family="Helvetica,sans-Serif" font-size="10.00">/Lucca/Projetos/Cpp/NikiScript</text>
<text text-anchor="middle" x="447.81" y="-6.5" font-family="Helvetica,sans-Serif" font-size="10.00">/src/NikiScript.cpp</text>
</a>
</g>
</g>
<!-- Node1&#45;&gt;Node8 -->
<g id="edge17_Node000001_Node000008" class="edge">
<title>Node1&#45;&gt;Node8</title>
<g id="a_edge17_Node000001_Node000008"><a xlink:title=" ">
<path fill="none" stroke="#63b8ff" d="M982.84,-246.92C1109.03,-223.1 1319,-168.62 1234.81,-80 1181.01,-23.38 610.07,-55.42 532.81,-44 529.8,-43.56 526.74,-43.05 523.66,-42.5"/>
<polygon fill="#63b8ff" stroke="#63b8ff" points="982.34,-243.45 973.14,-248.72 983.61,-250.34 982.34,-243.45"/>
</a>
</g>
</g>
<!-- Node3&#45;&gt;Node2 -->
<g id="edge3_Node000003_Node000002" class="edge">
<title>Node3&#45;&gt;Node2</title>
<g id="a_edge3_Node000003_Node000002"><a xlink:title=" ">
<path fill="none" stroke="#63b8ff" d="M555.8,-175.29C438.71,-166.71 242.49,-148.81 220.81,-124 201.08,-101.43 219.44,-66.65 235.39,-44.37"/>
<polygon fill="#63b8ff" stroke="#63b8ff" points="555.48,-178.78 565.71,-176.01 555.99,-171.8 555.48,-178.78"/>
</a>
</g>
</g>
<!-- Node4 -->
<g id="Node000004" class="node">
<title>Node4</title>
<g id="a_Node000004"><a xlink:href="_command_handler_8cpp.html" target="_top" xlink:title=" ">
<polygon fill="white" stroke="#666666" points="718.31,-124 567.31,-124 567.31,-80 718.31,-80 718.31,-124"/>
<text text-anchor="start" x="575.31" y="-110.5" font-family="Helvetica,sans-Serif" font-size="10.00">C:/Users/emilly/Documents</text>
<text text-anchor="start" x="575.31" y="-98.5" font-family="Helvetica,sans-Serif" font-size="10.00">/Lucca/Projetos/Cpp/NikiScript</text>
<text text-anchor="middle" x="642.81" y="-86.5" font-family="Helvetica,sans-Serif" font-size="10.00">/src/CommandHandler.cpp</text>
</a>
</g>
</g>
<!-- Node3&#45;&gt;Node4 -->
<g id="edge4_Node000003_Node000004" class="edge">
<title>Node3&#45;&gt;Node4</title>
<g id="a_edge4_Node000003_Node000004"><a xlink:title=" ">
<path fill="none" stroke="#63b8ff" d="M642.81,-148.25C642.81,-140.15 642.81,-131.68 642.81,-124.29"/>
<polygon fill="#63b8ff" stroke="#63b8ff" points="639.31,-148.17 642.81,-158.17 646.31,-148.17 639.31,-148.17"/>
</a>
</g>
</g>
<!-- Node5 -->
<g id="Node000005" class="node">
<title>Node5</title>
<g id="a_Node000005"><a xlink:href="_context_8cpp.html" target="_top" xlink:title=" ">
<polygon fill="white" stroke="#666666" points="887.31,-124 736.31,-124 736.31,-80 887.31,-80 887.31,-124"/>
<text text-anchor="start" x="744.31" y="-110.5" font-family="Helvetica,sans-Serif" font-size="10.00">C:/Users/emilly/Documents</text>
<text text-anchor="start" x="744.31" y="-98.5" font-family="Helvetica,sans-Serif" font-size="10.00">/Lucca/Projetos/Cpp/NikiScript</text>
<text text-anchor="middle" x="811.81" y="-86.5" font-family="Helvetica,sans-Serif" font-size="10.00">/src/Context.cpp</text>
</a>
</g>
</g>
<!-- Node3&#45;&gt;Node5 -->
<g id="edge5_Node000003_Node000005" class="edge">
<title>Node3&#45;&gt;Node5</title>
<g id="a_edge5_Node000003_Node000005"><a xlink:title=" ">
<path fill="none" stroke="#63b8ff" d="M699.28,-154.93C720.75,-145.02 744.95,-133.86 765.39,-124.42"/>
<polygon fill="#63b8ff" stroke="#63b8ff" points="697.97,-151.68 690.36,-159.05 700.91,-158.04 697.97,-151.68"/>
</a>
</g>
</g>
<!-- Node3&#45;&gt;Node6 -->
<g id="edge6_Node000003_Node000006" class="edge">
<title>Node3&#45;&gt;Node6</title>
<g id="a_edge6_Node000003_Node000006"><a xlink:title=" ">
<path fill="none" stroke="#63b8ff" d="M729.74,-172.14C815.57,-162.73 950.36,-146.14 1065.81,-124 1068.46,-123.49 1071.16,-122.95 1073.88,-122.38"/>
<polygon fill="#63b8ff" stroke="#63b8ff" points="729.55,-168.64 719.98,-173.2 730.3,-175.6 729.55,-168.64"/>
</a>
</g>
</g>
<!-- Node7 -->
<g id="Node000007" class="node">
<title>Node7</title>
<g id="a_Node000007"><a xlink:href="_niki_script_8h.html" target="_top" xlink:title=" ">
<polygon fill="white" stroke="#666666" points="380.31,-124 229.31,-124 229.31,-80 380.31,-80 380.31,-124"/>
<text text-anchor="start" x="237.31" y="-110.5" font-family="Helvetica,sans-Serif" font-size="10.00">C:/Users/emilly/Documents</text>
<text text-anchor="start" x="237.31" y="-98.5" font-family="Helvetica,sans-Serif" font-size="10.00">/Lucca/Projetos/Cpp/NikiScript</text>
<text text-anchor="middle" x="304.81" y="-86.5" font-family="Helvetica,sans-Serif" font-size="10.00">/src/NikiScript.h</text>
</a>
</g>
</g>
<!-- Node3&#45;&gt;Node7 -->
<g id="edge7_Node000003_Node000007" class="edge">
<title>Node3&#45;&gt;Node7</title>
<g id="a_edge7_Node000003_Node000007"><a xlink:title=" ">
<path fill="none" stroke="#63b8ff" d="M555.71,-161.84C506.88,-150.99 444.89,-137.01 389.81,-124 386.85,-123.3 383.83,-122.58 380.79,-121.85"/>
<polygon fill="#63b8ff" stroke="#63b8ff" points="554.88,-165.24 565.4,-163.99 556.4,-158.41 554.88,-165.24"/>
</a>
</g>
</g>
<!-- Node9 -->
<g id="Node000009" class="node">
<title>Node9</title>
<g id="a_Node000009"><a xlink:href="_parser_8h.html" target="_top" xlink:title=" ">
<polygon fill="white" stroke="#666666" points="549.31,-124 398.31,-124 398.31,-80 549.31,-80 549.31,-124"/>
<text text-anchor="start" x="406.31" y="-110.5" font-family="Helvetica,sans-Serif" font-size="10.00">C:/Users/emilly/Documents</text>
<text text-anchor="start" x="406.31" y="-98.5" font-family="Helvetica,sans-Serif" font-size="10.00">/Lucca/Projetos/Cpp/NikiScript</text>
<text text-anchor="middle" x="473.81" y="-86.5" font-family="Helvetica,sans-Serif" font-size="10.00">/src/Parser.h</text>
</a>
</g>
</g>
<!-- Node3&#45;&gt;Node9 -->
<g id="edge10_Node000003_Node000009" class="edge">
<title>Node3&#45;&gt;Node9</title>
<g id="a_edge10_Node000003_Node000009"><a xlink:title=" ">
<path fill="none" stroke="#63b8ff" d="M586.33,-154.93C564.86,-145.02 540.66,-133.86 520.22,-124.42"/>
<polygon fill="#63b8ff" stroke="#63b8ff" points="584.71,-158.04 595.25,-159.05 587.64,-151.68 584.71,-158.04"/>
</a>
</g>
</g>
<!-- Node11 -->
<g id="Node000011" class="node">
<title>Node11</title>
<g id="a_Node000011"><a xlink:href="_program_variable_8cpp.html" target="_top" xlink:title=" ">
<polygon fill="white" stroke="#666666" points="1056.31,-124 905.31,-124 905.31,-80 1056.31,-80 1056.31,-124"/>
<text text-anchor="start" x="913.31" y="-110.5" font-family="Helvetica,sans-Serif" font-size="10.00">C:/Users/emilly/Documents</text>
<text text-anchor="start" x="913.31" y="-98.5" font-family="Helvetica,sans-Serif" font-size="10.00">/Lucca/Projetos/Cpp/NikiScript</text>
<text text-anchor="middle" x="980.81" y="-86.5" font-family="Helvetica,sans-Serif" font-size="10.00">/src/ProgramVariable.cpp</text>
</a>
</g>
</g>
<!-- Node3&#45;&gt;Node11 -->
<g id="edge14_Node000003_Node000011" class="edge">
<title>Node3&#45;&gt;Node11</title>
<g id="a_edge14_Node000003_Node000011"><a xlink:title=" ">
<path fill="none" stroke="#63b8ff" d="M729.99,-161.98C779.06,-151.14 841.42,-137.13 896.81,-124 899.44,-123.38 902.12,-122.74 904.82,-122.08"/>
<polygon fill="#63b8ff" stroke="#63b8ff" points="729.26,-158.56 720.25,-164.13 730.77,-165.39 729.26,-158.56"/>
</a>
</g>
</g>
<!-- Node12 -->
<g id="Node000012" class="node">
<title>Node12</title>
<g id="a_Node000012"><a xlink:href="_token_8cpp.html" target="_top" xlink:title=" ">
<polygon fill="white" stroke="#666666" points="172.31,-124 21.31,-124 21.31,-80 172.31,-80 172.31,-124"/>
<text text-anchor="start" x="29.31" y="-110.5" font-family="Helvetica,sans-Serif" font-size="10.00">C:/Users/emilly/Documents</text>
<text text-anchor="start" x="29.31" y="-98.5" font-family="Helvetica,sans-Serif" font-size="10.00">/Lucca/Projetos/Cpp/NikiScript</text>
<text text-anchor="middle" x="96.81" y="-86.5" font-family="Helvetica,sans-Serif" font-size="10.00">/src/Token.cpp</text>
</a>
</g>
</g>
<!-- Node3&#45;&gt;Node12 -->
<g id="edge15_Node000003_Node000012" class="edge">
<title>Node3&#45;&gt;Node12</title>
<g id="a_edge15_Node000003_Node000012"><a xlink:title=" ">
<path fill="none" stroke="#63b8ff" d="M555.78,-172.86C463.72,-163.62 314.41,-146.8 186.81,-124 182.23,-123.18 177.53,-122.28 172.8,-121.32"/>
<polygon fill="#63b8ff" stroke="#63b8ff" points="555.19,-176.32 565.49,-173.83 555.89,-169.36 555.19,-176.32"/>
</a>
</g>
</g>
<!-- Node7&#45;&gt;Node2 -->
<g id="edge8_Node000007_Node000002" class="edge">
<title>Node7&#45;&gt;Node2</title>
<g id="a_edge8_Node000007_Node000002"><a xlink:title=" ">
<path fill="none" stroke="#63b8ff" d="M284.29,-70.22C278.5,-61.54 272.33,-52.28 267,-44.29"/>
<polygon fill="#63b8ff" stroke="#63b8ff" points="281.3,-72.05 289.76,-78.43 287.12,-68.16 281.3,-72.05"/>
</a>
</g>
</g>
<!-- Node7&#45;&gt;Node8 -->
<g id="edge9_Node000007_Node000008" class="edge">
<title>Node7&#45;&gt;Node8</title>
<g id="a_edge9_Node000007_Node000008"><a xlink:title=" ">
<path fill="none" stroke="#63b8ff" d="M353.88,-74.23C371.81,-64.45 391.84,-53.53 408.78,-44.29"/>
<polygon fill="#63b8ff" stroke="#63b8ff" points="352.31,-71.1 345.21,-78.96 355.66,-77.25 352.31,-71.1"/>
</a>
</g>
</g>
<!-- Node9&#45;&gt;Node2 -->
<g id="edge11_Node000009_Node000002" class="edge">
<title>Node9&#45;&gt;Node2</title>
<g id="a_edge11_Node000009_Node000002"><a xlink:title=" ">
<path fill="none" stroke="#63b8ff" d="M402.34,-75.78C373.62,-65.64 340.87,-54.08 313.35,-44.37"/>
<polygon fill="#63b8ff" stroke="#63b8ff" points="401.1,-79.05 411.7,-79.08 403.43,-72.45 401.1,-79.05"/>
</a>
</g>
</g>
<!-- Node9&#45;&gt;Node8 -->
<g id="edge12_Node000009_Node000008" class="edge">
<title>Node9&#45;&gt;Node8</title>
<g id="a_edge12_Node000009_Node000008"><a xlink:title=" ">
<path fill="none" stroke="#63b8ff" d="M463.08,-68.82C460.32,-60.54 457.42,-51.85 454.9,-44.29"/>
<polygon fill="#63b8ff" stroke="#63b8ff" points="459.74,-69.87 466.22,-78.25 466.38,-67.66 459.74,-69.87"/>
</a>
</g>
</g>
<!-- Node10 -->
<g id="Node000010" class="node">
<title>Node10</title>
<g id="a_Node000010"><a xlink:href="_parser_8cpp.html" target="_top" xlink:title=" ">
<polygon fill="white" stroke="#666666" points="692.31,-44 541.31,-44 541.31,0 692.31,0 692.31,-44"/>
<text text-anchor="start" x="549.31" y="-30.5" font-family="Helvetica,sans-Serif" font-size="10.00">C:/Users/emilly/Documents</text>
<text text-anchor="start" x="549.31" y="-18.5" font-family="Helvetica,sans-Serif" font-size="10.00">/Lucca/Projetos/Cpp/NikiScript</text>
<text text-anchor="middle" x="616.81" y="-6.5" font-family="Helvetica,sans-Serif" font-size="10.00">/src/Parser.cpp</text>
</a>
</g>
</g>
<!-- Node9&#45;&gt;Node10 -->
<g id="edge13_Node000009_Node000010" class="edge">
<title>Node9&#45;&gt;Node10</title>
<g id="a_edge13_Node000009_Node000010"><a xlink:title=" ">
<path fill="none" stroke="#63b8ff" d="M522.88,-74.23C540.81,-64.45 560.84,-53.53 577.78,-44.29"/>
<polygon fill="#63b8ff" stroke="#63b8ff" points="521.31,-71.1 514.21,-78.96 524.66,-77.25 521.31,-71.1"/>
</a>
</g>
</g>
</g>
</svg>
