<?xml version="1.0" encoding="UTF-8" standalone="no"?>
<!DOCTYPE svg PUBLIC "-//W3C//DTD SVG 1.1//EN"
 "http://www.w3.org/Graphics/SVG/1.1/DTD/svg11.dtd">
<!-- Generated by graphviz version 12.2.1 (20241206.2353)
 -->
<!-- Title: C:/Users/emilly/Documents/Lucca/Projetos/Cpp/NikiScript/src/Lexer.cpp Pages: 1 -->
<svg width="691pt" height="276pt"
 viewBox="0.00 0.00 691.19 276.00" xmlns="http://www.w3.org/2000/svg" xmlns:xlink="http://www.w3.org/1999/xlink">
<g id="graph0" class="graph" transform="scale(1 1) rotate(0) translate(4 272)">
<title>C:/Users/emilly/Documents/Lucca/Projetos/Cpp/NikiScript/src/Lexer.cpp</title>
<!-- Node1 -->
<g id="Node000001" class="node">
<title>Node1</title>
<g id="a_Node000001"><a xlink:title=" ">
<polygon fill="#999999" stroke="#666666" points="277.19,-268 126.19,-268 126.19,-224 277.19,-224 277.19,-268"/>
<text text-anchor="start" x="134.19" y="-254.5" font-family="Helvetica,sans-Serif" font-size="10.00">C:/Users/emilly/Documents</text>
<text text-anchor="start" x="134.19" y="-242.5" font-family="Helvetica,sans-Serif" font-size="10.00">/Lucca/Projetos/Cpp/NikiScript</text>
<text text-anchor="middle" x="201.69" y="-230.5" font-family="Helvetica,sans-Serif" font-size="10.00">/src/Lexer.cpp</text>
</a>
</g>
</g>
<!-- Node2 -->
<g id="Node000002" class="node">
<title>Node2</title>
<g id="a_Node000002"><a xlink:href="_lexer_8h.html" target="_top" xlink:title=" ">
<polygon fill="white" stroke="#666666" points="257.81,-132 209.56,-132 209.56,-112 257.81,-112 257.81,-132"/>
<text text-anchor="middle" x="233.69" y="-118.5" font-family="Helvetica,sans-Serif" font-size="10.00">Lexer.h</text>
</a>
</g>
</g>
<!-- Node1&#45;&gt;Node2 -->
<g id="edge1_Node000001_Node000002" class="edge">
<title>Node1&#45;&gt;Node2</title>
<g id="a_edge1_Node000001_Node000002"><a xlink:title=" ">
<path fill="none" stroke="#63b8ff" d="M207.26,-223.75C213.19,-201.16 222.49,-165.69 228.33,-143.42"/>
<polygon fill="#63b8ff" stroke="#63b8ff" points="231.71,-144.33 230.86,-133.77 224.94,-142.55 231.71,-144.33"/>
</a>
</g>
</g>
<!-- Node7 -->
<g id="Node000007" class="node">
<title>Node7</title>
<g id="a_Node000007"><a xlink:title=" ">
<polygon fill="#e0e0e0" stroke="#999999" points="56.31,-20 5.06,-20 5.06,0 56.31,0 56.31,-20"/>
<text text-anchor="middle" x="30.69" y="-6.5" font-family="Helvetica,sans-Serif" font-size="10.00">sstream</text>
</a>
</g>
</g>
<!-- Node1&#45;&gt;Node7 -->
<g id="edge8_Node000001_Node000007" class="edge">
<title>Node1&#45;&gt;Node7</title>
<g id="a_edge8_Node000001_Node000007"><a xlink:title=" ">
<path fill="none" stroke="#63b8ff" d="M163.73,-223.62C129.19,-203.01 78.05,-169.5 40.69,-132 19.28,-110.51 10.77,-104.94 1.69,-76 -3.44,-59.65 5.49,-41.95 14.76,-29.15"/>
<polygon fill="#63b8ff" stroke="#63b8ff" points="17.27,-31.61 20.74,-21.61 11.79,-27.26 17.27,-31.61"/>
</a>
</g>
</g>
<!-- Node8 -->
<g id="Node000008" class="node">
<title>Node8</title>
<g id="a_Node000008"><a xlink:href="_print_callback_8h.html" target="_top" xlink:title=" ">
<polygon fill="white" stroke="#666666" points="191.06,-132 108.31,-132 108.31,-112 191.06,-112 191.06,-132"/>
<text text-anchor="middle" x="149.69" y="-118.5" font-family="Helvetica,sans-Serif" font-size="10.00">PrintCallback.h</text>
</a>
</g>
</g>
<!-- Node1&#45;&gt;Node8 -->
<g id="edge9_Node000001_Node000008" class="edge">
<title>Node1&#45;&gt;Node8</title>
<g id="a_edge9_Node000001_Node000008"><a xlink:title=" ">
<path fill="none" stroke="#63b8ff" d="M192.63,-223.75C182.91,-200.95 167.6,-165.03 158.13,-142.8"/>
<polygon fill="#63b8ff" stroke="#63b8ff" points="161.39,-141.52 154.24,-133.69 154.95,-144.27 161.39,-141.52"/>
</a>
</g>
</g>
<!-- Node10 -->
<g id="Node000010" class="node">
<title>Node10</title>
<g id="a_Node000010"><a xlink:href="_context_8h.html" target="_top" xlink:title=" ">
<polygon fill="white" stroke="#666666" points="360.06,-188 301.31,-188 301.31,-168 360.06,-168 360.06,-188"/>
<text text-anchor="middle" x="330.69" y="-174.5" font-family="Helvetica,sans-Serif" font-size="10.00">Context.h</text>
</a>
</g>
</g>
<!-- Node1&#45;&gt;Node10 -->
<g id="edge16_Node000001_Node000010" class="edge">
<title>Node1&#45;&gt;Node10</title>
<g id="a_edge16_Node000001_Node000010"><a xlink:title=" ">
<path fill="none" stroke="#63b8ff" d="M243.57,-223.57C262.82,-213.72 285.15,-202.3 302.38,-193.48"/>
<polygon fill="#63b8ff" stroke="#63b8ff" points="303.73,-196.73 311.03,-189.05 300.54,-190.49 303.73,-196.73"/>
</a>
</g>
</g>
<!-- Node3 -->
<g id="Node000003" class="node">
<title>Node3</title>
<g id="a_Node000003"><a xlink:title=" ">
<polygon fill="#e0e0e0" stroke="#999999" points="122.81,-20 74.56,-20 74.56,0 122.81,0 122.81,-20"/>
<text text-anchor="middle" x="98.69" y="-6.5" font-family="Helvetica,sans-Serif" font-size="10.00">stdint.h</text>
</a>
</g>
</g>
<!-- Node2&#45;&gt;Node3 -->
<g id="edge2_Node000002_Node000003" class="edge">
<title>Node2&#45;&gt;Node3</title>
<g id="a_edge2_Node000002_Node000003"><a xlink:title=" ">
<path fill="none" stroke="#63b8ff" d="M222.18,-111.62C199.26,-92.95 147.68,-50.92 118.96,-27.52"/>
<polygon fill="#63b8ff" stroke="#63b8ff" points="121.3,-24.91 111.34,-21.31 116.88,-30.34 121.3,-24.91"/>
</a>
</g>
</g>
<!-- Node4 -->
<g id="Node000004" class="node">
<title>Node4</title>
<g id="a_Node000004"><a xlink:title=" ">
<polygon fill="#e0e0e0" stroke="#999999" points="291.69,-20 251.69,-20 251.69,0 291.69,0 291.69,-20"/>
<text text-anchor="middle" x="271.69" y="-6.5" font-family="Helvetica,sans-Serif" font-size="10.00">string</text>
</a>
</g>
</g>
<!-- Node2&#45;&gt;Node4 -->
<g id="edge3_Node000002_Node000004" class="edge">
<title>Node2&#45;&gt;Node4</title>
<g id="a_edge3_Node000002_Node000004"><a xlink:title=" ">
<path fill="none" stroke="#63b8ff" d="M237.93,-111.81C242.01,-102.81 248.19,-88.62 252.69,-76 257.94,-61.23 262.88,-44.2 266.4,-31.29"/>
<polygon fill="#63b8ff" stroke="#63b8ff" points="269.73,-32.39 268.92,-21.83 262.97,-30.59 269.73,-32.39"/>
</a>
</g>
</g>
<!-- Node5 -->
<g id="Node000005" class="node">
<title>Node5</title>
<g id="a_Node000005"><a xlink:href="_token_8h.html" target="_top" xlink:title=" ">
<polygon fill="white" stroke="#666666" points="243.94,-76 193.44,-76 193.44,-56 243.94,-56 243.94,-76"/>
<text text-anchor="middle" x="218.69" y="-62.5" font-family="Helvetica,sans-Serif" font-size="10.00">Token.h</text>
</a>
</g>
</g>
<!-- Node2&#45;&gt;Node5 -->
<g id="edge4_Node000002_Node000005" class="edge">
<title>Node2&#45;&gt;Node5</title>
<g id="a_edge4_Node000002_Node000005"><a xlink:title=" ">
<path fill="none" stroke="#63b8ff" d="M231.07,-111.59C229.2,-104.86 226.61,-95.53 224.28,-87.15"/>
<polygon fill="#63b8ff" stroke="#63b8ff" points="227.72,-86.46 221.67,-77.76 220.98,-88.33 227.72,-86.46"/>
</a>
</g>
</g>
<!-- Node5&#45;&gt;Node3 -->
<g id="edge5_Node000005_Node000003" class="edge">
<title>Node5&#45;&gt;Node3</title>
<g id="a_edge5_Node000005_Node000003"><a xlink:title=" ">
<path fill="none" stroke="#63b8ff" d="M197.78,-55.59C179.06,-47.17 151.33,-34.69 129.96,-25.07"/>
<polygon fill="#63b8ff" stroke="#63b8ff" points="131.69,-22.01 121.13,-21.1 128.82,-28.4 131.69,-22.01"/>
</a>
</g>
</g>
<!-- Node5&#45;&gt;Node4 -->
<g id="edge6_Node000005_Node000004" class="edge">
<title>Node5&#45;&gt;Node4</title>
<g id="a_edge6_Node000005_Node000004"><a xlink:title=" ">
<path fill="none" stroke="#63b8ff" d="M227.92,-55.59C235.29,-48.08 245.82,-37.35 254.7,-28.3"/>
<polygon fill="#63b8ff" stroke="#63b8ff" points="256.99,-30.97 261.5,-21.38 252,-26.06 256.99,-30.97"/>
</a>
</g>
</g>
<!-- Node6 -->
<g id="Node000006" class="node">
<title>Node6</title>
<g id="a_Node000006"><a xlink:title=" ">
<polygon fill="#e0e0e0" stroke="#999999" points="621.06,-20 538.31,-20 538.31,0 621.06,0 621.06,-20"/>
<text text-anchor="middle" x="579.69" y="-6.5" font-family="Helvetica,sans-Serif" font-size="10.00">unordered_map</text>
</a>
</g>
</g>
<!-- Node5&#45;&gt;Node6 -->
<g id="edge7_Node000005_Node000006" class="edge">
<title>Node5&#45;&gt;Node6</title>
<g id="a_edge7_Node000005_Node000006"><a xlink:title=" ">
<path fill="none" stroke="#63b8ff" d="M244.36,-61.5C295.66,-54.45 414.75,-37.84 526.81,-20.09"/>
<polygon fill="#63b8ff" stroke="#63b8ff" points="527.16,-23.58 536.49,-18.56 526.06,-16.67 527.16,-23.58"/>
</a>
</g>
</g>
<!-- Node8&#45;&gt;Node3 -->
<g id="edge10_Node000008_Node000003" class="edge">
<title>Node8&#45;&gt;Node3</title>
<g id="a_edge10_Node000008_Node000003"><a xlink:title=" ">
<path fill="none" stroke="#63b8ff" d="M139.97,-111.53C131.76,-102.99 120.31,-89.69 113.69,-76 106.88,-61.94 103.08,-44.65 101.01,-31.44"/>
<polygon fill="#63b8ff" stroke="#63b8ff" points="104.51,-31.2 99.72,-21.76 97.57,-32.13 104.51,-31.2"/>
</a>
</g>
</g>
<!-- Node8&#45;&gt;Node4 -->
<g id="edge11_Node000008_Node000004" class="edge">
<title>Node8&#45;&gt;Node4</title>
<g id="a_edge11_Node000008_Node000004"><a xlink:title=" ">
<path fill="none" stroke="#63b8ff" d="M152.6,-111.95C157.38,-98.31 168.06,-72.36 184.69,-56 200.45,-40.5 222.64,-29.13 240.67,-21.7"/>
<polygon fill="#63b8ff" stroke="#63b8ff" points="241.8,-25.02 249.85,-18.13 239.26,-18.5 241.8,-25.02"/>
</a>
</g>
</g>
<!-- Node9 -->
<g id="Node000009" class="node">
<title>Node9</title>
<g id="a_Node000009"><a xlink:href="_utils_8h.html" target="_top" xlink:title=" ">
<polygon fill="white" stroke="#666666" points="61.94,-76 17.44,-76 17.44,-56 61.94,-56 61.94,-76"/>
<text text-anchor="middle" x="39.69" y="-62.5" font-family="Helvetica,sans-Serif" font-size="10.00">Utils.h</text>
</a>
</g>
</g>
<!-- Node8&#45;&gt;Node9 -->
<g id="edge12_Node000008_Node000009" class="edge">
<title>Node8&#45;&gt;Node9</title>
<g id="a_edge12_Node000008_Node000009"><a xlink:title=" ">
<path fill="none" stroke="#63b8ff" d="M130.53,-111.59C113.59,-103.28 88.64,-91.03 69.16,-81.47"/>
<polygon fill="#63b8ff" stroke="#63b8ff" points="70.87,-78.41 60.36,-77.15 67.79,-84.7 70.87,-78.41"/>
</a>
</g>
</g>
<!-- Node9&#45;&gt;Node3 -->
<g id="edge13_Node000009_Node000003" class="edge">
<title>Node9&#45;&gt;Node3</title>
<g id="a_edge13_Node000009_Node000003"><a xlink:title=" ">
<path fill="none" stroke="#63b8ff" d="M49.96,-55.59C58.25,-48.01 70.13,-37.13 80.09,-28.02"/>
<polygon fill="#63b8ff" stroke="#63b8ff" points="82.4,-30.65 87.41,-21.32 77.67,-25.49 82.4,-30.65"/>
</a>
</g>
</g>
<!-- Node9&#45;&gt;Node4 -->
<g id="edge14_Node000009_Node000004" class="edge">
<title>Node9&#45;&gt;Node4</title>
<g id="a_edge14_Node000009_Node000004"><a xlink:title=" ">
<path fill="none" stroke="#63b8ff" d="M62.35,-59.72C103.98,-50.04 192.67,-29.39 240.14,-18.34"/>
<polygon fill="#63b8ff" stroke="#63b8ff" points="240.85,-21.77 249.8,-16.09 239.27,-14.95 240.85,-21.77"/>
</a>
</g>
</g>
<!-- Node9&#45;&gt;Node7 -->
<g id="edge15_Node000009_Node000007" class="edge">
<title>Node9&#45;&gt;Node7</title>
<g id="a_edge15_Node000009_Node000007"><a xlink:title=" ">
<path fill="none" stroke="#63b8ff" d="M38.12,-55.59C37.01,-48.93 35.48,-39.75 34.09,-31.44"/>
<polygon fill="#63b8ff" stroke="#63b8ff" points="37.58,-31.08 32.49,-21.79 30.68,-32.23 37.58,-31.08"/>
</a>
</g>
</g>
<!-- Node10&#45;&gt;Node2 -->
<g id="edge35_Node000010_Node000002" class="edge">
<title>Node10&#45;&gt;Node2</title>
<g id="a_edge35_Node000010_Node000002"><a xlink:title=" ">
<path fill="none" stroke="#63b8ff" d="M313.79,-167.59C299.14,-159.44 277.67,-147.48 260.64,-138"/>
<polygon fill="#63b8ff" stroke="#63b8ff" points="262.48,-135.02 252.04,-133.22 259.07,-141.14 262.48,-135.02"/>
</a>
</g>
</g>
<!-- Node10&#45;&gt;Node3 -->
<g id="edge18_Node000010_Node000003" class="edge">
<title>Node10&#45;&gt;Node3</title>
<g id="a_edge18_Node000010_Node000003"><a xlink:title=" ">
<path fill="none" stroke="#63b8ff" d="M300.94,-174.63C256.01,-170.31 168.77,-158.96 99.69,-132 55.45,-114.74 31.85,-117.46 8.69,-76 4.35,-68.24 4.01,-63.56 8.69,-56 15.08,-45.66 41.14,-33.25 63.58,-24.09"/>
<polygon fill="#63b8ff" stroke="#63b8ff" points="64.79,-27.38 72.8,-20.44 62.21,-20.87 64.79,-27.38"/>
</a>
</g>
</g>
<!-- Node10&#45;&gt;Node4 -->
<g id="edge19_Node000010_Node000004" class="edge">
<title>Node10&#45;&gt;Node4</title>
<g id="a_edge19_Node000010_Node000004"><a xlink:title=" ">
<path fill="none" stroke="#63b8ff" d="M327.35,-167.6C318.02,-141.35 291.53,-66.84 278.75,-30.89"/>
<polygon fill="#63b8ff" stroke="#63b8ff" points="282.14,-29.97 275.5,-21.72 275.55,-32.32 282.14,-29.97"/>
</a>
</g>
</g>
<!-- Node10&#45;&gt;Node6 -->
<g id="edge20_Node000010_Node000006" class="edge">
<title>Node10&#45;&gt;Node6</title>
<g id="a_edge20_Node000010_Node000006"><a xlink:title=" ">
<path fill="none" stroke="#63b8ff" d="M360.53,-175.41C416.8,-171.77 535.36,-160.79 562.69,-132 588.28,-105.04 586.8,-58.29 583.32,-31.48"/>
<polygon fill="#63b8ff" stroke="#63b8ff" points="586.82,-31.24 581.84,-21.89 579.91,-32.31 586.82,-31.24"/>
</a>
</g>
</g>
<!-- Node10&#45;&gt;Node8 -->
<g id="edge29_Node000010_Node000008" class="edge">
<title>Node10&#45;&gt;Node8</title>
<g id="a_edge29_Node000010_Node000008"><a xlink:title=" ">
<path fill="none" stroke="#63b8ff" d="M301.2,-168.2C271.59,-159.37 225.67,-145.67 192.14,-135.67"/>
<polygon fill="#63b8ff" stroke="#63b8ff" points="193.32,-132.37 182.74,-132.86 191.32,-139.07 193.32,-132.37"/>
</a>
</g>
</g>
<!-- Node11 -->
<g id="Node000011" class="node">
<title>Node11</title>
<g id="a_Node000011"><a xlink:title=" ">
<polygon fill="#e0e0e0" stroke="#999999" points="683.19,-20 640.19,-20 640.19,0 683.19,0 683.19,-20"/>
<text text-anchor="middle" x="661.69" y="-6.5" font-family="Helvetica,sans-Serif" font-size="10.00">vector</text>
</a>
</g>
</g>
<!-- Node10&#45;&gt;Node11 -->
<g id="edge17_Node000010_Node000011" class="edge">
<title>Node10&#45;&gt;Node11</title>
<g id="a_edge17_Node000010_Node000011"><a xlink:title=" ">
<path fill="none" stroke="#63b8ff" d="M360.19,-174.66C418.6,-169.57 546.46,-155.97 582.69,-132 619.87,-107.4 643.5,-58.65 654.47,-31.13"/>
<polygon fill="#63b8ff" stroke="#63b8ff" points="657.71,-32.46 657.98,-21.87 651.16,-29.98 657.71,-32.46"/>
</a>
</g>
</g>
<!-- Node12 -->
<g id="Node000012" class="node">
<title>Node12</title>
<g id="a_Node000012"><a xlink:href="_command_8h.html" target="_top" xlink:title=" ">
<polygon fill="white" stroke="#666666" points="520.31,-76 451.06,-76 451.06,-56 520.31,-56 520.31,-76"/>
<text text-anchor="middle" x="485.69" y="-62.5" font-family="Helvetica,sans-Serif" font-size="10.00">Command.h</text>
</a>
</g>
</g>
<!-- Node10&#45;&gt;Node12 -->
<g id="edge21_Node000010_Node000012" class="edge">
<title>Node10&#45;&gt;Node12</title>
<g id="a_edge21_Node000010_Node000012"><a xlink:title=" ">
<path fill="none" stroke="#63b8ff" d="M343.9,-167.62C370.44,-148.79 430.47,-106.18 463.27,-82.91"/>
<polygon fill="#63b8ff" stroke="#63b8ff" points="465.14,-85.87 471.27,-77.23 461.09,-80.16 465.14,-85.87"/>
</a>
</g>
</g>
<!-- Node14 -->
<g id="Node000014" class="node">
<title>Node14</title>
<g id="a_Node000014"><a xlink:href="_command_handler_8h.html" target="_top" xlink:title=" ">
<polygon fill="white" stroke="#666666" points="553.19,-132 450.19,-132 450.19,-112 553.19,-112 553.19,-132"/>
<text text-anchor="middle" x="501.69" y="-118.5" font-family="Helvetica,sans-Serif" font-size="10.00">CommandHandler.h</text>
</a>
</g>
</g>
<!-- Node10&#45;&gt;Node14 -->
<g id="edge25_Node000010_Node000014" class="edge">
<title>Node10&#45;&gt;Node14</title>
<g id="a_edge25_Node000010_Node000014"><a xlink:title=" ">
<path fill="none" stroke="#63b8ff" d="M360.47,-167.59C388.26,-158.82 429.94,-145.66 460.82,-135.9"/>
<polygon fill="#63b8ff" stroke="#63b8ff" points="461.74,-139.28 470.22,-132.94 459.64,-132.61 461.74,-139.28"/>
</a>
</g>
</g>
<!-- Node15 -->
<g id="Node000015" class="node">
<title>Node15</title>
<g id="a_Node000015"><a xlink:href="_program_variable_8h.html" target="_top" xlink:title=" ">
<polygon fill="white" stroke="#666666" points="433.44,-76 337.94,-76 337.94,-56 433.44,-56 433.44,-76"/>
<text text-anchor="middle" x="385.69" y="-62.5" font-family="Helvetica,sans-Serif" font-size="10.00">ProgramVariable.h</text>
</a>
</g>
</g>
<!-- Node10&#45;&gt;Node15 -->
<g id="edge30_Node000010_Node000015" class="edge">
<title>Node10&#45;&gt;Node15</title>
<g id="a_edge30_Node000010_Node000015"><a xlink:title=" ">
<path fill="none" stroke="#63b8ff" d="M335.38,-167.62C344.35,-149.68 364.1,-110.17 376.01,-86.35"/>
<polygon fill="#63b8ff" stroke="#63b8ff" points="378.99,-88.22 380.33,-77.71 372.73,-85.09 378.99,-88.22"/>
</a>
</g>
</g>
<!-- Node12&#45;&gt;Node4 -->
<g id="edge24_Node000012_Node000004" class="edge">
<title>Node12&#45;&gt;Node4</title>
<g id="a_edge24_Node000012_Node000004"><a xlink:title=" ">
<path fill="none" stroke="#63b8ff" d="M450.83,-56.2C409.85,-45.86 342.44,-28.85 303.04,-18.91"/>
<polygon fill="#63b8ff" stroke="#63b8ff" points="304.03,-15.55 293.47,-16.5 302.31,-22.34 304.03,-15.55"/>
</a>
</g>
</g>
<!-- Node12&#45;&gt;Node11 -->
<g id="edge22_Node000012_Node000011" class="edge">
<title>Node12&#45;&gt;Node11</title>
<g id="a_edge22_Node000012_Node000011"><a xlink:title=" ">
<path fill="none" stroke="#63b8ff" d="M516.34,-55.59C547.88,-45.92 596.83,-30.9 629.07,-21.01"/>
<polygon fill="#63b8ff" stroke="#63b8ff" points="629.74,-24.46 638.27,-18.18 627.68,-17.77 629.74,-24.46"/>
</a>
</g>
</g>
<!-- Node13 -->
<g id="Node000013" class="node">
<title>Node13</title>
<g id="a_Node000013"><a xlink:title=" ">
<polygon fill="#e0e0e0" stroke="#999999" points="518.44,-20 452.94,-20 452.94,0 518.44,0 518.44,-20"/>
<text text-anchor="middle" x="485.69" y="-6.5" font-family="Helvetica,sans-Serif" font-size="10.00">string_view</text>
</a>
</g>
</g>
<!-- Node12&#45;&gt;Node13 -->
<g id="edge23_Node000012_Node000013" class="edge">
<title>Node12&#45;&gt;Node13</title>
<g id="a_edge23_Node000012_Node000013"><a xlink:title=" ">
<path fill="none" stroke="#63b8ff" d="M485.69,-55.59C485.69,-49.01 485.69,-39.96 485.69,-31.73"/>
<polygon fill="#63b8ff" stroke="#63b8ff" points="489.19,-31.81 485.69,-21.81 482.19,-31.81 489.19,-31.81"/>
</a>
</g>
</g>
<!-- Node14&#45;&gt;Node6 -->
<g id="edge26_Node000014_Node000006" class="edge">
<title>Node14&#45;&gt;Node6</title>
<g id="a_edge26_Node000014_Node000006"><a xlink:title=" ">
<path fill="none" stroke="#63b8ff" d="M512.07,-111.67C521.33,-103.01 534.91,-89.46 544.69,-76 555.06,-61.72 564.4,-44 570.81,-30.67"/>
<polygon fill="#63b8ff" stroke="#63b8ff" points="573.96,-32.2 575.01,-21.66 567.62,-29.24 573.96,-32.2"/>
</a>
</g>
</g>
<!-- Node14&#45;&gt;Node12 -->
<g id="edge28_Node000014_Node000012" class="edge">
<title>Node14&#45;&gt;Node12</title>
<g id="a_edge28_Node000014_Node000012"><a xlink:title=" ">
<path fill="none" stroke="#63b8ff" d="M498.9,-111.59C496.9,-104.86 494.14,-95.53 491.66,-87.15"/>
<polygon fill="#63b8ff" stroke="#63b8ff" points="495.07,-86.34 488.87,-77.75 488.36,-88.33 495.07,-86.34"/>
</a>
</g>
</g>
<!-- Node14&#45;&gt;Node13 -->
<g id="edge27_Node000014_Node000013" class="edge">
<title>Node14&#45;&gt;Node13</title>
<g id="a_edge27_Node000014_Node000013"><a xlink:title=" ">
<path fill="none" stroke="#63b8ff" d="M510.57,-111.79C521.55,-99.24 537.85,-76.03 529.69,-56 525.16,-44.89 516.41,-35.02 507.91,-27.39"/>
<polygon fill="#63b8ff" stroke="#63b8ff" points="510.41,-24.92 500.48,-21.24 505.95,-30.31 510.41,-24.92"/>
</a>
</g>
</g>
<!-- Node15&#45;&gt;Node4 -->
<g id="edge31_Node000015_Node000004" class="edge">
<title>Node15&#45;&gt;Node4</title>
<g id="a_edge31_Node000015_Node000004"><a xlink:title=" ">
<path fill="none" stroke="#63b8ff" d="M365.83,-55.59C348.2,-47.24 322.18,-34.92 301.96,-25.34"/>
<polygon fill="#63b8ff" stroke="#63b8ff" points="303.6,-22.25 293.07,-21.13 300.61,-28.57 303.6,-22.25"/>
</a>
</g>
</g>
<!-- Node15&#45;&gt;Node6 -->
<g id="edge34_Node000015_Node000006" class="edge">
<title>Node15&#45;&gt;Node6</title>
<g id="a_edge34_Node000015_Node000006"><a xlink:title=" ">
<path fill="none" stroke="#63b8ff" d="M419.48,-55.59C451.41,-46.71 499.54,-33.31 534.7,-23.52"/>
<polygon fill="#63b8ff" stroke="#63b8ff" points="535.48,-26.94 544.17,-20.89 533.6,-20.2 535.48,-26.94"/>
</a>
</g>
</g>
<!-- Node15&#45;&gt;Node7 -->
<g id="edge33_Node000015_Node000007" class="edge">
<title>Node15&#45;&gt;Node7</title>
<g id="a_edge33_Node000015_Node000007"><a xlink:title=" ">
<path fill="none" stroke="#63b8ff" d="M337.7,-59.95C277.07,-53.2 169.35,-39.96 67.69,-20.2"/>
<polygon fill="#63b8ff" stroke="#63b8ff" points="68.58,-16.8 58.09,-18.3 67.23,-23.67 68.58,-16.8"/>
</a>
</g>
</g>
<!-- Node15&#45;&gt;Node13 -->
<g id="edge32_Node000015_Node000013" class="edge">
<title>Node15&#45;&gt;Node13</title>
<g id="a_edge32_Node000015_Node000013"><a xlink:title=" ">
<path fill="none" stroke="#63b8ff" d="M403.11,-55.59C418.35,-47.36 440.77,-35.26 458.4,-25.74"/>
<polygon fill="#63b8ff" stroke="#63b8ff" points="459.66,-29.03 466.8,-21.2 456.34,-22.87 459.66,-29.03"/>
</a>
</g>
</g>
</g>
</svg>
