<?xml version="1.0" encoding="UTF-8" standalone="no"?>
<!DOCTYPE svg PUBLIC "-//W3C//DTD SVG 1.1//EN"
 "http://www.w3.org/Graphics/SVG/1.1/DTD/svg11.dtd">
<!-- Generated by graphviz version 12.2.1 (20241206.2353)
 -->
<!-- Title: C:/Users/emilly/Documents/Lucca/Projetos/Cpp/NikiScript/include/NikiScript/Lexer.h Pages: 1 -->
<svg width="1147pt" height="292pt"
 viewBox="0.00 0.00 1147.00 292.00" xmlns="http://www.w3.org/2000/svg" xmlns:xlink="http://www.w3.org/1999/xlink">
<g id="graph0" class="graph" transform="scale(1 1) rotate(0) translate(4 288)">
<title>C:/Users/emilly/Documents/Lucca/Projetos/Cpp/NikiScript/include/NikiScript/Lexer.h</title>
<!-- Node1 -->
<g id="Node000001" class="node">
<title>Node1</title>
<g id="a_Node000001"><a xlink:title=" ">
<polygon fill="#999999" stroke="#666666" points="1035,-284 884,-284 884,-240 1035,-240 1035,-284"/>
<text text-anchor="start" x="892" y="-270.5" font-family="Helvetica,sans-Serif" font-size="10.00">C:/Users/emilly/Documents</text>
<text text-anchor="start" x="892" y="-258.5" font-family="Helvetica,sans-Serif" font-size="10.00">/Lucca/Projetos/Cpp/NikiScript</text>
<text text-anchor="middle" x="959.5" y="-246.5" font-family="Helvetica,sans-Serif" font-size="10.00">/include/NikiScript/Lexer.h</text>
</a>
</g>
</g>
<!-- Node2 -->
<g id="Node000002" class="node">
<title>Node2</title>
<g id="a_Node000002"><a xlink:href="_context_8h.html" target="_top" xlink:title=" ">
<polygon fill="white" stroke="#666666" points="593,-204 442,-204 442,-160 593,-160 593,-204"/>
<text text-anchor="start" x="450" y="-190.5" font-family="Helvetica,sans-Serif" font-size="10.00">C:/Users/emilly/Documents</text>
<text text-anchor="start" x="450" y="-178.5" font-family="Helvetica,sans-Serif" font-size="10.00">/Lucca/Projetos/Cpp/NikiScript</text>
<text text-anchor="middle" x="517.5" y="-166.5" font-family="Helvetica,sans-Serif" font-size="10.00">/include/NikiScript/Context.h</text>
</a>
</g>
</g>
<!-- Node1&#45;&gt;Node2 -->
<g id="edge1_Node000001_Node000002" class="edge">
<title>Node1&#45;&gt;Node2</title>
<g id="a_edge1_Node000001_Node000002"><a xlink:title=" ">
<path fill="none" stroke="#63b8ff" d="M872.3,-245.61C790.91,-231.25 670.69,-210.03 593.23,-196.36"/>
<polygon fill="#63b8ff" stroke="#63b8ff" points="871.57,-249.04 882.03,-247.33 872.79,-242.14 871.57,-249.04"/>
</a>
</g>
</g>
<!-- Node4 -->
<g id="Node000004" class="node">
<title>Node4</title>
<g id="a_Node000004"><a xlink:href="_niki_script_8cpp.html" target="_top" xlink:title=" ">
<polygon fill="white" stroke="#666666" points="931,-44 780,-44 780,0 931,0 931,-44"/>
<text text-anchor="start" x="788" y="-30.5" font-family="Helvetica,sans-Serif" font-size="10.00">C:/Users/emilly/Documents</text>
<text text-anchor="start" x="788" y="-18.5" font-family="Helvetica,sans-Serif" font-size="10.00">/Lucca/Projetos/Cpp/NikiScript</text>
<text text-anchor="middle" x="855.5" y="-6.5" font-family="Helvetica,sans-Serif" font-size="10.00">/src/NikiScript.cpp</text>
</a>
</g>
</g>
<!-- Node1&#45;&gt;Node4 -->
<g id="edge13_Node000001_Node000004" class="edge">
<title>Node1&#45;&gt;Node4</title>
<g id="a_edge13_Node000001_Node000004"><a xlink:title=" ">
<path fill="none" stroke="#63b8ff" d="M963.95,-228.41C967.51,-190.05 968.08,-125.76 940.5,-80 931.51,-65.09 916.95,-53.24 902.4,-44.29"/>
<polygon fill="#63b8ff" stroke="#63b8ff" points="960.49,-227.85 962.91,-238.17 967.45,-228.59 960.49,-227.85"/>
</a>
</g>
</g>
<!-- Node11 -->
<g id="Node000011" class="node">
<title>Node11</title>
<g id="a_Node000011"><a xlink:href="_lexer_8cpp.html" target="_top" xlink:title=" ">
<polygon fill="white" stroke="#666666" points="1139,-204 988,-204 988,-160 1139,-160 1139,-204"/>
<text text-anchor="start" x="996" y="-190.5" font-family="Helvetica,sans-Serif" font-size="10.00">C:/Users/emilly/Documents</text>
<text text-anchor="start" x="996" y="-178.5" font-family="Helvetica,sans-Serif" font-size="10.00">/Lucca/Projetos/Cpp/NikiScript</text>
<text text-anchor="middle" x="1063.5" y="-166.5" font-family="Helvetica,sans-Serif" font-size="10.00">/src/Lexer.cpp</text>
</a>
</g>
</g>
<!-- Node1&#45;&gt;Node11 -->
<g id="edge12_Node000001_Node000011" class="edge">
<title>Node1&#45;&gt;Node11</title>
<g id="a_edge12_Node000001_Node000011"><a xlink:title=" ">
<path fill="none" stroke="#63b8ff" d="M996.83,-233C1009.45,-223.54 1023.31,-213.14 1035.12,-204.29"/>
<polygon fill="#63b8ff" stroke="#63b8ff" points="995.03,-229.98 989.13,-238.78 999.23,-235.58 995.03,-229.98"/>
</a>
</g>
</g>
<!-- Node3 -->
<g id="Node000003" class="node">
<title>Node3</title>
<g id="a_Node000003"><a xlink:href="_niki_script_8h.html" target="_top" xlink:title=" ">
<polygon fill="white" stroke="#666666" points="931,-124 780,-124 780,-80 931,-80 931,-124"/>
<text text-anchor="start" x="788" y="-110.5" font-family="Helvetica,sans-Serif" font-size="10.00">C:/Users/emilly/Documents</text>
<text text-anchor="start" x="788" y="-98.5" font-family="Helvetica,sans-Serif" font-size="10.00">/Lucca/Projetos/Cpp/NikiScript</text>
<text text-anchor="middle" x="855.5" y="-86.5" font-family="Helvetica,sans-Serif" font-size="10.00">/include/NikiScript/NikiScript.h</text>
</a>
</g>
</g>
<!-- Node2&#45;&gt;Node3 -->
<g id="edge2_Node000002_Node000003" class="edge">
<title>Node2&#45;&gt;Node3</title>
<g id="a_edge2_Node000002_Node000003"><a xlink:title=" ">
<path fill="none" stroke="#63b8ff" d="M604.68,-161.98C653.76,-151.14 716.12,-137.13 771.5,-124 774.13,-123.38 776.81,-122.74 779.51,-122.08"/>
<polygon fill="#63b8ff" stroke="#63b8ff" points="603.96,-158.56 594.94,-164.13 605.46,-165.39 603.96,-158.56"/>
</a>
</g>
</g>
<!-- Node5 -->
<g id="Node000005" class="node">
<title>Node5</title>
<g id="a_Node000005"><a xlink:href="_parser_8h.html" target="_top" xlink:title=" ">
<polygon fill="white" stroke="#666666" points="255,-124 104,-124 104,-80 255,-80 255,-124"/>
<text text-anchor="start" x="112" y="-110.5" font-family="Helvetica,sans-Serif" font-size="10.00">C:/Users/emilly/Documents</text>
<text text-anchor="start" x="112" y="-98.5" font-family="Helvetica,sans-Serif" font-size="10.00">/Lucca/Projetos/Cpp/NikiScript</text>
<text text-anchor="middle" x="179.5" y="-86.5" font-family="Helvetica,sans-Serif" font-size="10.00">/include/NikiScript/Parser.h</text>
</a>
</g>
</g>
<!-- Node2&#45;&gt;Node5 -->
<g id="edge4_Node000002_Node000005" class="edge">
<title>Node2&#45;&gt;Node5</title>
<g id="a_edge4_Node000002_Node000005"><a xlink:title=" ">
<path fill="none" stroke="#63b8ff" d="M430.41,-161.84C381.58,-150.99 319.58,-137.01 264.5,-124 261.54,-123.3 258.53,-122.58 255.48,-121.85"/>
<polygon fill="#63b8ff" stroke="#63b8ff" points="429.57,-165.24 440.09,-163.99 431.09,-158.41 429.57,-165.24"/>
</a>
</g>
</g>
<!-- Node7 -->
<g id="Node000007" class="node">
<title>Node7</title>
<g id="a_Node000007"><a xlink:href="_token_8cpp.html" target="_top" xlink:title=" ">
<polygon fill="white" stroke="#666666" points="151,-44 0,-44 0,0 151,0 151,-44"/>
<text text-anchor="start" x="8" y="-30.5" font-family="Helvetica,sans-Serif" font-size="10.00">C:/Users/emilly/Documents</text>
<text text-anchor="start" x="8" y="-18.5" font-family="Helvetica,sans-Serif" font-size="10.00">/Lucca/Projetos/Cpp/NikiScript</text>
<text text-anchor="middle" x="75.5" y="-6.5" font-family="Helvetica,sans-Serif" font-size="10.00">/src/Token.cpp</text>
</a>
</g>
</g>
<!-- Node2&#45;&gt;Node7 -->
<g id="edge11_Node000002_Node000007" class="edge">
<title>Node2&#45;&gt;Node7</title>
<g id="a_edge11_Node000002_Node000007"><a xlink:title=" ">
<path fill="none" stroke="#63b8ff" d="M430.39,-180.78C321.14,-178.6 142.44,-168.15 95.5,-124 73.89,-103.67 71.89,-67.24 73.16,-44.13"/>
<polygon fill="#63b8ff" stroke="#63b8ff" points="430.14,-184.27 440.2,-180.95 430.27,-177.28 430.14,-184.27"/>
</a>
</g>
</g>
<!-- Node8 -->
<g id="Node000008" class="node">
<title>Node8</title>
<g id="a_Node000008"><a xlink:href="_command_handler_8cpp.html" target="_top" xlink:title=" ">
<polygon fill="white" stroke="#666666" points="424,-124 273,-124 273,-80 424,-80 424,-124"/>
<text text-anchor="start" x="281" y="-110.5" font-family="Helvetica,sans-Serif" font-size="10.00">C:/Users/emilly/Documents</text>
<text text-anchor="start" x="281" y="-98.5" font-family="Helvetica,sans-Serif" font-size="10.00">/Lucca/Projetos/Cpp/NikiScript</text>
<text text-anchor="middle" x="348.5" y="-86.5" font-family="Helvetica,sans-Serif" font-size="10.00">/src/CommandHandler.cpp</text>
</a>
</g>
</g>
<!-- Node2&#45;&gt;Node8 -->
<g id="edge8_Node000002_Node000008" class="edge">
<title>Node2&#45;&gt;Node8</title>
<g id="a_edge8_Node000002_Node000008"><a xlink:title=" ">
<path fill="none" stroke="#63b8ff" d="M461.03,-154.93C439.55,-145.02 415.36,-133.86 394.92,-124.42"/>
<polygon fill="#63b8ff" stroke="#63b8ff" points="459.4,-158.04 469.95,-159.05 462.33,-151.68 459.4,-158.04"/>
</a>
</g>
</g>
<!-- Node9 -->
<g id="Node000009" class="node">
<title>Node9</title>
<g id="a_Node000009"><a xlink:href="_context_8cpp.html" target="_top" xlink:title=" ">
<polygon fill="white" stroke="#666666" points="593,-124 442,-124 442,-80 593,-80 593,-124"/>
<text text-anchor="start" x="450" y="-110.5" font-family="Helvetica,sans-Serif" font-size="10.00">C:/Users/emilly/Documents</text>
<text text-anchor="start" x="450" y="-98.5" font-family="Helvetica,sans-Serif" font-size="10.00">/Lucca/Projetos/Cpp/NikiScript</text>
<text text-anchor="middle" x="517.5" y="-86.5" font-family="Helvetica,sans-Serif" font-size="10.00">/src/Context.cpp</text>
</a>
</g>
</g>
<!-- Node2&#45;&gt;Node9 -->
<g id="edge9_Node000002_Node000009" class="edge">
<title>Node2&#45;&gt;Node9</title>
<g id="a_edge9_Node000002_Node000009"><a xlink:title=" ">
<path fill="none" stroke="#63b8ff" d="M517.5,-148.25C517.5,-140.15 517.5,-131.68 517.5,-124.29"/>
<polygon fill="#63b8ff" stroke="#63b8ff" points="514,-148.17 517.5,-158.17 521,-148.17 514,-148.17"/>
</a>
</g>
</g>
<!-- Node10 -->
<g id="Node000010" class="node">
<title>Node10</title>
<g id="a_Node000010"><a xlink:href="_program_variable_8cpp.html" target="_top" xlink:title=" ">
<polygon fill="white" stroke="#666666" points="762,-124 611,-124 611,-80 762,-80 762,-124"/>
<text text-anchor="start" x="619" y="-110.5" font-family="Helvetica,sans-Serif" font-size="10.00">C:/Users/emilly/Documents</text>
<text text-anchor="start" x="619" y="-98.5" font-family="Helvetica,sans-Serif" font-size="10.00">/Lucca/Projetos/Cpp/NikiScript</text>
<text text-anchor="middle" x="686.5" y="-86.5" font-family="Helvetica,sans-Serif" font-size="10.00">/src/ProgramVariable.cpp</text>
</a>
</g>
</g>
<!-- Node2&#45;&gt;Node10 -->
<g id="edge10_Node000002_Node000010" class="edge">
<title>Node2&#45;&gt;Node10</title>
<g id="a_edge10_Node000002_Node000010"><a xlink:title=" ">
<path fill="none" stroke="#63b8ff" d="M573.97,-154.93C595.45,-145.02 619.64,-133.86 640.08,-124.42"/>
<polygon fill="#63b8ff" stroke="#63b8ff" points="572.67,-151.68 565.05,-159.05 575.6,-158.04 572.67,-151.68"/>
</a>
</g>
</g>
<!-- Node3&#45;&gt;Node4 -->
<g id="edge3_Node000003_Node000004" class="edge">
<title>Node3&#45;&gt;Node4</title>
<g id="a_edge3_Node000003_Node000004"><a xlink:title=" ">
<path fill="none" stroke="#63b8ff" d="M855.5,-68.25C855.5,-60.15 855.5,-51.68 855.5,-44.29"/>
<polygon fill="#63b8ff" stroke="#63b8ff" points="852,-68.17 855.5,-78.17 859,-68.17 852,-68.17"/>
</a>
</g>
</g>
<!-- Node5&#45;&gt;Node4 -->
<g id="edge5_Node000005_Node000004" class="edge">
<title>Node5&#45;&gt;Node4</title>
<g id="a_edge5_Node000005_Node000004"><a xlink:title=" ">
<path fill="none" stroke="#63b8ff" d="M266.71,-79.75C456.67,-48.03 669.3,-33.02 779.93,-26.75"/>
<polygon fill="#63b8ff" stroke="#63b8ff" points="266.15,-76.3 256.88,-81.42 267.32,-83.2 266.15,-76.3"/>
</a>
</g>
</g>
<!-- Node6 -->
<g id="Node000006" class="node">
<title>Node6</title>
<g id="a_Node000006"><a xlink:href="_parser_8cpp.html" target="_top" xlink:title=" ">
<polygon fill="white" stroke="#666666" points="320,-44 169,-44 169,0 320,0 320,-44"/>
<text text-anchor="start" x="177" y="-30.5" font-family="Helvetica,sans-Serif" font-size="10.00">C:/Users/emilly/Documents</text>
<text text-anchor="start" x="177" y="-18.5" font-family="Helvetica,sans-Serif" font-size="10.00">/Lucca/Projetos/Cpp/NikiScript</text>
<text text-anchor="middle" x="244.5" y="-6.5" font-family="Helvetica,sans-Serif" font-size="10.00">/src/Parser.cpp</text>
</a>
</g>
</g>
<!-- Node5&#45;&gt;Node6 -->
<g id="edge6_Node000005_Node000006" class="edge">
<title>Node5&#45;&gt;Node6</title>
<g id="a_edge6_Node000005_Node000006"><a xlink:title=" ">
<path fill="none" stroke="#63b8ff" d="M204.45,-71.06C211.89,-62.13 219.88,-52.54 226.76,-44.29"/>
<polygon fill="#63b8ff" stroke="#63b8ff" points="201.94,-68.6 198.23,-78.52 207.32,-73.08 201.94,-68.6"/>
</a>
</g>
</g>
<!-- Node5&#45;&gt;Node7 -->
<g id="edge7_Node000005_Node000007" class="edge">
<title>Node5&#45;&gt;Node7</title>
<g id="a_edge7_Node000005_Node000007"><a xlink:title=" ">
<path fill="none" stroke="#63b8ff" d="M142.17,-73C129.55,-63.54 115.69,-53.14 103.88,-44.29"/>
<polygon fill="#63b8ff" stroke="#63b8ff" points="139.77,-75.58 149.87,-78.78 143.97,-69.98 139.77,-75.58"/>
</a>
</g>
</g>
</g>
</svg>
