<?xml version="1.0" encoding="UTF-8" standalone="no"?>
<!DOCTYPE svg PUBLIC "-//W3C//DTD SVG 1.1//EN"
 "http://www.w3.org/Graphics/SVG/1.1/DTD/svg11.dtd">
<!-- Generated by graphviz version 12.2.1 (20241206.2353)
 -->
<!-- Title: C:/Users/emilly/Documents/Lucca/Projetos/Cpp/NikiScript/src/Lexer.h Pages: 1 -->
<svg width="1472pt" height="292pt"
 viewBox="0.00 0.00 1472.00 292.00" xmlns="http://www.w3.org/2000/svg" xmlns:xlink="http://www.w3.org/1999/xlink">
<g id="graph0" class="graph" transform="scale(1 1) rotate(0) translate(4 288)">
<title>C:/Users/emilly/Documents/Lucca/Projetos/Cpp/NikiScript/src/Lexer.h</title>
<!-- Node1 -->
<g id="Node000001" class="node">
<title>Node1</title>
<g id="a_Node000001"><a xlink:title=" ">
<polygon fill="#999999" stroke="#666666" points="1035,-284 884,-284 884,-240 1035,-240 1035,-284"/>
<text text-anchor="start" x="892" y="-270.5" font-family="Helvetica,sans-Serif" font-size="10.00">C:/Users/emilly/Documents</text>
<text text-anchor="start" x="892" y="-258.5" font-family="Helvetica,sans-Serif" font-size="10.00">/Lucca/Projetos/Cpp/NikiScript</text>
<text text-anchor="middle" x="959.5" y="-246.5" font-family="Helvetica,sans-Serif" font-size="10.00">/src/Lexer.h</text>
</a>
</g>
</g>
<!-- Node2 -->
<g id="Node000002" class="node">
<title>Node2</title>
<g id="a_Node000002"><a xlink:href="example_8cpp.html" target="_top" xlink:title=" ">
<polygon fill="white" stroke="#666666" points="151,-44 0,-44 0,0 151,0 151,-44"/>
<text text-anchor="start" x="8" y="-30.5" font-family="Helvetica,sans-Serif" font-size="10.00">C:/Users/emilly/Documents</text>
<text text-anchor="start" x="8" y="-18.5" font-family="Helvetica,sans-Serif" font-size="10.00">/Lucca/Projetos/Cpp/NikiScript</text>
<text text-anchor="middle" x="75.5" y="-6.5" font-family="Helvetica,sans-Serif" font-size="10.00">/example/src/example.cpp</text>
</a>
</g>
</g>
<!-- Node1&#45;&gt;Node2 -->
<g id="edge1_Node000001_Node000002" class="edge">
<title>Node1&#45;&gt;Node2</title>
<g id="a_edge1_Node000001_Node000002"><a xlink:title=" ">
<path fill="none" stroke="#63b8ff" d="M872.34,-261.96C662.5,-262.22 138.58,-249.98 30.5,-124 10.25,-100.4 33.65,-66.22 53.56,-44.31"/>
<polygon fill="#63b8ff" stroke="#63b8ff" points="872.09,-265.46 882.08,-261.94 872.07,-258.46 872.09,-265.46"/>
</a>
</g>
</g>
<!-- Node3 -->
<g id="Node000003" class="node">
<title>Node3</title>
<g id="a_Node000003"><a xlink:href="_context_8h.html" target="_top" xlink:title=" ">
<polygon fill="white" stroke="#666666" points="710,-204 559,-204 559,-160 710,-160 710,-204"/>
<text text-anchor="start" x="567" y="-190.5" font-family="Helvetica,sans-Serif" font-size="10.00">C:/Users/emilly/Documents</text>
<text text-anchor="start" x="567" y="-178.5" font-family="Helvetica,sans-Serif" font-size="10.00">/Lucca/Projetos/Cpp/NikiScript</text>
<text text-anchor="middle" x="634.5" y="-166.5" font-family="Helvetica,sans-Serif" font-size="10.00">/src/Context.h</text>
</a>
</g>
</g>
<!-- Node1&#45;&gt;Node3 -->
<g id="edge2_Node000001_Node000003" class="edge">
<title>Node1&#45;&gt;Node3</title>
<g id="a_edge2_Node000001_Node000003"><a xlink:title=" ">
<path fill="none" stroke="#63b8ff" d="M872.79,-240.19C822.21,-228.05 759.01,-212.88 710.41,-201.22"/>
<polygon fill="#63b8ff" stroke="#63b8ff" points="871.7,-243.53 882.24,-242.46 873.33,-236.72 871.7,-243.53"/>
</a>
</g>
</g>
<!-- Node7 -->
<g id="Node000007" class="node">
<title>Node7</title>
<g id="a_Node000007"><a xlink:href="_niki_script_8cpp.html" target="_top" xlink:title=" ">
<polygon fill="white" stroke="#666666" points="346,-44 195,-44 195,0 346,0 346,-44"/>
<text text-anchor="start" x="203" y="-30.5" font-family="Helvetica,sans-Serif" font-size="10.00">C:/Users/emilly/Documents</text>
<text text-anchor="start" x="203" y="-18.5" font-family="Helvetica,sans-Serif" font-size="10.00">/Lucca/Projetos/Cpp/NikiScript</text>
<text text-anchor="middle" x="270.5" y="-6.5" font-family="Helvetica,sans-Serif" font-size="10.00">/src/NikiScript.cpp</text>
</a>
</g>
</g>
<!-- Node1&#45;&gt;Node7 -->
<g id="edge17_Node000001_Node000007" class="edge">
<title>Node1&#45;&gt;Node7</title>
<g id="a_edge17_Node000001_Node000007"><a xlink:title=" ">
<path fill="none" stroke="#63b8ff" d="M1046.26,-243.44C1161.51,-216.55 1342.16,-159.75 1265.5,-80 1230.44,-43.52 405.59,-51.1 355.5,-44 352.49,-43.57 349.43,-43.08 346.35,-42.55"/>
<polygon fill="#63b8ff" stroke="#63b8ff" points="1045.76,-239.97 1036.79,-245.61 1047.32,-246.79 1045.76,-239.97"/>
</a>
</g>
</g>
<!-- Node13 -->
<g id="Node000013" class="node">
<title>Node13</title>
<g id="a_Node000013"><a xlink:href="_lexer_8cpp.html" target="_top" xlink:title=" ">
<polygon fill="white" stroke="#666666" points="1464,-204 1313,-204 1313,-160 1464,-160 1464,-204"/>
<text text-anchor="start" x="1321" y="-190.5" font-family="Helvetica,sans-Serif" font-size="10.00">C:/Users/emilly/Documents</text>
<text text-anchor="start" x="1321" y="-178.5" font-family="Helvetica,sans-Serif" font-size="10.00">/Lucca/Projetos/Cpp/NikiScript</text>
<text text-anchor="middle" x="1388.5" y="-166.5" font-family="Helvetica,sans-Serif" font-size="10.00">/src/Lexer.cpp</text>
</a>
</g>
</g>
<!-- Node1&#45;&gt;Node13 -->
<g id="edge16_Node000001_Node000013" class="edge">
<title>Node1&#45;&gt;Node13</title>
<g id="a_edge16_Node000001_Node000013"><a xlink:title=" ">
<path fill="none" stroke="#63b8ff" d="M1046.67,-247.88C1115.3,-237.18 1213.28,-221.09 1298.5,-204 1303.22,-203.05 1308.07,-202.04 1312.95,-200.99"/>
<polygon fill="#63b8ff" stroke="#63b8ff" points="1046.32,-244.39 1036.98,-249.39 1047.4,-251.31 1046.32,-244.39"/>
</a>
</g>
</g>
<!-- Node3&#45;&gt;Node2 -->
<g id="edge3_Node000003_Node000002" class="edge">
<title>Node3&#45;&gt;Node2</title>
<g id="a_edge3_Node000003_Node000002"><a xlink:title=" ">
<path fill="none" stroke="#63b8ff" d="M547.07,-178.92C390.79,-174.3 76.67,-160.52 43.5,-124 23.22,-101.67 42.06,-66.5 58.21,-44.1"/>
<polygon fill="#63b8ff" stroke="#63b8ff" points="546.89,-182.42 556.99,-179.21 547.09,-175.42 546.89,-182.42"/>
</a>
</g>
</g>
<!-- Node4 -->
<g id="Node000004" class="node">
<title>Node4</title>
<g id="a_Node000004"><a xlink:href="_command_handler_8cpp.html" target="_top" xlink:title=" ">
<polygon fill="white" stroke="#666666" points="541,-124 390,-124 390,-80 541,-80 541,-124"/>
<text text-anchor="start" x="398" y="-110.5" font-family="Helvetica,sans-Serif" font-size="10.00">C:/Users/emilly/Documents</text>
<text text-anchor="start" x="398" y="-98.5" font-family="Helvetica,sans-Serif" font-size="10.00">/Lucca/Projetos/Cpp/NikiScript</text>
<text text-anchor="middle" x="465.5" y="-86.5" font-family="Helvetica,sans-Serif" font-size="10.00">/src/CommandHandler.cpp</text>
</a>
</g>
</g>
<!-- Node3&#45;&gt;Node4 -->
<g id="edge4_Node000003_Node000004" class="edge">
<title>Node3&#45;&gt;Node4</title>
<g id="a_edge4_Node000003_Node000004"><a xlink:title=" ">
<path fill="none" stroke="#63b8ff" d="M578.03,-154.93C556.55,-145.02 532.36,-133.86 511.92,-124.42"/>
<polygon fill="#63b8ff" stroke="#63b8ff" points="576.4,-158.04 586.95,-159.05 579.33,-151.68 576.4,-158.04"/>
</a>
</g>
</g>
<!-- Node5 -->
<g id="Node000005" class="node">
<title>Node5</title>
<g id="a_Node000005"><a xlink:href="_context_8cpp.html" target="_top" xlink:title=" ">
<polygon fill="white" stroke="#666666" points="710,-124 559,-124 559,-80 710,-80 710,-124"/>
<text text-anchor="start" x="567" y="-110.5" font-family="Helvetica,sans-Serif" font-size="10.00">C:/Users/emilly/Documents</text>
<text text-anchor="start" x="567" y="-98.5" font-family="Helvetica,sans-Serif" font-size="10.00">/Lucca/Projetos/Cpp/NikiScript</text>
<text text-anchor="middle" x="634.5" y="-86.5" font-family="Helvetica,sans-Serif" font-size="10.00">/src/Context.cpp</text>
</a>
</g>
</g>
<!-- Node3&#45;&gt;Node5 -->
<g id="edge5_Node000003_Node000005" class="edge">
<title>Node3&#45;&gt;Node5</title>
<g id="a_edge5_Node000003_Node000005"><a xlink:title=" ">
<path fill="none" stroke="#63b8ff" d="M634.5,-148.25C634.5,-140.15 634.5,-131.68 634.5,-124.29"/>
<polygon fill="#63b8ff" stroke="#63b8ff" points="631,-148.17 634.5,-158.17 638,-148.17 631,-148.17"/>
</a>
</g>
</g>
<!-- Node6 -->
<g id="Node000006" class="node">
<title>Node6</title>
<g id="a_Node000006"><a xlink:href="_niki_script_8h.html" target="_top" xlink:title=" ">
<polygon fill="white" stroke="#666666" points="203,-124 52,-124 52,-80 203,-80 203,-124"/>
<text text-anchor="start" x="60" y="-110.5" font-family="Helvetica,sans-Serif" font-size="10.00">C:/Users/emilly/Documents</text>
<text text-anchor="start" x="60" y="-98.5" font-family="Helvetica,sans-Serif" font-size="10.00">/Lucca/Projetos/Cpp/NikiScript</text>
<text text-anchor="middle" x="127.5" y="-86.5" font-family="Helvetica,sans-Serif" font-size="10.00">/src/NikiScript.h</text>
</a>
</g>
</g>
<!-- Node3&#45;&gt;Node6 -->
<g id="edge6_Node000003_Node000006" class="edge">
<title>Node3&#45;&gt;Node6</title>
<g id="a_edge6_Node000003_Node000006"><a xlink:title=" ">
<path fill="none" stroke="#63b8ff" d="M547.4,-172.02C461.76,-162.53 327.53,-145.91 212.5,-124 209.51,-123.43 206.47,-122.82 203.41,-122.19"/>
<polygon fill="#63b8ff" stroke="#63b8ff" points="546.81,-175.47 557.13,-173.08 547.57,-168.51 546.81,-175.47"/>
</a>
</g>
</g>
<!-- Node8 -->
<g id="Node000008" class="node">
<title>Node8</title>
<g id="a_Node000008"><a xlink:href="_parser_8h.html" target="_top" xlink:title=" ">
<polygon fill="white" stroke="#666666" points="372,-124 221,-124 221,-80 372,-80 372,-124"/>
<text text-anchor="start" x="229" y="-110.5" font-family="Helvetica,sans-Serif" font-size="10.00">C:/Users/emilly/Documents</text>
<text text-anchor="start" x="229" y="-98.5" font-family="Helvetica,sans-Serif" font-size="10.00">/Lucca/Projetos/Cpp/NikiScript</text>
<text text-anchor="middle" x="296.5" y="-86.5" font-family="Helvetica,sans-Serif" font-size="10.00">/src/Parser.h</text>
</a>
</g>
</g>
<!-- Node3&#45;&gt;Node8 -->
<g id="edge9_Node000003_Node000008" class="edge">
<title>Node3&#45;&gt;Node8</title>
<g id="a_edge9_Node000003_Node000008"><a xlink:title=" ">
<path fill="none" stroke="#63b8ff" d="M547.41,-161.84C498.58,-150.99 436.58,-137.01 381.5,-124 378.54,-123.3 375.53,-122.58 372.48,-121.85"/>
<polygon fill="#63b8ff" stroke="#63b8ff" points="546.57,-165.24 557.09,-163.99 548.09,-158.41 546.57,-165.24"/>
</a>
</g>
</g>
<!-- Node10 -->
<g id="Node000010" class="node">
<title>Node10</title>
<g id="a_Node000010"><a xlink:href="_program_variable_8cpp.html" target="_top" xlink:title=" ">
<polygon fill="white" stroke="#666666" points="879,-124 728,-124 728,-80 879,-80 879,-124"/>
<text text-anchor="start" x="736" y="-110.5" font-family="Helvetica,sans-Serif" font-size="10.00">C:/Users/emilly/Documents</text>
<text text-anchor="start" x="736" y="-98.5" font-family="Helvetica,sans-Serif" font-size="10.00">/Lucca/Projetos/Cpp/NikiScript</text>
<text text-anchor="middle" x="803.5" y="-86.5" font-family="Helvetica,sans-Serif" font-size="10.00">/src/ProgramVariable.cpp</text>
</a>
</g>
</g>
<!-- Node3&#45;&gt;Node10 -->
<g id="edge13_Node000003_Node000010" class="edge">
<title>Node3&#45;&gt;Node10</title>
<g id="a_edge13_Node000003_Node000010"><a xlink:title=" ">
<path fill="none" stroke="#63b8ff" d="M690.97,-154.93C712.45,-145.02 736.64,-133.86 757.08,-124.42"/>
<polygon fill="#63b8ff" stroke="#63b8ff" points="689.67,-151.68 682.05,-159.05 692.6,-158.04 689.67,-151.68"/>
</a>
</g>
</g>
<!-- Node11 -->
<g id="Node000011" class="node">
<title>Node11</title>
<g id="a_Node000011"><a xlink:href="_token_8cpp.html" target="_top" xlink:title=" ">
<polygon fill="white" stroke="#666666" points="1048,-124 897,-124 897,-80 1048,-80 1048,-124"/>
<text text-anchor="start" x="905" y="-110.5" font-family="Helvetica,sans-Serif" font-size="10.00">C:/Users/emilly/Documents</text>
<text text-anchor="start" x="905" y="-98.5" font-family="Helvetica,sans-Serif" font-size="10.00">/Lucca/Projetos/Cpp/NikiScript</text>
<text text-anchor="middle" x="972.5" y="-86.5" font-family="Helvetica,sans-Serif" font-size="10.00">/src/Token.cpp</text>
</a>
</g>
</g>
<!-- Node3&#45;&gt;Node11 -->
<g id="edge14_Node000003_Node000011" class="edge">
<title>Node3&#45;&gt;Node11</title>
<g id="a_edge14_Node000003_Node000011"><a xlink:title=" ">
<path fill="none" stroke="#63b8ff" d="M721.68,-161.98C770.76,-151.14 833.12,-137.13 888.5,-124 891.13,-123.38 893.81,-122.74 896.51,-122.08"/>
<polygon fill="#63b8ff" stroke="#63b8ff" points="720.96,-158.56 711.94,-164.13 722.46,-165.39 720.96,-158.56"/>
</a>
</g>
</g>
<!-- Node12 -->
<g id="Node000012" class="node">
<title>Node12</title>
<g id="a_Node000012"><a xlink:href="_command_handler_wrapper_8cpp.html" target="_top" xlink:title=" ">
<polygon fill="white" stroke="#666666" points="1256.5,-124 1066.5,-124 1066.5,-80 1256.5,-80 1256.5,-124"/>
<text text-anchor="start" x="1074.5" y="-110.5" font-family="Helvetica,sans-Serif" font-size="10.00">C:/Users/emilly/Documents</text>
<text text-anchor="start" x="1074.5" y="-98.5" font-family="Helvetica,sans-Serif" font-size="10.00">/Lucca/Projetos/Cpp/NikiScript</text>
<text text-anchor="middle" x="1161.5" y="-86.5" font-family="Helvetica,sans-Serif" font-size="10.00">/wrapper/CommandHandlerWrapper.cpp</text>
</a>
</g>
</g>
<!-- Node3&#45;&gt;Node12 -->
<g id="edge15_Node000003_Node000012" class="edge">
<title>Node3&#45;&gt;Node12</title>
<g id="a_edge15_Node000003_Node000012"><a xlink:title=" ">
<path fill="none" stroke="#63b8ff" d="M721.61,-170.95C807.31,-160.66 941.76,-143.46 1057.5,-124 1060.32,-123.53 1063.17,-123.03 1066.05,-122.52"/>
<polygon fill="#63b8ff" stroke="#63b8ff" points="721.39,-167.45 711.87,-172.11 722.22,-174.4 721.39,-167.45"/>
</a>
</g>
</g>
<!-- Node6&#45;&gt;Node2 -->
<g id="edge7_Node000006_Node000002" class="edge">
<title>Node6&#45;&gt;Node2</title>
<g id="a_edge7_Node000006_Node000002"><a xlink:title=" ">
<path fill="none" stroke="#63b8ff" d="M106.98,-70.22C101.19,-61.54 95.02,-52.28 89.69,-44.29"/>
<polygon fill="#63b8ff" stroke="#63b8ff" points="103.99,-72.05 112.45,-78.43 109.82,-68.16 103.99,-72.05"/>
</a>
</g>
</g>
<!-- Node6&#45;&gt;Node7 -->
<g id="edge8_Node000006_Node000007" class="edge">
<title>Node6&#45;&gt;Node7</title>
<g id="a_edge8_Node000006_Node000007"><a xlink:title=" ">
<path fill="none" stroke="#63b8ff" d="M176.57,-74.23C194.5,-64.45 214.53,-53.53 231.47,-44.29"/>
<polygon fill="#63b8ff" stroke="#63b8ff" points="175.01,-71.1 167.9,-78.96 178.36,-77.25 175.01,-71.1"/>
</a>
</g>
</g>
<!-- Node8&#45;&gt;Node2 -->
<g id="edge10_Node000008_Node000002" class="edge">
<title>Node8&#45;&gt;Node2</title>
<g id="a_edge10_Node000008_Node000002"><a xlink:title=" ">
<path fill="none" stroke="#63b8ff" d="M225.03,-75.78C196.31,-65.64 163.56,-54.08 136.05,-44.37"/>
<polygon fill="#63b8ff" stroke="#63b8ff" points="223.8,-79.05 234.39,-79.08 226.13,-72.45 223.8,-79.05"/>
</a>
</g>
</g>
<!-- Node8&#45;&gt;Node7 -->
<g id="edge11_Node000008_Node000007" class="edge">
<title>Node8&#45;&gt;Node7</title>
<g id="a_edge11_Node000008_Node000007"><a xlink:title=" ">
<path fill="none" stroke="#63b8ff" d="M285.77,-68.82C283.01,-60.54 280.12,-51.85 277.6,-44.29"/>
<polygon fill="#63b8ff" stroke="#63b8ff" points="282.43,-69.87 288.92,-78.25 289.07,-67.66 282.43,-69.87"/>
</a>
</g>
</g>
<!-- Node9 -->
<g id="Node000009" class="node">
<title>Node9</title>
<g id="a_Node000009"><a xlink:href="_parser_8cpp.html" target="_top" xlink:title=" ">
<polygon fill="white" stroke="#666666" points="515,-44 364,-44 364,0 515,0 515,-44"/>
<text text-anchor="start" x="372" y="-30.5" font-family="Helvetica,sans-Serif" font-size="10.00">C:/Users/emilly/Documents</text>
<text text-anchor="start" x="372" y="-18.5" font-family="Helvetica,sans-Serif" font-size="10.00">/Lucca/Projetos/Cpp/NikiScript</text>
<text text-anchor="middle" x="439.5" y="-6.5" font-family="Helvetica,sans-Serif" font-size="10.00">/src/Parser.cpp</text>
</a>
</g>
</g>
<!-- Node8&#45;&gt;Node9 -->
<g id="edge12_Node000008_Node000009" class="edge">
<title>Node8&#45;&gt;Node9</title>
<g id="a_edge12_Node000008_Node000009"><a xlink:title=" ">
<path fill="none" stroke="#63b8ff" d="M345.57,-74.23C363.5,-64.45 383.53,-53.53 400.47,-44.29"/>
<polygon fill="#63b8ff" stroke="#63b8ff" points="344.01,-71.1 336.9,-78.96 347.36,-77.25 344.01,-71.1"/>
</a>
</g>
</g>
</g>
</svg>
