<?xml version="1.0" encoding="UTF-8" standalone="no"?>
<!DOCTYPE svg PUBLIC "-//W3C//DTD SVG 1.1//EN"
 "http://www.w3.org/Graphics/SVG/1.1/DTD/svg11.dtd">
<!-- Generated by graphviz version 12.2.1 (20241206.2353)
 -->
<!-- Title: C:/Users/emilly/Documents/Lucca/Projetos/Cpp/NikiScript/src/Lexer.cpp Pages: 1 -->
<svg width="315pt" height="220pt"
 viewBox="0.00 0.00 315.00 220.00" xmlns="http://www.w3.org/2000/svg" xmlns:xlink="http://www.w3.org/1999/xlink">
<g id="graph0" class="graph" transform="scale(1 1) rotate(0) translate(4 216)">
<title>C:/Users/emilly/Documents/Lucca/Projetos/Cpp/NikiScript/src/Lexer.cpp</title>
<!-- Node1 -->
<g id="Node000001" class="node">
<title>Node1</title>
<g id="a_Node000001"><a xlink:title=" ">
<polygon fill="#999999" stroke="#666666" points="307,-212 156,-212 156,-168 307,-168 307,-212"/>
<text text-anchor="start" x="164" y="-198.5" font-family="Helvetica,sans-Serif" font-size="10.00">C:/Users/emilly/Documents</text>
<text text-anchor="start" x="164" y="-186.5" font-family="Helvetica,sans-Serif" font-size="10.00">/Lucca/Projetos/Cpp/NikiScript</text>
<text text-anchor="middle" x="231.5" y="-174.5" font-family="Helvetica,sans-Serif" font-size="10.00">/src/Lexer.cpp</text>
</a>
</g>
</g>
<!-- Node2 -->
<g id="Node000002" class="node">
<title>Node2</title>
<g id="a_Node000002"><a xlink:href="_lexer_8h.html" target="_top" xlink:title=" ">
<polygon fill="white" stroke="#666666" points="167.62,-132 119.38,-132 119.38,-112 167.62,-112 167.62,-132"/>
<text text-anchor="middle" x="143.5" y="-118.5" font-family="Helvetica,sans-Serif" font-size="10.00">Lexer.h</text>
</a>
</g>
</g>
<!-- Node1&#45;&gt;Node2 -->
<g id="edge1_Node000001_Node000002" class="edge">
<title>Node1&#45;&gt;Node2</title>
<g id="a_edge1_Node000001_Node000002"><a xlink:title=" ">
<path fill="none" stroke="#63b8ff" d="M203.17,-167.75C190.77,-158.45 176.45,-147.71 164.95,-139.09"/>
<polygon fill="#63b8ff" stroke="#63b8ff" points="167.37,-136.53 157.27,-133.33 163.17,-142.13 167.37,-136.53"/>
</a>
</g>
</g>
<!-- Node8 -->
<g id="Node000008" class="node">
<title>Node8</title>
<g id="a_Node000008"><a xlink:title=" ">
<polygon fill="#e0e0e0" stroke="#999999" points="302.12,-20 250.88,-20 250.88,0 302.12,0 302.12,-20"/>
<text text-anchor="middle" x="276.5" y="-6.5" font-family="Helvetica,sans-Serif" font-size="10.00">sstream</text>
</a>
</g>
</g>
<!-- Node1&#45;&gt;Node8 -->
<g id="edge10_Node000001_Node000008" class="edge">
<title>Node1&#45;&gt;Node8</title>
<g id="a_edge10_Node000001_Node000008"><a xlink:title=" ">
<path fill="none" stroke="#63b8ff" d="M237.68,-167.85C244.21,-145.21 254.62,-108.21 262.5,-76 266.12,-61.2 269.73,-44.38 272.38,-31.56"/>
<polygon fill="#63b8ff" stroke="#63b8ff" points="275.8,-32.27 274.37,-21.78 268.94,-30.88 275.8,-32.27"/>
</a>
</g>
</g>
<!-- Node9 -->
<g id="Node000009" class="node">
<title>Node9</title>
<g id="a_Node000009"><a xlink:href="_utils_8h.html" target="_top" xlink:title=" ">
<polygon fill="white" stroke="#666666" points="253.75,-76 209.25,-76 209.25,-56 253.75,-56 253.75,-76"/>
<text text-anchor="middle" x="231.5" y="-62.5" font-family="Helvetica,sans-Serif" font-size="10.00">Utils.h</text>
</a>
</g>
</g>
<!-- Node1&#45;&gt;Node9 -->
<g id="edge11_Node000001_Node000009" class="edge">
<title>Node1&#45;&gt;Node9</title>
<g id="a_edge11_Node000001_Node000009"><a xlink:title=" ">
<path fill="none" stroke="#63b8ff" d="M231.5,-167.75C231.5,-145.26 231.5,-110.02 231.5,-87.73"/>
<polygon fill="#63b8ff" stroke="#63b8ff" points="235,-87.81 231.5,-77.81 228,-87.81 235,-87.81"/>
</a>
</g>
</g>
<!-- Node3 -->
<g id="Node000003" class="node">
<title>Node3</title>
<g id="a_Node000003"><a xlink:title=" ">
<polygon fill="#e0e0e0" stroke="#999999" points="109.62,-20 61.38,-20 61.38,0 109.62,0 109.62,-20"/>
<text text-anchor="middle" x="85.5" y="-6.5" font-family="Helvetica,sans-Serif" font-size="10.00">stdint.h</text>
</a>
</g>
</g>
<!-- Node2&#45;&gt;Node3 -->
<g id="edge2_Node000002_Node000003" class="edge">
<title>Node2&#45;&gt;Node3</title>
<g id="a_edge2_Node000002_Node000003"><a xlink:title=" ">
<path fill="none" stroke="#63b8ff" d="M119.15,-115.8C98.46,-109.96 70.03,-98.23 56.5,-76 47.21,-60.73 57.67,-41.97 68.53,-28.54"/>
<polygon fill="#63b8ff" stroke="#63b8ff" points="70.9,-31.15 74.88,-21.33 65.64,-26.52 70.9,-31.15"/>
</a>
</g>
</g>
<!-- Node4 -->
<g id="Node000004" class="node">
<title>Node4</title>
<g id="a_Node000004"><a xlink:title=" ">
<polygon fill="#e0e0e0" stroke="#999999" points="227.5,-20 187.5,-20 187.5,0 227.5,0 227.5,-20"/>
<text text-anchor="middle" x="207.5" y="-6.5" font-family="Helvetica,sans-Serif" font-size="10.00">string</text>
</a>
</g>
</g>
<!-- Node2&#45;&gt;Node4 -->
<g id="edge3_Node000002_Node000004" class="edge">
<title>Node2&#45;&gt;Node4</title>
<g id="a_edge3_Node000002_Node000004"><a xlink:title=" ">
<path fill="none" stroke="#63b8ff" d="M148.96,-111.62C159.44,-93.6 182.59,-53.81 196.43,-30.02"/>
<polygon fill="#63b8ff" stroke="#63b8ff" points="199.29,-32.07 201.3,-21.66 193.24,-28.55 199.29,-32.07"/>
</a>
</g>
</g>
<!-- Node5 -->
<g id="Node000005" class="node">
<title>Node5</title>
<g id="a_Node000005"><a xlink:href="_token_8h.html" target="_top" xlink:title=" ">
<polygon fill="white" stroke="#666666" points="115.75,-76 65.25,-76 65.25,-56 115.75,-56 115.75,-76"/>
<text text-anchor="middle" x="90.5" y="-62.5" font-family="Helvetica,sans-Serif" font-size="10.00">Token.h</text>
</a>
</g>
</g>
<!-- Node2&#45;&gt;Node5 -->
<g id="edge4_Node000002_Node000005" class="edge">
<title>Node2&#45;&gt;Node5</title>
<g id="a_edge4_Node000002_Node000005"><a xlink:title=" ">
<path fill="none" stroke="#63b8ff" d="M134.27,-111.59C126.9,-104.08 116.37,-93.35 107.48,-84.3"/>
<polygon fill="#63b8ff" stroke="#63b8ff" points="110.19,-82.06 100.69,-77.38 105.19,-86.97 110.19,-82.06"/>
</a>
</g>
</g>
<!-- Node7 -->
<g id="Node000007" class="node">
<title>Node7</title>
<g id="a_Node000007"><a xlink:href="_d_l_l_8h.html" target="_top" xlink:title=" ">
<polygon fill="white" stroke="#666666" points="169.62,-20 127.38,-20 127.38,0 169.62,0 169.62,-20"/>
<text text-anchor="middle" x="148.5" y="-6.5" font-family="Helvetica,sans-Serif" font-size="10.00">DLL.h</text>
</a>
</g>
</g>
<!-- Node2&#45;&gt;Node7 -->
<g id="edge9_Node000002_Node000007" class="edge">
<title>Node2&#45;&gt;Node7</title>
<g id="a_edge9_Node000002_Node000007"><a xlink:title=" ">
<path fill="none" stroke="#63b8ff" d="M143.93,-111.62C144.73,-94.01 146.47,-55.59 147.56,-31.65"/>
<polygon fill="#63b8ff" stroke="#63b8ff" points="151.05,-32.02 148.01,-21.87 144.06,-31.7 151.05,-32.02"/>
</a>
</g>
</g>
<!-- Node5&#45;&gt;Node3 -->
<g id="edge5_Node000005_Node000003" class="edge">
<title>Node5&#45;&gt;Node3</title>
<g id="a_edge5_Node000005_Node000003"><a xlink:title=" ">
<path fill="none" stroke="#63b8ff" d="M89.63,-55.59C89.02,-49.01 88.18,-39.96 87.42,-31.73"/>
<polygon fill="#63b8ff" stroke="#63b8ff" points="90.91,-31.44 86.5,-21.81 83.94,-32.09 90.91,-31.44"/>
</a>
</g>
</g>
<!-- Node5&#45;&gt;Node4 -->
<g id="edge6_Node000005_Node000004" class="edge">
<title>Node5&#45;&gt;Node4</title>
<g id="a_edge6_Node000005_Node000004"><a xlink:title=" ">
<path fill="none" stroke="#63b8ff" d="M110.88,-55.59C129.17,-47.15 156.26,-34.65 177.1,-25.03"/>
<polygon fill="#63b8ff" stroke="#63b8ff" points="178.37,-28.3 185.98,-20.93 175.43,-21.95 178.37,-28.3"/>
</a>
</g>
</g>
<!-- Node6 -->
<g id="Node000006" class="node">
<title>Node6</title>
<g id="a_Node000006"><a xlink:title=" ">
<polygon fill="#e0e0e0" stroke="#999999" points="43,-20 0,-20 0,0 43,0 43,-20"/>
<text text-anchor="middle" x="21.5" y="-6.5" font-family="Helvetica,sans-Serif" font-size="10.00">vector</text>
</a>
</g>
</g>
<!-- Node5&#45;&gt;Node6 -->
<g id="edge7_Node000005_Node000006" class="edge">
<title>Node5&#45;&gt;Node6</title>
<g id="a_edge7_Node000005_Node000006"><a xlink:title=" ">
<path fill="none" stroke="#63b8ff" d="M78.48,-55.59C68.49,-47.77 54.04,-36.46 42.19,-27.19"/>
<polygon fill="#63b8ff" stroke="#63b8ff" points="44.61,-24.64 34.57,-21.23 40.29,-30.15 44.61,-24.64"/>
</a>
</g>
</g>
<!-- Node5&#45;&gt;Node7 -->
<g id="edge8_Node000005_Node000007" class="edge">
<title>Node5&#45;&gt;Node7</title>
<g id="a_edge8_Node000005_Node000007"><a xlink:title=" ">
<path fill="none" stroke="#63b8ff" d="M100.6,-55.59C108.75,-48.01 120.43,-37.13 130.22,-28.02"/>
<polygon fill="#63b8ff" stroke="#63b8ff" points="132.47,-30.71 137.41,-21.33 127.7,-25.58 132.47,-30.71"/>
</a>
</g>
</g>
<!-- Node9&#45;&gt;Node3 -->
<g id="edge12_Node000009_Node000003" class="edge">
<title>Node9&#45;&gt;Node3</title>
<g id="a_edge12_Node000009_Node000003"><a xlink:title=" ">
<path fill="none" stroke="#63b8ff" d="M209.01,-56.68C185.39,-47.94 147.93,-34.09 120.45,-23.93"/>
<polygon fill="#63b8ff" stroke="#63b8ff" points="121.73,-20.67 111.14,-20.48 119.31,-27.24 121.73,-20.67"/>
</a>
</g>
</g>
<!-- Node9&#45;&gt;Node4 -->
<g id="edge13_Node000009_Node000004" class="edge">
<title>Node9&#45;&gt;Node4</title>
<g id="a_edge13_Node000009_Node000004"><a xlink:title=" ">
<path fill="none" stroke="#63b8ff" d="M227.32,-55.59C224.26,-48.7 219.99,-39.1 216.2,-30.57"/>
<polygon fill="#63b8ff" stroke="#63b8ff" points="219.51,-29.4 212.25,-21.68 213.11,-32.24 219.51,-29.4"/>
</a>
</g>
</g>
<!-- Node9&#45;&gt;Node7 -->
<g id="edge15_Node000009_Node000007" class="edge">
<title>Node9&#45;&gt;Node7</title>
<g id="a_edge15_Node000009_Node000007"><a xlink:title=" ">
<path fill="none" stroke="#63b8ff" d="M217.04,-55.59C204.74,-47.59 186.82,-35.93 172.39,-26.54"/>
<polygon fill="#63b8ff" stroke="#63b8ff" points="174.63,-23.82 164.34,-21.3 170.81,-29.69 174.63,-23.82"/>
</a>
</g>
</g>
<!-- Node9&#45;&gt;Node8 -->
<g id="edge14_Node000009_Node000008" class="edge">
<title>Node9&#45;&gt;Node8</title>
<g id="a_edge14_Node000009_Node000008"><a xlink:title=" ">
<path fill="none" stroke="#63b8ff" d="M239.34,-55.59C245.47,-48.24 254.17,-37.8 261.61,-28.87"/>
<polygon fill="#63b8ff" stroke="#63b8ff" points="264.07,-31.38 267.78,-21.46 258.69,-26.9 264.07,-31.38"/>
</a>
</g>
</g>
</g>
</svg>
