<?xml version="1.0" encoding="UTF-8" standalone="no"?>
<!DOCTYPE svg PUBLIC "-//W3C//DTD SVG 1.1//EN"
 "http://www.w3.org/Graphics/SVG/1.1/DTD/svg11.dtd">
<!-- Generated by graphviz version 12.2.1 (20241206.2353)
 -->
<!-- Title: C:/Users/emilly/Documents/Lucca/Projetos/Cpp/NikiScript/src/NikiScript.cpp Pages: 1 -->
<svg width="345pt" height="108pt"
 viewBox="0.00 0.00 344.62 108.00" xmlns="http://www.w3.org/2000/svg" xmlns:xlink="http://www.w3.org/1999/xlink">
<g id="graph0" class="graph" transform="scale(1 1) rotate(0) translate(4 104)">
<title>C:/Users/emilly/Documents/Lucca/Projetos/Cpp/NikiScript/src/NikiScript.cpp</title>
<!-- Node1 -->
<g id="Node000001" class="node">
<title>Node1</title>
<g id="a_Node000001"><a xlink:title=" ">
<polygon fill="#999999" stroke="#666666" points="252,-100 101,-100 101,-56 252,-56 252,-100"/>
<text text-anchor="start" x="109" y="-86.5" font-family="Helvetica,sans-Serif" font-size="10.00">C:/Users/emilly/Documents</text>
<text text-anchor="start" x="109" y="-74.5" font-family="Helvetica,sans-Serif" font-size="10.00">/Lucca/Projetos/Cpp/NikiScript</text>
<text text-anchor="middle" x="176.5" y="-62.5" font-family="Helvetica,sans-Serif" font-size="10.00">/src/NikiScript.cpp</text>
</a>
</g>
</g>
<!-- Node2 -->
<g id="Node000002" class="node">
<title>Node2</title>
<g id="a_Node000002"><a xlink:title=" ">
<polygon fill="#e0e0e0" stroke="#999999" points="67,-20 0,-20 0,0 67,0 67,-20"/>
<text text-anchor="middle" x="33.5" y="-6.5" font-family="Helvetica,sans-Serif" font-size="10.00">NikiScript.h</text>
</a>
</g>
</g>
<!-- Node1&#45;&gt;Node2 -->
<g id="edge1_Node000001_Node000002" class="edge">
<title>Node1&#45;&gt;Node2</title>
<g id="a_edge1_Node000001_Node000002"><a xlink:title=" ">
<path fill="none" stroke="#63b8ff" d="M130.07,-55.57C108.43,-45.58 83.28,-33.97 64.07,-25.11"/>
<polygon fill="#63b8ff" stroke="#63b8ff" points="65.71,-22.01 55.17,-21 62.78,-28.37 65.71,-22.01"/>
</a>
</g>
</g>
<!-- Node3 -->
<g id="Node000003" class="node">
<title>Node3</title>
<g id="a_Node000003"><a xlink:title=" ">
<polygon fill="#e0e0e0" stroke="#999999" points="136.12,-20 84.88,-20 84.88,0 136.12,0 136.12,-20"/>
<text text-anchor="middle" x="110.5" y="-6.5" font-family="Helvetica,sans-Serif" font-size="10.00">sstream</text>
</a>
</g>
</g>
<!-- Node1&#45;&gt;Node3 -->
<g id="edge2_Node000001_Node000003" class="edge">
<title>Node1&#45;&gt;Node3</title>
<g id="a_edge2_Node000001_Node000003"><a xlink:title=" ">
<path fill="none" stroke="#63b8ff" d="M155.25,-55.75C146.42,-46.92 136.28,-36.78 127.9,-28.4"/>
<polygon fill="#63b8ff" stroke="#63b8ff" points="130.54,-26.09 120.99,-21.49 125.59,-31.04 130.54,-26.09"/>
</a>
</g>
</g>
<!-- Node4 -->
<g id="Node000004" class="node">
<title>Node4</title>
<g id="a_Node000004"><a xlink:title=" ">
<polygon fill="#e0e0e0" stroke="#999999" points="198.75,-20 154.25,-20 154.25,0 198.75,0 198.75,-20"/>
<text text-anchor="middle" x="176.5" y="-6.5" font-family="Helvetica,sans-Serif" font-size="10.00">Utils.h</text>
</a>
</g>
</g>
<!-- Node1&#45;&gt;Node4 -->
<g id="edge3_Node000001_Node000004" class="edge">
<title>Node1&#45;&gt;Node4</title>
<g id="a_edge3_Node000001_Node000004"><a xlink:title=" ">
<path fill="none" stroke="#63b8ff" d="M176.5,-55.75C176.5,-48.13 176.5,-39.53 176.5,-31.93"/>
<polygon fill="#63b8ff" stroke="#63b8ff" points="180,-31.93 176.5,-21.93 173,-31.93 180,-31.93"/>
</a>
</g>
</g>
<!-- Node5 -->
<g id="Node000005" class="node">
<title>Node5</title>
<g id="a_Node000005"><a xlink:title=" ">
<polygon fill="#e0e0e0" stroke="#999999" points="269.88,-20 217.12,-20 217.12,0 269.88,0 269.88,-20"/>
<text text-anchor="middle" x="243.5" y="-6.5" font-family="Helvetica,sans-Serif" font-size="10.00">Parser.h</text>
</a>
</g>
</g>
<!-- Node1&#45;&gt;Node5 -->
<g id="edge4_Node000001_Node000005" class="edge">
<title>Node1&#45;&gt;Node5</title>
<g id="a_edge4_Node000001_Node000005"><a xlink:title=" ">
<path fill="none" stroke="#63b8ff" d="M198.07,-55.75C207.04,-46.92 217.33,-36.78 225.84,-28.4"/>
<polygon fill="#63b8ff" stroke="#63b8ff" points="228.19,-30.99 232.86,-21.48 223.28,-26.01 228.19,-30.99"/>
</a>
</g>
</g>
<!-- Node6 -->
<g id="Node000006" class="node">
<title>Node6</title>
<g id="a_Node000006"><a xlink:title=" ">
<polygon fill="#e0e0e0" stroke="#999999" points="336.62,-20 288.38,-20 288.38,0 336.62,0 336.62,-20"/>
<text text-anchor="middle" x="312.5" y="-6.5" font-family="Helvetica,sans-Serif" font-size="10.00">Lexer.h</text>
</a>
</g>
</g>
<!-- Node1&#45;&gt;Node6 -->
<g id="edge5_Node000001_Node000006" class="edge">
<title>Node1&#45;&gt;Node6</title>
<g id="a_edge5_Node000001_Node000006"><a xlink:title=" ">
<path fill="none" stroke="#63b8ff" d="M220.66,-55.57C241.05,-45.68 264.72,-34.19 282.92,-25.36"/>
<polygon fill="#63b8ff" stroke="#63b8ff" points="284.37,-28.54 291.84,-21.03 281.32,-22.24 284.37,-28.54"/>
</a>
</g>
</g>
</g>
</svg>
