<?xml version="1.0" encoding="UTF-8" standalone="no"?>
<!DOCTYPE svg PUBLIC "-//W3C//DTD SVG 1.1//EN"
 "http://www.w3.org/Graphics/SVG/1.1/DTD/svg11.dtd">
<!-- Generated by graphviz version 12.2.1 (20241206.2353)
 -->
<!-- Title: C:/Users/emilly/Documents/Lucca/Projetos/Cpp/NikiScript/src/NikiScript.h Pages: 1 -->
<svg width="665pt" height="276pt"
 viewBox="0.00 0.00 665.16 276.00" xmlns="http://www.w3.org/2000/svg" xmlns:xlink="http://www.w3.org/1999/xlink">
<g id="graph0" class="graph" transform="scale(1 1) rotate(0) translate(4 272)">
<title>C:/Users/emilly/Documents/Lucca/Projetos/Cpp/NikiScript/src/NikiScript.h</title>
<!-- Node1 -->
<g id="Node000001" class="node">
<title>Node1</title>
<g id="a_Node000001"><a xlink:title=" ">
<polygon fill="#999999" stroke="#666666" points="202.25,-268 51.25,-268 51.25,-224 202.25,-224 202.25,-268"/>
<text text-anchor="start" x="59.25" y="-254.5" font-family="Helvetica,sans-Serif" font-size="10.00">C:/Users/emilly/Documents</text>
<text text-anchor="start" x="59.25" y="-242.5" font-family="Helvetica,sans-Serif" font-size="10.00">/Lucca/Projetos/Cpp/NikiScript</text>
<text text-anchor="middle" x="126.75" y="-230.5" font-family="Helvetica,sans-Serif" font-size="10.00">/src/NikiScript.h</text>
</a>
</g>
</g>
<!-- Node2 -->
<g id="Node000002" class="node">
<title>Node2</title>
<g id="a_Node000002"><a xlink:title=" ">
<polygon fill="#e0e0e0" stroke="#999999" points="134.5,-20 69,-20 69,0 134.5,0 134.5,-20"/>
<text text-anchor="middle" x="101.75" y="-6.5" font-family="Helvetica,sans-Serif" font-size="10.00">string_view</text>
</a>
</g>
</g>
<!-- Node1&#45;&gt;Node2 -->
<g id="edge1_Node000001_Node000002" class="edge">
<title>Node1&#45;&gt;Node2</title>
<g id="a_edge1_Node000001_Node000002"><a xlink:title=" ">
<path fill="none" stroke="#63b8ff" d="M90.24,-223.6C60.72,-203.99 21.3,-171.96 3.75,-132 -3.94,-114.51 1.94,-69.6 11.75,-56 23,-40.39 41.22,-29.88 58.35,-22.98"/>
<polygon fill="#63b8ff" stroke="#63b8ff" points="59.2,-26.39 67.37,-19.65 56.78,-19.83 59.2,-26.39"/>
</a>
</g>
</g>
<!-- Node3 -->
<g id="Node000003" class="node">
<title>Node3</title>
<g id="a_Node000003"><a xlink:href="_context_8h.html" target="_top" xlink:title=" ">
<polygon fill="white" stroke="#666666" points="345.12,-188 286.37,-188 286.37,-168 345.12,-168 345.12,-188"/>
<text text-anchor="middle" x="315.75" y="-174.5" font-family="Helvetica,sans-Serif" font-size="10.00">Context.h</text>
</a>
</g>
</g>
<!-- Node1&#45;&gt;Node3 -->
<g id="edge2_Node000001_Node000003" class="edge">
<title>Node1&#45;&gt;Node3</title>
<g id="a_edge2_Node000001_Node000003"><a xlink:title=" ">
<path fill="none" stroke="#63b8ff" d="M188.11,-223.57C217.78,-213.21 252.44,-201.11 278.15,-192.13"/>
<polygon fill="#63b8ff" stroke="#63b8ff" points="279.21,-195.47 287.5,-188.86 276.9,-188.86 279.21,-195.47"/>
</a>
</g>
</g>
<!-- Node4 -->
<g id="Node000004" class="node">
<title>Node4</title>
<g id="a_Node000004"><a xlink:title=" ">
<polygon fill="#e0e0e0" stroke="#999999" points="623.25,-20 580.25,-20 580.25,0 623.25,0 623.25,-20"/>
<text text-anchor="middle" x="601.75" y="-6.5" font-family="Helvetica,sans-Serif" font-size="10.00">vector</text>
</a>
</g>
</g>
<!-- Node3&#45;&gt;Node4 -->
<g id="edge3_Node000003_Node000004" class="edge">
<title>Node3&#45;&gt;Node4</title>
<g id="a_edge3_Node000003_Node000004"><a xlink:title=" ">
<path fill="none" stroke="#63b8ff" d="M345.18,-175.64C411.71,-172.09 571.3,-160.75 615.75,-132 647.13,-111.7 666.95,-90.14 651.75,-56 646.61,-44.48 636.91,-34.67 627.41,-27.18"/>
<polygon fill="#63b8ff" stroke="#63b8ff" points="629.53,-24.39 619.38,-21.37 625.43,-30.07 629.53,-24.39"/>
</a>
</g>
</g>
<!-- Node5 -->
<g id="Node000005" class="node">
<title>Node5</title>
<g id="a_Node000005"><a xlink:title=" ">
<polygon fill="#e0e0e0" stroke="#999999" points="534.87,-20 486.62,-20 486.62,0 534.87,0 534.87,-20"/>
<text text-anchor="middle" x="510.75" y="-6.5" font-family="Helvetica,sans-Serif" font-size="10.00">stdint.h</text>
</a>
</g>
</g>
<!-- Node3&#45;&gt;Node5 -->
<g id="edge4_Node000003_Node000005" class="edge">
<title>Node3&#45;&gt;Node5</title>
<g id="a_edge4_Node000003_Node000005"><a xlink:title=" ">
<path fill="none" stroke="#63b8ff" d="M345.54,-176.2C379.87,-173.7 435.86,-164.48 469.75,-132 497.68,-105.23 506.58,-58.75 509.42,-31.86"/>
<polygon fill="#63b8ff" stroke="#63b8ff" points="512.91,-32.17 510.25,-21.91 505.93,-31.59 512.91,-32.17"/>
</a>
</g>
</g>
<!-- Node6 -->
<g id="Node000006" class="node">
<title>Node6</title>
<g id="a_Node000006"><a xlink:title=" ">
<polygon fill="#e0e0e0" stroke="#999999" points="404.75,-20 364.75,-20 364.75,0 404.75,0 404.75,-20"/>
<text text-anchor="middle" x="384.75" y="-6.5" font-family="Helvetica,sans-Serif" font-size="10.00">string</text>
</a>
</g>
</g>
<!-- Node3&#45;&gt;Node6 -->
<g id="edge5_Node000003_Node000006" class="edge">
<title>Node3&#45;&gt;Node6</title>
<g id="a_edge5_Node000003_Node000006"><a xlink:title=" ">
<path fill="none" stroke="#63b8ff" d="M317.7,-167.53C322.23,-146.65 334.54,-95.38 353.75,-56 358.25,-46.77 364.49,-37.29 370.19,-29.44"/>
<polygon fill="#63b8ff" stroke="#63b8ff" points="372.8,-31.78 376.04,-21.69 367.22,-27.56 372.8,-31.78"/>
</a>
</g>
</g>
<!-- Node7 -->
<g id="Node000007" class="node">
<title>Node7</title>
<g id="a_Node000007"><a xlink:title=" ">
<polygon fill="#e0e0e0" stroke="#999999" points="181.12,-76 98.37,-76 98.37,-56 181.12,-56 181.12,-76"/>
<text text-anchor="middle" x="139.75" y="-62.5" font-family="Helvetica,sans-Serif" font-size="10.00">unordered_map</text>
</a>
</g>
</g>
<!-- Node3&#45;&gt;Node7 -->
<g id="edge6_Node000003_Node000007" class="edge">
<title>Node3&#45;&gt;Node7</title>
<g id="a_edge6_Node000003_Node000007"><a xlink:title=" ">
<path fill="none" stroke="#63b8ff" d="M286.16,-177C250.49,-175.34 191.09,-167.03 156.75,-132 145.25,-120.27 141.26,-101.79 139.99,-87.53"/>
<polygon fill="#63b8ff" stroke="#63b8ff" points="143.5,-87.69 139.53,-77.87 136.51,-88.02 143.5,-87.69"/>
</a>
</g>
</g>
<!-- Node8 -->
<g id="Node000008" class="node">
<title>Node8</title>
<g id="a_Node000008"><a xlink:href="_command_8h.html" target="_top" xlink:title=" ">
<polygon fill="white" stroke="#666666" points="306.37,-76 237.12,-76 237.12,-56 306.37,-56 306.37,-76"/>
<text text-anchor="middle" x="271.75" y="-62.5" font-family="Helvetica,sans-Serif" font-size="10.00">Command.h</text>
</a>
</g>
</g>
<!-- Node3&#45;&gt;Node8 -->
<g id="edge7_Node000003_Node000008" class="edge">
<title>Node3&#45;&gt;Node8</title>
<g id="a_edge7_Node000003_Node000008"><a xlink:title=" ">
<path fill="none" stroke="#63b8ff" d="M311.99,-167.62C304.88,-149.84 289.3,-110.88 279.74,-87"/>
<polygon fill="#63b8ff" stroke="#63b8ff" points="283.01,-85.74 276.05,-77.76 276.51,-88.34 283.01,-85.74"/>
</a>
</g>
</g>
<!-- Node9 -->
<g id="Node000009" class="node">
<title>Node9</title>
<g id="a_Node000009"><a xlink:href="_command_handler_8h.html" target="_top" xlink:title=" ">
<polygon fill="white" stroke="#666666" points="268.25,-132 165.25,-132 165.25,-112 268.25,-112 268.25,-132"/>
<text text-anchor="middle" x="216.75" y="-118.5" font-family="Helvetica,sans-Serif" font-size="10.00">CommandHandler.h</text>
</a>
</g>
</g>
<!-- Node3&#45;&gt;Node9 -->
<g id="edge11_Node000003_Node000009" class="edge">
<title>Node3&#45;&gt;Node9</title>
<g id="a_edge11_Node000003_Node000009"><a xlink:title=" ">
<path fill="none" stroke="#63b8ff" d="M298.5,-167.59C283.4,-159.36 261.22,-147.26 243.76,-137.74"/>
<polygon fill="#63b8ff" stroke="#63b8ff" points="245.91,-134.92 235.45,-133.2 242.56,-141.07 245.91,-134.92"/>
</a>
</g>
</g>
<!-- Node10 -->
<g id="Node000010" class="node">
<title>Node10</title>
<g id="a_Node000010"><a xlink:href="_print_callback_8h.html" target="_top" xlink:title=" ">
<polygon fill="white" stroke="#666666" points="461.12,-132 378.37,-132 378.37,-112 461.12,-112 461.12,-132"/>
<text text-anchor="middle" x="419.75" y="-118.5" font-family="Helvetica,sans-Serif" font-size="10.00">PrintCallback.h</text>
</a>
</g>
</g>
<!-- Node3&#45;&gt;Node10 -->
<g id="edge15_Node000003_Node000010" class="edge">
<title>Node3&#45;&gt;Node10</title>
<g id="a_edge15_Node000003_Node000010"><a xlink:title=" ">
<path fill="none" stroke="#63b8ff" d="M333.86,-167.59C349.72,-159.36 373.03,-147.26 391.36,-137.74"/>
<polygon fill="#63b8ff" stroke="#63b8ff" points="392.88,-140.89 400.15,-133.18 389.66,-134.68 392.88,-140.89"/>
</a>
</g>
</g>
<!-- Node13 -->
<g id="Node000013" class="node">
<title>Node13</title>
<g id="a_Node000013"><a xlink:href="_program_variable_8h.html" target="_top" xlink:title=" ">
<polygon fill="white" stroke="#666666" points="108.5,-132 13,-132 13,-112 108.5,-112 108.5,-132"/>
<text text-anchor="middle" x="60.75" y="-118.5" font-family="Helvetica,sans-Serif" font-size="10.00">ProgramVariable.h</text>
</a>
</g>
</g>
<!-- Node3&#45;&gt;Node13 -->
<g id="edge22_Node000003_Node000013" class="edge">
<title>Node3&#45;&gt;Node13</title>
<g id="a_edge22_Node000003_Node000013"><a xlink:title=" ">
<path fill="none" stroke="#63b8ff" d="M285.99,-170.7C244.5,-161.91 168.49,-145.82 116.33,-134.77"/>
<polygon fill="#63b8ff" stroke="#63b8ff" points="117.25,-131.39 106.74,-132.74 115.8,-138.24 117.25,-131.39"/>
</a>
</g>
</g>
<!-- Node14 -->
<g id="Node000014" class="node">
<title>Node14</title>
<g id="a_Node000014"><a xlink:href="_lexer_8h.html" target="_top" xlink:title=" ">
<polygon fill="white" stroke="#666666" points="606.87,-132 558.62,-132 558.62,-112 606.87,-112 606.87,-132"/>
<text text-anchor="middle" x="582.75" y="-118.5" font-family="Helvetica,sans-Serif" font-size="10.00">Lexer.h</text>
</a>
</g>
</g>
<!-- Node3&#45;&gt;Node14 -->
<g id="edge27_Node000003_Node000014" class="edge">
<title>Node3&#45;&gt;Node14</title>
<g id="a_edge27_Node000003_Node000014"><a xlink:title=" ">
<path fill="none" stroke="#63b8ff" d="M345.6,-170.96C395.06,-160.96 493.83,-140.98 546.96,-130.24"/>
<polygon fill="#63b8ff" stroke="#63b8ff" points="547.59,-133.68 556.7,-128.27 546.21,-126.82 547.59,-133.68"/>
</a>
</g>
</g>
<!-- Node8&#45;&gt;Node2 -->
<g id="edge9_Node000008_Node000002" class="edge">
<title>Node8&#45;&gt;Node2</title>
<g id="a_edge9_Node000008_Node000002"><a xlink:title=" ">
<path fill="none" stroke="#63b8ff" d="M242.13,-55.59C214.51,-46.82 173.07,-33.66 142.37,-23.9"/>
<polygon fill="#63b8ff" stroke="#63b8ff" points="143.62,-20.63 133.03,-20.94 141.5,-27.3 143.62,-20.63"/>
</a>
</g>
</g>
<!-- Node8&#45;&gt;Node4 -->
<g id="edge8_Node000008_Node000004" class="edge">
<title>Node8&#45;&gt;Node4</title>
<g id="a_edge8_Node000008_Node000004"><a xlink:title=" ">
<path fill="none" stroke="#63b8ff" d="M306.75,-59.27C370.8,-48.79 506.01,-26.67 568.63,-16.42"/>
<polygon fill="#63b8ff" stroke="#63b8ff" points="569,-19.91 578.3,-14.84 567.87,-13 569,-19.91"/>
</a>
</g>
</g>
<!-- Node8&#45;&gt;Node6 -->
<g id="edge10_Node000008_Node000006" class="edge">
<title>Node8&#45;&gt;Node6</title>
<g id="a_edge10_Node000008_Node000006"><a xlink:title=" ">
<path fill="none" stroke="#63b8ff" d="M291.43,-55.59C308.9,-47.24 334.7,-34.92 354.74,-25.34"/>
<polygon fill="#63b8ff" stroke="#63b8ff" points="356.03,-28.6 363.54,-21.13 353.01,-22.29 356.03,-28.6"/>
</a>
</g>
</g>
<!-- Node9&#45;&gt;Node2 -->
<g id="edge13_Node000009_Node000002" class="edge">
<title>Node9&#45;&gt;Node2</title>
<g id="a_edge13_Node000009_Node000002"><a xlink:title=" ">
<path fill="none" stroke="#63b8ff" d="M215.07,-111.94C212.12,-98.3 204.84,-72.33 189.75,-56 176.95,-42.15 158.91,-31.89 142.5,-24.7"/>
<polygon fill="#63b8ff" stroke="#63b8ff" points="144,-21.54 133.42,-20.99 141.35,-28.01 144,-21.54"/>
</a>
</g>
</g>
<!-- Node9&#45;&gt;Node7 -->
<g id="edge12_Node000009_Node000007" class="edge">
<title>Node9&#45;&gt;Node7</title>
<g id="a_edge12_Node000009_Node000007"><a xlink:title=" ">
<path fill="none" stroke="#63b8ff" d="M203.33,-111.59C192.14,-103.74 175.94,-92.38 162.69,-83.09"/>
<polygon fill="#63b8ff" stroke="#63b8ff" points="164.7,-80.22 154.5,-77.35 160.68,-85.96 164.7,-80.22"/>
</a>
</g>
</g>
<!-- Node9&#45;&gt;Node8 -->
<g id="edge14_Node000009_Node000008" class="edge">
<title>Node9&#45;&gt;Node8</title>
<g id="a_edge14_Node000009_Node000008"><a xlink:title=" ">
<path fill="none" stroke="#63b8ff" d="M226.33,-111.59C233.98,-104.08 244.9,-93.35 254.12,-84.3"/>
<polygon fill="#63b8ff" stroke="#63b8ff" points="256.51,-86.86 261.2,-77.36 251.61,-81.87 256.51,-86.86"/>
</a>
</g>
</g>
<!-- Node10&#45;&gt;Node5 -->
<g id="edge16_Node000010_Node000005" class="edge">
<title>Node10&#45;&gt;Node5</title>
<g id="a_edge16_Node000010_Node000005"><a xlink:title=" ">
<path fill="none" stroke="#63b8ff" d="M427.5,-111.62C442.61,-93.36 476.22,-52.73 495.8,-29.07"/>
<polygon fill="#63b8ff" stroke="#63b8ff" points="498.36,-31.46 502.04,-21.52 492.97,-27 498.36,-31.46"/>
</a>
</g>
</g>
<!-- Node10&#45;&gt;Node6 -->
<g id="edge17_Node000010_Node000006" class="edge">
<title>Node10&#45;&gt;Node6</title>
<g id="a_edge17_Node000010_Node000006"><a xlink:title=" ">
<path fill="none" stroke="#63b8ff" d="M420.69,-111.87C421.68,-99.02 422.31,-75.02 415.75,-56 412.44,-46.42 406.49,-36.99 400.68,-29.26"/>
<polygon fill="#63b8ff" stroke="#63b8ff" points="403.56,-27.26 394.56,-21.68 398.11,-31.66 403.56,-27.26"/>
</a>
</g>
</g>
<!-- Node11 -->
<g id="Node000011" class="node">
<title>Node11</title>
<g id="a_Node000011"><a xlink:href="_utils_8h.html" target="_top" xlink:title=" ">
<polygon fill="white" stroke="#666666" points="407,-76 362.5,-76 362.5,-56 407,-56 407,-76"/>
<text text-anchor="middle" x="384.75" y="-62.5" font-family="Helvetica,sans-Serif" font-size="10.00">Utils.h</text>
</a>
</g>
</g>
<!-- Node10&#45;&gt;Node11 -->
<g id="edge18_Node000010_Node000011" class="edge">
<title>Node10&#45;&gt;Node11</title>
<g id="a_edge18_Node000010_Node000011"><a xlink:title=" ">
<path fill="none" stroke="#63b8ff" d="M413.65,-111.59C409.03,-104.47 402.54,-94.45 396.88,-85.72"/>
<polygon fill="#63b8ff" stroke="#63b8ff" points="399.97,-84.06 391.6,-77.57 394.1,-87.86 399.97,-84.06"/>
</a>
</g>
</g>
<!-- Node11&#45;&gt;Node5 -->
<g id="edge19_Node000011_Node000005" class="edge">
<title>Node11&#45;&gt;Node5</title>
<g id="a_edge19_Node000011_Node000005"><a xlink:title=" ">
<path fill="none" stroke="#63b8ff" d="M406.69,-55.59C426.45,-47.13 455.74,-34.58 478.21,-24.94"/>
<polygon fill="#63b8ff" stroke="#63b8ff" points="479.42,-28.23 487.24,-21.08 476.67,-21.8 479.42,-28.23"/>
</a>
</g>
</g>
<!-- Node11&#45;&gt;Node6 -->
<g id="edge20_Node000011_Node000006" class="edge">
<title>Node11&#45;&gt;Node6</title>
<g id="a_edge20_Node000011_Node000006"><a xlink:title=" ">
<path fill="none" stroke="#63b8ff" d="M384.75,-55.59C384.75,-49.01 384.75,-39.96 384.75,-31.73"/>
<polygon fill="#63b8ff" stroke="#63b8ff" points="388.25,-31.81 384.75,-21.81 381.25,-31.81 388.25,-31.81"/>
</a>
</g>
</g>
<!-- Node12 -->
<g id="Node000012" class="node">
<title>Node12</title>
<g id="a_Node000012"><a xlink:title=" ">
<polygon fill="#e0e0e0" stroke="#999999" points="328.37,-20 277.12,-20 277.12,0 328.37,0 328.37,-20"/>
<text text-anchor="middle" x="302.75" y="-6.5" font-family="Helvetica,sans-Serif" font-size="10.00">sstream</text>
</a>
</g>
</g>
<!-- Node11&#45;&gt;Node12 -->
<g id="edge21_Node000011_Node000012" class="edge">
<title>Node11&#45;&gt;Node12</title>
<g id="a_edge21_Node000011_Node000012"><a xlink:title=" ">
<path fill="none" stroke="#63b8ff" d="M370.46,-55.59C358.31,-47.59 340.61,-35.93 326.35,-26.54"/>
<polygon fill="#63b8ff" stroke="#63b8ff" points="328.68,-23.89 318.4,-21.31 324.83,-29.73 328.68,-23.89"/>
</a>
</g>
</g>
<!-- Node13&#45;&gt;Node2 -->
<g id="edge24_Node000013_Node000002" class="edge">
<title>Node13&#45;&gt;Node2</title>
<g id="a_edge24_Node000013_Node000002"><a xlink:title=" ">
<path fill="none" stroke="#63b8ff" d="M47.18,-111.66C30.76,-99.16 6.72,-76.2 18.75,-56 27.53,-41.24 43.04,-31.02 58.29,-24.1"/>
<polygon fill="#63b8ff" stroke="#63b8ff" points="59.39,-27.43 67.32,-20.4 56.74,-20.95 59.39,-27.43"/>
</a>
</g>
</g>
<!-- Node13&#45;&gt;Node6 -->
<g id="edge23_Node000013_Node000006" class="edge">
<title>Node13&#45;&gt;Node6</title>
<g id="a_edge23_Node000013_Node000006"><a xlink:title=" ">
<path fill="none" stroke="#63b8ff" d="M62.03,-111.72C64.56,-97.3 71.61,-69.72 89.75,-56 134.16,-22.4 282.83,-29.24 337.75,-20 342.86,-19.14 348.28,-18.16 353.54,-17.18"/>
<polygon fill="#63b8ff" stroke="#63b8ff" points="354,-20.65 363.17,-15.34 352.69,-13.78 354,-20.65"/>
</a>
</g>
</g>
<!-- Node13&#45;&gt;Node7 -->
<g id="edge26_Node000013_Node000007" class="edge">
<title>Node13&#45;&gt;Node7</title>
<g id="a_edge26_Node000013_Node000007"><a xlink:title=" ">
<path fill="none" stroke="#63b8ff" d="M74.51,-111.59C86.1,-103.67 102.94,-92.16 116.61,-82.82"/>
<polygon fill="#63b8ff" stroke="#63b8ff" points="118.35,-85.87 124.63,-77.33 114.4,-80.09 118.35,-85.87"/>
</a>
</g>
</g>
<!-- Node13&#45;&gt;Node12 -->
<g id="edge25_Node000013_Node000012" class="edge">
<title>Node13&#45;&gt;Node12</title>
<g id="a_edge25_Node000013_Node000012"><a xlink:title=" ">
<path fill="none" stroke="#63b8ff" d="M56.63,-111.81C51.15,-97.99 43.57,-71.81 56.75,-56 82.93,-24.59 203.76,-15.04 265.78,-12.19"/>
<polygon fill="#63b8ff" stroke="#63b8ff" points="265.65,-15.7 275.49,-11.78 265.35,-8.7 265.65,-15.7"/>
</a>
</g>
</g>
<!-- Node14&#45;&gt;Node5 -->
<g id="edge28_Node000014_Node000005" class="edge">
<title>Node14&#45;&gt;Node5</title>
<g id="a_edge28_Node000014_Node000005"><a xlink:title=" ">
<path fill="none" stroke="#63b8ff" d="M600.06,-111.65C620.59,-99.31 650.31,-76.73 635.75,-56 625.19,-40.98 579.41,-27.23 546.3,-18.99"/>
<polygon fill="#63b8ff" stroke="#63b8ff" points="547.21,-15.61 536.67,-16.66 545.57,-22.41 547.21,-15.61"/>
</a>
</g>
</g>
<!-- Node14&#45;&gt;Node6 -->
<g id="edge29_Node000014_Node000006" class="edge">
<title>Node14&#45;&gt;Node6</title>
<g id="a_edge29_Node000014_Node000006"><a xlink:title=" ">
<path fill="none" stroke="#63b8ff" d="M565.86,-111.62C531.45,-92.5 452.95,-48.89 411.51,-25.87"/>
<polygon fill="#63b8ff" stroke="#63b8ff" points="413.35,-22.89 402.91,-21.09 409.95,-29.01 413.35,-22.89"/>
</a>
</g>
</g>
<!-- Node15 -->
<g id="Node000015" class="node">
<title>Node15</title>
<g id="a_Node000015"><a xlink:href="_token_8h.html" target="_top" xlink:title=" ">
<polygon fill="white" stroke="#666666" points="627,-76 576.5,-76 576.5,-56 627,-56 627,-76"/>
<text text-anchor="middle" x="601.75" y="-62.5" font-family="Helvetica,sans-Serif" font-size="10.00">Token.h</text>
</a>
</g>
</g>
<!-- Node14&#45;&gt;Node15 -->
<g id="edge30_Node000014_Node000015" class="edge">
<title>Node14&#45;&gt;Node15</title>
<g id="a_edge30_Node000014_Node000015"><a xlink:title=" ">
<path fill="none" stroke="#63b8ff" d="M586.06,-111.59C588.43,-104.86 591.71,-95.53 594.66,-87.15"/>
<polygon fill="#63b8ff" stroke="#63b8ff" points="597.95,-88.32 597.97,-77.73 591.35,-86 597.95,-88.32"/>
</a>
</g>
</g>
<!-- Node15&#45;&gt;Node4 -->
<g id="edge33_Node000015_Node000004" class="edge">
<title>Node15&#45;&gt;Node4</title>
<g id="a_edge33_Node000015_Node000004"><a xlink:title=" ">
<path fill="none" stroke="#63b8ff" d="M601.75,-55.59C601.75,-49.01 601.75,-39.96 601.75,-31.73"/>
<polygon fill="#63b8ff" stroke="#63b8ff" points="605.25,-31.81 601.75,-21.81 598.25,-31.81 605.25,-31.81"/>
</a>
</g>
</g>
<!-- Node15&#45;&gt;Node5 -->
<g id="edge31_Node000015_Node000005" class="edge">
<title>Node15&#45;&gt;Node5</title>
<g id="a_edge31_Node000015_Node000005"><a xlink:title=" ">
<path fill="none" stroke="#63b8ff" d="M585.89,-55.59C572.28,-47.51 552.38,-35.71 536.48,-26.27"/>
<polygon fill="#63b8ff" stroke="#63b8ff" points="538.41,-23.35 528.02,-21.25 534.84,-29.37 538.41,-23.35"/>
</a>
</g>
</g>
<!-- Node15&#45;&gt;Node6 -->
<g id="edge32_Node000015_Node000006" class="edge">
<title>Node15&#45;&gt;Node6</title>
<g id="a_edge32_Node000015_Node000006"><a xlink:title=" ">
<path fill="none" stroke="#63b8ff" d="M576,-58.59C536,-48.64 459.04,-29.49 415.94,-18.76"/>
<polygon fill="#63b8ff" stroke="#63b8ff" points="417.01,-15.42 406.46,-16.4 415.32,-22.22 417.01,-15.42"/>
</a>
</g>
</g>
</g>
</svg>
