<?xml version="1.0" encoding="UTF-8" standalone="no"?>
<!DOCTYPE svg PUBLIC "-//W3C//DTD SVG 1.1//EN"
 "http://www.w3.org/Graphics/SVG/1.1/DTD/svg11.dtd">
<!-- Generated by graphviz version 12.2.1 (20241206.2353)
 -->
<!-- Title: C:/Users/emilly/Documents/Lucca/Projetos/Cpp/NikiScript/src/NikiScript.h Pages: 1 -->
<svg width="631pt" height="276pt"
 viewBox="0.00 0.00 631.04 276.00" xmlns="http://www.w3.org/2000/svg" xmlns:xlink="http://www.w3.org/1999/xlink">
<g id="graph0" class="graph" transform="scale(1 1) rotate(0) translate(4 272)">
<title>C:/Users/emilly/Documents/Lucca/Projetos/Cpp/NikiScript/src/NikiScript.h</title>
<!-- Node1 -->
<g id="Node000001" class="node">
<title>Node1</title>
<g id="a_Node000001"><a xlink:title=" ">
<polygon fill="#999999" stroke="#666666" points="182.64,-268 31.64,-268 31.64,-224 182.64,-224 182.64,-268"/>
<text text-anchor="start" x="39.64" y="-254.5" font-family="Helvetica,sans-Serif" font-size="10.00">C:/Users/emilly/Documents</text>
<text text-anchor="start" x="39.64" y="-242.5" font-family="Helvetica,sans-Serif" font-size="10.00">/Lucca/Projetos/Cpp/NikiScript</text>
<text text-anchor="middle" x="107.14" y="-230.5" font-family="Helvetica,sans-Serif" font-size="10.00">/src/NikiScript.h</text>
</a>
</g>
</g>
<!-- Node2 -->
<g id="Node000002" class="node">
<title>Node2</title>
<g id="a_Node000002"><a xlink:title=" ">
<polygon fill="#e0e0e0" stroke="#999999" points="72.89,-20 7.39,-20 7.39,0 72.89,0 72.89,-20"/>
<text text-anchor="middle" x="40.14" y="-6.5" font-family="Helvetica,sans-Serif" font-size="10.00">string_view</text>
</a>
</g>
</g>
<!-- Node1&#45;&gt;Node2 -->
<g id="edge1_Node000001_Node000002" class="edge">
<title>Node1&#45;&gt;Node2</title>
<g id="a_edge1_Node000001_Node000002"><a xlink:title=" ">
<path fill="none" stroke="#63b8ff" d="M88.32,-223.7C62.93,-193.4 18.96,-134.96 2.14,-76 -0.3,-67.45 -0.92,-64.35 2.14,-56 5.92,-45.65 13.26,-36.03 20.49,-28.37"/>
<polygon fill="#63b8ff" stroke="#63b8ff" points="22.91,-30.9 27.61,-21.41 18.02,-25.89 22.91,-30.9"/>
</a>
</g>
</g>
<!-- Node3 -->
<g id="Node000003" class="node">
<title>Node3</title>
<g id="a_Node000003"><a xlink:href="_context_8h.html" target="_top" xlink:title=" ">
<polygon fill="white" stroke="#666666" points="317.51,-188 258.76,-188 258.76,-168 317.51,-168 317.51,-188"/>
<text text-anchor="middle" x="288.14" y="-174.5" font-family="Helvetica,sans-Serif" font-size="10.00">Context.h</text>
</a>
</g>
</g>
<!-- Node1&#45;&gt;Node3 -->
<g id="edge2_Node000001_Node000003" class="edge">
<title>Node1&#45;&gt;Node3</title>
<g id="a_edge2_Node000001_Node000003"><a xlink:title=" ">
<path fill="none" stroke="#63b8ff" d="M165.9,-223.57C194.19,-213.26 227.21,-201.22 251.8,-192.25"/>
<polygon fill="#63b8ff" stroke="#63b8ff" points="252.83,-195.6 261.03,-188.88 250.44,-189.02 252.83,-195.6"/>
</a>
</g>
</g>
<!-- Node4 -->
<g id="Node000004" class="node">
<title>Node4</title>
<g id="a_Node000004"><a xlink:title=" ">
<polygon fill="#e0e0e0" stroke="#999999" points="296.64,-20 253.64,-20 253.64,0 296.64,0 296.64,-20"/>
<text text-anchor="middle" x="275.14" y="-6.5" font-family="Helvetica,sans-Serif" font-size="10.00">vector</text>
</a>
</g>
</g>
<!-- Node3&#45;&gt;Node4 -->
<g id="edge3_Node000003_Node000004" class="edge">
<title>Node3&#45;&gt;Node4</title>
<g id="a_edge3_Node000003_Node000004"><a xlink:title=" ">
<path fill="none" stroke="#63b8ff" d="M289.03,-167.52C290.78,-147.04 293.97,-97.18 288.14,-56 286.97,-47.76 284.66,-38.91 282.3,-31.26"/>
<polygon fill="#63b8ff" stroke="#63b8ff" points="285.67,-30.31 279.2,-21.92 279.03,-32.52 285.67,-30.31"/>
</a>
</g>
</g>
<!-- Node5 -->
<g id="Node000005" class="node">
<title>Node5</title>
<g id="a_Node000005"><a xlink:title=" ">
<polygon fill="#e0e0e0" stroke="#999999" points="622.26,-20 574.01,-20 574.01,0 622.26,0 622.26,-20"/>
<text text-anchor="middle" x="598.14" y="-6.5" font-family="Helvetica,sans-Serif" font-size="10.00">stdint.h</text>
</a>
</g>
</g>
<!-- Node3&#45;&gt;Node5 -->
<g id="edge4_Node000003_Node000005" class="edge">
<title>Node3&#45;&gt;Node5</title>
<g id="a_edge4_Node000003_Node000005"><a xlink:title=" ">
<path fill="none" stroke="#63b8ff" d="M317.85,-177.2C369.02,-176.45 475.99,-169.99 556.14,-132 590.29,-115.81 604.52,-110.42 620.14,-76 626.97,-60.93 619.92,-43.09 612.03,-29.91"/>
<polygon fill="#63b8ff" stroke="#63b8ff" points="615.06,-28.14 606.61,-21.74 609.23,-32.01 615.06,-28.14"/>
</a>
</g>
</g>
<!-- Node6 -->
<g id="Node000006" class="node">
<title>Node6</title>
<g id="a_Node000006"><a xlink:title=" ">
<polygon fill="#e0e0e0" stroke="#999999" points="403.14,-20 363.14,-20 363.14,0 403.14,0 403.14,-20"/>
<text text-anchor="middle" x="383.14" y="-6.5" font-family="Helvetica,sans-Serif" font-size="10.00">string</text>
</a>
</g>
</g>
<!-- Node3&#45;&gt;Node6 -->
<g id="edge5_Node000003_Node000006" class="edge">
<title>Node3&#45;&gt;Node6</title>
<g id="a_edge5_Node000003_Node000006"><a xlink:title=" ">
<path fill="none" stroke="#63b8ff" d="M293.52,-167.6C308.67,-141.12 351.93,-65.54 372.29,-29.96"/>
<polygon fill="#63b8ff" stroke="#63b8ff" points="375.13,-32.03 377.06,-21.61 369.06,-28.55 375.13,-32.03"/>
</a>
</g>
</g>
<!-- Node7 -->
<g id="Node000007" class="node">
<title>Node7</title>
<g id="a_Node000007"><a xlink:title=" ">
<polygon fill="#e0e0e0" stroke="#999999" points="203.51,-20 120.76,-20 120.76,0 203.51,0 203.51,-20"/>
<text text-anchor="middle" x="162.14" y="-6.5" font-family="Helvetica,sans-Serif" font-size="10.00">unordered_map</text>
</a>
</g>
</g>
<!-- Node3&#45;&gt;Node7 -->
<g id="edge6_Node000003_Node000007" class="edge">
<title>Node3&#45;&gt;Node7</title>
<g id="a_edge6_Node000003_Node000007"><a xlink:title=" ">
<path fill="none" stroke="#63b8ff" d="M279.01,-167.75C262.28,-150.54 226.05,-112.08 200.14,-76 189.53,-61.24 179.24,-43.33 172.04,-30.06"/>
<polygon fill="#63b8ff" stroke="#63b8ff" points="175.28,-28.69 167.5,-21.5 169.1,-31.97 175.28,-28.69"/>
</a>
</g>
</g>
<!-- Node8 -->
<g id="Node000008" class="node">
<title>Node8</title>
<g id="a_Node000008"><a xlink:href="_command_8h.html" target="_top" xlink:title=" ">
<polygon fill="white" stroke="#666666" points="278.76,-76 209.51,-76 209.51,-56 278.76,-56 278.76,-76"/>
<text text-anchor="middle" x="244.14" y="-62.5" font-family="Helvetica,sans-Serif" font-size="10.00">Command.h</text>
</a>
</g>
</g>
<!-- Node3&#45;&gt;Node8 -->
<g id="edge7_Node000003_Node000008" class="edge">
<title>Node3&#45;&gt;Node8</title>
<g id="a_edge7_Node000003_Node000008"><a xlink:title=" ">
<path fill="none" stroke="#63b8ff" d="M284.38,-167.62C277.27,-149.84 261.69,-110.88 252.14,-87"/>
<polygon fill="#63b8ff" stroke="#63b8ff" points="255.4,-85.74 248.44,-77.76 248.9,-88.34 255.4,-85.74"/>
</a>
</g>
</g>
<!-- Node9 -->
<g id="Node000009" class="node">
<title>Node9</title>
<g id="a_Node000009"><a xlink:href="_command_handler_8h.html" target="_top" xlink:title=" ">
<polygon fill="white" stroke="#666666" points="194.64,-132 91.64,-132 91.64,-112 194.64,-112 194.64,-132"/>
<text text-anchor="middle" x="143.14" y="-118.5" font-family="Helvetica,sans-Serif" font-size="10.00">CommandHandler.h</text>
</a>
</g>
</g>
<!-- Node3&#45;&gt;Node9 -->
<g id="edge11_Node000003_Node000009" class="edge">
<title>Node3&#45;&gt;Node9</title>
<g id="a_edge11_Node000003_Node000009"><a xlink:title=" ">
<path fill="none" stroke="#63b8ff" d="M262.88,-167.59C239.73,-158.97 205.21,-146.12 179.17,-136.42"/>
<polygon fill="#63b8ff" stroke="#63b8ff" points="180.6,-133.22 170.01,-133.01 178.16,-139.78 180.6,-133.22"/>
</a>
</g>
</g>
<!-- Node10 -->
<g id="Node000010" class="node">
<title>Node10</title>
<g id="a_Node000010"><a xlink:href="_print_callback_8h.html" target="_top" xlink:title=" ">
<polygon fill="white" stroke="#666666" points="547.51,-132 464.76,-132 464.76,-112 547.51,-112 547.51,-132"/>
<text text-anchor="middle" x="506.14" y="-118.5" font-family="Helvetica,sans-Serif" font-size="10.00">PrintCallback.h</text>
</a>
</g>
</g>
<!-- Node3&#45;&gt;Node10 -->
<g id="edge15_Node000003_Node000010" class="edge">
<title>Node3&#45;&gt;Node10</title>
<g id="a_edge15_Node000003_Node000010"><a xlink:title=" ">
<path fill="none" stroke="#63b8ff" d="M317.99,-169.6C353.74,-160.75 414.15,-145.79 456.85,-135.21"/>
<polygon fill="#63b8ff" stroke="#63b8ff" points="457.52,-138.65 466.38,-132.85 455.83,-131.85 457.52,-138.65"/>
</a>
</g>
</g>
<!-- Node13 -->
<g id="Node000013" class="node">
<title>Node13</title>
<g id="a_Node000013"><a xlink:href="_program_variable_8h.html" target="_top" xlink:title=" ">
<polygon fill="white" stroke="#666666" points="114.89,-76 19.39,-76 19.39,-56 114.89,-56 114.89,-76"/>
<text text-anchor="middle" x="67.14" y="-62.5" font-family="Helvetica,sans-Serif" font-size="10.00">ProgramVariable.h</text>
</a>
</g>
</g>
<!-- Node3&#45;&gt;Node13 -->
<g id="edge22_Node000003_Node000013" class="edge">
<title>Node3&#45;&gt;Node13</title>
<g id="a_edge22_Node000003_Node000013"><a xlink:title=" ">
<path fill="none" stroke="#63b8ff" d="M258.43,-174.31C207.78,-169.11 107.79,-156.04 83.14,-132 71.42,-120.58 67.75,-102.07 66.82,-87.71"/>
<polygon fill="#63b8ff" stroke="#63b8ff" points="70.33,-87.89 66.61,-77.97 63.33,-88.04 70.33,-87.89"/>
</a>
</g>
</g>
<!-- Node14 -->
<g id="Node000014" class="node">
<title>Node14</title>
<g id="a_Node000014"><a xlink:href="_lexer_8h.html" target="_top" xlink:title=" ">
<polygon fill="white" stroke="#666666" points="442.26,-132 394.01,-132 394.01,-112 442.26,-112 442.26,-132"/>
<text text-anchor="middle" x="418.14" y="-118.5" font-family="Helvetica,sans-Serif" font-size="10.00">Lexer.h</text>
</a>
</g>
</g>
<!-- Node3&#45;&gt;Node14 -->
<g id="edge26_Node000003_Node000014" class="edge">
<title>Node3&#45;&gt;Node14</title>
<g id="a_edge26_Node000003_Node000014"><a xlink:title=" ">
<path fill="none" stroke="#63b8ff" d="M310.78,-167.59C331.25,-159.09 361.66,-146.46 384.89,-136.81"/>
<polygon fill="#63b8ff" stroke="#63b8ff" points="386.03,-140.13 393.92,-133.06 383.34,-133.66 386.03,-140.13"/>
</a>
</g>
</g>
<!-- Node8&#45;&gt;Node2 -->
<g id="edge9_Node000008_Node000002" class="edge">
<title>Node8&#45;&gt;Node2</title>
<g id="a_edge9_Node000008_Node000002"><a xlink:title=" ">
<path fill="none" stroke="#63b8ff" d="M209.07,-55.72C174.48,-46.56 121.52,-32.54 84.13,-22.64"/>
<polygon fill="#63b8ff" stroke="#63b8ff" points="85.09,-19.28 74.53,-20.1 83.3,-26.05 85.09,-19.28"/>
</a>
</g>
</g>
<!-- Node8&#45;&gt;Node4 -->
<g id="edge8_Node000008_Node000004" class="edge">
<title>Node8&#45;&gt;Node4</title>
<g id="a_edge8_Node000008_Node000004"><a xlink:title=" ">
<path fill="none" stroke="#63b8ff" d="M249.54,-55.59C253.58,-48.55 259.25,-38.67 264.23,-30"/>
<polygon fill="#63b8ff" stroke="#63b8ff" points="267.1,-32.03 269.04,-21.61 261.03,-28.54 267.1,-32.03"/>
</a>
</g>
</g>
<!-- Node8&#45;&gt;Node6 -->
<g id="edge10_Node000008_Node000006" class="edge">
<title>Node8&#45;&gt;Node6</title>
<g id="a_edge10_Node000008_Node000006"><a xlink:title=" ">
<path fill="none" stroke="#63b8ff" d="M268.35,-55.59C291.66,-46.54 327,-32.81 352.31,-22.98"/>
<polygon fill="#63b8ff" stroke="#63b8ff" points="353.35,-26.33 361.4,-19.44 350.81,-19.8 353.35,-26.33"/>
</a>
</g>
</g>
<!-- Node9&#45;&gt;Node2 -->
<g id="edge13_Node000009_Node000002" class="edge">
<title>Node9&#45;&gt;Node2</title>
<g id="a_edge13_Node000009_Node000002"><a xlink:title=" ">
<path fill="none" stroke="#63b8ff" d="M91.28,-117.68C62.35,-112.86 28.54,-101.65 10.14,-76 -0.44,-61.25 10.81,-42.18 22.42,-28.52"/>
<polygon fill="#63b8ff" stroke="#63b8ff" points="24.66,-31.26 28.86,-21.53 19.51,-26.52 24.66,-31.26"/>
</a>
</g>
</g>
<!-- Node9&#45;&gt;Node7 -->
<g id="edge12_Node000009_Node000007" class="edge">
<title>Node9&#45;&gt;Node7</title>
<g id="a_edge12_Node000009_Node000007"><a xlink:title=" ">
<path fill="none" stroke="#63b8ff" d="M144.76,-111.62C147.8,-94.01 154.43,-55.59 158.57,-31.65"/>
<polygon fill="#63b8ff" stroke="#63b8ff" points="162.01,-32.3 160.26,-21.85 155.11,-31.1 162.01,-32.3"/>
</a>
</g>
</g>
<!-- Node9&#45;&gt;Node8 -->
<g id="edge14_Node000009_Node000008" class="edge">
<title>Node9&#45;&gt;Node8</title>
<g id="a_edge14_Node000009_Node000008"><a xlink:title=" ">
<path fill="none" stroke="#63b8ff" d="M160.73,-111.59C176.06,-103.4 198.56,-91.37 216.32,-81.87"/>
<polygon fill="#63b8ff" stroke="#63b8ff" points="217.9,-84.99 225.07,-77.19 214.6,-78.82 217.9,-84.99"/>
</a>
</g>
</g>
<!-- Node10&#45;&gt;Node5 -->
<g id="edge16_Node000010_Node000005" class="edge">
<title>Node10&#45;&gt;Node5</title>
<g id="a_edge16_Node000010_Node000005"><a xlink:title=" ">
<path fill="none" stroke="#63b8ff" d="M547.53,-112.77C567.98,-106.39 590.85,-95.25 603.14,-76 611.62,-62.72 609.39,-44.66 605.6,-30.95"/>
<polygon fill="#63b8ff" stroke="#63b8ff" points="609.01,-30.1 602.57,-21.68 602.35,-32.28 609.01,-30.1"/>
</a>
</g>
</g>
<!-- Node10&#45;&gt;Node6 -->
<g id="edge17_Node000010_Node000006" class="edge">
<title>Node10&#45;&gt;Node6</title>
<g id="a_edge17_Node000010_Node000006"><a xlink:title=" ">
<path fill="none" stroke="#63b8ff" d="M503.07,-111.95C498.07,-98.31 486.97,-72.36 470.14,-56 454.28,-40.59 432.09,-29.23 414.09,-21.77"/>
<polygon fill="#63b8ff" stroke="#63b8ff" points="415.51,-18.57 404.93,-18.19 412.96,-25.09 415.51,-18.57"/>
</a>
</g>
</g>
<!-- Node11 -->
<g id="Node000011" class="node">
<title>Node11</title>
<g id="a_Node000011"><a xlink:href="_utils_8h.html" target="_top" xlink:title=" ">
<polygon fill="white" stroke="#666666" points="561.39,-76 516.89,-76 516.89,-56 561.39,-56 561.39,-76"/>
<text text-anchor="middle" x="539.14" y="-62.5" font-family="Helvetica,sans-Serif" font-size="10.00">Utils.h</text>
</a>
</g>
</g>
<!-- Node10&#45;&gt;Node11 -->
<g id="edge18_Node000010_Node000011" class="edge">
<title>Node10&#45;&gt;Node11</title>
<g id="a_edge18_Node000010_Node000011"><a xlink:title=" ">
<path fill="none" stroke="#63b8ff" d="M511.88,-111.59C516.19,-104.55 522.23,-94.67 527.52,-86"/>
<polygon fill="#63b8ff" stroke="#63b8ff" points="530.44,-87.95 532.66,-77.59 524.46,-84.3 530.44,-87.95"/>
</a>
</g>
</g>
<!-- Node11&#45;&gt;Node5 -->
<g id="edge19_Node000011_Node000005" class="edge">
<title>Node11&#45;&gt;Node5</title>
<g id="a_edge19_Node000011_Node000005"><a xlink:title=" ">
<path fill="none" stroke="#63b8ff" d="M549.41,-55.59C557.7,-48.01 569.58,-37.13 579.54,-28.02"/>
<polygon fill="#63b8ff" stroke="#63b8ff" points="581.85,-30.65 586.86,-21.32 577.12,-25.49 581.85,-30.65"/>
</a>
</g>
</g>
<!-- Node11&#45;&gt;Node6 -->
<g id="edge20_Node000011_Node000006" class="edge">
<title>Node11&#45;&gt;Node6</title>
<g id="a_edge20_Node000011_Node000006"><a xlink:title=" ">
<path fill="none" stroke="#63b8ff" d="M516.45,-57.15C489.48,-47.81 444.32,-32.18 414.13,-21.73"/>
<polygon fill="#63b8ff" stroke="#63b8ff" points="415.39,-18.46 404.8,-18.5 413.1,-25.08 415.39,-18.46"/>
</a>
</g>
</g>
<!-- Node12 -->
<g id="Node000012" class="node">
<title>Node12</title>
<g id="a_Node000012"><a xlink:title=" ">
<polygon fill="#e0e0e0" stroke="#999999" points="555.76,-20 504.51,-20 504.51,0 555.76,0 555.76,-20"/>
<text text-anchor="middle" x="530.14" y="-6.5" font-family="Helvetica,sans-Serif" font-size="10.00">sstream</text>
</a>
</g>
</g>
<!-- Node11&#45;&gt;Node12 -->
<g id="edge21_Node000011_Node000012" class="edge">
<title>Node11&#45;&gt;Node12</title>
<g id="a_edge21_Node000011_Node000012"><a xlink:title=" ">
<path fill="none" stroke="#63b8ff" d="M537.57,-55.59C536.46,-48.93 534.93,-39.75 533.54,-31.44"/>
<polygon fill="#63b8ff" stroke="#63b8ff" points="537.03,-31.08 531.93,-21.79 530.13,-32.23 537.03,-31.08"/>
</a>
</g>
</g>
<!-- Node13&#45;&gt;Node2 -->
<g id="edge24_Node000013_Node000002" class="edge">
<title>Node13&#45;&gt;Node2</title>
<g id="a_edge24_Node000013_Node000002"><a xlink:title=" ">
<path fill="none" stroke="#63b8ff" d="M62.43,-55.59C58.99,-48.7 54.19,-39.1 49.92,-30.57"/>
<polygon fill="#63b8ff" stroke="#63b8ff" points="53.07,-29.03 45.46,-21.65 46.8,-32.16 53.07,-29.03"/>
</a>
</g>
</g>
<!-- Node13&#45;&gt;Node6 -->
<g id="edge23_Node000013_Node000006" class="edge">
<title>Node13&#45;&gt;Node6</title>
<g id="a_edge23_Node000013_Node000006"><a xlink:title=" ">
<path fill="none" stroke="#63b8ff" d="M115.13,-56.8C180.6,-45.61 296.09,-25.88 351.6,-16.39"/>
<polygon fill="#63b8ff" stroke="#63b8ff" points="352.05,-19.86 361.32,-14.73 350.87,-12.96 352.05,-19.86"/>
</a>
</g>
</g>
<!-- Node13&#45;&gt;Node7 -->
<g id="edge25_Node000013_Node000007" class="edge">
<title>Node13&#45;&gt;Node7</title>
<g id="a_edge25_Node000013_Node000007"><a xlink:title=" ">
<path fill="none" stroke="#63b8ff" d="M83.68,-55.59C98.04,-47.44 119.06,-35.48 135.74,-26"/>
<polygon fill="#63b8ff" stroke="#63b8ff" points="137.18,-29.21 144.14,-21.23 133.72,-23.13 137.18,-29.21"/>
</a>
</g>
</g>
<!-- Node14&#45;&gt;Node5 -->
<g id="edge27_Node000014_Node000005" class="edge">
<title>Node14&#45;&gt;Node5</title>
<g id="a_edge27_Node000014_Node000005"><a xlink:title=" ">
<path fill="none" stroke="#63b8ff" d="M442.57,-114.98C483.02,-104.83 560.46,-84.59 570.14,-76 583.2,-64.4 590.39,-45.64 594.2,-31.24"/>
<polygon fill="#63b8ff" stroke="#63b8ff" points="597.52,-32.44 596.33,-21.91 590.69,-30.88 597.52,-32.44"/>
</a>
</g>
</g>
<!-- Node14&#45;&gt;Node6 -->
<g id="edge28_Node000014_Node000006" class="edge">
<title>Node14&#45;&gt;Node6</title>
<g id="a_edge28_Node000014_Node000006"><a xlink:title=" ">
<path fill="none" stroke="#63b8ff" d="M414.67,-111.75C411.32,-102.68 406.17,-88.46 402.14,-76 397.31,-61.08 392.35,-44.06 388.71,-31.18"/>
<polygon fill="#63b8ff" stroke="#63b8ff" points="392.15,-30.46 386.08,-21.77 385.4,-32.34 392.15,-30.46"/>
</a>
</g>
</g>
<!-- Node15 -->
<g id="Node000015" class="node">
<title>Node15</title>
<g id="a_Node000015"><a xlink:href="_token_8h.html" target="_top" xlink:title=" ">
<polygon fill="white" stroke="#666666" points="461.39,-76 410.89,-76 410.89,-56 461.39,-56 461.39,-76"/>
<text text-anchor="middle" x="436.14" y="-62.5" font-family="Helvetica,sans-Serif" font-size="10.00">Token.h</text>
</a>
</g>
</g>
<!-- Node14&#45;&gt;Node15 -->
<g id="edge29_Node000014_Node000015" class="edge">
<title>Node14&#45;&gt;Node15</title>
<g id="a_edge29_Node000014_Node000015"><a xlink:title=" ">
<path fill="none" stroke="#63b8ff" d="M421.27,-111.59C423.52,-104.86 426.63,-95.53 429.42,-87.15"/>
<polygon fill="#63b8ff" stroke="#63b8ff" points="432.72,-88.33 432.56,-77.73 426.08,-86.11 432.72,-88.33"/>
</a>
</g>
</g>
<!-- Node15&#45;&gt;Node5 -->
<g id="edge30_Node000015_Node000005" class="edge">
<title>Node15&#45;&gt;Node5</title>
<g id="a_edge30_Node000015_Node000005"><a xlink:title=" ">
<path fill="none" stroke="#63b8ff" d="M461.81,-56.44C489.14,-47.33 532.58,-32.85 563.06,-22.69"/>
<polygon fill="#63b8ff" stroke="#63b8ff" points="563.83,-26.12 572.21,-19.64 561.62,-19.48 563.83,-26.12"/>
</a>
</g>
</g>
<!-- Node15&#45;&gt;Node6 -->
<g id="edge31_Node000015_Node000006" class="edge">
<title>Node15&#45;&gt;Node6</title>
<g id="a_edge31_Node000015_Node000006"><a xlink:title=" ">
<path fill="none" stroke="#63b8ff" d="M426.9,-55.59C419.53,-48.08 409,-37.35 400.12,-28.3"/>
<polygon fill="#63b8ff" stroke="#63b8ff" points="402.83,-26.06 393.32,-21.38 397.83,-30.97 402.83,-26.06"/>
</a>
</g>
</g>
<!-- Node15&#45;&gt;Node7 -->
<g id="edge32_Node000015_Node000007" class="edge">
<title>Node15&#45;&gt;Node7</title>
<g id="a_edge32_Node000015_Node000007"><a xlink:title=" ">
<path fill="none" stroke="#63b8ff" d="M410.85,-60.02C366.51,-51.28 273.86,-33.02 215.01,-21.42"/>
<polygon fill="#63b8ff" stroke="#63b8ff" points="215.69,-17.99 205.2,-19.49 214.33,-24.85 215.69,-17.99"/>
</a>
</g>
</g>
</g>
</svg>
