<?xml version="1.0" encoding="UTF-8" standalone="no"?>
<!DOCTYPE svg PUBLIC "-//W3C//DTD SVG 1.1//EN"
 "http://www.w3.org/Graphics/SVG/1.1/DTD/svg11.dtd">
<!-- Generated by graphviz version 12.2.1 (20241206.2353)
 -->
<!-- Title: C:/Users/emilly/Documents/Lucca/Projetos/Cpp/NikiScript/src/NikiScript.cpp Pages: 1 -->
<svg width="963pt" height="332pt"
 viewBox="0.00 0.00 962.67 332.00" xmlns="http://www.w3.org/2000/svg" xmlns:xlink="http://www.w3.org/1999/xlink">
<g id="graph0" class="graph" transform="scale(1 1) rotate(0) translate(4 328)">
<title>C:/Users/emilly/Documents/Lucca/Projetos/Cpp/NikiScript/src/NikiScript.cpp</title>
<!-- Node1 -->
<g id="Node000001" class="node">
<title>Node1</title>
<g id="a_Node000001"><a xlink:title=" ">
<polygon fill="#999999" stroke="#666666" points="502.17,-324 351.17,-324 351.17,-280 502.17,-280 502.17,-324"/>
<text text-anchor="start" x="359.17" y="-310.5" font-family="Helvetica,sans-Serif" font-size="10.00">C:/Users/emilly/Documents</text>
<text text-anchor="start" x="359.17" y="-298.5" font-family="Helvetica,sans-Serif" font-size="10.00">/Lucca/Projetos/Cpp/NikiScript</text>
<text text-anchor="middle" x="426.67" y="-286.5" font-family="Helvetica,sans-Serif" font-size="10.00">/src/NikiScript.cpp</text>
</a>
</g>
</g>
<!-- Node2 -->
<g id="Node000002" class="node">
<title>Node2</title>
<g id="a_Node000002"><a xlink:href="_niki_script_8h.html" target="_top" xlink:title=" ">
<polygon fill="white" stroke="#666666" points="382.17,-244 315.17,-244 315.17,-224 382.17,-224 382.17,-244"/>
<text text-anchor="middle" x="348.67" y="-230.5" font-family="Helvetica,sans-Serif" font-size="10.00">NikiScript.h</text>
</a>
</g>
</g>
<!-- Node1&#45;&gt;Node2 -->
<g id="edge1_Node000001_Node000002" class="edge">
<title>Node1&#45;&gt;Node2</title>
<g id="a_edge1_Node000001_Node000002"><a xlink:title=" ">
<path fill="none" stroke="#63b8ff" d="M401.56,-279.75C390.78,-270.64 378.38,-260.14 368.29,-251.61"/>
<polygon fill="#63b8ff" stroke="#63b8ff" points="370.85,-249.18 360.95,-245.4 366.33,-254.53 370.85,-249.18"/>
</a>
</g>
</g>
<!-- Node12 -->
<g id="Node000012" class="node">
<title>Node12</title>
<g id="a_Node000012"><a xlink:href="_utils_8h.html" target="_top" xlink:title=" ">
<polygon fill="white" stroke="#666666" points="634.92,-76 590.42,-76 590.42,-56 634.92,-56 634.92,-76"/>
<text text-anchor="middle" x="612.67" y="-62.5" font-family="Helvetica,sans-Serif" font-size="10.00">Utils.h</text>
</a>
</g>
</g>
<!-- Node1&#45;&gt;Node12 -->
<g id="edge45_Node000001_Node000012" class="edge">
<title>Node1&#45;&gt;Node12</title>
<g id="a_edge45_Node000001_Node000012"><a xlink:title=" ">
<path fill="none" stroke="#63b8ff" d="M502.52,-281.5C573.81,-258.7 676.4,-213.29 723.67,-132 743.04,-98.69 685.86,-80.75 646.53,-72.6"/>
<polygon fill="#63b8ff" stroke="#63b8ff" points="647.22,-69.17 636.73,-70.71 645.89,-76.04 647.22,-69.17"/>
</a>
</g>
</g>
<!-- Node13 -->
<g id="Node000013" class="node">
<title>Node13</title>
<g id="a_Node000013"><a xlink:title=" ">
<polygon fill="#e0e0e0" stroke="#999999" points="828.29,-20 777.04,-20 777.04,0 828.29,0 828.29,-20"/>
<text text-anchor="middle" x="802.67" y="-6.5" font-family="Helvetica,sans-Serif" font-size="10.00">sstream</text>
</a>
</g>
</g>
<!-- Node1&#45;&gt;Node13 -->
<g id="edge44_Node000001_Node000013" class="edge">
<title>Node1&#45;&gt;Node13</title>
<g id="a_edge44_Node000001_Node000013"><a xlink:title=" ">
<path fill="none" stroke="#63b8ff" d="M502.6,-299.13C648.7,-293.47 954.67,-270.67 954.67,-179 954.67,-179 954.67,-179 954.67,-121 954.67,-64.24 884.26,-33.79 839.28,-20.13"/>
<polygon fill="#63b8ff" stroke="#63b8ff" points="840.48,-16.83 829.9,-17.43 838.55,-23.56 840.48,-16.83"/>
</a>
</g>
</g>
<!-- Node16 -->
<g id="Node000016" class="node">
<title>Node16</title>
<g id="a_Node000016"><a xlink:href="_lexer_8h.html" target="_top" xlink:title=" ">
<polygon fill="white" stroke="#666666" points="124.79,-132 76.54,-132 76.54,-112 124.79,-112 124.79,-132"/>
<text text-anchor="middle" x="100.67" y="-118.5" font-family="Helvetica,sans-Serif" font-size="10.00">Lexer.h</text>
</a>
</g>
</g>
<!-- Node1&#45;&gt;Node16 -->
<g id="edge50_Node000001_Node000016" class="edge">
<title>Node1&#45;&gt;Node16</title>
<g id="a_edge50_Node000001_Node000016"><a xlink:title=" ">
<path fill="none" stroke="#63b8ff" d="M379.18,-279.61C356.93,-269.29 330.2,-256.47 306.67,-244 239.83,-208.59 163.69,-162.23 125.41,-138.49"/>
<polygon fill="#63b8ff" stroke="#63b8ff" points="127.28,-135.53 116.94,-133.22 123.58,-141.47 127.28,-135.53"/>
</a>
</g>
</g>
<!-- Node18 -->
<g id="Node000018" class="node">
<title>Node18</title>
<g id="a_Node000018"><a xlink:href="_parser_8h.html" target="_top" xlink:title=" ">
<polygon fill="white" stroke="#666666" points="453.04,-244 400.29,-244 400.29,-224 453.04,-224 453.04,-244"/>
<text text-anchor="middle" x="426.67" y="-230.5" font-family="Helvetica,sans-Serif" font-size="10.00">Parser.h</text>
</a>
</g>
</g>
<!-- Node1&#45;&gt;Node18 -->
<g id="edge46_Node000001_Node000018" class="edge">
<title>Node1&#45;&gt;Node18</title>
<g id="a_edge46_Node000001_Node000018"><a xlink:title=" ">
<path fill="none" stroke="#63b8ff" d="M426.67,-279.75C426.67,-272.13 426.67,-263.53 426.67,-255.93"/>
<polygon fill="#63b8ff" stroke="#63b8ff" points="430.17,-255.93 426.67,-245.93 423.17,-255.93 430.17,-255.93"/>
</a>
</g>
</g>
<!-- Node3 -->
<g id="Node000003" class="node">
<title>Node3</title>
<g id="a_Node000003"><a xlink:title=" ">
<polygon fill="#e0e0e0" stroke="#999999" points="191.67,-20 151.67,-20 151.67,0 191.67,0 191.67,-20"/>
<text text-anchor="middle" x="171.67" y="-6.5" font-family="Helvetica,sans-Serif" font-size="10.00">string</text>
</a>
</g>
</g>
<!-- Node2&#45;&gt;Node3 -->
<g id="edge2_Node000002_Node000003" class="edge">
<title>Node2&#45;&gt;Node3</title>
<g id="a_edge2_Node000002_Node000003"><a xlink:title=" ">
<path fill="none" stroke="#63b8ff" d="M314.89,-231.5C237.72,-225.94 51.7,-199.7 6.67,-76 3.63,-67.65 1.27,-63.06 6.67,-56 22.77,-34.92 96.79,-21.34 140.02,-15.06"/>
<polygon fill="#63b8ff" stroke="#63b8ff" points="140.41,-18.54 149.83,-13.7 139.44,-11.61 140.41,-18.54"/>
</a>
</g>
</g>
<!-- Node4 -->
<g id="Node000004" class="node">
<title>Node4</title>
<g id="a_Node000004"><a xlink:href="_context_8h.html" target="_top" xlink:title=" ">
<polygon fill="white" stroke="#666666" points="378.04,-188 319.29,-188 319.29,-168 378.04,-168 378.04,-188"/>
<text text-anchor="middle" x="348.67" y="-174.5" font-family="Helvetica,sans-Serif" font-size="10.00">Context.h</text>
</a>
</g>
</g>
<!-- Node2&#45;&gt;Node4 -->
<g id="edge3_Node000002_Node000004" class="edge">
<title>Node2&#45;&gt;Node4</title>
<g id="a_edge3_Node000002_Node000004"><a xlink:title=" ">
<path fill="none" stroke="#63b8ff" d="M348.67,-223.59C348.67,-217.01 348.67,-207.96 348.67,-199.73"/>
<polygon fill="#63b8ff" stroke="#63b8ff" points="352.17,-199.81 348.67,-189.81 345.17,-199.81 352.17,-199.81"/>
</a>
</g>
</g>
<!-- Node9 -->
<g id="Node000009" class="node">
<title>Node9</title>
<g id="a_Node000009"><a xlink:href="_d_l_l_8h.html" target="_top" xlink:title=" ">
<polygon fill="white" stroke="#666666" points="658.79,-20 616.54,-20 616.54,0 658.79,0 658.79,-20"/>
<text text-anchor="middle" x="637.67" y="-6.5" font-family="Helvetica,sans-Serif" font-size="10.00">DLL.h</text>
</a>
</g>
</g>
<!-- Node2&#45;&gt;Node9 -->
<g id="edge43_Node000002_Node000009" class="edge">
<title>Node2&#45;&gt;Node9</title>
<g id="a_edge43_Node000002_Node000009"><a xlink:title=" ">
<path fill="none" stroke="#63b8ff" d="M382.54,-225.92C474.46,-206.51 723.84,-152.58 755.67,-132 788.44,-110.81 823.28,-87.07 799.67,-56 784.09,-35.5 713.05,-21.89 670.38,-15.4"/>
<polygon fill="#63b8ff" stroke="#63b8ff" points="671.07,-11.96 660.67,-13.98 670.06,-18.89 671.07,-11.96"/>
</a>
</g>
</g>
<!-- Node4&#45;&gt;Node3 -->
<g id="edge6_Node000004_Node000003" class="edge">
<title>Node4&#45;&gt;Node3</title>
<g id="a_edge6_Node000004_Node000003"><a xlink:title=" ">
<path fill="none" stroke="#63b8ff" d="M319.08,-174.64C256.14,-169.25 111.13,-154.7 67.67,-132 37.02,-116 26.61,-108.06 13.67,-76 10.34,-67.76 8.31,-63.09 13.67,-56 28.87,-35.86 98.54,-22.06 140.12,-15.46"/>
<polygon fill="#63b8ff" stroke="#63b8ff" points="140.43,-18.95 149.79,-13.98 139.38,-12.04 140.43,-18.95"/>
</a>
</g>
</g>
<!-- Node5 -->
<g id="Node000005" class="node">
<title>Node5</title>
<g id="a_Node000005"><a xlink:title=" ">
<polygon fill="#e0e0e0" stroke="#999999" points="77.17,-20 34.17,-20 34.17,0 77.17,0 77.17,-20"/>
<text text-anchor="middle" x="55.67" y="-6.5" font-family="Helvetica,sans-Serif" font-size="10.00">vector</text>
</a>
</g>
</g>
<!-- Node4&#45;&gt;Node5 -->
<g id="edge4_Node000004_Node000005" class="edge">
<title>Node4&#45;&gt;Node5</title>
<g id="a_edge4_Node000004_Node000005"><a xlink:title=" ">
<path fill="none" stroke="#63b8ff" d="M318.81,-176.36C248.8,-174.32 76.61,-165.88 31.67,-132 3.27,-110.59 -7.64,-88.55 6.67,-56 11.75,-44.42 21.45,-34.51 30.89,-26.97"/>
<polygon fill="#63b8ff" stroke="#63b8ff" points="32.85,-29.87 38.84,-21.13 28.71,-24.23 32.85,-29.87"/>
</a>
</g>
</g>
<!-- Node6 -->
<g id="Node000006" class="node">
<title>Node6</title>
<g id="a_Node000006"><a xlink:title=" ">
<polygon fill="#e0e0e0" stroke="#999999" points="315.79,-20 267.54,-20 267.54,0 315.79,0 315.79,-20"/>
<text text-anchor="middle" x="291.67" y="-6.5" font-family="Helvetica,sans-Serif" font-size="10.00">stdint.h</text>
</a>
</g>
</g>
<!-- Node4&#45;&gt;Node6 -->
<g id="edge5_Node000004_Node000006" class="edge">
<title>Node4&#45;&gt;Node6</title>
<g id="a_edge5_Node000004_Node000006"><a xlink:title=" ">
<path fill="none" stroke="#63b8ff" d="M346.18,-167.67C342.74,-154.99 336.22,-131.63 329.67,-112 320.19,-83.61 307.74,-51.32 299.72,-31.06"/>
<polygon fill="#63b8ff" stroke="#63b8ff" points="302.98,-29.78 296.03,-21.79 296.48,-32.37 302.98,-29.78"/>
</a>
</g>
</g>
<!-- Node7 -->
<g id="Node000007" class="node">
<title>Node7</title>
<g id="a_Node000007"><a xlink:title=" ">
<polygon fill="#e0e0e0" stroke="#999999" points="459.04,-76 376.29,-76 376.29,-56 459.04,-56 459.04,-76"/>
<text text-anchor="middle" x="417.67" y="-62.5" font-family="Helvetica,sans-Serif" font-size="10.00">unordered_map</text>
</a>
</g>
</g>
<!-- Node4&#45;&gt;Node7 -->
<g id="edge7_Node000004_Node000007" class="edge">
<title>Node4&#45;&gt;Node7</title>
<g id="a_edge7_Node000004_Node000007"><a xlink:title=" ">
<path fill="none" stroke="#63b8ff" d="M354.55,-167.62C365.85,-149.6 390.81,-109.81 405.73,-86.02"/>
<polygon fill="#63b8ff" stroke="#63b8ff" points="408.64,-87.97 410.99,-77.64 402.71,-84.25 408.64,-87.97"/>
</a>
</g>
</g>
<!-- Node8 -->
<g id="Node000008" class="node">
<title>Node8</title>
<g id="a_Node000008"><a xlink:href="_command_8h.html" target="_top" xlink:title=" ">
<polygon fill="white" stroke="#666666" points="206.29,-76 137.04,-76 137.04,-56 206.29,-56 206.29,-76"/>
<text text-anchor="middle" x="171.67" y="-62.5" font-family="Helvetica,sans-Serif" font-size="10.00">Command.h</text>
</a>
</g>
</g>
<!-- Node4&#45;&gt;Node8 -->
<g id="edge8_Node000004_Node000008" class="edge">
<title>Node4&#45;&gt;Node8</title>
<g id="a_edge8_Node000004_Node000008"><a xlink:title=" ">
<path fill="none" stroke="#63b8ff" d="M318.89,-173.8C288.31,-169.17 240.77,-158.08 208.67,-132 194.19,-120.24 184.31,-101.22 178.43,-86.79"/>
<polygon fill="#63b8ff" stroke="#63b8ff" points="181.86,-85.98 175.08,-77.84 175.31,-88.43 181.86,-85.98"/>
</a>
</g>
</g>
<!-- Node4&#45;&gt;Node9 -->
<g id="edge42_Node000004_Node000009" class="edge">
<title>Node4&#45;&gt;Node9</title>
<g id="a_edge42_Node000004_Node000009"><a xlink:title=" ">
<path fill="none" stroke="#63b8ff" d="M378.42,-175.8C455.92,-172.32 662.27,-160.54 723.67,-132 756.74,-116.62 769.13,-109.45 783.67,-76 804.05,-29.1 719.41,-16.04 670.4,-12.4"/>
<polygon fill="#63b8ff" stroke="#63b8ff" points="670.8,-8.92 660.6,-11.78 670.35,-15.91 670.8,-8.92"/>
</a>
</g>
</g>
<!-- Node10 -->
<g id="Node000010" class="node">
<title>Node10</title>
<g id="a_Node000010"><a xlink:href="_command_handler_8h.html" target="_top" xlink:title=" ">
<polygon fill="white" stroke="#666666" points="320.17,-132 217.17,-132 217.17,-112 320.17,-112 320.17,-132"/>
<text text-anchor="middle" x="268.67" y="-118.5" font-family="Helvetica,sans-Serif" font-size="10.00">CommandHandler.h</text>
</a>
</g>
</g>
<!-- Node4&#45;&gt;Node10 -->
<g id="edge13_Node000004_Node000010" class="edge">
<title>Node4&#45;&gt;Node10</title>
<g id="a_edge13_Node000004_Node000010"><a xlink:title=" ">
<path fill="none" stroke="#63b8ff" d="M334.73,-167.59C322.99,-159.67 305.93,-148.16 292.1,-138.82"/>
<polygon fill="#63b8ff" stroke="#63b8ff" points="294.21,-136.02 283.96,-133.33 290.29,-141.82 294.21,-136.02"/>
</a>
</g>
</g>
<!-- Node11 -->
<g id="Node000011" class="node">
<title>Node11</title>
<g id="a_Node000011"><a xlink:href="_print_callback_8h.html" target="_top" xlink:title=" ">
<polygon fill="white" stroke="#666666" points="566.04,-132 483.29,-132 483.29,-112 566.04,-112 566.04,-132"/>
<text text-anchor="middle" x="524.67" y="-118.5" font-family="Helvetica,sans-Serif" font-size="10.00">PrintCallback.h</text>
</a>
</g>
</g>
<!-- Node4&#45;&gt;Node11 -->
<g id="edge18_Node000004_Node000011" class="edge">
<title>Node4&#45;&gt;Node11</title>
<g id="a_edge18_Node000004_Node000011"><a xlink:title=" ">
<path fill="none" stroke="#63b8ff" d="M378.52,-167.84C407.21,-159.04 450.82,-145.66 482.94,-135.8"/>
<polygon fill="#63b8ff" stroke="#63b8ff" points="483.79,-139.2 492.33,-132.92 481.74,-132.51 483.79,-139.2"/>
</a>
</g>
</g>
<!-- Node14 -->
<g id="Node000014" class="node">
<title>Node14</title>
<g id="a_Node000014"><a xlink:href="_program_variable_8h.html" target="_top" xlink:title=" ">
<polygon fill="white" stroke="#666666" points="714.42,-132 618.92,-132 618.92,-112 714.42,-112 714.42,-132"/>
<text text-anchor="middle" x="666.67" y="-118.5" font-family="Helvetica,sans-Serif" font-size="10.00">ProgramVariable.h</text>
</a>
</g>
</g>
<!-- Node4&#45;&gt;Node14 -->
<g id="edge27_Node000004_Node000014" class="edge">
<title>Node4&#45;&gt;Node14</title>
<g id="a_edge27_Node000004_Node000014"><a xlink:title=" ">
<path fill="none" stroke="#63b8ff" d="M378.3,-171.97C430.44,-163.11 539.5,-144.59 607.55,-133.04"/>
<polygon fill="#63b8ff" stroke="#63b8ff" points="607.75,-136.55 617.02,-131.43 606.58,-129.65 607.75,-136.55"/>
</a>
</g>
</g>
<!-- Node4&#45;&gt;Node16 -->
<g id="edge33_Node000004_Node000016" class="edge">
<title>Node4&#45;&gt;Node16</title>
<g id="a_edge33_Node000004_Node000016"><a xlink:title=" ">
<path fill="none" stroke="#63b8ff" d="M319.24,-170.59C273.51,-160.64 185.53,-141.48 136.28,-130.75"/>
<polygon fill="#63b8ff" stroke="#63b8ff" points="137.22,-127.38 126.7,-128.67 135.73,-134.22 137.22,-127.38"/>
</a>
</g>
</g>
<!-- Node8&#45;&gt;Node3 -->
<g id="edge10_Node000008_Node000003" class="edge">
<title>Node8&#45;&gt;Node3</title>
<g id="a_edge10_Node000008_Node000003"><a xlink:title=" ">
<path fill="none" stroke="#63b8ff" d="M171.67,-55.59C171.67,-49.01 171.67,-39.96 171.67,-31.73"/>
<polygon fill="#63b8ff" stroke="#63b8ff" points="175.17,-31.81 171.67,-21.81 168.17,-31.81 175.17,-31.81"/>
</a>
</g>
</g>
<!-- Node8&#45;&gt;Node5 -->
<g id="edge9_Node000008_Node000005" class="edge">
<title>Node8&#45;&gt;Node5</title>
<g id="a_edge9_Node000008_Node000005"><a xlink:title=" ">
<path fill="none" stroke="#63b8ff" d="M151.46,-55.59C133.44,-47.21 106.8,-34.8 86.18,-25.21"/>
<polygon fill="#63b8ff" stroke="#63b8ff" points="87.94,-22.17 77.4,-21.12 84.99,-28.51 87.94,-22.17"/>
</a>
</g>
</g>
<!-- Node8&#45;&gt;Node6 -->
<g id="edge11_Node000008_Node000006" class="edge">
<title>Node8&#45;&gt;Node6</title>
<g id="a_edge11_Node000008_Node000006"><a xlink:title=" ">
<path fill="none" stroke="#63b8ff" d="M192.57,-55.59C211.3,-47.17 239.02,-34.69 260.39,-25.07"/>
<polygon fill="#63b8ff" stroke="#63b8ff" points="261.54,-28.4 269.22,-21.1 258.66,-22.01 261.54,-28.4"/>
</a>
</g>
</g>
<!-- Node8&#45;&gt;Node9 -->
<g id="edge12_Node000008_Node000009" class="edge">
<title>Node8&#45;&gt;Node9</title>
<g id="a_edge12_Node000008_Node000009"><a xlink:title=" ">
<path fill="none" stroke="#63b8ff" d="M206.68,-58.24C211.37,-57.43 216.13,-56.66 220.67,-56 363.37,-35.22 534.84,-19.66 605.17,-13.68"/>
<polygon fill="#63b8ff" stroke="#63b8ff" points="605.15,-17.19 614.82,-12.87 604.56,-10.22 605.15,-17.19"/>
</a>
</g>
</g>
<!-- Node10&#45;&gt;Node3 -->
<g id="edge15_Node000010_Node000003" class="edge">
<title>Node10&#45;&gt;Node3</title>
<g id="a_edge15_Node000010_Node000003"><a xlink:title=" ">
<path fill="none" stroke="#63b8ff" d="M261.37,-111.52C251.39,-98.67 232.74,-75.11 215.67,-56 207.33,-46.66 197.64,-36.67 189.48,-28.48"/>
<polygon fill="#63b8ff" stroke="#63b8ff" points="192,-26.05 182.44,-21.48 187.06,-31.01 192,-26.05"/>
</a>
</g>
</g>
<!-- Node10&#45;&gt;Node7 -->
<g id="edge14_Node000010_Node000007" class="edge">
<title>Node10&#45;&gt;Node7</title>
<g id="a_edge14_Node000010_Node000007"><a xlink:title=" ">
<path fill="none" stroke="#63b8ff" d="M294.62,-111.59C318.51,-102.94 354.2,-90 380.99,-80.29"/>
<polygon fill="#63b8ff" stroke="#63b8ff" points="381.88,-83.69 390.09,-77 379.49,-77.11 381.88,-83.69"/>
</a>
</g>
</g>
<!-- Node10&#45;&gt;Node8 -->
<g id="edge16_Node000010_Node000008" class="edge">
<title>Node10&#45;&gt;Node8</title>
<g id="a_edge16_Node000010_Node000008"><a xlink:title=" ">
<path fill="none" stroke="#63b8ff" d="M251.77,-111.59C237.12,-103.44 215.64,-91.48 198.62,-82"/>
<polygon fill="#63b8ff" stroke="#63b8ff" points="200.46,-79.02 190.02,-77.22 197.05,-85.14 200.46,-79.02"/>
</a>
</g>
</g>
<!-- Node10&#45;&gt;Node9 -->
<g id="edge17_Node000010_Node000009" class="edge">
<title>Node10&#45;&gt;Node9</title>
<g id="a_edge17_Node000010_Node000009"><a xlink:title=" ">
<path fill="none" stroke="#63b8ff" d="M279.68,-111.5C297.09,-97.04 332.63,-69.71 367.67,-56 448.99,-24.17 552.69,-14.85 604.73,-12.12"/>
<polygon fill="#63b8ff" stroke="#63b8ff" points="604.88,-15.62 614.7,-11.66 604.55,-8.63 604.88,-15.62"/>
</a>
</g>
</g>
<!-- Node11&#45;&gt;Node3 -->
<g id="edge20_Node000011_Node000003" class="edge">
<title>Node11&#45;&gt;Node3</title>
<g id="a_edge20_Node000011_Node000003"><a xlink:title=" ">
<path fill="none" stroke="#63b8ff" d="M519.42,-111.61C510.74,-97.04 491.89,-69.26 467.67,-56 444.71,-43.44 274.75,-22.8 203.24,-14.56"/>
<polygon fill="#63b8ff" stroke="#63b8ff" points="203.7,-11.09 193.36,-13.43 202.9,-18.04 203.7,-11.09"/>
</a>
</g>
</g>
<!-- Node11&#45;&gt;Node6 -->
<g id="edge19_Node000011_Node000006" class="edge">
<title>Node11&#45;&gt;Node6</title>
<g id="a_edge19_Node000011_Node000006"><a xlink:title=" ">
<path fill="none" stroke="#63b8ff" d="M524.01,-111.91C522.47,-97.74 517.39,-70.5 500.67,-56 475.12,-33.84 380.05,-20.43 327.37,-14.54"/>
<polygon fill="#63b8ff" stroke="#63b8ff" points="328.02,-11.09 317.7,-13.49 327.27,-18.05 328.02,-11.09"/>
</a>
</g>
</g>
<!-- Node11&#45;&gt;Node9 -->
<g id="edge21_Node000011_Node000009" class="edge">
<title>Node11&#45;&gt;Node9</title>
<g id="a_edge21_Node000011_Node000009"><a xlink:title=" ">
<path fill="none" stroke="#63b8ff" d="M566.46,-117.06C593.35,-112.11 626.4,-100.99 643.67,-76 652.63,-63.02 650.07,-44.93 645.87,-31.13"/>
<polygon fill="#63b8ff" stroke="#63b8ff" points="649.18,-30 642.51,-21.77 642.6,-32.37 649.18,-30"/>
</a>
</g>
</g>
<!-- Node11&#45;&gt;Node12 -->
<g id="edge22_Node000011_Node000012" class="edge">
<title>Node11&#45;&gt;Node12</title>
<g id="a_edge22_Node000011_Node000012"><a xlink:title=" ">
<path fill="none" stroke="#63b8ff" d="M539.99,-111.59C553.16,-103.51 572.4,-91.71 587.77,-82.27"/>
<polygon fill="#63b8ff" stroke="#63b8ff" points="589.23,-85.48 595.93,-77.27 585.57,-79.52 589.23,-85.48"/>
</a>
</g>
</g>
<!-- Node12&#45;&gt;Node3 -->
<g id="edge24_Node000012_Node000003" class="edge">
<title>Node12&#45;&gt;Node3</title>
<g id="a_edge24_Node000012_Node000003"><a xlink:title=" ">
<path fill="none" stroke="#63b8ff" d="M590.3,-58.91C585.81,-57.83 581.1,-56.8 576.67,-56 540.18,-49.44 291.91,-23.45 203.14,-14.25"/>
<polygon fill="#63b8ff" stroke="#63b8ff" points="203.76,-10.8 193.45,-13.25 203.04,-17.76 203.76,-10.8"/>
</a>
</g>
</g>
<!-- Node12&#45;&gt;Node6 -->
<g id="edge23_Node000012_Node000006" class="edge">
<title>Node12&#45;&gt;Node6</title>
<g id="a_edge23_Node000012_Node000006"><a xlink:title=" ">
<path fill="none" stroke="#63b8ff" d="M590.27,-59.08C585.78,-57.98 581.08,-56.9 576.67,-56 487.68,-37.89 381.8,-22.86 327.58,-15.63"/>
<polygon fill="#63b8ff" stroke="#63b8ff" points="328.07,-12.17 317.7,-14.33 327.15,-19.11 328.07,-12.17"/>
</a>
</g>
</g>
<!-- Node12&#45;&gt;Node9 -->
<g id="edge26_Node000012_Node000009" class="edge">
<title>Node12&#45;&gt;Node9</title>
<g id="a_edge26_Node000012_Node000009"><a xlink:title=" ">
<path fill="none" stroke="#63b8ff" d="M617.02,-55.59C620.21,-48.7 624.66,-39.1 628.6,-30.57"/>
<polygon fill="#63b8ff" stroke="#63b8ff" points="631.7,-32.22 632.73,-21.67 625.35,-29.28 631.7,-32.22"/>
</a>
</g>
</g>
<!-- Node12&#45;&gt;Node13 -->
<g id="edge25_Node000012_Node000013" class="edge">
<title>Node12&#45;&gt;Node13</title>
<g id="a_edge25_Node000012_Node000013"><a xlink:title=" ">
<path fill="none" stroke="#63b8ff" d="M635.21,-58.59C667.51,-49.41 727.31,-32.42 766.02,-21.41"/>
<polygon fill="#63b8ff" stroke="#63b8ff" points="766.7,-24.86 775.36,-18.76 764.79,-18.13 766.7,-24.86"/>
</a>
</g>
</g>
<!-- Node14&#45;&gt;Node3 -->
<g id="edge28_Node000014_Node000003" class="edge">
<title>Node14&#45;&gt;Node3</title>
<g id="a_edge28_Node000014_Node000003"><a xlink:title=" ">
<path fill="none" stroke="#63b8ff" d="M646.11,-111.57C614.17,-97.32 550.41,-70.44 493.67,-56 438.85,-42.05 272.53,-22.37 202.87,-14.47"/>
<polygon fill="#63b8ff" stroke="#63b8ff" points="203.63,-11.03 193.3,-13.39 202.84,-17.99 203.63,-11.03"/>
</a>
</g>
</g>
<!-- Node14&#45;&gt;Node7 -->
<g id="edge31_Node000014_Node000007" class="edge">
<title>Node14&#45;&gt;Node7</title>
<g id="a_edge31_Node000014_Node000007"><a xlink:title=" ">
<path fill="none" stroke="#63b8ff" d="M623.01,-111.53C580.45,-102.3 515.68,-88.26 470.3,-78.41"/>
<polygon fill="#63b8ff" stroke="#63b8ff" points="471.19,-75.03 460.68,-76.33 469.71,-81.87 471.19,-75.03"/>
</a>
</g>
</g>
<!-- Node14&#45;&gt;Node9 -->
<g id="edge32_Node000014_Node000009" class="edge">
<title>Node14&#45;&gt;Node9</title>
<g id="a_edge32_Node000014_Node000009"><a xlink:title=" ">
<path fill="none" stroke="#63b8ff" d="M670.86,-111.88C676.16,-99.03 683.77,-75.04 676.67,-56 672.69,-45.33 664.91,-35.51 657.34,-27.79"/>
<polygon fill="#63b8ff" stroke="#63b8ff" points="660.17,-25.65 650.5,-21.32 655.37,-30.73 660.17,-25.65"/>
</a>
</g>
</g>
<!-- Node14&#45;&gt;Node13 -->
<g id="edge30_Node000014_Node000013" class="edge">
<title>Node14&#45;&gt;Node13</title>
<g id="a_edge30_Node000014_Node000013"><a xlink:title=" ">
<path fill="none" stroke="#63b8ff" d="M714.79,-112.9C738.49,-106.58 765.76,-95.46 783.67,-76 794.87,-63.82 799.5,-45.38 801.4,-31.25"/>
<polygon fill="#63b8ff" stroke="#63b8ff" points="804.84,-32 802.31,-21.71 797.87,-31.33 804.84,-32"/>
</a>
</g>
</g>
<!-- Node15 -->
<g id="Node000015" class="node">
<title>Node15</title>
<g id="a_Node000015"><a xlink:title=" ">
<polygon fill="#e0e0e0" stroke="#999999" points="774.29,-76 729.04,-76 729.04,-56 774.29,-56 774.29,-76"/>
<text text-anchor="middle" x="751.67" y="-62.5" font-family="Helvetica,sans-Serif" font-size="10.00">cstring</text>
</a>
</g>
</g>
<!-- Node14&#45;&gt;Node15 -->
<g id="edge29_Node000014_Node000015" class="edge">
<title>Node14&#45;&gt;Node15</title>
<g id="a_edge29_Node000014_Node000015"><a xlink:title=" ">
<path fill="none" stroke="#63b8ff" d="M681.47,-111.59C694.07,-103.59 712.42,-91.93 727.2,-82.54"/>
<polygon fill="#63b8ff" stroke="#63b8ff" points="728.9,-85.61 735.47,-77.29 725.15,-79.7 728.9,-85.61"/>
</a>
</g>
</g>
<!-- Node16&#45;&gt;Node3 -->
<g id="edge35_Node000016_Node000003" class="edge">
<title>Node16&#45;&gt;Node3</title>
<g id="a_edge35_Node000016_Node000003"><a xlink:title=" ">
<path fill="none" stroke="#63b8ff" d="M76.12,-112.99C46.59,-102.03 3.17,-80.87 21.67,-56 35.85,-36.93 100.62,-22.92 140.27,-15.95"/>
<polygon fill="#63b8ff" stroke="#63b8ff" points="140.67,-19.43 149.95,-14.31 139.5,-12.53 140.67,-19.43"/>
</a>
</g>
</g>
<!-- Node16&#45;&gt;Node6 -->
<g id="edge34_Node000016_Node000006" class="edge">
<title>Node16&#45;&gt;Node6</title>
<g id="a_edge34_Node000016_Node000006"><a xlink:title=" ">
<path fill="none" stroke="#63b8ff" d="M101.95,-111.53C104.37,-97.35 110.98,-70.71 127.67,-56 163.54,-24.38 219.67,-14.76 256.06,-11.96"/>
<polygon fill="#63b8ff" stroke="#63b8ff" points="255.86,-15.47 265.62,-11.36 255.43,-8.49 255.86,-15.47"/>
</a>
</g>
</g>
<!-- Node16&#45;&gt;Node9 -->
<g id="edge41_Node000016_Node000009" class="edge">
<title>Node16&#45;&gt;Node9</title>
<g id="a_edge41_Node000016_Node000009"><a xlink:title=" ">
<path fill="none" stroke="#63b8ff" d="M125.02,-112.76C166,-99.17 251.54,-71.97 325.67,-56 426.56,-34.26 548.12,-20.13 605.14,-14.2"/>
<polygon fill="#63b8ff" stroke="#63b8ff" points="605.2,-17.71 614.8,-13.21 604.49,-10.74 605.2,-17.71"/>
</a>
</g>
</g>
<!-- Node17 -->
<g id="Node000017" class="node">
<title>Node17</title>
<g id="a_Node000017"><a xlink:href="_token_8h.html" target="_top" xlink:title=" ">
<polygon fill="white" stroke="#666666" points="80.92,-76 30.42,-76 30.42,-56 80.92,-56 80.92,-76"/>
<text text-anchor="middle" x="55.67" y="-62.5" font-family="Helvetica,sans-Serif" font-size="10.00">Token.h</text>
</a>
</g>
</g>
<!-- Node16&#45;&gt;Node17 -->
<g id="edge36_Node000016_Node000017" class="edge">
<title>Node16&#45;&gt;Node17</title>
<g id="a_edge36_Node000016_Node000017"><a xlink:title=" ">
<path fill="none" stroke="#63b8ff" d="M92.83,-111.59C86.7,-104.24 78,-93.8 70.55,-84.87"/>
<polygon fill="#63b8ff" stroke="#63b8ff" points="73.47,-82.9 64.38,-77.46 68.1,-87.38 73.47,-82.9"/>
</a>
</g>
</g>
<!-- Node17&#45;&gt;Node3 -->
<g id="edge38_Node000017_Node000003" class="edge">
<title>Node17&#45;&gt;Node3</title>
<g id="a_edge38_Node000017_Node000003"><a xlink:title=" ">
<path fill="none" stroke="#63b8ff" d="M75.87,-55.59C93.89,-47.21 120.53,-34.8 141.15,-25.21"/>
<polygon fill="#63b8ff" stroke="#63b8ff" points="142.34,-28.51 149.93,-21.12 139.39,-22.17 142.34,-28.51"/>
</a>
</g>
</g>
<!-- Node17&#45;&gt;Node5 -->
<g id="edge39_Node000017_Node000005" class="edge">
<title>Node17&#45;&gt;Node5</title>
<g id="a_edge39_Node000017_Node000005"><a xlink:title=" ">
<path fill="none" stroke="#63b8ff" d="M55.67,-55.59C55.67,-49.01 55.67,-39.96 55.67,-31.73"/>
<polygon fill="#63b8ff" stroke="#63b8ff" points="59.17,-31.81 55.67,-21.81 52.17,-31.81 59.17,-31.81"/>
</a>
</g>
</g>
<!-- Node17&#45;&gt;Node6 -->
<g id="edge37_Node000017_Node000006" class="edge">
<title>Node17&#45;&gt;Node6</title>
<g id="a_edge37_Node000017_Node000006"><a xlink:title=" ">
<path fill="none" stroke="#63b8ff" d="M81.26,-59.09C85.73,-58.06 90.33,-57 94.67,-56 151.03,-43.06 216.49,-28.13 255.96,-19.13"/>
<polygon fill="#63b8ff" stroke="#63b8ff" points="256.64,-22.57 265.62,-16.93 255.09,-15.74 256.64,-22.57"/>
</a>
</g>
</g>
<!-- Node17&#45;&gt;Node9 -->
<g id="edge40_Node000017_Node000009" class="edge">
<title>Node17&#45;&gt;Node9</title>
<g id="a_edge40_Node000017_Node000009"><a xlink:title=" ">
<path fill="none" stroke="#63b8ff" d="M81.3,-61.57C95.04,-59.78 112.26,-57.64 127.67,-56 307.57,-36.82 523.82,-19.69 604.87,-13.48"/>
<polygon fill="#63b8ff" stroke="#63b8ff" points="605.05,-16.97 614.75,-12.72 604.51,-10 605.05,-16.97"/>
</a>
</g>
</g>
<!-- Node18&#45;&gt;Node4 -->
<g id="edge47_Node000018_Node000004" class="edge">
<title>Node18&#45;&gt;Node4</title>
<g id="a_edge47_Node000018_Node000004"><a xlink:title=" ">
<path fill="none" stroke="#63b8ff" d="M413.08,-223.59C401.63,-215.67 385,-204.16 371.51,-194.82"/>
<polygon fill="#63b8ff" stroke="#63b8ff" points="373.82,-192.16 363.6,-189.34 369.83,-197.91 373.82,-192.16"/>
</a>
</g>
</g>
<!-- Node18&#45;&gt;Node9 -->
<g id="edge49_Node000018_Node000009" class="edge">
<title>Node18&#45;&gt;Node9</title>
<g id="a_edge49_Node000018_Node000009"><a xlink:title=" ">
<path fill="none" stroke="#63b8ff" d="M453.35,-233.08C536.03,-232.88 786.48,-228.84 854.67,-188 880.47,-172.54 883.83,-160.75 892.67,-132 902.59,-99.71 914.38,-81.88 892.67,-56 878.49,-39.1 736.14,-21.66 670.5,-14.44"/>
<polygon fill="#63b8ff" stroke="#63b8ff" points="671.01,-10.98 660.69,-13.38 670.26,-17.94 671.01,-10.98"/>
</a>
</g>
</g>
<!-- Node18&#45;&gt;Node17 -->
<g id="edge48_Node000018_Node000017" class="edge">
<title>Node18&#45;&gt;Node17</title>
<g id="a_edge48_Node000018_Node000017"><a xlink:title=" ">
<path fill="none" stroke="#63b8ff" d="M399.88,-225.87C317.57,-203.9 73.47,-138.36 67.67,-132 56.78,-120.07 54.24,-101.6 54.15,-87.4"/>
<polygon fill="#63b8ff" stroke="#63b8ff" points="57.64,-87.92 54.51,-77.8 50.64,-87.66 57.64,-87.92"/>
</a>
</g>
</g>
</g>
</svg>
