<?xml version="1.0" encoding="UTF-8" standalone="no"?>
<!DOCTYPE svg PUBLIC "-//W3C//DTD SVG 1.1//EN"
 "http://www.w3.org/Graphics/SVG/1.1/DTD/svg11.dtd">
<!-- Generated by graphviz version 12.2.1 (20241206.2353)
 -->
<!-- Title: C:/Users/emilly/Documents/Lucca/Projetos/Cpp/NikiScript/src/NikiScript.cpp Pages: 1 -->
<svg width="728pt" height="332pt"
 viewBox="0.00 0.00 728.12 332.00" xmlns="http://www.w3.org/2000/svg" xmlns:xlink="http://www.w3.org/1999/xlink">
<g id="graph0" class="graph" transform="scale(1 1) rotate(0) translate(4 328)">
<title>C:/Users/emilly/Documents/Lucca/Projetos/Cpp/NikiScript/src/NikiScript.cpp</title>
<!-- Node1 -->
<g id="Node000001" class="node">
<title>Node1</title>
<g id="a_Node000001"><a xlink:title=" ">
<polygon fill="#999999" stroke="#666666" points="529,-324 378,-324 378,-280 529,-280 529,-324"/>
<text text-anchor="start" x="386" y="-310.5" font-family="Helvetica,sans-Serif" font-size="10.00">C:/Users/emilly/Documents</text>
<text text-anchor="start" x="386" y="-298.5" font-family="Helvetica,sans-Serif" font-size="10.00">/Lucca/Projetos/Cpp/NikiScript</text>
<text text-anchor="middle" x="453.5" y="-286.5" font-family="Helvetica,sans-Serif" font-size="10.00">/src/NikiScript.cpp</text>
</a>
</g>
</g>
<!-- Node2 -->
<g id="Node000002" class="node">
<title>Node2</title>
<g id="a_Node000002"><a xlink:href="_niki_script_8h.html" target="_top" xlink:title=" ">
<polygon fill="white" stroke="#666666" points="355,-244 288,-244 288,-224 355,-224 355,-244"/>
<text text-anchor="middle" x="321.5" y="-230.5" font-family="Helvetica,sans-Serif" font-size="10.00">NikiScript.h</text>
</a>
</g>
</g>
<!-- Node1&#45;&gt;Node2 -->
<g id="edge1_Node000001_Node000002" class="edge">
<title>Node1&#45;&gt;Node2</title>
<g id="a_edge1_Node000001_Node000002"><a xlink:title=" ">
<path fill="none" stroke="#63b8ff" d="M410.64,-279.57C390.94,-269.72 368.09,-258.3 350.46,-249.48"/>
<polygon fill="#63b8ff" stroke="#63b8ff" points="352.09,-246.38 341.58,-245.04 348.96,-252.64 352.09,-246.38"/>
</a>
</g>
</g>
<!-- Node12 -->
<g id="Node000012" class="node">
<title>Node12</title>
<g id="a_Node000012"><a xlink:href="_utils_8h.html" target="_top" xlink:title=" ">
<polygon fill="white" stroke="#666666" points="691.75,-76 647.25,-76 647.25,-56 691.75,-56 691.75,-76"/>
<text text-anchor="middle" x="669.5" y="-62.5" font-family="Helvetica,sans-Serif" font-size="10.00">Utils.h</text>
</a>
</g>
</g>
<!-- Node1&#45;&gt;Node12 -->
<g id="edge35_Node000001_Node000012" class="edge">
<title>Node1&#45;&gt;Node12</title>
<g id="a_edge35_Node000001_Node000012"><a xlink:title=" ">
<path fill="none" stroke="#63b8ff" d="M474.07,-279.62C504.62,-247.76 563.61,-185.82 612.5,-132 626.79,-116.27 642.72,-98.05 654.09,-84.91"/>
<polygon fill="#63b8ff" stroke="#63b8ff" points="656.61,-87.35 660.49,-77.49 651.31,-82.77 656.61,-87.35"/>
</a>
</g>
</g>
<!-- Node13 -->
<g id="Node000013" class="node">
<title>Node13</title>
<g id="a_Node000013"><a xlink:title=" ">
<polygon fill="#e0e0e0" stroke="#999999" points="720.12,-20 668.88,-20 668.88,0 720.12,0 720.12,-20"/>
<text text-anchor="middle" x="694.5" y="-6.5" font-family="Helvetica,sans-Serif" font-size="10.00">sstream</text>
</a>
</g>
</g>
<!-- Node1&#45;&gt;Node13 -->
<g id="edge34_Node000001_Node000013" class="edge">
<title>Node1&#45;&gt;Node13</title>
<g id="a_edge34_Node000001_Node000013"><a xlink:title=" ">
<path fill="none" stroke="#63b8ff" d="M529.37,-297.6C607.99,-289.52 719.5,-263.21 719.5,-179 719.5,-179 719.5,-179 719.5,-121 719.5,-88.93 709.27,-52.87 701.9,-31.06"/>
<polygon fill="#63b8ff" stroke="#63b8ff" points="705.22,-29.95 698.59,-21.68 698.62,-32.28 705.22,-29.95"/>
</a>
</g>
</g>
<!-- Node15 -->
<g id="Node000015" class="node">
<title>Node15</title>
<g id="a_Node000015"><a xlink:href="_lexer_8h.html" target="_top" xlink:title=" ">
<polygon fill="white" stroke="#666666" points="476.62,-132 428.38,-132 428.38,-112 476.62,-112 476.62,-132"/>
<text text-anchor="middle" x="452.5" y="-118.5" font-family="Helvetica,sans-Serif" font-size="10.00">Lexer.h</text>
</a>
</g>
</g>
<!-- Node1&#45;&gt;Node15 -->
<g id="edge38_Node000001_Node000015" class="edge">
<title>Node1&#45;&gt;Node15</title>
<g id="a_edge38_Node000001_Node000015"><a xlink:title=" ">
<path fill="none" stroke="#63b8ff" d="M453.38,-279.53C453.18,-244.93 452.81,-177.29 452.61,-143.39"/>
<polygon fill="#63b8ff" stroke="#63b8ff" points="456.12,-143.69 452.56,-133.71 449.12,-143.73 456.12,-143.69"/>
</a>
</g>
</g>
<!-- Node17 -->
<g id="Node000017" class="node">
<title>Node17</title>
<g id="a_Node000017"><a xlink:href="_parser_8h.html" target="_top" xlink:title=" ">
<polygon fill="white" stroke="#666666" points="425.88,-244 373.12,-244 373.12,-224 425.88,-224 425.88,-244"/>
<text text-anchor="middle" x="399.5" y="-230.5" font-family="Helvetica,sans-Serif" font-size="10.00">Parser.h</text>
</a>
</g>
</g>
<!-- Node1&#45;&gt;Node17 -->
<g id="edge36_Node000001_Node000017" class="edge">
<title>Node1&#45;&gt;Node17</title>
<g id="a_edge36_Node000001_Node000017"><a xlink:title=" ">
<path fill="none" stroke="#63b8ff" d="M436.12,-279.75C429.11,-271.2 421.12,-261.42 414.39,-253.2"/>
<polygon fill="#63b8ff" stroke="#63b8ff" points="417.21,-251.11 408.16,-245.59 411.79,-255.55 417.21,-251.11"/>
</a>
</g>
</g>
<!-- Node3 -->
<g id="Node000003" class="node">
<title>Node3</title>
<g id="a_Node000003"><a xlink:title=" ">
<polygon fill="#e0e0e0" stroke="#999999" points="153.25,-20 87.75,-20 87.75,0 153.25,0 153.25,-20"/>
<text text-anchor="middle" x="120.5" y="-6.5" font-family="Helvetica,sans-Serif" font-size="10.00">string_view</text>
</a>
</g>
</g>
<!-- Node2&#45;&gt;Node3 -->
<g id="edge2_Node000002_Node000003" class="edge">
<title>Node2&#45;&gt;Node3</title>
<g id="a_edge2_Node000002_Node000003"><a xlink:title=" ">
<path fill="none" stroke="#63b8ff" d="M287.55,-228.38C219.87,-217 70.88,-180.54 26.5,-76 15.24,-49.49 46.98,-32.14 76.57,-22.09"/>
<polygon fill="#63b8ff" stroke="#63b8ff" points="77.36,-25.51 85.85,-19.17 75.26,-18.84 77.36,-25.51"/>
</a>
</g>
</g>
<!-- Node4 -->
<g id="Node000004" class="node">
<title>Node4</title>
<g id="a_Node000004"><a xlink:href="_context_8h.html" target="_top" xlink:title=" ">
<polygon fill="white" stroke="#666666" points="352.88,-188 294.12,-188 294.12,-168 352.88,-168 352.88,-188"/>
<text text-anchor="middle" x="323.5" y="-174.5" font-family="Helvetica,sans-Serif" font-size="10.00">Context.h</text>
</a>
</g>
</g>
<!-- Node2&#45;&gt;Node4 -->
<g id="edge3_Node000002_Node000004" class="edge">
<title>Node2&#45;&gt;Node4</title>
<g id="a_edge3_Node000002_Node000004"><a xlink:title=" ">
<path fill="none" stroke="#63b8ff" d="M321.85,-223.59C322.09,-217.01 322.43,-207.96 322.73,-199.73"/>
<polygon fill="#63b8ff" stroke="#63b8ff" points="326.23,-199.93 323.1,-189.81 319.23,-199.67 326.23,-199.93"/>
</a>
</g>
</g>
<!-- Node5 -->
<g id="Node000005" class="node">
<title>Node5</title>
<g id="a_Node000005"><a xlink:title=" ">
<polygon fill="#e0e0e0" stroke="#999999" points="43,-20 0,-20 0,0 43,0 43,-20"/>
<text text-anchor="middle" x="21.5" y="-6.5" font-family="Helvetica,sans-Serif" font-size="10.00">vector</text>
</a>
</g>
</g>
<!-- Node4&#45;&gt;Node5 -->
<g id="edge4_Node000004_Node000005" class="edge">
<title>Node4&#45;&gt;Node5</title>
<g id="a_edge4_Node000004_Node000005"><a xlink:title=" ">
<path fill="none" stroke="#63b8ff" d="M293.8,-176.79C246.79,-175.31 153.52,-167.67 84.5,-132 52.67,-115.55 41.76,-108.42 26.5,-76 20,-62.19 18.96,-44.88 19.43,-31.6"/>
<polygon fill="#63b8ff" stroke="#63b8ff" points="22.91,-32.08 20.11,-21.86 15.93,-31.59 22.91,-32.08"/>
</a>
</g>
</g>
<!-- Node6 -->
<g id="Node000006" class="node">
<title>Node6</title>
<g id="a_Node000006"><a xlink:title=" ">
<polygon fill="#e0e0e0" stroke="#999999" points="605.62,-20 557.38,-20 557.38,0 605.62,0 605.62,-20"/>
<text text-anchor="middle" x="581.5" y="-6.5" font-family="Helvetica,sans-Serif" font-size="10.00">stdint.h</text>
</a>
</g>
</g>
<!-- Node4&#45;&gt;Node6 -->
<g id="edge5_Node000004_Node000006" class="edge">
<title>Node4&#45;&gt;Node6</title>
<g id="a_edge5_Node000004_Node000006"><a xlink:title=" ">
<path fill="none" stroke="#63b8ff" d="M353.15,-176.67C416.74,-175.26 562.94,-168.08 593.5,-132 617.63,-103.52 602.7,-56.65 591.16,-30.39"/>
<polygon fill="#63b8ff" stroke="#63b8ff" points="594.44,-29.15 587.03,-21.58 588.1,-32.12 594.44,-29.15"/>
</a>
</g>
</g>
<!-- Node7 -->
<g id="Node000007" class="node">
<title>Node7</title>
<g id="a_Node000007"><a xlink:title=" ">
<polygon fill="#e0e0e0" stroke="#999999" points="419.5,-20 379.5,-20 379.5,0 419.5,0 419.5,-20"/>
<text text-anchor="middle" x="399.5" y="-6.5" font-family="Helvetica,sans-Serif" font-size="10.00">string</text>
</a>
</g>
</g>
<!-- Node4&#45;&gt;Node7 -->
<g id="edge6_Node000004_Node000007" class="edge">
<title>Node4&#45;&gt;Node7</title>
<g id="a_edge6_Node000004_Node000007"><a xlink:title=" ">
<path fill="none" stroke="#63b8ff" d="M327.8,-167.6C339.87,-141.23 374.23,-66.19 390.61,-30.42"/>
<polygon fill="#63b8ff" stroke="#63b8ff" points="393.63,-32.22 394.61,-21.67 387.27,-29.31 393.63,-32.22"/>
</a>
</g>
</g>
<!-- Node8 -->
<g id="Node000008" class="node">
<title>Node8</title>
<g id="a_Node000008"><a xlink:title=" ">
<polygon fill="#e0e0e0" stroke="#999999" points="324.88,-20 242.12,-20 242.12,0 324.88,0 324.88,-20"/>
<text text-anchor="middle" x="283.5" y="-6.5" font-family="Helvetica,sans-Serif" font-size="10.00">unordered_map</text>
</a>
</g>
</g>
<!-- Node4&#45;&gt;Node8 -->
<g id="edge7_Node000004_Node000008" class="edge">
<title>Node4&#45;&gt;Node8</title>
<g id="a_edge7_Node000004_Node000008"><a xlink:title=" ">
<path fill="none" stroke="#63b8ff" d="M322.93,-167.69C321.48,-147.14 316.85,-96.47 304.5,-56 301.86,-47.36 297.86,-38.25 294.06,-30.5"/>
<polygon fill="#63b8ff" stroke="#63b8ff" points="297.21,-28.97 289.51,-21.69 290.99,-32.18 297.21,-28.97"/>
</a>
</g>
</g>
<!-- Node9 -->
<g id="Node000009" class="node">
<title>Node9</title>
<g id="a_Node000009"><a xlink:href="_command_8h.html" target="_top" xlink:title=" ">
<polygon fill="white" stroke="#666666" points="105.12,-76 35.88,-76 35.88,-56 105.12,-56 105.12,-76"/>
<text text-anchor="middle" x="70.5" y="-62.5" font-family="Helvetica,sans-Serif" font-size="10.00">Command.h</text>
</a>
</g>
</g>
<!-- Node4&#45;&gt;Node9 -->
<g id="edge8_Node000004_Node000009" class="edge">
<title>Node4&#45;&gt;Node9</title>
<g id="a_edge8_Node000004_Node000009"><a xlink:title=" ">
<path fill="none" stroke="#63b8ff" d="M293.79,-173.99C241.32,-168.17 135.02,-153.99 105.5,-132 90.58,-120.88 81.32,-101.47 76.11,-86.75"/>
<polygon fill="#63b8ff" stroke="#63b8ff" points="79.58,-86.11 73.22,-77.63 72.9,-88.22 79.58,-86.11"/>
</a>
</g>
</g>
<!-- Node10 -->
<g id="Node000010" class="node">
<title>Node10</title>
<g id="a_Node000010"><a xlink:href="_command_handler_8h.html" target="_top" xlink:title=" ">
<polygon fill="white" stroke="#666666" points="218,-132 115,-132 115,-112 218,-112 218,-132"/>
<text text-anchor="middle" x="166.5" y="-118.5" font-family="Helvetica,sans-Serif" font-size="10.00">CommandHandler.h</text>
</a>
</g>
</g>
<!-- Node4&#45;&gt;Node10 -->
<g id="edge12_Node000004_Node000010" class="edge">
<title>Node4&#45;&gt;Node10</title>
<g id="a_edge12_Node000004_Node000010"><a xlink:title=" ">
<path fill="none" stroke="#63b8ff" d="M296.15,-167.59C270.87,-158.9 233.04,-145.89 204.77,-136.16"/>
<polygon fill="#63b8ff" stroke="#63b8ff" points="206.09,-132.91 195.49,-132.97 203.81,-139.53 206.09,-132.91"/>
</a>
</g>
</g>
<!-- Node11 -->
<g id="Node000011" class="node">
<title>Node11</title>
<g id="a_Node000011"><a xlink:href="_print_callback_8h.html" target="_top" xlink:title=" ">
<polygon fill="white" stroke="#666666" points="584.88,-132 502.12,-132 502.12,-112 584.88,-112 584.88,-132"/>
<text text-anchor="middle" x="543.5" y="-118.5" font-family="Helvetica,sans-Serif" font-size="10.00">PrintCallback.h</text>
</a>
</g>
</g>
<!-- Node4&#45;&gt;Node11 -->
<g id="edge16_Node000004_Node000011" class="edge">
<title>Node4&#45;&gt;Node11</title>
<g id="a_edge16_Node000004_Node000011"><a xlink:title=" ">
<path fill="none" stroke="#63b8ff" d="M353.17,-169.72C389.24,-160.86 450.64,-145.79 493.93,-135.17"/>
<polygon fill="#63b8ff" stroke="#63b8ff" points="494.73,-138.58 503.6,-132.79 493.06,-131.78 494.73,-138.58"/>
</a>
</g>
</g>
<!-- Node14 -->
<g id="Node000014" class="node">
<title>Node14</title>
<g id="a_Node000014"><a xlink:href="_program_variable_8h.html" target="_top" xlink:title=" ">
<polygon fill="white" stroke="#666666" points="295.25,-76 199.75,-76 199.75,-56 295.25,-56 295.25,-76"/>
<text text-anchor="middle" x="247.5" y="-62.5" font-family="Helvetica,sans-Serif" font-size="10.00">ProgramVariable.h</text>
</a>
</g>
</g>
<!-- Node4&#45;&gt;Node14 -->
<g id="edge23_Node000004_Node000014" class="edge">
<title>Node4&#45;&gt;Node14</title>
<g id="a_edge23_Node000004_Node000014"><a xlink:title=" ">
<path fill="none" stroke="#63b8ff" d="M317.02,-167.62C304.51,-149.52 276.83,-109.45 260.42,-85.7"/>
<polygon fill="#63b8ff" stroke="#63b8ff" points="263.39,-83.84 254.82,-77.6 257.63,-87.82 263.39,-83.84"/>
</a>
</g>
</g>
<!-- Node4&#45;&gt;Node15 -->
<g id="edge27_Node000004_Node000015" class="edge">
<title>Node4&#45;&gt;Node15</title>
<g id="a_edge27_Node000004_Node000015"><a xlink:title=" ">
<path fill="none" stroke="#63b8ff" d="M345.97,-167.59C366.29,-159.09 396.45,-146.46 419.51,-136.81"/>
<polygon fill="#63b8ff" stroke="#63b8ff" points="420.59,-140.15 428.46,-133.06 417.88,-133.7 420.59,-140.15"/>
</a>
</g>
</g>
<!-- Node9&#45;&gt;Node3 -->
<g id="edge10_Node000009_Node000003" class="edge">
<title>Node9&#45;&gt;Node3</title>
<g id="a_edge10_Node000009_Node000003"><a xlink:title=" ">
<path fill="none" stroke="#63b8ff" d="M79.21,-55.59C86.09,-48.16 95.89,-37.58 104.22,-28.58"/>
<polygon fill="#63b8ff" stroke="#63b8ff" points="106.64,-31.12 110.86,-21.41 101.5,-26.37 106.64,-31.12"/>
</a>
</g>
</g>
<!-- Node9&#45;&gt;Node5 -->
<g id="edge9_Node000009_Node000005" class="edge">
<title>Node9&#45;&gt;Node5</title>
<g id="a_edge9_Node000009_Node000005"><a xlink:title=" ">
<path fill="none" stroke="#63b8ff" d="M61.96,-55.59C55.22,-48.16 45.61,-37.58 37.46,-28.58"/>
<polygon fill="#63b8ff" stroke="#63b8ff" points="40.27,-26.47 30.95,-21.42 35.08,-31.18 40.27,-26.47"/>
</a>
</g>
</g>
<!-- Node9&#45;&gt;Node7 -->
<g id="edge11_Node000009_Node000007" class="edge">
<title>Node9&#45;&gt;Node7</title>
<g id="a_edge11_Node000009_Node000007"><a xlink:title=" ">
<path fill="none" stroke="#63b8ff" d="M105.4,-59.27C169.74,-48.71 306.12,-26.33 367.9,-16.19"/>
<polygon fill="#63b8ff" stroke="#63b8ff" points="368.43,-19.65 377.73,-14.57 367.29,-12.74 368.43,-19.65"/>
</a>
</g>
</g>
<!-- Node10&#45;&gt;Node3 -->
<g id="edge14_Node000010_Node000003" class="edge">
<title>Node10&#45;&gt;Node3</title>
<g id="a_edge14_Node000010_Node000003"><a xlink:title=" ">
<path fill="none" stroke="#63b8ff" d="M162.58,-111.62C155.11,-93.76 138.7,-54.53 128.73,-30.67"/>
<polygon fill="#63b8ff" stroke="#63b8ff" points="132.08,-29.63 125,-21.75 125.63,-32.33 132.08,-29.63"/>
</a>
</g>
</g>
<!-- Node10&#45;&gt;Node8 -->
<g id="edge13_Node000010_Node000008" class="edge">
<title>Node10&#45;&gt;Node8</title>
<g id="a_edge13_Node000010_Node000008"><a xlink:title=" ">
<path fill="none" stroke="#63b8ff" d="M167.67,-111.91C169.86,-98.23 175.79,-72.21 190.5,-56 203.48,-41.7 221.99,-31.47 239.08,-24.41"/>
<polygon fill="#63b8ff" stroke="#63b8ff" points="239.98,-27.82 248.06,-20.97 237.47,-21.28 239.98,-27.82"/>
</a>
</g>
</g>
<!-- Node10&#45;&gt;Node9 -->
<g id="edge15_Node000010_Node000009" class="edge">
<title>Node10&#45;&gt;Node9</title>
<g id="a_edge15_Node000010_Node000009"><a xlink:title=" ">
<path fill="none" stroke="#63b8ff" d="M149.78,-111.59C135.28,-103.44 114.03,-91.48 97.18,-82"/>
<polygon fill="#63b8ff" stroke="#63b8ff" points="99.1,-79.07 88.67,-77.22 95.67,-85.17 99.1,-79.07"/>
</a>
</g>
</g>
<!-- Node11&#45;&gt;Node6 -->
<g id="edge17_Node000011_Node000006" class="edge">
<title>Node11&#45;&gt;Node6</title>
<g id="a_edge17_Node000011_Node000006"><a xlink:title=" ">
<path fill="none" stroke="#63b8ff" d="M546.74,-111.62C552.88,-93.84 566.34,-54.88 574.59,-31"/>
<polygon fill="#63b8ff" stroke="#63b8ff" points="577.82,-32.38 577.77,-21.79 571.2,-30.09 577.82,-32.38"/>
</a>
</g>
</g>
<!-- Node11&#45;&gt;Node7 -->
<g id="edge18_Node000011_Node000007" class="edge">
<title>Node11&#45;&gt;Node7</title>
<g id="a_edge18_Node000011_Node000007"><a xlink:title=" ">
<path fill="none" stroke="#63b8ff" d="M537.04,-111.62C527.31,-98.02 507.77,-72.65 486.5,-56 469.31,-42.55 447.49,-31.27 430,-23.37"/>
<polygon fill="#63b8ff" stroke="#63b8ff" points="431.7,-20.3 421.14,-19.51 428.9,-26.71 431.7,-20.3"/>
</a>
</g>
</g>
<!-- Node11&#45;&gt;Node12 -->
<g id="edge19_Node000011_Node000012" class="edge">
<title>Node11&#45;&gt;Node12</title>
<g id="a_edge19_Node000011_Node000012"><a xlink:title=" ">
<path fill="none" stroke="#63b8ff" d="M565.45,-111.59C585.2,-103.13 614.49,-90.58 636.97,-80.94"/>
<polygon fill="#63b8ff" stroke="#63b8ff" points="638.18,-84.23 645.99,-77.08 635.42,-77.8 638.18,-84.23"/>
</a>
</g>
</g>
<!-- Node12&#45;&gt;Node6 -->
<g id="edge20_Node000012_Node000006" class="edge">
<title>Node12&#45;&gt;Node6</title>
<g id="a_edge20_Node000012_Node000006"><a xlink:title=" ">
<path fill="none" stroke="#63b8ff" d="M654.17,-55.59C641,-47.51 621.77,-35.71 606.39,-26.27"/>
<polygon fill="#63b8ff" stroke="#63b8ff" points="608.59,-23.52 598.24,-21.27 604.93,-29.48 608.59,-23.52"/>
</a>
</g>
</g>
<!-- Node12&#45;&gt;Node7 -->
<g id="edge21_Node000012_Node000007" class="edge">
<title>Node12&#45;&gt;Node7</title>
<g id="a_edge21_Node000012_Node000007"><a xlink:title=" ">
<path fill="none" stroke="#63b8ff" d="M646.94,-60.49C598.89,-50.88 486.3,-28.36 431.12,-17.32"/>
<polygon fill="#63b8ff" stroke="#63b8ff" points="431.92,-13.91 421.43,-15.39 430.55,-20.78 431.92,-13.91"/>
</a>
</g>
</g>
<!-- Node12&#45;&gt;Node13 -->
<g id="edge22_Node000012_Node000013" class="edge">
<title>Node12&#45;&gt;Node13</title>
<g id="a_edge22_Node000012_Node000013"><a xlink:title=" ">
<path fill="none" stroke="#63b8ff" d="M673.85,-55.59C677.05,-48.7 681.49,-39.1 685.44,-30.57"/>
<polygon fill="#63b8ff" stroke="#63b8ff" points="688.53,-32.22 689.56,-21.67 682.18,-29.28 688.53,-32.22"/>
</a>
</g>
</g>
<!-- Node14&#45;&gt;Node3 -->
<g id="edge25_Node000014_Node000003" class="edge">
<title>Node14&#45;&gt;Node3</title>
<g id="a_edge25_Node000014_Node000003"><a xlink:title=" ">
<path fill="none" stroke="#63b8ff" d="M225.38,-55.59C205.47,-47.13 175.95,-34.58 153.29,-24.94"/>
<polygon fill="#63b8ff" stroke="#63b8ff" points="154.76,-21.76 144.19,-21.07 152.02,-28.21 154.76,-21.76"/>
</a>
</g>
</g>
<!-- Node14&#45;&gt;Node7 -->
<g id="edge24_Node000014_Node000007" class="edge">
<title>Node14&#45;&gt;Node7</title>
<g id="a_edge24_Node000014_Node000007"><a xlink:title=" ">
<path fill="none" stroke="#63b8ff" d="M273.98,-55.59C300.29,-46.25 340.63,-31.91 368.45,-22.03"/>
<polygon fill="#63b8ff" stroke="#63b8ff" points="369.48,-25.38 377.73,-18.73 367.14,-18.78 369.48,-25.38"/>
</a>
</g>
</g>
<!-- Node14&#45;&gt;Node8 -->
<g id="edge26_Node000014_Node000008" class="edge">
<title>Node14&#45;&gt;Node8</title>
<g id="a_edge26_Node000014_Node000008"><a xlink:title=" ">
<path fill="none" stroke="#63b8ff" d="M253.77,-55.59C258.52,-48.47 265.2,-38.45 271.02,-29.72"/>
<polygon fill="#63b8ff" stroke="#63b8ff" points="273.83,-31.82 276.46,-21.56 268,-27.94 273.83,-31.82"/>
</a>
</g>
</g>
<!-- Node15&#45;&gt;Node6 -->
<g id="edge28_Node000015_Node000006" class="edge">
<title>Node15&#45;&gt;Node6</title>
<g id="a_edge28_Node000015_Node000006"><a xlink:title=" ">
<path fill="none" stroke="#63b8ff" d="M463.5,-111.62C485.3,-93.03 534.26,-51.28 561.77,-27.82"/>
<polygon fill="#63b8ff" stroke="#63b8ff" points="564.04,-30.49 569.38,-21.34 559.5,-25.16 564.04,-30.49"/>
</a>
</g>
</g>
<!-- Node15&#45;&gt;Node7 -->
<g id="edge29_Node000015_Node000007" class="edge">
<title>Node15&#45;&gt;Node7</title>
<g id="a_edge29_Node000015_Node000007"><a xlink:title=" ">
<path fill="none" stroke="#63b8ff" d="M443.83,-111.68C436.2,-103.02 425.27,-89.47 418.5,-76 411.38,-61.83 406.49,-44.55 403.45,-31.36"/>
<polygon fill="#63b8ff" stroke="#63b8ff" points="406.9,-30.76 401.41,-21.7 400.05,-32.21 406.9,-30.76"/>
</a>
</g>
</g>
<!-- Node16 -->
<g id="Node000016" class="node">
<title>Node16</title>
<g id="a_Node000016"><a xlink:href="_token_8h.html" target="_top" xlink:title=" ">
<polygon fill="white" stroke="#666666" points="477.75,-76 427.25,-76 427.25,-56 477.75,-56 477.75,-76"/>
<text text-anchor="middle" x="452.5" y="-62.5" font-family="Helvetica,sans-Serif" font-size="10.00">Token.h</text>
</a>
</g>
</g>
<!-- Node15&#45;&gt;Node16 -->
<g id="edge30_Node000015_Node000016" class="edge">
<title>Node15&#45;&gt;Node16</title>
<g id="a_edge30_Node000015_Node000016"><a xlink:title=" ">
<path fill="none" stroke="#63b8ff" d="M452.5,-111.59C452.5,-105.01 452.5,-95.96 452.5,-87.73"/>
<polygon fill="#63b8ff" stroke="#63b8ff" points="456,-87.81 452.5,-77.81 449,-87.81 456,-87.81"/>
</a>
</g>
</g>
<!-- Node16&#45;&gt;Node6 -->
<g id="edge31_Node000016_Node000006" class="edge">
<title>Node16&#45;&gt;Node6</title>
<g id="a_edge31_Node000016_Node000006"><a xlink:title=" ">
<path fill="none" stroke="#63b8ff" d="M474.97,-55.59C495.29,-47.09 525.45,-34.46 548.51,-24.81"/>
<polygon fill="#63b8ff" stroke="#63b8ff" points="549.59,-28.15 557.46,-21.06 546.88,-21.7 549.59,-28.15"/>
</a>
</g>
</g>
<!-- Node16&#45;&gt;Node7 -->
<g id="edge32_Node000016_Node000007" class="edge">
<title>Node16&#45;&gt;Node7</title>
<g id="a_edge32_Node000016_Node000007"><a xlink:title=" ">
<path fill="none" stroke="#63b8ff" d="M443.27,-55.59C435.9,-48.08 425.37,-37.35 416.48,-28.3"/>
<polygon fill="#63b8ff" stroke="#63b8ff" points="419.19,-26.06 409.69,-21.38 414.19,-30.97 419.19,-26.06"/>
</a>
</g>
</g>
<!-- Node16&#45;&gt;Node8 -->
<g id="edge33_Node000016_Node000008" class="edge">
<title>Node16&#45;&gt;Node8</title>
<g id="a_edge33_Node000016_Node000008"><a xlink:title=" ">
<path fill="none" stroke="#63b8ff" d="M426.83,-56.8C399.49,-48.06 355.84,-34.11 323.88,-23.9"/>
<polygon fill="#63b8ff" stroke="#63b8ff" points="325.15,-20.63 314.56,-20.92 323.02,-27.3 325.15,-20.63"/>
</a>
</g>
</g>
<!-- Node17&#45;&gt;Node4 -->
<g id="edge37_Node000017_Node000004" class="edge">
<title>Node17&#45;&gt;Node4</title>
<g id="a_edge37_Node000017_Node000004"><a xlink:title=" ">
<path fill="none" stroke="#63b8ff" d="M386.26,-223.59C375.21,-215.74 359.22,-204.38 346.14,-195.09"/>
<polygon fill="#63b8ff" stroke="#63b8ff" points="348.25,-192.3 338.08,-189.36 344.2,-198 348.25,-192.3"/>
</a>
</g>
</g>
</g>
</svg>
