<?xml version="1.0" encoding="UTF-8" standalone="no"?>
<!DOCTYPE svg PUBLIC "-//W3C//DTD SVG 1.1//EN"
 "http://www.w3.org/Graphics/SVG/1.1/DTD/svg11.dtd">
<!-- Generated by graphviz version 12.2.1 (20241206.2353)
 -->
<!-- Title: C:/Users/emilly/Documents/Lucca/Projetos/Cpp/NikiScript/include/NikiScript/NikiScript.h Pages: 1 -->
<svg width="788pt" height="276pt"
 viewBox="0.00 0.00 788.48 276.00" xmlns="http://www.w3.org/2000/svg" xmlns:xlink="http://www.w3.org/1999/xlink">
<g id="graph0" class="graph" transform="scale(1 1) rotate(0) translate(4 272)">
<title>C:/Users/emilly/Documents/Lucca/Projetos/Cpp/NikiScript/include/NikiScript/NikiScript.h</title>
<!-- Node1 -->
<g id="Node000001" class="node">
<title>Node1</title>
<g id="a_Node000001"><a xlink:title=" ">
<polygon fill="#999999" stroke="#666666" points="456.78,-268 305.78,-268 305.78,-224 456.78,-224 456.78,-268"/>
<text text-anchor="start" x="313.78" y="-254.5" font-family="Helvetica,sans-Serif" font-size="10.00">C:/Users/emilly/Documents</text>
<text text-anchor="start" x="313.78" y="-242.5" font-family="Helvetica,sans-Serif" font-size="10.00">/Lucca/Projetos/Cpp/NikiScript</text>
<text text-anchor="middle" x="381.28" y="-230.5" font-family="Helvetica,sans-Serif" font-size="10.00">/include/NikiScript/NikiScript.h</text>
</a>
</g>
</g>
<!-- Node2 -->
<g id="Node000002" class="node">
<title>Node2</title>
<g id="a_Node000002"><a xlink:title=" ">
<polygon fill="#e0e0e0" stroke="#999999" points="186.28,-20 146.28,-20 146.28,0 186.28,0 186.28,-20"/>
<text text-anchor="middle" x="166.28" y="-6.5" font-family="Helvetica,sans-Serif" font-size="10.00">string</text>
</a>
</g>
</g>
<!-- Node1&#45;&gt;Node2 -->
<g id="edge1_Node000001_Node000002" class="edge">
<title>Node1&#45;&gt;Node2</title>
<g id="a_edge1_Node000001_Node000002"><a xlink:title=" ">
<path fill="none" stroke="#63b8ff" d="M305.53,-242.56C228.22,-235.53 111.81,-211.43 55.28,-132 45.04,-117.62 46.25,-78.39 63.28,-56 80.46,-33.41 111.36,-21.97 134.85,-16.29"/>
<polygon fill="#63b8ff" stroke="#63b8ff" points="135.5,-19.73 144.54,-14.2 134.03,-12.89 135.5,-19.73"/>
</a>
</g>
</g>
<!-- Node3 -->
<g id="Node000003" class="node">
<title>Node3</title>
<g id="a_Node000003"><a xlink:href="_context_8h.html" target="_top" xlink:title=" ">
<polygon fill="white" stroke="#666666" points="410.66,-188 351.91,-188 351.91,-168 410.66,-168 410.66,-188"/>
<text text-anchor="middle" x="381.28" y="-174.5" font-family="Helvetica,sans-Serif" font-size="10.00">Context.h</text>
</a>
</g>
</g>
<!-- Node1&#45;&gt;Node3 -->
<g id="edge2_Node000001_Node000003" class="edge">
<title>Node1&#45;&gt;Node3</title>
<g id="a_edge2_Node000001_Node000003"><a xlink:title=" ">
<path fill="none" stroke="#63b8ff" d="M381.28,-223.75C381.28,-216.13 381.28,-207.53 381.28,-199.93"/>
<polygon fill="#63b8ff" stroke="#63b8ff" points="384.78,-199.93 381.28,-189.93 377.78,-199.93 384.78,-199.93"/>
</a>
</g>
</g>
<!-- Node8 -->
<g id="Node000008" class="node">
<title>Node8</title>
<g id="a_Node000008"><a xlink:href="_d_l_l_8h.html" target="_top" xlink:title=" ">
<polygon fill="white" stroke="#666666" points="419.41,-20 377.16,-20 377.16,0 419.41,0 419.41,-20"/>
<text text-anchor="middle" x="398.28" y="-6.5" font-family="Helvetica,sans-Serif" font-size="10.00">DLL.h</text>
</a>
</g>
</g>
<!-- Node1&#45;&gt;Node8 -->
<g id="edge41_Node000001_Node000008" class="edge">
<title>Node1&#45;&gt;Node8</title>
<g id="a_edge41_Node000001_Node000008"><a xlink:title=" ">
<path fill="none" stroke="#63b8ff" d="M457.23,-235.42C592.81,-215.42 853.93,-162.01 760.28,-56 738.63,-31.49 516.23,-17.24 431.14,-12.64"/>
<polygon fill="#63b8ff" stroke="#63b8ff" points="431.54,-9.16 421.37,-12.13 431.17,-16.15 431.54,-9.16"/>
</a>
</g>
</g>
<!-- Node3&#45;&gt;Node2 -->
<g id="edge5_Node000003_Node000002" class="edge">
<title>Node3&#45;&gt;Node2</title>
<g id="a_edge5_Node000003_Node000002"><a xlink:title=" ">
<path fill="none" stroke="#63b8ff" d="M351.62,-177.46C280.43,-177.85 103.11,-174.46 66.28,-132 53.6,-117.38 59.84,-80.03 78.28,-56 92.34,-37.68 115.94,-26.18 135.16,-19.4"/>
<polygon fill="#63b8ff" stroke="#63b8ff" points="135.99,-22.81 144.43,-16.4 133.84,-16.15 135.99,-22.81"/>
</a>
</g>
</g>
<!-- Node4 -->
<g id="Node000004" class="node">
<title>Node4</title>
<g id="a_Node000004"><a xlink:title=" ">
<polygon fill="#e0e0e0" stroke="#999999" points="318.78,-20 275.78,-20 275.78,0 318.78,0 318.78,-20"/>
<text text-anchor="middle" x="297.28" y="-6.5" font-family="Helvetica,sans-Serif" font-size="10.00">vector</text>
</a>
</g>
</g>
<!-- Node3&#45;&gt;Node4 -->
<g id="edge3_Node000003_Node000004" class="edge">
<title>Node3&#45;&gt;Node4</title>
<g id="a_edge3_Node000003_Node000004"><a xlink:title=" ">
<path fill="none" stroke="#63b8ff" d="M410.87,-177.01C477.53,-176.34 636.21,-170.64 669.28,-132 675.06,-125.25 671.2,-120.68 669.28,-112 663.36,-85.2 665.41,-72.23 643.28,-56 641.7,-54.84 416.42,-26.13 330.27,-15.19"/>
<polygon fill="#63b8ff" stroke="#63b8ff" points="330.93,-11.74 320.57,-13.95 330.05,-18.69 330.93,-11.74"/>
</a>
</g>
</g>
<!-- Node5 -->
<g id="Node000005" class="node">
<title>Node5</title>
<g id="a_Node000005"><a xlink:title=" ">
<polygon fill="#e0e0e0" stroke="#999999" points="109.41,-20 61.16,-20 61.16,0 109.41,0 109.41,-20"/>
<text text-anchor="middle" x="85.28" y="-6.5" font-family="Helvetica,sans-Serif" font-size="10.00">stdint.h</text>
</a>
</g>
</g>
<!-- Node3&#45;&gt;Node5 -->
<g id="edge4_Node000003_Node000005" class="edge">
<title>Node3&#45;&gt;Node5</title>
<g id="a_edge4_Node000003_Node000005"><a xlink:title=" ">
<path fill="none" stroke="#63b8ff" d="M351.45,-175.54C280.97,-171.66 106.26,-159.49 55.28,-132 19.91,-112.92 -13.92,-90.75 6.28,-56 15.84,-39.54 33.93,-28.61 50.38,-21.64"/>
<polygon fill="#63b8ff" stroke="#63b8ff" points="51.36,-25.01 59.44,-18.16 48.85,-18.48 51.36,-25.01"/>
</a>
</g>
</g>
<!-- Node6 -->
<g id="Node000006" class="node">
<title>Node6</title>
<g id="a_Node000006"><a xlink:title=" ">
<polygon fill="#e0e0e0" stroke="#999999" points="584.66,-76 501.91,-76 501.91,-56 584.66,-56 584.66,-76"/>
<text text-anchor="middle" x="543.28" y="-62.5" font-family="Helvetica,sans-Serif" font-size="10.00">unordered_map</text>
</a>
</g>
</g>
<!-- Node3&#45;&gt;Node6 -->
<g id="edge6_Node000003_Node000006" class="edge">
<title>Node3&#45;&gt;Node6</title>
<g id="a_edge6_Node000003_Node000006"><a xlink:title=" ">
<path fill="none" stroke="#63b8ff" d="M410.84,-170.62C435.83,-164.11 471.56,-152.06 497.28,-132 513.09,-119.67 525.75,-100.45 533.75,-86.1"/>
<polygon fill="#63b8ff" stroke="#63b8ff" points="536.66,-88.09 538.24,-77.61 530.47,-84.82 536.66,-88.09"/>
</a>
</g>
</g>
<!-- Node7 -->
<g id="Node000007" class="node">
<title>Node7</title>
<g id="a_Node000007"><a xlink:href="_command_8h.html" target="_top" xlink:title=" ">
<polygon fill="white" stroke="#666666" points="331.91,-76 262.66,-76 262.66,-56 331.91,-56 331.91,-76"/>
<text text-anchor="middle" x="297.28" y="-62.5" font-family="Helvetica,sans-Serif" font-size="10.00">Command.h</text>
</a>
</g>
</g>
<!-- Node3&#45;&gt;Node7 -->
<g id="edge7_Node000003_Node000007" class="edge">
<title>Node3&#45;&gt;Node7</title>
<g id="a_edge7_Node000003_Node000007"><a xlink:title=" ">
<path fill="none" stroke="#63b8ff" d="M374.12,-167.62C360.23,-149.44 329.42,-109.09 311.32,-85.38"/>
<polygon fill="#63b8ff" stroke="#63b8ff" points="314.19,-83.38 305.34,-77.56 308.63,-87.63 314.19,-83.38"/>
</a>
</g>
</g>
<!-- Node3&#45;&gt;Node8 -->
<g id="edge40_Node000003_Node000008" class="edge">
<title>Node3&#45;&gt;Node8</title>
<g id="a_edge40_Node000003_Node000008"><a xlink:title=" ">
<path fill="none" stroke="#63b8ff" d="M410.94,-175.49C493.03,-171.03 718.56,-156.61 740.28,-132 762.63,-106.67 762.55,-81.39 740.28,-56 720.05,-32.93 513.01,-17.96 431.24,-12.9"/>
<polygon fill="#63b8ff" stroke="#63b8ff" points="431.61,-9.42 421.41,-12.31 431.18,-16.41 431.61,-9.42"/>
</a>
</g>
</g>
<!-- Node9 -->
<g id="Node000009" class="node">
<title>Node9</title>
<g id="a_Node000009"><a xlink:href="_command_handler_8h.html" target="_top" xlink:title=" ">
<polygon fill="white" stroke="#666666" points="487.78,-132 384.78,-132 384.78,-112 487.78,-112 487.78,-132"/>
<text text-anchor="middle" x="436.28" y="-118.5" font-family="Helvetica,sans-Serif" font-size="10.00">CommandHandler.h</text>
</a>
</g>
</g>
<!-- Node3&#45;&gt;Node9 -->
<g id="edge12_Node000003_Node000009" class="edge">
<title>Node3&#45;&gt;Node9</title>
<g id="a_edge12_Node000003_Node000009"><a xlink:title=" ">
<path fill="none" stroke="#63b8ff" d="M390.86,-167.59C398.51,-160.08 409.44,-149.35 418.66,-140.3"/>
<polygon fill="#63b8ff" stroke="#63b8ff" points="421.05,-142.86 425.73,-133.36 416.14,-137.87 421.05,-142.86"/>
</a>
</g>
</g>
<!-- Node10 -->
<g id="Node000010" class="node">
<title>Node10</title>
<g id="a_Node000010"><a xlink:href="_print_callback_8h.html" target="_top" xlink:title=" ">
<polygon fill="white" stroke="#666666" points="157.66,-132 74.91,-132 74.91,-112 157.66,-112 157.66,-132"/>
<text text-anchor="middle" x="116.28" y="-118.5" font-family="Helvetica,sans-Serif" font-size="10.00">PrintCallback.h</text>
</a>
</g>
</g>
<!-- Node3&#45;&gt;Node10 -->
<g id="edge17_Node000003_Node000010" class="edge">
<title>Node3&#45;&gt;Node10</title>
<g id="a_edge17_Node000003_Node000010"><a xlink:title=" ">
<path fill="none" stroke="#63b8ff" d="M351.65,-170.96C307.52,-161.97 223.85,-144.92 169.09,-133.76"/>
<polygon fill="#63b8ff" stroke="#63b8ff" points="169.84,-130.34 159.35,-131.78 168.45,-137.2 169.84,-130.34"/>
</a>
</g>
</g>
<!-- Node13 -->
<g id="Node000013" class="node">
<title>Node13</title>
<g id="a_Node000013"><a xlink:href="_program_variable_8h.html" target="_top" xlink:title=" ">
<polygon fill="white" stroke="#666666" points="660.03,-132 564.53,-132 564.53,-112 660.03,-112 660.03,-132"/>
<text text-anchor="middle" x="612.28" y="-118.5" font-family="Helvetica,sans-Serif" font-size="10.00">ProgramVariable.h</text>
</a>
</g>
</g>
<!-- Node3&#45;&gt;Node13 -->
<g id="edge26_Node000003_Node000013" class="edge">
<title>Node3&#45;&gt;Node13</title>
<g id="a_edge26_Node000003_Node000013"><a xlink:title=" ">
<path fill="none" stroke="#63b8ff" d="M411.01,-170.05C448.83,-161.21 514.77,-145.79 560.83,-135.03"/>
<polygon fill="#63b8ff" stroke="#63b8ff" points="561.38,-138.49 570.32,-132.81 559.79,-131.68 561.38,-138.49"/>
</a>
</g>
</g>
<!-- Node14 -->
<g id="Node000014" class="node">
<title>Node14</title>
<g id="a_Node000014"><a xlink:href="_lexer_8h.html" target="_top" xlink:title=" ">
<polygon fill="white" stroke="#666666" points="243.41,-132 195.16,-132 195.16,-112 243.41,-112 243.41,-132"/>
<text text-anchor="middle" x="219.28" y="-118.5" font-family="Helvetica,sans-Serif" font-size="10.00">Lexer.h</text>
</a>
</g>
</g>
<!-- Node3&#45;&gt;Node14 -->
<g id="edge31_Node000003_Node000014" class="edge">
<title>Node3&#45;&gt;Node14</title>
<g id="a_edge31_Node000003_Node000014"><a xlink:title=" ">
<path fill="none" stroke="#63b8ff" d="M353.06,-167.59C325.65,-158.46 283.96,-144.56 254.41,-134.71"/>
<polygon fill="#63b8ff" stroke="#63b8ff" points="255.77,-131.47 245.17,-131.63 253.55,-138.11 255.77,-131.47"/>
</a>
</g>
</g>
<!-- Node7&#45;&gt;Node2 -->
<g id="edge9_Node000007_Node000002" class="edge">
<title>Node7&#45;&gt;Node2</title>
<g id="a_edge9_Node000007_Node000002"><a xlink:title=" ">
<path fill="none" stroke="#63b8ff" d="M274.46,-55.59C253.07,-46.78 220.93,-33.53 197.23,-23.76"/>
<polygon fill="#63b8ff" stroke="#63b8ff" points="198.66,-20.56 188.09,-19.99 196,-27.04 198.66,-20.56"/>
</a>
</g>
</g>
<!-- Node7&#45;&gt;Node4 -->
<g id="edge8_Node000007_Node000004" class="edge">
<title>Node7&#45;&gt;Node4</title>
<g id="a_edge8_Node000007_Node000004"><a xlink:title=" ">
<path fill="none" stroke="#63b8ff" d="M297.28,-55.59C297.28,-49.01 297.28,-39.96 297.28,-31.73"/>
<polygon fill="#63b8ff" stroke="#63b8ff" points="300.78,-31.81 297.28,-21.81 293.78,-31.81 300.78,-31.81"/>
</a>
</g>
</g>
<!-- Node7&#45;&gt;Node5 -->
<g id="edge10_Node000007_Node000005" class="edge">
<title>Node7&#45;&gt;Node5</title>
<g id="a_edge10_Node000007_Node000005"><a xlink:title=" ">
<path fill="none" stroke="#63b8ff" d="M262.27,-56.08C223.18,-46.13 160.25,-30.1 120.91,-20.07"/>
<polygon fill="#63b8ff" stroke="#63b8ff" points="121.77,-16.68 111.21,-17.61 120.04,-23.47 121.77,-16.68"/>
</a>
</g>
</g>
<!-- Node7&#45;&gt;Node8 -->
<g id="edge11_Node000007_Node000008" class="edge">
<title>Node7&#45;&gt;Node8</title>
<g id="a_edge11_Node000007_Node000008"><a xlink:title=" ">
<path fill="none" stroke="#63b8ff" d="M314.87,-55.59C330.2,-47.4 352.7,-35.37 370.47,-25.87"/>
<polygon fill="#63b8ff" stroke="#63b8ff" points="372.05,-28.99 379.22,-21.19 368.75,-22.82 372.05,-28.99"/>
</a>
</g>
</g>
<!-- Node9&#45;&gt;Node2 -->
<g id="edge14_Node000009_Node000002" class="edge">
<title>Node9&#45;&gt;Node2</title>
<g id="a_edge14_Node000009_Node000002"><a xlink:title=" ">
<path fill="none" stroke="#63b8ff" d="M425.37,-111.58C408.48,-97.46 374.46,-70.89 341.28,-56 283.77,-30.2 262.49,-36.75 197.41,-20.11"/>
<polygon fill="#63b8ff" stroke="#63b8ff" points="198.6,-16.81 188.04,-17.62 196.8,-23.57 198.6,-16.81"/>
</a>
</g>
</g>
<!-- Node9&#45;&gt;Node6 -->
<g id="edge13_Node000009_Node000006" class="edge">
<title>Node9&#45;&gt;Node6</title>
<g id="a_edge13_Node000009_Node000006"><a xlink:title=" ">
<path fill="none" stroke="#63b8ff" d="M454.92,-111.59C471.31,-103.32 495.44,-91.14 514.34,-81.6"/>
<polygon fill="#63b8ff" stroke="#63b8ff" points="515.79,-84.79 523.15,-77.16 512.64,-78.54 515.79,-84.79"/>
</a>
</g>
</g>
<!-- Node9&#45;&gt;Node7 -->
<g id="edge15_Node000009_Node000007" class="edge">
<title>Node9&#45;&gt;Node7</title>
<g id="a_edge15_Node000009_Node000007"><a xlink:title=" ">
<path fill="none" stroke="#63b8ff" d="M412.07,-111.59C389.98,-103.01 357.08,-90.23 332.16,-80.55"/>
<polygon fill="#63b8ff" stroke="#63b8ff" points="333.68,-77.39 323.09,-77.03 331.15,-83.91 333.68,-77.39"/>
</a>
</g>
</g>
<!-- Node9&#45;&gt;Node8 -->
<g id="edge16_Node000009_Node000008" class="edge">
<title>Node9&#45;&gt;Node8</title>
<g id="a_edge16_Node000009_Node000008"><a xlink:title=" ">
<path fill="none" stroke="#63b8ff" d="M441.77,-111.78C448.72,-98.81 458.82,-74.69 450.28,-56 444.9,-44.23 434.76,-34.36 424.85,-26.9"/>
<polygon fill="#63b8ff" stroke="#63b8ff" points="427.04,-24.16 416.83,-21.35 423.06,-29.91 427.04,-24.16"/>
</a>
</g>
</g>
<!-- Node10&#45;&gt;Node2 -->
<g id="edge19_Node000010_Node000002" class="edge">
<title>Node10&#45;&gt;Node2</title>
<g id="a_edge19_Node000010_Node000002"><a xlink:title=" ">
<path fill="none" stroke="#63b8ff" d="M106.26,-111.92C93.39,-99.11 73.99,-75.18 85.28,-56 96.02,-37.74 117.14,-26.36 135.12,-19.61"/>
<polygon fill="#63b8ff" stroke="#63b8ff" points="136.02,-23.01 144.36,-16.48 133.76,-16.38 136.02,-23.01"/>
</a>
</g>
</g>
<!-- Node10&#45;&gt;Node5 -->
<g id="edge18_Node000010_Node000005" class="edge">
<title>Node10&#45;&gt;Node5</title>
<g id="a_edge18_Node000010_Node000005"><a xlink:title=" ">
<path fill="none" stroke="#63b8ff" d="M74.65,-113.85C52.71,-107.74 27.65,-96.51 14.28,-76 0.79,-55.3 26.57,-36.82 50.76,-24.91"/>
<polygon fill="#63b8ff" stroke="#63b8ff" points="51.93,-28.23 59.54,-20.86 48.99,-21.87 51.93,-28.23"/>
</a>
</g>
</g>
<!-- Node10&#45;&gt;Node8 -->
<g id="edge20_Node000010_Node000008" class="edge">
<title>Node10&#45;&gt;Node8</title>
<g id="a_edge20_Node000010_Node000008"><a xlink:title=" ">
<path fill="none" stroke="#63b8ff" d="M158.14,-115.89C214.34,-108.48 310.67,-93.69 341.28,-76 360.71,-64.77 376.88,-44.49 386.98,-29.56"/>
<polygon fill="#63b8ff" stroke="#63b8ff" points="389.68,-31.83 392.15,-21.53 383.79,-28.04 389.68,-31.83"/>
</a>
</g>
</g>
<!-- Node11 -->
<g id="Node000011" class="node">
<title>Node11</title>
<g id="a_Node000011"><a xlink:href="_utils_8h.html" target="_top" xlink:title=" ">
<polygon fill="white" stroke="#666666" points="138.53,-76 94.03,-76 94.03,-56 138.53,-56 138.53,-76"/>
<text text-anchor="middle" x="116.28" y="-62.5" font-family="Helvetica,sans-Serif" font-size="10.00">Utils.h</text>
</a>
</g>
</g>
<!-- Node10&#45;&gt;Node11 -->
<g id="edge21_Node000010_Node000011" class="edge">
<title>Node10&#45;&gt;Node11</title>
<g id="a_edge21_Node000010_Node000011"><a xlink:title=" ">
<path fill="none" stroke="#63b8ff" d="M116.28,-111.59C116.28,-105.01 116.28,-95.96 116.28,-87.73"/>
<polygon fill="#63b8ff" stroke="#63b8ff" points="119.78,-87.81 116.28,-77.81 112.78,-87.81 119.78,-87.81"/>
</a>
</g>
</g>
<!-- Node11&#45;&gt;Node2 -->
<g id="edge23_Node000011_Node000002" class="edge">
<title>Node11&#45;&gt;Node2</title>
<g id="a_edge23_Node000011_Node000002"><a xlink:title=" ">
<path fill="none" stroke="#63b8ff" d="M124.99,-55.59C131.87,-48.16 141.67,-37.58 150,-28.58"/>
<polygon fill="#63b8ff" stroke="#63b8ff" points="152.42,-31.12 156.64,-21.41 147.28,-26.37 152.42,-31.12"/>
</a>
</g>
</g>
<!-- Node11&#45;&gt;Node5 -->
<g id="edge22_Node000011_Node000005" class="edge">
<title>Node11&#45;&gt;Node5</title>
<g id="a_edge22_Node000011_Node000005"><a xlink:title=" ">
<path fill="none" stroke="#63b8ff" d="M110.88,-55.59C106.84,-48.55 101.16,-38.67 96.19,-30"/>
<polygon fill="#63b8ff" stroke="#63b8ff" points="99.39,-28.54 91.37,-21.61 93.31,-32.03 99.39,-28.54"/>
</a>
</g>
</g>
<!-- Node11&#45;&gt;Node8 -->
<g id="edge25_Node000011_Node000008" class="edge">
<title>Node11&#45;&gt;Node8</title>
<g id="a_edge25_Node000011_Node000008"><a xlink:title=" ">
<path fill="none" stroke="#63b8ff" d="M138.88,-60.67C188.65,-51.14 307.86,-28.31 365.7,-17.24"/>
<polygon fill="#63b8ff" stroke="#63b8ff" points="366.09,-20.73 375.25,-15.41 364.77,-13.85 366.09,-20.73"/>
</a>
</g>
</g>
<!-- Node12 -->
<g id="Node000012" class="node">
<title>Node12</title>
<g id="a_Node000012"><a xlink:title=" ">
<polygon fill="#e0e0e0" stroke="#999999" points="256.91,-20 205.66,-20 205.66,0 256.91,0 256.91,-20"/>
<text text-anchor="middle" x="231.28" y="-6.5" font-family="Helvetica,sans-Serif" font-size="10.00">sstream</text>
</a>
</g>
</g>
<!-- Node11&#45;&gt;Node12 -->
<g id="edge24_Node000011_Node000012" class="edge">
<title>Node11&#45;&gt;Node12</title>
<g id="a_edge24_Node000011_Node000012"><a xlink:title=" ">
<path fill="none" stroke="#63b8ff" d="M136.31,-55.59C154.09,-47.24 180.35,-34.92 200.74,-25.34"/>
<polygon fill="#63b8ff" stroke="#63b8ff" points="202.16,-28.54 209.72,-21.12 199.18,-22.21 202.16,-28.54"/>
</a>
</g>
</g>
<!-- Node13&#45;&gt;Node2 -->
<g id="edge27_Node000013_Node000002" class="edge">
<title>Node13&#45;&gt;Node2</title>
<g id="a_edge27_Node000013_Node000002"><a xlink:title=" ">
<path fill="none" stroke="#63b8ff" d="M612.58,-111.73C612.49,-97.31 609.99,-69.74 593.28,-56 527.34,-1.75 300.49,-34.25 197.52,-19.52"/>
<polygon fill="#63b8ff" stroke="#63b8ff" points="198.41,-16.12 187.97,-17.91 197.25,-23.03 198.41,-16.12"/>
</a>
</g>
</g>
<!-- Node13&#45;&gt;Node6 -->
<g id="edge29_Node000013_Node000006" class="edge">
<title>Node13&#45;&gt;Node6</title>
<g id="a_edge29_Node000013_Node000006"><a xlink:title=" ">
<path fill="none" stroke="#63b8ff" d="M600.26,-111.59C590.27,-103.77 575.82,-92.46 563.97,-83.19"/>
<polygon fill="#63b8ff" stroke="#63b8ff" points="566.39,-80.64 556.35,-77.23 562.07,-86.15 566.39,-80.64"/>
</a>
</g>
</g>
<!-- Node13&#45;&gt;Node8 -->
<g id="edge30_Node000013_Node000008" class="edge">
<title>Node13&#45;&gt;Node8</title>
<g id="a_edge30_Node000013_Node000008"><a xlink:title=" ">
<path fill="none" stroke="#63b8ff" d="M629.15,-111.62C649.96,-98.86 680.7,-75.43 664.28,-56 634.74,-21.05 495.32,-13.24 430.97,-11.5"/>
<polygon fill="#63b8ff" stroke="#63b8ff" points="431.1,-8 421.03,-11.26 430.94,-15 431.1,-8"/>
</a>
</g>
</g>
<!-- Node13&#45;&gt;Node12 -->
<g id="edge28_Node000013_Node000012" class="edge">
<title>Node13&#45;&gt;Node12</title>
<g id="a_edge28_Node000013_Node000012"><a xlink:title=" ">
<path fill="none" stroke="#63b8ff" d="M618.65,-111.75C627.35,-97.86 640.38,-71.58 626.28,-56 574.64,1.07 364.11,-30.93 268.49,-19.6"/>
<polygon fill="#63b8ff" stroke="#63b8ff" points="269.04,-16.14 258.64,-18.16 268.03,-23.07 269.04,-16.14"/>
</a>
</g>
</g>
<!-- Node14&#45;&gt;Node2 -->
<g id="edge33_Node000014_Node000002" class="edge">
<title>Node14&#45;&gt;Node2</title>
<g id="a_edge33_Node000014_Node000002"><a xlink:title=" ">
<path fill="none" stroke="#63b8ff" d="M210.61,-111.68C202.98,-103.02 192.05,-89.47 185.28,-76 178.16,-61.83 173.27,-44.55 170.23,-31.36"/>
<polygon fill="#63b8ff" stroke="#63b8ff" points="173.68,-30.76 168.19,-21.7 166.83,-32.21 173.68,-30.76"/>
</a>
</g>
</g>
<!-- Node14&#45;&gt;Node5 -->
<g id="edge32_Node000014_Node000005" class="edge">
<title>Node14&#45;&gt;Node5</title>
<g id="a_edge32_Node000014_Node000005"><a xlink:title=" ">
<path fill="none" stroke="#63b8ff" d="M194.85,-116.32C159.86,-109.06 98.25,-94.03 85.28,-76 76.11,-63.24 76.91,-45.14 79.55,-31.28"/>
<polygon fill="#63b8ff" stroke="#63b8ff" points="82.88,-32.44 81.79,-21.9 76.07,-30.81 82.88,-32.44"/>
</a>
</g>
</g>
<!-- Node14&#45;&gt;Node8 -->
<g id="edge39_Node000014_Node000008" class="edge">
<title>Node14&#45;&gt;Node8</title>
<g id="a_edge39_Node000014_Node000008"><a xlink:title=" ">
<path fill="none" stroke="#63b8ff" d="M243.8,-120.46C277.44,-118.42 337.88,-109.9 374.28,-76 386.67,-64.46 392.69,-45.96 395.6,-31.64"/>
<polygon fill="#63b8ff" stroke="#63b8ff" points="399.03,-32.34 397.2,-21.91 392.13,-31.21 399.03,-32.34"/>
</a>
</g>
</g>
<!-- Node15 -->
<g id="Node000015" class="node">
<title>Node15</title>
<g id="a_Node000015"><a xlink:href="_token_8h.html" target="_top" xlink:title=" ">
<polygon fill="white" stroke="#666666" points="244.53,-76 194.03,-76 194.03,-56 244.53,-56 244.53,-76"/>
<text text-anchor="middle" x="219.28" y="-62.5" font-family="Helvetica,sans-Serif" font-size="10.00">Token.h</text>
</a>
</g>
</g>
<!-- Node14&#45;&gt;Node15 -->
<g id="edge34_Node000014_Node000015" class="edge">
<title>Node14&#45;&gt;Node15</title>
<g id="a_edge34_Node000014_Node000015"><a xlink:title=" ">
<path fill="none" stroke="#63b8ff" d="M219.28,-111.59C219.28,-105.01 219.28,-95.96 219.28,-87.73"/>
<polygon fill="#63b8ff" stroke="#63b8ff" points="222.78,-87.81 219.28,-77.81 215.78,-87.81 222.78,-87.81"/>
</a>
</g>
</g>
<!-- Node15&#45;&gt;Node2 -->
<g id="edge36_Node000015_Node000002" class="edge">
<title>Node15&#45;&gt;Node2</title>
<g id="a_edge36_Node000015_Node000002"><a xlink:title=" ">
<path fill="none" stroke="#63b8ff" d="M210.05,-55.59C202.68,-48.08 192.15,-37.35 183.26,-28.3"/>
<polygon fill="#63b8ff" stroke="#63b8ff" points="185.97,-26.06 176.47,-21.38 180.97,-30.97 185.97,-26.06"/>
</a>
</g>
</g>
<!-- Node15&#45;&gt;Node4 -->
<g id="edge37_Node000015_Node000004" class="edge">
<title>Node15&#45;&gt;Node4</title>
<g id="a_edge37_Node000015_Node000004"><a xlink:title=" ">
<path fill="none" stroke="#63b8ff" d="M232.87,-55.59C244.32,-47.67 260.94,-36.16 274.44,-26.82"/>
<polygon fill="#63b8ff" stroke="#63b8ff" points="276.11,-29.91 282.34,-21.34 272.13,-24.16 276.11,-29.91"/>
</a>
</g>
</g>
<!-- Node15&#45;&gt;Node5 -->
<g id="edge35_Node000015_Node000005" class="edge">
<title>Node15&#45;&gt;Node5</title>
<g id="a_edge35_Node000015_Node000005"><a xlink:title=" ">
<path fill="none" stroke="#63b8ff" d="M195.94,-55.59C174.74,-47.05 143.21,-34.35 119.23,-24.68"/>
<polygon fill="#63b8ff" stroke="#63b8ff" points="120.79,-21.54 110.21,-21.05 118.17,-28.03 120.79,-21.54"/>
</a>
</g>
</g>
<!-- Node15&#45;&gt;Node8 -->
<g id="edge38_Node000015_Node000008" class="edge">
<title>Node15&#45;&gt;Node8</title>
<g id="a_edge38_Node000015_Node000008"><a xlink:title=" ">
<path fill="none" stroke="#63b8ff" d="M244.93,-57.26C276.8,-47.65 331.22,-31.23 365.93,-20.76"/>
<polygon fill="#63b8ff" stroke="#63b8ff" points="366.87,-24.13 375.44,-17.89 364.85,-17.43 366.87,-24.13"/>
</a>
</g>
</g>
</g>
</svg>
