<?xml version="1.0" encoding="UTF-8" standalone="no"?>
<!DOCTYPE svg PUBLIC "-//W3C//DTD SVG 1.1//EN"
 "http://www.w3.org/Graphics/SVG/1.1/DTD/svg11.dtd">
<!-- Generated by graphviz version 12.2.1 (20241206.2353)
 -->
<!-- Title: C:/Users/emilly/Documents/Lucca/Projetos/Cpp/NikiScript/src/NikiScript.cpp Pages: 1 -->
<svg width="729pt" height="332pt"
 viewBox="0.00 0.00 728.71 332.00" xmlns="http://www.w3.org/2000/svg" xmlns:xlink="http://www.w3.org/1999/xlink">
<g id="graph0" class="graph" transform="scale(1 1) rotate(0) translate(4 328)">
<title>C:/Users/emilly/Documents/Lucca/Projetos/Cpp/NikiScript/src/NikiScript.cpp</title>
<!-- Node1 -->
<g id="Node000001" class="node">
<title>Node1</title>
<g id="a_Node000001"><a xlink:title=" ">
<polygon fill="#999999" stroke="#666666" points="365.5,-324 214.5,-324 214.5,-280 365.5,-280 365.5,-324"/>
<text text-anchor="start" x="222.5" y="-310.5" font-family="Helvetica,sans-Serif" font-size="10.00">C:/Users/emilly/Documents</text>
<text text-anchor="start" x="222.5" y="-298.5" font-family="Helvetica,sans-Serif" font-size="10.00">/Lucca/Projetos/Cpp/NikiScript</text>
<text text-anchor="middle" x="290" y="-286.5" font-family="Helvetica,sans-Serif" font-size="10.00">/src/NikiScript.cpp</text>
</a>
</g>
</g>
<!-- Node2 -->
<g id="Node000002" class="node">
<title>Node2</title>
<g id="a_Node000002"><a xlink:href="_niki_script_8h.html" target="_top" xlink:title=" ">
<polygon fill="white" stroke="#666666" points="323.5,-244 256.5,-244 256.5,-224 323.5,-224 323.5,-244"/>
<text text-anchor="middle" x="290" y="-230.5" font-family="Helvetica,sans-Serif" font-size="10.00">NikiScript.h</text>
</a>
</g>
</g>
<!-- Node1&#45;&gt;Node2 -->
<g id="edge1_Node000001_Node000002" class="edge">
<title>Node1&#45;&gt;Node2</title>
<g id="a_edge1_Node000001_Node000002"><a xlink:title=" ">
<path fill="none" stroke="#63b8ff" d="M290,-279.75C290,-272.13 290,-263.53 290,-255.93"/>
<polygon fill="#63b8ff" stroke="#63b8ff" points="293.5,-255.93 290,-245.93 286.5,-255.93 293.5,-255.93"/>
</a>
</g>
</g>
<!-- Node11 -->
<g id="Node000011" class="node">
<title>Node11</title>
<g id="a_Node000011"><a xlink:href="_utils_8h.html" target="_top" xlink:title=" ">
<polygon fill="white" stroke="#666666" points="287.25,-76 242.75,-76 242.75,-56 287.25,-56 287.25,-76"/>
<text text-anchor="middle" x="265" y="-62.5" font-family="Helvetica,sans-Serif" font-size="10.00">Utils.h</text>
</a>
</g>
</g>
<!-- Node1&#45;&gt;Node11 -->
<g id="edge35_Node000001_Node000011" class="edge">
<title>Node1&#45;&gt;Node11</title>
<g id="a_edge35_Node000001_Node000011"><a xlink:title=" ">
<path fill="none" stroke="#63b8ff" d="M269.16,-279.6C260.87,-269.62 252.3,-257.08 248,-244 229.97,-189.15 247.36,-119.97 258.04,-86.67"/>
<polygon fill="#63b8ff" stroke="#63b8ff" points="261.23,-88.15 261.11,-77.56 254.6,-85.92 261.23,-88.15"/>
</a>
</g>
</g>
<!-- Node12 -->
<g id="Node000012" class="node">
<title>Node12</title>
<g id="a_Node000012"><a xlink:title=" ">
<polygon fill="#e0e0e0" stroke="#999999" points="101.62,-20 50.38,-20 50.38,0 101.62,0 101.62,-20"/>
<text text-anchor="middle" x="76" y="-6.5" font-family="Helvetica,sans-Serif" font-size="10.00">sstream</text>
</a>
</g>
</g>
<!-- Node1&#45;&gt;Node12 -->
<g id="edge34_Node000001_Node000012" class="edge">
<title>Node1&#45;&gt;Node12</title>
<g id="a_edge34_Node000001_Node000012"><a xlink:title=" ">
<path fill="none" stroke="#63b8ff" d="M214.18,-300.41C128.26,-295.26 0,-271.99 0,-179 0,-179 0,-179 0,-121 0,-82.24 32.34,-47.24 54.83,-27.59"/>
<polygon fill="#63b8ff" stroke="#63b8ff" points="56.87,-30.44 62.29,-21.34 52.37,-25.08 56.87,-30.44"/>
</a>
</g>
</g>
<!-- Node14 -->
<g id="Node000014" class="node">
<title>Node14</title>
<g id="a_Node000014"><a xlink:href="_lexer_8h.html" target="_top" xlink:title=" ">
<polygon fill="white" stroke="#666666" points="640.12,-132 591.88,-132 591.88,-112 640.12,-112 640.12,-132"/>
<text text-anchor="middle" x="616" y="-118.5" font-family="Helvetica,sans-Serif" font-size="10.00">Lexer.h</text>
</a>
</g>
</g>
<!-- Node1&#45;&gt;Node14 -->
<g id="edge38_Node000001_Node000014" class="edge">
<title>Node1&#45;&gt;Node14</title>
<g id="a_edge38_Node000001_Node000014"><a xlink:title=" ">
<path fill="none" stroke="#63b8ff" d="M333.72,-279.57C354.79,-269.09 380.34,-256.14 403,-244 471.48,-207.31 550.69,-161.37 590.44,-138.06"/>
<polygon fill="#63b8ff" stroke="#63b8ff" points="591.96,-141.23 598.81,-133.15 588.42,-135.19 591.96,-141.23"/>
</a>
</g>
</g>
<!-- Node16 -->
<g id="Node000016" class="node">
<title>Node16</title>
<g id="a_Node000016"><a xlink:href="_parser_8h.html" target="_top" xlink:title=" ">
<polygon fill="white" stroke="#666666" points="394.38,-244 341.62,-244 341.62,-224 394.38,-224 394.38,-244"/>
<text text-anchor="middle" x="368" y="-230.5" font-family="Helvetica,sans-Serif" font-size="10.00">Parser.h</text>
</a>
</g>
</g>
<!-- Node1&#45;&gt;Node16 -->
<g id="edge36_Node000001_Node000016" class="edge">
<title>Node1&#45;&gt;Node16</title>
<g id="a_edge36_Node000001_Node000016"><a xlink:title=" ">
<path fill="none" stroke="#63b8ff" d="M315.11,-279.75C325.88,-270.64 338.29,-260.14 348.37,-251.61"/>
<polygon fill="#63b8ff" stroke="#63b8ff" points="350.34,-254.53 355.71,-245.4 345.82,-249.18 350.34,-254.53"/>
</a>
</g>
</g>
<!-- Node3 -->
<g id="Node000003" class="node">
<title>Node3</title>
<g id="a_Node000003"><a xlink:title=" ">
<polygon fill="#e0e0e0" stroke="#999999" points="373,-20 333,-20 333,0 373,0 373,-20"/>
<text text-anchor="middle" x="353" y="-6.5" font-family="Helvetica,sans-Serif" font-size="10.00">string</text>
</a>
</g>
</g>
<!-- Node2&#45;&gt;Node3 -->
<g id="edge2_Node000002_Node000003" class="edge">
<title>Node2&#45;&gt;Node3</title>
<g id="a_edge2_Node000002_Node000003"><a xlink:title=" ">
<path fill="none" stroke="#63b8ff" d="M256.26,-230.19C183.47,-222.5 21.02,-195.76 57,-112 71.27,-78.78 83.82,-72.49 116,-56 183.55,-21.39 274.23,-13.23 321.44,-11.42"/>
<polygon fill="#63b8ff" stroke="#63b8ff" points="321.34,-14.92 331.22,-11.12 321.12,-7.92 321.34,-14.92"/>
</a>
</g>
</g>
<!-- Node4 -->
<g id="Node000004" class="node">
<title>Node4</title>
<g id="a_Node000004"><a xlink:href="_context_8h.html" target="_top" xlink:title=" ">
<polygon fill="white" stroke="#666666" points="397.38,-188 338.62,-188 338.62,-168 397.38,-168 397.38,-188"/>
<text text-anchor="middle" x="368" y="-174.5" font-family="Helvetica,sans-Serif" font-size="10.00">Context.h</text>
</a>
</g>
</g>
<!-- Node2&#45;&gt;Node4 -->
<g id="edge3_Node000002_Node000004" class="edge">
<title>Node2&#45;&gt;Node4</title>
<g id="a_edge3_Node000002_Node000004"><a xlink:title=" ">
<path fill="none" stroke="#63b8ff" d="M303.59,-223.59C315.04,-215.67 331.66,-204.16 345.16,-194.82"/>
<polygon fill="#63b8ff" stroke="#63b8ff" points="346.83,-197.91 353.06,-189.34 342.85,-192.16 346.83,-197.91"/>
</a>
</g>
</g>
<!-- Node4&#45;&gt;Node3 -->
<g id="edge6_Node000004_Node000003" class="edge">
<title>Node4&#45;&gt;Node3</title>
<g id="a_edge6_Node000004_Node000003"><a xlink:title=" ">
<path fill="none" stroke="#63b8ff" d="M338.32,-169.38C319.45,-162.83 296.49,-151.3 285,-132 280.45,-124.36 282.4,-120.5 285,-112 294.98,-79.31 319.48,-47.63 336.17,-28.72"/>
<polygon fill="#63b8ff" stroke="#63b8ff" points="338.69,-31.15 342.84,-21.4 333.52,-26.43 338.69,-31.15"/>
</a>
</g>
</g>
<!-- Node5 -->
<g id="Node000005" class="node">
<title>Node5</title>
<g id="a_Node000005"><a xlink:title=" ">
<polygon fill="#e0e0e0" stroke="#999999" points="705.5,-20 662.5,-20 662.5,0 705.5,0 705.5,-20"/>
<text text-anchor="middle" x="684" y="-6.5" font-family="Helvetica,sans-Serif" font-size="10.00">vector</text>
</a>
</g>
</g>
<!-- Node4&#45;&gt;Node5 -->
<g id="edge4_Node000004_Node000005" class="edge">
<title>Node4&#45;&gt;Node5</title>
<g id="a_edge4_Node000004_Node000005"><a xlink:title=" ">
<path fill="none" stroke="#63b8ff" d="M397.73,-177.2C450.62,-176.5 563.52,-170.2 649,-132 685.06,-115.89 701.02,-111.66 718,-76 725.83,-59.56 714.3,-41.2 702.6,-28.2"/>
<polygon fill="#63b8ff" stroke="#63b8ff" points="705.27,-25.92 695.77,-21.23 700.27,-30.82 705.27,-25.92"/>
</a>
</g>
</g>
<!-- Node6 -->
<g id="Node000006" class="node">
<title>Node6</title>
<g id="a_Node000006"><a xlink:title=" ">
<polygon fill="#e0e0e0" stroke="#999999" points="547.12,-20 498.88,-20 498.88,0 547.12,0 547.12,-20"/>
<text text-anchor="middle" x="523" y="-6.5" font-family="Helvetica,sans-Serif" font-size="10.00">stdint.h</text>
</a>
</g>
</g>
<!-- Node4&#45;&gt;Node6 -->
<g id="edge5_Node000004_Node000006" class="edge">
<title>Node4&#45;&gt;Node6</title>
<g id="a_edge5_Node000004_Node000006"><a xlink:title=" ">
<path fill="none" stroke="#63b8ff" d="M397.61,-177.06C432.91,-175.44 491.22,-167.15 524,-132 549.22,-104.95 539.28,-57.89 530.61,-31.12"/>
<polygon fill="#63b8ff" stroke="#63b8ff" points="533.97,-30.11 527.35,-21.83 527.36,-32.42 533.97,-30.11"/>
</a>
</g>
</g>
<!-- Node7 -->
<g id="Node000007" class="node">
<title>Node7</title>
<g id="a_Node000007"><a xlink:title=" ">
<polygon fill="#e0e0e0" stroke="#999999" points="224.38,-76 141.62,-76 141.62,-56 224.38,-56 224.38,-76"/>
<text text-anchor="middle" x="183" y="-62.5" font-family="Helvetica,sans-Serif" font-size="10.00">unordered_map</text>
</a>
</g>
</g>
<!-- Node4&#45;&gt;Node7 -->
<g id="edge7_Node000004_Node000007" class="edge">
<title>Node4&#45;&gt;Node7</title>
<g id="a_edge7_Node000004_Node000007"><a xlink:title=" ">
<path fill="none" stroke="#63b8ff" d="M338.41,-168.99C314.05,-161.6 279.22,-149.17 252,-132 231.22,-118.89 211.21,-98.96 198.14,-84.63"/>
<polygon fill="#63b8ff" stroke="#63b8ff" points="200.87,-82.44 191.62,-77.28 195.64,-87.08 200.87,-82.44"/>
</a>
</g>
</g>
<!-- Node8 -->
<g id="Node000008" class="node">
<title>Node8</title>
<g id="a_Node000008"><a xlink:href="_command_8h.html" target="_top" xlink:title=" ">
<polygon fill="white" stroke="#666666" points="526.62,-76 457.38,-76 457.38,-56 526.62,-56 526.62,-76"/>
<text text-anchor="middle" x="492" y="-62.5" font-family="Helvetica,sans-Serif" font-size="10.00">Command.h</text>
</a>
</g>
</g>
<!-- Node4&#45;&gt;Node8 -->
<g id="edge8_Node000004_Node000008" class="edge">
<title>Node4&#45;&gt;Node8</title>
<g id="a_edge8_Node000004_Node000008"><a xlink:title=" ">
<path fill="none" stroke="#63b8ff" d="M397.68,-176.89C430.52,-174.97 482.08,-166.26 507,-132 516.68,-118.7 511,-100.15 504.02,-86.27"/>
<polygon fill="#63b8ff" stroke="#63b8ff" points="507.12,-84.64 499.17,-77.65 501.03,-88.08 507.12,-84.64"/>
</a>
</g>
</g>
<!-- Node9 -->
<g id="Node000009" class="node">
<title>Node9</title>
<g id="a_Node000009"><a xlink:href="_command_handler_8h.html" target="_top" xlink:title=" ">
<polygon fill="white" stroke="#666666" points="497.5,-132 394.5,-132 394.5,-112 497.5,-112 497.5,-132"/>
<text text-anchor="middle" x="446" y="-118.5" font-family="Helvetica,sans-Serif" font-size="10.00">CommandHandler.h</text>
</a>
</g>
</g>
<!-- Node4&#45;&gt;Node9 -->
<g id="edge12_Node000004_Node000009" class="edge">
<title>Node4&#45;&gt;Node9</title>
<g id="a_edge12_Node000004_Node000009"><a xlink:title=" ">
<path fill="none" stroke="#63b8ff" d="M381.59,-167.59C393.04,-159.67 409.66,-148.16 423.16,-138.82"/>
<polygon fill="#63b8ff" stroke="#63b8ff" points="424.83,-141.91 431.06,-133.34 420.85,-136.16 424.83,-141.91"/>
</a>
</g>
</g>
<!-- Node10 -->
<g id="Node000010" class="node">
<title>Node10</title>
<g id="a_Node000010"><a xlink:href="_print_callback_8h.html" target="_top" xlink:title=" ">
<polygon fill="white" stroke="#666666" points="376.38,-132 293.62,-132 293.62,-112 376.38,-112 376.38,-132"/>
<text text-anchor="middle" x="335" y="-118.5" font-family="Helvetica,sans-Serif" font-size="10.00">PrintCallback.h</text>
</a>
</g>
</g>
<!-- Node4&#45;&gt;Node10 -->
<g id="edge16_Node000004_Node000010" class="edge">
<title>Node4&#45;&gt;Node10</title>
<g id="a_edge16_Node000004_Node000010"><a xlink:title=" ">
<path fill="none" stroke="#63b8ff" d="M362.25,-167.59C357.95,-160.55 351.91,-150.67 346.61,-142"/>
<polygon fill="#63b8ff" stroke="#63b8ff" points="349.67,-140.3 341.47,-133.59 343.7,-143.95 349.67,-140.3"/>
</a>
</g>
</g>
<!-- Node13 -->
<g id="Node000013" class="node">
<title>Node13</title>
<g id="a_Node000013"><a xlink:href="_program_variable_8h.html" target="_top" xlink:title=" ">
<polygon fill="white" stroke="#666666" points="161.75,-132 66.25,-132 66.25,-112 161.75,-112 161.75,-132"/>
<text text-anchor="middle" x="114" y="-118.5" font-family="Helvetica,sans-Serif" font-size="10.00">ProgramVariable.h</text>
</a>
</g>
</g>
<!-- Node4&#45;&gt;Node13 -->
<g id="edge23_Node000004_Node000013" class="edge">
<title>Node4&#45;&gt;Node13</title>
<g id="a_edge23_Node000004_Node000013"><a xlink:title=" ">
<path fill="none" stroke="#63b8ff" d="M338.37,-170.7C297.04,-161.91 221.32,-145.82 169.37,-134.77"/>
<polygon fill="#63b8ff" stroke="#63b8ff" points="170.33,-131.4 159.82,-132.74 168.88,-138.24 170.33,-131.4"/>
</a>
</g>
</g>
<!-- Node4&#45;&gt;Node14 -->
<g id="edge27_Node000004_Node000014" class="edge">
<title>Node4&#45;&gt;Node14</title>
<g id="a_edge27_Node000004_Node000014"><a xlink:title=" ">
<path fill="none" stroke="#63b8ff" d="M397.6,-170.87C438.3,-162.38 513.8,-146.48 578,-132 578.82,-131.82 579.65,-131.63 580.48,-131.44"/>
<polygon fill="#63b8ff" stroke="#63b8ff" points="581.06,-134.9 590.01,-129.23 579.48,-128.08 581.06,-134.9"/>
</a>
</g>
</g>
<!-- Node8&#45;&gt;Node3 -->
<g id="edge10_Node000008_Node000003" class="edge">
<title>Node8&#45;&gt;Node3</title>
<g id="a_edge10_Node000008_Node000003"><a xlink:title=" ">
<path fill="none" stroke="#63b8ff" d="M467.79,-55.59C444.48,-46.54 409.14,-32.81 383.83,-22.98"/>
<polygon fill="#63b8ff" stroke="#63b8ff" points="385.32,-19.8 374.73,-19.44 382.79,-26.33 385.32,-19.8"/>
</a>
</g>
</g>
<!-- Node8&#45;&gt;Node5 -->
<g id="edge9_Node000008_Node000005" class="edge">
<title>Node8&#45;&gt;Node5</title>
<g id="a_edge9_Node000008_Node000005"><a xlink:title=" ">
<path fill="none" stroke="#63b8ff" d="M525.44,-55.59C560.77,-45.66 616.12,-30.09 651.2,-20.22"/>
<polygon fill="#63b8ff" stroke="#63b8ff" points="652.13,-23.6 660.81,-17.52 650.24,-16.86 652.13,-23.6"/>
</a>
</g>
</g>
<!-- Node8&#45;&gt;Node6 -->
<g id="edge11_Node000008_Node000006" class="edge">
<title>Node8&#45;&gt;Node6</title>
<g id="a_edge11_Node000008_Node000006"><a xlink:title=" ">
<path fill="none" stroke="#63b8ff" d="M497.4,-55.59C501.44,-48.55 507.12,-38.67 512.09,-30"/>
<polygon fill="#63b8ff" stroke="#63b8ff" points="514.97,-32.03 516.91,-21.61 508.89,-28.54 514.97,-32.03"/>
</a>
</g>
</g>
<!-- Node9&#45;&gt;Node3 -->
<g id="edge14_Node000009_Node000003" class="edge">
<title>Node9&#45;&gt;Node3</title>
<g id="a_edge14_Node000009_Node000003"><a xlink:title=" ">
<path fill="none" stroke="#63b8ff" d="M438.07,-111.62C422.63,-93.36 388.28,-52.73 368.28,-29.07"/>
<polygon fill="#63b8ff" stroke="#63b8ff" points="371.02,-26.89 361.89,-21.51 365.67,-31.41 371.02,-26.89"/>
</a>
</g>
</g>
<!-- Node9&#45;&gt;Node7 -->
<g id="edge13_Node000009_Node000007" class="edge">
<title>Node9&#45;&gt;Node7</title>
<g id="a_edge13_Node000009_Node000007"><a xlink:title=" ">
<path fill="none" stroke="#63b8ff" d="M399.89,-111.53C354.06,-102.12 283.86,-87.71 235.82,-77.85"/>
<polygon fill="#63b8ff" stroke="#63b8ff" points="236.7,-74.45 226.2,-75.87 235.29,-81.31 236.7,-74.45"/>
</a>
</g>
</g>
<!-- Node9&#45;&gt;Node8 -->
<g id="edge15_Node000009_Node000008" class="edge">
<title>Node9&#45;&gt;Node8</title>
<g id="a_edge15_Node000009_Node000008"><a xlink:title=" ">
<path fill="none" stroke="#63b8ff" d="M454.01,-111.59C460.28,-104.24 469.17,-93.8 476.78,-84.87"/>
<polygon fill="#63b8ff" stroke="#63b8ff" points="479.28,-87.33 483.1,-77.45 473.95,-82.79 479.28,-87.33"/>
</a>
</g>
</g>
<!-- Node10&#45;&gt;Node3 -->
<g id="edge18_Node000010_Node000003" class="edge">
<title>Node10&#45;&gt;Node3</title>
<g id="a_edge18_Node000010_Node000003"><a xlink:title=" ">
<path fill="none" stroke="#63b8ff" d="M336.53,-111.62C339.42,-94.01 345.7,-55.59 349.62,-31.65"/>
<polygon fill="#63b8ff" stroke="#63b8ff" points="353.06,-32.28 351.22,-21.85 346.16,-31.15 353.06,-32.28"/>
</a>
</g>
</g>
<!-- Node10&#45;&gt;Node6 -->
<g id="edge17_Node000010_Node000006" class="edge">
<title>Node10&#45;&gt;Node6</title>
<g id="a_edge17_Node000010_Node000006"><a xlink:title=" ">
<path fill="none" stroke="#63b8ff" d="M351.03,-111.62C383.56,-92.58 457.61,-49.26 497.08,-26.16"/>
<polygon fill="#63b8ff" stroke="#63b8ff" points="498.84,-29.19 505.71,-21.12 495.31,-23.15 498.84,-29.19"/>
</a>
</g>
</g>
<!-- Node10&#45;&gt;Node11 -->
<g id="edge19_Node000010_Node000011" class="edge">
<title>Node10&#45;&gt;Node11</title>
<g id="a_edge19_Node000010_Node000011"><a xlink:title=" ">
<path fill="none" stroke="#63b8ff" d="M322.81,-111.59C312.67,-103.77 298.01,-92.46 285.99,-83.19"/>
<polygon fill="#63b8ff" stroke="#63b8ff" points="288.31,-80.56 278.25,-77.22 284.03,-86.1 288.31,-80.56"/>
</a>
</g>
</g>
<!-- Node11&#45;&gt;Node3 -->
<g id="edge21_Node000011_Node000003" class="edge">
<title>Node11&#45;&gt;Node3</title>
<g id="a_edge21_Node000011_Node000003"><a xlink:title=" ">
<path fill="none" stroke="#63b8ff" d="M280.33,-55.59C293.5,-47.51 312.73,-35.71 328.11,-26.27"/>
<polygon fill="#63b8ff" stroke="#63b8ff" points="329.57,-29.48 336.26,-21.27 325.91,-23.52 329.57,-29.48"/>
</a>
</g>
</g>
<!-- Node11&#45;&gt;Node6 -->
<g id="edge20_Node000011_Node000006" class="edge">
<title>Node11&#45;&gt;Node6</title>
<g id="a_edge20_Node000011_Node000006"><a xlink:title=" ">
<path fill="none" stroke="#63b8ff" d="M287.44,-60.3C332.33,-50.91 433.48,-29.74 487.47,-18.44"/>
<polygon fill="#63b8ff" stroke="#63b8ff" points="488,-21.9 497.07,-16.43 486.56,-15.05 488,-21.9"/>
</a>
</g>
</g>
<!-- Node11&#45;&gt;Node12 -->
<g id="edge22_Node000011_Node000012" class="edge">
<title>Node11&#45;&gt;Node12</title>
<g id="a_edge22_Node000011_Node000012"><a xlink:title=" ">
<path fill="none" stroke="#63b8ff" d="M242.58,-58.59C210.54,-49.44 151.29,-32.51 112.77,-21.51"/>
<polygon fill="#63b8ff" stroke="#63b8ff" points="114.05,-18.23 103.47,-18.85 112.13,-24.96 114.05,-18.23"/>
</a>
</g>
</g>
<!-- Node13&#45;&gt;Node3 -->
<g id="edge24_Node000013_Node000003" class="edge">
<title>Node13&#45;&gt;Node3</title>
<g id="a_edge24_Node000013_Node000003"><a xlink:title=" ">
<path fill="none" stroke="#63b8ff" d="M113.89,-111.94C114.23,-97.82 117.08,-70.65 133,-56 160.13,-31.02 267.32,-18.39 321.41,-13.49"/>
<polygon fill="#63b8ff" stroke="#63b8ff" points="321.55,-16.99 331.21,-12.64 320.95,-10.02 321.55,-16.99"/>
</a>
</g>
</g>
<!-- Node13&#45;&gt;Node7 -->
<g id="edge26_Node000013_Node000007" class="edge">
<title>Node13&#45;&gt;Node7</title>
<g id="a_edge26_Node000013_Node000007"><a xlink:title=" ">
<path fill="none" stroke="#63b8ff" d="M126.02,-111.59C136.01,-103.77 150.46,-92.46 162.31,-83.19"/>
<polygon fill="#63b8ff" stroke="#63b8ff" points="164.21,-86.15 169.93,-77.23 159.89,-80.64 164.21,-86.15"/>
</a>
</g>
</g>
<!-- Node13&#45;&gt;Node12 -->
<g id="edge25_Node000013_Node000012" class="edge">
<title>Node13&#45;&gt;Node12</title>
<g id="a_edge25_Node000013_Node000012"><a xlink:title=" ">
<path fill="none" stroke="#63b8ff" d="M110.76,-111.62C104.62,-93.84 91.16,-54.88 82.91,-31"/>
<polygon fill="#63b8ff" stroke="#63b8ff" points="86.3,-30.09 79.73,-21.79 79.68,-32.38 86.3,-30.09"/>
</a>
</g>
</g>
<!-- Node14&#45;&gt;Node3 -->
<g id="edge29_Node000014_Node000003" class="edge">
<title>Node14&#45;&gt;Node3</title>
<g id="a_edge29_Node000014_Node000003"><a xlink:title=" ">
<path fill="none" stroke="#63b8ff" d="M607.57,-111.95C593.91,-97.83 565.48,-70.67 536,-56 486.44,-31.34 422.46,-19.62 384.76,-14.51"/>
<polygon fill="#63b8ff" stroke="#63b8ff" points="385.36,-11.06 375,-13.26 384.48,-18 385.36,-11.06"/>
</a>
</g>
</g>
<!-- Node14&#45;&gt;Node6 -->
<g id="edge28_Node000014_Node000006" class="edge">
<title>Node14&#45;&gt;Node6</title>
<g id="a_edge28_Node000014_Node000006"><a xlink:title=" ">
<path fill="none" stroke="#63b8ff" d="M617.19,-111.66C618.41,-98.13 618.72,-72.83 607,-56 595.33,-39.25 575.4,-28.19 557.88,-21.23"/>
<polygon fill="#63b8ff" stroke="#63b8ff" points="559.39,-18.06 548.8,-17.93 557,-24.63 559.39,-18.06"/>
</a>
</g>
</g>
<!-- Node15 -->
<g id="Node000015" class="node">
<title>Node15</title>
<g id="a_Node000015"><a xlink:href="_token_8h.html" target="_top" xlink:title=" ">
<polygon fill="white" stroke="#666666" points="709.25,-76 658.75,-76 658.75,-56 709.25,-56 709.25,-76"/>
<text text-anchor="middle" x="684" y="-62.5" font-family="Helvetica,sans-Serif" font-size="10.00">Token.h</text>
</a>
</g>
</g>
<!-- Node14&#45;&gt;Node15 -->
<g id="edge30_Node000014_Node000015" class="edge">
<title>Node14&#45;&gt;Node15</title>
<g id="a_edge30_Node000014_Node000015"><a xlink:title=" ">
<path fill="none" stroke="#63b8ff" d="M627.84,-111.59C637.69,-103.77 651.93,-92.46 663.61,-83.19"/>
<polygon fill="#63b8ff" stroke="#63b8ff" points="665.45,-86.2 671.11,-77.24 661.1,-80.72 665.45,-86.2"/>
</a>
</g>
</g>
<!-- Node15&#45;&gt;Node3 -->
<g id="edge32_Node000015_Node000003" class="edge">
<title>Node15&#45;&gt;Node3</title>
<g id="a_edge32_Node000015_Node000003"><a xlink:title=" ">
<path fill="none" stroke="#63b8ff" d="M658.3,-60.81C598.39,-51.03 449.58,-26.76 384.42,-16.13"/>
<polygon fill="#63b8ff" stroke="#63b8ff" points="385.19,-12.7 374.75,-14.55 384.06,-19.61 385.19,-12.7"/>
</a>
</g>
</g>
<!-- Node15&#45;&gt;Node5 -->
<g id="edge33_Node000015_Node000005" class="edge">
<title>Node15&#45;&gt;Node5</title>
<g id="a_edge33_Node000015_Node000005"><a xlink:title=" ">
<path fill="none" stroke="#63b8ff" d="M684,-55.59C684,-49.01 684,-39.96 684,-31.73"/>
<polygon fill="#63b8ff" stroke="#63b8ff" points="687.5,-31.81 684,-21.81 680.5,-31.81 687.5,-31.81"/>
</a>
</g>
</g>
<!-- Node15&#45;&gt;Node6 -->
<g id="edge31_Node000015_Node000006" class="edge">
<title>Node15&#45;&gt;Node6</title>
<g id="a_edge31_Node000015_Node000006"><a xlink:title=" ">
<path fill="none" stroke="#63b8ff" d="M658.49,-56.44C631.4,-47.36 588.41,-32.94 558.13,-22.78"/>
<polygon fill="#63b8ff" stroke="#63b8ff" points="559.63,-19.59 549.03,-19.73 557.4,-26.23 559.63,-19.59"/>
</a>
</g>
</g>
<!-- Node16&#45;&gt;Node4 -->
<g id="edge37_Node000016_Node000004" class="edge">
<title>Node16&#45;&gt;Node4</title>
<g id="a_edge37_Node000016_Node000004"><a xlink:title=" ">
<path fill="none" stroke="#63b8ff" d="M368,-223.59C368,-217.01 368,-207.96 368,-199.73"/>
<polygon fill="#63b8ff" stroke="#63b8ff" points="371.5,-199.81 368,-189.81 364.5,-199.81 371.5,-199.81"/>
</a>
</g>
</g>
</g>
</svg>
