<?xml version="1.0" encoding="UTF-8" standalone="no"?>
<!DOCTYPE svg PUBLIC "-//W3C//DTD SVG 1.1//EN"
 "http://www.w3.org/Graphics/SVG/1.1/DTD/svg11.dtd">
<!-- Generated by graphviz version 12.2.1 (20241206.2353)
 -->
<!-- Title: C:/Users/emilly/Documents/Lucca/Projetos/Cpp/NikiScript/src/NikiScript.cpp Pages: 1 -->
<svg width="1014pt" height="332pt"
 viewBox="0.00 0.00 1014.33 332.00" xmlns="http://www.w3.org/2000/svg" xmlns:xlink="http://www.w3.org/1999/xlink">
<g id="graph0" class="graph" transform="scale(1 1) rotate(0) translate(4 328)">
<title>C:/Users/emilly/Documents/Lucca/Projetos/Cpp/NikiScript/src/NikiScript.cpp</title>
<!-- Node1 -->
<g id="Node000001" class="node">
<title>Node1</title>
<g id="a_Node000001"><a xlink:title=" ">
<polygon fill="#999999" stroke="#666666" points="541.5,-324 390.5,-324 390.5,-280 541.5,-280 541.5,-324"/>
<text text-anchor="start" x="398.5" y="-310.5" font-family="Helvetica,sans-Serif" font-size="10.00">C:/Users/emilly/Documents</text>
<text text-anchor="start" x="398.5" y="-298.5" font-family="Helvetica,sans-Serif" font-size="10.00">/Lucca/Projetos/Cpp/NikiScript</text>
<text text-anchor="middle" x="466" y="-286.5" font-family="Helvetica,sans-Serif" font-size="10.00">/src/NikiScript.cpp</text>
</a>
</g>
</g>
<!-- Node2 -->
<g id="Node000002" class="node">
<title>Node2</title>
<g id="a_Node000002"><a xlink:href="_niki_script_8h.html" target="_top" xlink:title=" ">
<polygon fill="white" stroke="#666666" points="499.5,-244 432.5,-244 432.5,-224 499.5,-224 499.5,-244"/>
<text text-anchor="middle" x="466" y="-230.5" font-family="Helvetica,sans-Serif" font-size="10.00">NikiScript.h</text>
</a>
</g>
</g>
<!-- Node1&#45;&gt;Node2 -->
<g id="edge1_Node000001_Node000002" class="edge">
<title>Node1&#45;&gt;Node2</title>
<g id="a_edge1_Node000001_Node000002"><a xlink:title=" ">
<path fill="none" stroke="#63b8ff" d="M466,-279.75C466,-272.13 466,-263.53 466,-255.93"/>
<polygon fill="#63b8ff" stroke="#63b8ff" points="469.5,-255.93 466,-245.93 462.5,-255.93 469.5,-255.93"/>
</a>
</g>
</g>
<!-- Node12 -->
<g id="Node000012" class="node">
<title>Node12</title>
<g id="a_Node000012"><a xlink:href="_utils_8h.html" target="_top" xlink:title=" ">
<polygon fill="white" stroke="#666666" points="148.25,-76 103.75,-76 103.75,-56 148.25,-56 148.25,-76"/>
<text text-anchor="middle" x="126" y="-62.5" font-family="Helvetica,sans-Serif" font-size="10.00">Utils.h</text>
</a>
</g>
</g>
<!-- Node1&#45;&gt;Node12 -->
<g id="edge44_Node000001_Node000012" class="edge">
<title>Node1&#45;&gt;Node12</title>
<g id="a_edge44_Node000001_Node000012"><a xlink:title=" ">
<path fill="none" stroke="#63b8ff" d="M390.28,-280.97C331.97,-263.04 251.4,-232.64 191,-188 165.1,-168.86 160.05,-160.48 145,-132 137.59,-117.98 132.72,-100.69 129.76,-87.46"/>
<polygon fill="#63b8ff" stroke="#63b8ff" points="133.21,-86.86 127.79,-77.76 126.35,-88.25 133.21,-86.86"/>
</a>
</g>
</g>
<!-- Node13 -->
<g id="Node000013" class="node">
<title>Node13</title>
<g id="a_Node000013"><a xlink:title=" ">
<polygon fill="#e0e0e0" stroke="#999999" points="63.62,-20 12.38,-20 12.38,0 63.62,0 63.62,-20"/>
<text text-anchor="middle" x="38" y="-6.5" font-family="Helvetica,sans-Serif" font-size="10.00">sstream</text>
</a>
</g>
</g>
<!-- Node1&#45;&gt;Node13 -->
<g id="edge43_Node000001_Node000013" class="edge">
<title>Node1&#45;&gt;Node13</title>
<g id="a_edge43_Node000001_Node000013"><a xlink:title=" ">
<path fill="none" stroke="#63b8ff" d="M390.09,-296.77C258.05,-287.32 0,-258.66 0,-179 0,-179 0,-179 0,-121 0,-87.77 15.68,-51.85 26.9,-30.4"/>
<polygon fill="#63b8ff" stroke="#63b8ff" points="29.94,-32.12 31.67,-21.66 23.8,-28.76 29.94,-32.12"/>
</a>
</g>
</g>
<!-- Node15 -->
<g id="Node000015" class="node">
<title>Node15</title>
<g id="a_Node000015"><a xlink:href="_lexer_8h.html" target="_top" xlink:title=" ">
<polygon fill="white" stroke="#666666" points="665.12,-132 616.88,-132 616.88,-112 665.12,-112 665.12,-132"/>
<text text-anchor="middle" x="641" y="-118.5" font-family="Helvetica,sans-Serif" font-size="10.00">Lexer.h</text>
</a>
</g>
</g>
<!-- Node1&#45;&gt;Node15 -->
<g id="edge48_Node000001_Node000015" class="edge">
<title>Node1&#45;&gt;Node15</title>
<g id="a_edge48_Node000001_Node000015"><a xlink:title=" ">
<path fill="none" stroke="#63b8ff" d="M487.11,-279.53C522.18,-243.86 591.75,-173.09 623.94,-140.36"/>
<polygon fill="#63b8ff" stroke="#63b8ff" points="626.39,-142.86 630.9,-133.27 621.39,-137.95 626.39,-142.86"/>
</a>
</g>
</g>
<!-- Node17 -->
<g id="Node000017" class="node">
<title>Node17</title>
<g id="a_Node000017"><a xlink:href="_parser_8h.html" target="_top" xlink:title=" ">
<polygon fill="white" stroke="#666666" points="608.38,-244 555.62,-244 555.62,-224 608.38,-224 608.38,-244"/>
<text text-anchor="middle" x="582" y="-230.5" font-family="Helvetica,sans-Serif" font-size="10.00">Parser.h</text>
</a>
</g>
</g>
<!-- Node1&#45;&gt;Node17 -->
<g id="edge45_Node000001_Node000017" class="edge">
<title>Node1&#45;&gt;Node17</title>
<g id="a_edge45_Node000001_Node000017"><a xlink:title=" ">
<path fill="none" stroke="#63b8ff" d="M503.66,-279.57C520.65,-269.91 540.3,-258.73 555.67,-249.98"/>
<polygon fill="#63b8ff" stroke="#63b8ff" points="557.26,-253.1 564.22,-245.11 553.8,-247.02 557.26,-253.1"/>
</a>
</g>
</g>
<!-- Node3 -->
<g id="Node000003" class="node">
<title>Node3</title>
<g id="a_Node000003"><a xlink:title=" ">
<polygon fill="#e0e0e0" stroke="#999999" points="386,-20 346,-20 346,0 386,0 386,-20"/>
<text text-anchor="middle" x="366" y="-6.5" font-family="Helvetica,sans-Serif" font-size="10.00">string</text>
</a>
</g>
</g>
<!-- Node2&#45;&gt;Node3 -->
<g id="edge2_Node000002_Node000003" class="edge">
<title>Node2&#45;&gt;Node3</title>
<g id="a_edge2_Node000002_Node000003"><a xlink:title=" ">
<path fill="none" stroke="#63b8ff" d="M432.08,-233.66C366.27,-232.86 222.13,-220.52 158,-132 108.76,-64.04 264.87,-28.23 334.38,-15.96"/>
<polygon fill="#63b8ff" stroke="#63b8ff" points="334.75,-19.45 344.02,-14.32 333.57,-12.55 334.75,-19.45"/>
</a>
</g>
</g>
<!-- Node4 -->
<g id="Node000004" class="node">
<title>Node4</title>
<g id="a_Node000004"><a xlink:href="_context_8h.html" target="_top" xlink:title=" ">
<polygon fill="white" stroke="#666666" points="498.38,-188 439.62,-188 439.62,-168 498.38,-168 498.38,-188"/>
<text text-anchor="middle" x="469" y="-174.5" font-family="Helvetica,sans-Serif" font-size="10.00">Context.h</text>
</a>
</g>
</g>
<!-- Node2&#45;&gt;Node4 -->
<g id="edge3_Node000002_Node000004" class="edge">
<title>Node2&#45;&gt;Node4</title>
<g id="a_edge3_Node000002_Node000004"><a xlink:title=" ">
<path fill="none" stroke="#63b8ff" d="M466.52,-223.59C466.89,-217.01 467.39,-207.96 467.85,-199.73"/>
<polygon fill="#63b8ff" stroke="#63b8ff" points="471.34,-199.99 468.4,-189.81 464.35,-199.6 471.34,-199.99"/>
</a>
</g>
</g>
<!-- Node9 -->
<g id="Node000009" class="node">
<title>Node9</title>
<g id="a_Node000009"><a xlink:href="_d_l_l_8h.html" target="_top" xlink:title=" ">
<polygon fill="white" stroke="#666666" points="814.12,-20 771.88,-20 771.88,0 814.12,0 814.12,-20"/>
<text text-anchor="middle" x="793" y="-6.5" font-family="Helvetica,sans-Serif" font-size="10.00">DLL.h</text>
</a>
</g>
</g>
<!-- Node2&#45;&gt;Node9 -->
<g id="edge42_Node000002_Node000009" class="edge">
<title>Node2&#45;&gt;Node9</title>
<g id="a_edge42_Node000002_Node000009"><a xlink:title=" ">
<path fill="none" stroke="#63b8ff" d="M499.62,-225.65C552.18,-212.99 655.4,-183.37 729,-132 756.12,-113.07 762.94,-105.44 778,-76 785.11,-62.09 788.9,-44.79 790.88,-31.54"/>
<polygon fill="#63b8ff" stroke="#63b8ff" points="794.33,-32.17 792.1,-21.82 787.38,-31.3 794.33,-32.17"/>
</a>
</g>
</g>
<!-- Node4&#45;&gt;Node3 -->
<g id="edge6_Node000004_Node000003" class="edge">
<title>Node4&#45;&gt;Node3</title>
<g id="a_edge6_Node000004_Node000003"><a xlink:title=" ">
<path fill="none" stroke="#63b8ff" d="M458.91,-167.69C441.39,-150.97 405.25,-114.05 385,-76 377.55,-62 372.68,-44.71 369.73,-31.48"/>
<polygon fill="#63b8ff" stroke="#63b8ff" points="373.18,-30.88 367.78,-21.76 366.32,-32.26 373.18,-30.88"/>
</a>
</g>
</g>
<!-- Node5 -->
<g id="Node000005" class="node">
<title>Node5</title>
<g id="a_Node000005"><a xlink:title=" ">
<polygon fill="#e0e0e0" stroke="#999999" points="704.5,-20 661.5,-20 661.5,0 704.5,0 704.5,-20"/>
<text text-anchor="middle" x="683" y="-6.5" font-family="Helvetica,sans-Serif" font-size="10.00">vector</text>
</a>
</g>
</g>
<!-- Node4&#45;&gt;Node5 -->
<g id="edge4_Node000004_Node000005" class="edge">
<title>Node4&#45;&gt;Node5</title>
<g id="a_edge4_Node000004_Node000005"><a xlink:title=" ">
<path fill="none" stroke="#63b8ff" d="M498.54,-176.73C540.66,-175.04 618.95,-166.98 674,-132 706.76,-111.19 729.34,-92.8 717,-56 713.64,-45.97 707.05,-36.39 700.57,-28.66"/>
<polygon fill="#63b8ff" stroke="#63b8ff" points="703.27,-26.43 693.95,-21.38 698.09,-31.13 703.27,-26.43"/>
</a>
</g>
</g>
<!-- Node6 -->
<g id="Node000006" class="node">
<title>Node6</title>
<g id="a_Node000006"><a xlink:title=" ">
<polygon fill="#e0e0e0" stroke="#999999" points="264.12,-20 215.88,-20 215.88,0 264.12,0 264.12,-20"/>
<text text-anchor="middle" x="240" y="-6.5" font-family="Helvetica,sans-Serif" font-size="10.00">stdint.h</text>
</a>
</g>
</g>
<!-- Node4&#45;&gt;Node6 -->
<g id="edge5_Node000004_Node000006" class="edge">
<title>Node4&#45;&gt;Node6</title>
<g id="a_edge5_Node000004_Node000006"><a xlink:title=" ">
<path fill="none" stroke="#63b8ff" d="M439.24,-174.88C371.49,-169.71 207.78,-155.14 158,-132 124.03,-116.21 110.35,-110.18 95,-76 74.64,-30.66 154.74,-16.95 203.99,-12.8"/>
<polygon fill="#63b8ff" stroke="#63b8ff" points="204.25,-16.29 213.96,-12.06 203.73,-9.31 204.25,-16.29"/>
</a>
</g>
</g>
<!-- Node7 -->
<g id="Node000007" class="node">
<title>Node7</title>
<g id="a_Node000007"><a xlink:title=" ">
<polygon fill="#e0e0e0" stroke="#999999" points="476.38,-76 393.62,-76 393.62,-56 476.38,-56 476.38,-76"/>
<text text-anchor="middle" x="435" y="-62.5" font-family="Helvetica,sans-Serif" font-size="10.00">unordered_map</text>
</a>
</g>
</g>
<!-- Node4&#45;&gt;Node7 -->
<g id="edge7_Node000004_Node000007" class="edge">
<title>Node4&#45;&gt;Node7</title>
<g id="a_edge7_Node000004_Node000007"><a xlink:title=" ">
<path fill="none" stroke="#63b8ff" d="M464.12,-167.57C459.66,-158.62 453.13,-144.68 449,-132 444.23,-117.36 440.63,-100.33 438.27,-87.38"/>
<polygon fill="#63b8ff" stroke="#63b8ff" points="441.79,-87.18 436.66,-77.91 434.89,-88.36 441.79,-87.18"/>
</a>
</g>
</g>
<!-- Node8 -->
<g id="Node000008" class="node">
<title>Node8</title>
<g id="a_Node000008"><a xlink:href="_command_8h.html" target="_top" xlink:title=" ">
<polygon fill="white" stroke="#666666" points="601.62,-76 532.38,-76 532.38,-56 601.62,-56 601.62,-76"/>
<text text-anchor="middle" x="567" y="-62.5" font-family="Helvetica,sans-Serif" font-size="10.00">Command.h</text>
</a>
</g>
</g>
<!-- Node4&#45;&gt;Node8 -->
<g id="edge8_Node000004_Node000008" class="edge">
<title>Node4&#45;&gt;Node8</title>
<g id="a_edge8_Node000004_Node000008"><a xlink:title=" ">
<path fill="none" stroke="#63b8ff" d="M498.7,-167.77C525.44,-158.79 561.77,-144.68 570,-132 578.56,-118.81 576.93,-100.74 573.65,-87"/>
<polygon fill="#63b8ff" stroke="#63b8ff" points="577.11,-86.37 570.98,-77.73 570.38,-88.31 577.11,-86.37"/>
</a>
</g>
</g>
<!-- Node4&#45;&gt;Node9 -->
<g id="edge41_Node000004_Node000009" class="edge">
<title>Node4&#45;&gt;Node9</title>
<g id="a_edge41_Node000004_Node000009"><a xlink:title=" ">
<path fill="none" stroke="#63b8ff" d="M498.67,-177.85C545.47,-177.84 637.71,-172.16 702,-132 741.79,-107.14 770.34,-58.12 783.97,-30.72"/>
<polygon fill="#63b8ff" stroke="#63b8ff" points="787.08,-32.33 788.24,-21.8 780.77,-29.31 787.08,-32.33"/>
</a>
</g>
</g>
<!-- Node10 -->
<g id="Node000010" class="node">
<title>Node10</title>
<g id="a_Node000010"><a xlink:href="_command_handler_8h.html" target="_top" xlink:title=" ">
<polygon fill="white" stroke="#666666" points="560.5,-132 457.5,-132 457.5,-112 560.5,-112 560.5,-132"/>
<text text-anchor="middle" x="509" y="-118.5" font-family="Helvetica,sans-Serif" font-size="10.00">CommandHandler.h</text>
</a>
</g>
</g>
<!-- Node4&#45;&gt;Node10 -->
<g id="edge13_Node000004_Node000010" class="edge">
<title>Node4&#45;&gt;Node10</title>
<g id="a_edge13_Node000004_Node000010"><a xlink:title=" ">
<path fill="none" stroke="#63b8ff" d="M475.97,-167.59C481.3,-160.39 488.83,-150.23 495.35,-141.43"/>
<polygon fill="#63b8ff" stroke="#63b8ff" points="498.07,-143.63 501.21,-133.51 492.45,-139.47 498.07,-143.63"/>
</a>
</g>
</g>
<!-- Node11 -->
<g id="Node000011" class="node">
<title>Node11</title>
<g id="a_Node000011"><a xlink:href="_print_callback_8h.html" target="_top" xlink:title=" ">
<polygon fill="white" stroke="#666666" points="249.38,-132 166.62,-132 166.62,-112 249.38,-112 249.38,-132"/>
<text text-anchor="middle" x="208" y="-118.5" font-family="Helvetica,sans-Serif" font-size="10.00">PrintCallback.h</text>
</a>
</g>
</g>
<!-- Node4&#45;&gt;Node11 -->
<g id="edge18_Node000004_Node000011" class="edge">
<title>Node4&#45;&gt;Node11</title>
<g id="a_edge18_Node000004_Node000011"><a xlink:title=" ">
<path fill="none" stroke="#63b8ff" d="M439.31,-170.86C395.91,-161.88 314.45,-145.02 260.71,-133.9"/>
<polygon fill="#63b8ff" stroke="#63b8ff" points="261.67,-130.53 251.17,-131.93 260.25,-137.38 261.67,-130.53"/>
</a>
</g>
</g>
<!-- Node14 -->
<g id="Node000014" class="node">
<title>Node14</title>
<g id="a_Node000014"><a xlink:href="_program_variable_8h.html" target="_top" xlink:title=" ">
<polygon fill="white" stroke="#666666" points="362.75,-132 267.25,-132 267.25,-112 362.75,-112 362.75,-132"/>
<text text-anchor="middle" x="315" y="-118.5" font-family="Helvetica,sans-Serif" font-size="10.00">ProgramVariable.h</text>
</a>
</g>
</g>
<!-- Node4&#45;&gt;Node14 -->
<g id="edge27_Node000004_Node000014" class="edge">
<title>Node4&#45;&gt;Node14</title>
<g id="a_edge27_Node000004_Node000014"><a xlink:title=" ">
<path fill="none" stroke="#63b8ff" d="M442.18,-167.59C417.37,-158.9 380.27,-145.89 352.53,-136.16"/>
<polygon fill="#63b8ff" stroke="#63b8ff" points="354.06,-132.99 343.46,-132.98 351.74,-139.59 354.06,-132.99"/>
</a>
</g>
</g>
<!-- Node4&#45;&gt;Node15 -->
<g id="edge32_Node000004_Node000015" class="edge">
<title>Node4&#45;&gt;Node15</title>
<g id="a_edge32_Node000004_Node000015"><a xlink:title=" ">
<path fill="none" stroke="#63b8ff" d="M498.57,-167.72C528.25,-158.4 573.99,-144.04 605.6,-134.12"/>
<polygon fill="#63b8ff" stroke="#63b8ff" points="606.6,-137.47 615.1,-131.13 604.51,-130.79 606.6,-137.47"/>
</a>
</g>
</g>
<!-- Node8&#45;&gt;Node3 -->
<g id="edge10_Node000008_Node000003" class="edge">
<title>Node8&#45;&gt;Node3</title>
<g id="a_edge10_Node000008_Node000003"><a xlink:title=" ">
<path fill="none" stroke="#63b8ff" d="M531.99,-55.59C493.93,-45.37 433.68,-29.18 397.19,-19.38"/>
<polygon fill="#63b8ff" stroke="#63b8ff" points="398.26,-16.04 387.7,-16.83 396.44,-22.8 398.26,-16.04"/>
</a>
</g>
</g>
<!-- Node8&#45;&gt;Node5 -->
<g id="edge9_Node000008_Node000005" class="edge">
<title>Node8&#45;&gt;Node5</title>
<g id="a_edge9_Node000008_Node000005"><a xlink:title=" ">
<path fill="none" stroke="#63b8ff" d="M587.21,-55.59C605.23,-47.21 631.87,-34.8 652.48,-25.21"/>
<polygon fill="#63b8ff" stroke="#63b8ff" points="653.68,-28.51 661.26,-21.12 650.72,-22.17 653.68,-28.51"/>
</a>
</g>
</g>
<!-- Node8&#45;&gt;Node6 -->
<g id="edge11_Node000008_Node000006" class="edge">
<title>Node8&#45;&gt;Node6</title>
<g id="a_edge11_Node000008_Node000006"><a xlink:title=" ">
<path fill="none" stroke="#63b8ff" d="M532.01,-59.22C469.47,-48.89 339.19,-27.38 275.96,-16.94"/>
<polygon fill="#63b8ff" stroke="#63b8ff" points="276.54,-13.49 266.1,-15.31 275.4,-20.39 276.54,-13.49"/>
</a>
</g>
</g>
<!-- Node8&#45;&gt;Node9 -->
<g id="edge12_Node000008_Node000009" class="edge">
<title>Node8&#45;&gt;Node9</title>
<g id="a_edge12_Node000008_Node000009"><a xlink:title=" ">
<path fill="none" stroke="#63b8ff" d="M601.82,-56.68C645.05,-46.35 718.23,-28.86 760.41,-18.79"/>
<polygon fill="#63b8ff" stroke="#63b8ff" points="761.05,-22.23 769.96,-16.51 759.42,-15.43 761.05,-22.23"/>
</a>
</g>
</g>
<!-- Node10&#45;&gt;Node3 -->
<g id="edge15_Node000010_Node000003" class="edge">
<title>Node10&#45;&gt;Node3</title>
<g id="a_edge15_Node000010_Node000003"><a xlink:title=" ">
<path fill="none" stroke="#63b8ff" d="M508.01,-111.74C506.05,-97.84 500.42,-71.54 485,-56 461.42,-32.23 424.05,-20.84 397.48,-15.49"/>
<polygon fill="#63b8ff" stroke="#63b8ff" points="398.43,-12.11 387.96,-13.77 397.18,-18.99 398.43,-12.11"/>
</a>
</g>
</g>
<!-- Node10&#45;&gt;Node7 -->
<g id="edge14_Node000010_Node000007" class="edge">
<title>Node10&#45;&gt;Node7</title>
<g id="a_edge14_Node000010_Node000007"><a xlink:title=" ">
<path fill="none" stroke="#63b8ff" d="M496.11,-111.59C485.29,-103.7 469.59,-92.24 456.81,-82.92"/>
<polygon fill="#63b8ff" stroke="#63b8ff" points="459.11,-80.26 448.96,-77.19 454.98,-85.91 459.11,-80.26"/>
</a>
</g>
</g>
<!-- Node10&#45;&gt;Node8 -->
<g id="edge16_Node000010_Node000008" class="edge">
<title>Node10&#45;&gt;Node8</title>
<g id="a_edge16_Node000010_Node000008"><a xlink:title=" ">
<path fill="none" stroke="#63b8ff" d="M519.1,-111.59C527.25,-104.01 538.93,-93.13 548.72,-84.02"/>
<polygon fill="#63b8ff" stroke="#63b8ff" points="550.97,-86.71 555.91,-77.33 546.2,-81.58 550.97,-86.71"/>
</a>
</g>
</g>
<!-- Node10&#45;&gt;Node9 -->
<g id="edge17_Node000010_Node000009" class="edge">
<title>Node10&#45;&gt;Node9</title>
<g id="a_edge17_Node000010_Node000009"><a xlink:title=" ">
<path fill="none" stroke="#63b8ff" d="M560.73,-116.11C637.13,-108.37 772.82,-92.5 788,-76 798.79,-64.28 799.22,-45.79 797.43,-31.53"/>
<polygon fill="#63b8ff" stroke="#63b8ff" points="800.91,-31.1 795.74,-21.85 794.01,-32.3 800.91,-31.1"/>
</a>
</g>
</g>
<!-- Node11&#45;&gt;Node3 -->
<g id="edge20_Node000011_Node000003" class="edge">
<title>Node11&#45;&gt;Node3</title>
<g id="a_edge20_Node000011_Node000003"><a xlink:title=" ">
<path fill="none" stroke="#63b8ff" d="M221.47,-111.62C248.52,-92.79 309.72,-50.18 343.15,-26.91"/>
<polygon fill="#63b8ff" stroke="#63b8ff" points="345.11,-29.81 351.32,-21.22 341.11,-24.06 345.11,-29.81"/>
</a>
</g>
</g>
<!-- Node11&#45;&gt;Node6 -->
<g id="edge19_Node000011_Node000006" class="edge">
<title>Node11&#45;&gt;Node6</title>
<g id="a_edge19_Node000011_Node000006"><a xlink:title=" ">
<path fill="none" stroke="#63b8ff" d="M210.73,-111.62C215.88,-93.92 227.13,-55.24 234.09,-31.32"/>
<polygon fill="#63b8ff" stroke="#63b8ff" points="237.42,-32.39 236.86,-21.81 230.7,-30.43 237.42,-32.39"/>
</a>
</g>
</g>
<!-- Node11&#45;&gt;Node9 -->
<g id="edge21_Node000011_Node000009" class="edge">
<title>Node11&#45;&gt;Node9</title>
<g id="a_edge21_Node000011_Node000009"><a xlink:title=" ">
<path fill="none" stroke="#63b8ff" d="M249.69,-113.17C252.5,-112.75 255.29,-112.35 258,-112 359.47,-98.92 622.48,-115.17 717,-76 741.94,-65.66 764.62,-43.91 778.58,-28.41"/>
<polygon fill="#63b8ff" stroke="#63b8ff" points="780.85,-31.14 784.76,-21.29 775.56,-26.55 780.85,-31.14"/>
</a>
</g>
</g>
<!-- Node11&#45;&gt;Node12 -->
<g id="edge22_Node000011_Node000012" class="edge">
<title>Node11&#45;&gt;Node12</title>
<g id="a_edge22_Node000011_Node000012"><a xlink:title=" ">
<path fill="none" stroke="#63b8ff" d="M193.72,-111.59C181.56,-103.59 163.86,-91.93 149.6,-82.54"/>
<polygon fill="#63b8ff" stroke="#63b8ff" points="151.94,-79.89 141.66,-77.31 148.09,-85.73 151.94,-79.89"/>
</a>
</g>
</g>
<!-- Node12&#45;&gt;Node3 -->
<g id="edge24_Node000012_Node000003" class="edge">
<title>Node12&#45;&gt;Node3</title>
<g id="a_edge24_Node000012_Node000003"><a xlink:title=" ">
<path fill="none" stroke="#63b8ff" d="M148.58,-59.92C191.59,-50.24 285.36,-29.14 334.51,-18.08"/>
<polygon fill="#63b8ff" stroke="#63b8ff" points="335.24,-21.51 344.23,-15.9 333.71,-14.68 335.24,-21.51"/>
</a>
</g>
</g>
<!-- Node12&#45;&gt;Node6 -->
<g id="edge23_Node000012_Node000006" class="edge">
<title>Node12&#45;&gt;Node6</title>
<g id="a_edge23_Node000012_Node000006"><a xlink:title=" ">
<path fill="none" stroke="#63b8ff" d="M145.86,-55.59C163.49,-47.24 189.51,-34.92 209.73,-25.34"/>
<polygon fill="#63b8ff" stroke="#63b8ff" points="211.08,-28.57 218.62,-21.13 208.08,-22.25 211.08,-28.57"/>
</a>
</g>
</g>
<!-- Node12&#45;&gt;Node9 -->
<g id="edge26_Node000012_Node000009" class="edge">
<title>Node12&#45;&gt;Node9</title>
<g id="a_edge26_Node000012_Node000009"><a xlink:title=" ">
<path fill="none" stroke="#63b8ff" d="M148.73,-63.56C227.22,-58.54 494.11,-40.93 714,-20 729.24,-18.55 746.11,-16.67 760.33,-15"/>
<polygon fill="#63b8ff" stroke="#63b8ff" points="760.54,-18.5 770.06,-13.84 759.72,-11.55 760.54,-18.5"/>
</a>
</g>
</g>
<!-- Node12&#45;&gt;Node13 -->
<g id="edge25_Node000012_Node000013" class="edge">
<title>Node12&#45;&gt;Node13</title>
<g id="a_edge25_Node000012_Node000013"><a xlink:title=" ">
<path fill="none" stroke="#63b8ff" d="M110.67,-55.59C97.5,-47.51 78.27,-35.71 62.89,-26.27"/>
<polygon fill="#63b8ff" stroke="#63b8ff" points="65.09,-23.52 54.74,-21.27 61.43,-29.48 65.09,-23.52"/>
</a>
</g>
</g>
<!-- Node14&#45;&gt;Node3 -->
<g id="edge28_Node000014_Node000003" class="edge">
<title>Node14&#45;&gt;Node3</title>
<g id="a_edge28_Node000014_Node000003"><a xlink:title=" ">
<path fill="none" stroke="#63b8ff" d="M319.35,-111.62C327.63,-93.76 345.82,-54.53 356.88,-30.67"/>
<polygon fill="#63b8ff" stroke="#63b8ff" points="360,-32.27 361.03,-21.73 353.64,-29.33 360,-32.27"/>
</a>
</g>
</g>
<!-- Node14&#45;&gt;Node7 -->
<g id="edge30_Node000014_Node000007" class="edge">
<title>Node14&#45;&gt;Node7</title>
<g id="a_edge30_Node000014_Node000007"><a xlink:title=" ">
<path fill="none" stroke="#63b8ff" d="M335.9,-111.59C354.63,-103.17 382.36,-90.69 403.72,-81.07"/>
<polygon fill="#63b8ff" stroke="#63b8ff" points="404.87,-84.4 412.55,-77.1 402,-78.01 404.87,-84.4"/>
</a>
</g>
</g>
<!-- Node14&#45;&gt;Node9 -->
<g id="edge31_Node000014_Node000009" class="edge">
<title>Node14&#45;&gt;Node9</title>
<g id="a_edge31_Node000014_Node000009"><a xlink:title=" ">
<path fill="none" stroke="#63b8ff" d="M363.12,-117.13C472.89,-108.15 733.62,-85.92 750,-76 766.97,-65.72 778.6,-45.89 785.45,-30.83"/>
<polygon fill="#63b8ff" stroke="#63b8ff" points="788.57,-32.45 789.18,-21.87 782.11,-29.76 788.57,-32.45"/>
</a>
</g>
</g>
<!-- Node14&#45;&gt;Node13 -->
<g id="edge29_Node000014_Node000013" class="edge">
<title>Node14&#45;&gt;Node13</title>
<g id="a_edge29_Node000014_Node000013"><a xlink:title=" ">
<path fill="none" stroke="#63b8ff" d="M266.78,-112.82C206.58,-102.35 109.71,-84.54 95,-76 75.6,-64.73 59.42,-44.45 49.31,-29.54"/>
<polygon fill="#63b8ff" stroke="#63b8ff" points="52.5,-28.02 44.14,-21.51 46.62,-31.81 52.5,-28.02"/>
</a>
</g>
</g>
<!-- Node15&#45;&gt;Node3 -->
<g id="edge34_Node000015_Node000003" class="edge">
<title>Node15&#45;&gt;Node3</title>
<g id="a_edge34_Node000015_Node000003"><a xlink:title=" ">
<path fill="none" stroke="#63b8ff" d="M639.5,-111.79C636.66,-97.47 629.07,-70.02 611,-56 578.15,-30.5 456.38,-17.92 397.84,-13.23"/>
<polygon fill="#63b8ff" stroke="#63b8ff" points="398.11,-9.75 387.87,-12.47 397.57,-16.72 398.11,-9.75"/>
</a>
</g>
</g>
<!-- Node15&#45;&gt;Node6 -->
<g id="edge33_Node000015_Node000006" class="edge">
<title>Node15&#45;&gt;Node6</title>
<g id="a_edge33_Node000015_Node000006"><a xlink:title=" ">
<path fill="none" stroke="#63b8ff" d="M616.63,-117.5C561.45,-109.46 428.36,-89.3 385,-76 342.44,-62.94 295.91,-40.52 267.34,-25.72"/>
<polygon fill="#63b8ff" stroke="#63b8ff" points="269.13,-22.71 258.65,-21.16 265.88,-28.91 269.13,-22.71"/>
</a>
</g>
</g>
<!-- Node15&#45;&gt;Node9 -->
<g id="edge40_Node000015_Node000009" class="edge">
<title>Node15&#45;&gt;Node9</title>
<g id="a_edge40_Node000015_Node000009"><a xlink:title=" ">
<path fill="none" stroke="#63b8ff" d="M665.52,-118.72C711.15,-113.92 806.29,-101.08 826,-76 837.53,-61.33 824.84,-42.01 812,-28.25"/>
<polygon fill="#63b8ff" stroke="#63b8ff" points="814.83,-26.13 805.27,-21.56 809.9,-31.09 814.83,-26.13"/>
</a>
</g>
</g>
<!-- Node16 -->
<g id="Node000016" class="node">
<title>Node16</title>
<g id="a_Node000016"><a xlink:href="_token_8h.html" target="_top" xlink:title=" ">
<polygon fill="white" stroke="#666666" points="708.25,-76 657.75,-76 657.75,-56 708.25,-56 708.25,-76"/>
<text text-anchor="middle" x="683" y="-62.5" font-family="Helvetica,sans-Serif" font-size="10.00">Token.h</text>
</a>
</g>
</g>
<!-- Node15&#45;&gt;Node16 -->
<g id="edge35_Node000015_Node000016" class="edge">
<title>Node15&#45;&gt;Node16</title>
<g id="a_edge35_Node000015_Node000016"><a xlink:title=" ">
<path fill="none" stroke="#63b8ff" d="M648.32,-111.59C653.98,-104.32 661.99,-94.02 668.89,-85.15"/>
<polygon fill="#63b8ff" stroke="#63b8ff" points="671.46,-87.54 674.84,-77.49 665.94,-83.24 671.46,-87.54"/>
</a>
</g>
</g>
<!-- Node16&#45;&gt;Node3 -->
<g id="edge37_Node000016_Node000003" class="edge">
<title>Node16&#45;&gt;Node3</title>
<g id="a_edge37_Node000016_Node000003"><a xlink:title=" ">
<path fill="none" stroke="#63b8ff" d="M657.46,-58.85C652.98,-57.85 648.36,-56.86 644,-56 555.17,-38.58 449.41,-22.82 397.68,-15.43"/>
<polygon fill="#63b8ff" stroke="#63b8ff" points="398.2,-11.97 387.81,-14.03 397.22,-18.9 398.2,-11.97"/>
</a>
</g>
</g>
<!-- Node16&#45;&gt;Node5 -->
<g id="edge38_Node000016_Node000005" class="edge">
<title>Node16&#45;&gt;Node5</title>
<g id="a_edge38_Node000016_Node000005"><a xlink:title=" ">
<path fill="none" stroke="#63b8ff" d="M683,-55.59C683,-49.01 683,-39.96 683,-31.73"/>
<polygon fill="#63b8ff" stroke="#63b8ff" points="686.5,-31.81 683,-21.81 679.5,-31.81 686.5,-31.81"/>
</a>
</g>
</g>
<!-- Node16&#45;&gt;Node6 -->
<g id="edge36_Node000016_Node000006" class="edge">
<title>Node16&#45;&gt;Node6</title>
<g id="a_edge36_Node000016_Node000006"><a xlink:title=" ">
<path fill="none" stroke="#63b8ff" d="M657.34,-61.77C643.6,-60.05 626.38,-57.89 611,-56 487.94,-40.85 341.86,-23.24 275.71,-15.29"/>
<polygon fill="#63b8ff" stroke="#63b8ff" points="276.16,-11.82 265.81,-14.1 275.33,-18.77 276.16,-11.82"/>
</a>
</g>
</g>
<!-- Node16&#45;&gt;Node9 -->
<g id="edge39_Node000016_Node000009" class="edge">
<title>Node16&#45;&gt;Node9</title>
<g id="a_edge39_Node000016_Node000009"><a xlink:title=" ">
<path fill="none" stroke="#63b8ff" d="M702.16,-55.59C719.09,-47.28 744.05,-35.03 763.52,-25.47"/>
<polygon fill="#63b8ff" stroke="#63b8ff" points="764.9,-28.7 772.33,-21.15 761.81,-22.41 764.9,-28.7"/>
</a>
</g>
</g>
<!-- Node17&#45;&gt;Node4 -->
<g id="edge46_Node000017_Node000004" class="edge">
<title>Node17&#45;&gt;Node4</title>
<g id="a_edge46_Node000017_Node000004"><a xlink:title=" ">
<path fill="none" stroke="#63b8ff" d="M562.32,-223.59C544.84,-215.24 519.05,-202.92 499,-193.34"/>
<polygon fill="#63b8ff" stroke="#63b8ff" points="500.73,-190.29 490.2,-189.13 497.72,-196.6 500.73,-190.29"/>
</a>
</g>
</g>
<!-- Node17&#45;&gt;Node9 -->
<g id="edge47_Node000017_Node000009" class="edge">
<title>Node17&#45;&gt;Node9</title>
<g id="a_edge47_Node000017_Node000009"><a xlink:title=" ">
<path fill="none" stroke="#63b8ff" d="M608.79,-231.98C693.8,-228.48 953.38,-215.58 978,-188 1017.07,-144.24 1014.25,-102.13 978,-56 959.41,-32.34 873.68,-19.57 825.72,-14.17"/>
<polygon fill="#63b8ff" stroke="#63b8ff" points="826.23,-10.71 815.91,-13.12 825.48,-17.67 826.23,-10.71"/>
</a>
</g>
</g>
</g>
</svg>
