<?xml version="1.0" encoding="UTF-8" standalone="no"?>
<!DOCTYPE svg PUBLIC "-//W3C//DTD SVG 1.1//EN"
 "http://www.w3.org/Graphics/SVG/1.1/DTD/svg11.dtd">
<!-- Generated by graphviz version 12.2.1 (20241206.2353)
 -->
<!-- Title: C:/Users/emilly/Documents/Lucca/Projetos/Cpp/NikiScript/src/NikiScript.cpp Pages: 1 -->
<svg width="705pt" height="332pt"
 viewBox="0.00 0.00 704.50 332.00" xmlns="http://www.w3.org/2000/svg" xmlns:xlink="http://www.w3.org/1999/xlink">
<g id="graph0" class="graph" transform="scale(1 1) rotate(0) translate(4 328)">
<title>C:/Users/emilly/Documents/Lucca/Projetos/Cpp/NikiScript/src/NikiScript.cpp</title>
<!-- Node1 -->
<g id="Node000001" class="node">
<title>Node1</title>
<g id="a_Node000001"><a xlink:title=" ">
<polygon fill="#999999" stroke="#666666" points="604,-324 453,-324 453,-280 604,-280 604,-324"/>
<text text-anchor="start" x="461" y="-310.5" font-family="Helvetica,sans-Serif" font-size="10.00">C:/Users/emilly/Documents</text>
<text text-anchor="start" x="461" y="-298.5" font-family="Helvetica,sans-Serif" font-size="10.00">/Lucca/Projetos/Cpp/NikiScript</text>
<text text-anchor="middle" x="528.5" y="-286.5" font-family="Helvetica,sans-Serif" font-size="10.00">/src/NikiScript.cpp</text>
</a>
</g>
</g>
<!-- Node2 -->
<g id="Node000002" class="node">
<title>Node2</title>
<g id="a_Node000002"><a xlink:href="_niki_script_8h.html" target="_top" xlink:title=" ">
<polygon fill="white" stroke="#666666" points="381,-244 314,-244 314,-224 381,-224 381,-244"/>
<text text-anchor="middle" x="347.5" y="-230.5" font-family="Helvetica,sans-Serif" font-size="10.00">NikiScript.h</text>
</a>
</g>
</g>
<!-- Node1&#45;&gt;Node2 -->
<g id="edge1_Node000001_Node000002" class="edge">
<title>Node1&#45;&gt;Node2</title>
<g id="a_edge1_Node000001_Node000002"><a xlink:title=" ">
<path fill="none" stroke="#63b8ff" d="M469.73,-279.57C441.45,-269.26 408.43,-257.22 383.84,-248.25"/>
<polygon fill="#63b8ff" stroke="#63b8ff" points="385.2,-245.02 374.61,-244.88 382.8,-251.6 385.2,-245.02"/>
</a>
</g>
</g>
<!-- Node12 -->
<g id="Node000012" class="node">
<title>Node12</title>
<g id="a_Node000012"><a xlink:href="_utils_8h.html" target="_top" xlink:title=" ">
<polygon fill="white" stroke="#666666" points="592.75,-76 548.25,-76 548.25,-56 592.75,-56 592.75,-76"/>
<text text-anchor="middle" x="570.5" y="-62.5" font-family="Helvetica,sans-Serif" font-size="10.00">Utils.h</text>
</a>
</g>
</g>
<!-- Node1&#45;&gt;Node12 -->
<g id="edge36_Node000001_Node000012" class="edge">
<title>Node1&#45;&gt;Node12</title>
<g id="a_edge36_Node000001_Node000012"><a xlink:title=" ">
<path fill="none" stroke="#63b8ff" d="M534.12,-279.7C536.84,-269.02 540.04,-255.87 542.5,-244 554.15,-187.79 563.55,-120.66 567.9,-87.55"/>
<polygon fill="#63b8ff" stroke="#63b8ff" points="571.35,-88.14 569.16,-77.77 564.41,-87.24 571.35,-88.14"/>
</a>
</g>
</g>
<!-- Node13 -->
<g id="Node000013" class="node">
<title>Node13</title>
<g id="a_Node000013"><a xlink:title=" ">
<polygon fill="#e0e0e0" stroke="#999999" points="587.12,-20 535.88,-20 535.88,0 587.12,0 587.12,-20"/>
<text text-anchor="middle" x="561.5" y="-6.5" font-family="Helvetica,sans-Serif" font-size="10.00">sstream</text>
</a>
</g>
</g>
<!-- Node1&#45;&gt;Node13 -->
<g id="edge35_Node000001_Node000013" class="edge">
<title>Node1&#45;&gt;Node13</title>
<g id="a_edge35_Node000001_Node000013"><a xlink:title=" ">
<path fill="none" stroke="#63b8ff" d="M600.72,-279.64C646.26,-261.22 696.5,-229.46 696.5,-179 696.5,-179 696.5,-179 696.5,-121 696.5,-70.15 638.23,-38.64 598.26,-23"/>
<polygon fill="#63b8ff" stroke="#63b8ff" points="599.54,-19.74 588.95,-19.54 597.1,-26.3 599.54,-19.74"/>
</a>
</g>
</g>
<!-- Node15 -->
<g id="Node000015" class="node">
<title>Node15</title>
<g id="a_Node000015"><a xlink:href="_lexer_8h.html" target="_top" xlink:title=" ">
<polygon fill="white" stroke="#666666" points="552.62,-132 504.38,-132 504.38,-112 552.62,-112 552.62,-132"/>
<text text-anchor="middle" x="528.5" y="-118.5" font-family="Helvetica,sans-Serif" font-size="10.00">Lexer.h</text>
</a>
</g>
</g>
<!-- Node1&#45;&gt;Node15 -->
<g id="edge39_Node000001_Node000015" class="edge">
<title>Node1&#45;&gt;Node15</title>
<g id="a_edge39_Node000001_Node000015"><a xlink:title=" ">
<path fill="none" stroke="#63b8ff" d="M528.5,-279.53C528.5,-244.93 528.5,-177.29 528.5,-143.39"/>
<polygon fill="#63b8ff" stroke="#63b8ff" points="532,-143.71 528.5,-133.71 525,-143.71 532,-143.71"/>
</a>
</g>
</g>
<!-- Node17 -->
<g id="Node000017" class="node">
<title>Node17</title>
<g id="a_Node000017"><a xlink:href="_parser_8h.html" target="_top" xlink:title=" ">
<polygon fill="white" stroke="#666666" points="490.88,-244 438.12,-244 438.12,-224 490.88,-224 490.88,-244"/>
<text text-anchor="middle" x="464.5" y="-230.5" font-family="Helvetica,sans-Serif" font-size="10.00">Parser.h</text>
</a>
</g>
</g>
<!-- Node1&#45;&gt;Node17 -->
<g id="edge37_Node000001_Node000017" class="edge">
<title>Node1&#45;&gt;Node17</title>
<g id="a_edge37_Node000001_Node000017"><a xlink:title=" ">
<path fill="none" stroke="#63b8ff" d="M507.9,-279.75C499.42,-271.01 489.71,-261 481.63,-252.66"/>
<polygon fill="#63b8ff" stroke="#63b8ff" points="484.16,-250.25 474.69,-245.51 479.14,-255.12 484.16,-250.25"/>
</a>
</g>
</g>
<!-- Node3 -->
<g id="Node000003" class="node">
<title>Node3</title>
<g id="a_Node000003"><a xlink:title=" ">
<polygon fill="#e0e0e0" stroke="#999999" points="140.25,-20 74.75,-20 74.75,0 140.25,0 140.25,-20"/>
<text text-anchor="middle" x="107.5" y="-6.5" font-family="Helvetica,sans-Serif" font-size="10.00">string_view</text>
</a>
</g>
</g>
<!-- Node2&#45;&gt;Node3 -->
<g id="edge2_Node000002_Node000003" class="edge">
<title>Node2&#45;&gt;Node3</title>
<g id="a_edge2_Node000002_Node000003"><a xlink:title=" ">
<path fill="none" stroke="#63b8ff" d="M313.51,-225.76C260.96,-213.33 158.54,-184.11 86.5,-132 54.51,-108.86 21.93,-90.84 40.5,-56 47.52,-42.83 60.3,-32.83 72.83,-25.64"/>
<polygon fill="#63b8ff" stroke="#63b8ff" points="74.13,-28.91 81.37,-21.17 70.88,-22.7 74.13,-28.91"/>
</a>
</g>
</g>
<!-- Node4 -->
<g id="Node000004" class="node">
<title>Node4</title>
<g id="a_Node000004"><a xlink:href="_context_8h.html" target="_top" xlink:title=" ">
<polygon fill="white" stroke="#666666" points="376.88,-188 318.12,-188 318.12,-168 376.88,-168 376.88,-188"/>
<text text-anchor="middle" x="347.5" y="-174.5" font-family="Helvetica,sans-Serif" font-size="10.00">Context.h</text>
</a>
</g>
</g>
<!-- Node2&#45;&gt;Node4 -->
<g id="edge3_Node000002_Node000004" class="edge">
<title>Node2&#45;&gt;Node4</title>
<g id="a_edge3_Node000002_Node000004"><a xlink:title=" ">
<path fill="none" stroke="#63b8ff" d="M347.5,-223.59C347.5,-217.01 347.5,-207.96 347.5,-199.73"/>
<polygon fill="#63b8ff" stroke="#63b8ff" points="351,-199.81 347.5,-189.81 344,-199.81 351,-199.81"/>
</a>
</g>
</g>
<!-- Node5 -->
<g id="Node000005" class="node">
<title>Node5</title>
<g id="a_Node000005"><a xlink:title=" ">
<polygon fill="#e0e0e0" stroke="#999999" points="43,-20 0,-20 0,0 43,0 43,-20"/>
<text text-anchor="middle" x="21.5" y="-6.5" font-family="Helvetica,sans-Serif" font-size="10.00">vector</text>
</a>
</g>
</g>
<!-- Node4&#45;&gt;Node5 -->
<g id="edge4_Node000004_Node000005" class="edge">
<title>Node4&#45;&gt;Node5</title>
<g id="a_edge4_Node000004_Node000005"><a xlink:title=" ">
<path fill="none" stroke="#63b8ff" d="M317.63,-174.48C257.75,-169 125.45,-154.66 86.5,-132 58.66,-115.8 55.55,-104.48 40.5,-76 33.09,-61.98 28.22,-44.69 25.26,-31.46"/>
<polygon fill="#63b8ff" stroke="#63b8ff" points="28.71,-30.86 23.29,-21.76 21.85,-32.25 28.71,-30.86"/>
</a>
</g>
</g>
<!-- Node6 -->
<g id="Node000006" class="node">
<title>Node6</title>
<g id="a_Node000006"><a xlink:title=" ">
<polygon fill="#e0e0e0" stroke="#999999" points="653.62,-20 605.38,-20 605.38,0 653.62,0 653.62,-20"/>
<text text-anchor="middle" x="629.5" y="-6.5" font-family="Helvetica,sans-Serif" font-size="10.00">stdint.h</text>
</a>
</g>
</g>
<!-- Node4&#45;&gt;Node6 -->
<g id="edge5_Node000004_Node000006" class="edge">
<title>Node4&#45;&gt;Node6</title>
<g id="a_edge5_Node000004_Node000006"><a xlink:title=" ">
<path fill="none" stroke="#63b8ff" d="M377.17,-174.07C419.38,-169.17 498.61,-157.26 561.5,-132 605.22,-114.44 628.62,-117.18 651.5,-76 659.71,-61.23 652.07,-42.87 643.62,-29.44"/>
<polygon fill="#63b8ff" stroke="#63b8ff" points="646.69,-27.73 638.11,-21.51 640.94,-31.72 646.69,-27.73"/>
</a>
</g>
</g>
<!-- Node7 -->
<g id="Node000007" class="node">
<title>Node7</title>
<g id="a_Node000007"><a xlink:title=" ">
<polygon fill="#e0e0e0" stroke="#999999" points="433.5,-20 393.5,-20 393.5,0 433.5,0 433.5,-20"/>
<text text-anchor="middle" x="413.5" y="-6.5" font-family="Helvetica,sans-Serif" font-size="10.00">string</text>
</a>
</g>
</g>
<!-- Node4&#45;&gt;Node7 -->
<g id="edge6_Node000004_Node000007" class="edge">
<title>Node4&#45;&gt;Node7</title>
<g id="a_edge6_Node000004_Node000007"><a xlink:title=" ">
<path fill="none" stroke="#63b8ff" d="M351.24,-167.6C361.67,-141.35 391.3,-66.84 405.59,-30.89"/>
<polygon fill="#63b8ff" stroke="#63b8ff" points="408.8,-32.29 409.24,-21.7 402.3,-29.7 408.8,-32.29"/>
</a>
</g>
</g>
<!-- Node8 -->
<g id="Node000008" class="node">
<title>Node8</title>
<g id="a_Node000008"><a xlink:title=" ">
<polygon fill="#e0e0e0" stroke="#999999" points="302.88,-20 220.12,-20 220.12,0 302.88,0 302.88,-20"/>
<text text-anchor="middle" x="261.5" y="-6.5" font-family="Helvetica,sans-Serif" font-size="10.00">unordered_map</text>
</a>
</g>
</g>
<!-- Node4&#45;&gt;Node8 -->
<g id="edge7_Node000004_Node000008" class="edge">
<title>Node4&#45;&gt;Node8</title>
<g id="a_edge7_Node000004_Node000008"><a xlink:title=" ">
<path fill="none" stroke="#63b8ff" d="M331.58,-167.69C307,-152.26 260.73,-118.82 242.5,-76 236.17,-61.13 242.12,-43.48 248.99,-30.33"/>
<polygon fill="#63b8ff" stroke="#63b8ff" points="251.94,-32.21 253.96,-21.81 245.89,-28.68 251.94,-32.21"/>
</a>
</g>
</g>
<!-- Node9 -->
<g id="Node000009" class="node">
<title>Node9</title>
<g id="a_Node000009"><a xlink:href="_command_8h.html" target="_top" xlink:title=" ">
<polygon fill="white" stroke="#666666" points="119.12,-76 49.88,-76 49.88,-56 119.12,-56 119.12,-76"/>
<text text-anchor="middle" x="84.5" y="-62.5" font-family="Helvetica,sans-Serif" font-size="10.00">Command.h</text>
</a>
</g>
</g>
<!-- Node4&#45;&gt;Node9 -->
<g id="edge8_Node000004_Node000009" class="edge">
<title>Node4&#45;&gt;Node9</title>
<g id="a_edge8_Node000004_Node000009"><a xlink:title=" ">
<path fill="none" stroke="#63b8ff" d="M317.85,-175.35C259.93,-171.52 134.67,-160.14 103.5,-132 91.08,-120.79 86.6,-101.95 85.07,-87.44"/>
<polygon fill="#63b8ff" stroke="#63b8ff" points="88.57,-87.36 84.45,-77.6 81.58,-87.8 88.57,-87.36"/>
</a>
</g>
</g>
<!-- Node10 -->
<g id="Node000010" class="node">
<title>Node10</title>
<g id="a_Node000010"><a xlink:href="_command_handler_8h.html" target="_top" xlink:title=" ">
<polygon fill="white" stroke="#666666" points="216,-132 113,-132 113,-112 216,-112 216,-132"/>
<text text-anchor="middle" x="164.5" y="-118.5" font-family="Helvetica,sans-Serif" font-size="10.00">CommandHandler.h</text>
</a>
</g>
</g>
<!-- Node4&#45;&gt;Node10 -->
<g id="edge12_Node000004_Node000010" class="edge">
<title>Node4&#45;&gt;Node10</title>
<g id="a_edge12_Node000004_Node000010"><a xlink:title=" ">
<path fill="none" stroke="#63b8ff" d="M317.69,-168.2C287.75,-159.37 241.33,-145.67 207.43,-135.67"/>
<polygon fill="#63b8ff" stroke="#63b8ff" points="208.48,-132.33 197.9,-132.86 206.5,-139.04 208.48,-132.33"/>
</a>
</g>
</g>
<!-- Node11 -->
<g id="Node000011" class="node">
<title>Node11</title>
<g id="a_Node000011"><a xlink:href="_print_callback_8h.html" target="_top" xlink:title=" ">
<polygon fill="white" stroke="#666666" points="485.88,-132 403.12,-132 403.12,-112 485.88,-112 485.88,-132"/>
<text text-anchor="middle" x="444.5" y="-118.5" font-family="Helvetica,sans-Serif" font-size="10.00">PrintCallback.h</text>
</a>
</g>
</g>
<!-- Node4&#45;&gt;Node11 -->
<g id="edge16_Node000004_Node000011" class="edge">
<title>Node4&#45;&gt;Node11</title>
<g id="a_edge16_Node000004_Node000011"><a xlink:title=" ">
<path fill="none" stroke="#63b8ff" d="M364.4,-167.59C379.05,-159.44 400.52,-147.48 417.55,-138"/>
<polygon fill="#63b8ff" stroke="#63b8ff" points="419.11,-141.14 426.15,-133.22 415.71,-135.02 419.11,-141.14"/>
</a>
</g>
</g>
<!-- Node14 -->
<g id="Node000014" class="node">
<title>Node14</title>
<g id="a_Node000014"><a xlink:href="_program_variable_8h.html" target="_top" xlink:title=" ">
<polygon fill="white" stroke="#666666" points="347.25,-76 251.75,-76 251.75,-56 347.25,-56 347.25,-76"/>
<text text-anchor="middle" x="299.5" y="-62.5" font-family="Helvetica,sans-Serif" font-size="10.00">ProgramVariable.h</text>
</a>
</g>
</g>
<!-- Node4&#45;&gt;Node14 -->
<g id="edge23_Node000004_Node000014" class="edge">
<title>Node4&#45;&gt;Node14</title>
<g id="a_edge23_Node000004_Node000014"><a xlink:title=" ">
<path fill="none" stroke="#63b8ff" d="M343.41,-167.62C335.61,-149.76 318.49,-110.53 308.08,-86.67"/>
<polygon fill="#63b8ff" stroke="#63b8ff" points="311.39,-85.51 304.19,-77.74 304.98,-88.31 311.39,-85.51"/>
</a>
</g>
</g>
<!-- Node4&#45;&gt;Node15 -->
<g id="edge28_Node000004_Node000015" class="edge">
<title>Node4&#45;&gt;Node15</title>
<g id="a_edge28_Node000004_Node000015"><a xlink:title=" ">
<path fill="none" stroke="#63b8ff" d="M376.98,-168.2C408.75,-158.73 459.3,-143.65 493.17,-133.54"/>
<polygon fill="#63b8ff" stroke="#63b8ff" points="493.94,-136.96 502.52,-130.75 491.94,-130.26 493.94,-136.96"/>
</a>
</g>
</g>
<!-- Node9&#45;&gt;Node3 -->
<g id="edge10_Node000009_Node000003" class="edge">
<title>Node9&#45;&gt;Node3</title>
<g id="a_edge10_Node000009_Node000003"><a xlink:title=" ">
<path fill="none" stroke="#63b8ff" d="M88.51,-55.59C91.41,-48.78 95.44,-39.32 99.04,-30.86"/>
<polygon fill="#63b8ff" stroke="#63b8ff" points="102.25,-32.26 102.95,-21.69 95.81,-29.52 102.25,-32.26"/>
</a>
</g>
</g>
<!-- Node9&#45;&gt;Node5 -->
<g id="edge9_Node000009_Node000005" class="edge">
<title>Node9&#45;&gt;Node5</title>
<g id="a_edge9_Node000009_Node000005"><a xlink:title=" ">
<path fill="none" stroke="#63b8ff" d="M73.53,-55.59C64.58,-47.93 51.73,-36.91 41.04,-27.75"/>
<polygon fill="#63b8ff" stroke="#63b8ff" points="43.37,-25.13 33.5,-21.28 38.81,-30.45 43.37,-25.13"/>
</a>
</g>
</g>
<!-- Node9&#45;&gt;Node7 -->
<g id="edge11_Node000009_Node000007" class="edge">
<title>Node9&#45;&gt;Node7</title>
<g id="a_edge11_Node000009_Node000007"><a xlink:title=" ">
<path fill="none" stroke="#63b8ff" d="M119.4,-59.27C183.74,-48.71 320.12,-26.33 381.9,-16.19"/>
<polygon fill="#63b8ff" stroke="#63b8ff" points="382.43,-19.65 391.73,-14.57 381.29,-12.74 382.43,-19.65"/>
</a>
</g>
</g>
<!-- Node10&#45;&gt;Node3 -->
<g id="edge14_Node000010_Node000003" class="edge">
<title>Node10&#45;&gt;Node3</title>
<g id="a_edge14_Node000010_Node000003"><a xlink:title=" ">
<path fill="none" stroke="#63b8ff" d="M159.64,-111.62C150.34,-93.68 129.87,-54.17 117.52,-30.35"/>
<polygon fill="#63b8ff" stroke="#63b8ff" points="120.75,-28.97 113.04,-21.7 114.54,-32.19 120.75,-28.97"/>
</a>
</g>
</g>
<!-- Node10&#45;&gt;Node8 -->
<g id="edge13_Node000010_Node000008" class="edge">
<title>Node10&#45;&gt;Node8</title>
<g id="a_edge13_Node000010_Node000008"><a xlink:title=" ">
<path fill="none" stroke="#63b8ff" d="M169.94,-111.64C177.8,-98.5 193.18,-74.18 209.5,-56 218.81,-45.63 230.43,-35.36 240.33,-27.26"/>
<polygon fill="#63b8ff" stroke="#63b8ff" points="242.34,-30.14 247.98,-21.17 237.98,-24.66 242.34,-30.14"/>
</a>
</g>
</g>
<!-- Node10&#45;&gt;Node9 -->
<g id="edge15_Node000010_Node000009" class="edge">
<title>Node10&#45;&gt;Node9</title>
<g id="a_edge15_Node000010_Node000009"><a xlink:title=" ">
<path fill="none" stroke="#63b8ff" d="M150.57,-111.59C138.82,-103.67 121.77,-92.16 107.93,-82.82"/>
<polygon fill="#63b8ff" stroke="#63b8ff" points="110.04,-80.02 99.8,-77.33 106.13,-85.82 110.04,-80.02"/>
</a>
</g>
</g>
<!-- Node11&#45;&gt;Node6 -->
<g id="edge17_Node000011_Node000006" class="edge">
<title>Node11&#45;&gt;Node6</title>
<g id="a_edge17_Node000011_Node000006"><a xlink:title=" ">
<path fill="none" stroke="#63b8ff" d="M486.24,-113.24C526.68,-104.99 584.36,-91.08 601.5,-76 614.62,-64.46 621.8,-45.69 625.6,-31.28"/>
<polygon fill="#63b8ff" stroke="#63b8ff" points="628.92,-32.45 627.71,-21.93 622.09,-30.91 628.92,-32.45"/>
</a>
</g>
</g>
<!-- Node11&#45;&gt;Node7 -->
<g id="edge18_Node000011_Node000007" class="edge">
<title>Node11&#45;&gt;Node7</title>
<g id="a_edge18_Node000011_Node000007"><a xlink:title=" ">
<path fill="none" stroke="#63b8ff" d="M441.86,-111.62C436.87,-93.92 425.97,-55.24 419.23,-31.32"/>
<polygon fill="#63b8ff" stroke="#63b8ff" points="422.63,-30.49 416.55,-21.81 415.89,-32.39 422.63,-30.49"/>
</a>
</g>
</g>
<!-- Node11&#45;&gt;Node12 -->
<g id="edge19_Node000011_Node000012" class="edge">
<title>Node11&#45;&gt;Node12</title>
<g id="a_edge19_Node000011_Node000012"><a xlink:title=" ">
<path fill="none" stroke="#63b8ff" d="M466.45,-111.59C486.2,-103.13 515.49,-90.58 537.97,-80.94"/>
<polygon fill="#63b8ff" stroke="#63b8ff" points="539.18,-84.23 546.99,-77.08 536.42,-77.8 539.18,-84.23"/>
</a>
</g>
</g>
<!-- Node12&#45;&gt;Node6 -->
<g id="edge20_Node000012_Node000006" class="edge">
<title>Node12&#45;&gt;Node6</title>
<g id="a_edge20_Node000012_Node000006"><a xlink:title=" ">
<path fill="none" stroke="#63b8ff" d="M580.78,-55.59C589.07,-48.01 600.95,-37.13 610.9,-28.02"/>
<polygon fill="#63b8ff" stroke="#63b8ff" points="613.21,-30.65 618.22,-21.32 608.48,-25.49 613.21,-30.65"/>
</a>
</g>
</g>
<!-- Node12&#45;&gt;Node7 -->
<g id="edge21_Node000012_Node000007" class="edge">
<title>Node12&#45;&gt;Node7</title>
<g id="a_edge21_Node000012_Node000007"><a xlink:title=" ">
<path fill="none" stroke="#63b8ff" d="M548.01,-57.26C520.94,-47.95 475.34,-32.27 444.84,-21.78"/>
<polygon fill="#63b8ff" stroke="#63b8ff" points="445.98,-18.47 435.39,-18.53 443.7,-25.09 445.98,-18.47"/>
</a>
</g>
</g>
<!-- Node12&#45;&gt;Node13 -->
<g id="edge22_Node000012_Node000013" class="edge">
<title>Node12&#45;&gt;Node13</title>
<g id="a_edge22_Node000012_Node000013"><a xlink:title=" ">
<path fill="none" stroke="#63b8ff" d="M568.93,-55.59C567.82,-48.93 566.29,-39.75 564.91,-31.44"/>
<polygon fill="#63b8ff" stroke="#63b8ff" points="568.39,-31.08 563.3,-21.79 561.49,-32.23 568.39,-31.08"/>
</a>
</g>
</g>
<!-- Node14&#45;&gt;Node3 -->
<g id="edge25_Node000014_Node000003" class="edge">
<title>Node14&#45;&gt;Node3</title>
<g id="a_edge25_Node000014_Node000003"><a xlink:title=" ">
<path fill="none" stroke="#63b8ff" d="M266.06,-55.59C234.26,-46.65 186.24,-33.15 151.38,-23.34"/>
<polygon fill="#63b8ff" stroke="#63b8ff" points="152.59,-20.05 142.02,-20.71 150.7,-26.78 152.59,-20.05"/>
</a>
</g>
</g>
<!-- Node14&#45;&gt;Node7 -->
<g id="edge24_Node000014_Node000007" class="edge">
<title>Node14&#45;&gt;Node7</title>
<g id="a_edge24_Node000014_Node000007"><a xlink:title=" ">
<path fill="none" stroke="#63b8ff" d="M319.36,-55.59C336.99,-47.24 363.01,-34.92 383.23,-25.34"/>
<polygon fill="#63b8ff" stroke="#63b8ff" points="384.58,-28.57 392.12,-21.13 381.58,-22.25 384.58,-28.57"/>
</a>
</g>
</g>
<!-- Node14&#45;&gt;Node8 -->
<g id="edge27_Node000014_Node000008" class="edge">
<title>Node14&#45;&gt;Node8</title>
<g id="a_edge27_Node000014_Node000008"><a xlink:title=" ">
<path fill="none" stroke="#63b8ff" d="M292.88,-55.59C287.81,-48.39 280.66,-38.23 274.47,-29.43"/>
<polygon fill="#63b8ff" stroke="#63b8ff" points="277.53,-27.7 268.91,-21.54 271.81,-31.73 277.53,-27.7"/>
</a>
</g>
</g>
<!-- Node14&#45;&gt;Node13 -->
<g id="edge26_Node000014_Node000013" class="edge">
<title>Node14&#45;&gt;Node13</title>
<g id="a_edge26_Node000014_Node000013"><a xlink:title=" ">
<path fill="none" stroke="#63b8ff" d="M345.44,-55.53C396.31,-45.05 477.33,-28.35 524.36,-18.66"/>
<polygon fill="#63b8ff" stroke="#63b8ff" points="524.97,-22.1 534.06,-16.66 523.56,-15.25 524.97,-22.1"/>
</a>
</g>
</g>
<!-- Node15&#45;&gt;Node6 -->
<g id="edge29_Node000015_Node000006" class="edge">
<title>Node15&#45;&gt;Node6</title>
<g id="a_edge29_Node000015_Node000006"><a xlink:title=" ">
<path fill="none" stroke="#63b8ff" d="M552.72,-118.34C577.99,-114.12 616.4,-103.34 634.5,-76 643.2,-62.86 640.96,-44.79 637.1,-31.04"/>
<polygon fill="#63b8ff" stroke="#63b8ff" points="640.48,-30.12 634.01,-21.73 633.84,-32.32 640.48,-30.12"/>
</a>
</g>
</g>
<!-- Node15&#45;&gt;Node7 -->
<g id="edge30_Node000015_Node000007" class="edge">
<title>Node15&#45;&gt;Node7</title>
<g id="a_edge30_Node000015_Node000007"><a xlink:title=" ">
<path fill="none" stroke="#63b8ff" d="M515.02,-111.67C502.88,-103.01 484.79,-89.46 470.5,-76 454.85,-61.26 438.87,-42.67 427.83,-29.15"/>
<polygon fill="#63b8ff" stroke="#63b8ff" points="430.68,-27.1 421.68,-21.5 425.22,-31.49 430.68,-27.1"/>
</a>
</g>
</g>
<!-- Node16 -->
<g id="Node000016" class="node">
<title>Node16</title>
<g id="a_Node000016"><a xlink:href="_token_8h.html" target="_top" xlink:title=" ">
<polygon fill="white" stroke="#666666" points="529.75,-76 479.25,-76 479.25,-56 529.75,-56 529.75,-76"/>
<text text-anchor="middle" x="504.5" y="-62.5" font-family="Helvetica,sans-Serif" font-size="10.00">Token.h</text>
</a>
</g>
</g>
<!-- Node15&#45;&gt;Node16 -->
<g id="edge31_Node000015_Node000016" class="edge">
<title>Node15&#45;&gt;Node16</title>
<g id="a_edge31_Node000015_Node000016"><a xlink:title=" ">
<path fill="none" stroke="#63b8ff" d="M524.32,-111.59C521.26,-104.7 516.99,-95.1 513.2,-86.57"/>
<polygon fill="#63b8ff" stroke="#63b8ff" points="516.51,-85.4 509.25,-77.68 510.11,-88.24 516.51,-85.4"/>
</a>
</g>
</g>
<!-- Node16&#45;&gt;Node6 -->
<g id="edge32_Node000016_Node000006" class="edge">
<title>Node16&#45;&gt;Node6</title>
<g id="a_edge32_Node000016_Node000006"><a xlink:title=" ">
<path fill="none" stroke="#63b8ff" d="M526.27,-55.59C545.87,-47.13 574.93,-34.58 597.22,-24.94"/>
<polygon fill="#63b8ff" stroke="#63b8ff" points="598.38,-28.26 606.17,-21.08 595.6,-21.83 598.38,-28.26"/>
</a>
</g>
</g>
<!-- Node16&#45;&gt;Node7 -->
<g id="edge33_Node000016_Node000007" class="edge">
<title>Node16&#45;&gt;Node7</title>
<g id="a_edge33_Node000016_Node000007"><a xlink:title=" ">
<path fill="none" stroke="#63b8ff" d="M488.65,-55.59C475.03,-47.51 455.14,-35.71 439.24,-26.27"/>
<polygon fill="#63b8ff" stroke="#63b8ff" points="441.16,-23.35 430.78,-21.25 437.59,-29.37 441.16,-23.35"/>
</a>
</g>
</g>
<!-- Node16&#45;&gt;Node8 -->
<g id="edge34_Node000016_Node000008" class="edge">
<title>Node16&#45;&gt;Node8</title>
<g id="a_edge34_Node000016_Node000008"><a xlink:title=" ">
<path fill="none" stroke="#63b8ff" d="M478.95,-59.32C440.1,-50.69 365.29,-34.06 314.39,-22.75"/>
<polygon fill="#63b8ff" stroke="#63b8ff" points="315.27,-19.36 304.75,-20.61 313.75,-26.2 315.27,-19.36"/>
</a>
</g>
</g>
<!-- Node17&#45;&gt;Node4 -->
<g id="edge38_Node000017_Node000004" class="edge">
<title>Node17&#45;&gt;Node4</title>
<g id="a_edge38_Node000017_Node000004"><a xlink:title=" ">
<path fill="none" stroke="#63b8ff" d="M444.12,-223.59C425.94,-215.21 399.07,-202.8 378.28,-193.21"/>
<polygon fill="#63b8ff" stroke="#63b8ff" points="379.96,-190.13 369.41,-189.11 377.03,-196.48 379.96,-190.13"/>
</a>
</g>
</g>
</g>
</svg>
