<?xml version="1.0" encoding="UTF-8" standalone="no"?>
<!DOCTYPE svg PUBLIC "-//W3C//DTD SVG 1.1//EN"
 "http://www.w3.org/Graphics/SVG/1.1/DTD/svg11.dtd">
<!-- Generated by graphviz version 12.2.1 (20241206.2353)
 -->
<!-- Title: C:/Users/emilly/Documents/Lucca/Projetos/Cpp/NikiScript/src/NikiScript.cpp Pages: 1 -->
<svg width="766pt" height="332pt"
 viewBox="0.00 0.00 765.85 332.00" xmlns="http://www.w3.org/2000/svg" xmlns:xlink="http://www.w3.org/1999/xlink">
<g id="graph0" class="graph" transform="scale(1 1) rotate(0) translate(4 328)">
<title>C:/Users/emilly/Documents/Lucca/Projetos/Cpp/NikiScript/src/NikiScript.cpp</title>
<!-- Node1 -->
<g id="Node000001" class="node">
<title>Node1</title>
<g id="a_Node000001"><a xlink:title=" ">
<polygon fill="#999999" stroke="#666666" points="611.35,-324 460.35,-324 460.35,-280 611.35,-280 611.35,-324"/>
<text text-anchor="start" x="468.35" y="-310.5" font-family="Helvetica,sans-Serif" font-size="10.00">C:/Users/emilly/Documents</text>
<text text-anchor="start" x="468.35" y="-298.5" font-family="Helvetica,sans-Serif" font-size="10.00">/Lucca/Projetos/Cpp/NikiScript</text>
<text text-anchor="middle" x="535.85" y="-286.5" font-family="Helvetica,sans-Serif" font-size="10.00">/src/NikiScript.cpp</text>
</a>
</g>
</g>
<!-- Node2 -->
<g id="Node000002" class="node">
<title>Node2</title>
<g id="a_Node000002"><a xlink:href="_niki_script_8h.html" target="_top" xlink:title=" ">
<polygon fill="white" stroke="#666666" points="395.35,-244 328.35,-244 328.35,-224 395.35,-224 395.35,-244"/>
<text text-anchor="middle" x="361.85" y="-230.5" font-family="Helvetica,sans-Serif" font-size="10.00">NikiScript.h</text>
</a>
</g>
</g>
<!-- Node1&#45;&gt;Node2 -->
<g id="edge1_Node000001_Node000002" class="edge">
<title>Node1&#45;&gt;Node2</title>
<g id="a_edge1_Node000001_Node000002"><a xlink:title=" ">
<path fill="none" stroke="#63b8ff" d="M479.35,-279.57C452.28,-269.3 420.7,-257.32 397.1,-248.37"/>
<polygon fill="#63b8ff" stroke="#63b8ff" points="398.54,-245.18 387.95,-244.9 396.06,-251.72 398.54,-245.18"/>
</a>
</g>
</g>
<!-- Node12 -->
<g id="Node000012" class="node">
<title>Node12</title>
<g id="a_Node000012"><a xlink:href="_utils_8h.html" target="_top" xlink:title=" ">
<polygon fill="white" stroke="#666666" points="730.1,-76 685.6,-76 685.6,-56 730.1,-56 730.1,-76"/>
<text text-anchor="middle" x="707.85" y="-62.5" font-family="Helvetica,sans-Serif" font-size="10.00">Utils.h</text>
</a>
</g>
</g>
<!-- Node1&#45;&gt;Node12 -->
<g id="edge36_Node000001_Node000012" class="edge">
<title>Node1&#45;&gt;Node12</title>
<g id="a_edge36_Node000001_Node000012"><a xlink:title=" ">
<path fill="none" stroke="#63b8ff" d="M554.43,-279.61C581.29,-248.25 631.91,-187.48 669.85,-132 680.11,-116.99 690.43,-99.11 697.73,-85.9"/>
<polygon fill="#63b8ff" stroke="#63b8ff" points="700.64,-87.86 702.35,-77.41 694.5,-84.52 700.64,-87.86"/>
</a>
</g>
</g>
<!-- Node13 -->
<g id="Node000013" class="node">
<title>Node13</title>
<g id="a_Node000013"><a xlink:title=" ">
<polygon fill="#e0e0e0" stroke="#999999" points="733.47,-20 682.22,-20 682.22,0 733.47,0 733.47,-20"/>
<text text-anchor="middle" x="707.85" y="-6.5" font-family="Helvetica,sans-Serif" font-size="10.00">sstream</text>
</a>
</g>
</g>
<!-- Node1&#45;&gt;Node13 -->
<g id="edge35_Node000001_Node000013" class="edge">
<title>Node1&#45;&gt;Node13</title>
<g id="a_edge35_Node000001_Node000013"><a xlink:title=" ">
<path fill="none" stroke="#63b8ff" d="M611.63,-290.97C675.94,-277.71 757.85,-247.39 757.85,-179 757.85,-179 757.85,-179 757.85,-121 757.85,-90.9 751.77,-83.18 738.85,-56 734.44,-46.72 728.21,-37.24 722.49,-29.39"/>
<polygon fill="#63b8ff" stroke="#63b8ff" points="725.46,-27.5 716.62,-21.66 719.88,-31.74 725.46,-27.5"/>
</a>
</g>
</g>
<!-- Node15 -->
<g id="Node000015" class="node">
<title>Node15</title>
<g id="a_Node000015"><a xlink:href="_lexer_8h.html" target="_top" xlink:title=" ">
<polygon fill="white" stroke="#666666" points="559.97,-132 511.72,-132 511.72,-112 559.97,-112 559.97,-132"/>
<text text-anchor="middle" x="535.85" y="-118.5" font-family="Helvetica,sans-Serif" font-size="10.00">Lexer.h</text>
</a>
</g>
</g>
<!-- Node1&#45;&gt;Node15 -->
<g id="edge39_Node000001_Node000015" class="edge">
<title>Node1&#45;&gt;Node15</title>
<g id="a_edge39_Node000001_Node000015"><a xlink:title=" ">
<path fill="none" stroke="#63b8ff" d="M535.85,-279.53C535.85,-244.93 535.85,-177.29 535.85,-143.39"/>
<polygon fill="#63b8ff" stroke="#63b8ff" points="539.35,-143.71 535.85,-133.71 532.35,-143.71 539.35,-143.71"/>
</a>
</g>
</g>
<!-- Node17 -->
<g id="Node000017" class="node">
<title>Node17</title>
<g id="a_Node000017"><a xlink:href="_parser_8h.html" target="_top" xlink:title=" ">
<polygon fill="white" stroke="#666666" points="506.22,-244 453.47,-244 453.47,-224 506.22,-224 506.22,-244"/>
<text text-anchor="middle" x="479.85" y="-230.5" font-family="Helvetica,sans-Serif" font-size="10.00">Parser.h</text>
</a>
</g>
</g>
<!-- Node1&#45;&gt;Node17 -->
<g id="edge37_Node000001_Node000017" class="edge">
<title>Node1&#45;&gt;Node17</title>
<g id="a_edge37_Node000001_Node000017"><a xlink:title=" ">
<path fill="none" stroke="#63b8ff" d="M517.82,-279.75C510.56,-271.2 502.27,-261.42 495.29,-253.2"/>
<polygon fill="#63b8ff" stroke="#63b8ff" points="497.96,-250.93 488.82,-245.57 492.62,-255.46 497.96,-250.93"/>
</a>
</g>
</g>
<!-- Node3 -->
<g id="Node000003" class="node">
<title>Node3</title>
<g id="a_Node000003"><a xlink:title=" ">
<polygon fill="#e0e0e0" stroke="#999999" points="181.6,-20 116.1,-20 116.1,0 181.6,0 181.6,-20"/>
<text text-anchor="middle" x="148.85" y="-6.5" font-family="Helvetica,sans-Serif" font-size="10.00">string_view</text>
</a>
</g>
</g>
<!-- Node2&#45;&gt;Node3 -->
<g id="edge2_Node000002_Node000003" class="edge">
<title>Node2&#45;&gt;Node3</title>
<g id="a_edge2_Node000002_Node000003"><a xlink:title=" ">
<path fill="none" stroke="#63b8ff" d="M328.09,-232.17C248.48,-228.09 52,-204.86 2.85,-76 -13.95,-31.96 55.84,-17.75 104.69,-13.17"/>
<polygon fill="#63b8ff" stroke="#63b8ff" points="104.79,-16.67 114.48,-12.36 104.22,-9.69 104.79,-16.67"/>
</a>
</g>
</g>
<!-- Node4 -->
<g id="Node000004" class="node">
<title>Node4</title>
<g id="a_Node000004"><a xlink:href="_context_8h.html" target="_top" xlink:title=" ">
<polygon fill="white" stroke="#666666" points="391.22,-188 332.47,-188 332.47,-168 391.22,-168 391.22,-188"/>
<text text-anchor="middle" x="361.85" y="-174.5" font-family="Helvetica,sans-Serif" font-size="10.00">Context.h</text>
</a>
</g>
</g>
<!-- Node2&#45;&gt;Node4 -->
<g id="edge3_Node000002_Node000004" class="edge">
<title>Node2&#45;&gt;Node4</title>
<g id="a_edge3_Node000002_Node000004"><a xlink:title=" ">
<path fill="none" stroke="#63b8ff" d="M361.85,-223.59C361.85,-217.01 361.85,-207.96 361.85,-199.73"/>
<polygon fill="#63b8ff" stroke="#63b8ff" points="365.35,-199.81 361.85,-189.81 358.35,-199.81 365.35,-199.81"/>
</a>
</g>
</g>
<!-- Node5 -->
<g id="Node000005" class="node">
<title>Node5</title>
<g id="a_Node000005"><a xlink:title=" ">
<polygon fill="#e0e0e0" stroke="#999999" points="269.35,-20 226.35,-20 226.35,0 269.35,0 269.35,-20"/>
<text text-anchor="middle" x="247.85" y="-6.5" font-family="Helvetica,sans-Serif" font-size="10.00">vector</text>
</a>
</g>
</g>
<!-- Node4&#45;&gt;Node5 -->
<g id="edge4_Node000004_Node000005" class="edge">
<title>Node4&#45;&gt;Node5</title>
<g id="a_edge4_Node000004_Node000005"><a xlink:title=" ">
<path fill="none" stroke="#63b8ff" d="M332.24,-170.78C310.68,-164.65 282.59,-153.05 266.85,-132 244.84,-102.57 243.89,-57.74 245.59,-31.71"/>
<polygon fill="#63b8ff" stroke="#63b8ff" points="249.07,-32.06 246.46,-21.8 242.1,-31.45 249.07,-32.06"/>
</a>
</g>
</g>
<!-- Node6 -->
<g id="Node000006" class="node">
<title>Node6</title>
<g id="a_Node000006"><a xlink:title=" ">
<polygon fill="#e0e0e0" stroke="#999999" points="567.97,-20 519.72,-20 519.72,0 567.97,0 567.97,-20"/>
<text text-anchor="middle" x="543.85" y="-6.5" font-family="Helvetica,sans-Serif" font-size="10.00">stdint.h</text>
</a>
</g>
</g>
<!-- Node4&#45;&gt;Node6 -->
<g id="edge5_Node000004_Node000006" class="edge">
<title>Node4&#45;&gt;Node6</title>
<g id="a_edge5_Node000004_Node000006"><a xlink:title=" ">
<path fill="none" stroke="#63b8ff" d="M372.15,-167.6C401.81,-140.55 487.65,-62.26 525.52,-27.71"/>
<polygon fill="#63b8ff" stroke="#63b8ff" points="527.51,-30.64 532.54,-21.32 522.79,-25.47 527.51,-30.64"/>
</a>
</g>
</g>
<!-- Node7 -->
<g id="Node000007" class="node">
<title>Node7</title>
<g id="a_Node000007"><a xlink:title=" ">
<polygon fill="#e0e0e0" stroke="#999999" points="434.85,-20 394.85,-20 394.85,0 434.85,0 434.85,-20"/>
<text text-anchor="middle" x="414.85" y="-6.5" font-family="Helvetica,sans-Serif" font-size="10.00">string</text>
</a>
</g>
</g>
<!-- Node4&#45;&gt;Node7 -->
<g id="edge6_Node000004_Node000007" class="edge">
<title>Node4&#45;&gt;Node7</title>
<g id="a_edge6_Node000004_Node000007"><a xlink:title=" ">
<path fill="none" stroke="#63b8ff" d="M367.08,-167.7C371.74,-158.84 378.22,-144.97 380.85,-132 387.55,-98.89 370.11,-88.03 380.85,-56 384.21,-45.97 390.79,-36.39 397.28,-28.66"/>
<polygon fill="#63b8ff" stroke="#63b8ff" points="399.76,-31.13 403.9,-21.38 394.58,-26.43 399.76,-31.13"/>
</a>
</g>
</g>
<!-- Node8 -->
<g id="Node000008" class="node">
<title>Node8</title>
<g id="a_Node000008"><a xlink:title=" ">
<polygon fill="#e0e0e0" stroke="#999999" points="94.22,-76 11.47,-76 11.47,-56 94.22,-56 94.22,-76"/>
<text text-anchor="middle" x="52.85" y="-62.5" font-family="Helvetica,sans-Serif" font-size="10.00">unordered_map</text>
</a>
</g>
</g>
<!-- Node4&#45;&gt;Node8 -->
<g id="edge7_Node000004_Node000008" class="edge">
<title>Node4&#45;&gt;Node8</title>
<g id="a_edge7_Node000004_Node000008"><a xlink:title=" ">
<path fill="none" stroke="#63b8ff" d="M332.37,-176.5C265.87,-174.74 107.01,-166.91 68.85,-132 56.64,-120.84 53.06,-102 52.29,-87.47"/>
<polygon fill="#63b8ff" stroke="#63b8ff" points="55.79,-87.59 52.2,-77.62 48.79,-87.65 55.79,-87.59"/>
</a>
</g>
</g>
<!-- Node9 -->
<g id="Node000009" class="node">
<title>Node9</title>
<g id="a_Node000009"><a xlink:href="_command_8h.html" target="_top" xlink:title=" ">
<polygon fill="white" stroke="#666666" points="219.47,-76 150.22,-76 150.22,-56 219.47,-56 219.47,-76"/>
<text text-anchor="middle" x="184.85" y="-62.5" font-family="Helvetica,sans-Serif" font-size="10.00">Command.h</text>
</a>
</g>
</g>
<!-- Node4&#45;&gt;Node9 -->
<g id="edge8_Node000004_Node000009" class="edge">
<title>Node4&#45;&gt;Node9</title>
<g id="a_edge8_Node000004_Node000009"><a xlink:title=" ">
<path fill="none" stroke="#63b8ff" d="M332.09,-171.69C304.55,-165.66 263.51,-153.69 233.85,-132 217.3,-119.9 203.78,-100.65 195.16,-86.23"/>
<polygon fill="#63b8ff" stroke="#63b8ff" points="198.28,-84.64 190.3,-77.66 192.19,-88.09 198.28,-84.64"/>
</a>
</g>
</g>
<!-- Node10 -->
<g id="Node000010" class="node">
<title>Node10</title>
<g id="a_Node000010"><a xlink:href="_command_handler_8h.html" target="_top" xlink:title=" ">
<polygon fill="white" stroke="#666666" points="181.35,-132 78.35,-132 78.35,-112 181.35,-112 181.35,-132"/>
<text text-anchor="middle" x="129.85" y="-118.5" font-family="Helvetica,sans-Serif" font-size="10.00">CommandHandler.h</text>
</a>
</g>
</g>
<!-- Node4&#45;&gt;Node10 -->
<g id="edge12_Node000004_Node000010" class="edge">
<title>Node4&#45;&gt;Node10</title>
<g id="a_edge12_Node000004_Node000010"><a xlink:title=" ">
<path fill="none" stroke="#63b8ff" d="M331.99,-170.05C294,-161.21 227.78,-145.79 181.52,-135.03"/>
<polygon fill="#63b8ff" stroke="#63b8ff" points="182.51,-131.67 171.98,-132.81 180.93,-138.48 182.51,-131.67"/>
</a>
</g>
</g>
<!-- Node11 -->
<g id="Node000011" class="node">
<title>Node11</title>
<g id="a_Node000011"><a xlink:href="_print_callback_8h.html" target="_top" xlink:title=" ">
<polygon fill="white" stroke="#666666" points="661.22,-132 578.47,-132 578.47,-112 661.22,-112 661.22,-132"/>
<text text-anchor="middle" x="619.85" y="-118.5" font-family="Helvetica,sans-Serif" font-size="10.00">PrintCallback.h</text>
</a>
</g>
</g>
<!-- Node4&#45;&gt;Node11 -->
<g id="edge16_Node000004_Node000011" class="edge">
<title>Node4&#45;&gt;Node11</title>
<g id="a_edge16_Node000004_Node000011"><a xlink:title=" ">
<path fill="none" stroke="#63b8ff" d="M391.69,-170.75C434.58,-161.78 514.26,-145.1 567.18,-134.02"/>
<polygon fill="#63b8ff" stroke="#63b8ff" points="567.82,-137.46 576.89,-131.99 566.39,-130.61 567.82,-137.46"/>
</a>
</g>
</g>
<!-- Node14 -->
<g id="Node000014" class="node">
<title>Node14</title>
<g id="a_Node000014"><a xlink:href="_program_variable_8h.html" target="_top" xlink:title=" ">
<polygon fill="white" stroke="#666666" points="371.6,-132 276.1,-132 276.1,-112 371.6,-112 371.6,-132"/>
<text text-anchor="middle" x="323.85" y="-118.5" font-family="Helvetica,sans-Serif" font-size="10.00">ProgramVariable.h</text>
</a>
</g>
</g>
<!-- Node4&#45;&gt;Node14 -->
<g id="edge23_Node000004_Node000014" class="edge">
<title>Node4&#45;&gt;Node14</title>
<g id="a_edge23_Node000004_Node000014"><a xlink:title=" ">
<path fill="none" stroke="#63b8ff" d="M355.23,-167.59C350.16,-160.39 343.01,-150.23 336.82,-141.43"/>
<polygon fill="#63b8ff" stroke="#63b8ff" points="339.88,-139.7 331.26,-133.54 334.15,-143.73 339.88,-139.7"/>
</a>
</g>
</g>
<!-- Node4&#45;&gt;Node15 -->
<g id="edge28_Node000004_Node000015" class="edge">
<title>Node4&#45;&gt;Node15</title>
<g id="a_edge28_Node000004_Node000015"><a xlink:title=" ">
<path fill="none" stroke="#63b8ff" d="M391.36,-167.84C421.55,-158.47 468.44,-143.92 500.56,-133.95"/>
<polygon fill="#63b8ff" stroke="#63b8ff" points="501.3,-137.39 509.81,-131.08 499.22,-130.7 501.3,-137.39"/>
</a>
</g>
</g>
<!-- Node9&#45;&gt;Node3 -->
<g id="edge10_Node000009_Node000003" class="edge">
<title>Node9&#45;&gt;Node3</title>
<g id="a_edge10_Node000009_Node000003"><a xlink:title=" ">
<path fill="none" stroke="#63b8ff" d="M178.58,-55.59C173.83,-48.47 167.15,-38.45 161.32,-29.72"/>
<polygon fill="#63b8ff" stroke="#63b8ff" points="164.34,-27.94 155.89,-21.56 158.52,-31.82 164.34,-27.94"/>
</a>
</g>
</g>
<!-- Node9&#45;&gt;Node5 -->
<g id="edge9_Node000009_Node000005" class="edge">
<title>Node9&#45;&gt;Node5</title>
<g id="a_edge9_Node000009_Node000005"><a xlink:title=" ">
<path fill="none" stroke="#63b8ff" d="M195.82,-55.59C204.76,-47.93 217.62,-36.91 228.31,-27.75"/>
<polygon fill="#63b8ff" stroke="#63b8ff" points="230.53,-30.45 235.85,-21.28 225.98,-25.13 230.53,-30.45"/>
</a>
</g>
</g>
<!-- Node9&#45;&gt;Node7 -->
<g id="edge11_Node000009_Node000007" class="edge">
<title>Node9&#45;&gt;Node7</title>
<g id="a_edge11_Node000009_Node000007"><a xlink:title=" ">
<path fill="none" stroke="#63b8ff" d="M219.78,-56.8C264.35,-46.33 340.77,-28.39 383.53,-18.35"/>
<polygon fill="#63b8ff" stroke="#63b8ff" points="384.24,-21.78 393.17,-16.09 382.64,-14.97 384.24,-21.78"/>
</a>
</g>
</g>
<!-- Node10&#45;&gt;Node3 -->
<g id="edge14_Node000010_Node000003" class="edge">
<title>Node10&#45;&gt;Node3</title>
<g id="a_edge14_Node000010_Node000003"><a xlink:title=" ">
<path fill="none" stroke="#63b8ff" d="M131.39,-111.74C133.5,-99.13 137.4,-75.85 140.85,-56 142.24,-47.99 143.8,-39.18 145.17,-31.5"/>
<polygon fill="#63b8ff" stroke="#63b8ff" points="148.59,-32.25 146.9,-21.79 141.7,-31.02 148.59,-32.25"/>
</a>
</g>
</g>
<!-- Node10&#45;&gt;Node8 -->
<g id="edge13_Node000010_Node000008" class="edge">
<title>Node10&#45;&gt;Node8</title>
<g id="a_edge13_Node000010_Node000008"><a xlink:title=" ">
<path fill="none" stroke="#63b8ff" d="M116.43,-111.59C105.24,-103.74 89.04,-92.38 75.79,-83.09"/>
<polygon fill="#63b8ff" stroke="#63b8ff" points="77.8,-80.22 67.6,-77.35 73.78,-85.96 77.8,-80.22"/>
</a>
</g>
</g>
<!-- Node10&#45;&gt;Node9 -->
<g id="edge15_Node000010_Node000009" class="edge">
<title>Node10&#45;&gt;Node9</title>
<g id="a_edge15_Node000010_Node000009"><a xlink:title=" ">
<path fill="none" stroke="#63b8ff" d="M139.43,-111.59C147.08,-104.08 158,-93.35 167.22,-84.3"/>
<polygon fill="#63b8ff" stroke="#63b8ff" points="169.61,-86.86 174.3,-77.36 164.71,-81.87 169.61,-86.86"/>
</a>
</g>
</g>
<!-- Node11&#45;&gt;Node6 -->
<g id="edge17_Node000011_Node000006" class="edge">
<title>Node11&#45;&gt;Node6</title>
<g id="a_edge17_Node000011_Node000006"><a xlink:title=" ">
<path fill="none" stroke="#63b8ff" d="M618.02,-111.92C615.03,-98.71 608.17,-73.8 595.85,-56 588.12,-44.84 577,-34.72 567.03,-26.92"/>
<polygon fill="#63b8ff" stroke="#63b8ff" points="569.3,-24.24 559.18,-21.09 565.12,-29.86 569.3,-24.24"/>
</a>
</g>
</g>
<!-- Node11&#45;&gt;Node7 -->
<g id="edge18_Node000011_Node000007" class="edge">
<title>Node11&#45;&gt;Node7</title>
<g id="a_edge18_Node000011_Node000007"><a xlink:title=" ">
<path fill="none" stroke="#63b8ff" d="M602.37,-111.62C566.66,-92.46 485.12,-48.71 442.29,-25.72"/>
<polygon fill="#63b8ff" stroke="#63b8ff" points="444.08,-22.71 433.61,-21.07 440.77,-28.88 444.08,-22.71"/>
</a>
</g>
</g>
<!-- Node11&#45;&gt;Node12 -->
<g id="edge19_Node000011_Node000012" class="edge">
<title>Node11&#45;&gt;Node12</title>
<g id="a_edge19_Node000011_Node000012"><a xlink:title=" ">
<path fill="none" stroke="#63b8ff" d="M635.18,-111.59C648.34,-103.51 667.58,-91.71 682.96,-82.27"/>
<polygon fill="#63b8ff" stroke="#63b8ff" points="684.42,-85.48 691.11,-77.27 680.76,-79.52 684.42,-85.48"/>
</a>
</g>
</g>
<!-- Node12&#45;&gt;Node6 -->
<g id="edge20_Node000012_Node000006" class="edge">
<title>Node12&#45;&gt;Node6</title>
<g id="a_edge20_Node000012_Node000006"><a xlink:title=" ">
<path fill="none" stroke="#63b8ff" d="M685.39,-57.6C658,-48.59 611.39,-33.24 579.18,-22.63"/>
<polygon fill="#63b8ff" stroke="#63b8ff" points="580.47,-19.37 569.88,-19.57 578.28,-26.02 580.47,-19.37"/>
</a>
</g>
</g>
<!-- Node12&#45;&gt;Node7 -->
<g id="edge21_Node000012_Node000007" class="edge">
<title>Node12&#45;&gt;Node7</title>
<g id="a_edge21_Node000012_Node000007"><a xlink:title=" ">
<path fill="none" stroke="#63b8ff" d="M685.34,-60.85C633.57,-51.31 505.89,-27.78 446.36,-16.81"/>
<polygon fill="#63b8ff" stroke="#63b8ff" points="447.03,-13.37 436.56,-15 445.76,-20.26 447.03,-13.37"/>
</a>
</g>
</g>
<!-- Node12&#45;&gt;Node13 -->
<g id="edge22_Node000012_Node000013" class="edge">
<title>Node12&#45;&gt;Node13</title>
<g id="a_edge22_Node000012_Node000013"><a xlink:title=" ">
<path fill="none" stroke="#63b8ff" d="M707.85,-55.59C707.85,-49.01 707.85,-39.96 707.85,-31.73"/>
<polygon fill="#63b8ff" stroke="#63b8ff" points="711.35,-31.81 707.85,-21.81 704.35,-31.81 711.35,-31.81"/>
</a>
</g>
</g>
<!-- Node14&#45;&gt;Node3 -->
<g id="edge25_Node000014_Node000003" class="edge">
<title>Node14&#45;&gt;Node3</title>
<g id="a_edge25_Node000014_Node000003"><a xlink:title=" ">
<path fill="none" stroke="#63b8ff" d="M310.87,-111.59C292.8,-98.6 258.89,-74.68 228.85,-56 211.8,-45.4 192.17,-34.34 176.62,-25.84"/>
<polygon fill="#63b8ff" stroke="#63b8ff" points="178.37,-22.81 167.91,-21.12 175.03,-28.96 178.37,-22.81"/>
</a>
</g>
</g>
<!-- Node14&#45;&gt;Node7 -->
<g id="edge24_Node000014_Node000007" class="edge">
<title>Node14&#45;&gt;Node7</title>
<g id="a_edge24_Node000014_Node000007"><a xlink:title=" ">
<path fill="none" stroke="#63b8ff" d="M325.4,-111.71C328.03,-98.24 334.46,-73.02 347.85,-56 357.62,-43.57 371.8,-33.36 384.59,-25.82"/>
<polygon fill="#63b8ff" stroke="#63b8ff" points="386.08,-29 393.13,-21.09 382.68,-22.88 386.08,-29"/>
</a>
</g>
</g>
<!-- Node14&#45;&gt;Node8 -->
<g id="edge27_Node000014_Node000008" class="edge">
<title>Node14&#45;&gt;Node8</title>
<g id="a_edge27_Node000014_Node000008"><a xlink:title=" ">
<path fill="none" stroke="#63b8ff" d="M276.33,-111.53C228.59,-102.02 155.18,-87.39 105.64,-77.52"/>
<polygon fill="#63b8ff" stroke="#63b8ff" points="106.5,-74.12 96.01,-75.6 105.13,-80.99 106.5,-74.12"/>
</a>
</g>
</g>
<!-- Node14&#45;&gt;Node13 -->
<g id="edge26_Node000014_Node000013" class="edge">
<title>Node14&#45;&gt;Node13</title>
<g id="a_edge26_Node000014_Node000013"><a xlink:title=" ">
<path fill="none" stroke="#63b8ff" d="M356.92,-111.53C428.38,-91.05 596.77,-42.82 671.28,-21.47"/>
<polygon fill="#63b8ff" stroke="#63b8ff" points="671.88,-24.94 680.53,-18.82 669.95,-18.21 671.88,-24.94"/>
</a>
</g>
</g>
<!-- Node15&#45;&gt;Node6 -->
<g id="edge29_Node000015_Node000006" class="edge">
<title>Node15&#45;&gt;Node6</title>
<g id="a_edge29_Node000015_Node000006"><a xlink:title=" ">
<path fill="none" stroke="#63b8ff" d="M536.53,-111.62C537.81,-94.01 540.6,-55.59 542.34,-31.65"/>
<polygon fill="#63b8ff" stroke="#63b8ff" points="545.82,-32.09 543.06,-21.86 538.84,-31.58 545.82,-32.09"/>
</a>
</g>
</g>
<!-- Node15&#45;&gt;Node7 -->
<g id="edge30_Node000015_Node000007" class="edge">
<title>Node15&#45;&gt;Node7</title>
<g id="a_edge30_Node000015_Node000007"><a xlink:title=" ">
<path fill="none" stroke="#63b8ff" d="M525.53,-111.62C505.08,-93.03 459.16,-51.28 433.35,-27.82"/>
<polygon fill="#63b8ff" stroke="#63b8ff" points="436.01,-25.51 426.26,-21.37 431.3,-30.69 436.01,-25.51"/>
</a>
</g>
</g>
<!-- Node16 -->
<g id="Node000016" class="node">
<title>Node16</title>
<g id="a_Node000016"><a xlink:href="_token_8h.html" target="_top" xlink:title=" ">
<polygon fill="white" stroke="#666666" points="440.1,-76 389.6,-76 389.6,-56 440.1,-56 440.1,-76"/>
<text text-anchor="middle" x="414.85" y="-62.5" font-family="Helvetica,sans-Serif" font-size="10.00">Token.h</text>
</a>
</g>
</g>
<!-- Node15&#45;&gt;Node16 -->
<g id="edge31_Node000015_Node000016" class="edge">
<title>Node15&#45;&gt;Node16</title>
<g id="a_edge31_Node000015_Node000016"><a xlink:title=" ">
<path fill="none" stroke="#63b8ff" d="M514.77,-111.59C495.89,-103.17 467.93,-90.69 446.38,-81.07"/>
<polygon fill="#63b8ff" stroke="#63b8ff" points="448.03,-77.98 437.47,-77.1 445.18,-84.37 448.03,-77.98"/>
</a>
</g>
</g>
<!-- Node16&#45;&gt;Node5 -->
<g id="edge34_Node000016_Node000005" class="edge">
<title>Node16&#45;&gt;Node5</title>
<g id="a_edge34_Node000016_Node000005"><a xlink:title=" ">
<path fill="none" stroke="#63b8ff" d="M389.12,-56.68C359.95,-47.25 312.32,-31.85 280.54,-21.57"/>
<polygon fill="#63b8ff" stroke="#63b8ff" points="281.64,-18.25 271.05,-18.5 279.49,-24.91 281.64,-18.25"/>
</a>
</g>
</g>
<!-- Node16&#45;&gt;Node6 -->
<g id="edge32_Node000016_Node000006" class="edge">
<title>Node16&#45;&gt;Node6</title>
<g id="a_edge32_Node000016_Node000006"><a xlink:title=" ">
<path fill="none" stroke="#63b8ff" d="M437.32,-55.59C457.63,-47.09 487.8,-34.46 510.85,-24.81"/>
<polygon fill="#63b8ff" stroke="#63b8ff" points="511.93,-28.15 519.81,-21.06 509.23,-21.7 511.93,-28.15"/>
</a>
</g>
</g>
<!-- Node16&#45;&gt;Node7 -->
<g id="edge33_Node000016_Node000007" class="edge">
<title>Node16&#45;&gt;Node7</title>
<g id="a_edge33_Node000016_Node000007"><a xlink:title=" ">
<path fill="none" stroke="#63b8ff" d="M414.85,-55.59C414.85,-49.01 414.85,-39.96 414.85,-31.73"/>
<polygon fill="#63b8ff" stroke="#63b8ff" points="418.35,-31.81 414.85,-21.81 411.35,-31.81 418.35,-31.81"/>
</a>
</g>
</g>
<!-- Node17&#45;&gt;Node4 -->
<g id="edge38_Node000017_Node000004" class="edge">
<title>Node17&#45;&gt;Node4</title>
<g id="a_edge38_Node000017_Node000004"><a xlink:title=" ">
<path fill="none" stroke="#63b8ff" d="M459.29,-223.59C440.96,-215.21 413.86,-202.8 392.89,-193.21"/>
<polygon fill="#63b8ff" stroke="#63b8ff" points="394.49,-190.09 383.94,-189.11 391.57,-196.45 394.49,-190.09"/>
</a>
</g>
</g>
</g>
</svg>
