<?xml version="1.0" encoding="UTF-8" standalone="no"?>
<!DOCTYPE svg PUBLIC "-//W3C//DTD SVG 1.1//EN"
 "http://www.w3.org/Graphics/SVG/1.1/DTD/svg11.dtd">
<!-- Generated by graphviz version 12.2.1 (20241206.2353)
 -->
<!-- Title: C:/Users/emilly/Documents/Lucca/Projetos/Cpp/NikiScript/src/NikiScript.h Pages: 1 -->
<svg width="638pt" height="276pt"
 viewBox="0.00 0.00 637.62 276.00" xmlns="http://www.w3.org/2000/svg" xmlns:xlink="http://www.w3.org/1999/xlink">
<g id="graph0" class="graph" transform="scale(1 1) rotate(0) translate(4 272)">
<title>C:/Users/emilly/Documents/Lucca/Projetos/Cpp/NikiScript/src/NikiScript.h</title>
<!-- Node1 -->
<g id="Node000001" class="node">
<title>Node1</title>
<g id="a_Node000001"><a xlink:title=" ">
<polygon fill="#999999" stroke="#666666" points="577.62,-268 426.62,-268 426.62,-224 577.62,-224 577.62,-268"/>
<text text-anchor="start" x="434.62" y="-254.5" font-family="Helvetica,sans-Serif" font-size="10.00">C:/Users/emilly/Documents</text>
<text text-anchor="start" x="434.62" y="-242.5" font-family="Helvetica,sans-Serif" font-size="10.00">/Lucca/Projetos/Cpp/NikiScript</text>
<text text-anchor="middle" x="502.12" y="-230.5" font-family="Helvetica,sans-Serif" font-size="10.00">/src/NikiScript.h</text>
</a>
</g>
</g>
<!-- Node2 -->
<g id="Node000002" class="node">
<title>Node2</title>
<g id="a_Node000002"><a xlink:title=" ">
<polygon fill="#e0e0e0" stroke="#999999" points="541.88,-20 476.38,-20 476.38,0 541.88,0 541.88,-20"/>
<text text-anchor="middle" x="509.12" y="-6.5" font-family="Helvetica,sans-Serif" font-size="10.00">string_view</text>
</a>
</g>
</g>
<!-- Node1&#45;&gt;Node2 -->
<g id="edge1_Node000001_Node000002" class="edge">
<title>Node1&#45;&gt;Node2</title>
<g id="a_edge1_Node000001_Node000002"><a xlink:title=" ">
<path fill="none" stroke="#63b8ff" d="M520.86,-223.73C546.02,-193.46 589.19,-135.05 603.12,-76 605.17,-67.35 607.86,-63.52 603.12,-56 592,-38.34 571.81,-27.46 552.99,-20.83"/>
<polygon fill="#63b8ff" stroke="#63b8ff" points="554.18,-17.54 543.59,-17.86 552.07,-24.21 554.18,-17.54"/>
</a>
</g>
</g>
<!-- Node3 -->
<g id="Node000003" class="node">
<title>Node3</title>
<g id="a_Node000003"><a xlink:href="_context_8h.html" target="_top" xlink:title=" ">
<polygon fill="white" stroke="#666666" points="409.5,-188 350.75,-188 350.75,-168 409.5,-168 409.5,-188"/>
<text text-anchor="middle" x="380.12" y="-174.5" font-family="Helvetica,sans-Serif" font-size="10.00">Context.h</text>
</a>
</g>
</g>
<!-- Node1&#45;&gt;Node3 -->
<g id="edge2_Node000001_Node000003" class="edge">
<title>Node1&#45;&gt;Node3</title>
<g id="a_edge2_Node000001_Node000003"><a xlink:title=" ">
<path fill="none" stroke="#63b8ff" d="M462.52,-223.57C444.48,-213.81 423.59,-202.51 407.35,-193.73"/>
<polygon fill="#63b8ff" stroke="#63b8ff" points="409.23,-190.77 398.77,-189.09 405.9,-196.92 409.23,-190.77"/>
</a>
</g>
</g>
<!-- Node4 -->
<g id="Node000004" class="node">
<title>Node4</title>
<g id="a_Node000004"><a xlink:title=" ">
<polygon fill="#e0e0e0" stroke="#999999" points="629.62,-20 586.62,-20 586.62,0 629.62,0 629.62,-20"/>
<text text-anchor="middle" x="608.12" y="-6.5" font-family="Helvetica,sans-Serif" font-size="10.00">vector</text>
</a>
</g>
</g>
<!-- Node3&#45;&gt;Node4 -->
<g id="edge3_Node000003_Node000004" class="edge">
<title>Node3&#45;&gt;Node4</title>
<g id="a_edge3_Node000003_Node000004"><a xlink:title=" ">
<path fill="none" stroke="#63b8ff" d="M409.87,-177.67C451.24,-177.07 526.53,-170.26 575.12,-132 605.4,-108.16 609.59,-59.46 609.29,-31.66"/>
<polygon fill="#63b8ff" stroke="#63b8ff" points="612.79,-31.59 608.95,-21.72 605.79,-31.83 612.79,-31.59"/>
</a>
</g>
</g>
<!-- Node5 -->
<g id="Node000005" class="node">
<title>Node5</title>
<g id="a_Node000005"><a xlink:title=" ">
<polygon fill="#e0e0e0" stroke="#999999" points="48.25,-20 0,-20 0,0 48.25,0 48.25,-20"/>
<text text-anchor="middle" x="24.12" y="-6.5" font-family="Helvetica,sans-Serif" font-size="10.00">stdint.h</text>
</a>
</g>
</g>
<!-- Node3&#45;&gt;Node5 -->
<g id="edge4_Node000003_Node000005" class="edge">
<title>Node3&#45;&gt;Node5</title>
<g id="a_edge4_Node000003_Node000005"><a xlink:title=" ">
<path fill="none" stroke="#63b8ff" d="M350.33,-175.68C279.04,-172.09 100.74,-160.45 49.12,-132 20.67,-116.31 13.24,-106.53 2.12,-76 -3.48,-60.61 3.28,-43 10.75,-29.99"/>
<polygon fill="#63b8ff" stroke="#63b8ff" points="13.68,-31.89 16.11,-21.58 7.78,-28.13 13.68,-31.89"/>
</a>
</g>
</g>
<!-- Node6 -->
<g id="Node000006" class="node">
<title>Node6</title>
<g id="a_Node000006"><a xlink:title=" ">
<polygon fill="#e0e0e0" stroke="#999999" points="235.12,-20 195.12,-20 195.12,0 235.12,0 235.12,-20"/>
<text text-anchor="middle" x="215.12" y="-6.5" font-family="Helvetica,sans-Serif" font-size="10.00">string</text>
</a>
</g>
</g>
<!-- Node3&#45;&gt;Node6 -->
<g id="edge5_Node000003_Node000006" class="edge">
<title>Node3&#45;&gt;Node6</title>
<g id="a_edge5_Node000003_Node000006"><a xlink:title=" ">
<path fill="none" stroke="#63b8ff" d="M370.78,-167.6C344.01,-140.66 266.73,-62.92 232.17,-28.15"/>
<polygon fill="#63b8ff" stroke="#63b8ff" points="234.97,-26 225.43,-21.37 230,-30.93 234.97,-26"/>
</a>
</g>
</g>
<!-- Node7 -->
<g id="Node000007" class="node">
<title>Node7</title>
<g id="a_Node000007"><a xlink:title=" ">
<polygon fill="#e0e0e0" stroke="#999999" points="415.5,-20 332.75,-20 332.75,0 415.5,0 415.5,-20"/>
<text text-anchor="middle" x="374.12" y="-6.5" font-family="Helvetica,sans-Serif" font-size="10.00">unordered_map</text>
</a>
</g>
</g>
<!-- Node3&#45;&gt;Node7 -->
<g id="edge6_Node000003_Node000007" class="edge">
<title>Node3&#45;&gt;Node7</title>
<g id="a_edge6_Node000003_Node000007"><a xlink:title=" ">
<path fill="none" stroke="#63b8ff" d="M384.47,-167.76C393.48,-147.32 412.45,-96.89 401.12,-56 398.55,-46.7 393.49,-37.4 388.43,-29.68"/>
<polygon fill="#63b8ff" stroke="#63b8ff" points="391.3,-27.67 382.66,-21.53 385.58,-31.72 391.3,-27.67"/>
</a>
</g>
</g>
<!-- Node8 -->
<g id="Node000008" class="node">
<title>Node8</title>
<g id="a_Node000008"><a xlink:href="_command_8h.html" target="_top" xlink:title=" ">
<polygon fill="white" stroke="#666666" points="593.75,-76 524.5,-76 524.5,-56 593.75,-56 593.75,-76"/>
<text text-anchor="middle" x="559.12" y="-62.5" font-family="Helvetica,sans-Serif" font-size="10.00">Command.h</text>
</a>
</g>
</g>
<!-- Node3&#45;&gt;Node8 -->
<g id="edge7_Node000003_Node000008" class="edge">
<title>Node3&#45;&gt;Node8</title>
<g id="a_edge7_Node000003_Node000008"><a xlink:title=" ">
<path fill="none" stroke="#63b8ff" d="M409.92,-173.72C455.42,-168.04 538.87,-154.75 557.12,-132 567.07,-119.61 566.68,-101.19 564.32,-87.12"/>
<polygon fill="#63b8ff" stroke="#63b8ff" points="567.8,-86.65 562.26,-77.62 560.96,-88.13 567.8,-86.65"/>
</a>
</g>
</g>
<!-- Node9 -->
<g id="Node000009" class="node">
<title>Node9</title>
<g id="a_Node000009"><a xlink:href="_command_handler_8h.html" target="_top" xlink:title=" ">
<polygon fill="white" stroke="#666666" points="547.62,-132 444.62,-132 444.62,-112 547.62,-112 547.62,-132"/>
<text text-anchor="middle" x="496.12" y="-118.5" font-family="Helvetica,sans-Serif" font-size="10.00">CommandHandler.h</text>
</a>
</g>
</g>
<!-- Node3&#45;&gt;Node9 -->
<g id="edge11_Node000003_Node000009" class="edge">
<title>Node3&#45;&gt;Node9</title>
<g id="a_edge11_Node000003_Node000009"><a xlink:title=" ">
<path fill="none" stroke="#63b8ff" d="M400.33,-167.59C418.35,-159.21 444.99,-146.8 465.61,-137.21"/>
<polygon fill="#63b8ff" stroke="#63b8ff" points="466.8,-140.51 474.39,-133.12 463.85,-134.17 466.8,-140.51"/>
</a>
</g>
</g>
<!-- Node10 -->
<g id="Node000010" class="node">
<title>Node10</title>
<g id="a_Node000010"><a xlink:href="_print_callback_8h.html" target="_top" xlink:title=" ">
<polygon fill="white" stroke="#666666" points="140.5,-132 57.75,-132 57.75,-112 140.5,-112 140.5,-132"/>
<text text-anchor="middle" x="99.12" y="-118.5" font-family="Helvetica,sans-Serif" font-size="10.00">PrintCallback.h</text>
</a>
</g>
</g>
<!-- Node3&#45;&gt;Node10 -->
<g id="edge15_Node000003_Node000010" class="edge">
<title>Node3&#45;&gt;Node10</title>
<g id="a_edge15_Node000003_Node000010"><a xlink:title=" ">
<path fill="none" stroke="#63b8ff" d="M350.32,-171.27C303.18,-162.21 210.76,-144.45 152.12,-133.18"/>
<polygon fill="#63b8ff" stroke="#63b8ff" points="152.84,-129.76 142.36,-131.31 151.51,-136.63 152.84,-129.76"/>
</a>
</g>
</g>
<!-- Node13 -->
<g id="Node000013" class="node">
<title>Node13</title>
<g id="a_Node000013"><a xlink:href="_program_variable_8h.html" target="_top" xlink:title=" ">
<polygon fill="white" stroke="#666666" points="391.88,-76 296.38,-76 296.38,-56 391.88,-56 391.88,-76"/>
<text text-anchor="middle" x="344.12" y="-62.5" font-family="Helvetica,sans-Serif" font-size="10.00">ProgramVariable.h</text>
</a>
</g>
</g>
<!-- Node3&#45;&gt;Node13 -->
<g id="edge22_Node000003_Node000013" class="edge">
<title>Node3&#45;&gt;Node13</title>
<g id="a_edge22_Node000003_Node000013"><a xlink:title=" ">
<path fill="none" stroke="#63b8ff" d="M377.06,-167.62C371.24,-149.84 358.49,-110.88 350.67,-87"/>
<polygon fill="#63b8ff" stroke="#63b8ff" points="354.09,-86.21 347.66,-77.79 347.44,-88.39 354.09,-86.21"/>
</a>
</g>
</g>
<!-- Node14 -->
<g id="Node000014" class="node">
<title>Node14</title>
<g id="a_Node000014"><a xlink:href="_lexer_8h.html" target="_top" xlink:title=" ">
<polygon fill="white" stroke="#666666" points="236.25,-132 188,-132 188,-112 236.25,-112 236.25,-132"/>
<text text-anchor="middle" x="212.12" y="-118.5" font-family="Helvetica,sans-Serif" font-size="10.00">Lexer.h</text>
</a>
</g>
</g>
<!-- Node3&#45;&gt;Node14 -->
<g id="edge27_Node000003_Node000014" class="edge">
<title>Node3&#45;&gt;Node14</title>
<g id="a_edge27_Node000003_Node000014"><a xlink:title=" ">
<path fill="none" stroke="#63b8ff" d="M350.86,-167.59C322.06,-158.34 278.05,-144.19 247.35,-134.32"/>
<polygon fill="#63b8ff" stroke="#63b8ff" points="248.72,-131.09 238.13,-131.36 246.58,-137.75 248.72,-131.09"/>
</a>
</g>
</g>
<!-- Node8&#45;&gt;Node2 -->
<g id="edge9_Node000008_Node000002" class="edge">
<title>Node8&#45;&gt;Node2</title>
<g id="a_edge9_Node000008_Node000002"><a xlink:title=" ">
<path fill="none" stroke="#63b8ff" d="M550.42,-55.59C543.53,-48.16 533.73,-37.58 525.41,-28.58"/>
<polygon fill="#63b8ff" stroke="#63b8ff" points="528.13,-26.37 518.76,-21.41 522.99,-31.12 528.13,-26.37"/>
</a>
</g>
</g>
<!-- Node8&#45;&gt;Node4 -->
<g id="edge8_Node000008_Node000004" class="edge">
<title>Node8&#45;&gt;Node4</title>
<g id="a_edge8_Node000008_Node000004"><a xlink:title=" ">
<path fill="none" stroke="#63b8ff" d="M567.66,-55.59C574.41,-48.16 584.01,-37.58 592.17,-28.58"/>
<polygon fill="#63b8ff" stroke="#63b8ff" points="594.54,-31.18 598.67,-21.42 589.36,-26.47 594.54,-31.18"/>
</a>
</g>
</g>
<!-- Node8&#45;&gt;Node6 -->
<g id="edge10_Node000008_Node000006" class="edge">
<title>Node8&#45;&gt;Node6</title>
<g id="a_edge10_Node000008_Node000006"><a xlink:title=" ">
<path fill="none" stroke="#63b8ff" d="M524.25,-59.53C457.03,-48.97 310.54,-25.98 246.33,-15.9"/>
<polygon fill="#63b8ff" stroke="#63b8ff" points="247.25,-12.5 236.83,-14.41 246.17,-19.42 247.25,-12.5"/>
</a>
</g>
</g>
<!-- Node9&#45;&gt;Node2 -->
<g id="edge13_Node000009_Node000002" class="edge">
<title>Node9&#45;&gt;Node2</title>
<g id="a_edge13_Node000009_Node000002"><a xlink:title=" ">
<path fill="none" stroke="#63b8ff" d="M497.23,-111.62C499.32,-94.01 503.85,-55.59 506.68,-31.65"/>
<polygon fill="#63b8ff" stroke="#63b8ff" points="510.14,-32.2 507.84,-21.86 503.19,-31.38 510.14,-32.2"/>
</a>
</g>
</g>
<!-- Node9&#45;&gt;Node7 -->
<g id="edge12_Node000009_Node000007" class="edge">
<title>Node9&#45;&gt;Node7</title>
<g id="a_edge12_Node000009_Node000007"><a xlink:title=" ">
<path fill="none" stroke="#63b8ff" d="M488.15,-111.71C476.75,-98.66 454.88,-74.43 434.12,-56 422.53,-45.7 408.74,-35.24 397.3,-27.01"/>
<polygon fill="#63b8ff" stroke="#63b8ff" points="399.39,-24.2 389.2,-21.27 395.34,-29.91 399.39,-24.2"/>
</a>
</g>
</g>
<!-- Node9&#45;&gt;Node8 -->
<g id="edge14_Node000009_Node000008" class="edge">
<title>Node9&#45;&gt;Node8</title>
<g id="a_edge14_Node000009_Node000008"><a xlink:title=" ">
<path fill="none" stroke="#63b8ff" d="M507.1,-111.59C516.04,-103.93 528.9,-92.91 539.59,-83.75"/>
<polygon fill="#63b8ff" stroke="#63b8ff" points="541.81,-86.45 547.13,-77.28 537.26,-81.13 541.81,-86.45"/>
</a>
</g>
</g>
<!-- Node10&#45;&gt;Node5 -->
<g id="edge16_Node000010_Node000005" class="edge">
<title>Node10&#45;&gt;Node5</title>
<g id="a_edge16_Node000010_Node000005"><a xlink:title=" ">
<path fill="none" stroke="#63b8ff" d="M60.13,-111.54C41.58,-104.88 21.1,-93.85 10.12,-76 1.62,-62.17 6.68,-43.92 12.98,-30.28"/>
<polygon fill="#63b8ff" stroke="#63b8ff" points="16.06,-31.93 17.58,-21.45 9.85,-28.7 16.06,-31.93"/>
</a>
</g>
</g>
<!-- Node10&#45;&gt;Node6 -->
<g id="edge17_Node000010_Node000006" class="edge">
<title>Node10&#45;&gt;Node6</title>
<g id="a_edge17_Node000010_Node000006"><a xlink:title=" ">
<path fill="none" stroke="#63b8ff" d="M109.02,-111.62C128.53,-93.11 172.26,-51.65 197.06,-28.13"/>
<polygon fill="#63b8ff" stroke="#63b8ff" points="199.31,-30.82 204.16,-21.4 194.5,-25.74 199.31,-30.82"/>
</a>
</g>
</g>
<!-- Node11 -->
<g id="Node000011" class="node">
<title>Node11</title>
<g id="a_Node000011"><a xlink:href="_utils_8h.html" target="_top" xlink:title=" ">
<polygon fill="white" stroke="#666666" points="96.38,-76 51.88,-76 51.88,-56 96.38,-56 96.38,-76"/>
<text text-anchor="middle" x="74.12" y="-62.5" font-family="Helvetica,sans-Serif" font-size="10.00">Utils.h</text>
</a>
</g>
</g>
<!-- Node10&#45;&gt;Node11 -->
<g id="edge18_Node000010_Node000011" class="edge">
<title>Node10&#45;&gt;Node11</title>
<g id="a_edge18_Node000010_Node000011"><a xlink:title=" ">
<path fill="none" stroke="#63b8ff" d="M94.77,-111.59C91.58,-104.7 87.14,-95.1 83.19,-86.57"/>
<polygon fill="#63b8ff" stroke="#63b8ff" points="86.44,-85.28 79.07,-77.67 80.09,-88.22 86.44,-85.28"/>
</a>
</g>
</g>
<!-- Node11&#45;&gt;Node5 -->
<g id="edge19_Node000011_Node000005" class="edge">
<title>Node11&#45;&gt;Node5</title>
<g id="a_edge19_Node000011_Node000005"><a xlink:title=" ">
<path fill="none" stroke="#63b8ff" d="M65.42,-55.59C58.53,-48.16 48.73,-37.58 40.41,-28.58"/>
<polygon fill="#63b8ff" stroke="#63b8ff" points="43.13,-26.37 33.76,-21.41 37.99,-31.12 43.13,-26.37"/>
</a>
</g>
</g>
<!-- Node11&#45;&gt;Node6 -->
<g id="edge20_Node000011_Node000006" class="edge">
<title>Node11&#45;&gt;Node6</title>
<g id="a_edge20_Node000011_Node000006"><a xlink:title=" ">
<path fill="none" stroke="#63b8ff" d="M96.78,-56.32C120.48,-47.25 157.85,-32.93 184.25,-22.83"/>
<polygon fill="#63b8ff" stroke="#63b8ff" points="185.32,-26.16 193.4,-19.32 182.81,-19.63 185.32,-26.16"/>
</a>
</g>
</g>
<!-- Node12 -->
<g id="Node000012" class="node">
<title>Node12</title>
<g id="a_Node000012"><a xlink:title=" ">
<polygon fill="#e0e0e0" stroke="#999999" points="147.75,-20 96.5,-20 96.5,0 147.75,0 147.75,-20"/>
<text text-anchor="middle" x="122.12" y="-6.5" font-family="Helvetica,sans-Serif" font-size="10.00">sstream</text>
</a>
</g>
</g>
<!-- Node11&#45;&gt;Node12 -->
<g id="edge21_Node000011_Node000012" class="edge">
<title>Node11&#45;&gt;Node12</title>
<g id="a_edge21_Node000011_Node000012"><a xlink:title=" ">
<path fill="none" stroke="#63b8ff" d="M82.49,-55.59C89.02,-48.24 98.31,-37.8 106.24,-28.87"/>
<polygon fill="#63b8ff" stroke="#63b8ff" points="108.83,-31.23 112.85,-21.43 103.59,-26.58 108.83,-31.23"/>
</a>
</g>
</g>
<!-- Node13&#45;&gt;Node2 -->
<g id="edge24_Node000013_Node000002" class="edge">
<title>Node13&#45;&gt;Node2</title>
<g id="a_edge24_Node000013_Node000002"><a xlink:title=" ">
<path fill="none" stroke="#63b8ff" d="M372.87,-55.59C399.56,-46.86 439.54,-33.77 469.3,-24.03"/>
<polygon fill="#63b8ff" stroke="#63b8ff" points="470.31,-27.39 478.72,-20.95 468.13,-20.73 470.31,-27.39"/>
</a>
</g>
</g>
<!-- Node13&#45;&gt;Node6 -->
<g id="edge23_Node000013_Node000006" class="edge">
<title>Node13&#45;&gt;Node6</title>
<g id="a_edge23_Node000013_Node000006"><a xlink:title=" ">
<path fill="none" stroke="#63b8ff" d="M321.65,-55.59C300.59,-46.78 268.94,-33.53 245.6,-23.76"/>
<polygon fill="#63b8ff" stroke="#63b8ff" points="247.19,-20.63 236.62,-20 244.49,-27.09 247.19,-20.63"/>
</a>
</g>
</g>
<!-- Node13&#45;&gt;Node7 -->
<g id="edge26_Node000013_Node000007" class="edge">
<title>Node13&#45;&gt;Node7</title>
<g id="a_edge26_Node000013_Node000007"><a xlink:title=" ">
<path fill="none" stroke="#63b8ff" d="M349.35,-55.59C353.22,-48.63 358.63,-38.89 363.41,-30.29"/>
<polygon fill="#63b8ff" stroke="#63b8ff" points="366.43,-32.06 368.22,-21.62 360.31,-28.66 366.43,-32.06"/>
</a>
</g>
</g>
<!-- Node13&#45;&gt;Node12 -->
<g id="edge25_Node000013_Node000012" class="edge">
<title>Node13&#45;&gt;Node12</title>
<g id="a_edge25_Node000013_Node000012"><a xlink:title=" ">
<path fill="none" stroke="#63b8ff" d="M305.2,-55.53C264.03,-45.52 199.55,-29.83 159.12,-20"/>
<polygon fill="#63b8ff" stroke="#63b8ff" points="160.16,-16.65 149.62,-17.69 158.51,-23.45 160.16,-16.65"/>
</a>
</g>
</g>
<!-- Node14&#45;&gt;Node5 -->
<g id="edge28_Node000014_Node000005" class="edge">
<title>Node14&#45;&gt;Node5</title>
<g id="a_edge28_Node000014_Node000005"><a xlink:title=" ">
<path fill="none" stroke="#63b8ff" d="M187.68,-117.48C145.99,-111.02 63.66,-96.04 43.12,-76 31.28,-64.44 26.72,-45.94 25.01,-31.63"/>
<polygon fill="#63b8ff" stroke="#63b8ff" points="28.52,-31.61 24.25,-21.92 21.54,-32.16 28.52,-31.61"/>
</a>
</g>
</g>
<!-- Node14&#45;&gt;Node6 -->
<g id="edge29_Node000014_Node000006" class="edge">
<title>Node14&#45;&gt;Node6</title>
<g id="a_edge29_Node000014_Node000006"><a xlink:title=" ">
<path fill="none" stroke="#63b8ff" d="M202.49,-111.61C191.02,-99.24 174.21,-76.63 181.12,-56 184.49,-45.97 191.07,-36.39 197.56,-28.66"/>
<polygon fill="#63b8ff" stroke="#63b8ff" points="200.04,-31.13 204.17,-21.38 194.86,-26.43 200.04,-31.13"/>
</a>
</g>
</g>
<!-- Node15 -->
<g id="Node000015" class="node">
<title>Node15</title>
<g id="a_Node000015"><a xlink:href="_token_8h.html" target="_top" xlink:title=" ">
<polygon fill="white" stroke="#666666" points="240.38,-76 189.88,-76 189.88,-56 240.38,-56 240.38,-76"/>
<text text-anchor="middle" x="215.12" y="-62.5" font-family="Helvetica,sans-Serif" font-size="10.00">Token.h</text>
</a>
</g>
</g>
<!-- Node14&#45;&gt;Node15 -->
<g id="edge30_Node000014_Node000015" class="edge">
<title>Node14&#45;&gt;Node15</title>
<g id="a_edge30_Node000014_Node000015"><a xlink:title=" ">
<path fill="none" stroke="#63b8ff" d="M212.65,-111.59C213.01,-105.01 213.52,-95.96 213.97,-87.73"/>
<polygon fill="#63b8ff" stroke="#63b8ff" points="217.46,-87.99 214.52,-77.81 210.48,-87.6 217.46,-87.99"/>
</a>
</g>
</g>
<!-- Node15&#45;&gt;Node5 -->
<g id="edge31_Node000015_Node000005" class="edge">
<title>Node15&#45;&gt;Node5</title>
<g id="a_edge31_Node000015_Node000005"><a xlink:title=" ">
<path fill="none" stroke="#63b8ff" d="M189.76,-57.83C156.38,-48.39 97.51,-31.75 59.69,-21.06"/>
<polygon fill="#63b8ff" stroke="#63b8ff" points="60.72,-17.71 50.14,-18.36 58.81,-24.44 60.72,-17.71"/>
</a>
</g>
</g>
<!-- Node15&#45;&gt;Node6 -->
<g id="edge32_Node000015_Node000006" class="edge">
<title>Node15&#45;&gt;Node6</title>
<g id="a_edge32_Node000015_Node000006"><a xlink:title=" ">
<path fill="none" stroke="#63b8ff" d="M215.12,-55.59C215.12,-49.01 215.12,-39.96 215.12,-31.73"/>
<polygon fill="#63b8ff" stroke="#63b8ff" points="218.63,-31.81 215.13,-21.81 211.63,-31.81 218.63,-31.81"/>
</a>
</g>
</g>
<!-- Node15&#45;&gt;Node7 -->
<g id="edge33_Node000015_Node000007" class="edge">
<title>Node15&#45;&gt;Node7</title>
<g id="a_edge33_Node000015_Node000007"><a xlink:title=" ">
<path fill="none" stroke="#63b8ff" d="M240.67,-56.32C266.28,-47.63 306.03,-34.13 335.5,-24.12"/>
<polygon fill="#63b8ff" stroke="#63b8ff" points="336.46,-27.49 344.8,-20.96 334.21,-20.86 336.46,-27.49"/>
</a>
</g>
</g>
</g>
</svg>
