<?xml version="1.0" encoding="UTF-8" standalone="no"?>
<!DOCTYPE svg PUBLIC "-//W3C//DTD SVG 1.1//EN"
 "http://www.w3.org/Graphics/SVG/1.1/DTD/svg11.dtd">
<!-- Generated by graphviz version 12.2.1 (20241206.2353)
 -->
<!-- Title: C:/Users/emilly/Documents/Lucca/Projetos/Cpp/NikiScript/src/NikiScript.h Pages: 1 -->
<svg width="629pt" height="276pt"
 viewBox="0.00 0.00 629.28 276.00" xmlns="http://www.w3.org/2000/svg" xmlns:xlink="http://www.w3.org/1999/xlink">
<g id="graph0" class="graph" transform="scale(1 1) rotate(0) translate(4 272)">
<title>C:/Users/emilly/Documents/Lucca/Projetos/Cpp/NikiScript/src/NikiScript.h</title>
<!-- Node1 -->
<g id="Node000001" class="node">
<title>Node1</title>
<g id="a_Node000001"><a xlink:title=" ">
<polygon fill="#999999" stroke="#666666" points="195.72,-268 44.72,-268 44.72,-224 195.72,-224 195.72,-268"/>
<text text-anchor="start" x="52.72" y="-254.5" font-family="Helvetica,sans-Serif" font-size="10.00">C:/Users/emilly/Documents</text>
<text text-anchor="start" x="52.72" y="-242.5" font-family="Helvetica,sans-Serif" font-size="10.00">/Lucca/Projetos/Cpp/NikiScript</text>
<text text-anchor="middle" x="120.22" y="-230.5" font-family="Helvetica,sans-Serif" font-size="10.00">/src/NikiScript.h</text>
</a>
</g>
</g>
<!-- Node2 -->
<g id="Node000002" class="node">
<title>Node2</title>
<g id="a_Node000002"><a xlink:title=" ">
<polygon fill="#e0e0e0" stroke="#999999" points="301.22,-20 261.22,-20 261.22,0 301.22,0 301.22,-20"/>
<text text-anchor="middle" x="281.22" y="-6.5" font-family="Helvetica,sans-Serif" font-size="10.00">string</text>
</a>
</g>
</g>
<!-- Node1&#45;&gt;Node2 -->
<g id="edge1_Node000001_Node000002" class="edge">
<title>Node1&#45;&gt;Node2</title>
<g id="a_edge1_Node000001_Node000002"><a xlink:title=" ">
<path fill="none" stroke="#63b8ff" d="M78.3,-223.62C37.83,-199.76 -14.74,-158.37 4.22,-112 17.42,-79.71 28.56,-72.64 59.22,-56 120.96,-22.5 204.62,-13.84 249.56,-11.67"/>
<polygon fill="#63b8ff" stroke="#63b8ff" points="249.53,-15.17 259.38,-11.28 249.25,-8.17 249.53,-15.17"/>
</a>
</g>
</g>
<!-- Node3 -->
<g id="Node000003" class="node">
<title>Node3</title>
<g id="a_Node000003"><a xlink:href="_context_8h.html" target="_top" xlink:title=" ">
<polygon fill="white" stroke="#666666" points="346.59,-188 287.84,-188 287.84,-168 346.59,-168 346.59,-188"/>
<text text-anchor="middle" x="317.22" y="-174.5" font-family="Helvetica,sans-Serif" font-size="10.00">Context.h</text>
</a>
</g>
</g>
<!-- Node1&#45;&gt;Node3 -->
<g id="edge2_Node000001_Node000003" class="edge">
<title>Node1&#45;&gt;Node3</title>
<g id="a_edge2_Node000001_Node000003"><a xlink:title=" ">
<path fill="none" stroke="#63b8ff" d="M184.18,-223.57C215.15,-213.2 251.33,-201.08 278.13,-192.09"/>
<polygon fill="#63b8ff" stroke="#63b8ff" points="279.2,-195.43 287.57,-188.93 276.98,-188.79 279.2,-195.43"/>
</a>
</g>
</g>
<!-- Node3&#45;&gt;Node2 -->
<g id="edge5_Node000003_Node000002" class="edge">
<title>Node3&#45;&gt;Node2</title>
<g id="a_edge5_Node000003_Node000002"><a xlink:title=" ">
<path fill="none" stroke="#63b8ff" d="M287.53,-173.21C262.72,-168.31 228.81,-157.17 212.22,-132 188.42,-95.91 231.52,-51.21 259.68,-27.53"/>
<polygon fill="#63b8ff" stroke="#63b8ff" points="261.8,-30.32 267.36,-21.3 257.39,-24.88 261.8,-30.32"/>
</a>
</g>
</g>
<!-- Node4 -->
<g id="Node000004" class="node">
<title>Node4</title>
<g id="a_Node000004"><a xlink:title=" ">
<polygon fill="#e0e0e0" stroke="#999999" points="569.72,-20 526.72,-20 526.72,0 569.72,0 569.72,-20"/>
<text text-anchor="middle" x="548.22" y="-6.5" font-family="Helvetica,sans-Serif" font-size="10.00">vector</text>
</a>
</g>
</g>
<!-- Node3&#45;&gt;Node4 -->
<g id="edge3_Node000003_Node000004" class="edge">
<title>Node3&#45;&gt;Node4</title>
<g id="a_edge3_Node000003_Node000004"><a xlink:title=" ">
<path fill="none" stroke="#63b8ff" d="M346.91,-175.32C408.5,-171.32 547.56,-159.44 585.22,-132 614.44,-110.71 631.11,-87.96 614.22,-56 606.91,-42.16 593.22,-31.78 580.2,-24.5"/>
<polygon fill="#63b8ff" stroke="#63b8ff" points="581.87,-21.43 571.38,-20 578.69,-27.66 581.87,-21.43"/>
</a>
</g>
</g>
<!-- Node5 -->
<g id="Node000005" class="node">
<title>Node5</title>
<g id="a_Node000005"><a xlink:title=" ">
<polygon fill="#e0e0e0" stroke="#999999" points="482.34,-20 434.09,-20 434.09,0 482.34,0 482.34,-20"/>
<text text-anchor="middle" x="458.22" y="-6.5" font-family="Helvetica,sans-Serif" font-size="10.00">stdint.h</text>
</a>
</g>
</g>
<!-- Node3&#45;&gt;Node5 -->
<g id="edge4_Node000003_Node000005" class="edge">
<title>Node3&#45;&gt;Node5</title>
<g id="a_edge4_Node000003_Node000005"><a xlink:title=" ">
<path fill="none" stroke="#63b8ff" d="M346.8,-174.32C403.37,-168.73 524.39,-154.48 559.22,-132 584.7,-115.55 589.14,-104.94 598.22,-76 600.88,-67.52 603.45,-63.18 598.22,-56 585.78,-38.94 530.98,-25.14 493.75,-17.51"/>
<polygon fill="#63b8ff" stroke="#63b8ff" points="494.79,-14.15 484.3,-15.64 493.43,-21.02 494.79,-14.15"/>
</a>
</g>
</g>
<!-- Node6 -->
<g id="Node000006" class="node">
<title>Node6</title>
<g id="a_Node000006"><a xlink:title=" ">
<polygon fill="#e0e0e0" stroke="#999999" points="165.59,-76 82.84,-76 82.84,-56 165.59,-56 165.59,-76"/>
<text text-anchor="middle" x="124.22" y="-62.5" font-family="Helvetica,sans-Serif" font-size="10.00">unordered_map</text>
</a>
</g>
</g>
<!-- Node3&#45;&gt;Node6 -->
<g id="edge6_Node000003_Node000006" class="edge">
<title>Node3&#45;&gt;Node6</title>
<g id="a_edge6_Node000003_Node000006"><a xlink:title=" ">
<path fill="none" stroke="#63b8ff" d="M287.39,-172.2C257.94,-166.37 212.58,-154.42 179.22,-132 161.25,-119.92 145.84,-100.39 135.94,-85.89"/>
<polygon fill="#63b8ff" stroke="#63b8ff" points="138.97,-84.12 130.58,-77.66 133.11,-87.95 138.97,-84.12"/>
</a>
</g>
</g>
<!-- Node7 -->
<g id="Node000007" class="node">
<title>Node7</title>
<g id="a_Node000007"><a xlink:href="_command_8h.html" target="_top" xlink:title=" ">
<polygon fill="white" stroke="#666666" points="466.84,-76 397.59,-76 397.59,-56 466.84,-56 466.84,-76"/>
<text text-anchor="middle" x="432.22" y="-62.5" font-family="Helvetica,sans-Serif" font-size="10.00">Command.h</text>
</a>
</g>
</g>
<!-- Node3&#45;&gt;Node7 -->
<g id="edge7_Node000003_Node000007" class="edge">
<title>Node3&#45;&gt;Node7</title>
<g id="a_edge7_Node000003_Node000007"><a xlink:title=" ">
<path fill="none" stroke="#63b8ff" d="M346.97,-174.73C374.75,-170.84 414.75,-160.34 434.22,-132 443.12,-119.04 441.75,-100.96 438.64,-87.15"/>
<polygon fill="#63b8ff" stroke="#63b8ff" points="442.1,-86.53 436.08,-77.82 435.35,-88.38 442.1,-86.53"/>
</a>
</g>
</g>
<!-- Node8 -->
<g id="Node000008" class="node">
<title>Node8</title>
<g id="a_Node000008"><a xlink:href="_command_handler_8h.html" target="_top" xlink:title=" ">
<polygon fill="white" stroke="#666666" points="424.72,-132 321.72,-132 321.72,-112 424.72,-112 424.72,-132"/>
<text text-anchor="middle" x="373.22" y="-118.5" font-family="Helvetica,sans-Serif" font-size="10.00">CommandHandler.h</text>
</a>
</g>
</g>
<!-- Node3&#45;&gt;Node8 -->
<g id="edge11_Node000003_Node000008" class="edge">
<title>Node3&#45;&gt;Node8</title>
<g id="a_edge11_Node000003_Node000008"><a xlink:title=" ">
<path fill="none" stroke="#63b8ff" d="M326.97,-167.59C334.84,-160.01 346.12,-149.13 355.56,-140.02"/>
<polygon fill="#63b8ff" stroke="#63b8ff" points="357.72,-142.81 362.49,-133.35 352.86,-137.77 357.72,-142.81"/>
</a>
</g>
</g>
<!-- Node9 -->
<g id="Node000009" class="node">
<title>Node9</title>
<g id="a_Node000009"><a xlink:href="_print_callback_8h.html" target="_top" xlink:title=" ">
<polygon fill="white" stroke="#666666" points="303.59,-132 220.84,-132 220.84,-112 303.59,-112 303.59,-132"/>
<text text-anchor="middle" x="262.22" y="-118.5" font-family="Helvetica,sans-Serif" font-size="10.00">PrintCallback.h</text>
</a>
</g>
</g>
<!-- Node3&#45;&gt;Node9 -->
<g id="edge15_Node000003_Node000009" class="edge">
<title>Node3&#45;&gt;Node9</title>
<g id="a_edge15_Node000003_Node000009"><a xlink:title=" ">
<path fill="none" stroke="#63b8ff" d="M307.64,-167.59C299.99,-160.08 289.06,-149.35 279.84,-140.3"/>
<polygon fill="#63b8ff" stroke="#63b8ff" points="282.36,-137.87 272.77,-133.36 277.45,-142.86 282.36,-137.87"/>
</a>
</g>
</g>
<!-- Node12 -->
<g id="Node000012" class="node">
<title>Node12</title>
<g id="a_Node000012"><a xlink:href="_program_variable_8h.html" target="_top" xlink:title=" ">
<polygon fill="white" stroke="#666666" points="108.97,-132 13.47,-132 13.47,-112 108.97,-112 108.97,-132"/>
<text text-anchor="middle" x="61.22" y="-118.5" font-family="Helvetica,sans-Serif" font-size="10.00">ProgramVariable.h</text>
</a>
</g>
</g>
<!-- Node3&#45;&gt;Node12 -->
<g id="edge22_Node000003_Node000012" class="edge">
<title>Node3&#45;&gt;Node12</title>
<g id="a_edge22_Node000003_Node000012"><a xlink:title=" ">
<path fill="none" stroke="#63b8ff" d="M287.35,-170.7C245.7,-161.91 169.39,-145.82 117.03,-134.77"/>
<polygon fill="#63b8ff" stroke="#63b8ff" points="117.9,-131.38 107.39,-132.74 116.45,-138.23 117.9,-131.38"/>
</a>
</g>
</g>
<!-- Node13 -->
<g id="Node000013" class="node">
<title>Node13</title>
<g id="a_Node000013"><a xlink:href="_lexer_8h.html" target="_top" xlink:title=" ">
<polygon fill="white" stroke="#666666" points="550.34,-132 502.09,-132 502.09,-112 550.34,-112 550.34,-132"/>
<text text-anchor="middle" x="526.22" y="-118.5" font-family="Helvetica,sans-Serif" font-size="10.00">Lexer.h</text>
</a>
</g>
</g>
<!-- Node3&#45;&gt;Node13 -->
<g id="edge26_Node000003_Node000013" class="edge">
<title>Node3&#45;&gt;Node13</title>
<g id="a_edge26_Node000003_Node000013"><a xlink:title=" ">
<path fill="none" stroke="#63b8ff" d="M346.72,-169.38C384.59,-159.59 450.24,-142.63 490.78,-132.16"/>
<polygon fill="#63b8ff" stroke="#63b8ff" points="491.48,-135.59 500.29,-129.7 489.73,-128.81 491.48,-135.59"/>
</a>
</g>
</g>
<!-- Node7&#45;&gt;Node2 -->
<g id="edge9_Node000007_Node000002" class="edge">
<title>Node7&#45;&gt;Node2</title>
<g id="a_edge9_Node000007_Node000002"><a xlink:title=" ">
<path fill="none" stroke="#63b8ff" d="M405.92,-55.59C379.78,-46.25 339.7,-31.91 312.07,-22.03"/>
<polygon fill="#63b8ff" stroke="#63b8ff" points="313.45,-18.81 302.85,-18.74 311.09,-25.4 313.45,-18.81"/>
</a>
</g>
</g>
<!-- Node7&#45;&gt;Node4 -->
<g id="edge8_Node000007_Node000004" class="edge">
<title>Node7&#45;&gt;Node4</title>
<g id="a_edge8_Node000007_Node000004"><a xlink:title=" ">
<path fill="none" stroke="#63b8ff" d="M452.42,-55.59C470.44,-47.21 497.09,-34.8 517.7,-25.21"/>
<polygon fill="#63b8ff" stroke="#63b8ff" points="518.89,-28.51 526.48,-21.12 515.94,-22.17 518.89,-28.51"/>
</a>
</g>
</g>
<!-- Node7&#45;&gt;Node5 -->
<g id="edge10_Node000007_Node000005" class="edge">
<title>Node7&#45;&gt;Node5</title>
<g id="a_edge10_Node000007_Node000005"><a xlink:title=" ">
<path fill="none" stroke="#63b8ff" d="M436.75,-55.59C440.07,-48.7 444.69,-39.1 448.79,-30.57"/>
<polygon fill="#63b8ff" stroke="#63b8ff" points="451.9,-32.19 453.09,-21.66 445.59,-29.15 451.9,-32.19"/>
</a>
</g>
</g>
<!-- Node8&#45;&gt;Node2 -->
<g id="edge13_Node000008_Node000002" class="edge">
<title>Node8&#45;&gt;Node2</title>
<g id="a_edge13_Node000008_Node000002"><a xlink:title=" ">
<path fill="none" stroke="#63b8ff" d="M365.37,-111.62C350.1,-93.36 316.12,-52.73 296.33,-29.07"/>
<polygon fill="#63b8ff" stroke="#63b8ff" points="299.11,-26.94 290.01,-21.52 293.74,-31.43 299.11,-26.94"/>
</a>
</g>
</g>
<!-- Node8&#45;&gt;Node6 -->
<g id="edge12_Node000008_Node000006" class="edge">
<title>Node8&#45;&gt;Node6</title>
<g id="a_edge12_Node000008_Node000006"><a xlink:title=" ">
<path fill="none" stroke="#63b8ff" d="M329.56,-111.53C287,-102.3 222.24,-88.26 176.85,-78.41"/>
<polygon fill="#63b8ff" stroke="#63b8ff" points="177.75,-75.03 167.23,-76.33 176.26,-81.87 177.75,-75.03"/>
</a>
</g>
</g>
<!-- Node8&#45;&gt;Node7 -->
<g id="edge14_Node000008_Node000007" class="edge">
<title>Node8&#45;&gt;Node7</title>
<g id="a_edge14_Node000008_Node000007"><a xlink:title=" ">
<path fill="none" stroke="#63b8ff" d="M383.5,-111.59C391.79,-104.01 403.67,-93.13 413.62,-84.02"/>
<polygon fill="#63b8ff" stroke="#63b8ff" points="415.93,-86.65 420.94,-77.32 411.2,-81.49 415.93,-86.65"/>
</a>
</g>
</g>
<!-- Node9&#45;&gt;Node2 -->
<g id="edge17_Node000009_Node000002" class="edge">
<title>Node9&#45;&gt;Node2</title>
<g id="a_edge17_Node000009_Node000002"><a xlink:title=" ">
<path fill="none" stroke="#63b8ff" d="M257.68,-111.57C252.14,-98.78 244.22,-75.29 250.22,-56 253.23,-46.32 259.13,-36.88 264.98,-29.16"/>
<polygon fill="#63b8ff" stroke="#63b8ff" points="267.55,-31.55 271.19,-21.6 262.14,-27.11 267.55,-31.55"/>
</a>
</g>
</g>
<!-- Node9&#45;&gt;Node5 -->
<g id="edge16_Node000009_Node000005" class="edge">
<title>Node9&#45;&gt;Node5</title>
<g id="a_edge16_Node000009_Node000005"><a xlink:title=" ">
<path fill="none" stroke="#63b8ff" d="M278.93,-111.62C312.99,-92.5 390.7,-48.89 431.72,-25.87"/>
<polygon fill="#63b8ff" stroke="#63b8ff" points="433.22,-29.04 440.23,-21.1 429.8,-22.94 433.22,-29.04"/>
</a>
</g>
</g>
<!-- Node10 -->
<g id="Node000010" class="node">
<title>Node10</title>
<g id="a_Node000010"><a xlink:href="_utils_8h.html" target="_top" xlink:title=" ">
<polygon fill="white" stroke="#666666" points="303.47,-76 258.97,-76 258.97,-56 303.47,-56 303.47,-76"/>
<text text-anchor="middle" x="281.22" y="-62.5" font-family="Helvetica,sans-Serif" font-size="10.00">Utils.h</text>
</a>
</g>
</g>
<!-- Node9&#45;&gt;Node10 -->
<g id="edge18_Node000009_Node000010" class="edge">
<title>Node9&#45;&gt;Node10</title>
<g id="a_edge18_Node000009_Node000010"><a xlink:title=" ">
<path fill="none" stroke="#63b8ff" d="M265.53,-111.59C267.9,-104.86 271.18,-95.53 274.13,-87.15"/>
<polygon fill="#63b8ff" stroke="#63b8ff" points="277.43,-88.32 277.44,-77.73 270.82,-86 277.43,-88.32"/>
</a>
</g>
</g>
<!-- Node10&#45;&gt;Node2 -->
<g id="edge20_Node000010_Node000002" class="edge">
<title>Node10&#45;&gt;Node2</title>
<g id="a_edge20_Node000010_Node000002"><a xlink:title=" ">
<path fill="none" stroke="#63b8ff" d="M281.22,-55.59C281.22,-49.01 281.22,-39.96 281.22,-31.73"/>
<polygon fill="#63b8ff" stroke="#63b8ff" points="284.72,-31.81 281.22,-21.81 277.72,-31.81 284.72,-31.81"/>
</a>
</g>
</g>
<!-- Node10&#45;&gt;Node5 -->
<g id="edge19_Node000010_Node000005" class="edge">
<title>Node10&#45;&gt;Node5</title>
<g id="a_edge19_Node000010_Node000005"><a xlink:title=" ">
<path fill="none" stroke="#63b8ff" d="M303.64,-58.16C333.69,-48.99 387.35,-32.62 422.87,-21.78"/>
<polygon fill="#63b8ff" stroke="#63b8ff" points="423.72,-25.18 432.27,-18.92 421.68,-18.49 423.72,-25.18"/>
</a>
</g>
</g>
<!-- Node11 -->
<g id="Node000011" class="node">
<title>Node11</title>
<g id="a_Node000011"><a xlink:title=" ">
<polygon fill="#e0e0e0" stroke="#999999" points="142.84,-20 91.59,-20 91.59,0 142.84,0 142.84,-20"/>
<text text-anchor="middle" x="117.22" y="-6.5" font-family="Helvetica,sans-Serif" font-size="10.00">sstream</text>
</a>
</g>
</g>
<!-- Node10&#45;&gt;Node11 -->
<g id="edge21_Node000010_Node000011" class="edge">
<title>Node10&#45;&gt;Node11</title>
<g id="a_edge21_Node000010_Node000011"><a xlink:title=" ">
<path fill="none" stroke="#63b8ff" d="M258.76,-57.6C231.76,-48.72 186.09,-33.68 153.94,-23.09"/>
<polygon fill="#63b8ff" stroke="#63b8ff" points="155.22,-19.83 144.63,-20.02 153.03,-26.48 155.22,-19.83"/>
</a>
</g>
</g>
<!-- Node12&#45;&gt;Node2 -->
<g id="edge23_Node000012_Node000002" class="edge">
<title>Node12&#45;&gt;Node2</title>
<g id="a_edge23_Node000012_Node000002"><a xlink:title=" ">
<path fill="none" stroke="#63b8ff" d="M60.17,-111.59C59.16,-97.49 59.53,-70.93 74.22,-56 98.38,-31.43 198.1,-18.72 249.8,-13.67"/>
<polygon fill="#63b8ff" stroke="#63b8ff" points="249.81,-17.18 259.44,-12.77 249.16,-10.21 249.81,-17.18"/>
</a>
</g>
</g>
<!-- Node12&#45;&gt;Node6 -->
<g id="edge25_Node000012_Node000006" class="edge">
<title>Node12&#45;&gt;Node6</title>
<g id="a_edge25_Node000012_Node000006"><a xlink:title=" ">
<path fill="none" stroke="#63b8ff" d="M72.19,-111.59C81.14,-103.93 93.99,-92.91 104.68,-83.75"/>
<polygon fill="#63b8ff" stroke="#63b8ff" points="106.91,-86.45 112.22,-77.28 102.35,-81.13 106.91,-86.45"/>
</a>
</g>
</g>
<!-- Node12&#45;&gt;Node11 -->
<g id="edge24_Node000012_Node000011" class="edge">
<title>Node12&#45;&gt;Node11</title>
<g id="a_edge24_Node000012_Node000011"><a xlink:title=" ">
<path fill="none" stroke="#63b8ff" d="M53.88,-111.66C44.55,-98.55 30.81,-74.26 41.22,-56 49.86,-40.85 65.82,-30.28 80.9,-23.21"/>
<polygon fill="#63b8ff" stroke="#63b8ff" points="81.88,-26.59 89.7,-19.45 79.13,-20.15 81.88,-26.59"/>
</a>
</g>
</g>
<!-- Node13&#45;&gt;Node2 -->
<g id="edge28_Node000013_Node000002" class="edge">
<title>Node13&#45;&gt;Node2</title>
<g id="a_edge28_Node000013_Node000002"><a xlink:title=" ">
<path fill="none" stroke="#63b8ff" d="M521.81,-111.83C514.45,-97.54 498.26,-70.16 476.22,-56 425.38,-23.34 353.61,-14.29 312.82,-11.84"/>
<polygon fill="#63b8ff" stroke="#63b8ff" points="313.13,-8.35 302.97,-11.36 312.78,-15.34 313.13,-8.35"/>
</a>
</g>
</g>
<!-- Node13&#45;&gt;Node5 -->
<g id="edge27_Node000013_Node000005" class="edge">
<title>Node13&#45;&gt;Node5</title>
<g id="a_edge27_Node000013_Node000005"><a xlink:title=" ">
<path fill="none" stroke="#63b8ff" d="M544.73,-111.59C566.24,-99.37 597.01,-77.1 582.22,-56 571.78,-41.11 526.59,-27.38 493.77,-19.1"/>
<polygon fill="#63b8ff" stroke="#63b8ff" points="494.77,-15.74 484.23,-16.76 493.11,-22.54 494.77,-15.74"/>
</a>
</g>
</g>
<!-- Node14 -->
<g id="Node000014" class="node">
<title>Node14</title>
<g id="a_Node000014"><a xlink:href="_token_8h.html" target="_top" xlink:title=" ">
<polygon fill="white" stroke="#666666" points="573.47,-76 522.97,-76 522.97,-56 573.47,-56 573.47,-76"/>
<text text-anchor="middle" x="548.22" y="-62.5" font-family="Helvetica,sans-Serif" font-size="10.00">Token.h</text>
</a>
</g>
</g>
<!-- Node13&#45;&gt;Node14 -->
<g id="edge29_Node000013_Node000014" class="edge">
<title>Node13&#45;&gt;Node14</title>
<g id="a_edge29_Node000013_Node000014"><a xlink:title=" ">
<path fill="none" stroke="#63b8ff" d="M530.05,-111.59C532.83,-104.78 536.68,-95.32 540.13,-86.86"/>
<polygon fill="#63b8ff" stroke="#63b8ff" points="543.33,-88.28 543.86,-77.7 536.85,-85.64 543.33,-88.28"/>
</a>
</g>
</g>
<!-- Node14&#45;&gt;Node2 -->
<g id="edge31_Node000014_Node000002" class="edge">
<title>Node14&#45;&gt;Node2</title>
<g id="a_edge31_Node000014_Node000002"><a xlink:title=" ">
<path fill="none" stroke="#63b8ff" d="M522.65,-58.98C518.18,-57.96 513.57,-56.93 509.22,-56 439.29,-41.03 356.89,-25.22 312.82,-16.91"/>
<polygon fill="#63b8ff" stroke="#63b8ff" points="313.66,-13.5 303.19,-15.1 312.37,-20.38 313.66,-13.5"/>
</a>
</g>
</g>
<!-- Node14&#45;&gt;Node4 -->
<g id="edge32_Node000014_Node000004" class="edge">
<title>Node14&#45;&gt;Node4</title>
<g id="a_edge32_Node000014_Node000004"><a xlink:title=" ">
<path fill="none" stroke="#63b8ff" d="M548.22,-55.59C548.22,-49.01 548.22,-39.96 548.22,-31.73"/>
<polygon fill="#63b8ff" stroke="#63b8ff" points="551.72,-31.81 548.22,-21.81 544.72,-31.81 551.72,-31.81"/>
</a>
</g>
</g>
<!-- Node14&#45;&gt;Node5 -->
<g id="edge30_Node000014_Node000005" class="edge">
<title>Node14&#45;&gt;Node5</title>
<g id="a_edge30_Node000014_Node000005"><a xlink:title=" ">
<path fill="none" stroke="#63b8ff" d="M532.54,-55.59C519.07,-47.51 499.4,-35.71 483.68,-26.27"/>
<polygon fill="#63b8ff" stroke="#63b8ff" points="485.69,-23.4 475.32,-21.26 482.09,-29.4 485.69,-23.4"/>
</a>
</g>
</g>
</g>
</svg>
