<?xml version="1.0" encoding="UTF-8" standalone="no"?>
<!DOCTYPE svg PUBLIC "-//W3C//DTD SVG 1.1//EN"
 "http://www.w3.org/Graphics/SVG/1.1/DTD/svg11.dtd">
<!-- Generated by graphviz version 12.2.1 (20241206.2353)
 -->
<!-- Title: C:/Users/emilly/Documents/Lucca/Projetos/Cpp/NikiScript/include/NikiScript/NikiScript.h Pages: 1 -->
<svg width="848pt" height="276pt"
 viewBox="0.00 0.00 848.09 276.00" xmlns="http://www.w3.org/2000/svg" xmlns:xlink="http://www.w3.org/1999/xlink">
<g id="graph0" class="graph" transform="scale(1 1) rotate(0) translate(4 272)">
<title>C:/Users/emilly/Documents/Lucca/Projetos/Cpp/NikiScript/include/NikiScript/NikiScript.h</title>
<!-- Node1 -->
<g id="Node000001" class="node">
<title>Node1</title>
<g id="a_Node000001"><a xlink:title=" ">
<polygon fill="#999999" stroke="#666666" points="419.07,-268 268.07,-268 268.07,-224 419.07,-224 419.07,-268"/>
<text text-anchor="start" x="276.07" y="-254.5" font-family="Helvetica,sans-Serif" font-size="10.00">C:/Users/emilly/Documents</text>
<text text-anchor="start" x="276.07" y="-242.5" font-family="Helvetica,sans-Serif" font-size="10.00">/Lucca/Projetos/Cpp/NikiScript</text>
<text text-anchor="middle" x="343.57" y="-230.5" font-family="Helvetica,sans-Serif" font-size="10.00">/include/NikiScript/NikiScript.h</text>
</a>
</g>
</g>
<!-- Node2 -->
<g id="Node000002" class="node">
<title>Node2</title>
<g id="a_Node000002"><a xlink:title=" ">
<polygon fill="#e0e0e0" stroke="#999999" points="329.57,-20 289.57,-20 289.57,0 329.57,0 329.57,-20"/>
<text text-anchor="middle" x="309.57" y="-6.5" font-family="Helvetica,sans-Serif" font-size="10.00">string</text>
</a>
</g>
</g>
<!-- Node1&#45;&gt;Node2 -->
<g id="edge1_Node000001_Node000002" class="edge">
<title>Node1&#45;&gt;Node2</title>
<g id="a_edge1_Node000001_Node000002"><a xlink:title=" ">
<path fill="none" stroke="#63b8ff" d="M280.58,-223.61C239.52,-205.99 189.14,-176.57 164.57,-132 150.4,-106.3 185.23,-60.96 190.57,-56 214.98,-33.31 251.95,-21.73 278.2,-16.05"/>
<polygon fill="#63b8ff" stroke="#63b8ff" points="278.81,-19.5 287.94,-14.13 277.45,-12.63 278.81,-19.5"/>
</a>
</g>
</g>
<!-- Node3 -->
<g id="Node000003" class="node">
<title>Node3</title>
<g id="a_Node000003"><a xlink:href="_context_8h.html" target="_top" xlink:title=" ">
<polygon fill="white" stroke="#666666" points="372.94,-188 314.19,-188 314.19,-168 372.94,-168 372.94,-188"/>
<text text-anchor="middle" x="343.57" y="-174.5" font-family="Helvetica,sans-Serif" font-size="10.00">Context.h</text>
</a>
</g>
</g>
<!-- Node1&#45;&gt;Node3 -->
<g id="edge2_Node000001_Node000003" class="edge">
<title>Node1&#45;&gt;Node3</title>
<g id="a_edge2_Node000001_Node000003"><a xlink:title=" ">
<path fill="none" stroke="#63b8ff" d="M343.57,-223.75C343.57,-216.13 343.57,-207.53 343.57,-199.93"/>
<polygon fill="#63b8ff" stroke="#63b8ff" points="347.07,-199.93 343.57,-189.93 340.07,-199.93 347.07,-199.93"/>
</a>
</g>
</g>
<!-- Node8 -->
<g id="Node000008" class="node">
<title>Node8</title>
<g id="a_Node000008"><a xlink:href="_d_l_l_8h.html" target="_top" xlink:title=" ">
<polygon fill="white" stroke="#666666" points="544.69,-20 502.44,-20 502.44,0 544.69,0 544.69,-20"/>
<text text-anchor="middle" x="523.57" y="-6.5" font-family="Helvetica,sans-Serif" font-size="10.00">DLL.h</text>
</a>
</g>
</g>
<!-- Node1&#45;&gt;Node8 -->
<g id="edge42_Node000001_Node000008" class="edge">
<title>Node1&#45;&gt;Node8</title>
<g id="a_edge42_Node000001_Node000008"><a xlink:title=" ">
<path fill="none" stroke="#63b8ff" d="M419.34,-243.36C516.55,-237.7 686.34,-215.49 801.57,-132 825.33,-114.78 828.47,-104.21 836.57,-76 839.02,-67.46 842.39,-62.72 836.57,-56 818.35,-34.98 632.82,-19.04 556.3,-13.31"/>
<polygon fill="#63b8ff" stroke="#63b8ff" points="556.73,-9.83 546.5,-12.59 556.22,-16.81 556.73,-9.83"/>
</a>
</g>
</g>
<!-- Node3&#45;&gt;Node2 -->
<g id="edge5_Node000003_Node000002" class="edge">
<title>Node3&#45;&gt;Node2</title>
<g id="a_edge5_Node000003_Node000002"><a xlink:title=" ">
<path fill="none" stroke="#63b8ff" d="M340.01,-167.82C336.64,-158.82 331.64,-144.64 328.57,-132 320.08,-97.15 314.53,-55.69 311.73,-31.46"/>
<polygon fill="#63b8ff" stroke="#63b8ff" points="315.23,-31.27 310.65,-21.71 308.27,-32.04 315.23,-31.27"/>
</a>
</g>
</g>
<!-- Node4 -->
<g id="Node000004" class="node">
<title>Node4</title>
<g id="a_Node000004"><a xlink:title=" ">
<polygon fill="#e0e0e0" stroke="#999999" points="76.07,-20 33.07,-20 33.07,0 76.07,0 76.07,-20"/>
<text text-anchor="middle" x="54.57" y="-6.5" font-family="Helvetica,sans-Serif" font-size="10.00">vector</text>
</a>
</g>
</g>
<!-- Node3&#45;&gt;Node4 -->
<g id="edge3_Node000003_Node000004" class="edge">
<title>Node3&#45;&gt;Node4</title>
<g id="a_edge3_Node000003_Node000004"><a xlink:title=" ">
<path fill="none" stroke="#63b8ff" d="M313.7,-177.7C260.62,-177.79 147.54,-172.67 63.57,-132 30.44,-115.96 17.37,-109.69 2.57,-76 -5.77,-57.02 11.56,-38.91 28.41,-26.64"/>
<polygon fill="#63b8ff" stroke="#63b8ff" points="29.97,-29.81 36.3,-21.31 26.06,-24.01 29.97,-29.81"/>
</a>
</g>
</g>
<!-- Node5 -->
<g id="Node000005" class="node">
<title>Node5</title>
<g id="a_Node000005"><a xlink:title=" ">
<polygon fill="#e0e0e0" stroke="#999999" points="175.69,-20 127.44,-20 127.44,0 175.69,0 175.69,-20"/>
<text text-anchor="middle" x="151.57" y="-6.5" font-family="Helvetica,sans-Serif" font-size="10.00">stdint.h</text>
</a>
</g>
</g>
<!-- Node3&#45;&gt;Node5 -->
<g id="edge4_Node000003_Node000005" class="edge">
<title>Node3&#45;&gt;Node5</title>
<g id="a_edge4_Node000003_Node000005"><a xlink:title=" ">
<path fill="none" stroke="#63b8ff" d="M313.96,-172.7C239.19,-161.14 46.18,-126.84 10.57,-76 5.47,-68.72 5.32,-63.18 10.57,-56 23.13,-38.79 78.59,-25 116.1,-17.41"/>
<polygon fill="#63b8ff" stroke="#63b8ff" points="116.46,-20.91 125.61,-15.55 115.12,-14.04 116.46,-20.91"/>
</a>
</g>
</g>
<!-- Node6 -->
<g id="Node000006" class="node">
<title>Node6</title>
<g id="a_Node000006"><a xlink:title=" ">
<polygon fill="#e0e0e0" stroke="#999999" points="671.94,-76 589.19,-76 589.19,-56 671.94,-56 671.94,-76"/>
<text text-anchor="middle" x="630.57" y="-62.5" font-family="Helvetica,sans-Serif" font-size="10.00">unordered_map</text>
</a>
</g>
</g>
<!-- Node3&#45;&gt;Node6 -->
<g id="edge6_Node000003_Node000006" class="edge">
<title>Node3&#45;&gt;Node6</title>
<g id="a_edge6_Node000003_Node000006"><a xlink:title=" ">
<path fill="none" stroke="#63b8ff" d="M373.42,-174.88C414.97,-170.98 491.73,-160.29 550.57,-132 575.37,-120.07 599.25,-99.01 614.36,-84.1"/>
<polygon fill="#63b8ff" stroke="#63b8ff" points="616.6,-86.81 621.12,-77.23 611.61,-81.9 616.6,-86.81"/>
</a>
</g>
</g>
<!-- Node7 -->
<g id="Node000007" class="node">
<title>Node7</title>
<g id="a_Node000007"><a xlink:href="_command_8h.html" target="_top" xlink:title=" ">
<polygon fill="white" stroke="#666666" points="281.19,-76 211.94,-76 211.94,-56 281.19,-56 281.19,-76"/>
<text text-anchor="middle" x="246.57" y="-62.5" font-family="Helvetica,sans-Serif" font-size="10.00">Command.h</text>
</a>
</g>
</g>
<!-- Node3&#45;&gt;Node7 -->
<g id="edge7_Node000003_Node000007" class="edge">
<title>Node3&#45;&gt;Node7</title>
<g id="a_edge7_Node000003_Node000007"><a xlink:title=" ">
<path fill="none" stroke="#63b8ff" d="M332.77,-167.83C322.69,-159.07 307.47,-145.26 295.57,-132 282.17,-117.09 268.58,-98.74 259.12,-85.35"/>
<polygon fill="#63b8ff" stroke="#63b8ff" points="262.21,-83.67 253.62,-77.46 256.46,-87.66 262.21,-83.67"/>
</a>
</g>
</g>
<!-- Node3&#45;&gt;Node8 -->
<g id="edge41_Node000003_Node000008" class="edge">
<title>Node3&#45;&gt;Node8</title>
<g id="a_edge41_Node000003_Node000008"><a xlink:title=" ">
<path fill="none" stroke="#63b8ff" d="M373.18,-176.75C458.62,-175.59 703.88,-169.03 773.57,-132 802.26,-116.75 809.45,-106.53 820.57,-76 823.61,-67.65 826.36,-62.74 820.57,-56 786.74,-16.66 626.05,-11.29 556.16,-10.85"/>
<polygon fill="#63b8ff" stroke="#63b8ff" points="556.51,-7.35 546.5,-10.82 556.49,-14.35 556.51,-7.35"/>
</a>
</g>
</g>
<!-- Node9 -->
<g id="Node000009" class="node">
<title>Node9</title>
<g id="a_Node000009"><a xlink:href="_command_handler_8h.html" target="_top" xlink:title=" ">
<polygon fill="white" stroke="#666666" points="541.07,-132 438.07,-132 438.07,-112 541.07,-112 541.07,-132"/>
<text text-anchor="middle" x="489.57" y="-118.5" font-family="Helvetica,sans-Serif" font-size="10.00">CommandHandler.h</text>
</a>
</g>
</g>
<!-- Node3&#45;&gt;Node9 -->
<g id="edge12_Node000003_Node000009" class="edge">
<title>Node3&#45;&gt;Node9</title>
<g id="a_edge12_Node000003_Node000009"><a xlink:title=" ">
<path fill="none" stroke="#63b8ff" d="M369,-167.59C392.3,-158.97 427.06,-146.12 453.28,-136.42"/>
<polygon fill="#63b8ff" stroke="#63b8ff" points="454.35,-139.76 462.52,-133 451.92,-133.19 454.35,-139.76"/>
</a>
</g>
</g>
<!-- Node10 -->
<g id="Node000010" class="node">
<title>Node10</title>
<g id="a_Node000010"><a xlink:href="_print_callback_8h.html" target="_top" xlink:title=" ">
<polygon fill="white" stroke="#666666" points="419.94,-132 337.19,-132 337.19,-112 419.94,-112 419.94,-132"/>
<text text-anchor="middle" x="378.57" y="-118.5" font-family="Helvetica,sans-Serif" font-size="10.00">PrintCallback.h</text>
</a>
</g>
</g>
<!-- Node3&#45;&gt;Node10 -->
<g id="edge17_Node000003_Node000010" class="edge">
<title>Node3&#45;&gt;Node10</title>
<g id="a_edge17_Node000003_Node000010"><a xlink:title=" ">
<path fill="none" stroke="#63b8ff" d="M349.66,-167.59C354.28,-160.47 360.77,-150.45 366.44,-141.72"/>
<polygon fill="#63b8ff" stroke="#63b8ff" points="369.21,-143.86 371.72,-133.57 363.34,-140.06 369.21,-143.86"/>
</a>
</g>
</g>
<!-- Node13 -->
<g id="Node000013" class="node">
<title>Node13</title>
<g id="a_Node000013"><a xlink:href="_program_variable_8h.html" target="_top" xlink:title=" ">
<polygon fill="white" stroke="#666666" points="764.32,-132 668.82,-132 668.82,-112 764.32,-112 764.32,-132"/>
<text text-anchor="middle" x="716.57" y="-118.5" font-family="Helvetica,sans-Serif" font-size="10.00">ProgramVariable.h</text>
</a>
</g>
</g>
<!-- Node3&#45;&gt;Node13 -->
<g id="edge26_Node000003_Node000013" class="edge">
<title>Node3&#45;&gt;Node13</title>
<g id="a_edge26_Node000003_Node000013"><a xlink:title=" ">
<path fill="none" stroke="#63b8ff" d="M373.15,-172.72C434.53,-163.83 576.75,-143.24 657.6,-131.54"/>
<polygon fill="#63b8ff" stroke="#63b8ff" points="657.69,-135.06 667.09,-130.16 656.69,-128.13 657.69,-135.06"/>
</a>
</g>
</g>
<!-- Node15 -->
<g id="Node000015" class="node">
<title>Node15</title>
<g id="a_Node000015"><a xlink:href="_lexer_8h.html" target="_top" xlink:title=" ">
<polygon fill="white" stroke="#666666" points="221.69,-132 173.44,-132 173.44,-112 221.69,-112 221.69,-132"/>
<text text-anchor="middle" x="197.57" y="-118.5" font-family="Helvetica,sans-Serif" font-size="10.00">Lexer.h</text>
</a>
</g>
</g>
<!-- Node3&#45;&gt;Node15 -->
<g id="edge32_Node000003_Node000015" class="edge">
<title>Node3&#45;&gt;Node15</title>
<g id="a_edge32_Node000003_Node000015"><a xlink:title=" ">
<path fill="none" stroke="#63b8ff" d="M318.13,-167.59C294.4,-158.82 258.79,-145.64 232.41,-135.89"/>
<polygon fill="#63b8ff" stroke="#63b8ff" points="233.75,-132.65 223.16,-132.46 231.32,-139.22 233.75,-132.65"/>
</a>
</g>
</g>
<!-- Node7&#45;&gt;Node2 -->
<g id="edge9_Node000007_Node000002" class="edge">
<title>Node7&#45;&gt;Node2</title>
<g id="a_edge9_Node000007_Node000002"><a xlink:title=" ">
<path fill="none" stroke="#63b8ff" d="M257.54,-55.59C266.48,-47.93 279.34,-36.91 290.03,-27.75"/>
<polygon fill="#63b8ff" stroke="#63b8ff" points="292.25,-30.45 297.57,-21.28 287.7,-25.13 292.25,-30.45"/>
</a>
</g>
</g>
<!-- Node7&#45;&gt;Node4 -->
<g id="edge8_Node000007_Node000004" class="edge">
<title>Node7&#45;&gt;Node4</title>
<g id="a_edge8_Node000007_Node000004"><a xlink:title=" ">
<path fill="none" stroke="#63b8ff" d="M213.12,-55.59C177.79,-45.66 122.44,-30.09 87.36,-20.22"/>
<polygon fill="#63b8ff" stroke="#63b8ff" points="88.33,-16.86 77.76,-17.52 86.43,-23.6 88.33,-16.86"/>
</a>
</g>
</g>
<!-- Node7&#45;&gt;Node5 -->
<g id="edge10_Node000007_Node000005" class="edge">
<title>Node7&#45;&gt;Node5</title>
<g id="a_edge10_Node000007_Node000005"><a xlink:title=" ">
<path fill="none" stroke="#63b8ff" d="M230.02,-55.59C215.67,-47.44 194.64,-35.48 177.96,-26"/>
<polygon fill="#63b8ff" stroke="#63b8ff" points="179.98,-23.13 169.56,-21.23 176.52,-29.21 179.98,-23.13"/>
</a>
</g>
</g>
<!-- Node7&#45;&gt;Node8 -->
<g id="edge11_Node000007_Node000008" class="edge">
<title>Node7&#45;&gt;Node8</title>
<g id="a_edge11_Node000007_Node000008"><a xlink:title=" ">
<path fill="none" stroke="#63b8ff" d="M281.65,-58.16C335.79,-47.61 438.9,-27.5 491.29,-17.29"/>
<polygon fill="#63b8ff" stroke="#63b8ff" points="491.63,-20.79 500.78,-15.44 490.29,-13.92 491.63,-20.79"/>
</a>
</g>
</g>
<!-- Node9&#45;&gt;Node2 -->
<g id="edge14_Node000009_Node000002" class="edge">
<title>Node9&#45;&gt;Node2</title>
<g id="a_edge14_Node000009_Node000002"><a xlink:title=" ">
<path fill="none" stroke="#63b8ff" d="M488.89,-111.59C487.36,-97.48 482.43,-70.93 466.57,-56 432.3,-23.76 376.49,-14.41 341.47,-11.82"/>
<polygon fill="#63b8ff" stroke="#63b8ff" points="341.71,-8.33 331.52,-11.25 341.31,-15.32 341.71,-8.33"/>
</a>
</g>
</g>
<!-- Node9&#45;&gt;Node6 -->
<g id="edge13_Node000009_Node000006" class="edge">
<title>Node9&#45;&gt;Node6</title>
<g id="a_edge13_Node000009_Node000006"><a xlink:title=" ">
<path fill="none" stroke="#63b8ff" d="M514.13,-111.59C536.53,-103.01 569.9,-90.23 595.18,-80.55"/>
<polygon fill="#63b8ff" stroke="#63b8ff" points="596.31,-83.87 604.4,-77.02 593.81,-77.33 596.31,-83.87"/>
</a>
</g>
</g>
<!-- Node9&#45;&gt;Node7 -->
<g id="edge15_Node000009_Node000007" class="edge">
<title>Node9&#45;&gt;Node7</title>
<g id="a_edge15_Node000009_Node000007"><a xlink:title=" ">
<path fill="none" stroke="#63b8ff" d="M446.96,-111.53C403.76,-101.93 337.12,-87.12 292.69,-77.25"/>
<polygon fill="#63b8ff" stroke="#63b8ff" points="293.63,-73.87 283.11,-75.12 292.11,-80.71 293.63,-73.87"/>
</a>
</g>
</g>
<!-- Node9&#45;&gt;Node8 -->
<g id="edge16_Node000009_Node000008" class="edge">
<title>Node9&#45;&gt;Node8</title>
<g id="a_edge16_Node000009_Node000008"><a xlink:title=" ">
<path fill="none" stroke="#63b8ff" d="M504.86,-111.69C516.26,-103.79 530.94,-91.3 537.57,-76 543.88,-61.42 539.36,-43.72 533.82,-30.48"/>
<polygon fill="#63b8ff" stroke="#63b8ff" points="537.04,-29.08 529.59,-21.54 530.71,-32.08 537.04,-29.08"/>
</a>
</g>
</g>
<!-- Node10&#45;&gt;Node2 -->
<g id="edge19_Node000010_Node000002" class="edge">
<title>Node10&#45;&gt;Node2</title>
<g id="a_edge19_Node000010_Node000002"><a xlink:title=" ">
<path fill="none" stroke="#63b8ff" d="M372.68,-111.62C361.38,-93.6 336.42,-53.81 321.5,-30.02"/>
<polygon fill="#63b8ff" stroke="#63b8ff" points="324.52,-28.25 316.24,-21.64 318.59,-31.97 324.52,-28.25"/>
</a>
</g>
</g>
<!-- Node10&#45;&gt;Node5 -->
<g id="edge18_Node000010_Node000005" class="edge">
<title>Node10&#45;&gt;Node5</title>
<g id="a_edge18_Node000010_Node000005"><a xlink:title=" ">
<path fill="none" stroke="#63b8ff" d="M336.75,-117.94C299.03,-113.5 243.38,-102.62 202.57,-76 184.78,-64.4 170.5,-44.47 161.63,-29.73"/>
<polygon fill="#63b8ff" stroke="#63b8ff" points="164.89,-28.38 156.9,-21.43 158.81,-31.85 164.89,-28.38"/>
</a>
</g>
</g>
<!-- Node10&#45;&gt;Node8 -->
<g id="edge20_Node000010_Node000008" class="edge">
<title>Node10&#45;&gt;Node8</title>
<g id="a_edge20_Node000010_Node000008"><a xlink:title=" ">
<path fill="none" stroke="#63b8ff" d="M402.78,-111.58C421.31,-103.7 446.94,-91.29 466.57,-76 483.72,-62.64 499.71,-43.59 510.36,-29.57"/>
<polygon fill="#63b8ff" stroke="#63b8ff" points="513.1,-31.74 516.21,-21.61 507.47,-27.59 513.1,-31.74"/>
</a>
</g>
</g>
<!-- Node11 -->
<g id="Node000011" class="node">
<title>Node11</title>
<g id="a_Node000011"><a xlink:href="_utils_8h.html" target="_top" xlink:title=" ">
<polygon fill="white" stroke="#666666" points="457.82,-76 413.32,-76 413.32,-56 457.82,-56 457.82,-76"/>
<text text-anchor="middle" x="435.57" y="-62.5" font-family="Helvetica,sans-Serif" font-size="10.00">Utils.h</text>
</a>
</g>
</g>
<!-- Node10&#45;&gt;Node11 -->
<g id="edge21_Node000010_Node000011" class="edge">
<title>Node10&#45;&gt;Node11</title>
<g id="a_edge21_Node000010_Node000011"><a xlink:title=" ">
<path fill="none" stroke="#63b8ff" d="M388.49,-111.59C396.5,-104.01 407.98,-93.13 417.6,-84.02"/>
<polygon fill="#63b8ff" stroke="#63b8ff" points="419.8,-86.76 424.65,-77.34 414.99,-81.68 419.8,-86.76"/>
</a>
</g>
</g>
<!-- Node11&#45;&gt;Node2 -->
<g id="edge23_Node000011_Node000002" class="edge">
<title>Node11&#45;&gt;Node2</title>
<g id="a_edge23_Node000011_Node000002"><a xlink:title=" ">
<path fill="none" stroke="#63b8ff" d="M413.62,-55.59C393.38,-46.92 363.13,-33.96 340.46,-24.24"/>
<polygon fill="#63b8ff" stroke="#63b8ff" points="341.97,-21.08 331.4,-20.36 339.21,-27.51 341.97,-21.08"/>
</a>
</g>
</g>
<!-- Node11&#45;&gt;Node5 -->
<g id="edge22_Node000011_Node000005" class="edge">
<title>Node11&#45;&gt;Node5</title>
<g id="a_edge22_Node000011_Node000005"><a xlink:title=" ">
<path fill="none" stroke="#63b8ff" d="M413.28,-60.76C364.24,-51.44 246.64,-29.08 187.22,-17.78"/>
<polygon fill="#63b8ff" stroke="#63b8ff" points="188.11,-14.39 177.64,-15.96 186.81,-21.26 188.11,-14.39"/>
</a>
</g>
</g>
<!-- Node11&#45;&gt;Node8 -->
<g id="edge25_Node000011_Node000008" class="edge">
<title>Node11&#45;&gt;Node8</title>
<g id="a_edge25_Node000011_Node000008"><a xlink:title=" ">
<path fill="none" stroke="#63b8ff" d="M450.89,-55.59C464.06,-47.51 483.3,-35.71 498.67,-26.27"/>
<polygon fill="#63b8ff" stroke="#63b8ff" points="500.13,-29.48 506.83,-21.27 496.47,-23.52 500.13,-29.48"/>
</a>
</g>
</g>
<!-- Node12 -->
<g id="Node000012" class="node">
<title>Node12</title>
<g id="a_Node000012"><a xlink:title=" ">
<polygon fill="#e0e0e0" stroke="#999999" points="777.19,-20 725.94,-20 725.94,0 777.19,0 777.19,-20"/>
<text text-anchor="middle" x="751.57" y="-6.5" font-family="Helvetica,sans-Serif" font-size="10.00">sstream</text>
</a>
</g>
</g>
<!-- Node11&#45;&gt;Node12 -->
<g id="edge24_Node000011_Node000012" class="edge">
<title>Node11&#45;&gt;Node12</title>
<g id="a_edge24_Node000011_Node000012"><a xlink:title=" ">
<path fill="none" stroke="#63b8ff" d="M458.29,-61.12C512.23,-51.9 648.36,-28.64 714.44,-17.34"/>
<polygon fill="#63b8ff" stroke="#63b8ff" points="714.8,-20.83 724.06,-15.7 713.62,-13.93 714.8,-20.83"/>
</a>
</g>
</g>
<!-- Node13&#45;&gt;Node2 -->
<g id="edge27_Node000013_Node000002" class="edge">
<title>Node13&#45;&gt;Node2</title>
<g id="a_edge27_Node000013_Node000002"><a xlink:title=" ">
<path fill="none" stroke="#63b8ff" d="M714.3,-111.61C710.24,-97.04 700.25,-69.26 680.57,-56 652.65,-37.19 426.15,-19.3 341.41,-13.2"/>
<polygon fill="#63b8ff" stroke="#63b8ff" points="341.71,-9.72 331.49,-12.5 341.21,-16.7 341.71,-9.72"/>
</a>
</g>
</g>
<!-- Node13&#45;&gt;Node6 -->
<g id="edge30_Node000013_Node000006" class="edge">
<title>Node13&#45;&gt;Node6</title>
<g id="a_edge30_Node000013_Node000006"><a xlink:title=" ">
<path fill="none" stroke="#63b8ff" d="M701.59,-111.59C688.84,-103.59 670.27,-91.93 655.32,-82.54"/>
<polygon fill="#63b8ff" stroke="#63b8ff" points="657.27,-79.64 646.94,-77.28 653.55,-85.57 657.27,-79.64"/>
</a>
</g>
</g>
<!-- Node13&#45;&gt;Node8 -->
<g id="edge31_Node000013_Node000008" class="edge">
<title>Node13&#45;&gt;Node8</title>
<g id="a_edge31_Node000013_Node000008"><a xlink:title=" ">
<path fill="none" stroke="#63b8ff" d="M719.25,-111.81C722.67,-98 726.69,-71.83 713.57,-56 693.78,-32.13 605.26,-19.4 556.34,-14.07"/>
<polygon fill="#63b8ff" stroke="#63b8ff" points="556.92,-10.61 546.61,-13.06 556.2,-17.58 556.92,-10.61"/>
</a>
</g>
</g>
<!-- Node13&#45;&gt;Node12 -->
<g id="edge29_Node000013_Node000012" class="edge">
<title>Node13&#45;&gt;Node12</title>
<g id="a_edge29_Node000013_Node000012"><a xlink:title=" ">
<path fill="none" stroke="#63b8ff" d="M764.61,-112.46C785.51,-106.1 808.04,-95.07 820.57,-76 833.87,-55.75 809.05,-37.3 785.56,-25.27"/>
<polygon fill="#63b8ff" stroke="#63b8ff" points="787.24,-22.19 776.71,-21.02 784.21,-28.5 787.24,-22.19"/>
</a>
</g>
</g>
<!-- Node14 -->
<g id="Node000014" class="node">
<title>Node14</title>
<g id="a_Node000014"><a xlink:title=" ">
<polygon fill="#e0e0e0" stroke="#999999" points="811.19,-76 765.94,-76 765.94,-56 811.19,-56 811.19,-76"/>
<text text-anchor="middle" x="788.57" y="-62.5" font-family="Helvetica,sans-Serif" font-size="10.00">cstring</text>
</a>
</g>
</g>
<!-- Node13&#45;&gt;Node14 -->
<g id="edge28_Node000013_Node000014" class="edge">
<title>Node13&#45;&gt;Node14</title>
<g id="a_edge28_Node000013_Node000014"><a xlink:title=" ">
<path fill="none" stroke="#63b8ff" d="M729.11,-111.59C739.53,-103.77 754.61,-92.46 766.98,-83.19"/>
<polygon fill="#63b8ff" stroke="#63b8ff" points="769.06,-86.01 774.96,-77.21 764.86,-80.41 769.06,-86.01"/>
</a>
</g>
</g>
<!-- Node15&#45;&gt;Node2 -->
<g id="edge34_Node000015_Node000002" class="edge">
<title>Node15&#45;&gt;Node2</title>
<g id="a_edge34_Node000015_Node000002"><a xlink:title=" ">
<path fill="none" stroke="#63b8ff" d="M195.48,-111.58C193.02,-97.95 190.65,-72.52 202.57,-56 220.07,-31.73 253.26,-20.47 278.06,-15.3"/>
<polygon fill="#63b8ff" stroke="#63b8ff" points="278.42,-18.79 287.62,-13.55 277.16,-11.91 278.42,-18.79"/>
</a>
</g>
</g>
<!-- Node15&#45;&gt;Node5 -->
<g id="edge33_Node000015_Node000005" class="edge">
<title>Node15&#45;&gt;Node5</title>
<g id="a_edge33_Node000015_Node000005"><a xlink:title=" ">
<path fill="none" stroke="#63b8ff" d="M172.98,-115.16C124.91,-103.69 22.94,-79.06 20.57,-76 -7.44,-39.99 68.41,-22.51 116.12,-15.28"/>
<polygon fill="#63b8ff" stroke="#63b8ff" points="116.36,-18.78 125.77,-13.91 115.38,-11.85 116.36,-18.78"/>
</a>
</g>
</g>
<!-- Node15&#45;&gt;Node8 -->
<g id="edge40_Node000015_Node000008" class="edge">
<title>Node15&#45;&gt;Node8</title>
<g id="a_edge40_Node000015_Node000008"><a xlink:title=" ">
<path fill="none" stroke="#63b8ff" d="M222.07,-112.73C280.18,-93.12 426.34,-43.81 491.43,-21.84"/>
<polygon fill="#63b8ff" stroke="#63b8ff" points="492.45,-25.19 500.8,-18.68 490.21,-18.56 492.45,-25.19"/>
</a>
</g>
</g>
<!-- Node16 -->
<g id="Node000016" class="node">
<title>Node16</title>
<g id="a_Node000016"><a xlink:href="_token_8h.html" target="_top" xlink:title=" ">
<polygon fill="white" stroke="#666666" points="79.82,-76 29.32,-76 29.32,-56 79.82,-56 79.82,-76"/>
<text text-anchor="middle" x="54.57" y="-62.5" font-family="Helvetica,sans-Serif" font-size="10.00">Token.h</text>
</a>
</g>
</g>
<!-- Node15&#45;&gt;Node16 -->
<g id="edge35_Node000015_Node000016" class="edge">
<title>Node15&#45;&gt;Node16</title>
<g id="a_edge35_Node000015_Node000016"><a xlink:title=" ">
<path fill="none" stroke="#63b8ff" d="M172.98,-111.72C150.06,-103.06 115.63,-90.06 89.79,-80.3"/>
<polygon fill="#63b8ff" stroke="#63b8ff" points="91.31,-77.14 80.72,-76.88 88.84,-83.68 91.31,-77.14"/>
</a>
</g>
</g>
<!-- Node16&#45;&gt;Node2 -->
<g id="edge37_Node000016_Node000002" class="edge">
<title>Node16&#45;&gt;Node2</title>
<g id="a_edge37_Node000016_Node000002"><a xlink:title=" ">
<path fill="none" stroke="#63b8ff" d="M80.14,-59.02C84.61,-57.99 89.22,-56.95 93.57,-56 159.09,-41.62 236.05,-25.85 278.13,-17.33"/>
<polygon fill="#63b8ff" stroke="#63b8ff" points="278.69,-20.79 287.8,-15.37 277.31,-13.93 278.69,-20.79"/>
</a>
</g>
</g>
<!-- Node16&#45;&gt;Node4 -->
<g id="edge38_Node000016_Node000004" class="edge">
<title>Node16&#45;&gt;Node4</title>
<g id="a_edge38_Node000016_Node000004"><a xlink:title=" ">
<path fill="none" stroke="#63b8ff" d="M54.57,-55.59C54.57,-49.01 54.57,-39.96 54.57,-31.73"/>
<polygon fill="#63b8ff" stroke="#63b8ff" points="58.07,-31.81 54.57,-21.81 51.07,-31.81 58.07,-31.81"/>
</a>
</g>
</g>
<!-- Node16&#45;&gt;Node5 -->
<g id="edge36_Node000016_Node000005" class="edge">
<title>Node16&#45;&gt;Node5</title>
<g id="a_edge36_Node000016_Node000005"><a xlink:title=" ">
<path fill="none" stroke="#63b8ff" d="M71.46,-55.59C86.12,-47.44 107.59,-35.48 124.61,-26"/>
<polygon fill="#63b8ff" stroke="#63b8ff" points="126.18,-29.14 133.22,-21.22 122.78,-23.02 126.18,-29.14"/>
</a>
</g>
</g>
<!-- Node16&#45;&gt;Node8 -->
<g id="edge39_Node000016_Node000008" class="edge">
<title>Node16&#45;&gt;Node8</title>
<g id="a_edge39_Node000016_Node000008"><a xlink:title=" ">
<path fill="none" stroke="#63b8ff" d="M80.11,-62.06C159.61,-52.91 402.55,-24.93 490.95,-14.75"/>
<polygon fill="#63b8ff" stroke="#63b8ff" points="491.1,-18.26 500.63,-13.64 490.3,-11.31 491.1,-18.26"/>
</a>
</g>
</g>
</g>
</svg>
