<?xml version="1.0" encoding="UTF-8" standalone="no"?>
<!DOCTYPE svg PUBLIC "-//W3C//DTD SVG 1.1//EN"
 "http://www.w3.org/Graphics/SVG/1.1/DTD/svg11.dtd">
<!-- Generated by graphviz version 12.2.1 (20241206.2353)
 -->
<!-- Title: C:/Users/emilly/Documents/Lucca/Projetos/Cpp/NikiScript/include/NikiScript/Parser.h Pages: 1 -->
<svg width="815pt" height="276pt"
 viewBox="0.00 0.00 815.49 276.00" xmlns="http://www.w3.org/2000/svg" xmlns:xlink="http://www.w3.org/1999/xlink">
<g id="graph0" class="graph" transform="scale(1 1) rotate(0) translate(4 272)">
<title>C:/Users/emilly/Documents/Lucca/Projetos/Cpp/NikiScript/include/NikiScript/Parser.h</title>
<!-- Node1 -->
<g id="Node000001" class="node">
<title>Node1</title>
<g id="a_Node000001"><a xlink:title=" ">
<polygon fill="#999999" stroke="#666666" points="561.87,-268 410.87,-268 410.87,-224 561.87,-224 561.87,-268"/>
<text text-anchor="start" x="418.87" y="-254.5" font-family="Helvetica,sans-Serif" font-size="10.00">C:/Users/emilly/Documents</text>
<text text-anchor="start" x="418.87" y="-242.5" font-family="Helvetica,sans-Serif" font-size="10.00">/Lucca/Projetos/Cpp/NikiScript</text>
<text text-anchor="middle" x="486.37" y="-230.5" font-family="Helvetica,sans-Serif" font-size="10.00">/include/NikiScript/Parser.h</text>
</a>
</g>
</g>
<!-- Node2 -->
<g id="Node000002" class="node">
<title>Node2</title>
<g id="a_Node000002"><a xlink:href="_context_8h.html" target="_top" xlink:title=" ">
<polygon fill="white" stroke="#666666" points="515.74,-188 456.99,-188 456.99,-168 515.74,-168 515.74,-188"/>
<text text-anchor="middle" x="486.37" y="-174.5" font-family="Helvetica,sans-Serif" font-size="10.00">Context.h</text>
</a>
</g>
</g>
<!-- Node1&#45;&gt;Node2 -->
<g id="edge1_Node000001_Node000002" class="edge">
<title>Node1&#45;&gt;Node2</title>
<g id="a_edge1_Node000001_Node000002"><a xlink:title=" ">
<path fill="none" stroke="#63b8ff" d="M486.37,-223.75C486.37,-216.13 486.37,-207.53 486.37,-199.93"/>
<polygon fill="#63b8ff" stroke="#63b8ff" points="489.87,-199.93 486.37,-189.93 482.87,-199.93 489.87,-199.93"/>
</a>
</g>
</g>
<!-- Node8 -->
<g id="Node000008" class="node">
<title>Node8</title>
<g id="a_Node000008"><a xlink:href="_d_l_l_8h.html" target="_top" xlink:title=" ">
<polygon fill="white" stroke="#666666" points="328.49,-20 286.24,-20 286.24,0 328.49,0 328.49,-20"/>
<text text-anchor="middle" x="307.37" y="-6.5" font-family="Helvetica,sans-Serif" font-size="10.00">DLL.h</text>
</a>
</g>
</g>
<!-- Node1&#45;&gt;Node8 -->
<g id="edge42_Node000001_Node000008" class="edge">
<title>Node1&#45;&gt;Node8</title>
<g id="a_edge42_Node000001_Node000008"><a xlink:title=" ">
<path fill="none" stroke="#63b8ff" d="M410.37,-234.47C295.76,-217.26 85.93,-180.14 28.37,-132 7.46,-114.52 9.05,-102.66 3.37,-76 1.51,-67.31 -2.44,-62.73 3.37,-56 20.98,-35.58 200.39,-19.35 275.05,-13.42"/>
<polygon fill="#63b8ff" stroke="#63b8ff" points="274.88,-16.95 284.58,-12.68 274.34,-9.97 274.88,-16.95"/>
</a>
</g>
</g>
<!-- Node16 -->
<g id="Node000016" class="node">
<title>Node16</title>
<g id="a_Node000016"><a xlink:href="_token_8h.html" target="_top" xlink:title=" ">
<polygon fill="white" stroke="#666666" points="763.62,-76 713.12,-76 713.12,-56 763.62,-56 763.62,-76"/>
<text text-anchor="middle" x="738.37" y="-62.5" font-family="Helvetica,sans-Serif" font-size="10.00">Token.h</text>
</a>
</g>
</g>
<!-- Node1&#45;&gt;Node16 -->
<g id="edge41_Node000001_Node000016" class="edge">
<title>Node1&#45;&gt;Node16</title>
<g id="a_edge41_Node000001_Node000016"><a xlink:title=" ">
<path fill="none" stroke="#63b8ff" d="M532.08,-223.56C573.11,-203.15 633.88,-169.97 680.37,-132 697.33,-118.14 713.67,-99.16 724.65,-85.28"/>
<polygon fill="#63b8ff" stroke="#63b8ff" points="727.38,-87.48 730.72,-77.43 721.84,-83.21 727.38,-87.48"/>
</a>
</g>
</g>
<!-- Node3 -->
<g id="Node000003" class="node">
<title>Node3</title>
<g id="a_Node000003"><a xlink:title=" ">
<polygon fill="#e0e0e0" stroke="#999999" points="770.87,-20 727.87,-20 727.87,0 770.87,0 770.87,-20"/>
<text text-anchor="middle" x="749.37" y="-6.5" font-family="Helvetica,sans-Serif" font-size="10.00">vector</text>
</a>
</g>
</g>
<!-- Node2&#45;&gt;Node3 -->
<g id="edge2_Node000002_Node000003" class="edge">
<title>Node2&#45;&gt;Node3</title>
<g id="a_edge2_Node000002_Node000003"><a xlink:title=" ">
<path fill="none" stroke="#63b8ff" d="M516.23,-175.47C562.67,-172.21 654.24,-162.19 725.37,-132 764.98,-115.19 784.6,-114.23 804.37,-76 814.21,-56.97 795.27,-38.65 776.99,-26.34"/>
<polygon fill="#63b8ff" stroke="#63b8ff" points="778.99,-23.46 768.65,-21.12 775.27,-29.39 778.99,-23.46"/>
</a>
</g>
</g>
<!-- Node4 -->
<g id="Node000004" class="node">
<title>Node4</title>
<g id="a_Node000004"><a xlink:title=" ">
<polygon fill="#e0e0e0" stroke="#999999" points="709.49,-20 661.24,-20 661.24,0 709.49,0 709.49,-20"/>
<text text-anchor="middle" x="685.37" y="-6.5" font-family="Helvetica,sans-Serif" font-size="10.00">stdint.h</text>
</a>
</g>
</g>
<!-- Node2&#45;&gt;Node4 -->
<g id="edge3_Node000002_Node000004" class="edge">
<title>Node2&#45;&gt;Node4</title>
<g id="a_edge3_Node000002_Node000004"><a xlink:title=" ">
<path fill="none" stroke="#63b8ff" d="M516.09,-171.97C586.4,-159.36 759.22,-123.95 788.37,-76 792.98,-68.4 793.23,-63.44 788.37,-56 780.47,-43.93 747.33,-30.79 720.74,-21.84"/>
<polygon fill="#63b8ff" stroke="#63b8ff" points="721.87,-18.53 711.28,-18.75 719.7,-25.18 721.87,-18.53"/>
</a>
</g>
</g>
<!-- Node5 -->
<g id="Node000005" class="node">
<title>Node5</title>
<g id="a_Node000005"><a xlink:title=" ">
<polygon fill="#e0e0e0" stroke="#999999" points="503.37,-20 463.37,-20 463.37,0 503.37,0 503.37,-20"/>
<text text-anchor="middle" x="483.37" y="-6.5" font-family="Helvetica,sans-Serif" font-size="10.00">string</text>
</a>
</g>
</g>
<!-- Node2&#45;&gt;Node5 -->
<g id="edge4_Node000002_Node000005" class="edge">
<title>Node2&#45;&gt;Node5</title>
<g id="a_edge4_Node000002_Node000005"><a xlink:title=" ">
<path fill="none" stroke="#63b8ff" d="M489.57,-167.83C492.52,-158.84 496.71,-144.67 498.37,-132 503,-96.61 495.03,-55.35 489.04,-31.3"/>
<polygon fill="#63b8ff" stroke="#63b8ff" points="492.49,-30.66 486.55,-21.88 485.72,-32.44 492.49,-30.66"/>
</a>
</g>
</g>
<!-- Node6 -->
<g id="Node000006" class="node">
<title>Node6</title>
<g id="a_Node000006"><a xlink:title=" ">
<polygon fill="#e0e0e0" stroke="#999999" points="241.74,-76 158.99,-76 158.99,-56 241.74,-56 241.74,-76"/>
<text text-anchor="middle" x="200.37" y="-62.5" font-family="Helvetica,sans-Serif" font-size="10.00">unordered_map</text>
</a>
</g>
</g>
<!-- Node2&#45;&gt;Node6 -->
<g id="edge5_Node000002_Node000006" class="edge">
<title>Node2&#45;&gt;Node6</title>
<g id="a_edge5_Node000002_Node000006"><a xlink:title=" ">
<path fill="none" stroke="#63b8ff" d="M456.5,-175.13C414.55,-171.51 336.67,-161.13 277.37,-132 253.44,-120.25 230.72,-99.46 216.24,-84.55"/>
<polygon fill="#63b8ff" stroke="#63b8ff" points="218.79,-82.16 209.39,-77.27 213.69,-86.95 218.79,-82.16"/>
</a>
</g>
</g>
<!-- Node7 -->
<g id="Node000007" class="node">
<title>Node7</title>
<g id="a_Node000007"><a xlink:href="_command_8h.html" target="_top" xlink:title=" ">
<polygon fill="white" stroke="#666666" points="618.99,-76 549.74,-76 549.74,-56 618.99,-56 618.99,-76"/>
<text text-anchor="middle" x="584.37" y="-62.5" font-family="Helvetica,sans-Serif" font-size="10.00">Command.h</text>
</a>
</g>
</g>
<!-- Node2&#45;&gt;Node7 -->
<g id="edge6_Node000002_Node000007" class="edge">
<title>Node2&#45;&gt;Node7</title>
<g id="a_edge6_Node000002_Node000007"><a xlink:title=" ">
<path fill="none" stroke="#63b8ff" d="M497.81,-167.53C508.11,-158.78 523.41,-145.17 535.37,-132 548.84,-117.16 562.42,-98.81 571.86,-85.39"/>
<polygon fill="#63b8ff" stroke="#63b8ff" points="574.52,-87.7 577.34,-77.48 568.77,-83.71 574.52,-87.7"/>
</a>
</g>
</g>
<!-- Node2&#45;&gt;Node8 -->
<g id="edge40_Node000002_Node000008" class="edge">
<title>Node2&#45;&gt;Node8</title>
<g id="a_edge40_Node000002_Node000008"><a xlink:title=" ">
<path fill="none" stroke="#63b8ff" d="M456.73,-176.49C372.41,-174.62 132.79,-166.35 63.37,-132 32.65,-116.8 23.04,-107.84 10.37,-76 7.08,-67.74 4.57,-62.74 10.37,-56 27.48,-36.1 201.31,-19.67 274.82,-13.56"/>
<polygon fill="#63b8ff" stroke="#63b8ff" points="274.93,-17.06 284.61,-12.76 274.36,-10.09 274.93,-17.06"/>
</a>
</g>
</g>
<!-- Node9 -->
<g id="Node000009" class="node">
<title>Node9</title>
<g id="a_Node000009"><a xlink:href="_command_handler_8h.html" target="_top" xlink:title=" ">
<polygon fill="white" stroke="#666666" points="388.87,-132 285.87,-132 285.87,-112 388.87,-112 388.87,-132"/>
<text text-anchor="middle" x="337.37" y="-118.5" font-family="Helvetica,sans-Serif" font-size="10.00">CommandHandler.h</text>
</a>
</g>
</g>
<!-- Node2&#45;&gt;Node9 -->
<g id="edge11_Node000002_Node000009" class="edge">
<title>Node2&#45;&gt;Node9</title>
<g id="a_edge11_Node000002_Node000009"><a xlink:title=" ">
<path fill="none" stroke="#63b8ff" d="M460.41,-167.59C436.52,-158.94 400.84,-146 374.04,-136.29"/>
<polygon fill="#63b8ff" stroke="#63b8ff" points="375.54,-133.11 364.95,-133 373.15,-139.69 375.54,-133.11"/>
</a>
</g>
</g>
<!-- Node10 -->
<g id="Node000010" class="node">
<title>Node10</title>
<g id="a_Node000010"><a xlink:href="_print_callback_8h.html" target="_top" xlink:title=" ">
<polygon fill="white" stroke="#666666" points="489.74,-132 406.99,-132 406.99,-112 489.74,-112 489.74,-132"/>
<text text-anchor="middle" x="448.37" y="-118.5" font-family="Helvetica,sans-Serif" font-size="10.00">PrintCallback.h</text>
</a>
</g>
</g>
<!-- Node2&#45;&gt;Node10 -->
<g id="edge16_Node000002_Node000010" class="edge">
<title>Node2&#45;&gt;Node10</title>
<g id="a_edge16_Node000002_Node000010"><a xlink:title=" ">
<path fill="none" stroke="#63b8ff" d="M479.75,-167.59C474.68,-160.39 467.53,-150.23 461.34,-141.43"/>
<polygon fill="#63b8ff" stroke="#63b8ff" points="464.4,-139.7 455.78,-133.54 458.67,-143.73 464.4,-139.7"/>
</a>
</g>
</g>
<!-- Node13 -->
<g id="Node000013" class="node">
<title>Node13</title>
<g id="a_Node000013"><a xlink:href="_program_variable_8h.html" target="_top" xlink:title=" ">
<polygon fill="white" stroke="#666666" points="168.12,-132 72.62,-132 72.62,-112 168.12,-112 168.12,-132"/>
<text text-anchor="middle" x="120.37" y="-118.5" font-family="Helvetica,sans-Serif" font-size="10.00">ProgramVariable.h</text>
</a>
</g>
</g>
<!-- Node2&#45;&gt;Node13 -->
<g id="edge25_Node000002_Node000013" class="edge">
<title>Node2&#45;&gt;Node13</title>
<g id="a_edge25_Node000002_Node000013"><a xlink:title=" ">
<path fill="none" stroke="#63b8ff" d="M456.73,-172.63C396.55,-163.75 259.05,-143.46 179.74,-131.76"/>
<polygon fill="#63b8ff" stroke="#63b8ff" points="180.38,-128.32 169.98,-130.32 179.36,-135.24 180.38,-128.32"/>
</a>
</g>
</g>
<!-- Node15 -->
<g id="Node000015" class="node">
<title>Node15</title>
<g id="a_Node000015"><a xlink:href="_lexer_8h.html" target="_top" xlink:title=" ">
<polygon fill="white" stroke="#666666" points="671.49,-132 623.24,-132 623.24,-112 671.49,-112 671.49,-132"/>
<text text-anchor="middle" x="647.37" y="-118.5" font-family="Helvetica,sans-Serif" font-size="10.00">Lexer.h</text>
</a>
</g>
</g>
<!-- Node2&#45;&gt;Node15 -->
<g id="edge31_Node000002_Node000015" class="edge">
<title>Node2&#45;&gt;Node15</title>
<g id="a_edge31_Node000002_Node000015"><a xlink:title=" ">
<path fill="none" stroke="#63b8ff" d="M514.41,-167.59C541.57,-158.48 582.85,-144.64 612.19,-134.8"/>
<polygon fill="#63b8ff" stroke="#63b8ff" points="613,-138.22 621.37,-131.72 610.78,-131.58 613,-138.22"/>
</a>
</g>
</g>
<!-- Node7&#45;&gt;Node3 -->
<g id="edge7_Node000007_Node000003" class="edge">
<title>Node7&#45;&gt;Node3</title>
<g id="a_edge7_Node000007_Node000003"><a xlink:title=" ">
<path fill="none" stroke="#63b8ff" d="M613.11,-55.59C642.09,-46.11 686.75,-31.49 716.97,-21.6"/>
<polygon fill="#63b8ff" stroke="#63b8ff" points="717.93,-24.97 726.35,-18.53 715.75,-18.32 717.93,-24.97"/>
</a>
</g>
</g>
<!-- Node7&#45;&gt;Node4 -->
<g id="edge9_Node000007_Node000004" class="edge">
<title>Node7&#45;&gt;Node4</title>
<g id="a_edge9_Node000007_Node000004"><a xlink:title=" ">
<path fill="none" stroke="#63b8ff" d="M601.96,-55.59C617.29,-47.4 639.79,-35.37 657.55,-25.87"/>
<polygon fill="#63b8ff" stroke="#63b8ff" points="659.13,-28.99 666.3,-21.19 655.83,-22.82 659.13,-28.99"/>
</a>
</g>
</g>
<!-- Node7&#45;&gt;Node5 -->
<g id="edge8_Node000007_Node000005" class="edge">
<title>Node7&#45;&gt;Node5</title>
<g id="a_edge8_Node000007_Node000005"><a xlink:title=" ">
<path fill="none" stroke="#63b8ff" d="M566.77,-55.59C551.44,-47.4 528.95,-35.37 511.18,-25.87"/>
<polygon fill="#63b8ff" stroke="#63b8ff" points="512.9,-22.82 502.43,-21.19 509.6,-28.99 512.9,-22.82"/>
</a>
</g>
</g>
<!-- Node7&#45;&gt;Node8 -->
<g id="edge10_Node000007_Node000008" class="edge">
<title>Node7&#45;&gt;Node8</title>
<g id="a_edge10_Node000007_Node000008"><a xlink:title=" ">
<path fill="none" stroke="#63b8ff" d="M549.28,-58.16C495.15,-47.61 392.03,-27.5 339.64,-17.29"/>
<polygon fill="#63b8ff" stroke="#63b8ff" points="340.64,-13.92 330.16,-15.44 339.3,-20.79 340.64,-13.92"/>
</a>
</g>
</g>
<!-- Node9&#45;&gt;Node5 -->
<g id="edge13_Node000009_Node000005" class="edge">
<title>Node9&#45;&gt;Node5</title>
<g id="a_edge13_Node000009_Node000005"><a xlink:title=" ">
<path fill="none" stroke="#63b8ff" d="M338.83,-111.72C341.48,-97.8 348.39,-71.47 364.37,-56 388.31,-32.82 425.37,-21.33 451.77,-15.8"/>
<polygon fill="#63b8ff" stroke="#63b8ff" points="452.4,-19.25 461.57,-13.95 451.09,-12.37 452.4,-19.25"/>
</a>
</g>
</g>
<!-- Node9&#45;&gt;Node6 -->
<g id="edge12_Node000009_Node000006" class="edge">
<title>Node9&#45;&gt;Node6</title>
<g id="a_edge12_Node000009_Node000006"><a xlink:title=" ">
<path fill="none" stroke="#63b8ff" d="M313.5,-111.59C291.83,-103.05 259.6,-90.35 235.08,-80.68"/>
<polygon fill="#63b8ff" stroke="#63b8ff" points="236.41,-77.45 225.82,-77.03 233.84,-83.96 236.41,-77.45"/>
</a>
</g>
</g>
<!-- Node9&#45;&gt;Node7 -->
<g id="edge14_Node000009_Node000007" class="edge">
<title>Node9&#45;&gt;Node7</title>
<g id="a_edge14_Node000009_Node000007"><a xlink:title=" ">
<path fill="none" stroke="#63b8ff" d="M380.67,-111.53C424.84,-101.88 493.11,-86.95 538.26,-77.08"/>
<polygon fill="#63b8ff" stroke="#63b8ff" points="539,-80.5 548.02,-74.95 537.5,-73.66 539,-80.5"/>
</a>
</g>
</g>
<!-- Node9&#45;&gt;Node8 -->
<g id="edge15_Node000009_Node000008" class="edge">
<title>Node9&#45;&gt;Node8</title>
<g id="a_edge15_Node000009_Node000008"><a xlink:title=" ">
<path fill="none" stroke="#63b8ff" d="M323.74,-111.73C313.22,-103.68 299.47,-90.97 293.37,-76 287.37,-61.28 291.87,-43.6 297.31,-30.39"/>
<polygon fill="#63b8ff" stroke="#63b8ff" points="300.41,-32.04 301.46,-21.5 294.06,-29.08 300.41,-32.04"/>
</a>
</g>
</g>
<!-- Node10&#45;&gt;Node4 -->
<g id="edge17_Node000010_Node000004" class="edge">
<title>Node10&#45;&gt;Node4</title>
<g id="a_edge17_Node000010_Node000004"><a xlink:title=" ">
<path fill="none" stroke="#63b8ff" d="M490.04,-117.7C528.38,-113.09 585.61,-102.09 628.37,-76 647.52,-64.31 663.74,-44.11 673.92,-29.32"/>
<polygon fill="#63b8ff" stroke="#63b8ff" points="676.57,-31.66 679.14,-21.38 670.72,-27.82 676.57,-31.66"/>
</a>
</g>
</g>
<!-- Node10&#45;&gt;Node5 -->
<g id="edge18_Node000010_Node000005" class="edge">
<title>Node10&#45;&gt;Node5</title>
<g id="a_edge18_Node000010_Node000005"><a xlink:title=" ">
<path fill="none" stroke="#63b8ff" d="M451.35,-111.62C456.98,-93.92 469.29,-55.24 476.9,-31.32"/>
<polygon fill="#63b8ff" stroke="#63b8ff" points="480.23,-32.39 479.93,-21.8 473.56,-30.27 480.23,-32.39"/>
</a>
</g>
</g>
<!-- Node10&#45;&gt;Node8 -->
<g id="edge19_Node000010_Node000008" class="edge">
<title>Node10&#45;&gt;Node8</title>
<g id="a_edge19_Node000010_Node000008"><a xlink:title=" ">
<path fill="none" stroke="#63b8ff" d="M425.64,-111.54C407.94,-103.55 383.28,-91.03 364.37,-76 347.34,-62.48 331.34,-43.45 320.65,-29.47"/>
<polygon fill="#63b8ff" stroke="#63b8ff" points="323.54,-27.5 314.76,-21.56 317.92,-31.67 323.54,-27.5"/>
</a>
</g>
</g>
<!-- Node11 -->
<g id="Node000011" class="node">
<title>Node11</title>
<g id="a_Node000011"><a xlink:href="_utils_8h.html" target="_top" xlink:title=" ">
<polygon fill="white" stroke="#666666" points="417.62,-76 373.12,-76 373.12,-56 417.62,-56 417.62,-76"/>
<text text-anchor="middle" x="395.37" y="-62.5" font-family="Helvetica,sans-Serif" font-size="10.00">Utils.h</text>
</a>
</g>
</g>
<!-- Node10&#45;&gt;Node11 -->
<g id="edge20_Node000010_Node000011" class="edge">
<title>Node10&#45;&gt;Node11</title>
<g id="a_edge20_Node000010_Node000011"><a xlink:title=" ">
<path fill="none" stroke="#63b8ff" d="M439.13,-111.59C431.76,-104.08 421.23,-93.35 412.35,-84.3"/>
<polygon fill="#63b8ff" stroke="#63b8ff" points="415.06,-82.06 405.55,-77.38 410.06,-86.97 415.06,-82.06"/>
</a>
</g>
</g>
<!-- Node11&#45;&gt;Node4 -->
<g id="edge21_Node000011_Node000004" class="edge">
<title>Node11&#45;&gt;Node4</title>
<g id="a_edge21_Node000011_Node000004"><a xlink:title=" ">
<path fill="none" stroke="#63b8ff" d="M417.64,-60.85C467.63,-51.54 589.08,-28.93 649.71,-17.64"/>
<polygon fill="#63b8ff" stroke="#63b8ff" points="650.31,-21.09 659.5,-15.82 649.03,-14.21 650.31,-21.09"/>
</a>
</g>
</g>
<!-- Node11&#45;&gt;Node5 -->
<g id="edge22_Node000011_Node000005" class="edge">
<title>Node11&#45;&gt;Node5</title>
<g id="a_edge22_Node000011_Node000005"><a xlink:title=" ">
<path fill="none" stroke="#63b8ff" d="M410.7,-55.59C423.86,-47.51 443.1,-35.71 458.48,-26.27"/>
<polygon fill="#63b8ff" stroke="#63b8ff" points="459.94,-29.48 466.63,-21.27 456.27,-23.52 459.94,-29.48"/>
</a>
</g>
</g>
<!-- Node11&#45;&gt;Node8 -->
<g id="edge24_Node000011_Node000008" class="edge">
<title>Node11&#45;&gt;Node8</title>
<g id="a_edge24_Node000011_Node000008"><a xlink:title=" ">
<path fill="none" stroke="#63b8ff" d="M380.04,-55.59C366.87,-47.51 347.63,-35.71 332.26,-26.27"/>
<polygon fill="#63b8ff" stroke="#63b8ff" points="334.46,-23.52 324.1,-21.27 330.8,-29.48 334.46,-23.52"/>
</a>
</g>
</g>
<!-- Node12 -->
<g id="Node000012" class="node">
<title>Node12</title>
<g id="a_Node000012"><a xlink:title=" ">
<polygon fill="#e0e0e0" stroke="#999999" points="142.99,-20 91.74,-20 91.74,0 142.99,0 142.99,-20"/>
<text text-anchor="middle" x="117.37" y="-6.5" font-family="Helvetica,sans-Serif" font-size="10.00">sstream</text>
</a>
</g>
</g>
<!-- Node11&#45;&gt;Node12 -->
<g id="edge23_Node000011_Node000012" class="edge">
<title>Node11&#45;&gt;Node12</title>
<g id="a_edge23_Node000011_Node000012"><a xlink:title=" ">
<path fill="none" stroke="#63b8ff" d="M372.62,-60.58C324.7,-51.27 212.98,-29.57 154.52,-18.22"/>
<polygon fill="#63b8ff" stroke="#63b8ff" points="155.21,-14.78 144.72,-16.31 153.87,-21.66 155.21,-14.78"/>
</a>
</g>
</g>
<!-- Node13&#45;&gt;Node5 -->
<g id="edge26_Node000013_Node000005" class="edge">
<title>Node13&#45;&gt;Node5</title>
<g id="a_edge26_Node000013_Node000005"><a xlink:title=" ">
<path fill="none" stroke="#63b8ff" d="M121.79,-111.69C124.52,-97.22 131.97,-69.59 150.37,-56 174.41,-38.23 373.44,-20.07 451.82,-13.53"/>
<polygon fill="#63b8ff" stroke="#63b8ff" points="451.71,-17.05 461.39,-12.74 451.14,-10.08 451.71,-17.05"/>
</a>
</g>
</g>
<!-- Node13&#45;&gt;Node6 -->
<g id="edge29_Node000013_Node000006" class="edge">
<title>Node13&#45;&gt;Node6</title>
<g id="a_edge29_Node000013_Node000006"><a xlink:title=" ">
<path fill="none" stroke="#63b8ff" d="M134.3,-111.59C146.05,-103.67 163.1,-92.16 176.94,-82.82"/>
<polygon fill="#63b8ff" stroke="#63b8ff" points="178.74,-85.82 185.07,-77.33 174.82,-80.02 178.74,-85.82"/>
</a>
</g>
</g>
<!-- Node13&#45;&gt;Node8 -->
<g id="edge30_Node000013_Node000008" class="edge">
<title>Node13&#45;&gt;Node8</title>
<g id="a_edge30_Node000013_Node000008"><a xlink:title=" ">
<path fill="none" stroke="#63b8ff" d="M116.56,-111.89C111.51,-98.18 104.61,-72.13 117.37,-56 136.65,-31.62 225.8,-19.08 274.83,-13.92"/>
<polygon fill="#63b8ff" stroke="#63b8ff" points="274.97,-17.43 284.57,-12.95 274.27,-10.46 274.97,-17.43"/>
</a>
</g>
</g>
<!-- Node13&#45;&gt;Node12 -->
<g id="edge28_Node000013_Node000012" class="edge">
<title>Node13&#45;&gt;Node12</title>
<g id="a_edge28_Node000013_Node000012"><a xlink:title=" ">
<path fill="none" stroke="#63b8ff" d="M72.19,-113.87C49.41,-107.82 24.23,-96.64 10.37,-76 -9.92,-45.78 42.12,-27.28 80.55,-18.1"/>
<polygon fill="#63b8ff" stroke="#63b8ff" points="80.98,-21.59 89.97,-15.98 79.45,-14.76 80.98,-21.59"/>
</a>
</g>
</g>
<!-- Node14 -->
<g id="Node000014" class="node">
<title>Node14</title>
<g id="a_Node000014"><a xlink:title=" ">
<polygon fill="#e0e0e0" stroke="#999999" points="64.99,-76 19.74,-76 19.74,-56 64.99,-56 64.99,-76"/>
<text text-anchor="middle" x="42.37" y="-62.5" font-family="Helvetica,sans-Serif" font-size="10.00">cstring</text>
</a>
</g>
</g>
<!-- Node13&#45;&gt;Node14 -->
<g id="edge27_Node000013_Node000014" class="edge">
<title>Node13&#45;&gt;Node14</title>
<g id="a_edge27_Node000013_Node000014"><a xlink:title=" ">
<path fill="none" stroke="#63b8ff" d="M106.78,-111.59C95.33,-103.67 78.7,-92.16 65.21,-82.82"/>
<polygon fill="#63b8ff" stroke="#63b8ff" points="67.52,-80.16 57.3,-77.34 63.53,-85.91 67.52,-80.16"/>
</a>
</g>
</g>
<!-- Node15&#45;&gt;Node4 -->
<g id="edge32_Node000015_Node000004" class="edge">
<title>Node15&#45;&gt;Node4</title>
<g id="a_edge32_Node000015_Node000004"><a xlink:title=" ">
<path fill="none" stroke="#63b8ff" d="M671.8,-120.11C701.25,-117.56 749.62,-108.36 772.37,-76 789.68,-51.37 751.55,-32.18 720.4,-21.22"/>
<polygon fill="#63b8ff" stroke="#63b8ff" points="721.81,-18 711.22,-18.17 719.6,-24.64 721.81,-18"/>
</a>
</g>
</g>
<!-- Node15&#45;&gt;Node5 -->
<g id="edge33_Node000015_Node000005" class="edge">
<title>Node15&#45;&gt;Node5</title>
<g id="a_edge33_Node000015_Node000005"><a xlink:title=" ">
<path fill="none" stroke="#63b8ff" d="M647.28,-111.67C646.64,-97.67 643.37,-71.25 628.37,-56 598.24,-25.37 547.7,-15.5 514.95,-12.38"/>
<polygon fill="#63b8ff" stroke="#63b8ff" points="515.51,-8.91 505.27,-11.62 514.97,-15.89 515.51,-8.91"/>
</a>
</g>
</g>
<!-- Node15&#45;&gt;Node8 -->
<g id="edge39_Node000015_Node000008" class="edge">
<title>Node15&#45;&gt;Node8</title>
<g id="a_edge39_Node000015_Node000008"><a xlink:title=" ">
<path fill="none" stroke="#63b8ff" d="M622.91,-113.09C562.75,-93.62 407.51,-43.4 339.77,-21.48"/>
<polygon fill="#63b8ff" stroke="#63b8ff" points="340.97,-18.19 330.37,-18.44 338.81,-24.85 340.97,-18.19"/>
</a>
</g>
</g>
<!-- Node15&#45;&gt;Node16 -->
<g id="edge34_Node000015_Node000016" class="edge">
<title>Node15&#45;&gt;Node16</title>
<g id="a_edge34_Node000015_Node000016"><a xlink:title=" ">
<path fill="none" stroke="#63b8ff" d="M663.22,-111.59C676.84,-103.51 696.73,-91.71 712.63,-82.27"/>
<polygon fill="#63b8ff" stroke="#63b8ff" points="714.28,-85.37 721.09,-77.25 710.7,-79.35 714.28,-85.37"/>
</a>
</g>
</g>
<!-- Node16&#45;&gt;Node3 -->
<g id="edge37_Node000016_Node000003" class="edge">
<title>Node16&#45;&gt;Node3</title>
<g id="a_edge37_Node000016_Node000003"><a xlink:title=" ">
<path fill="none" stroke="#63b8ff" d="M740.28,-55.59C741.64,-48.93 743.51,-39.75 745.2,-31.44"/>
<polygon fill="#63b8ff" stroke="#63b8ff" points="748.6,-32.28 747.17,-21.78 741.74,-30.88 748.6,-32.28"/>
</a>
</g>
</g>
<!-- Node16&#45;&gt;Node4 -->
<g id="edge35_Node000016_Node000004" class="edge">
<title>Node16&#45;&gt;Node4</title>
<g id="a_edge35_Node000016_Node000004"><a xlink:title=" ">
<path fill="none" stroke="#63b8ff" d="M729.13,-55.59C721.76,-48.08 711.23,-37.35 702.35,-28.3"/>
<polygon fill="#63b8ff" stroke="#63b8ff" points="705.06,-26.06 695.55,-21.38 700.06,-30.97 705.06,-26.06"/>
</a>
</g>
</g>
<!-- Node16&#45;&gt;Node5 -->
<g id="edge36_Node000016_Node000005" class="edge">
<title>Node16&#45;&gt;Node5</title>
<g id="a_edge36_Node000016_Node000005"><a xlink:title=" ">
<path fill="none" stroke="#63b8ff" d="M712.98,-59.62C666,-49.68 565.63,-28.42 514.58,-17.61"/>
<polygon fill="#63b8ff" stroke="#63b8ff" points="515.58,-14.25 505.08,-15.6 514.13,-21.09 515.58,-14.25"/>
</a>
</g>
</g>
<!-- Node16&#45;&gt;Node8 -->
<g id="edge38_Node000016_Node000008" class="edge">
<title>Node16&#45;&gt;Node8</title>
<g id="a_edge38_Node000016_Node000008"><a xlink:title=" ">
<path fill="none" stroke="#63b8ff" d="M712.7,-61.78C638.34,-52.47 422.84,-25.47 340.18,-15.11"/>
<polygon fill="#63b8ff" stroke="#63b8ff" points="340.84,-11.67 330.48,-13.9 339.97,-18.61 340.84,-11.67"/>
</a>
</g>
</g>
</g>
</svg>
