<?xml version="1.0" encoding="UTF-8" standalone="no"?>
<!DOCTYPE svg PUBLIC "-//W3C//DTD SVG 1.1//EN"
 "http://www.w3.org/Graphics/SVG/1.1/DTD/svg11.dtd">
<!-- Generated by graphviz version 12.2.1 (20241206.2353)
 -->
<!-- Title: C:/Users/emilly/Documents/Lucca/Projetos/Cpp/NikiScript/src/Parser.cpp Pages: 1 -->
<svg width="715pt" height="332pt"
 viewBox="0.00 0.00 714.50 332.00" xmlns="http://www.w3.org/2000/svg" xmlns:xlink="http://www.w3.org/1999/xlink">
<g id="graph0" class="graph" transform="scale(1 1) rotate(0) translate(4 328)">
<title>C:/Users/emilly/Documents/Lucca/Projetos/Cpp/NikiScript/src/Parser.cpp</title>
<!-- Node1 -->
<g id="Node000001" class="node">
<title>Node1</title>
<g id="a_Node000001"><a xlink:title=" ">
<polygon fill="#999999" stroke="#666666" points="198.5,-324 47.5,-324 47.5,-280 198.5,-280 198.5,-324"/>
<text text-anchor="start" x="55.5" y="-310.5" font-family="Helvetica,sans-Serif" font-size="10.00">C:/Users/emilly/Documents</text>
<text text-anchor="start" x="55.5" y="-298.5" font-family="Helvetica,sans-Serif" font-size="10.00">/Lucca/Projetos/Cpp/NikiScript</text>
<text text-anchor="middle" x="123" y="-286.5" font-family="Helvetica,sans-Serif" font-size="10.00">/src/Parser.cpp</text>
</a>
</g>
</g>
<!-- Node2 -->
<g id="Node000002" class="node">
<title>Node2</title>
<g id="a_Node000002"><a xlink:href="_parser_8h.html" target="_top" xlink:title=" ">
<polygon fill="white" stroke="#666666" points="149.38,-244 96.62,-244 96.62,-224 149.38,-224 149.38,-244"/>
<text text-anchor="middle" x="123" y="-230.5" font-family="Helvetica,sans-Serif" font-size="10.00">Parser.h</text>
</a>
</g>
</g>
<!-- Node1&#45;&gt;Node2 -->
<g id="edge1_Node000001_Node000002" class="edge">
<title>Node1&#45;&gt;Node2</title>
<g id="a_edge1_Node000001_Node000002"><a xlink:title=" ">
<path fill="none" stroke="#63b8ff" d="M123,-279.75C123,-272.13 123,-263.53 123,-255.93"/>
<polygon fill="#63b8ff" stroke="#63b8ff" points="126.5,-255.93 123,-245.93 119.5,-255.93 126.5,-255.93"/>
</a>
</g>
</g>
<!-- Node11 -->
<g id="Node000011" class="node">
<title>Node11</title>
<g id="a_Node000011"><a xlink:href="_print_callback_8h.html" target="_top" xlink:title=" ">
<polygon fill="white" stroke="#666666" points="110.38,-132 27.62,-132 27.62,-112 110.38,-112 110.38,-132"/>
<text text-anchor="middle" x="69" y="-118.5" font-family="Helvetica,sans-Serif" font-size="10.00">PrintCallback.h</text>
</a>
</g>
</g>
<!-- Node1&#45;&gt;Node11 -->
<g id="edge37_Node000001_Node000011" class="edge">
<title>Node1&#45;&gt;Node11</title>
<g id="a_edge37_Node000001_Node000011"><a xlink:title=" ">
<path fill="none" stroke="#63b8ff" d="M107.05,-279.58C100.15,-269.3 92.62,-256.53 88,-244 75.59,-210.34 71.29,-168.51 69.79,-143.88"/>
<polygon fill="#63b8ff" stroke="#63b8ff" points="73.29,-143.75 69.3,-133.93 66.3,-144.09 73.29,-143.75"/>
</a>
</g>
</g>
<!-- Node13 -->
<g id="Node000013" class="node">
<title>Node13</title>
<g id="a_Node000013"><a xlink:title=" ">
<polygon fill="#e0e0e0" stroke="#999999" points="75.62,-20 24.38,-20 24.38,0 75.62,0 75.62,-20"/>
<text text-anchor="middle" x="50" y="-6.5" font-family="Helvetica,sans-Serif" font-size="10.00">sstream</text>
</a>
</g>
</g>
<!-- Node1&#45;&gt;Node13 -->
<g id="edge36_Node000001_Node000013" class="edge">
<title>Node1&#45;&gt;Node13</title>
<g id="a_edge36_Node000001_Node000013"><a xlink:title=" ">
<path fill="none" stroke="#63b8ff" d="M78.59,-279.59C43.36,-259.15 0,-224.72 0,-179 0,-179 0,-179 0,-121 0,-90.9 6.08,-83.18 19,-56 23.41,-46.72 29.64,-37.24 35.35,-29.39"/>
<polygon fill="#63b8ff" stroke="#63b8ff" points="37.96,-31.74 41.23,-21.66 32.39,-27.5 37.96,-31.74"/>
</a>
</g>
</g>
<!-- Node17 -->
<g id="Node000017" class="node">
<title>Node17</title>
<g id="a_Node000017"><a xlink:title=" ">
<polygon fill="#e0e0e0" stroke="#999999" points="222.88,-244 167.12,-244 167.12,-224 222.88,-224 222.88,-244"/>
<text text-anchor="middle" x="195" y="-230.5" font-family="Helvetica,sans-Serif" font-size="10.00">algorithm</text>
</a>
</g>
</g>
<!-- Node1&#45;&gt;Node17 -->
<g id="edge34_Node000001_Node000017" class="edge">
<title>Node1&#45;&gt;Node17</title>
<g id="a_edge34_Node000001_Node000017"><a xlink:title=" ">
<path fill="none" stroke="#63b8ff" d="M146.18,-279.75C155.92,-270.82 167.1,-260.57 176.31,-252.13"/>
<polygon fill="#63b8ff" stroke="#63b8ff" points="178.6,-254.78 183.61,-245.44 173.87,-249.62 178.6,-254.78"/>
</a>
</g>
</g>
<!-- Node18 -->
<g id="Node000018" class="node">
<title>Node18</title>
<g id="a_Node000018"><a xlink:title=" ">
<polygon fill="#e0e0e0" stroke="#999999" points="289.5,-244 240.5,-244 240.5,-224 289.5,-224 289.5,-244"/>
<text text-anchor="middle" x="265" y="-230.5" font-family="Helvetica,sans-Serif" font-size="10.00">fstream</text>
</a>
</g>
</g>
<!-- Node1&#45;&gt;Node18 -->
<g id="edge35_Node000001_Node000018" class="edge">
<title>Node1&#45;&gt;Node18</title>
<g id="a_edge35_Node000001_Node000018"><a xlink:title=" ">
<path fill="none" stroke="#63b8ff" d="M169.1,-279.57C190.6,-269.58 215.57,-257.97 234.65,-249.11"/>
<polygon fill="#63b8ff" stroke="#63b8ff" points="235.88,-252.39 243.48,-245 232.93,-246.04 235.88,-252.39"/>
</a>
</g>
</g>
<!-- Node3 -->
<g id="Node000003" class="node">
<title>Node3</title>
<g id="a_Node000003"><a xlink:href="_context_8h.html" target="_top" xlink:title=" ">
<polygon fill="white" stroke="#666666" points="425.38,-188 366.62,-188 366.62,-168 425.38,-168 425.38,-188"/>
<text text-anchor="middle" x="396" y="-174.5" font-family="Helvetica,sans-Serif" font-size="10.00">Context.h</text>
</a>
</g>
</g>
<!-- Node2&#45;&gt;Node3 -->
<g id="edge2_Node000002_Node000003" class="edge">
<title>Node2&#45;&gt;Node3</title>
<g id="a_edge2_Node000002_Node000003"><a xlink:title=" ">
<path fill="none" stroke="#63b8ff" d="M149.71,-225.94C152.5,-225.26 155.31,-224.6 158,-224 226.82,-208.66 307.59,-194.11 355.13,-185.9"/>
<polygon fill="#63b8ff" stroke="#63b8ff" points="355.44,-189.4 364.7,-184.25 354.25,-182.5 355.44,-189.4"/>
</a>
</g>
</g>
<!-- Node4 -->
<g id="Node000004" class="node">
<title>Node4</title>
<g id="a_Node000004"><a xlink:title=" ">
<polygon fill="#e0e0e0" stroke="#999999" points="706.5,-20 663.5,-20 663.5,0 706.5,0 706.5,-20"/>
<text text-anchor="middle" x="685" y="-6.5" font-family="Helvetica,sans-Serif" font-size="10.00">vector</text>
</a>
</g>
</g>
<!-- Node3&#45;&gt;Node4 -->
<g id="edge3_Node000003_Node000004" class="edge">
<title>Node3&#45;&gt;Node4</title>
<g id="a_edge3_Node000003_Node000004"><a xlink:title=" ">
<path fill="none" stroke="#63b8ff" d="M425.83,-175.38C487.71,-171.48 627.4,-159.79 665,-132 693.95,-110.61 696.16,-91.86 693,-56 692.29,-47.9 690.86,-39.08 689.41,-31.41"/>
<polygon fill="#63b8ff" stroke="#63b8ff" points="692.86,-30.83 687.44,-21.73 686.01,-32.22 692.86,-30.83"/>
</a>
</g>
</g>
<!-- Node5 -->
<g id="Node000005" class="node">
<title>Node5</title>
<g id="a_Node000005"><a xlink:title=" ">
<polygon fill="#e0e0e0" stroke="#999999" points="162.12,-20 113.88,-20 113.88,0 162.12,0 162.12,-20"/>
<text text-anchor="middle" x="138" y="-6.5" font-family="Helvetica,sans-Serif" font-size="10.00">stdint.h</text>
</a>
</g>
</g>
<!-- Node3&#45;&gt;Node5 -->
<g id="edge4_Node000003_Node000005" class="edge">
<title>Node3&#45;&gt;Node5</title>
<g id="a_edge4_Node000003_Node000005"><a xlink:title=" ">
<path fill="none" stroke="#63b8ff" d="M366.14,-171.8C336,-165.61 288.91,-153.35 253,-132 208.14,-105.33 169.48,-56.3 150.5,-29.57"/>
<polygon fill="#63b8ff" stroke="#63b8ff" points="153.45,-27.68 144.88,-21.45 147.7,-31.67 153.45,-27.68"/>
</a>
</g>
</g>
<!-- Node6 -->
<g id="Node000006" class="node">
<title>Node6</title>
<g id="a_Node000006"><a xlink:title=" ">
<polygon fill="#e0e0e0" stroke="#999999" points="340,-20 300,-20 300,0 340,0 340,-20"/>
<text text-anchor="middle" x="320" y="-6.5" font-family="Helvetica,sans-Serif" font-size="10.00">string</text>
</a>
</g>
</g>
<!-- Node3&#45;&gt;Node6 -->
<g id="edge5_Node000003_Node000006" class="edge">
<title>Node3&#45;&gt;Node6</title>
<g id="a_edge5_Node000003_Node000006"><a xlink:title=" ">
<path fill="none" stroke="#63b8ff" d="M391.7,-167.6C379.63,-141.23 345.27,-66.19 328.89,-30.42"/>
<polygon fill="#63b8ff" stroke="#63b8ff" points="332.23,-29.31 324.89,-21.67 325.87,-32.22 332.23,-29.31"/>
</a>
</g>
</g>
<!-- Node7 -->
<g id="Node000007" class="node">
<title>Node7</title>
<g id="a_Node000007"><a xlink:title=" ">
<polygon fill="#e0e0e0" stroke="#999999" points="505.38,-20 422.62,-20 422.62,0 505.38,0 505.38,-20"/>
<text text-anchor="middle" x="464" y="-6.5" font-family="Helvetica,sans-Serif" font-size="10.00">unordered_map</text>
</a>
</g>
</g>
<!-- Node3&#45;&gt;Node7 -->
<g id="edge6_Node000003_Node000007" class="edge">
<title>Node3&#45;&gt;Node7</title>
<g id="a_edge6_Node000003_Node000007"><a xlink:title=" ">
<path fill="none" stroke="#63b8ff" d="M410.08,-167.56C432.28,-151.71 474.59,-117.4 491,-76 497.32,-60.07 488.61,-42.08 479.44,-29.08"/>
<polygon fill="#63b8ff" stroke="#63b8ff" points="482.4,-27.18 473.51,-21.42 476.86,-31.47 482.4,-27.18"/>
</a>
</g>
</g>
<!-- Node8 -->
<g id="Node000008" class="node">
<title>Node8</title>
<g id="a_Node000008"><a xlink:href="_command_8h.html" target="_top" xlink:title=" ">
<polygon fill="white" stroke="#666666" points="683.62,-76 614.38,-76 614.38,-56 683.62,-56 683.62,-76"/>
<text text-anchor="middle" x="649" y="-62.5" font-family="Helvetica,sans-Serif" font-size="10.00">Command.h</text>
</a>
</g>
</g>
<!-- Node3&#45;&gt;Node8 -->
<g id="edge7_Node000003_Node000008" class="edge">
<title>Node3&#45;&gt;Node8</title>
<g id="a_edge7_Node000003_Node000008"><a xlink:title=" ">
<path fill="none" stroke="#63b8ff" d="M425.77,-176.17C485.91,-173.82 618.58,-164.93 647,-132 657.38,-119.97 656.95,-101.52 654.46,-87.34"/>
<polygon fill="#63b8ff" stroke="#63b8ff" points="657.91,-86.72 652.29,-77.73 651.08,-88.26 657.91,-86.72"/>
</a>
</g>
</g>
<!-- Node10 -->
<g id="Node000010" class="node">
<title>Node10</title>
<g id="a_Node000010"><a xlink:href="_command_handler_8h.html" target="_top" xlink:title=" ">
<polygon fill="white" stroke="#666666" points="637.5,-132 534.5,-132 534.5,-112 637.5,-112 637.5,-132"/>
<text text-anchor="middle" x="586" y="-118.5" font-family="Helvetica,sans-Serif" font-size="10.00">CommandHandler.h</text>
</a>
</g>
</g>
<!-- Node3&#45;&gt;Node10 -->
<g id="edge11_Node000003_Node000010" class="edge">
<title>Node3&#45;&gt;Node10</title>
<g id="a_edge11_Node000003_Node000010"><a xlink:title=" ">
<path fill="none" stroke="#63b8ff" d="M425.69,-168.56C456.9,-159.69 506.35,-145.64 542.07,-135.48"/>
<polygon fill="#63b8ff" stroke="#63b8ff" points="542.57,-138.98 551.23,-132.88 540.66,-132.25 542.57,-138.98"/>
</a>
</g>
</g>
<!-- Node3&#45;&gt;Node11 -->
<g id="edge15_Node000003_Node000011" class="edge">
<title>Node3&#45;&gt;Node11</title>
<g id="a_edge15_Node000003_Node000011"><a xlink:title=" ">
<path fill="none" stroke="#63b8ff" d="M366.4,-172.11C311.08,-162.98 191.31,-143.2 121.82,-131.72"/>
<polygon fill="#63b8ff" stroke="#63b8ff" points="122.63,-128.31 112.19,-130.13 121.49,-135.22 122.63,-128.31"/>
</a>
</g>
</g>
<!-- Node14 -->
<g id="Node000014" class="node">
<title>Node14</title>
<g id="a_Node000014"><a xlink:href="_program_variable_8h.html" target="_top" xlink:title=" ">
<polygon fill="white" stroke="#666666" points="481.75,-76 386.25,-76 386.25,-56 481.75,-56 481.75,-76"/>
<text text-anchor="middle" x="434" y="-62.5" font-family="Helvetica,sans-Serif" font-size="10.00">ProgramVariable.h</text>
</a>
</g>
</g>
<!-- Node3&#45;&gt;Node14 -->
<g id="edge22_Node000003_Node000014" class="edge">
<title>Node3&#45;&gt;Node14</title>
<g id="a_edge22_Node000003_Node000014"><a xlink:title=" ">
<path fill="none" stroke="#63b8ff" d="M399.24,-167.62C405.38,-149.84 418.84,-110.88 427.09,-87"/>
<polygon fill="#63b8ff" stroke="#63b8ff" points="430.32,-88.38 430.27,-77.79 423.7,-86.09 430.32,-88.38"/>
</a>
</g>
</g>
<!-- Node15 -->
<g id="Node000015" class="node">
<title>Node15</title>
<g id="a_Node000015"><a xlink:href="_lexer_8h.html" target="_top" xlink:title=" ">
<polygon fill="white" stroke="#666666" points="310.12,-132 261.88,-132 261.88,-112 310.12,-112 310.12,-132"/>
<text text-anchor="middle" x="286" y="-118.5" font-family="Helvetica,sans-Serif" font-size="10.00">Lexer.h</text>
</a>
</g>
</g>
<!-- Node3&#45;&gt;Node15 -->
<g id="edge27_Node000003_Node000015" class="edge">
<title>Node3&#45;&gt;Node15</title>
<g id="a_edge27_Node000003_Node000015"><a xlink:title=" ">
<path fill="none" stroke="#63b8ff" d="M376.84,-167.59C359.91,-159.28 334.95,-147.03 315.48,-137.47"/>
<polygon fill="#63b8ff" stroke="#63b8ff" points="317.19,-134.41 306.67,-133.15 314.1,-140.7 317.19,-134.41"/>
</a>
</g>
</g>
<!-- Node8&#45;&gt;Node4 -->
<g id="edge8_Node000008_Node000004" class="edge">
<title>Node8&#45;&gt;Node4</title>
<g id="a_edge8_Node000008_Node000004"><a xlink:title=" ">
<path fill="none" stroke="#63b8ff" d="M655.27,-55.59C660.02,-48.47 666.7,-38.45 672.52,-29.72"/>
<polygon fill="#63b8ff" stroke="#63b8ff" points="675.33,-31.82 677.96,-21.56 669.5,-27.94 675.33,-31.82"/>
</a>
</g>
</g>
<!-- Node8&#45;&gt;Node6 -->
<g id="edge10_Node000008_Node000006" class="edge">
<title>Node8&#45;&gt;Node6</title>
<g id="a_edge10_Node000008_Node000006"><a xlink:title=" ">
<path fill="none" stroke="#63b8ff" d="M614.1,-59.27C549.76,-48.71 413.38,-26.33 351.6,-16.19"/>
<polygon fill="#63b8ff" stroke="#63b8ff" points="352.21,-12.74 341.77,-14.57 351.07,-19.65 352.21,-12.74"/>
</a>
</g>
</g>
<!-- Node9 -->
<g id="Node000009" class="node">
<title>Node9</title>
<g id="a_Node000009"><a xlink:title=" ">
<polygon fill="#e0e0e0" stroke="#999999" points="618.75,-20 553.25,-20 553.25,0 618.75,0 618.75,-20"/>
<text text-anchor="middle" x="586" y="-6.5" font-family="Helvetica,sans-Serif" font-size="10.00">string_view</text>
</a>
</g>
</g>
<!-- Node8&#45;&gt;Node9 -->
<g id="edge9_Node000008_Node000009" class="edge">
<title>Node8&#45;&gt;Node9</title>
<g id="a_edge9_Node000008_Node000009"><a xlink:title=" ">
<path fill="none" stroke="#63b8ff" d="M638.03,-55.59C629.08,-47.93 616.23,-36.91 605.54,-27.75"/>
<polygon fill="#63b8ff" stroke="#63b8ff" points="607.87,-25.13 598,-21.28 603.31,-30.45 607.87,-25.13"/>
</a>
</g>
</g>
<!-- Node10&#45;&gt;Node7 -->
<g id="edge12_Node000010_Node000007" class="edge">
<title>Node10&#45;&gt;Node7</title>
<g id="a_edge12_Node000010_Node000007"><a xlink:title=" ">
<path fill="none" stroke="#63b8ff" d="M578.02,-111.71C566.62,-98.66 544.75,-74.43 524,-56 512.4,-45.7 498.61,-35.24 487.17,-27.01"/>
<polygon fill="#63b8ff" stroke="#63b8ff" points="489.26,-24.2 479.08,-21.27 485.22,-29.91 489.26,-24.2"/>
</a>
</g>
</g>
<!-- Node10&#45;&gt;Node8 -->
<g id="edge14_Node000010_Node000008" class="edge">
<title>Node10&#45;&gt;Node8</title>
<g id="a_edge14_Node000010_Node000008"><a xlink:title=" ">
<path fill="none" stroke="#63b8ff" d="M596.97,-111.59C605.92,-103.93 618.77,-92.91 629.46,-83.75"/>
<polygon fill="#63b8ff" stroke="#63b8ff" points="631.69,-86.45 637,-77.28 627.13,-81.13 631.69,-86.45"/>
</a>
</g>
</g>
<!-- Node10&#45;&gt;Node9 -->
<g id="edge13_Node000010_Node000009" class="edge">
<title>Node10&#45;&gt;Node9</title>
<g id="a_edge13_Node000010_Node000009"><a xlink:title=" ">
<path fill="none" stroke="#63b8ff" d="M586,-111.62C586,-94.01 586,-55.59 586,-31.65"/>
<polygon fill="#63b8ff" stroke="#63b8ff" points="589.5,-31.87 586,-21.87 582.5,-31.87 589.5,-31.87"/>
</a>
</g>
</g>
<!-- Node11&#45;&gt;Node5 -->
<g id="edge16_Node000011_Node000005" class="edge">
<title>Node11&#45;&gt;Node5</title>
<g id="a_edge16_Node000011_Node000005"><a xlink:title=" ">
<path fill="none" stroke="#63b8ff" d="M74.88,-111.62C86.19,-93.6 111.14,-53.81 126.07,-30.02"/>
<polygon fill="#63b8ff" stroke="#63b8ff" points="128.98,-31.97 131.33,-21.64 123.05,-28.25 128.98,-31.97"/>
</a>
</g>
</g>
<!-- Node11&#45;&gt;Node6 -->
<g id="edge17_Node000011_Node000006" class="edge">
<title>Node11&#45;&gt;Node6</title>
<g id="a_edge17_Node000011_Node000006"><a xlink:title=" ">
<path fill="none" stroke="#63b8ff" d="M90.4,-111.62C134.91,-92.11 237.61,-47.11 289.22,-24.49"/>
<polygon fill="#63b8ff" stroke="#63b8ff" points="290.57,-27.72 298.32,-20.5 287.76,-21.31 290.57,-27.72"/>
</a>
</g>
</g>
<!-- Node12 -->
<g id="Node000012" class="node">
<title>Node12</title>
<g id="a_Node000012"><a xlink:href="_utils_8h.html" target="_top" xlink:title=" ">
<polygon fill="white" stroke="#666666" points="72.25,-76 27.75,-76 27.75,-56 72.25,-56 72.25,-76"/>
<text text-anchor="middle" x="50" y="-62.5" font-family="Helvetica,sans-Serif" font-size="10.00">Utils.h</text>
</a>
</g>
</g>
<!-- Node11&#45;&gt;Node12 -->
<g id="edge18_Node000011_Node000012" class="edge">
<title>Node11&#45;&gt;Node12</title>
<g id="a_edge18_Node000011_Node000012"><a xlink:title=" ">
<path fill="none" stroke="#63b8ff" d="M65.69,-111.59C63.32,-104.86 60.04,-95.53 57.09,-87.15"/>
<polygon fill="#63b8ff" stroke="#63b8ff" points="60.39,-86 53.77,-77.73 53.79,-88.32 60.39,-86"/>
</a>
</g>
</g>
<!-- Node12&#45;&gt;Node5 -->
<g id="edge19_Node000012_Node000005" class="edge">
<title>Node12&#45;&gt;Node5</title>
<g id="a_edge19_Node000012_Node000005"><a xlink:title=" ">
<path fill="none" stroke="#63b8ff" d="M65.33,-55.59C78.5,-47.51 97.73,-35.71 113.11,-26.27"/>
<polygon fill="#63b8ff" stroke="#63b8ff" points="114.57,-29.48 121.26,-21.27 110.91,-23.52 114.57,-29.48"/>
</a>
</g>
</g>
<!-- Node12&#45;&gt;Node6 -->
<g id="edge20_Node000012_Node000006" class="edge">
<title>Node12&#45;&gt;Node6</title>
<g id="a_edge20_Node000012_Node000006"><a xlink:title=" ">
<path fill="none" stroke="#63b8ff" d="M72.56,-60.49C120.61,-50.88 233.2,-28.36 288.38,-17.32"/>
<polygon fill="#63b8ff" stroke="#63b8ff" points="288.95,-20.78 298.07,-15.39 287.58,-13.91 288.95,-20.78"/>
</a>
</g>
</g>
<!-- Node12&#45;&gt;Node13 -->
<g id="edge21_Node000012_Node000013" class="edge">
<title>Node12&#45;&gt;Node13</title>
<g id="a_edge21_Node000012_Node000013"><a xlink:title=" ">
<path fill="none" stroke="#63b8ff" d="M50,-55.59C50,-49.01 50,-39.96 50,-31.73"/>
<polygon fill="#63b8ff" stroke="#63b8ff" points="53.5,-31.81 50,-21.81 46.5,-31.81 53.5,-31.81"/>
</a>
</g>
</g>
<!-- Node14&#45;&gt;Node6 -->
<g id="edge23_Node000014_Node000006" class="edge">
<title>Node14&#45;&gt;Node6</title>
<g id="a_edge23_Node000014_Node000006"><a xlink:title=" ">
<path fill="none" stroke="#63b8ff" d="M414.14,-55.59C396.51,-47.24 370.49,-34.92 350.27,-25.34"/>
<polygon fill="#63b8ff" stroke="#63b8ff" points="351.92,-22.25 341.38,-21.13 348.92,-28.57 351.92,-22.25"/>
</a>
</g>
</g>
<!-- Node14&#45;&gt;Node7 -->
<g id="edge26_Node000014_Node000007" class="edge">
<title>Node14&#45;&gt;Node7</title>
<g id="a_edge26_Node000014_Node000007"><a xlink:title=" ">
<path fill="none" stroke="#63b8ff" d="M439.23,-55.59C443.1,-48.63 448.51,-38.89 453.28,-30.29"/>
<polygon fill="#63b8ff" stroke="#63b8ff" points="456.3,-32.06 458.1,-21.62 450.18,-28.66 456.3,-32.06"/>
</a>
</g>
</g>
<!-- Node14&#45;&gt;Node9 -->
<g id="edge24_Node000014_Node000009" class="edge">
<title>Node14&#45;&gt;Node9</title>
<g id="a_edge24_Node000014_Node000009"><a xlink:title=" ">
<path fill="none" stroke="#63b8ff" d="M460.48,-55.59C484.85,-46.94 521.25,-34 548.59,-24.29"/>
<polygon fill="#63b8ff" stroke="#63b8ff" points="549.64,-27.63 557.89,-20.99 547.3,-21.04 549.64,-27.63"/>
</a>
</g>
</g>
<!-- Node14&#45;&gt;Node13 -->
<g id="edge25_Node000014_Node000013" class="edge">
<title>Node14&#45;&gt;Node13</title>
<g id="a_edge25_Node000014_Node000013"><a xlink:title=" ">
<path fill="none" stroke="#63b8ff" d="M386,-58.84C321.88,-50.51 204.77,-34.98 105,-20 99.23,-19.13 93.12,-18.17 87.16,-17.22"/>
<polygon fill="#63b8ff" stroke="#63b8ff" points="87.92,-13.8 77.49,-15.64 86.8,-20.7 87.92,-13.8"/>
</a>
</g>
</g>
<!-- Node15&#45;&gt;Node5 -->
<g id="edge28_Node000015_Node000005" class="edge">
<title>Node15&#45;&gt;Node5</title>
<g id="a_edge28_Node000015_Node000005"><a xlink:title=" ">
<path fill="none" stroke="#63b8ff" d="M273.38,-111.62C248.15,-92.87 191.21,-50.55 159.81,-27.21"/>
<polygon fill="#63b8ff" stroke="#63b8ff" points="161.92,-24.41 151.8,-21.26 157.74,-30.03 161.92,-24.41"/>
</a>
</g>
</g>
<!-- Node15&#45;&gt;Node6 -->
<g id="edge29_Node000015_Node000006" class="edge">
<title>Node15&#45;&gt;Node6</title>
<g id="a_edge29_Node000015_Node000006"><a xlink:title=" ">
<path fill="none" stroke="#63b8ff" d="M289.2,-111.72C292.31,-102.65 297.12,-88.42 301,-76 305.68,-61.03 310.64,-44.02 314.32,-31.15"/>
<polygon fill="#63b8ff" stroke="#63b8ff" points="317.63,-32.32 316.99,-21.75 310.89,-30.41 317.63,-32.32"/>
</a>
</g>
</g>
<!-- Node16 -->
<g id="Node000016" class="node">
<title>Node16</title>
<g id="a_Node000016"><a xlink:href="_token_8h.html" target="_top" xlink:title=" ">
<polygon fill="white" stroke="#666666" points="292.25,-76 241.75,-76 241.75,-56 292.25,-56 292.25,-76"/>
<text text-anchor="middle" x="267" y="-62.5" font-family="Helvetica,sans-Serif" font-size="10.00">Token.h</text>
</a>
</g>
</g>
<!-- Node15&#45;&gt;Node16 -->
<g id="edge30_Node000015_Node000016" class="edge">
<title>Node15&#45;&gt;Node16</title>
<g id="a_edge30_Node000015_Node000016"><a xlink:title=" ">
<path fill="none" stroke="#63b8ff" d="M282.69,-111.59C280.32,-104.86 277.04,-95.53 274.09,-87.15"/>
<polygon fill="#63b8ff" stroke="#63b8ff" points="277.39,-86 270.77,-77.73 270.79,-88.32 277.39,-86"/>
</a>
</g>
</g>
<!-- Node16&#45;&gt;Node5 -->
<g id="edge31_Node000016_Node000005" class="edge">
<title>Node16&#45;&gt;Node5</title>
<g id="a_edge31_Node000016_Node000005"><a xlink:title=" ">
<path fill="none" stroke="#63b8ff" d="M244.53,-55.59C224.21,-47.09 194.05,-34.46 170.99,-24.81"/>
<polygon fill="#63b8ff" stroke="#63b8ff" points="172.62,-21.7 162.04,-21.06 169.91,-28.15 172.62,-21.7"/>
</a>
</g>
</g>
<!-- Node16&#45;&gt;Node6 -->
<g id="edge32_Node000016_Node000006" class="edge">
<title>Node16&#45;&gt;Node6</title>
<g id="a_edge32_Node000016_Node000006"><a xlink:title=" ">
<path fill="none" stroke="#63b8ff" d="M276.23,-55.59C283.6,-48.08 294.13,-37.35 303.02,-28.3"/>
<polygon fill="#63b8ff" stroke="#63b8ff" points="305.31,-30.97 309.81,-21.38 300.31,-26.06 305.31,-30.97"/>
</a>
</g>
</g>
<!-- Node16&#45;&gt;Node7 -->
<g id="edge33_Node000016_Node000007" class="edge">
<title>Node16&#45;&gt;Node7</title>
<g id="a_edge33_Node000016_Node000007"><a xlink:title=" ">
<path fill="none" stroke="#63b8ff" d="M292.35,-58.05C324.13,-49.34 379.18,-34.25 418.37,-23.51"/>
<polygon fill="#63b8ff" stroke="#63b8ff" points="419.3,-26.88 428.01,-20.86 417.44,-20.13 419.3,-26.88"/>
</a>
</g>
</g>
</g>
</svg>
