<?xml version="1.0" encoding="UTF-8" standalone="no"?>
<!DOCTYPE svg PUBLIC "-//W3C//DTD SVG 1.1//EN"
 "http://www.w3.org/Graphics/SVG/1.1/DTD/svg11.dtd">
<!-- Generated by graphviz version 12.2.1 (20241206.2353)
 -->
<!-- Title: C:/Users/emilly/Documents/Lucca/Projetos/Cpp/NikiScript/src/Parser.cpp Pages: 1 -->
<svg width="1071pt" height="332pt"
 viewBox="0.00 0.00 1070.63 332.00" xmlns="http://www.w3.org/2000/svg" xmlns:xlink="http://www.w3.org/1999/xlink">
<g id="graph0" class="graph" transform="scale(1 1) rotate(0) translate(4 328)">
<title>C:/Users/emilly/Documents/Lucca/Projetos/Cpp/NikiScript/src/Parser.cpp</title>
<!-- Node1 -->
<g id="Node000001" class="node">
<title>Node1</title>
<g id="a_Node000001"><a xlink:title=" ">
<polygon fill="#999999" stroke="#666666" points="937.63,-324 786.63,-324 786.63,-280 937.63,-280 937.63,-324"/>
<text text-anchor="start" x="794.63" y="-310.5" font-family="Helvetica,sans-Serif" font-size="10.00">C:/Users/emilly/Documents</text>
<text text-anchor="start" x="794.63" y="-298.5" font-family="Helvetica,sans-Serif" font-size="10.00">/Lucca/Projetos/Cpp/NikiScript</text>
<text text-anchor="middle" x="862.13" y="-286.5" font-family="Helvetica,sans-Serif" font-size="10.00">/src/Parser.cpp</text>
</a>
</g>
</g>
<!-- Node2 -->
<g id="Node000002" class="node">
<title>Node2</title>
<g id="a_Node000002"><a xlink:href="_parser_8h.html" target="_top" xlink:title=" ">
<polygon fill="white" stroke="#666666" points="300.51,-244 247.76,-244 247.76,-224 300.51,-224 300.51,-244"/>
<text text-anchor="middle" x="274.13" y="-230.5" font-family="Helvetica,sans-Serif" font-size="10.00">Parser.h</text>
</a>
</g>
</g>
<!-- Node1&#45;&gt;Node2 -->
<g id="edge1_Node000001_Node000002" class="edge">
<title>Node1&#45;&gt;Node2</title>
<g id="a_edge1_Node000001_Node000002"><a xlink:title=" ">
<path fill="none" stroke="#63b8ff" d="M786.17,-292.47C659.04,-278.2 407.74,-250 312.21,-239.27"/>
<polygon fill="#63b8ff" stroke="#63b8ff" points="312.66,-235.8 302.33,-238.16 311.88,-242.76 312.66,-235.8"/>
</a>
</g>
</g>
<!-- Node11 -->
<g id="Node000011" class="node">
<title>Node11</title>
<g id="a_Node000011"><a xlink:href="_print_callback_8h.html" target="_top" xlink:title=" ">
<polygon fill="white" stroke="#666666" points="662.51,-132 579.76,-132 579.76,-112 662.51,-112 662.51,-132"/>
<text text-anchor="middle" x="621.13" y="-118.5" font-family="Helvetica,sans-Serif" font-size="10.00">PrintCallback.h</text>
</a>
</g>
</g>
<!-- Node1&#45;&gt;Node11 -->
<g id="edge46_Node000001_Node000011" class="edge">
<title>Node1&#45;&gt;Node11</title>
<g id="a_edge46_Node000001_Node000011"><a xlink:title=" ">
<path fill="none" stroke="#63b8ff" d="M833.06,-279.53C784.17,-243.41 686.54,-171.31 642.99,-139.14"/>
<polygon fill="#63b8ff" stroke="#63b8ff" points="645.18,-136.41 635.06,-133.29 641.03,-142.04 645.18,-136.41"/>
</a>
</g>
</g>
<!-- Node13 -->
<g id="Node000013" class="node">
<title>Node13</title>
<g id="a_Node000013"><a xlink:title=" ">
<polygon fill="#e0e0e0" stroke="#999999" points="820.76,-20 769.51,-20 769.51,0 820.76,0 820.76,-20"/>
<text text-anchor="middle" x="795.13" y="-6.5" font-family="Helvetica,sans-Serif" font-size="10.00">sstream</text>
</a>
</g>
</g>
<!-- Node1&#45;&gt;Node13 -->
<g id="edge45_Node000001_Node000013" class="edge">
<title>Node1&#45;&gt;Node13</title>
<g id="a_edge45_Node000001_Node000013"><a xlink:title=" ">
<path fill="none" stroke="#63b8ff" d="M853.9,-279.77C845.33,-255.71 833.13,-215.14 833.13,-179 833.13,-179 833.13,-179 833.13,-121 833.13,-87.77 817.45,-51.85 806.24,-30.4"/>
<polygon fill="#63b8ff" stroke="#63b8ff" points="809.33,-28.76 801.47,-21.66 803.19,-32.12 809.33,-28.76"/>
</a>
</g>
</g>
<!-- Node17 -->
<g id="Node000017" class="node">
<title>Node17</title>
<g id="a_Node000017"><a xlink:title=" ">
<polygon fill="#e0e0e0" stroke="#999999" points="922.63,-244 861.63,-244 861.63,-224 922.63,-224 922.63,-244"/>
<text text-anchor="middle" x="892.13" y="-230.5" font-family="Helvetica,sans-Serif" font-size="10.00">filesystem</text>
</a>
</g>
</g>
<!-- Node1&#45;&gt;Node17 -->
<g id="edge42_Node000001_Node000017" class="edge">
<title>Node1&#45;&gt;Node17</title>
<g id="a_edge42_Node000001_Node000017"><a xlink:title=" ">
<path fill="none" stroke="#63b8ff" d="M871.79,-279.75C875.43,-271.75 879.55,-262.69 883.12,-254.83"/>
<polygon fill="#63b8ff" stroke="#63b8ff" points="886.28,-256.35 887.23,-245.8 879.9,-253.45 886.28,-256.35"/>
</a>
</g>
</g>
<!-- Node18 -->
<g id="Node000018" class="node">
<title>Node18</title>
<g id="a_Node000018"><a xlink:title=" ">
<polygon fill="#e0e0e0" stroke="#999999" points="996.01,-244 940.26,-244 940.26,-224 996.01,-224 996.01,-244"/>
<text text-anchor="middle" x="968.13" y="-230.5" font-family="Helvetica,sans-Serif" font-size="10.00">algorithm</text>
</a>
</g>
</g>
<!-- Node1&#45;&gt;Node18 -->
<g id="edge43_Node000001_Node000018" class="edge">
<title>Node1&#45;&gt;Node18</title>
<g id="a_edge43_Node000001_Node000018"><a xlink:title=" ">
<path fill="none" stroke="#63b8ff" d="M896.55,-279.57C911.92,-270 929.68,-258.94 943.67,-250.24"/>
<polygon fill="#63b8ff" stroke="#63b8ff" points="945.17,-253.42 951.81,-245.17 941.47,-247.48 945.17,-253.42"/>
</a>
</g>
</g>
<!-- Node19 -->
<g id="Node000019" class="node">
<title>Node19</title>
<g id="a_Node000019"><a xlink:title=" ">
<polygon fill="#e0e0e0" stroke="#999999" points="1062.63,-244 1013.63,-244 1013.63,-224 1062.63,-224 1062.63,-244"/>
<text text-anchor="middle" x="1038.13" y="-230.5" font-family="Helvetica,sans-Serif" font-size="10.00">fstream</text>
</a>
</g>
</g>
<!-- Node1&#45;&gt;Node19 -->
<g id="edge44_Node000001_Node000019" class="edge">
<title>Node1&#45;&gt;Node19</title>
<g id="a_edge44_Node000001_Node000019"><a xlink:title=" ">
<path fill="none" stroke="#63b8ff" d="M919.28,-279.57C946.66,-269.3 978.6,-257.32 1002.48,-248.37"/>
<polygon fill="#63b8ff" stroke="#63b8ff" points="1003.61,-251.69 1011.74,-244.9 1001.15,-245.13 1003.61,-251.69"/>
</a>
</g>
</g>
<!-- Node3 -->
<g id="Node000003" class="node">
<title>Node3</title>
<g id="a_Node000003"><a xlink:href="_context_8h.html" target="_top" xlink:title=" ">
<polygon fill="white" stroke="#666666" points="303.51,-188 244.76,-188 244.76,-168 303.51,-168 303.51,-188"/>
<text text-anchor="middle" x="274.13" y="-174.5" font-family="Helvetica,sans-Serif" font-size="10.00">Context.h</text>
</a>
</g>
</g>
<!-- Node2&#45;&gt;Node3 -->
<g id="edge2_Node000002_Node000003" class="edge">
<title>Node2&#45;&gt;Node3</title>
<g id="a_edge2_Node000002_Node000003"><a xlink:title=" ">
<path fill="none" stroke="#63b8ff" d="M274.13,-223.59C274.13,-217.01 274.13,-207.96 274.13,-199.73"/>
<polygon fill="#63b8ff" stroke="#63b8ff" points="277.63,-199.81 274.13,-189.81 270.63,-199.81 277.63,-199.81"/>
</a>
</g>
</g>
<!-- Node9 -->
<g id="Node000009" class="node">
<title>Node9</title>
<g id="a_Node000009"><a xlink:href="_d_l_l_8h.html" target="_top" xlink:title=" ">
<polygon fill="white" stroke="#666666" points="306.26,-20 264.01,-20 264.01,0 306.26,0 306.26,-20"/>
<text text-anchor="middle" x="285.13" y="-6.5" font-family="Helvetica,sans-Serif" font-size="10.00">DLL.h</text>
</a>
</g>
</g>
<!-- Node2&#45;&gt;Node9 -->
<g id="edge41_Node000002_Node000009" class="edge">
<title>Node2&#45;&gt;Node9</title>
<g id="a_edge41_Node000002_Node000009"><a xlink:title=" ">
<path fill="none" stroke="#63b8ff" d="M247.48,-226.99C167.64,-207.82 -59.58,-144.2 15.13,-56 45.21,-20.5 187.24,-12.98 252.37,-11.41"/>
<polygon fill="#63b8ff" stroke="#63b8ff" points="252.15,-14.91 262.07,-11.21 252,-7.91 252.15,-14.91"/>
</a>
</g>
</g>
<!-- Node4 -->
<g id="Node000004" class="node">
<title>Node4</title>
<g id="a_Node000004"><a xlink:title=" ">
<polygon fill="#e0e0e0" stroke="#999999" points="105.63,-20 62.63,-20 62.63,0 105.63,0 105.63,-20"/>
<text text-anchor="middle" x="84.13" y="-6.5" font-family="Helvetica,sans-Serif" font-size="10.00">vector</text>
</a>
</g>
</g>
<!-- Node3&#45;&gt;Node4 -->
<g id="edge3_Node000003_Node000004" class="edge">
<title>Node3&#45;&gt;Node4</title>
<g id="a_edge3_Node000003_Node000004"><a xlink:title=" ">
<path fill="none" stroke="#63b8ff" d="M244.43,-175.41C186.41,-171.69 60.99,-160.5 30.13,-132 4.84,-108.64 -1.26,-86.27 15.13,-56 23.06,-41.37 38.03,-30.74 52.01,-23.5"/>
<polygon fill="#63b8ff" stroke="#63b8ff" points="53.45,-26.69 61,-19.26 50.47,-20.36 53.45,-26.69"/>
</a>
</g>
</g>
<!-- Node5 -->
<g id="Node000005" class="node">
<title>Node5</title>
<g id="a_Node000005"><a xlink:title=" ">
<polygon fill="#e0e0e0" stroke="#999999" points="680.26,-20 632.01,-20 632.01,0 680.26,0 680.26,-20"/>
<text text-anchor="middle" x="656.13" y="-6.5" font-family="Helvetica,sans-Serif" font-size="10.00">stdint.h</text>
</a>
</g>
</g>
<!-- Node3&#45;&gt;Node5 -->
<g id="edge4_Node000003_Node000005" class="edge">
<title>Node3&#45;&gt;Node5</title>
<g id="a_edge4_Node000003_Node000005"><a xlink:title=" ">
<path fill="none" stroke="#63b8ff" d="M303.92,-176.71C385.2,-175.44 608.88,-168.62 671.13,-132 704.04,-112.65 727.48,-90.49 711.13,-56 705.39,-43.88 694.61,-33.94 684.1,-26.51"/>
<polygon fill="#63b8ff" stroke="#63b8ff" points="686.24,-23.73 675.95,-21.23 682.44,-29.6 686.24,-23.73"/>
</a>
</g>
</g>
<!-- Node6 -->
<g id="Node000006" class="node">
<title>Node6</title>
<g id="a_Node000006"><a xlink:title=" ">
<polygon fill="#e0e0e0" stroke="#999999" points="479.13,-20 439.13,-20 439.13,0 479.13,0 479.13,-20"/>
<text text-anchor="middle" x="459.13" y="-6.5" font-family="Helvetica,sans-Serif" font-size="10.00">string</text>
</a>
</g>
</g>
<!-- Node3&#45;&gt;Node6 -->
<g id="edge5_Node000003_Node000006" class="edge">
<title>Node3&#45;&gt;Node6</title>
<g id="a_edge5_Node000003_Node000006"><a xlink:title=" ">
<path fill="none" stroke="#63b8ff" d="M303.93,-177.52C342.07,-176.55 407.89,-169.09 447.13,-132 474.28,-106.35 469.64,-58.37 464.18,-31.17"/>
<polygon fill="#63b8ff" stroke="#63b8ff" points="467.67,-30.75 462.06,-21.76 460.84,-32.29 467.67,-30.75"/>
</a>
</g>
</g>
<!-- Node7 -->
<g id="Node000007" class="node">
<title>Node7</title>
<g id="a_Node000007"><a xlink:title=" ">
<polygon fill="#e0e0e0" stroke="#999999" points="257.51,-76 174.76,-76 174.76,-56 257.51,-56 257.51,-76"/>
<text text-anchor="middle" x="216.13" y="-62.5" font-family="Helvetica,sans-Serif" font-size="10.00">unordered_map</text>
</a>
</g>
</g>
<!-- Node3&#45;&gt;Node7 -->
<g id="edge6_Node000003_Node000007" class="edge">
<title>Node3&#45;&gt;Node7</title>
<g id="a_edge6_Node000003_Node000007"><a xlink:title=" ">
<path fill="none" stroke="#63b8ff" d="M269.19,-167.62C259.73,-149.68 238.9,-110.17 226.34,-86.35"/>
<polygon fill="#63b8ff" stroke="#63b8ff" points="229.53,-84.91 221.77,-77.69 223.34,-88.17 229.53,-84.91"/>
</a>
</g>
</g>
<!-- Node8 -->
<g id="Node000008" class="node">
<title>Node8</title>
<g id="a_Node000008"><a xlink:href="_command_8h.html" target="_top" xlink:title=" ">
<polygon fill="white" stroke="#666666" points="118.76,-76 49.51,-76 49.51,-56 118.76,-56 118.76,-76"/>
<text text-anchor="middle" x="84.13" y="-62.5" font-family="Helvetica,sans-Serif" font-size="10.00">Command.h</text>
</a>
</g>
</g>
<!-- Node3&#45;&gt;Node8 -->
<g id="edge7_Node000003_Node000008" class="edge">
<title>Node3&#45;&gt;Node8</title>
<g id="a_edge7_Node000003_Node000008"><a xlink:title=" ">
<path fill="none" stroke="#63b8ff" d="M244.57,-173.4C199.37,-167.28 116.19,-153.4 96.13,-132 85.09,-120.21 82.56,-101.74 82.53,-87.49"/>
<polygon fill="#63b8ff" stroke="#63b8ff" points="86.01,-87.98 82.92,-77.85 79.01,-87.69 86.01,-87.98"/>
</a>
</g>
</g>
<!-- Node3&#45;&gt;Node9 -->
<g id="edge40_Node000003_Node000009" class="edge">
<title>Node3&#45;&gt;Node9</title>
<g id="a_edge40_Node000003_Node000009"><a xlink:title=" ">
<path fill="none" stroke="#63b8ff" d="M244.39,-173.71C166.55,-163.98 -32.93,-131.16 30.13,-56 58.16,-22.59 190.15,-13.98 252.44,-11.76"/>
<polygon fill="#63b8ff" stroke="#63b8ff" points="252.17,-15.27 262.05,-11.46 251.95,-8.28 252.17,-15.27"/>
</a>
</g>
</g>
<!-- Node10 -->
<g id="Node000010" class="node">
<title>Node10</title>
<g id="a_Node000010"><a xlink:href="_command_handler_8h.html" target="_top" xlink:title=" ">
<polygon fill="white" stroke="#666666" points="207.63,-132 104.63,-132 104.63,-112 207.63,-112 207.63,-132"/>
<text text-anchor="middle" x="156.13" y="-118.5" font-family="Helvetica,sans-Serif" font-size="10.00">CommandHandler.h</text>
</a>
</g>
</g>
<!-- Node3&#45;&gt;Node10 -->
<g id="edge12_Node000003_Node000010" class="edge">
<title>Node3&#45;&gt;Node10</title>
<g id="a_edge12_Node000003_Node000010"><a xlink:title=" ">
<path fill="none" stroke="#63b8ff" d="M253.58,-167.59C235.25,-159.21 208.15,-146.8 187.18,-137.21"/>
<polygon fill="#63b8ff" stroke="#63b8ff" points="188.77,-134.09 178.23,-133.11 185.86,-140.45 188.77,-134.09"/>
</a>
</g>
</g>
<!-- Node3&#45;&gt;Node11 -->
<g id="edge17_Node000003_Node000011" class="edge">
<title>Node3&#45;&gt;Node11</title>
<g id="a_edge17_Node000003_Node000011"><a xlink:title=" ">
<path fill="none" stroke="#63b8ff" d="M303.72,-172.4C362.37,-163.27 494.1,-142.77 568.1,-131.25"/>
<polygon fill="#63b8ff" stroke="#63b8ff" points="568.62,-134.71 577.96,-129.72 567.54,-127.8 568.62,-134.71"/>
</a>
</g>
</g>
<!-- Node14 -->
<g id="Node000014" class="node">
<title>Node14</title>
<g id="a_Node000014"><a xlink:href="_program_variable_8h.html" target="_top" xlink:title=" ">
<polygon fill="white" stroke="#666666" points="359.88,-132 264.38,-132 264.38,-112 359.88,-112 359.88,-132"/>
<text text-anchor="middle" x="312.13" y="-118.5" font-family="Helvetica,sans-Serif" font-size="10.00">ProgramVariable.h</text>
</a>
</g>
</g>
<!-- Node3&#45;&gt;Node14 -->
<g id="edge26_Node000003_Node000014" class="edge">
<title>Node3&#45;&gt;Node14</title>
<g id="a_edge26_Node000003_Node000014"><a xlink:title=" ">
<path fill="none" stroke="#63b8ff" d="M280.75,-167.59C285.82,-160.39 292.97,-150.23 299.16,-141.43"/>
<polygon fill="#63b8ff" stroke="#63b8ff" points="301.83,-143.73 304.72,-133.54 296.1,-139.7 301.83,-143.73"/>
</a>
</g>
</g>
<!-- Node15 -->
<g id="Node000015" class="node">
<title>Node15</title>
<g id="a_Node000015"><a xlink:href="_lexer_8h.html" target="_top" xlink:title=" ">
<polygon fill="white" stroke="#666666" points="438.26,-132 390.01,-132 390.01,-112 438.26,-112 438.26,-132"/>
<text text-anchor="middle" x="414.13" y="-118.5" font-family="Helvetica,sans-Serif" font-size="10.00">Lexer.h</text>
</a>
</g>
</g>
<!-- Node3&#45;&gt;Node15 -->
<g id="edge31_Node000003_Node000015" class="edge">
<title>Node3&#45;&gt;Node15</title>
<g id="a_edge31_Node000003_Node000015"><a xlink:title=" ">
<path fill="none" stroke="#63b8ff" d="M298.52,-167.59C320.77,-159.01 353.9,-146.23 379,-136.55"/>
<polygon fill="#63b8ff" stroke="#63b8ff" points="380.08,-139.89 388.15,-133.02 377.56,-133.36 380.08,-139.89"/>
</a>
</g>
</g>
<!-- Node8&#45;&gt;Node4 -->
<g id="edge8_Node000008_Node000004" class="edge">
<title>Node8&#45;&gt;Node4</title>
<g id="a_edge8_Node000008_Node000004"><a xlink:title=" ">
<path fill="none" stroke="#63b8ff" d="M84.13,-55.59C84.13,-49.01 84.13,-39.96 84.13,-31.73"/>
<polygon fill="#63b8ff" stroke="#63b8ff" points="87.63,-31.81 84.13,-21.81 80.63,-31.81 87.63,-31.81"/>
</a>
</g>
</g>
<!-- Node8&#45;&gt;Node5 -->
<g id="edge10_Node000008_Node000005" class="edge">
<title>Node8&#45;&gt;Node5</title>
<g id="a_edge10_Node000008_Node000005"><a xlink:title=" ">
<path fill="none" stroke="#63b8ff" d="M119.24,-61.01C133.75,-59.4 150.75,-57.55 166.13,-56 336.09,-38.87 539.48,-21.05 620.4,-14.06"/>
<polygon fill="#63b8ff" stroke="#63b8ff" points="620.48,-17.57 630.14,-13.22 619.88,-10.6 620.48,-17.57"/>
</a>
</g>
</g>
<!-- Node8&#45;&gt;Node6 -->
<g id="edge9_Node000008_Node000006" class="edge">
<title>Node8&#45;&gt;Node6</title>
<g id="a_edge9_Node000008_Node000006"><a xlink:title=" ">
<path fill="none" stroke="#63b8ff" d="M119.17,-58.37C123.86,-57.54 128.61,-56.73 133.13,-56 240.83,-38.69 369.21,-22.17 427.52,-14.89"/>
<polygon fill="#63b8ff" stroke="#63b8ff" points="427.87,-18.37 437.37,-13.67 427.01,-11.43 427.87,-18.37"/>
</a>
</g>
</g>
<!-- Node8&#45;&gt;Node9 -->
<g id="edge11_Node000008_Node000009" class="edge">
<title>Node8&#45;&gt;Node9</title>
<g id="a_edge11_Node000008_Node000009"><a xlink:title=" ">
<path fill="none" stroke="#63b8ff" d="M119.15,-55.59C156.7,-45.51 215.86,-29.61 252.48,-19.77"/>
<polygon fill="#63b8ff" stroke="#63b8ff" points="253.31,-23.18 262.06,-17.2 251.49,-16.41 253.31,-23.18"/>
</a>
</g>
</g>
<!-- Node10&#45;&gt;Node6 -->
<g id="edge14_Node000010_Node000006" class="edge">
<title>Node10&#45;&gt;Node6</title>
<g id="a_edge14_Node000010_Node000006"><a xlink:title=" ">
<path fill="none" stroke="#63b8ff" d="M154.47,-111.53C152.58,-97.35 151.44,-70.69 166.13,-56 184.49,-37.65 355.92,-20.27 427.73,-13.73"/>
<polygon fill="#63b8ff" stroke="#63b8ff" points="427.6,-17.26 437.24,-12.88 426.97,-10.29 427.6,-17.26"/>
</a>
</g>
</g>
<!-- Node10&#45;&gt;Node7 -->
<g id="edge13_Node000010_Node000007" class="edge">
<title>Node10&#45;&gt;Node7</title>
<g id="a_edge13_Node000010_Node000007"><a xlink:title=" ">
<path fill="none" stroke="#63b8ff" d="M166.59,-111.59C175.1,-103.93 187.34,-92.91 197.53,-83.75"/>
<polygon fill="#63b8ff" stroke="#63b8ff" points="199.59,-86.6 204.68,-77.31 194.9,-81.4 199.59,-86.6"/>
</a>
</g>
</g>
<!-- Node10&#45;&gt;Node8 -->
<g id="edge15_Node000010_Node000008" class="edge">
<title>Node10&#45;&gt;Node8</title>
<g id="a_edge15_Node000010_Node000008"><a xlink:title=" ">
<path fill="none" stroke="#63b8ff" d="M143.59,-111.59C133.17,-103.77 118.09,-92.46 105.72,-83.19"/>
<polygon fill="#63b8ff" stroke="#63b8ff" points="107.84,-80.41 97.74,-77.21 103.64,-86.01 107.84,-80.41"/>
</a>
</g>
</g>
<!-- Node10&#45;&gt;Node9 -->
<g id="edge16_Node000010_Node000009" class="edge">
<title>Node10&#45;&gt;Node9</title>
<g id="a_edge16_Node000010_Node000009"><a xlink:title=" ">
<path fill="none" stroke="#63b8ff" d="M105.92,-111.56C64.89,-101.64 17.16,-83.58 40.13,-56 66.8,-23.99 192.09,-14.67 252.45,-12.02"/>
<polygon fill="#63b8ff" stroke="#63b8ff" points="252.25,-15.53 262.1,-11.64 251.97,-8.54 252.25,-15.53"/>
</a>
</g>
</g>
<!-- Node11&#45;&gt;Node5 -->
<g id="edge18_Node000011_Node000005" class="edge">
<title>Node11&#45;&gt;Node5</title>
<g id="a_edge18_Node000011_Node000005"><a xlink:title=" ">
<path fill="none" stroke="#63b8ff" d="M649.93,-111.57C666.33,-104.55 685.48,-93.17 695.13,-76 704.48,-59.38 690.75,-40.74 677.07,-27.7"/>
<polygon fill="#63b8ff" stroke="#63b8ff" points="679.72,-25.37 669.9,-21.38 675.08,-30.62 679.72,-25.37"/>
</a>
</g>
</g>
<!-- Node11&#45;&gt;Node6 -->
<g id="edge19_Node000011_Node000006" class="edge">
<title>Node11&#45;&gt;Node6</title>
<g id="a_edge19_Node000011_Node000006"><a xlink:title=" ">
<path fill="none" stroke="#63b8ff" d="M613.73,-111.54C602.63,-97.86 580.47,-72.37 557.13,-56 536.41,-41.46 510.24,-29.73 490.16,-21.89"/>
<polygon fill="#63b8ff" stroke="#63b8ff" points="491.42,-18.63 480.83,-18.37 488.95,-25.18 491.42,-18.63"/>
</a>
</g>
</g>
<!-- Node11&#45;&gt;Node9 -->
<g id="edge20_Node000011_Node000009" class="edge">
<title>Node11&#45;&gt;Node9</title>
<g id="a_edge20_Node000011_Node000009"><a xlink:title=" ">
<path fill="none" stroke="#63b8ff" d="M598.14,-111.6C565.22,-98.32 502.6,-73.71 448.13,-56 403.31,-41.42 350.59,-27.43 317.51,-19.02"/>
<polygon fill="#63b8ff" stroke="#63b8ff" points="318.7,-15.71 308.14,-16.66 316.99,-22.5 318.7,-15.71"/>
</a>
</g>
</g>
<!-- Node12 -->
<g id="Node000012" class="node">
<title>Node12</title>
<g id="a_Node000012"><a xlink:href="_utils_8h.html" target="_top" xlink:title=" ">
<polygon fill="white" stroke="#666666" points="653.38,-76 608.88,-76 608.88,-56 653.38,-56 653.38,-76"/>
<text text-anchor="middle" x="631.13" y="-62.5" font-family="Helvetica,sans-Serif" font-size="10.00">Utils.h</text>
</a>
</g>
</g>
<!-- Node11&#45;&gt;Node12 -->
<g id="edge21_Node000011_Node000012" class="edge">
<title>Node11&#45;&gt;Node12</title>
<g id="a_edge21_Node000011_Node000012"><a xlink:title=" ">
<path fill="none" stroke="#63b8ff" d="M622.88,-111.59C624.11,-104.93 625.81,-95.75 627.35,-87.44"/>
<polygon fill="#63b8ff" stroke="#63b8ff" points="630.76,-88.26 629.14,-77.79 623.87,-86.98 630.76,-88.26"/>
</a>
</g>
</g>
<!-- Node12&#45;&gt;Node5 -->
<g id="edge22_Node000012_Node000005" class="edge">
<title>Node12&#45;&gt;Node5</title>
<g id="a_edge22_Node000012_Node000005"><a xlink:title=" ">
<path fill="none" stroke="#63b8ff" d="M635.49,-55.59C638.68,-48.7 643.12,-39.1 647.07,-30.57"/>
<polygon fill="#63b8ff" stroke="#63b8ff" points="650.17,-32.22 651.19,-21.67 643.82,-29.28 650.17,-32.22"/>
</a>
</g>
</g>
<!-- Node12&#45;&gt;Node6 -->
<g id="edge23_Node000012_Node000006" class="edge">
<title>Node12&#45;&gt;Node6</title>
<g id="a_edge23_Node000012_Node000006"><a xlink:title=" ">
<path fill="none" stroke="#63b8ff" d="M608.65,-57.94C578.38,-48.44 524.39,-31.49 490.24,-20.77"/>
<polygon fill="#63b8ff" stroke="#63b8ff" points="491.52,-17.5 480.93,-17.84 489.42,-24.18 491.52,-17.5"/>
</a>
</g>
</g>
<!-- Node12&#45;&gt;Node9 -->
<g id="edge25_Node000012_Node000009" class="edge">
<title>Node12&#45;&gt;Node9</title>
<g id="a_edge25_Node000012_Node000009"><a xlink:title=" ">
<path fill="none" stroke="#63b8ff" d="M608.43,-61.46C548.74,-52.14 387.22,-26.93 317.69,-16.08"/>
<polygon fill="#63b8ff" stroke="#63b8ff" points="318.5,-12.66 308.08,-14.58 317.42,-19.58 318.5,-12.66"/>
</a>
</g>
</g>
<!-- Node12&#45;&gt;Node13 -->
<g id="edge24_Node000012_Node000013" class="edge">
<title>Node12&#45;&gt;Node13</title>
<g id="a_edge24_Node000012_Node000013"><a xlink:title=" ">
<path fill="none" stroke="#63b8ff" d="M653.59,-57.6C680.59,-48.72 726.26,-33.68 758.41,-23.09"/>
<polygon fill="#63b8ff" stroke="#63b8ff" points="759.32,-26.48 767.73,-20.02 757.13,-19.83 759.32,-26.48"/>
</a>
</g>
</g>
<!-- Node14&#45;&gt;Node6 -->
<g id="edge27_Node000014_Node000006" class="edge">
<title>Node14&#45;&gt;Node6</title>
<g id="a_edge27_Node000014_Node000006"><a xlink:title=" ">
<path fill="none" stroke="#63b8ff" d="M320.32,-111.86C332.52,-98.56 356.56,-73.56 380.13,-56 395.56,-44.51 414.2,-33.76 429.51,-25.65"/>
<polygon fill="#63b8ff" stroke="#63b8ff" points="430.87,-28.88 438.14,-21.18 427.65,-22.67 430.87,-28.88"/>
</a>
</g>
</g>
<!-- Node14&#45;&gt;Node7 -->
<g id="edge29_Node000014_Node000007" class="edge">
<title>Node14&#45;&gt;Node7</title>
<g id="a_edge29_Node000014_Node000007"><a xlink:title=" ">
<path fill="none" stroke="#63b8ff" d="M295.41,-111.59C280.91,-103.44 259.66,-91.48 242.81,-82"/>
<polygon fill="#63b8ff" stroke="#63b8ff" points="244.74,-79.07 234.31,-77.22 241.31,-85.17 244.74,-79.07"/>
</a>
</g>
</g>
<!-- Node14&#45;&gt;Node9 -->
<g id="edge30_Node000014_Node000009" class="edge">
<title>Node14&#45;&gt;Node9</title>
<g id="a_edge30_Node000014_Node000009"><a xlink:title=" ">
<path fill="none" stroke="#63b8ff" d="M309.83,-111.62C305.49,-93.92 295.99,-55.24 290.12,-31.32"/>
<polygon fill="#63b8ff" stroke="#63b8ff" points="293.57,-30.7 287.79,-21.82 286.78,-32.37 293.57,-30.7"/>
</a>
</g>
</g>
<!-- Node14&#45;&gt;Node13 -->
<g id="edge28_Node000014_Node000013" class="edge">
<title>Node14&#45;&gt;Node13</title>
<g id="a_edge28_Node000014_Node000013"><a xlink:title=" ">
<path fill="none" stroke="#63b8ff" d="M360.02,-114.74C367.1,-113.82 374.31,-112.88 381.13,-112 506.01,-95.86 541.52,-112.13 662.13,-76 701.95,-64.08 744.54,-41.28 770.5,-26.1"/>
<polygon fill="#63b8ff" stroke="#63b8ff" points="772.13,-29.21 778.94,-21.09 768.56,-23.19 772.13,-29.21"/>
</a>
</g>
</g>
<!-- Node15&#45;&gt;Node5 -->
<g id="edge32_Node000015_Node000005" class="edge">
<title>Node15&#45;&gt;Node5</title>
<g id="a_edge32_Node000015_Node000005"><a xlink:title=" ">
<path fill="none" stroke="#63b8ff" d="M438.38,-120.38C495.09,-118.37 633.74,-110.01 662.13,-76 672.46,-63.63 669.47,-44.95 664.76,-30.78"/>
<polygon fill="#63b8ff" stroke="#63b8ff" points="668.08,-29.66 661.21,-21.6 661.55,-32.19 668.08,-29.66"/>
</a>
</g>
</g>
<!-- Node15&#45;&gt;Node6 -->
<g id="edge33_Node000015_Node000006" class="edge">
<title>Node15&#45;&gt;Node6</title>
<g id="a_edge33_Node000015_Node000006"><a xlink:title=" ">
<path fill="none" stroke="#63b8ff" d="M423.49,-111.52C431.36,-102.97 442.24,-89.67 448.13,-76 454.25,-61.82 456.98,-44.54 458.18,-31.36"/>
<polygon fill="#63b8ff" stroke="#63b8ff" points="461.65,-31.94 458.84,-21.73 454.67,-31.47 461.65,-31.94"/>
</a>
</g>
</g>
<!-- Node15&#45;&gt;Node9 -->
<g id="edge39_Node000015_Node000009" class="edge">
<title>Node15&#45;&gt;Node9</title>
<g id="a_edge39_Node000015_Node000009"><a xlink:title=" ">
<path fill="none" stroke="#63b8ff" d="M403.14,-111.62C381.33,-93.03 332.37,-51.28 304.86,-27.82"/>
<polygon fill="#63b8ff" stroke="#63b8ff" points="307.14,-25.16 297.26,-21.34 302.6,-30.49 307.14,-25.16"/>
</a>
</g>
</g>
<!-- Node16 -->
<g id="Node000016" class="node">
<title>Node16</title>
<g id="a_Node000016"><a xlink:href="_token_8h.html" target="_top" xlink:title=" ">
<polygon fill="white" stroke="#666666" points="439.38,-76 388.88,-76 388.88,-56 439.38,-56 439.38,-76"/>
<text text-anchor="middle" x="414.13" y="-62.5" font-family="Helvetica,sans-Serif" font-size="10.00">Token.h</text>
</a>
</g>
</g>
<!-- Node15&#45;&gt;Node16 -->
<g id="edge34_Node000015_Node000016" class="edge">
<title>Node15&#45;&gt;Node16</title>
<g id="a_edge34_Node000015_Node000016"><a xlink:title=" ">
<path fill="none" stroke="#63b8ff" d="M414.13,-111.59C414.13,-105.01 414.13,-95.96 414.13,-87.73"/>
<polygon fill="#63b8ff" stroke="#63b8ff" points="417.63,-87.81 414.13,-77.81 410.63,-87.81 417.63,-87.81"/>
</a>
</g>
</g>
<!-- Node16&#45;&gt;Node4 -->
<g id="edge37_Node000016_Node000004" class="edge">
<title>Node16&#45;&gt;Node4</title>
<g id="a_edge37_Node000016_Node000004"><a xlink:title=" ">
<path fill="none" stroke="#63b8ff" d="M388.51,-60.81C329.35,-51.13 183.25,-27.22 117.34,-16.43"/>
<polygon fill="#63b8ff" stroke="#63b8ff" points="117.93,-12.98 107.5,-14.82 116.8,-19.89 117.93,-12.98"/>
</a>
</g>
</g>
<!-- Node16&#45;&gt;Node5 -->
<g id="edge35_Node000016_Node000005" class="edge">
<title>Node16&#45;&gt;Node5</title>
<g id="a_edge35_Node000016_Node000005"><a xlink:title=" ">
<path fill="none" stroke="#63b8ff" d="M439.58,-59.32C482.94,-49.65 571.27,-29.94 620.67,-18.91"/>
<polygon fill="#63b8ff" stroke="#63b8ff" points="621.28,-22.36 630.28,-16.77 619.76,-15.53 621.28,-22.36"/>
</a>
</g>
</g>
<!-- Node16&#45;&gt;Node6 -->
<g id="edge36_Node000016_Node000006" class="edge">
<title>Node16&#45;&gt;Node6</title>
<g id="a_edge36_Node000016_Node000006"><a xlink:title=" ">
<path fill="none" stroke="#63b8ff" d="M421.97,-55.59C428.1,-48.24 436.8,-37.8 444.25,-28.87"/>
<polygon fill="#63b8ff" stroke="#63b8ff" points="446.7,-31.38 450.42,-21.46 441.33,-26.9 446.7,-31.38"/>
</a>
</g>
</g>
<!-- Node16&#45;&gt;Node9 -->
<g id="edge38_Node000016_Node000009" class="edge">
<title>Node16&#45;&gt;Node9</title>
<g id="a_edge38_Node000016_Node000009"><a xlink:title=" ">
<path fill="none" stroke="#63b8ff" d="M391.66,-55.59C370.98,-46.93 340.07,-33.99 316.86,-24.28"/>
<polygon fill="#63b8ff" stroke="#63b8ff" points="318.46,-21.16 307.89,-20.52 315.76,-27.61 318.46,-21.16"/>
</a>
</g>
</g>
</g>
</svg>
