<?xml version="1.0" encoding="UTF-8" standalone="no"?>
<!DOCTYPE svg PUBLIC "-//W3C//DTD SVG 1.1//EN"
 "http://www.w3.org/Graphics/SVG/1.1/DTD/svg11.dtd">
<!-- Generated by graphviz version 12.2.1 (20241206.2353)
 -->
<!-- Title: C:/Users/emilly/Documents/Lucca/Projetos/Cpp/NikiScript/src/Parser.cpp Pages: 1 -->
<svg width="1122pt" height="332pt"
 viewBox="0.00 0.00 1122.25 332.00" xmlns="http://www.w3.org/2000/svg" xmlns:xlink="http://www.w3.org/1999/xlink">
<g id="graph0" class="graph" transform="scale(1 1) rotate(0) translate(4 328)">
<title>C:/Users/emilly/Documents/Lucca/Projetos/Cpp/NikiScript/src/Parser.cpp</title>
<!-- Node1 -->
<g id="Node000001" class="node">
<title>Node1</title>
<g id="a_Node000001"><a xlink:title=" ">
<polygon fill="#999999" stroke="#666666" points="989.25,-324 838.25,-324 838.25,-280 989.25,-280 989.25,-324"/>
<text text-anchor="start" x="846.25" y="-310.5" font-family="Helvetica,sans-Serif" font-size="10.00">C:/Users/emilly/Documents</text>
<text text-anchor="start" x="846.25" y="-298.5" font-family="Helvetica,sans-Serif" font-size="10.00">/Lucca/Projetos/Cpp/NikiScript</text>
<text text-anchor="middle" x="913.75" y="-286.5" font-family="Helvetica,sans-Serif" font-size="10.00">/src/Parser.cpp</text>
</a>
</g>
</g>
<!-- Node2 -->
<g id="Node000002" class="node">
<title>Node2</title>
<g id="a_Node000002"><a xlink:href="_parser_8h.html" target="_top" xlink:title=" ">
<polygon fill="white" stroke="#666666" points="195.13,-244 142.38,-244 142.38,-224 195.13,-224 195.13,-244"/>
<text text-anchor="middle" x="168.75" y="-230.5" font-family="Helvetica,sans-Serif" font-size="10.00">Parser.h</text>
</a>
</g>
</g>
<!-- Node1&#45;&gt;Node2 -->
<g id="edge1_Node000001_Node000002" class="edge">
<title>Node1&#45;&gt;Node2</title>
<g id="a_edge1_Node000001_Node000002"><a xlink:title=" ">
<path fill="none" stroke="#63b8ff" d="M837.87,-294.28C680.49,-280.34 323.49,-248.71 206.59,-238.35"/>
<polygon fill="#63b8ff" stroke="#63b8ff" points="207.19,-234.89 196.92,-237.5 206.57,-241.86 207.19,-234.89"/>
</a>
</g>
</g>
<!-- Node11 -->
<g id="Node000011" class="node">
<title>Node11</title>
<g id="a_Node000011"><a xlink:href="_print_callback_8h.html" target="_top" xlink:title=" ">
<polygon fill="white" stroke="#666666" points="737.13,-132 654.38,-132 654.38,-112 737.13,-112 737.13,-132"/>
<text text-anchor="middle" x="695.75" y="-118.5" font-family="Helvetica,sans-Serif" font-size="10.00">PrintCallback.h</text>
</a>
</g>
</g>
<!-- Node1&#45;&gt;Node11 -->
<g id="edge48_Node000001_Node000011" class="edge">
<title>Node1&#45;&gt;Node11</title>
<g id="a_edge48_Node000001_Node000011"><a xlink:title=" ">
<path fill="none" stroke="#63b8ff" d="M887.46,-279.53C843.21,-243.4 754.87,-171.27 715.49,-139.12"/>
<polygon fill="#63b8ff" stroke="#63b8ff" points="718.14,-136.76 708.18,-133.15 713.71,-142.19 718.14,-136.76"/>
</a>
</g>
</g>
<!-- Node13 -->
<g id="Node000013" class="node">
<title>Node13</title>
<g id="a_Node000013"><a xlink:title=" ">
<polygon fill="#e0e0e0" stroke="#999999" points="834.38,-20 783.13,-20 783.13,0 834.38,0 834.38,-20"/>
<text text-anchor="middle" x="808.75" y="-6.5" font-family="Helvetica,sans-Serif" font-size="10.00">sstream</text>
</a>
</g>
</g>
<!-- Node1&#45;&gt;Node13 -->
<g id="edge47_Node000001_Node000013" class="edge">
<title>Node1&#45;&gt;Node13</title>
<g id="a_edge47_Node000001_Node000013"><a xlink:title=" ">
<path fill="none" stroke="#63b8ff" d="M905.52,-279.77C896.95,-255.71 884.75,-215.14 884.75,-179 884.75,-179 884.75,-179 884.75,-121 884.75,-82.24 852.41,-47.24 829.93,-27.59"/>
<polygon fill="#63b8ff" stroke="#63b8ff" points="832.38,-25.08 822.46,-21.34 827.88,-30.44 832.38,-25.08"/>
</a>
</g>
</g>
<!-- Node18 -->
<g id="Node000018" class="node">
<title>Node18</title>
<g id="a_Node000018"><a xlink:title=" ">
<polygon fill="#e0e0e0" stroke="#999999" points="974.25,-244 913.25,-244 913.25,-224 974.25,-224 974.25,-244"/>
<text text-anchor="middle" x="943.75" y="-230.5" font-family="Helvetica,sans-Serif" font-size="10.00">filesystem</text>
</a>
</g>
</g>
<!-- Node1&#45;&gt;Node18 -->
<g id="edge44_Node000001_Node000018" class="edge">
<title>Node1&#45;&gt;Node18</title>
<g id="a_edge44_Node000001_Node000018"><a xlink:title=" ">
<path fill="none" stroke="#63b8ff" d="M923.41,-279.75C927.05,-271.75 931.16,-262.69 934.74,-254.83"/>
<polygon fill="#63b8ff" stroke="#63b8ff" points="937.89,-256.35 938.84,-245.8 931.52,-253.45 937.89,-256.35"/>
</a>
</g>
</g>
<!-- Node19 -->
<g id="Node000019" class="node">
<title>Node19</title>
<g id="a_Node000019"><a xlink:title=" ">
<polygon fill="#e0e0e0" stroke="#999999" points="1047.63,-244 991.88,-244 991.88,-224 1047.63,-224 1047.63,-244"/>
<text text-anchor="middle" x="1019.75" y="-230.5" font-family="Helvetica,sans-Serif" font-size="10.00">algorithm</text>
</a>
</g>
</g>
<!-- Node1&#45;&gt;Node19 -->
<g id="edge45_Node000001_Node000019" class="edge">
<title>Node1&#45;&gt;Node19</title>
<g id="a_edge45_Node000001_Node000019"><a xlink:title=" ">
<path fill="none" stroke="#63b8ff" d="M948.17,-279.57C963.54,-270 981.3,-258.94 995.28,-250.24"/>
<polygon fill="#63b8ff" stroke="#63b8ff" points="996.79,-253.42 1003.43,-245.17 993.09,-247.48 996.79,-253.42"/>
</a>
</g>
</g>
<!-- Node20 -->
<g id="Node000020" class="node">
<title>Node20</title>
<g id="a_Node000020"><a xlink:title=" ">
<polygon fill="#e0e0e0" stroke="#999999" points="1114.25,-244 1065.25,-244 1065.25,-224 1114.25,-224 1114.25,-244"/>
<text text-anchor="middle" x="1089.75" y="-230.5" font-family="Helvetica,sans-Serif" font-size="10.00">fstream</text>
</a>
</g>
</g>
<!-- Node1&#45;&gt;Node20 -->
<g id="edge46_Node000001_Node000020" class="edge">
<title>Node1&#45;&gt;Node20</title>
<g id="a_edge46_Node000001_Node000020"><a xlink:title=" ">
<path fill="none" stroke="#63b8ff" d="M970.89,-279.57C998.28,-269.3 1030.22,-257.32 1054.09,-248.37"/>
<polygon fill="#63b8ff" stroke="#63b8ff" points="1055.23,-251.69 1063.36,-244.9 1052.77,-245.13 1055.23,-251.69"/>
</a>
</g>
</g>
<!-- Node3 -->
<g id="Node000003" class="node">
<title>Node3</title>
<g id="a_Node000003"><a xlink:href="_context_8h.html" target="_top" xlink:title=" ">
<polygon fill="white" stroke="#666666" points="304.13,-188 245.38,-188 245.38,-168 304.13,-168 304.13,-188"/>
<text text-anchor="middle" x="274.75" y="-174.5" font-family="Helvetica,sans-Serif" font-size="10.00">Context.h</text>
</a>
</g>
</g>
<!-- Node2&#45;&gt;Node3 -->
<g id="edge2_Node000002_Node000003" class="edge">
<title>Node2&#45;&gt;Node3</title>
<g id="a_edge2_Node000002_Node000003"><a xlink:title=" ">
<path fill="none" stroke="#63b8ff" d="M187.22,-223.59C203.46,-215.32 227.36,-203.14 246.08,-193.6"/>
<polygon fill="#63b8ff" stroke="#63b8ff" points="247.47,-196.82 254.8,-189.17 244.3,-190.59 247.47,-196.82"/>
</a>
</g>
</g>
<!-- Node9 -->
<g id="Node000009" class="node">
<title>Node9</title>
<g id="a_Node000009"><a xlink:href="_d_l_l_8h.html" target="_top" xlink:title=" ">
<polygon fill="white" stroke="#666666" points="198.88,-20 156.63,-20 156.63,0 198.88,0 198.88,-20"/>
<text text-anchor="middle" x="177.75" y="-6.5" font-family="Helvetica,sans-Serif" font-size="10.00">DLL.h</text>
</a>
</g>
</g>
<!-- Node2&#45;&gt;Node9 -->
<g id="edge43_Node000002_Node000009" class="edge">
<title>Node2&#45;&gt;Node9</title>
<g id="a_edge43_Node000002_Node000009"><a xlink:title=" ">
<path fill="none" stroke="#63b8ff" d="M148.41,-223.64C95.28,-197.94 -40.04,-123.7 11.75,-56 27.87,-34.93 101.6,-21.43 145.19,-15.14"/>
<polygon fill="#63b8ff" stroke="#63b8ff" points="145.43,-18.64 154.86,-13.8 144.47,-11.71 145.43,-18.64"/>
</a>
</g>
</g>
<!-- Node17 -->
<g id="Node000017" class="node">
<title>Node17</title>
<g id="a_Node000017"><a xlink:href="_token_8h.html" target="_top" xlink:title=" ">
<polygon fill="white" stroke="#666666" points="87,-76 36.5,-76 36.5,-56 87,-56 87,-76"/>
<text text-anchor="middle" x="61.75" y="-62.5" font-family="Helvetica,sans-Serif" font-size="10.00">Token.h</text>
</a>
</g>
</g>
<!-- Node2&#45;&gt;Node17 -->
<g id="edge42_Node000002_Node000017" class="edge">
<title>Node2&#45;&gt;Node17</title>
<g id="a_edge42_Node000002_Node000017"><a xlink:title=" ">
<path fill="none" stroke="#63b8ff" d="M158.34,-223.73C140.24,-207.09 102.91,-170.29 81.75,-132 74.05,-118.06 68.91,-100.76 65.77,-87.52"/>
<polygon fill="#63b8ff" stroke="#63b8ff" points="69.2,-86.82 63.68,-77.78 62.36,-88.29 69.2,-86.82"/>
</a>
</g>
</g>
<!-- Node4 -->
<g id="Node000004" class="node">
<title>Node4</title>
<g id="a_Node000004"><a xlink:title=" ">
<polygon fill="#e0e0e0" stroke="#999999" points="83.25,-20 40.25,-20 40.25,0 83.25,0 83.25,-20"/>
<text text-anchor="middle" x="61.75" y="-6.5" font-family="Helvetica,sans-Serif" font-size="10.00">vector</text>
</a>
</g>
</g>
<!-- Node3&#45;&gt;Node4 -->
<g id="edge3_Node000003_Node000004" class="edge">
<title>Node3&#45;&gt;Node4</title>
<g id="a_edge3_Node000003_Node000004"><a xlink:title=" ">
<path fill="none" stroke="#63b8ff" d="M245.02,-174.51C189.49,-169.33 72.74,-155.89 40.75,-132 11.79,-110.37 -2.96,-89.03 11.75,-56 16.88,-44.48 26.58,-34.67 36.09,-27.18"/>
<polygon fill="#63b8ff" stroke="#63b8ff" points="38.07,-30.07 44.12,-21.37 33.96,-24.39 38.07,-30.07"/>
</a>
</g>
</g>
<!-- Node5 -->
<g id="Node000005" class="node">
<title>Node5</title>
<g id="a_Node000005"><a xlink:title=" ">
<polygon fill="#e0e0e0" stroke="#999999" points="583.88,-20 535.63,-20 535.63,0 583.88,0 583.88,-20"/>
<text text-anchor="middle" x="559.75" y="-6.5" font-family="Helvetica,sans-Serif" font-size="10.00">stdint.h</text>
</a>
</g>
</g>
<!-- Node3&#45;&gt;Node5 -->
<g id="edge4_Node000003_Node000005" class="edge">
<title>Node3&#45;&gt;Node5</title>
<g id="a_edge4_Node000003_Node000005"><a xlink:title=" ">
<path fill="none" stroke="#63b8ff" d="M304.41,-175.95C402.24,-172.25 710.49,-158.57 745.75,-132 773.83,-110.84 789.83,-83.37 767.75,-56 746.51,-29.67 649.2,-17.98 595.54,-13.46"/>
<polygon fill="#63b8ff" stroke="#63b8ff" points="595.92,-9.98 585.67,-12.68 595.36,-16.96 595.92,-9.98"/>
</a>
</g>
</g>
<!-- Node6 -->
<g id="Node000006" class="node">
<title>Node6</title>
<g id="a_Node000006"><a xlink:title=" ">
<polygon fill="#e0e0e0" stroke="#999999" points="355.75,-20 315.75,-20 315.75,0 355.75,0 355.75,-20"/>
<text text-anchor="middle" x="335.75" y="-6.5" font-family="Helvetica,sans-Serif" font-size="10.00">string</text>
</a>
</g>
</g>
<!-- Node3&#45;&gt;Node6 -->
<g id="edge5_Node000003_Node000006" class="edge">
<title>Node3&#45;&gt;Node6</title>
<g id="a_edge5_Node000003_Node000006"><a xlink:title=" ">
<path fill="none" stroke="#63b8ff" d="M296.16,-167.63C310.23,-160.19 327.51,-148.33 335.75,-132 351.95,-99.92 346.5,-56.67 341.1,-31.51"/>
<polygon fill="#63b8ff" stroke="#63b8ff" points="344.54,-30.85 338.82,-21.93 337.73,-32.46 344.54,-30.85"/>
</a>
</g>
</g>
<!-- Node7 -->
<g id="Node000007" class="node">
<title>Node7</title>
<g id="a_Node000007"><a xlink:title=" ">
<polygon fill="#e0e0e0" stroke="#999999" points="465.13,-76 382.38,-76 382.38,-56 465.13,-56 465.13,-76"/>
<text text-anchor="middle" x="423.75" y="-62.5" font-family="Helvetica,sans-Serif" font-size="10.00">unordered_map</text>
</a>
</g>
</g>
<!-- Node3&#45;&gt;Node7 -->
<g id="edge6_Node000003_Node000007" class="edge">
<title>Node3&#45;&gt;Node7</title>
<g id="a_edge6_Node000003_Node000007"><a xlink:title=" ">
<path fill="none" stroke="#63b8ff" d="M301.97,-167.52C321.72,-159.83 348.42,-147.7 368.75,-132 385.7,-118.91 401.08,-99.83 411.23,-85.72"/>
<polygon fill="#63b8ff" stroke="#63b8ff" points="413.96,-87.94 416.79,-77.73 408.21,-83.94 413.96,-87.94"/>
</a>
</g>
</g>
<!-- Node8 -->
<g id="Node000008" class="node">
<title>Node8</title>
<g id="a_Node000008"><a xlink:href="_command_8h.html" target="_top" xlink:title=" ">
<polygon fill="white" stroke="#666666" points="212.38,-76 143.13,-76 143.13,-56 212.38,-56 212.38,-76"/>
<text text-anchor="middle" x="177.75" y="-62.5" font-family="Helvetica,sans-Serif" font-size="10.00">Command.h</text>
</a>
</g>
</g>
<!-- Node3&#45;&gt;Node8 -->
<g id="edge7_Node000003_Node000008" class="edge">
<title>Node3&#45;&gt;Node8</title>
<g id="a_edge7_Node000003_Node000008"><a xlink:title=" ">
<path fill="none" stroke="#63b8ff" d="M258.79,-167.62C245.8,-159.41 227.58,-146.56 214.75,-132 202.68,-118.3 192.71,-100.04 186.17,-86.36"/>
<polygon fill="#63b8ff" stroke="#63b8ff" points="189.47,-85.17 182.14,-77.53 183.1,-88.08 189.47,-85.17"/>
</a>
</g>
</g>
<!-- Node3&#45;&gt;Node9 -->
<g id="edge41_Node000003_Node000009" class="edge">
<title>Node3&#45;&gt;Node9</title>
<g id="a_edge41_Node000003_Node000009"><a xlink:title=" ">
<path fill="none" stroke="#63b8ff" d="M245.03,-177.02C186.14,-175.18 57.02,-161.21 18.75,-76 15.11,-67.89 13.39,-63.09 18.75,-56 33.94,-35.91 103.09,-22.21 145.04,-15.59"/>
<polygon fill="#63b8ff" stroke="#63b8ff" points="145.47,-19.06 154.83,-14.1 144.42,-12.14 145.47,-19.06"/>
</a>
</g>
</g>
<!-- Node10 -->
<g id="Node000010" class="node">
<title>Node10</title>
<g id="a_Node000010"><a xlink:href="_command_handler_8h.html" target="_top" xlink:title=" ">
<polygon fill="white" stroke="#666666" points="326.25,-132 223.25,-132 223.25,-112 326.25,-112 326.25,-132"/>
<text text-anchor="middle" x="274.75" y="-118.5" font-family="Helvetica,sans-Serif" font-size="10.00">CommandHandler.h</text>
</a>
</g>
</g>
<!-- Node3&#45;&gt;Node10 -->
<g id="edge12_Node000003_Node000010" class="edge">
<title>Node3&#45;&gt;Node10</title>
<g id="a_edge12_Node000003_Node000010"><a xlink:title=" ">
<path fill="none" stroke="#63b8ff" d="M274.75,-167.59C274.75,-161.01 274.75,-151.96 274.75,-143.73"/>
<polygon fill="#63b8ff" stroke="#63b8ff" points="278.25,-143.81 274.75,-133.81 271.25,-143.81 278.25,-143.81"/>
</a>
</g>
</g>
<!-- Node3&#45;&gt;Node11 -->
<g id="edge17_Node000003_Node000011" class="edge">
<title>Node3&#45;&gt;Node11</title>
<g id="a_edge17_Node000003_Node000011"><a xlink:title=" ">
<path fill="none" stroke="#63b8ff" d="M304.36,-173.2C374.82,-164.16 553.3,-141.27 642.83,-129.79"/>
<polygon fill="#63b8ff" stroke="#63b8ff" points="643.1,-133.28 652.57,-128.54 642.21,-126.34 643.1,-133.28"/>
</a>
</g>
</g>
<!-- Node14 -->
<g id="Node000014" class="node">
<title>Node14</title>
<g id="a_Node000014"><a xlink:href="_program_variable_8h.html" target="_top" xlink:title=" ">
<polygon fill="white" stroke="#666666" points="549.5,-132 454,-132 454,-112 549.5,-112 549.5,-132"/>
<text text-anchor="middle" x="501.75" y="-118.5" font-family="Helvetica,sans-Serif" font-size="10.00">ProgramVariable.h</text>
</a>
</g>
</g>
<!-- Node3&#45;&gt;Node14 -->
<g id="edge26_Node000003_Node000014" class="edge">
<title>Node3&#45;&gt;Node14</title>
<g id="a_edge26_Node000003_Node000014"><a xlink:title=" ">
<path fill="none" stroke="#63b8ff" d="M304.43,-169.94C341.65,-161.09 406.06,-145.76 451.13,-135.04"/>
<polygon fill="#63b8ff" stroke="#63b8ff" points="451.76,-138.49 460.67,-132.77 450.14,-131.68 451.76,-138.49"/>
</a>
</g>
</g>
<!-- Node16 -->
<g id="Node000016" class="node">
<title>Node16</title>
<g id="a_Node000016"><a xlink:href="_lexer_8h.html" target="_top" xlink:title=" ">
<polygon fill="white" stroke="#666666" points="138.88,-132 90.63,-132 90.63,-112 138.88,-112 138.88,-132"/>
<text text-anchor="middle" x="114.75" y="-118.5" font-family="Helvetica,sans-Serif" font-size="10.00">Lexer.h</text>
</a>
</g>
</g>
<!-- Node3&#45;&gt;Node16 -->
<g id="edge32_Node000003_Node000016" class="edge">
<title>Node3&#45;&gt;Node16</title>
<g id="a_edge32_Node000003_Node000016"><a xlink:title=" ">
<path fill="none" stroke="#63b8ff" d="M246.88,-167.59C219.89,-158.48 178.87,-144.64 149.71,-134.8"/>
<polygon fill="#63b8ff" stroke="#63b8ff" points="151.19,-131.6 140.6,-131.72 148.95,-138.24 151.19,-131.6"/>
</a>
</g>
</g>
<!-- Node8&#45;&gt;Node4 -->
<g id="edge8_Node000008_Node000004" class="edge">
<title>Node8&#45;&gt;Node4</title>
<g id="a_edge8_Node000008_Node000004"><a xlink:title=" ">
<path fill="none" stroke="#63b8ff" d="M157.55,-55.59C139.53,-47.21 112.89,-34.8 92.27,-25.21"/>
<polygon fill="#63b8ff" stroke="#63b8ff" points="94.03,-22.17 83.49,-21.12 91.08,-28.51 94.03,-22.17"/>
</a>
</g>
</g>
<!-- Node8&#45;&gt;Node5 -->
<g id="edge10_Node000008_Node000005" class="edge">
<title>Node8&#45;&gt;Node5</title>
<g id="a_edge10_Node000008_Node000005"><a xlink:title=" ">
<path fill="none" stroke="#63b8ff" d="M212.78,-58.36C217.47,-57.53 222.23,-56.72 226.75,-56 334.77,-38.79 463.2,-22.65 524.19,-15.25"/>
<polygon fill="#63b8ff" stroke="#63b8ff" points="524.45,-18.74 533.96,-14.06 523.61,-11.79 524.45,-18.74"/>
</a>
</g>
</g>
<!-- Node8&#45;&gt;Node6 -->
<g id="edge9_Node000008_Node000006" class="edge">
<title>Node8&#45;&gt;Node6</title>
<g id="a_edge9_Node000008_Node000006"><a xlink:title=" ">
<path fill="none" stroke="#63b8ff" d="M205.27,-55.59C233.06,-46.1 275.9,-31.46 304.84,-21.57"/>
<polygon fill="#63b8ff" stroke="#63b8ff" points="305.8,-24.94 314.13,-18.39 303.53,-18.31 305.8,-24.94"/>
</a>
</g>
</g>
<!-- Node8&#45;&gt;Node9 -->
<g id="edge11_Node000008_Node000009" class="edge">
<title>Node8&#45;&gt;Node9</title>
<g id="a_edge11_Node000008_Node000009"><a xlink:title=" ">
<path fill="none" stroke="#63b8ff" d="M177.75,-55.59C177.75,-49.01 177.75,-39.96 177.75,-31.73"/>
<polygon fill="#63b8ff" stroke="#63b8ff" points="181.25,-31.81 177.75,-21.81 174.25,-31.81 181.25,-31.81"/>
</a>
</g>
</g>
<!-- Node10&#45;&gt;Node6 -->
<g id="edge14_Node000010_Node000006" class="edge">
<title>Node10&#45;&gt;Node6</title>
<g id="a_edge14_Node000010_Node000006"><a xlink:title=" ">
<path fill="none" stroke="#63b8ff" d="M279.95,-111.62C289.9,-93.68 311.81,-54.17 325.02,-30.35"/>
<polygon fill="#63b8ff" stroke="#63b8ff" points="328.04,-32.12 329.83,-21.68 321.92,-28.73 328.04,-32.12"/>
</a>
</g>
</g>
<!-- Node10&#45;&gt;Node7 -->
<g id="edge13_Node000010_Node000007" class="edge">
<title>Node10&#45;&gt;Node7</title>
<g id="a_edge13_Node000010_Node000007"><a xlink:title=" ">
<path fill="none" stroke="#63b8ff" d="M300.71,-111.59C324.6,-102.94 360.28,-90 387.08,-80.29"/>
<polygon fill="#63b8ff" stroke="#63b8ff" points="387.96,-83.69 396.17,-77 385.58,-77.11 387.96,-83.69"/>
</a>
</g>
</g>
<!-- Node10&#45;&gt;Node8 -->
<g id="edge15_Node000010_Node000008" class="edge">
<title>Node10&#45;&gt;Node8</title>
<g id="a_edge15_Node000010_Node000008"><a xlink:title=" ">
<path fill="none" stroke="#63b8ff" d="M257.86,-111.59C243.2,-103.44 221.73,-91.48 204.71,-82"/>
<polygon fill="#63b8ff" stroke="#63b8ff" points="206.54,-79.02 196.1,-77.22 203.14,-85.14 206.54,-79.02"/>
</a>
</g>
</g>
<!-- Node10&#45;&gt;Node9 -->
<g id="edge16_Node000010_Node000009" class="edge">
<title>Node10&#45;&gt;Node9</title>
<g id="a_edge16_Node000010_Node000009"><a xlink:title=" ">
<path fill="none" stroke="#63b8ff" d="M267.46,-111.52C257.47,-98.67 238.82,-75.11 221.75,-56 213.41,-46.66 203.73,-36.67 195.57,-28.48"/>
<polygon fill="#63b8ff" stroke="#63b8ff" points="198.08,-26.05 188.52,-21.48 193.15,-31.01 198.08,-26.05"/>
</a>
</g>
</g>
<!-- Node11&#45;&gt;Node5 -->
<g id="edge18_Node000011_Node000005" class="edge">
<title>Node11&#45;&gt;Node5</title>
<g id="a_edge18_Node000011_Node000005"><a xlink:title=" ">
<path fill="none" stroke="#63b8ff" d="M714.26,-111.52C736.2,-99.04 767.85,-76.31 751.75,-56 732.6,-31.85 645.4,-19.41 595.36,-14.15"/>
<polygon fill="#63b8ff" stroke="#63b8ff" points="595.89,-10.69 585.6,-13.18 595.2,-17.66 595.89,-10.69"/>
</a>
</g>
</g>
<!-- Node11&#45;&gt;Node6 -->
<g id="edge19_Node000011_Node000006" class="edge">
<title>Node11&#45;&gt;Node6</title>
<g id="a_edge19_Node000011_Node000006"><a xlink:title=" ">
<path fill="none" stroke="#63b8ff" d="M684.08,-111.56C665.64,-97.17 628.13,-69.96 591.75,-56 514.65,-26.42 416.97,-16.14 367.53,-12.68"/>
<polygon fill="#63b8ff" stroke="#63b8ff" points="367.75,-9.18 357.55,-12.03 367.3,-16.17 367.75,-9.18"/>
</a>
</g>
</g>
<!-- Node11&#45;&gt;Node9 -->
<g id="edge20_Node000011_Node000009" class="edge">
<title>Node11&#45;&gt;Node9</title>
<g id="a_edge20_Node000011_Node000009"><a xlink:title=" ">
<path fill="none" stroke="#63b8ff" d="M676.55,-111.53C658.79,-102.67 631.74,-88.89 608.75,-76 593.79,-67.61 591.98,-61.54 575.75,-56 541.5,-44.32 299.76,-21.88 210.64,-13.9"/>
<polygon fill="#63b8ff" stroke="#63b8ff" points="211.13,-10.43 200.86,-13.03 210.51,-17.4 211.13,-10.43"/>
</a>
</g>
</g>
<!-- Node12 -->
<g id="Node000012" class="node">
<title>Node12</title>
<g id="a_Node000012"><a xlink:href="_utils_8h.html" target="_top" xlink:title=" ">
<polygon fill="white" stroke="#666666" points="743,-76 698.5,-76 698.5,-56 743,-56 743,-76"/>
<text text-anchor="middle" x="720.75" y="-62.5" font-family="Helvetica,sans-Serif" font-size="10.00">Utils.h</text>
</a>
</g>
</g>
<!-- Node11&#45;&gt;Node12 -->
<g id="edge21_Node000011_Node000012" class="edge">
<title>Node11&#45;&gt;Node12</title>
<g id="a_edge21_Node000011_Node000012"><a xlink:title=" ">
<path fill="none" stroke="#63b8ff" d="M700.11,-111.59C703.3,-104.7 707.74,-95.1 711.69,-86.57"/>
<polygon fill="#63b8ff" stroke="#63b8ff" points="714.79,-88.22 715.81,-77.67 708.43,-85.28 714.79,-88.22"/>
</a>
</g>
</g>
<!-- Node12&#45;&gt;Node5 -->
<g id="edge22_Node000012_Node000005" class="edge">
<title>Node12&#45;&gt;Node5</title>
<g id="a_edge22_Node000012_Node000005"><a xlink:title=" ">
<path fill="none" stroke="#63b8ff" d="M698.03,-57.38C671.24,-48.39 626.41,-33.36 595.08,-22.85"/>
<polygon fill="#63b8ff" stroke="#63b8ff" points="596.24,-19.55 585.64,-19.68 594.01,-26.18 596.24,-19.55"/>
</a>
</g>
</g>
<!-- Node12&#45;&gt;Node6 -->
<g id="edge23_Node000012_Node000006" class="edge">
<title>Node12&#45;&gt;Node6</title>
<g id="a_edge23_Node000012_Node000006"><a xlink:title=" ">
<path fill="none" stroke="#63b8ff" d="M698.37,-58.98C693.88,-57.89 689.18,-56.84 684.75,-56 568.54,-34.06 428.51,-19.57 367.14,-13.81"/>
<polygon fill="#63b8ff" stroke="#63b8ff" points="367.73,-10.35 357.45,-12.91 367.09,-17.32 367.73,-10.35"/>
</a>
</g>
</g>
<!-- Node12&#45;&gt;Node9 -->
<g id="edge25_Node000012_Node000009" class="edge">
<title>Node12&#45;&gt;Node9</title>
<g id="a_edge25_Node000012_Node000009"><a xlink:title=" ">
<path fill="none" stroke="#63b8ff" d="M698.11,-62.75C612.86,-54.27 310.96,-24.25 210.52,-14.26"/>
<polygon fill="#63b8ff" stroke="#63b8ff" points="211.1,-10.8 200.8,-13.29 210.41,-17.76 211.1,-10.8"/>
</a>
</g>
</g>
<!-- Node12&#45;&gt;Node13 -->
<g id="edge24_Node000012_Node000013" class="edge">
<title>Node12&#45;&gt;Node13</title>
<g id="a_edge24_Node000012_Node000013"><a xlink:title=" ">
<path fill="none" stroke="#63b8ff" d="M736.08,-55.59C749.25,-47.51 768.49,-35.71 783.86,-26.27"/>
<polygon fill="#63b8ff" stroke="#63b8ff" points="785.32,-29.48 792.01,-21.27 781.66,-23.52 785.32,-29.48"/>
</a>
</g>
</g>
<!-- Node14&#45;&gt;Node6 -->
<g id="edge27_Node000014_Node000006" class="edge">
<title>Node14&#45;&gt;Node6</title>
<g id="a_edge27_Node000014_Node000006"><a xlink:title=" ">
<path fill="none" stroke="#63b8ff" d="M526.99,-111.7C555.14,-99.94 594.43,-78.5 575.75,-56 549.6,-24.49 426.24,-14.91 367.28,-12.11"/>
<polygon fill="#63b8ff" stroke="#63b8ff" points="367.72,-8.62 357.58,-11.68 367.42,-15.62 367.72,-8.62"/>
</a>
</g>
</g>
<!-- Node14&#45;&gt;Node7 -->
<g id="edge30_Node000014_Node000007" class="edge">
<title>Node14&#45;&gt;Node7</title>
<g id="a_edge30_Node000014_Node000007"><a xlink:title=" ">
<path fill="none" stroke="#63b8ff" d="M488.17,-111.59C476.72,-103.67 460.09,-92.16 446.6,-82.82"/>
<polygon fill="#63b8ff" stroke="#63b8ff" points="448.9,-80.16 438.69,-77.34 444.92,-85.91 448.9,-80.16"/>
</a>
</g>
</g>
<!-- Node14&#45;&gt;Node9 -->
<g id="edge31_Node000014_Node000009" class="edge">
<title>Node14&#45;&gt;Node9</title>
<g id="a_edge31_Node000014_Node000009"><a xlink:title=" ">
<path fill="none" stroke="#63b8ff" d="M500.6,-111.75C498.28,-97.35 491.65,-69.82 473.75,-56 453.1,-40.05 282.7,-21.43 210.2,-14.15"/>
<polygon fill="#63b8ff" stroke="#63b8ff" points="210.85,-10.7 200.55,-13.19 210.16,-17.66 210.85,-10.7"/>
</a>
</g>
</g>
<!-- Node14&#45;&gt;Node13 -->
<g id="edge29_Node000014_Node000013" class="edge">
<title>Node14&#45;&gt;Node13</title>
<g id="a_edge29_Node000014_Node000013"><a xlink:title=" ">
<path fill="none" stroke="#63b8ff" d="M549.57,-121.57C602.34,-120.2 688.21,-111.92 751.75,-76 771.29,-64.96 787.44,-44.65 797.51,-29.66"/>
<polygon fill="#63b8ff" stroke="#63b8ff" points="800.23,-31.9 802.65,-21.58 794.33,-28.13 800.23,-31.9"/>
</a>
</g>
</g>
<!-- Node15 -->
<g id="Node000015" class="node">
<title>Node15</title>
<g id="a_Node000015"><a xlink:title=" ">
<polygon fill="#e0e0e0" stroke="#999999" points="566.38,-76 521.13,-76 521.13,-56 566.38,-56 566.38,-76"/>
<text text-anchor="middle" x="543.75" y="-62.5" font-family="Helvetica,sans-Serif" font-size="10.00">cstring</text>
</a>
</g>
</g>
<!-- Node14&#45;&gt;Node15 -->
<g id="edge28_Node000014_Node000015" class="edge">
<title>Node14&#45;&gt;Node15</title>
<g id="a_edge28_Node000014_Node000015"><a xlink:title=" ">
<path fill="none" stroke="#63b8ff" d="M509.07,-111.59C514.73,-104.32 522.74,-94.02 529.64,-85.15"/>
<polygon fill="#63b8ff" stroke="#63b8ff" points="532.21,-87.54 535.59,-77.49 526.69,-83.24 532.21,-87.54"/>
</a>
</g>
</g>
<!-- Node16&#45;&gt;Node5 -->
<g id="edge33_Node000016_Node000005" class="edge">
<title>Node16&#45;&gt;Node5</title>
<g id="a_edge33_Node000016_Node000005"><a xlink:title=" ">
<path fill="none" stroke="#63b8ff" d="M139.38,-114.75C185.39,-103.08 287.55,-77.24 373.75,-56 426.23,-43.07 487.12,-28.4 524.54,-19.43"/>
<polygon fill="#63b8ff" stroke="#63b8ff" points="524.98,-22.92 533.89,-17.18 523.35,-16.11 524.98,-22.92"/>
</a>
</g>
</g>
<!-- Node16&#45;&gt;Node6 -->
<g id="edge34_Node000016_Node000006" class="edge">
<title>Node16&#45;&gt;Node6</title>
<g id="a_edge34_Node000016_Node000006"><a xlink:title=" ">
<path fill="none" stroke="#63b8ff" d="M114.68,-111.51C115.12,-97.31 118.14,-70.63 133.75,-56 158.15,-33.15 253.81,-19.74 304.24,-14.12"/>
<polygon fill="#63b8ff" stroke="#63b8ff" points="304.36,-17.63 313.93,-13.08 303.61,-10.67 304.36,-17.63"/>
</a>
</g>
</g>
<!-- Node16&#45;&gt;Node9 -->
<g id="edge40_Node000016_Node000009" class="edge">
<title>Node16&#45;&gt;Node9</title>
<g id="a_edge40_Node000016_Node000009"><a xlink:title=" ">
<path fill="none" stroke="#63b8ff" d="M90.14,-114.16C57.89,-103.95 7.66,-83 27.75,-56 41.79,-37.13 105.37,-23.21 145.11,-16.17"/>
<polygon fill="#63b8ff" stroke="#63b8ff" points="145.59,-19.64 154.86,-14.5 144.42,-12.74 145.59,-19.64"/>
</a>
</g>
</g>
<!-- Node16&#45;&gt;Node17 -->
<g id="edge35_Node000016_Node000017" class="edge">
<title>Node16&#45;&gt;Node17</title>
<g id="a_edge35_Node000016_Node000017"><a xlink:title=" ">
<path fill="none" stroke="#63b8ff" d="M105.52,-111.59C98.15,-104.08 87.62,-93.35 78.73,-84.3"/>
<polygon fill="#63b8ff" stroke="#63b8ff" points="81.44,-82.06 71.94,-77.38 76.45,-86.97 81.44,-82.06"/>
</a>
</g>
</g>
<!-- Node17&#45;&gt;Node4 -->
<g id="edge38_Node000017_Node000004" class="edge">
<title>Node17&#45;&gt;Node4</title>
<g id="a_edge38_Node000017_Node000004"><a xlink:title=" ">
<path fill="none" stroke="#63b8ff" d="M61.75,-55.59C61.75,-49.01 61.75,-39.96 61.75,-31.73"/>
<polygon fill="#63b8ff" stroke="#63b8ff" points="65.25,-31.81 61.75,-21.81 58.25,-31.81 65.25,-31.81"/>
</a>
</g>
</g>
<!-- Node17&#45;&gt;Node5 -->
<g id="edge36_Node000017_Node000005" class="edge">
<title>Node17&#45;&gt;Node5</title>
<g id="a_edge36_Node000017_Node000005"><a xlink:title=" ">
<path fill="none" stroke="#63b8ff" d="M87.4,-61.67C101.14,-59.92 118.36,-57.77 133.75,-56 278.27,-39.34 450.66,-21.86 523.95,-14.55"/>
<polygon fill="#63b8ff" stroke="#63b8ff" points="524.13,-18.05 533.74,-13.57 523.44,-11.08 524.13,-18.05"/>
</a>
</g>
</g>
<!-- Node17&#45;&gt;Node6 -->
<g id="edge37_Node000017_Node000006" class="edge">
<title>Node17&#45;&gt;Node6</title>
<g id="a_edge37_Node000017_Node000006"><a xlink:title=" ">
<path fill="none" stroke="#63b8ff" d="M87.32,-58.96C91.79,-57.94 96.4,-56.92 100.75,-56 173.32,-40.68 258.97,-24.84 304.16,-16.66"/>
<polygon fill="#63b8ff" stroke="#63b8ff" points="304.56,-20.14 313.78,-14.92 303.32,-13.26 304.56,-20.14"/>
</a>
</g>
</g>
<!-- Node17&#45;&gt;Node9 -->
<g id="edge39_Node000017_Node000009" class="edge">
<title>Node17&#45;&gt;Node9</title>
<g id="a_edge39_Node000017_Node000009"><a xlink:title=" ">
<path fill="none" stroke="#63b8ff" d="M81.96,-55.59C99.98,-47.21 126.62,-34.8 147.23,-25.21"/>
<polygon fill="#63b8ff" stroke="#63b8ff" points="148.43,-28.51 156.02,-21.12 145.47,-22.17 148.43,-28.51"/>
</a>
</g>
</g>
</g>
</svg>
