<?xml version="1.0" encoding="UTF-8" standalone="no"?>
<!DOCTYPE svg PUBLIC "-//W3C//DTD SVG 1.1//EN"
 "http://www.w3.org/Graphics/SVG/1.1/DTD/svg11.dtd">
<!-- Generated by graphviz version 12.2.1 (20241206.2353)
 -->
<!-- Title: C:/Users/emilly/Documents/Lucca/Projetos/Cpp/NikiScript/src/Parser.cpp Pages: 1 -->
<svg width="879pt" height="332pt"
 viewBox="0.00 0.00 879.08 332.00" xmlns="http://www.w3.org/2000/svg" xmlns:xlink="http://www.w3.org/1999/xlink">
<g id="graph0" class="graph" transform="scale(1 1) rotate(0) translate(4 328)">
<title>C:/Users/emilly/Documents/Lucca/Projetos/Cpp/NikiScript/src/Parser.cpp</title>
<!-- Node1 -->
<g id="Node000001" class="node">
<title>Node1</title>
<g id="a_Node000001"><a xlink:title=" ">
<polygon fill="#999999" stroke="#666666" points="796.08,-324 645.08,-324 645.08,-280 796.08,-280 796.08,-324"/>
<text text-anchor="start" x="653.08" y="-310.5" font-family="Helvetica,sans-Serif" font-size="10.00">C:/Users/emilly/Documents</text>
<text text-anchor="start" x="653.08" y="-298.5" font-family="Helvetica,sans-Serif" font-size="10.00">/Lucca/Projetos/Cpp/NikiScript</text>
<text text-anchor="middle" x="720.58" y="-286.5" font-family="Helvetica,sans-Serif" font-size="10.00">/src/Parser.cpp</text>
</a>
</g>
</g>
<!-- Node2 -->
<g id="Node000002" class="node">
<title>Node2</title>
<g id="a_Node000002"><a xlink:href="_parser_8h.html" target="_top" xlink:title=" ">
<polygon fill="white" stroke="#666666" points="477.95,-244 425.2,-244 425.2,-224 477.95,-224 477.95,-244"/>
<text text-anchor="middle" x="451.58" y="-230.5" font-family="Helvetica,sans-Serif" font-size="10.00">Parser.h</text>
</a>
</g>
</g>
<!-- Node1&#45;&gt;Node2 -->
<g id="edge1_Node000001_Node000002" class="edge">
<title>Node1&#45;&gt;Node2</title>
<g id="a_edge1_Node000001_Node000002"><a xlink:title=" ">
<path fill="none" stroke="#63b8ff" d="M644.93,-282.44C594.3,-270.02 529.8,-254.19 489.59,-244.33"/>
<polygon fill="#63b8ff" stroke="#63b8ff" points="490.45,-240.93 479.9,-241.95 488.78,-247.73 490.45,-240.93"/>
</a>
</g>
</g>
<!-- Node11 -->
<g id="Node000011" class="node">
<title>Node11</title>
<g id="a_Node000011"><a xlink:href="_print_callback_8h.html" target="_top" xlink:title=" ">
<polygon fill="white" stroke="#666666" points="635.95,-132 553.2,-132 553.2,-112 635.95,-112 635.95,-132"/>
<text text-anchor="middle" x="594.58" y="-118.5" font-family="Helvetica,sans-Serif" font-size="10.00">PrintCallback.h</text>
</a>
</g>
</g>
<!-- Node1&#45;&gt;Node11 -->
<g id="edge37_Node000001_Node000011" class="edge">
<title>Node1&#45;&gt;Node11</title>
<g id="a_edge37_Node000001_Node000011"><a xlink:title=" ">
<path fill="none" stroke="#63b8ff" d="M705.38,-279.53C680.35,-244.17 630.89,-174.3 607.46,-141.2"/>
<polygon fill="#63b8ff" stroke="#63b8ff" points="610.59,-139.57 601.96,-133.43 604.88,-143.61 610.59,-139.57"/>
</a>
</g>
</g>
<!-- Node13 -->
<g id="Node000013" class="node">
<title>Node13</title>
<g id="a_Node000013"><a xlink:title=" ">
<polygon fill="#e0e0e0" stroke="#999999" points="708.2,-20 656.95,-20 656.95,0 708.2,0 708.2,-20"/>
<text text-anchor="middle" x="682.58" y="-6.5" font-family="Helvetica,sans-Serif" font-size="10.00">sstream</text>
</a>
</g>
</g>
<!-- Node1&#45;&gt;Node13 -->
<g id="edge36_Node000001_Node000013" class="edge">
<title>Node1&#45;&gt;Node13</title>
<g id="a_edge36_Node000001_Node000013"><a xlink:title=" ">
<path fill="none" stroke="#63b8ff" d="M720.58,-279.84C720.58,-255.51 720.58,-214.37 720.58,-179 720.58,-179 720.58,-179 720.58,-121 720.58,-87.77 704.9,-51.85 693.68,-30.4"/>
<polygon fill="#63b8ff" stroke="#63b8ff" points="696.78,-28.76 688.91,-21.66 690.63,-32.12 696.78,-28.76"/>
</a>
</g>
</g>
<!-- Node17 -->
<g id="Node000017" class="node">
<title>Node17</title>
<g id="a_Node000017"><a xlink:title=" ">
<polygon fill="#e0e0e0" stroke="#999999" points="804.45,-244 748.7,-244 748.7,-224 804.45,-224 804.45,-244"/>
<text text-anchor="middle" x="776.58" y="-230.5" font-family="Helvetica,sans-Serif" font-size="10.00">algorithm</text>
</a>
</g>
</g>
<!-- Node1&#45;&gt;Node17 -->
<g id="edge34_Node000001_Node000017" class="edge">
<title>Node1&#45;&gt;Node17</title>
<g id="a_edge34_Node000001_Node000017"><a xlink:title=" ">
<path fill="none" stroke="#63b8ff" d="M738.6,-279.75C745.87,-271.2 754.16,-261.42 761.14,-253.2"/>
<polygon fill="#63b8ff" stroke="#63b8ff" points="763.81,-255.46 767.61,-245.57 758.47,-250.93 763.81,-255.46"/>
</a>
</g>
</g>
<!-- Node18 -->
<g id="Node000018" class="node">
<title>Node18</title>
<g id="a_Node000018"><a xlink:title=" ">
<polygon fill="#e0e0e0" stroke="#999999" points="871.08,-244 822.08,-244 822.08,-224 871.08,-224 871.08,-244"/>
<text text-anchor="middle" x="846.58" y="-230.5" font-family="Helvetica,sans-Serif" font-size="10.00">fstream</text>
</a>
</g>
</g>
<!-- Node1&#45;&gt;Node18 -->
<g id="edge35_Node000001_Node000018" class="edge">
<title>Node1&#45;&gt;Node18</title>
<g id="a_edge35_Node000001_Node000018"><a xlink:title=" ">
<path fill="none" stroke="#63b8ff" d="M761.49,-279.57C780.29,-269.72 802.1,-258.3 818.93,-249.48"/>
<polygon fill="#63b8ff" stroke="#63b8ff" points="820.12,-252.81 827.36,-245.07 816.87,-246.61 820.12,-252.81"/>
</a>
</g>
</g>
<!-- Node3 -->
<g id="Node000003" class="node">
<title>Node3</title>
<g id="a_Node000003"><a xlink:href="_context_8h.html" target="_top" xlink:title=" ">
<polygon fill="white" stroke="#666666" points="353.95,-188 295.2,-188 295.2,-168 353.95,-168 353.95,-188"/>
<text text-anchor="middle" x="324.58" y="-174.5" font-family="Helvetica,sans-Serif" font-size="10.00">Context.h</text>
</a>
</g>
</g>
<!-- Node2&#45;&gt;Node3 -->
<g id="edge2_Node000002_Node000003" class="edge">
<title>Node2&#45;&gt;Node3</title>
<g id="a_edge2_Node000002_Node000003"><a xlink:title=" ">
<path fill="none" stroke="#63b8ff" d="M429.46,-223.59C409.55,-215.13 380.02,-202.58 357.37,-192.94"/>
<polygon fill="#63b8ff" stroke="#63b8ff" points="358.84,-189.76 348.26,-189.07 356.1,-196.21 358.84,-189.76"/>
</a>
</g>
</g>
<!-- Node4 -->
<g id="Node000004" class="node">
<title>Node4</title>
<g id="a_Node000004"><a xlink:title=" ">
<polygon fill="#e0e0e0" stroke="#999999" points="232.08,-20 189.08,-20 189.08,0 232.08,0 232.08,-20"/>
<text text-anchor="middle" x="210.58" y="-6.5" font-family="Helvetica,sans-Serif" font-size="10.00">vector</text>
</a>
</g>
</g>
<!-- Node3&#45;&gt;Node4 -->
<g id="edge3_Node000003_Node000004" class="edge">
<title>Node3&#45;&gt;Node4</title>
<g id="a_edge3_Node000003_Node000004"><a xlink:title=" ">
<path fill="none" stroke="#63b8ff" d="M294.97,-170.78C273.41,-164.65 245.32,-153.05 229.58,-132 207.57,-102.57 206.62,-57.74 208.32,-31.71"/>
<polygon fill="#63b8ff" stroke="#63b8ff" points="211.8,-32.06 209.19,-21.8 204.83,-31.45 211.8,-32.06"/>
</a>
</g>
</g>
<!-- Node5 -->
<g id="Node000005" class="node">
<title>Node5</title>
<g id="a_Node000005"><a xlink:title=" ">
<polygon fill="#e0e0e0" stroke="#999999" points="530.7,-20 482.45,-20 482.45,0 530.7,0 530.7,-20"/>
<text text-anchor="middle" x="506.58" y="-6.5" font-family="Helvetica,sans-Serif" font-size="10.00">stdint.h</text>
</a>
</g>
</g>
<!-- Node3&#45;&gt;Node5 -->
<g id="edge4_Node000003_Node000005" class="edge">
<title>Node3&#45;&gt;Node5</title>
<g id="a_edge4_Node000003_Node000005"><a xlink:title=" ">
<path fill="none" stroke="#63b8ff" d="M354.44,-173.8C383.59,-169.21 427.55,-158.18 455.58,-132 484.77,-104.73 497.89,-58.09 503.27,-31.38"/>
<polygon fill="#63b8ff" stroke="#63b8ff" points="506.66,-32.3 505,-21.84 499.77,-31.05 506.66,-32.3"/>
</a>
</g>
</g>
<!-- Node6 -->
<g id="Node000006" class="node">
<title>Node6</title>
<g id="a_Node000006"><a xlink:title=" ">
<polygon fill="#e0e0e0" stroke="#999999" points="397.58,-20 357.58,-20 357.58,0 397.58,0 397.58,-20"/>
<text text-anchor="middle" x="377.58" y="-6.5" font-family="Helvetica,sans-Serif" font-size="10.00">string</text>
</a>
</g>
</g>
<!-- Node3&#45;&gt;Node6 -->
<g id="edge5_Node000003_Node000006" class="edge">
<title>Node3&#45;&gt;Node6</title>
<g id="a_edge5_Node000003_Node000006"><a xlink:title=" ">
<path fill="none" stroke="#63b8ff" d="M329.81,-167.7C334.47,-158.84 340.95,-144.97 343.58,-132 350.28,-98.89 332.84,-88.03 343.58,-56 346.94,-45.97 353.52,-36.39 360.01,-28.66"/>
<polygon fill="#63b8ff" stroke="#63b8ff" points="362.49,-31.13 366.63,-21.38 357.31,-26.43 362.49,-31.13"/>
</a>
</g>
</g>
<!-- Node7 -->
<g id="Node000007" class="node">
<title>Node7</title>
<g id="a_Node000007"><a xlink:title=" ">
<polygon fill="#e0e0e0" stroke="#999999" points="182.95,-76 100.2,-76 100.2,-56 182.95,-56 182.95,-76"/>
<text text-anchor="middle" x="141.58" y="-62.5" font-family="Helvetica,sans-Serif" font-size="10.00">unordered_map</text>
</a>
</g>
</g>
<!-- Node3&#45;&gt;Node7 -->
<g id="edge6_Node000003_Node000007" class="edge">
<title>Node3&#45;&gt;Node7</title>
<g id="a_edge6_Node000003_Node000007"><a xlink:title=" ">
<path fill="none" stroke="#63b8ff" d="M294.83,-171.25C267.49,-164.92 226.74,-152.78 196.58,-132 178.75,-119.72 163.32,-100.21 153.38,-85.77"/>
<polygon fill="#63b8ff" stroke="#63b8ff" points="156.41,-84.02 147.99,-77.59 150.57,-87.87 156.41,-84.02"/>
</a>
</g>
</g>
<!-- Node8 -->
<g id="Node000008" class="node">
<title>Node8</title>
<g id="a_Node000008"><a xlink:href="_command_8h.html" target="_top" xlink:title=" ">
<polygon fill="white" stroke="#666666" points="82.2,-76 12.95,-76 12.95,-56 82.2,-56 82.2,-76"/>
<text text-anchor="middle" x="47.58" y="-62.5" font-family="Helvetica,sans-Serif" font-size="10.00">Command.h</text>
</a>
</g>
</g>
<!-- Node3&#45;&gt;Node8 -->
<g id="edge7_Node000003_Node000008" class="edge">
<title>Node3&#45;&gt;Node8</title>
<g id="a_edge7_Node000003_Node000008"><a xlink:title=" ">
<path fill="none" stroke="#63b8ff" d="M294.83,-177.08C227.41,-176.57 66.18,-171.18 32.58,-132 21.64,-119.25 27.91,-100.08 35.4,-85.87"/>
<polygon fill="#63b8ff" stroke="#63b8ff" points="38.3,-87.85 40.34,-77.45 32.26,-84.3 38.3,-87.85"/>
</a>
</g>
</g>
<!-- Node10 -->
<g id="Node000010" class="node">
<title>Node10</title>
<g id="a_Node000010"><a xlink:href="_command_handler_8h.html" target="_top" xlink:title=" ">
<polygon fill="white" stroke="#666666" points="144.08,-132 41.08,-132 41.08,-112 144.08,-112 144.08,-132"/>
<text text-anchor="middle" x="92.58" y="-118.5" font-family="Helvetica,sans-Serif" font-size="10.00">CommandHandler.h</text>
</a>
</g>
</g>
<!-- Node3&#45;&gt;Node10 -->
<g id="edge11_Node000003_Node000010" class="edge">
<title>Node3&#45;&gt;Node10</title>
<g id="a_edge11_Node000003_Node000010"><a xlink:title=" ">
<path fill="none" stroke="#63b8ff" d="M294.72,-170.05C256.73,-161.21 190.51,-145.79 144.25,-135.03"/>
<polygon fill="#63b8ff" stroke="#63b8ff" points="145.24,-131.67 134.71,-132.81 143.66,-138.48 145.24,-131.67"/>
</a>
</g>
</g>
<!-- Node3&#45;&gt;Node11 -->
<g id="edge15_Node000003_Node000011" class="edge">
<title>Node3&#45;&gt;Node11</title>
<g id="a_edge15_Node000003_Node000011"><a xlink:title=" ">
<path fill="none" stroke="#63b8ff" d="M354.24,-171.07C399.36,-162.04 485.86,-144.74 541.85,-133.55"/>
<polygon fill="#63b8ff" stroke="#63b8ff" points="542.36,-137.01 551.48,-131.62 540.99,-130.15 542.36,-137.01"/>
</a>
</g>
</g>
<!-- Node14 -->
<g id="Node000014" class="node">
<title>Node14</title>
<g id="a_Node000014"><a xlink:href="_program_variable_8h.html" target="_top" xlink:title=" ">
<polygon fill="white" stroke="#666666" points="334.33,-132 238.83,-132 238.83,-112 334.33,-112 334.33,-132"/>
<text text-anchor="middle" x="286.58" y="-118.5" font-family="Helvetica,sans-Serif" font-size="10.00">ProgramVariable.h</text>
</a>
</g>
</g>
<!-- Node3&#45;&gt;Node14 -->
<g id="edge22_Node000003_Node000014" class="edge">
<title>Node3&#45;&gt;Node14</title>
<g id="a_edge22_Node000003_Node000014"><a xlink:title=" ">
<path fill="none" stroke="#63b8ff" d="M317.96,-167.59C312.89,-160.39 305.74,-150.23 299.55,-141.43"/>
<polygon fill="#63b8ff" stroke="#63b8ff" points="302.61,-139.7 293.99,-133.54 296.88,-143.73 302.61,-139.7"/>
</a>
</g>
</g>
<!-- Node15 -->
<g id="Node000015" class="node">
<title>Node15</title>
<g id="a_Node000015"><a xlink:href="_lexer_8h.html" target="_top" xlink:title=" ">
<polygon fill="white" stroke="#666666" points="446.7,-132 398.45,-132 398.45,-112 446.7,-112 446.7,-132"/>
<text text-anchor="middle" x="422.58" y="-118.5" font-family="Helvetica,sans-Serif" font-size="10.00">Lexer.h</text>
</a>
</g>
</g>
<!-- Node3&#45;&gt;Node15 -->
<g id="edge27_Node000003_Node000015" class="edge">
<title>Node3&#45;&gt;Node15</title>
<g id="a_edge27_Node000003_Node000015"><a xlink:title=" ">
<path fill="none" stroke="#63b8ff" d="M341.65,-167.59C356.45,-159.44 378.15,-147.48 395.35,-138"/>
<polygon fill="#63b8ff" stroke="#63b8ff" points="396.98,-141.1 404.05,-133.21 393.6,-134.97 396.98,-141.1"/>
</a>
</g>
</g>
<!-- Node8&#45;&gt;Node4 -->
<g id="edge8_Node000008_Node000004" class="edge">
<title>Node8&#45;&gt;Node4</title>
<g id="a_edge8_Node000008_Node000004"><a xlink:title=" ">
<path fill="none" stroke="#63b8ff" d="M75.97,-55.59C104.44,-46.16 148.22,-31.66 178.07,-21.77"/>
<polygon fill="#63b8ff" stroke="#63b8ff" points="178.93,-25.17 187.33,-18.7 176.73,-18.53 178.93,-25.17"/>
</a>
</g>
</g>
<!-- Node8&#45;&gt;Node6 -->
<g id="edge10_Node000008_Node000006" class="edge">
<title>Node8&#45;&gt;Node6</title>
<g id="a_edge10_Node000008_Node000006"><a xlink:title=" ">
<path fill="none" stroke="#63b8ff" d="M82.61,-57.68C85.64,-57.1 88.66,-56.53 91.58,-56 183.81,-39.32 293.42,-23.06 346.16,-15.46"/>
<polygon fill="#63b8ff" stroke="#63b8ff" points="346.51,-18.95 355.91,-14.06 345.52,-12.02 346.51,-18.95"/>
</a>
</g>
</g>
<!-- Node9 -->
<g id="Node000009" class="node">
<title>Node9</title>
<g id="a_Node000009"><a xlink:title=" ">
<polygon fill="#e0e0e0" stroke="#999999" points="80.33,-20 14.83,-20 14.83,0 80.33,0 80.33,-20"/>
<text text-anchor="middle" x="47.58" y="-6.5" font-family="Helvetica,sans-Serif" font-size="10.00">string_view</text>
</a>
</g>
</g>
<!-- Node8&#45;&gt;Node9 -->
<g id="edge9_Node000008_Node000009" class="edge">
<title>Node8&#45;&gt;Node9</title>
<g id="a_edge9_Node000008_Node000009"><a xlink:title=" ">
<path fill="none" stroke="#63b8ff" d="M47.58,-55.59C47.58,-49.01 47.58,-39.96 47.58,-31.73"/>
<polygon fill="#63b8ff" stroke="#63b8ff" points="51.08,-31.81 47.58,-21.81 44.08,-31.81 51.08,-31.81"/>
</a>
</g>
</g>
<!-- Node10&#45;&gt;Node7 -->
<g id="edge12_Node000010_Node000007" class="edge">
<title>Node10&#45;&gt;Node7</title>
<g id="a_edge12_Node000010_Node000007"><a xlink:title=" ">
<path fill="none" stroke="#63b8ff" d="M101.11,-111.59C107.86,-104.16 117.46,-93.58 125.62,-84.58"/>
<polygon fill="#63b8ff" stroke="#63b8ff" points="127.99,-87.18 132.12,-77.42 122.81,-82.47 127.99,-87.18"/>
</a>
</g>
</g>
<!-- Node10&#45;&gt;Node8 -->
<g id="edge14_Node000010_Node000008" class="edge">
<title>Node10&#45;&gt;Node8</title>
<g id="a_edge14_Node000010_Node000008"><a xlink:title=" ">
<path fill="none" stroke="#63b8ff" d="M84.74,-111.59C78.61,-104.24 69.91,-93.8 62.46,-84.87"/>
<polygon fill="#63b8ff" stroke="#63b8ff" points="65.39,-82.9 56.29,-77.46 60.01,-87.38 65.39,-82.9"/>
</a>
</g>
</g>
<!-- Node10&#45;&gt;Node9 -->
<g id="edge13_Node000010_Node000009" class="edge">
<title>Node10&#45;&gt;Node9</title>
<g id="a_edge13_Node000010_Node000009"><a xlink:title=" ">
<path fill="none" stroke="#63b8ff" d="M53.59,-111.54C35.03,-104.88 14.55,-93.85 3.58,-76 -6.87,-59.02 8.99,-40.22 24.51,-27.23"/>
<polygon fill="#63b8ff" stroke="#63b8ff" points="26.46,-30.14 32.2,-21.23 22.16,-24.61 26.46,-30.14"/>
</a>
</g>
</g>
<!-- Node11&#45;&gt;Node5 -->
<g id="edge16_Node000011_Node000005" class="edge">
<title>Node11&#45;&gt;Node5</title>
<g id="a_edge16_Node000011_Node000005"><a xlink:title=" ">
<path fill="none" stroke="#63b8ff" d="M604.98,-111.67C618.3,-98.58 638.23,-74.31 625.58,-56 607.01,-29.13 570.19,-18.29 542.39,-13.92"/>
<polygon fill="#63b8ff" stroke="#63b8ff" points="542.99,-10.47 532.62,-12.62 542.07,-17.41 542.99,-10.47"/>
</a>
</g>
</g>
<!-- Node11&#45;&gt;Node6 -->
<g id="edge17_Node000011_Node000006" class="edge">
<title>Node11&#45;&gt;Node6</title>
<g id="a_edge17_Node000011_Node000006"><a xlink:title=" ">
<path fill="none" stroke="#63b8ff" d="M576.08,-111.62C538.12,-92.38 451.23,-48.34 406.05,-25.43"/>
<polygon fill="#63b8ff" stroke="#63b8ff" points="407.88,-22.44 397.38,-21.04 404.72,-28.68 407.88,-22.44"/>
</a>
</g>
</g>
<!-- Node12 -->
<g id="Node000012" class="node">
<title>Node12</title>
<g id="a_Node000012"><a xlink:href="_utils_8h.html" target="_top" xlink:title=" ">
<polygon fill="white" stroke="#666666" points="616.83,-76 572.33,-76 572.33,-56 616.83,-56 616.83,-76"/>
<text text-anchor="middle" x="594.58" y="-62.5" font-family="Helvetica,sans-Serif" font-size="10.00">Utils.h</text>
</a>
</g>
</g>
<!-- Node11&#45;&gt;Node12 -->
<g id="edge18_Node000011_Node000012" class="edge">
<title>Node11&#45;&gt;Node12</title>
<g id="a_edge18_Node000011_Node000012"><a xlink:title=" ">
<path fill="none" stroke="#63b8ff" d="M594.58,-111.59C594.58,-105.01 594.58,-95.96 594.58,-87.73"/>
<polygon fill="#63b8ff" stroke="#63b8ff" points="598.08,-87.81 594.58,-77.81 591.08,-87.81 598.08,-87.81"/>
</a>
</g>
</g>
<!-- Node12&#45;&gt;Node5 -->
<g id="edge19_Node000012_Node000005" class="edge">
<title>Node12&#45;&gt;Node5</title>
<g id="a_edge19_Node000012_Node000005"><a xlink:title=" ">
<path fill="none" stroke="#63b8ff" d="M579.25,-55.59C566.08,-47.51 546.84,-35.71 531.47,-26.27"/>
<polygon fill="#63b8ff" stroke="#63b8ff" points="533.67,-23.52 523.32,-21.27 530.01,-29.48 533.67,-23.52"/>
</a>
</g>
</g>
<!-- Node12&#45;&gt;Node6 -->
<g id="edge20_Node000012_Node000006" class="edge">
<title>Node12&#45;&gt;Node6</title>
<g id="a_edge20_Node000012_Node000006"><a xlink:title=" ">
<path fill="none" stroke="#63b8ff" d="M572.11,-59.38C567.63,-58.26 562.95,-57.09 558.58,-56 505.99,-42.89 444.79,-27.68 408.72,-18.73"/>
<polygon fill="#63b8ff" stroke="#63b8ff" points="409.96,-15.43 399.41,-16.42 408.27,-22.22 409.96,-15.43"/>
</a>
</g>
</g>
<!-- Node12&#45;&gt;Node13 -->
<g id="edge21_Node000012_Node000013" class="edge">
<title>Node12&#45;&gt;Node13</title>
<g id="a_edge21_Node000012_Node000013"><a xlink:title=" ">
<path fill="none" stroke="#63b8ff" d="M609.91,-55.59C623.07,-47.51 642.31,-35.71 657.69,-26.27"/>
<polygon fill="#63b8ff" stroke="#63b8ff" points="659.15,-29.48 665.84,-21.27 655.49,-23.52 659.15,-29.48"/>
</a>
</g>
</g>
<!-- Node14&#45;&gt;Node6 -->
<g id="edge23_Node000014_Node000006" class="edge">
<title>Node14&#45;&gt;Node6</title>
<g id="a_edge23_Node000014_Node000006"><a xlink:title=" ">
<path fill="none" stroke="#63b8ff" d="M288.13,-111.71C290.76,-98.24 297.19,-73.02 310.58,-56 320.35,-43.57 334.53,-33.36 347.32,-25.82"/>
<polygon fill="#63b8ff" stroke="#63b8ff" points="348.81,-29 355.86,-21.09 345.41,-22.88 348.81,-29"/>
</a>
</g>
</g>
<!-- Node14&#45;&gt;Node7 -->
<g id="edge26_Node000014_Node000007" class="edge">
<title>Node14&#45;&gt;Node7</title>
<g id="a_edge26_Node000014_Node000007"><a xlink:title=" ">
<path fill="none" stroke="#63b8ff" d="M261.32,-111.59C238.18,-102.97 203.65,-90.12 177.61,-80.42"/>
<polygon fill="#63b8ff" stroke="#63b8ff" points="179.04,-77.22 168.45,-77.01 176.6,-83.78 179.04,-77.22"/>
</a>
</g>
</g>
<!-- Node14&#45;&gt;Node9 -->
<g id="edge24_Node000014_Node000009" class="edge">
<title>Node14&#45;&gt;Node9</title>
<g id="a_edge24_Node000014_Node000009"><a xlink:title=" ">
<path fill="none" stroke="#63b8ff" d="M275.27,-111.6C258.14,-97.74 224.12,-71.78 191.58,-56 159.54,-40.46 120.91,-28.74 91.74,-21.16"/>
<polygon fill="#63b8ff" stroke="#63b8ff" points="92.68,-17.78 82.12,-18.73 90.96,-24.57 92.68,-17.78"/>
</a>
</g>
</g>
<!-- Node14&#45;&gt;Node13 -->
<g id="edge25_Node000014_Node000013" class="edge">
<title>Node14&#45;&gt;Node13</title>
<g id="a_edge25_Node000014_Node000013"><a xlink:title=" ">
<path fill="none" stroke="#63b8ff" d="M334.49,-116.52C421.86,-108.08 600.42,-89.47 625.58,-76 645.36,-65.41 661.48,-45.02 671.46,-29.89"/>
<polygon fill="#63b8ff" stroke="#63b8ff" points="674.23,-32.06 676.56,-21.72 668.3,-28.35 674.23,-32.06"/>
</a>
</g>
</g>
<!-- Node15&#45;&gt;Node5 -->
<g id="edge28_Node000015_Node000005" class="edge">
<title>Node15&#45;&gt;Node5</title>
<g id="a_edge28_Node000015_Node000005"><a xlink:title=" ">
<path fill="none" stroke="#63b8ff" d="M429.74,-111.62C443.63,-93.44 474.43,-53.09 492.54,-29.38"/>
<polygon fill="#63b8ff" stroke="#63b8ff" points="495.23,-31.63 498.52,-21.56 489.66,-27.38 495.23,-31.63"/>
</a>
</g>
</g>
<!-- Node15&#45;&gt;Node6 -->
<g id="edge29_Node000015_Node000006" class="edge">
<title>Node15&#45;&gt;Node6</title>
<g id="a_edge29_Node000015_Node000006"><a xlink:title=" ">
<path fill="none" stroke="#63b8ff" d="M422.38,-111.78C421.81,-98.82 419.65,-74.71 411.58,-56 407.39,-46.28 400.67,-36.75 394.32,-28.98"/>
<polygon fill="#63b8ff" stroke="#63b8ff" points="397.13,-26.88 387.93,-21.62 391.84,-31.47 397.13,-26.88"/>
</a>
</g>
</g>
<!-- Node16 -->
<g id="Node000016" class="node">
<title>Node16</title>
<g id="a_Node000016"><a xlink:href="_token_8h.html" target="_top" xlink:title=" ">
<polygon fill="white" stroke="#666666" points="402.83,-76 352.33,-76 352.33,-56 402.83,-56 402.83,-76"/>
<text text-anchor="middle" x="377.58" y="-62.5" font-family="Helvetica,sans-Serif" font-size="10.00">Token.h</text>
</a>
</g>
</g>
<!-- Node15&#45;&gt;Node16 -->
<g id="edge30_Node000015_Node000016" class="edge">
<title>Node15&#45;&gt;Node16</title>
<g id="a_edge30_Node000015_Node000016"><a xlink:title=" ">
<path fill="none" stroke="#63b8ff" d="M414.74,-111.59C408.61,-104.24 399.91,-93.8 392.46,-84.87"/>
<polygon fill="#63b8ff" stroke="#63b8ff" points="395.39,-82.9 386.29,-77.46 390.01,-87.38 395.39,-82.9"/>
</a>
</g>
</g>
<!-- Node16&#45;&gt;Node4 -->
<g id="edge33_Node000016_Node000004" class="edge">
<title>Node16&#45;&gt;Node4</title>
<g id="a_edge33_Node000016_Node000004"><a xlink:title=" ">
<path fill="none" stroke="#63b8ff" d="M351.85,-56.68C322.68,-47.25 275.05,-31.85 243.27,-21.57"/>
<polygon fill="#63b8ff" stroke="#63b8ff" points="244.37,-18.25 233.78,-18.5 242.22,-24.91 244.37,-18.25"/>
</a>
</g>
</g>
<!-- Node16&#45;&gt;Node5 -->
<g id="edge31_Node000016_Node000005" class="edge">
<title>Node16&#45;&gt;Node5</title>
<g id="a_edge31_Node000016_Node000005"><a xlink:title=" ">
<path fill="none" stroke="#63b8ff" d="M400.05,-55.59C420.36,-47.09 450.53,-34.46 473.58,-24.81"/>
<polygon fill="#63b8ff" stroke="#63b8ff" points="474.66,-28.15 482.54,-21.06 471.96,-21.7 474.66,-28.15"/>
</a>
</g>
</g>
<!-- Node16&#45;&gt;Node6 -->
<g id="edge32_Node000016_Node000006" class="edge">
<title>Node16&#45;&gt;Node6</title>
<g id="a_edge32_Node000016_Node000006"><a xlink:title=" ">
<path fill="none" stroke="#63b8ff" d="M377.58,-55.59C377.58,-49.01 377.58,-39.96 377.58,-31.73"/>
<polygon fill="#63b8ff" stroke="#63b8ff" points="381.08,-31.81 377.58,-21.81 374.08,-31.81 381.08,-31.81"/>
</a>
</g>
</g>
</g>
</svg>
