<?xml version="1.0" encoding="UTF-8" standalone="no"?>
<!DOCTYPE svg PUBLIC "-//W3C//DTD SVG 1.1//EN"
 "http://www.w3.org/Graphics/SVG/1.1/DTD/svg11.dtd">
<!-- Generated by graphviz version 12.2.1 (20241206.2353)
 -->
<!-- Title: C:/Users/emilly/Documents/Lucca/Projetos/Cpp/NikiScript/src/Parser.h Pages: 1 -->
<svg width="648pt" height="276pt"
 viewBox="0.00 0.00 648.46 276.00" xmlns="http://www.w3.org/2000/svg" xmlns:xlink="http://www.w3.org/1999/xlink">
<g id="graph0" class="graph" transform="scale(1 1) rotate(0) translate(4 272)">
<title>C:/Users/emilly/Documents/Lucca/Projetos/Cpp/NikiScript/src/Parser.h</title>
<!-- Node1 -->
<g id="Node000001" class="node">
<title>Node1</title>
<g id="a_Node000001"><a xlink:title=" ">
<polygon fill="#999999" stroke="#666666" points="335.66,-268 184.66,-268 184.66,-224 335.66,-224 335.66,-268"/>
<text text-anchor="start" x="192.66" y="-254.5" font-family="Helvetica,sans-Serif" font-size="10.00">C:/Users/emilly/Documents</text>
<text text-anchor="start" x="192.66" y="-242.5" font-family="Helvetica,sans-Serif" font-size="10.00">/Lucca/Projetos/Cpp/NikiScript</text>
<text text-anchor="middle" x="260.16" y="-230.5" font-family="Helvetica,sans-Serif" font-size="10.00">/src/Parser.h</text>
</a>
</g>
</g>
<!-- Node2 -->
<g id="Node000002" class="node">
<title>Node2</title>
<g id="a_Node000002"><a xlink:href="_context_8h.html" target="_top" xlink:title=" ">
<polygon fill="white" stroke="#666666" points="289.53,-188 230.78,-188 230.78,-168 289.53,-168 289.53,-188"/>
<text text-anchor="middle" x="260.16" y="-174.5" font-family="Helvetica,sans-Serif" font-size="10.00">Context.h</text>
</a>
</g>
</g>
<!-- Node1&#45;&gt;Node2 -->
<g id="edge1_Node000001_Node000002" class="edge">
<title>Node1&#45;&gt;Node2</title>
<g id="a_edge1_Node000001_Node000002"><a xlink:title=" ">
<path fill="none" stroke="#63b8ff" d="M260.16,-223.75C260.16,-216.13 260.16,-207.53 260.16,-199.93"/>
<polygon fill="#63b8ff" stroke="#63b8ff" points="263.66,-199.93 260.16,-189.93 256.66,-199.93 263.66,-199.93"/>
</a>
</g>
</g>
<!-- Node3 -->
<g id="Node000003" class="node">
<title>Node3</title>
<g id="a_Node000003"><a xlink:title=" ">
<polygon fill="#e0e0e0" stroke="#999999" points="65.66,-20 22.66,-20 22.66,0 65.66,0 65.66,-20"/>
<text text-anchor="middle" x="44.16" y="-6.5" font-family="Helvetica,sans-Serif" font-size="10.00">vector</text>
</a>
</g>
</g>
<!-- Node2&#45;&gt;Node3 -->
<g id="edge2_Node000002_Node000003" class="edge">
<title>Node2&#45;&gt;Node3</title>
<g id="a_edge2_Node000002_Node000003"><a xlink:title=" ">
<path fill="none" stroke="#63b8ff" d="M230.44,-174.35C176.18,-169.01 63.83,-155.39 33.16,-132 4.53,-110.17 -7.42,-89.73 5.16,-56 9.14,-45.33 16.92,-35.51 24.48,-27.79"/>
<polygon fill="#63b8ff" stroke="#63b8ff" points="26.46,-30.73 31.32,-21.32 21.65,-25.65 26.46,-30.73"/>
</a>
</g>
</g>
<!-- Node4 -->
<g id="Node000004" class="node">
<title>Node4</title>
<g id="a_Node000004"><a xlink:title=" ">
<polygon fill="#e0e0e0" stroke="#999999" points="632.28,-20 584.03,-20 584.03,0 632.28,0 632.28,-20"/>
<text text-anchor="middle" x="608.16" y="-6.5" font-family="Helvetica,sans-Serif" font-size="10.00">stdint.h</text>
</a>
</g>
</g>
<!-- Node2&#45;&gt;Node4 -->
<g id="edge3_Node000002_Node000004" class="edge">
<title>Node2&#45;&gt;Node4</title>
<g id="a_edge3_Node000002_Node000004"><a xlink:title=" ">
<path fill="none" stroke="#63b8ff" d="M289.87,-175.3C359.66,-170.93 531.96,-157.78 583.16,-132 614.32,-116.31 624.95,-108.29 638.16,-76 644.82,-59.71 634.93,-41.55 624.76,-28.57"/>
<polygon fill="#63b8ff" stroke="#63b8ff" points="627.69,-26.61 618.53,-21.29 622.37,-31.17 627.69,-26.61"/>
</a>
</g>
</g>
<!-- Node5 -->
<g id="Node000005" class="node">
<title>Node5</title>
<g id="a_Node000005"><a xlink:title=" ">
<polygon fill="#e0e0e0" stroke="#999999" points="384.16,-20 344.16,-20 344.16,0 384.16,0 384.16,-20"/>
<text text-anchor="middle" x="364.16" y="-6.5" font-family="Helvetica,sans-Serif" font-size="10.00">string</text>
</a>
</g>
</g>
<!-- Node2&#45;&gt;Node5 -->
<g id="edge4_Node000002_Node000005" class="edge">
<title>Node2&#45;&gt;Node5</title>
<g id="a_edge4_Node000002_Node000005"><a xlink:title=" ">
<path fill="none" stroke="#63b8ff" d="M276.37,-167.58C288.98,-159.53 306.14,-146.9 317.16,-132 340.19,-100.84 353.49,-56.95 359.74,-31.49"/>
<polygon fill="#63b8ff" stroke="#63b8ff" points="363.14,-32.32 361.97,-21.79 356.31,-30.74 363.14,-32.32"/>
</a>
</g>
</g>
<!-- Node6 -->
<g id="Node000006" class="node">
<title>Node6</title>
<g id="a_Node000006"><a xlink:title=" ">
<polygon fill="#e0e0e0" stroke="#999999" points="222.53,-76 139.78,-76 139.78,-56 222.53,-56 222.53,-76"/>
<text text-anchor="middle" x="181.16" y="-62.5" font-family="Helvetica,sans-Serif" font-size="10.00">unordered_map</text>
</a>
</g>
</g>
<!-- Node2&#45;&gt;Node6 -->
<g id="edge5_Node000002_Node000006" class="edge">
<title>Node2&#45;&gt;Node6</title>
<g id="a_edge5_Node000002_Node000006"><a xlink:title=" ">
<path fill="none" stroke="#63b8ff" d="M243.51,-167.55C230.82,-159.56 213.77,-147.04 203.16,-132 193.69,-118.58 188.04,-100.78 184.84,-87.19"/>
<polygon fill="#63b8ff" stroke="#63b8ff" points="188.32,-86.72 182.86,-77.63 181.47,-88.14 188.32,-86.72"/>
</a>
</g>
</g>
<!-- Node7 -->
<g id="Node000007" class="node">
<title>Node7</title>
<g id="a_Node000007"><a xlink:href="_command_8h.html" target="_top" xlink:title=" ">
<polygon fill="white" stroke="#666666" points="83.78,-76 14.53,-76 14.53,-56 83.78,-56 83.78,-76"/>
<text text-anchor="middle" x="49.16" y="-62.5" font-family="Helvetica,sans-Serif" font-size="10.00">Command.h</text>
</a>
</g>
</g>
<!-- Node2&#45;&gt;Node7 -->
<g id="edge6_Node000002_Node000007" class="edge">
<title>Node2&#45;&gt;Node7</title>
<g id="a_edge6_Node000002_Node000007"><a xlink:title=" ">
<path fill="none" stroke="#63b8ff" d="M230.34,-175.29C176.69,-171.52 67.3,-160.46 44.16,-132 34.01,-119.51 36.67,-100.85 41.05,-86.72"/>
<polygon fill="#63b8ff" stroke="#63b8ff" points="44.25,-88.16 44.37,-77.57 37.67,-85.78 44.25,-88.16"/>
</a>
</g>
</g>
<!-- Node9 -->
<g id="Node000009" class="node">
<title>Node9</title>
<g id="a_Node000009"><a xlink:href="_command_handler_8h.html" target="_top" xlink:title=" ">
<polygon fill="white" stroke="#666666" points="155.66,-132 52.66,-132 52.66,-112 155.66,-112 155.66,-132"/>
<text text-anchor="middle" x="104.16" y="-118.5" font-family="Helvetica,sans-Serif" font-size="10.00">CommandHandler.h</text>
</a>
</g>
</g>
<!-- Node2&#45;&gt;Node9 -->
<g id="edge10_Node000002_Node000009" class="edge">
<title>Node2&#45;&gt;Node9</title>
<g id="a_edge10_Node000002_Node000009"><a xlink:title=" ">
<path fill="none" stroke="#63b8ff" d="M232.99,-167.59C207.86,-158.9 170.28,-145.89 142.18,-136.16"/>
<polygon fill="#63b8ff" stroke="#63b8ff" points="143.57,-132.94 132.97,-132.97 141.28,-139.55 143.57,-132.94"/>
</a>
</g>
</g>
<!-- Node10 -->
<g id="Node000010" class="node">
<title>Node10</title>
<g id="a_Node000010"><a xlink:href="_print_callback_8h.html" target="_top" xlink:title=" ">
<polygon fill="white" stroke="#666666" points="574.53,-132 491.78,-132 491.78,-112 574.53,-112 574.53,-132"/>
<text text-anchor="middle" x="533.16" y="-118.5" font-family="Helvetica,sans-Serif" font-size="10.00">PrintCallback.h</text>
</a>
</g>
</g>
<!-- Node2&#45;&gt;Node10 -->
<g id="edge14_Node000002_Node000010" class="edge">
<title>Node2&#45;&gt;Node10</title>
<g id="a_edge14_Node000002_Node000010"><a xlink:title=" ">
<path fill="none" stroke="#63b8ff" d="M289.89,-171.12C335.53,-162.09 423.51,-144.69 480.21,-133.47"/>
<polygon fill="#63b8ff" stroke="#63b8ff" points="480.85,-136.92 489.98,-131.54 479.49,-130.05 480.85,-136.92"/>
</a>
</g>
</g>
<!-- Node13 -->
<g id="Node000013" class="node">
<title>Node13</title>
<g id="a_Node000013"><a xlink:href="_program_variable_8h.html" target="_top" xlink:title=" ">
<polygon fill="white" stroke="#666666" points="307.91,-132 212.41,-132 212.41,-112 307.91,-112 307.91,-132"/>
<text text-anchor="middle" x="260.16" y="-118.5" font-family="Helvetica,sans-Serif" font-size="10.00">ProgramVariable.h</text>
</a>
</g>
</g>
<!-- Node2&#45;&gt;Node13 -->
<g id="edge21_Node000002_Node000013" class="edge">
<title>Node2&#45;&gt;Node13</title>
<g id="a_edge21_Node000002_Node000013"><a xlink:title=" ">
<path fill="none" stroke="#63b8ff" d="M260.16,-167.59C260.16,-161.01 260.16,-151.96 260.16,-143.73"/>
<polygon fill="#63b8ff" stroke="#63b8ff" points="263.66,-143.81 260.16,-133.81 256.66,-143.81 263.66,-143.81"/>
</a>
</g>
</g>
<!-- Node14 -->
<g id="Node000014" class="node">
<title>Node14</title>
<g id="a_Node000014"><a xlink:href="_lexer_8h.html" target="_top" xlink:title=" ">
<polygon fill="white" stroke="#666666" points="427.28,-132 379.03,-132 379.03,-112 427.28,-112 427.28,-132"/>
<text text-anchor="middle" x="403.16" y="-118.5" font-family="Helvetica,sans-Serif" font-size="10.00">Lexer.h</text>
</a>
</g>
</g>
<!-- Node2&#45;&gt;Node14 -->
<g id="edge26_Node000002_Node000014" class="edge">
<title>Node2&#45;&gt;Node14</title>
<g id="a_edge26_Node000002_Node000014"><a xlink:title=" ">
<path fill="none" stroke="#63b8ff" d="M285.07,-167.59C308.03,-158.92 342.36,-145.96 368.09,-136.24"/>
<polygon fill="#63b8ff" stroke="#63b8ff" points="369,-139.64 377.12,-132.83 366.53,-133.09 369,-139.64"/>
</a>
</g>
</g>
<!-- Node7&#45;&gt;Node3 -->
<g id="edge7_Node000007_Node000003" class="edge">
<title>Node7&#45;&gt;Node3</title>
<g id="a_edge7_Node000007_Node000003"><a xlink:title=" ">
<path fill="none" stroke="#63b8ff" d="M48.29,-55.59C47.68,-49.01 46.84,-39.96 46.08,-31.73"/>
<polygon fill="#63b8ff" stroke="#63b8ff" points="49.57,-31.44 45.16,-21.81 42.6,-32.09 49.57,-31.44"/>
</a>
</g>
</g>
<!-- Node7&#45;&gt;Node5 -->
<g id="edge9_Node000007_Node000005" class="edge">
<title>Node7&#45;&gt;Node5</title>
<g id="a_edge9_Node000007_Node000005"><a xlink:title=" ">
<path fill="none" stroke="#63b8ff" d="M84.07,-59.01C145.82,-48.43 273.33,-26.57 332.6,-16.41"/>
<polygon fill="#63b8ff" stroke="#63b8ff" points="333.08,-19.88 342.34,-14.74 331.89,-12.98 333.08,-19.88"/>
</a>
</g>
</g>
<!-- Node8 -->
<g id="Node000008" class="node">
<title>Node8</title>
<g id="a_Node000008"><a xlink:title=" ">
<polygon fill="#e0e0e0" stroke="#999999" points="148.91,-20 83.41,-20 83.41,0 148.91,0 148.91,-20"/>
<text text-anchor="middle" x="116.16" y="-6.5" font-family="Helvetica,sans-Serif" font-size="10.00">string_view</text>
</a>
</g>
</g>
<!-- Node7&#45;&gt;Node8 -->
<g id="edge8_Node000007_Node000008" class="edge">
<title>Node7&#45;&gt;Node8</title>
<g id="a_edge8_Node000007_Node000008"><a xlink:title=" ">
<path fill="none" stroke="#63b8ff" d="M60.83,-55.59C70.44,-47.85 84.29,-36.69 95.73,-27.47"/>
<polygon fill="#63b8ff" stroke="#63b8ff" points="97.85,-30.25 103.44,-21.25 93.46,-24.8 97.85,-30.25"/>
</a>
</g>
</g>
<!-- Node9&#45;&gt;Node6 -->
<g id="edge11_Node000009_Node000006" class="edge">
<title>Node9&#45;&gt;Node6</title>
<g id="a_edge11_Node000009_Node000006"><a xlink:title=" ">
<path fill="none" stroke="#63b8ff" d="M117.57,-111.59C128.77,-103.74 144.97,-92.38 158.22,-83.09"/>
<polygon fill="#63b8ff" stroke="#63b8ff" points="160.23,-85.96 166.4,-77.35 156.21,-80.22 160.23,-85.96"/>
</a>
</g>
</g>
<!-- Node9&#45;&gt;Node7 -->
<g id="edge13_Node000009_Node000007" class="edge">
<title>Node9&#45;&gt;Node7</title>
<g id="a_edge13_Node000009_Node000007"><a xlink:title=" ">
<path fill="none" stroke="#63b8ff" d="M94.58,-111.59C86.93,-104.08 76,-93.35 66.78,-84.3"/>
<polygon fill="#63b8ff" stroke="#63b8ff" points="69.3,-81.87 59.71,-77.36 64.39,-86.86 69.3,-81.87"/>
</a>
</g>
</g>
<!-- Node9&#45;&gt;Node8 -->
<g id="edge12_Node000009_Node000008" class="edge">
<title>Node9&#45;&gt;Node8</title>
<g id="a_edge12_Node000009_Node000008"><a xlink:title=" ">
<path fill="none" stroke="#63b8ff" d="M105.18,-111.62C107.1,-94.01 111.29,-55.59 113.91,-31.65"/>
<polygon fill="#63b8ff" stroke="#63b8ff" points="117.37,-32.18 114.97,-21.86 110.41,-31.42 117.37,-32.18"/>
</a>
</g>
</g>
<!-- Node10&#45;&gt;Node4 -->
<g id="edge15_Node000010_Node000004" class="edge">
<title>Node10&#45;&gt;Node4</title>
<g id="a_edge15_Node000010_Node000004"><a xlink:title=" ">
<path fill="none" stroke="#63b8ff" d="M572.15,-111.54C590.7,-104.88 611.19,-93.85 622.16,-76 630.66,-62.17 625.6,-43.92 619.31,-30.28"/>
<polygon fill="#63b8ff" stroke="#63b8ff" points="622.43,-28.7 614.71,-21.45 616.22,-31.93 622.43,-28.7"/>
</a>
</g>
</g>
<!-- Node10&#45;&gt;Node5 -->
<g id="edge16_Node000010_Node000005" class="edge">
<title>Node10&#45;&gt;Node5</title>
<g id="a_edge16_Node000010_Node000005"><a xlink:title=" ">
<path fill="none" stroke="#63b8ff" d="M522.78,-111.69C507.68,-98.4 478.47,-73.65 451.16,-56 433.06,-44.3 411.57,-33.16 394.47,-24.89"/>
<polygon fill="#63b8ff" stroke="#63b8ff" points="396.37,-21.92 385.83,-20.78 393.36,-28.24 396.37,-21.92"/>
</a>
</g>
</g>
<!-- Node11 -->
<g id="Node000011" class="node">
<title>Node11</title>
<g id="a_Node000011"><a xlink:href="_utils_8h.html" target="_top" xlink:title=" ">
<polygon fill="white" stroke="#666666" points="580.41,-76 535.91,-76 535.91,-56 580.41,-56 580.41,-76"/>
<text text-anchor="middle" x="558.16" y="-62.5" font-family="Helvetica,sans-Serif" font-size="10.00">Utils.h</text>
</a>
</g>
</g>
<!-- Node10&#45;&gt;Node11 -->
<g id="edge17_Node000010_Node000011" class="edge">
<title>Node10&#45;&gt;Node11</title>
<g id="a_edge17_Node000010_Node000011"><a xlink:title=" ">
<path fill="none" stroke="#63b8ff" d="M537.51,-111.59C540.7,-104.7 545.15,-95.1 549.1,-86.57"/>
<polygon fill="#63b8ff" stroke="#63b8ff" points="552.19,-88.22 553.22,-77.67 545.84,-85.28 552.19,-88.22"/>
</a>
</g>
</g>
<!-- Node11&#45;&gt;Node4 -->
<g id="edge18_Node000011_Node000004" class="edge">
<title>Node11&#45;&gt;Node4</title>
<g id="a_edge18_Node000011_Node000004"><a xlink:title=" ">
<path fill="none" stroke="#63b8ff" d="M566.87,-55.59C573.75,-48.16 583.55,-37.58 591.88,-28.58"/>
<polygon fill="#63b8ff" stroke="#63b8ff" points="594.3,-31.12 598.52,-21.41 589.16,-26.37 594.3,-31.12"/>
</a>
</g>
</g>
<!-- Node11&#45;&gt;Node5 -->
<g id="edge19_Node000011_Node000005" class="edge">
<title>Node11&#45;&gt;Node5</title>
<g id="a_edge19_Node000011_Node000005"><a xlink:title=" ">
<path fill="none" stroke="#63b8ff" d="M535.53,-58.7C500.94,-49.07 434.83,-30.67 395.6,-19.75"/>
<polygon fill="#63b8ff" stroke="#63b8ff" points="396.63,-16.4 386.05,-17.09 394.75,-23.15 396.63,-16.4"/>
</a>
</g>
</g>
<!-- Node12 -->
<g id="Node000012" class="node">
<title>Node12</title>
<g id="a_Node000012"><a xlink:title=" ">
<polygon fill="#e0e0e0" stroke="#999999" points="530.78,-20 479.53,-20 479.53,0 530.78,0 530.78,-20"/>
<text text-anchor="middle" x="505.16" y="-6.5" font-family="Helvetica,sans-Serif" font-size="10.00">sstream</text>
</a>
</g>
</g>
<!-- Node11&#45;&gt;Node12 -->
<g id="edge20_Node000011_Node000012" class="edge">
<title>Node11&#45;&gt;Node12</title>
<g id="a_edge20_Node000011_Node000012"><a xlink:title=" ">
<path fill="none" stroke="#63b8ff" d="M548.93,-55.59C541.56,-48.08 531.03,-37.35 522.14,-28.3"/>
<polygon fill="#63b8ff" stroke="#63b8ff" points="524.85,-26.06 515.35,-21.38 519.85,-30.97 524.85,-26.06"/>
</a>
</g>
</g>
<!-- Node13&#45;&gt;Node5 -->
<g id="edge22_Node000013_Node000005" class="edge">
<title>Node13&#45;&gt;Node5</title>
<g id="a_edge22_Node000013_Node000005"><a xlink:title=" ">
<path fill="none" stroke="#63b8ff" d="M266.73,-111.74C276.15,-98.72 294.32,-74.54 312.16,-56 321.82,-45.96 333.48,-35.72 343.31,-27.55"/>
<polygon fill="#63b8ff" stroke="#63b8ff" points="345.33,-30.42 350.87,-21.39 340.91,-24.99 345.33,-30.42"/>
</a>
</g>
</g>
<!-- Node13&#45;&gt;Node6 -->
<g id="edge25_Node000013_Node000006" class="edge">
<title>Node13&#45;&gt;Node6</title>
<g id="a_edge25_Node000013_Node000006"><a xlink:title=" ">
<path fill="none" stroke="#63b8ff" d="M246.4,-111.59C234.8,-103.67 217.96,-92.16 204.3,-82.82"/>
<polygon fill="#63b8ff" stroke="#63b8ff" points="206.51,-80.09 196.28,-77.33 202.56,-85.87 206.51,-80.09"/>
</a>
</g>
</g>
<!-- Node13&#45;&gt;Node8 -->
<g id="edge23_Node000013_Node000008" class="edge">
<title>Node13&#45;&gt;Node8</title>
<g id="a_edge23_Node000013_Node000008"><a xlink:title=" ">
<path fill="none" stroke="#63b8ff" d="M258.37,-111.74C255.22,-97.83 247.43,-71.53 231.16,-56 211.77,-37.49 183.88,-26.33 160.43,-19.75"/>
<polygon fill="#63b8ff" stroke="#63b8ff" points="161.35,-16.37 150.79,-17.26 159.6,-23.15 161.35,-16.37"/>
</a>
</g>
</g>
<!-- Node13&#45;&gt;Node12 -->
<g id="edge24_Node000013_Node000012" class="edge">
<title>Node13&#45;&gt;Node12</title>
<g id="a_edge24_Node000013_Node000012"><a xlink:title=" ">
<path fill="none" stroke="#63b8ff" d="M308.12,-118.17C348.83,-113.87 407.42,-103.08 451.16,-76 469.63,-64.56 484.8,-44.61 494.3,-29.82"/>
<polygon fill="#63b8ff" stroke="#63b8ff" points="497.19,-31.81 499.41,-21.45 491.21,-28.17 497.19,-31.81"/>
</a>
</g>
</g>
<!-- Node14&#45;&gt;Node4 -->
<g id="edge27_Node000014_Node000004" class="edge">
<title>Node14&#45;&gt;Node4</title>
<g id="a_edge27_Node000014_Node000004"><a xlink:title=" ">
<path fill="none" stroke="#63b8ff" d="M427.54,-118.14C472.51,-112.4 566.02,-98.07 589.16,-76 601.13,-64.58 605.68,-46.06 607.35,-31.71"/>
<polygon fill="#63b8ff" stroke="#63b8ff" points="610.83,-32.19 608.08,-21.96 603.85,-31.67 610.83,-32.19"/>
</a>
</g>
</g>
<!-- Node14&#45;&gt;Node5 -->
<g id="edge28_Node000014_Node000005" class="edge">
<title>Node14&#45;&gt;Node5</title>
<g id="a_edge28_Node000014_Node000005"><a xlink:title=" ">
<path fill="none" stroke="#63b8ff" d="M398.65,-111.84C394.34,-102.85 387.81,-88.68 383.16,-76 377.76,-61.28 372.83,-44.25 369.35,-31.32"/>
<polygon fill="#63b8ff" stroke="#63b8ff" points="372.79,-30.63 366.86,-21.85 366.01,-32.41 372.79,-30.63"/>
</a>
</g>
</g>
<!-- Node15 -->
<g id="Node000015" class="node">
<title>Node15</title>
<g id="a_Node000015"><a xlink:href="_token_8h.html" target="_top" xlink:title=" ">
<polygon fill="white" stroke="#666666" points="442.41,-76 391.91,-76 391.91,-56 442.41,-56 442.41,-76"/>
<text text-anchor="middle" x="417.16" y="-62.5" font-family="Helvetica,sans-Serif" font-size="10.00">Token.h</text>
</a>
</g>
</g>
<!-- Node14&#45;&gt;Node15 -->
<g id="edge29_Node000014_Node000015" class="edge">
<title>Node14&#45;&gt;Node15</title>
<g id="a_edge29_Node000014_Node000015"><a xlink:title=" ">
<path fill="none" stroke="#63b8ff" d="M405.6,-111.59C407.32,-104.93 409.71,-95.75 411.86,-87.44"/>
<polygon fill="#63b8ff" stroke="#63b8ff" points="415.25,-88.32 414.37,-77.76 408.47,-86.56 415.25,-88.32"/>
</a>
</g>
</g>
<!-- Node15&#45;&gt;Node3 -->
<g id="edge32_Node000015_Node000003" class="edge">
<title>Node15&#45;&gt;Node3</title>
<g id="a_edge32_Node000015_Node000003"><a xlink:title=" ">
<path fill="none" stroke="#63b8ff" d="M391.53,-63.06C335.86,-58.54 199.62,-45.86 77.07,-20.34"/>
<polygon fill="#63b8ff" stroke="#63b8ff" points="78,-16.96 67.49,-18.31 76.55,-23.81 78,-16.96"/>
</a>
</g>
</g>
<!-- Node15&#45;&gt;Node4 -->
<g id="edge30_Node000015_Node000004" class="edge">
<title>Node15&#45;&gt;Node4</title>
<g id="a_edge30_Node000015_Node000004"><a xlink:title=" ">
<path fill="none" stroke="#63b8ff" d="M442.52,-57.83C475.91,-48.39 534.77,-31.75 572.59,-21.06"/>
<polygon fill="#63b8ff" stroke="#63b8ff" points="573.47,-24.44 582.14,-18.36 571.57,-17.71 573.47,-24.44"/>
</a>
</g>
</g>
<!-- Node15&#45;&gt;Node5 -->
<g id="edge31_Node000015_Node000005" class="edge">
<title>Node15&#45;&gt;Node5</title>
<g id="a_edge31_Node000015_Node000005"><a xlink:title=" ">
<path fill="none" stroke="#63b8ff" d="M407.93,-55.59C400.56,-48.08 390.03,-37.35 381.14,-28.3"/>
<polygon fill="#63b8ff" stroke="#63b8ff" points="383.85,-26.06 374.35,-21.38 378.85,-30.97 383.85,-26.06"/>
</a>
</g>
</g>
</g>
</svg>
