<?xml version="1.0" encoding="UTF-8" standalone="no"?>
<!DOCTYPE svg PUBLIC "-//W3C//DTD SVG 1.1//EN"
 "http://www.w3.org/Graphics/SVG/1.1/DTD/svg11.dtd">
<!-- Generated by graphviz version 12.2.1 (20241206.2353)
 -->
<!-- Title: C:/Users/emilly/Documents/Lucca/Projetos/Cpp/NikiScript/src/Parser.cpp Pages: 1 -->
<svg width="715pt" height="332pt"
 viewBox="0.00 0.00 715.12 332.00" xmlns="http://www.w3.org/2000/svg" xmlns:xlink="http://www.w3.org/1999/xlink">
<g id="graph0" class="graph" transform="scale(1 1) rotate(0) translate(4 328)">
<title>C:/Users/emilly/Documents/Lucca/Projetos/Cpp/NikiScript/src/Parser.cpp</title>
<!-- Node1 -->
<g id="Node000001" class="node">
<title>Node1</title>
<g id="a_Node000001"><a xlink:title=" ">
<polygon fill="#999999" stroke="#666666" points="199.12,-324 48.12,-324 48.12,-280 199.12,-280 199.12,-324"/>
<text text-anchor="start" x="56.12" y="-310.5" font-family="Helvetica,sans-Serif" font-size="10.00">C:/Users/emilly/Documents</text>
<text text-anchor="start" x="56.12" y="-298.5" font-family="Helvetica,sans-Serif" font-size="10.00">/Lucca/Projetos/Cpp/NikiScript</text>
<text text-anchor="middle" x="123.62" y="-286.5" font-family="Helvetica,sans-Serif" font-size="10.00">/src/Parser.cpp</text>
</a>
</g>
</g>
<!-- Node2 -->
<g id="Node000002" class="node">
<title>Node2</title>
<g id="a_Node000002"><a xlink:href="_parser_8h.html" target="_top" xlink:title=" ">
<polygon fill="white" stroke="#666666" points="150,-244 97.25,-244 97.25,-224 150,-224 150,-244"/>
<text text-anchor="middle" x="123.62" y="-230.5" font-family="Helvetica,sans-Serif" font-size="10.00">Parser.h</text>
</a>
</g>
</g>
<!-- Node1&#45;&gt;Node2 -->
<g id="edge1_Node000001_Node000002" class="edge">
<title>Node1&#45;&gt;Node2</title>
<g id="a_edge1_Node000001_Node000002"><a xlink:title=" ">
<path fill="none" stroke="#63b8ff" d="M123.62,-279.75C123.62,-272.13 123.62,-263.53 123.62,-255.93"/>
<polygon fill="#63b8ff" stroke="#63b8ff" points="127.13,-255.93 123.63,-245.93 120.13,-255.93 127.13,-255.93"/>
</a>
</g>
</g>
<!-- Node11 -->
<g id="Node000011" class="node">
<title>Node11</title>
<g id="a_Node000011"><a xlink:href="_print_callback_8h.html" target="_top" xlink:title=" ">
<polygon fill="white" stroke="#666666" points="111,-132 28.25,-132 28.25,-112 111,-112 111,-132"/>
<text text-anchor="middle" x="69.62" y="-118.5" font-family="Helvetica,sans-Serif" font-size="10.00">PrintCallback.h</text>
</a>
</g>
</g>
<!-- Node1&#45;&gt;Node11 -->
<g id="edge36_Node000001_Node000011" class="edge">
<title>Node1&#45;&gt;Node11</title>
<g id="a_edge36_Node000001_Node000011"><a xlink:title=" ">
<path fill="none" stroke="#63b8ff" d="M107.67,-279.58C100.78,-269.3 93.24,-256.53 88.62,-244 76.22,-210.34 71.91,-168.51 70.42,-143.88"/>
<polygon fill="#63b8ff" stroke="#63b8ff" points="73.92,-143.75 69.93,-133.93 66.92,-144.09 73.92,-143.75"/>
</a>
</g>
</g>
<!-- Node13 -->
<g id="Node000013" class="node">
<title>Node13</title>
<g id="a_Node000013"><a xlink:title=" ">
<polygon fill="#e0e0e0" stroke="#999999" points="51.25,-20 0,-20 0,0 51.25,0 51.25,-20"/>
<text text-anchor="middle" x="25.62" y="-6.5" font-family="Helvetica,sans-Serif" font-size="10.00">sstream</text>
</a>
</g>
</g>
<!-- Node1&#45;&gt;Node13 -->
<g id="edge35_Node000001_Node000013" class="edge">
<title>Node1&#45;&gt;Node13</title>
<g id="a_edge35_Node000001_Node000013"><a xlink:title=" ">
<path fill="none" stroke="#63b8ff" d="M79.22,-279.59C43.99,-259.15 0.62,-224.72 0.62,-179 0.62,-179 0.62,-179 0.62,-121 0.62,-88.93 10.86,-52.87 18.23,-31.06"/>
<polygon fill="#63b8ff" stroke="#63b8ff" points="21.51,-32.28 21.54,-21.68 14.91,-29.95 21.51,-32.28"/>
</a>
</g>
</g>
<!-- Node17 -->
<g id="Node000017" class="node">
<title>Node17</title>
<g id="a_Node000017"><a xlink:title=" ">
<polygon fill="#e0e0e0" stroke="#999999" points="223.5,-244 167.75,-244 167.75,-224 223.5,-224 223.5,-244"/>
<text text-anchor="middle" x="195.62" y="-230.5" font-family="Helvetica,sans-Serif" font-size="10.00">algorithm</text>
</a>
</g>
</g>
<!-- Node1&#45;&gt;Node17 -->
<g id="edge33_Node000001_Node000017" class="edge">
<title>Node1&#45;&gt;Node17</title>
<g id="a_edge33_Node000001_Node000017"><a xlink:title=" ">
<path fill="none" stroke="#63b8ff" d="M146.8,-279.75C156.55,-270.82 167.73,-260.57 176.93,-252.13"/>
<polygon fill="#63b8ff" stroke="#63b8ff" points="179.23,-254.78 184.23,-245.44 174.5,-249.62 179.23,-254.78"/>
</a>
</g>
</g>
<!-- Node18 -->
<g id="Node000018" class="node">
<title>Node18</title>
<g id="a_Node000018"><a xlink:title=" ">
<polygon fill="#e0e0e0" stroke="#999999" points="290.12,-244 241.12,-244 241.12,-224 290.12,-224 290.12,-244"/>
<text text-anchor="middle" x="265.62" y="-230.5" font-family="Helvetica,sans-Serif" font-size="10.00">fstream</text>
</a>
</g>
</g>
<!-- Node1&#45;&gt;Node18 -->
<g id="edge34_Node000001_Node000018" class="edge">
<title>Node1&#45;&gt;Node18</title>
<g id="a_edge34_Node000001_Node000018"><a xlink:title=" ">
<path fill="none" stroke="#63b8ff" d="M169.73,-279.57C191.22,-269.58 216.2,-257.97 235.27,-249.11"/>
<polygon fill="#63b8ff" stroke="#63b8ff" points="236.51,-252.39 244.1,-245 233.56,-246.04 236.51,-252.39"/>
</a>
</g>
</g>
<!-- Node3 -->
<g id="Node000003" class="node">
<title>Node3</title>
<g id="a_Node000003"><a xlink:href="_context_8h.html" target="_top" xlink:title=" ">
<polygon fill="white" stroke="#666666" points="426,-188 367.25,-188 367.25,-168 426,-168 426,-188"/>
<text text-anchor="middle" x="396.62" y="-174.5" font-family="Helvetica,sans-Serif" font-size="10.00">Context.h</text>
</a>
</g>
</g>
<!-- Node2&#45;&gt;Node3 -->
<g id="edge2_Node000002_Node000003" class="edge">
<title>Node2&#45;&gt;Node3</title>
<g id="a_edge2_Node000002_Node000003"><a xlink:title=" ">
<path fill="none" stroke="#63b8ff" d="M150.34,-225.94C153.13,-225.26 155.93,-224.6 158.62,-224 227.45,-208.66 308.22,-194.11 355.76,-185.9"/>
<polygon fill="#63b8ff" stroke="#63b8ff" points="356.06,-189.4 365.32,-184.25 354.88,-182.5 356.06,-189.4"/>
</a>
</g>
</g>
<!-- Node4 -->
<g id="Node000004" class="node">
<title>Node4</title>
<g id="a_Node000004"><a xlink:title=" ">
<polygon fill="#e0e0e0" stroke="#999999" points="707.12,-20 664.12,-20 664.12,0 707.12,0 707.12,-20"/>
<text text-anchor="middle" x="685.62" y="-6.5" font-family="Helvetica,sans-Serif" font-size="10.00">vector</text>
</a>
</g>
</g>
<!-- Node3&#45;&gt;Node4 -->
<g id="edge3_Node000003_Node000004" class="edge">
<title>Node3&#45;&gt;Node4</title>
<g id="a_edge3_Node000003_Node000004"><a xlink:title=" ">
<path fill="none" stroke="#63b8ff" d="M426.46,-175.38C488.33,-171.48 628.02,-159.79 665.62,-132 694.57,-110.61 696.79,-91.86 693.62,-56 692.91,-47.9 691.49,-39.08 690.04,-31.41"/>
<polygon fill="#63b8ff" stroke="#63b8ff" points="693.49,-30.83 688.06,-21.73 686.63,-32.22 693.49,-30.83"/>
</a>
</g>
</g>
<!-- Node5 -->
<g id="Node000005" class="node">
<title>Node5</title>
<g id="a_Node000005"><a xlink:title=" ">
<polygon fill="#e0e0e0" stroke="#999999" points="162.75,-20 114.5,-20 114.5,0 162.75,0 162.75,-20"/>
<text text-anchor="middle" x="138.62" y="-6.5" font-family="Helvetica,sans-Serif" font-size="10.00">stdint.h</text>
</a>
</g>
</g>
<!-- Node3&#45;&gt;Node5 -->
<g id="edge4_Node000003_Node000005" class="edge">
<title>Node3&#45;&gt;Node5</title>
<g id="a_edge4_Node000003_Node000005"><a xlink:title=" ">
<path fill="none" stroke="#63b8ff" d="M366.76,-171.8C336.62,-165.61 289.53,-153.35 253.62,-132 208.76,-105.33 170.11,-56.3 151.13,-29.57"/>
<polygon fill="#63b8ff" stroke="#63b8ff" points="154.08,-27.68 145.5,-21.45 148.32,-31.67 154.08,-27.68"/>
</a>
</g>
</g>
<!-- Node6 -->
<g id="Node000006" class="node">
<title>Node6</title>
<g id="a_Node000006"><a xlink:title=" ">
<polygon fill="#e0e0e0" stroke="#999999" points="340.62,-20 300.62,-20 300.62,0 340.62,0 340.62,-20"/>
<text text-anchor="middle" x="320.62" y="-6.5" font-family="Helvetica,sans-Serif" font-size="10.00">string</text>
</a>
</g>
</g>
<!-- Node3&#45;&gt;Node6 -->
<g id="edge5_Node000003_Node000006" class="edge">
<title>Node3&#45;&gt;Node6</title>
<g id="a_edge5_Node000003_Node000006"><a xlink:title=" ">
<path fill="none" stroke="#63b8ff" d="M392.32,-167.6C380.25,-141.23 345.89,-66.19 329.52,-30.42"/>
<polygon fill="#63b8ff" stroke="#63b8ff" points="332.86,-29.31 325.51,-21.67 326.49,-32.22 332.86,-29.31"/>
</a>
</g>
</g>
<!-- Node7 -->
<g id="Node000007" class="node">
<title>Node7</title>
<g id="a_Node000007"><a xlink:title=" ">
<polygon fill="#e0e0e0" stroke="#999999" points="506,-20 423.25,-20 423.25,0 506,0 506,-20"/>
<text text-anchor="middle" x="464.62" y="-6.5" font-family="Helvetica,sans-Serif" font-size="10.00">unordered_map</text>
</a>
</g>
</g>
<!-- Node3&#45;&gt;Node7 -->
<g id="edge6_Node000003_Node000007" class="edge">
<title>Node3&#45;&gt;Node7</title>
<g id="a_edge6_Node000003_Node000007"><a xlink:title=" ">
<path fill="none" stroke="#63b8ff" d="M410.71,-167.56C432.91,-151.71 475.21,-117.4 491.62,-76 497.94,-60.07 489.23,-42.08 480.07,-29.08"/>
<polygon fill="#63b8ff" stroke="#63b8ff" points="483.02,-27.18 474.14,-21.42 477.49,-31.47 483.02,-27.18"/>
</a>
</g>
</g>
<!-- Node8 -->
<g id="Node000008" class="node">
<title>Node8</title>
<g id="a_Node000008"><a xlink:href="_command_8h.html" target="_top" xlink:title=" ">
<polygon fill="white" stroke="#666666" points="684.25,-76 615,-76 615,-56 684.25,-56 684.25,-76"/>
<text text-anchor="middle" x="649.62" y="-62.5" font-family="Helvetica,sans-Serif" font-size="10.00">Command.h</text>
</a>
</g>
</g>
<!-- Node3&#45;&gt;Node8 -->
<g id="edge7_Node000003_Node000008" class="edge">
<title>Node3&#45;&gt;Node8</title>
<g id="a_edge7_Node000003_Node000008"><a xlink:title=" ">
<path fill="none" stroke="#63b8ff" d="M426.39,-176.17C486.53,-173.82 619.2,-164.93 647.62,-132 658.01,-119.97 657.58,-101.52 655.09,-87.34"/>
<polygon fill="#63b8ff" stroke="#63b8ff" points="658.53,-86.72 652.92,-77.73 651.7,-88.26 658.53,-86.72"/>
</a>
</g>
</g>
<!-- Node10 -->
<g id="Node000010" class="node">
<title>Node10</title>
<g id="a_Node000010"><a xlink:href="_command_handler_8h.html" target="_top" xlink:title=" ">
<polygon fill="white" stroke="#666666" points="638.12,-132 535.12,-132 535.12,-112 638.12,-112 638.12,-132"/>
<text text-anchor="middle" x="586.62" y="-118.5" font-family="Helvetica,sans-Serif" font-size="10.00">CommandHandler.h</text>
</a>
</g>
</g>
<!-- Node3&#45;&gt;Node10 -->
<g id="edge11_Node000003_Node000010" class="edge">
<title>Node3&#45;&gt;Node10</title>
<g id="a_edge11_Node000003_Node000010"><a xlink:title=" ">
<path fill="none" stroke="#63b8ff" d="M426.31,-168.56C457.53,-159.69 506.97,-145.64 542.7,-135.48"/>
<polygon fill="#63b8ff" stroke="#63b8ff" points="543.19,-138.98 551.86,-132.88 541.28,-132.25 543.19,-138.98"/>
</a>
</g>
</g>
<!-- Node3&#45;&gt;Node11 -->
<g id="edge15_Node000003_Node000011" class="edge">
<title>Node3&#45;&gt;Node11</title>
<g id="a_edge15_Node000003_Node000011"><a xlink:title=" ">
<path fill="none" stroke="#63b8ff" d="M367.03,-172.11C311.7,-162.98 191.93,-143.2 122.44,-131.72"/>
<polygon fill="#63b8ff" stroke="#63b8ff" points="123.26,-128.31 112.82,-130.13 122.12,-135.22 123.26,-128.31"/>
</a>
</g>
</g>
<!-- Node14 -->
<g id="Node000014" class="node">
<title>Node14</title>
<g id="a_Node000014"><a xlink:href="_program_variable_8h.html" target="_top" xlink:title=" ">
<polygon fill="white" stroke="#666666" points="482.38,-76 386.88,-76 386.88,-56 482.38,-56 482.38,-76"/>
<text text-anchor="middle" x="434.62" y="-62.5" font-family="Helvetica,sans-Serif" font-size="10.00">ProgramVariable.h</text>
</a>
</g>
</g>
<!-- Node3&#45;&gt;Node14 -->
<g id="edge22_Node000003_Node000014" class="edge">
<title>Node3&#45;&gt;Node14</title>
<g id="a_edge22_Node000003_Node000014"><a xlink:title=" ">
<path fill="none" stroke="#63b8ff" d="M399.86,-167.62C406.01,-149.84 419.47,-110.88 427.72,-87"/>
<polygon fill="#63b8ff" stroke="#63b8ff" points="430.94,-88.38 430.9,-77.79 424.33,-86.09 430.94,-88.38"/>
</a>
</g>
</g>
<!-- Node15 -->
<g id="Node000015" class="node">
<title>Node15</title>
<g id="a_Node000015"><a xlink:href="_lexer_8h.html" target="_top" xlink:title=" ">
<polygon fill="white" stroke="#666666" points="310.75,-132 262.5,-132 262.5,-112 310.75,-112 310.75,-132"/>
<text text-anchor="middle" x="286.62" y="-118.5" font-family="Helvetica,sans-Serif" font-size="10.00">Lexer.h</text>
</a>
</g>
</g>
<!-- Node3&#45;&gt;Node15 -->
<g id="edge26_Node000003_Node000015" class="edge">
<title>Node3&#45;&gt;Node15</title>
<g id="a_edge26_Node000003_Node000015"><a xlink:title=" ">
<path fill="none" stroke="#63b8ff" d="M377.46,-167.59C360.53,-159.28 335.58,-147.03 316.1,-137.47"/>
<polygon fill="#63b8ff" stroke="#63b8ff" points="317.81,-134.41 307.29,-133.15 314.73,-140.7 317.81,-134.41"/>
</a>
</g>
</g>
<!-- Node8&#45;&gt;Node4 -->
<g id="edge8_Node000008_Node000004" class="edge">
<title>Node8&#45;&gt;Node4</title>
<g id="a_edge8_Node000008_Node000004"><a xlink:title=" ">
<path fill="none" stroke="#63b8ff" d="M655.9,-55.59C660.64,-48.47 667.32,-38.45 673.15,-29.72"/>
<polygon fill="#63b8ff" stroke="#63b8ff" points="675.95,-31.82 678.59,-21.56 670.13,-27.94 675.95,-31.82"/>
</a>
</g>
</g>
<!-- Node8&#45;&gt;Node6 -->
<g id="edge10_Node000008_Node000006" class="edge">
<title>Node8&#45;&gt;Node6</title>
<g id="a_edge10_Node000008_Node000006"><a xlink:title=" ">
<path fill="none" stroke="#63b8ff" d="M614.73,-59.27C550.39,-48.71 414.01,-26.33 352.22,-16.19"/>
<polygon fill="#63b8ff" stroke="#63b8ff" points="352.83,-12.74 342.4,-14.57 351.7,-19.65 352.83,-12.74"/>
</a>
</g>
</g>
<!-- Node9 -->
<g id="Node000009" class="node">
<title>Node9</title>
<g id="a_Node000009"><a xlink:title=" ">
<polygon fill="#e0e0e0" stroke="#999999" points="619.38,-20 553.88,-20 553.88,0 619.38,0 619.38,-20"/>
<text text-anchor="middle" x="586.62" y="-6.5" font-family="Helvetica,sans-Serif" font-size="10.00">string_view</text>
</a>
</g>
</g>
<!-- Node8&#45;&gt;Node9 -->
<g id="edge9_Node000008_Node000009" class="edge">
<title>Node8&#45;&gt;Node9</title>
<g id="a_edge9_Node000008_Node000009"><a xlink:title=" ">
<path fill="none" stroke="#63b8ff" d="M638.65,-55.59C629.71,-47.93 616.85,-36.91 606.16,-27.75"/>
<polygon fill="#63b8ff" stroke="#63b8ff" points="608.49,-25.13 598.62,-21.28 603.94,-30.45 608.49,-25.13"/>
</a>
</g>
</g>
<!-- Node10&#45;&gt;Node7 -->
<g id="edge12_Node000010_Node000007" class="edge">
<title>Node10&#45;&gt;Node7</title>
<g id="a_edge12_Node000010_Node000007"><a xlink:title=" ">
<path fill="none" stroke="#63b8ff" d="M578.65,-111.71C567.25,-98.66 545.38,-74.43 524.62,-56 513.03,-45.7 499.24,-35.24 487.8,-27.01"/>
<polygon fill="#63b8ff" stroke="#63b8ff" points="489.89,-24.2 479.7,-21.27 485.84,-29.91 489.89,-24.2"/>
</a>
</g>
</g>
<!-- Node10&#45;&gt;Node8 -->
<g id="edge14_Node000010_Node000008" class="edge">
<title>Node10&#45;&gt;Node8</title>
<g id="a_edge14_Node000010_Node000008"><a xlink:title=" ">
<path fill="none" stroke="#63b8ff" d="M597.6,-111.59C606.54,-103.93 619.4,-92.91 630.09,-83.75"/>
<polygon fill="#63b8ff" stroke="#63b8ff" points="632.31,-86.45 637.63,-77.28 627.76,-81.13 632.31,-86.45"/>
</a>
</g>
</g>
<!-- Node10&#45;&gt;Node9 -->
<g id="edge13_Node000010_Node000009" class="edge">
<title>Node10&#45;&gt;Node9</title>
<g id="a_edge13_Node000010_Node000009"><a xlink:title=" ">
<path fill="none" stroke="#63b8ff" d="M586.62,-111.62C586.62,-94.01 586.62,-55.59 586.62,-31.65"/>
<polygon fill="#63b8ff" stroke="#63b8ff" points="590.13,-31.87 586.63,-21.87 583.13,-31.87 590.13,-31.87"/>
</a>
</g>
</g>
<!-- Node11&#45;&gt;Node5 -->
<g id="edge16_Node000011_Node000005" class="edge">
<title>Node11&#45;&gt;Node5</title>
<g id="a_edge16_Node000011_Node000005"><a xlink:title=" ">
<path fill="none" stroke="#63b8ff" d="M75.51,-111.62C86.81,-93.6 111.77,-53.81 126.69,-30.02"/>
<polygon fill="#63b8ff" stroke="#63b8ff" points="129.6,-31.97 131.95,-21.64 123.67,-28.25 129.6,-31.97"/>
</a>
</g>
</g>
<!-- Node11&#45;&gt;Node6 -->
<g id="edge17_Node000011_Node000006" class="edge">
<title>Node11&#45;&gt;Node6</title>
<g id="a_edge17_Node000011_Node000006"><a xlink:title=" ">
<path fill="none" stroke="#63b8ff" d="M91.03,-111.62C135.54,-92.11 238.23,-47.11 289.84,-24.49"/>
<polygon fill="#63b8ff" stroke="#63b8ff" points="291.19,-27.72 298.95,-20.5 288.38,-21.31 291.19,-27.72"/>
</a>
</g>
</g>
<!-- Node12 -->
<g id="Node000012" class="node">
<title>Node12</title>
<g id="a_Node000012"><a xlink:href="_utils_8h.html" target="_top" xlink:title=" ">
<polygon fill="white" stroke="#666666" points="72.88,-76 28.38,-76 28.38,-56 72.88,-56 72.88,-76"/>
<text text-anchor="middle" x="50.62" y="-62.5" font-family="Helvetica,sans-Serif" font-size="10.00">Utils.h</text>
</a>
</g>
</g>
<!-- Node11&#45;&gt;Node12 -->
<g id="edge18_Node000011_Node000012" class="edge">
<title>Node11&#45;&gt;Node12</title>
<g id="a_edge18_Node000011_Node000012"><a xlink:title=" ">
<path fill="none" stroke="#63b8ff" d="M66.32,-111.59C63.95,-104.86 60.66,-95.53 57.72,-87.15"/>
<polygon fill="#63b8ff" stroke="#63b8ff" points="61.02,-86 54.4,-77.73 54.42,-88.32 61.02,-86"/>
</a>
</g>
</g>
<!-- Node12&#45;&gt;Node5 -->
<g id="edge19_Node000012_Node000005" class="edge">
<title>Node12&#45;&gt;Node5</title>
<g id="a_edge19_Node000012_Node000005"><a xlink:title=" ">
<path fill="none" stroke="#63b8ff" d="M65.95,-55.59C79.12,-47.51 98.36,-35.71 113.73,-26.27"/>
<polygon fill="#63b8ff" stroke="#63b8ff" points="115.19,-29.48 121.89,-21.27 111.53,-23.52 115.19,-29.48"/>
</a>
</g>
</g>
<!-- Node12&#45;&gt;Node6 -->
<g id="edge20_Node000012_Node000006" class="edge">
<title>Node12&#45;&gt;Node6</title>
<g id="a_edge20_Node000012_Node000006"><a xlink:title=" ">
<path fill="none" stroke="#63b8ff" d="M73.18,-60.49C121.24,-50.88 233.83,-28.36 289.01,-17.32"/>
<polygon fill="#63b8ff" stroke="#63b8ff" points="289.58,-20.78 298.7,-15.39 288.21,-13.91 289.58,-20.78"/>
</a>
</g>
</g>
<!-- Node12&#45;&gt;Node13 -->
<g id="edge21_Node000012_Node000013" class="edge">
<title>Node12&#45;&gt;Node13</title>
<g id="a_edge21_Node000012_Node000013"><a xlink:title=" ">
<path fill="none" stroke="#63b8ff" d="M46.27,-55.59C43.08,-48.7 38.64,-39.1 34.69,-30.57"/>
<polygon fill="#63b8ff" stroke="#63b8ff" points="37.94,-29.28 30.57,-21.67 31.59,-32.22 37.94,-29.28"/>
</a>
</g>
</g>
<!-- Node14&#45;&gt;Node6 -->
<g id="edge23_Node000014_Node000006" class="edge">
<title>Node14&#45;&gt;Node6</title>
<g id="a_edge23_Node000014_Node000006"><a xlink:title=" ">
<path fill="none" stroke="#63b8ff" d="M414.77,-55.59C397.14,-47.24 371.12,-34.92 350.9,-25.34"/>
<polygon fill="#63b8ff" stroke="#63b8ff" points="352.54,-22.25 342.01,-21.13 349.54,-28.57 352.54,-22.25"/>
</a>
</g>
</g>
<!-- Node14&#45;&gt;Node7 -->
<g id="edge25_Node000014_Node000007" class="edge">
<title>Node14&#45;&gt;Node7</title>
<g id="a_edge25_Node000014_Node000007"><a xlink:title=" ">
<path fill="none" stroke="#63b8ff" d="M439.85,-55.59C443.72,-48.63 449.13,-38.89 453.91,-30.29"/>
<polygon fill="#63b8ff" stroke="#63b8ff" points="456.93,-32.06 458.72,-21.62 450.81,-28.66 456.93,-32.06"/>
</a>
</g>
</g>
<!-- Node14&#45;&gt;Node9 -->
<g id="edge24_Node000014_Node000009" class="edge">
<title>Node14&#45;&gt;Node9</title>
<g id="a_edge24_Node000014_Node000009"><a xlink:title=" ">
<path fill="none" stroke="#63b8ff" d="M461.1,-55.59C485.47,-46.94 521.88,-34 549.21,-24.29"/>
<polygon fill="#63b8ff" stroke="#63b8ff" points="550.26,-27.63 558.52,-20.99 547.92,-21.04 550.26,-27.63"/>
</a>
</g>
</g>
<!-- Node15&#45;&gt;Node5 -->
<g id="edge27_Node000015_Node000005" class="edge">
<title>Node15&#45;&gt;Node5</title>
<g id="a_edge27_Node000015_Node000005"><a xlink:title=" ">
<path fill="none" stroke="#63b8ff" d="M274.01,-111.62C248.78,-92.87 191.84,-50.55 160.44,-27.21"/>
<polygon fill="#63b8ff" stroke="#63b8ff" points="162.54,-24.41 152.43,-21.26 158.36,-30.03 162.54,-24.41"/>
</a>
</g>
</g>
<!-- Node15&#45;&gt;Node6 -->
<g id="edge28_Node000015_Node000006" class="edge">
<title>Node15&#45;&gt;Node6</title>
<g id="a_edge28_Node000015_Node000006"><a xlink:title=" ">
<path fill="none" stroke="#63b8ff" d="M289.83,-111.72C292.94,-102.65 297.74,-88.42 301.62,-76 306.3,-61.03 311.27,-44.02 314.94,-31.15"/>
<polygon fill="#63b8ff" stroke="#63b8ff" points="318.25,-32.32 317.61,-21.75 311.52,-30.41 318.25,-32.32"/>
</a>
</g>
</g>
<!-- Node16 -->
<g id="Node000016" class="node">
<title>Node16</title>
<g id="a_Node000016"><a xlink:href="_token_8h.html" target="_top" xlink:title=" ">
<polygon fill="white" stroke="#666666" points="292.88,-76 242.38,-76 242.38,-56 292.88,-56 292.88,-76"/>
<text text-anchor="middle" x="267.62" y="-62.5" font-family="Helvetica,sans-Serif" font-size="10.00">Token.h</text>
</a>
</g>
</g>
<!-- Node15&#45;&gt;Node16 -->
<g id="edge29_Node000015_Node000016" class="edge">
<title>Node15&#45;&gt;Node16</title>
<g id="a_edge29_Node000015_Node000016"><a xlink:title=" ">
<path fill="none" stroke="#63b8ff" d="M283.32,-111.59C280.95,-104.86 277.66,-95.53 274.72,-87.15"/>
<polygon fill="#63b8ff" stroke="#63b8ff" points="278.02,-86 271.4,-77.73 271.42,-88.32 278.02,-86"/>
</a>
</g>
</g>
<!-- Node16&#45;&gt;Node5 -->
<g id="edge30_Node000016_Node000005" class="edge">
<title>Node16&#45;&gt;Node5</title>
<g id="a_edge30_Node000016_Node000005"><a xlink:title=" ">
<path fill="none" stroke="#63b8ff" d="M245.15,-55.59C224.84,-47.09 194.67,-34.46 171.62,-24.81"/>
<polygon fill="#63b8ff" stroke="#63b8ff" points="173.24,-21.7 162.67,-21.06 170.54,-28.15 173.24,-21.7"/>
</a>
</g>
</g>
<!-- Node16&#45;&gt;Node6 -->
<g id="edge31_Node000016_Node000006" class="edge">
<title>Node16&#45;&gt;Node6</title>
<g id="a_edge31_Node000016_Node000006"><a xlink:title=" ">
<path fill="none" stroke="#63b8ff" d="M276.86,-55.59C284.23,-48.08 294.76,-37.35 303.64,-28.3"/>
<polygon fill="#63b8ff" stroke="#63b8ff" points="305.93,-30.97 310.44,-21.38 300.94,-26.06 305.93,-30.97"/>
</a>
</g>
</g>
<!-- Node16&#45;&gt;Node7 -->
<g id="edge32_Node000016_Node000007" class="edge">
<title>Node16&#45;&gt;Node7</title>
<g id="a_edge32_Node000016_Node000007"><a xlink:title=" ">
<path fill="none" stroke="#63b8ff" d="M292.98,-58.05C324.76,-49.34 379.81,-34.25 419,-23.51"/>
<polygon fill="#63b8ff" stroke="#63b8ff" points="419.92,-26.88 428.64,-20.86 418.07,-20.13 419.92,-26.88"/>
</a>
</g>
</g>
</g>
</svg>
