<?xml version="1.0" encoding="UTF-8" standalone="no"?>
<!DOCTYPE svg PUBLIC "-//W3C//DTD SVG 1.1//EN"
 "http://www.w3.org/Graphics/SVG/1.1/DTD/svg11.dtd">
<!-- Generated by graphviz version 12.2.1 (20241206.2353)
 -->
<!-- Title: C:/Users/emilly/Documents/Lucca/Projetos/Cpp/NikiScript/src/Parser.cpp Pages: 1 -->
<svg width="812pt" height="332pt"
 viewBox="0.00 0.00 811.57 332.00" xmlns="http://www.w3.org/2000/svg" xmlns:xlink="http://www.w3.org/1999/xlink">
<g id="graph0" class="graph" transform="scale(1 1) rotate(0) translate(4 328)">
<title>C:/Users/emilly/Documents/Lucca/Projetos/Cpp/NikiScript/src/Parser.cpp</title>
<!-- Node1 -->
<g id="Node000001" class="node">
<title>Node1</title>
<g id="a_Node000001"><a xlink:title=" ">
<polygon fill="#999999" stroke="#666666" points="728.57,-324 577.57,-324 577.57,-280 728.57,-280 728.57,-324"/>
<text text-anchor="start" x="585.57" y="-310.5" font-family="Helvetica,sans-Serif" font-size="10.00">C:/Users/emilly/Documents</text>
<text text-anchor="start" x="585.57" y="-298.5" font-family="Helvetica,sans-Serif" font-size="10.00">/Lucca/Projetos/Cpp/NikiScript</text>
<text text-anchor="middle" x="653.07" y="-286.5" font-family="Helvetica,sans-Serif" font-size="10.00">/src/Parser.cpp</text>
</a>
</g>
</g>
<!-- Node2 -->
<g id="Node000002" class="node">
<title>Node2</title>
<g id="a_Node000002"><a xlink:href="_parser_8h.html" target="_top" xlink:title=" ">
<polygon fill="white" stroke="#666666" points="435.45,-244 382.7,-244 382.7,-224 435.45,-224 435.45,-244"/>
<text text-anchor="middle" x="409.07" y="-230.5" font-family="Helvetica,sans-Serif" font-size="10.00">Parser.h</text>
</a>
</g>
</g>
<!-- Node1&#45;&gt;Node2 -->
<g id="edge1_Node000001_Node000002" class="edge">
<title>Node1&#45;&gt;Node2</title>
<g id="a_edge1_Node000001_Node000002"><a xlink:title=" ">
<path fill="none" stroke="#63b8ff" d="M577.21,-280.48C533.84,-268.75 481.36,-254.55 446.7,-245.18"/>
<polygon fill="#63b8ff" stroke="#63b8ff" points="447.69,-241.82 437.12,-242.59 445.86,-248.58 447.69,-241.82"/>
</a>
</g>
</g>
<!-- Node10 -->
<g id="Node000010" class="node">
<title>Node10</title>
<g id="a_Node000010"><a xlink:href="_print_callback_8h.html" target="_top" xlink:title=" ">
<polygon fill="white" stroke="#666666" points="587.45,-132 504.7,-132 504.7,-112 587.45,-112 587.45,-132"/>
<text text-anchor="middle" x="546.07" y="-118.5" font-family="Helvetica,sans-Serif" font-size="10.00">PrintCallback.h</text>
</a>
</g>
</g>
<!-- Node1&#45;&gt;Node10 -->
<g id="edge36_Node000001_Node000010" class="edge">
<title>Node1&#45;&gt;Node10</title>
<g id="a_edge36_Node000001_Node000010"><a xlink:title=" ">
<path fill="none" stroke="#63b8ff" d="M640.16,-279.53C619,-244.32 577.27,-174.9 557.27,-141.63"/>
<polygon fill="#63b8ff" stroke="#63b8ff" points="560.53,-140.26 552.38,-133.49 554.53,-143.86 560.53,-140.26"/>
</a>
</g>
</g>
<!-- Node12 -->
<g id="Node000012" class="node">
<title>Node12</title>
<g id="a_Node000012"><a xlink:title=" ">
<polygon fill="#e0e0e0" stroke="#999999" points="640.7,-20 589.45,-20 589.45,0 640.7,0 640.7,-20"/>
<text text-anchor="middle" x="615.07" y="-6.5" font-family="Helvetica,sans-Serif" font-size="10.00">sstream</text>
</a>
</g>
</g>
<!-- Node1&#45;&gt;Node12 -->
<g id="edge35_Node000001_Node000012" class="edge">
<title>Node1&#45;&gt;Node12</title>
<g id="a_edge35_Node000001_Node000012"><a xlink:title=" ">
<path fill="none" stroke="#63b8ff" d="M653.07,-279.84C653.07,-255.51 653.07,-214.37 653.07,-179 653.07,-179 653.07,-179 653.07,-121 653.07,-87.77 637.39,-51.85 626.18,-30.4"/>
<polygon fill="#63b8ff" stroke="#63b8ff" points="629.27,-28.76 621.4,-21.66 623.13,-32.12 629.27,-28.76"/>
</a>
</g>
</g>
<!-- Node16 -->
<g id="Node000016" class="node">
<title>Node16</title>
<g id="a_Node000016"><a xlink:title=" ">
<polygon fill="#e0e0e0" stroke="#999999" points="736.95,-244 681.2,-244 681.2,-224 736.95,-224 736.95,-244"/>
<text text-anchor="middle" x="709.07" y="-230.5" font-family="Helvetica,sans-Serif" font-size="10.00">algorithm</text>
</a>
</g>
</g>
<!-- Node1&#45;&gt;Node16 -->
<g id="edge33_Node000001_Node000016" class="edge">
<title>Node1&#45;&gt;Node16</title>
<g id="a_edge33_Node000001_Node000016"><a xlink:title=" ">
<path fill="none" stroke="#63b8ff" d="M671.1,-279.75C678.36,-271.2 686.65,-261.42 693.63,-253.2"/>
<polygon fill="#63b8ff" stroke="#63b8ff" points="696.3,-255.46 700.1,-245.57 690.96,-250.93 696.3,-255.46"/>
</a>
</g>
</g>
<!-- Node17 -->
<g id="Node000017" class="node">
<title>Node17</title>
<g id="a_Node000017"><a xlink:title=" ">
<polygon fill="#e0e0e0" stroke="#999999" points="803.57,-244 754.57,-244 754.57,-224 803.57,-224 803.57,-244"/>
<text text-anchor="middle" x="779.07" y="-230.5" font-family="Helvetica,sans-Serif" font-size="10.00">fstream</text>
</a>
</g>
</g>
<!-- Node1&#45;&gt;Node17 -->
<g id="edge34_Node000001_Node000017" class="edge">
<title>Node1&#45;&gt;Node17</title>
<g id="a_edge34_Node000001_Node000017"><a xlink:title=" ">
<path fill="none" stroke="#63b8ff" d="M693.98,-279.57C712.78,-269.72 734.59,-258.3 751.43,-249.48"/>
<polygon fill="#63b8ff" stroke="#63b8ff" points="752.62,-252.81 759.85,-245.07 749.37,-246.61 752.62,-252.81"/>
</a>
</g>
</g>
<!-- Node3 -->
<g id="Node000003" class="node">
<title>Node3</title>
<g id="a_Node000003"><a xlink:href="_context_8h.html" target="_top" xlink:title=" ">
<polygon fill="white" stroke="#666666" points="313.45,-188 254.7,-188 254.7,-168 313.45,-168 313.45,-188"/>
<text text-anchor="middle" x="284.07" y="-174.5" font-family="Helvetica,sans-Serif" font-size="10.00">Context.h</text>
</a>
</g>
</g>
<!-- Node2&#45;&gt;Node3 -->
<g id="edge2_Node000002_Node000003" class="edge">
<title>Node2&#45;&gt;Node3</title>
<g id="a_edge2_Node000002_Node000003"><a xlink:title=" ">
<path fill="none" stroke="#63b8ff" d="M387.3,-223.59C367.7,-215.13 338.64,-202.58 316.35,-192.94"/>
<polygon fill="#63b8ff" stroke="#63b8ff" points="317.97,-189.83 307.4,-189.08 315.2,-196.26 317.97,-189.83"/>
</a>
</g>
</g>
<!-- Node4 -->
<g id="Node000004" class="node">
<title>Node4</title>
<g id="a_Node000004"><a xlink:title=" ">
<polygon fill="#e0e0e0" stroke="#999999" points="67.57,-20 24.57,-20 24.57,0 67.57,0 67.57,-20"/>
<text text-anchor="middle" x="46.07" y="-6.5" font-family="Helvetica,sans-Serif" font-size="10.00">vector</text>
</a>
</g>
</g>
<!-- Node3&#45;&gt;Node4 -->
<g id="edge3_Node000003_Node000004" class="edge">
<title>Node3&#45;&gt;Node4</title>
<g id="a_edge3_Node000003_Node000004"><a xlink:title=" ">
<path fill="none" stroke="#63b8ff" d="M254.3,-174.84C196.05,-170.12 69.71,-157.2 35.07,-132 5.7,-110.64 -8.04,-89.86 5.07,-56 9.17,-45.4 17.07,-35.77 24.84,-28.16"/>
<polygon fill="#63b8ff" stroke="#63b8ff" points="27.14,-30.79 32.23,-21.49 22.46,-25.59 27.14,-30.79"/>
</a>
</g>
</g>
<!-- Node5 -->
<g id="Node000005" class="node">
<title>Node5</title>
<g id="a_Node000005"><a xlink:title=" ">
<polygon fill="#e0e0e0" stroke="#999999" points="394.2,-20 345.95,-20 345.95,0 394.2,0 394.2,-20"/>
<text text-anchor="middle" x="370.07" y="-6.5" font-family="Helvetica,sans-Serif" font-size="10.00">stdint.h</text>
</a>
</g>
</g>
<!-- Node3&#45;&gt;Node5 -->
<g id="edge4_Node000003_Node000005" class="edge">
<title>Node3&#45;&gt;Node5</title>
<g id="a_edge4_Node000003_Node000005"><a xlink:title=" ">
<path fill="none" stroke="#63b8ff" d="M313.82,-173.66C358.74,-167.94 440.54,-154.64 458.07,-132 486.92,-94.74 430.67,-49.51 395.46,-26.33"/>
<polygon fill="#63b8ff" stroke="#63b8ff" points="397.76,-23.65 387.45,-21.22 393.99,-29.55 397.76,-23.65"/>
</a>
</g>
</g>
<!-- Node6 -->
<g id="Node000006" class="node">
<title>Node6</title>
<g id="a_Node000006"><a xlink:title=" ">
<polygon fill="#e0e0e0" stroke="#999999" points="201.07,-20 161.07,-20 161.07,0 201.07,0 201.07,-20"/>
<text text-anchor="middle" x="181.07" y="-6.5" font-family="Helvetica,sans-Serif" font-size="10.00">string</text>
</a>
</g>
</g>
<!-- Node3&#45;&gt;Node6 -->
<g id="edge5_Node000003_Node000006" class="edge">
<title>Node3&#45;&gt;Node6</title>
<g id="a_edge5_Node000003_Node000006"><a xlink:title=" ">
<path fill="none" stroke="#63b8ff" d="M254.57,-177.91C192.62,-177.94 51.44,-167.64 12.07,-76 8.56,-67.83 6.65,-63.05 12.07,-56 28.72,-34.33 105.51,-20.89 149.63,-14.81"/>
<polygon fill="#63b8ff" stroke="#63b8ff" points="149.92,-18.31 159.37,-13.53 149,-11.37 149.92,-18.31"/>
</a>
</g>
</g>
<!-- Node7 -->
<g id="Node000007" class="node">
<title>Node7</title>
<g id="a_Node000007"><a xlink:title=" ">
<polygon fill="#e0e0e0" stroke="#999999" points="373.45,-76 290.7,-76 290.7,-56 373.45,-56 373.45,-76"/>
<text text-anchor="middle" x="332.07" y="-62.5" font-family="Helvetica,sans-Serif" font-size="10.00">unordered_map</text>
</a>
</g>
</g>
<!-- Node3&#45;&gt;Node7 -->
<g id="edge6_Node000003_Node000007" class="edge">
<title>Node3&#45;&gt;Node7</title>
<g id="a_edge6_Node000003_Node000007"><a xlink:title=" ">
<path fill="none" stroke="#63b8ff" d="M288.24,-167.71C292.31,-158.62 298.66,-144.38 304.07,-132 310.71,-116.83 318.12,-99.62 323.64,-86.72"/>
<polygon fill="#63b8ff" stroke="#63b8ff" points="326.8,-88.23 327.52,-77.66 320.37,-85.48 326.8,-88.23"/>
</a>
</g>
</g>
<!-- Node8 -->
<g id="Node000008" class="node">
<title>Node8</title>
<g id="a_Node000008"><a xlink:href="_command_8h.html" target="_top" xlink:title=" ">
<polygon fill="white" stroke="#666666" points="196.7,-76 127.45,-76 127.45,-56 196.7,-56 196.7,-76"/>
<text text-anchor="middle" x="162.07" y="-62.5" font-family="Helvetica,sans-Serif" font-size="10.00">Command.h</text>
</a>
</g>
</g>
<!-- Node3&#45;&gt;Node8 -->
<g id="edge7_Node000003_Node000008" class="edge">
<title>Node3&#45;&gt;Node8</title>
<g id="a_edge7_Node000003_Node000008"><a xlink:title=" ">
<path fill="none" stroke="#63b8ff" d="M254.53,-170.76C232.02,-164.55 201.8,-152.85 183.07,-132 171.91,-119.58 166.68,-101.17 164.22,-87.11"/>
<polygon fill="#63b8ff" stroke="#63b8ff" points="167.75,-87.05 162.91,-77.63 160.81,-88.01 167.75,-87.05"/>
</a>
</g>
</g>
<!-- Node9 -->
<g id="Node000009" class="node">
<title>Node9</title>
<g id="a_Node000009"><a xlink:href="_command_handler_8h.html" target="_top" xlink:title=" ">
<polygon fill="white" stroke="#666666" points="294.57,-132 191.57,-132 191.57,-112 294.57,-112 294.57,-132"/>
<text text-anchor="middle" x="243.07" y="-118.5" font-family="Helvetica,sans-Serif" font-size="10.00">CommandHandler.h</text>
</a>
</g>
</g>
<!-- Node3&#45;&gt;Node9 -->
<g id="edge11_Node000003_Node000009" class="edge">
<title>Node3&#45;&gt;Node9</title>
<g id="a_edge11_Node000003_Node000009"><a xlink:title=" ">
<path fill="none" stroke="#63b8ff" d="M276.93,-167.59C271.46,-160.39 263.75,-150.23 257.06,-141.43"/>
<polygon fill="#63b8ff" stroke="#63b8ff" points="259.88,-139.35 251.05,-133.5 254.31,-143.58 259.88,-139.35"/>
</a>
</g>
</g>
<!-- Node3&#45;&gt;Node10 -->
<g id="edge15_Node000003_Node000010" class="edge">
<title>Node3&#45;&gt;Node10</title>
<g id="a_edge15_Node000003_Node000010"><a xlink:title=" ">
<path fill="none" stroke="#63b8ff" d="M313.87,-170.86C357.45,-161.88 439.22,-145.02 493.16,-133.9"/>
<polygon fill="#63b8ff" stroke="#63b8ff" points="493.66,-137.38 502.75,-131.93 492.24,-130.52 493.66,-137.38"/>
</a>
</g>
</g>
<!-- Node13 -->
<g id="Node000013" class="node">
<title>Node13</title>
<g id="a_Node000013"><a xlink:href="_program_variable_8h.html" target="_top" xlink:title=" ">
<polygon fill="white" stroke="#666666" points="448.82,-132 353.32,-132 353.32,-112 448.82,-112 448.82,-132"/>
<text text-anchor="middle" x="401.07" y="-118.5" font-family="Helvetica,sans-Serif" font-size="10.00">ProgramVariable.h</text>
</a>
</g>
</g>
<!-- Node3&#45;&gt;Node13 -->
<g id="edge22_Node000003_Node000013" class="edge">
<title>Node3&#45;&gt;Node13</title>
<g id="a_edge22_Node000003_Node000013"><a xlink:title=" ">
<path fill="none" stroke="#63b8ff" d="M304.45,-167.59C322.63,-159.21 349.5,-146.8 370.29,-137.21"/>
<polygon fill="#63b8ff" stroke="#63b8ff" points="371.54,-140.48 379.16,-133.11 368.61,-134.13 371.54,-140.48"/>
</a>
</g>
</g>
<!-- Node14 -->
<g id="Node000014" class="node">
<title>Node14</title>
<g id="a_Node000014"><a xlink:href="_lexer_8h.html" target="_top" xlink:title=" ">
<polygon fill="white" stroke="#666666" points="128.2,-132 79.95,-132 79.95,-112 128.2,-112 128.2,-132"/>
<text text-anchor="middle" x="104.07" y="-118.5" font-family="Helvetica,sans-Serif" font-size="10.00">Lexer.h</text>
</a>
</g>
</g>
<!-- Node3&#45;&gt;Node14 -->
<g id="edge26_Node000003_Node000014" class="edge">
<title>Node3&#45;&gt;Node14</title>
<g id="a_edge26_Node000003_Node000014"><a xlink:title=" ">
<path fill="none" stroke="#63b8ff" d="M254.35,-168.08C222.77,-158.61 172.87,-143.64 139.33,-133.58"/>
<polygon fill="#63b8ff" stroke="#63b8ff" points="140.66,-130.32 130.08,-130.8 138.65,-137.03 140.66,-130.32"/>
</a>
</g>
</g>
<!-- Node8&#45;&gt;Node4 -->
<g id="edge8_Node000008_Node000004" class="edge">
<title>Node8&#45;&gt;Node4</title>
<g id="a_edge8_Node000008_Node000004"><a xlink:title=" ">
<path fill="none" stroke="#63b8ff" d="M141.87,-55.59C123.85,-47.21 97.2,-34.8 76.59,-25.21"/>
<polygon fill="#63b8ff" stroke="#63b8ff" points="78.35,-22.17 67.81,-21.12 75.4,-28.51 78.35,-22.17"/>
</a>
</g>
</g>
<!-- Node8&#45;&gt;Node5 -->
<g id="edge10_Node000008_Node000005" class="edge">
<title>Node8&#45;&gt;Node5</title>
<g id="a_edge10_Node000008_Node000005"><a xlink:title=" ">
<path fill="none" stroke="#63b8ff" d="M196.89,-55.96C235.2,-46.01 296.44,-30.12 334.9,-20.13"/>
<polygon fill="#63b8ff" stroke="#63b8ff" points="335.31,-23.64 344.11,-17.74 333.55,-16.86 335.31,-23.64"/>
</a>
</g>
</g>
<!-- Node8&#45;&gt;Node6 -->
<g id="edge9_Node000008_Node000006" class="edge">
<title>Node8&#45;&gt;Node6</title>
<g id="a_edge9_Node000008_Node000006"><a xlink:title=" ">
<path fill="none" stroke="#63b8ff" d="M165.38,-55.59C167.75,-48.86 171.03,-39.53 173.98,-31.15"/>
<polygon fill="#63b8ff" stroke="#63b8ff" points="177.28,-32.32 177.3,-21.73 170.68,-30 177.28,-32.32"/>
</a>
</g>
</g>
<!-- Node9&#45;&gt;Node6 -->
<g id="edge13_Node000009_Node000006" class="edge">
<title>Node9&#45;&gt;Node6</title>
<g id="a_edge13_Node000009_Node000006"><a xlink:title=" ">
<path fill="none" stroke="#63b8ff" d="M237.78,-111.62C227.67,-93.68 205.4,-54.17 191.97,-30.35"/>
<polygon fill="#63b8ff" stroke="#63b8ff" points="195.05,-28.67 187.09,-21.67 188.95,-32.1 195.05,-28.67"/>
</a>
</g>
</g>
<!-- Node9&#45;&gt;Node7 -->
<g id="edge12_Node000009_Node000007" class="edge">
<title>Node9&#45;&gt;Node7</title>
<g id="a_edge12_Node000009_Node000007"><a xlink:title=" ">
<path fill="none" stroke="#63b8ff" d="M258.57,-111.59C271.89,-103.51 291.35,-91.71 306.9,-82.27"/>
<polygon fill="#63b8ff" stroke="#63b8ff" points="308.42,-85.44 315.15,-77.26 304.79,-79.46 308.42,-85.44"/>
</a>
</g>
</g>
<!-- Node9&#45;&gt;Node8 -->
<g id="edge14_Node000009_Node000008" class="edge">
<title>Node9&#45;&gt;Node8</title>
<g id="a_edge14_Node000009_Node000008"><a xlink:title=" ">
<path fill="none" stroke="#63b8ff" d="M228.96,-111.59C217.07,-103.67 199.81,-92.16 185.79,-82.82"/>
<polygon fill="#63b8ff" stroke="#63b8ff" points="187.81,-79.95 177.55,-77.32 183.93,-85.78 187.81,-79.95"/>
</a>
</g>
</g>
<!-- Node10&#45;&gt;Node5 -->
<g id="edge16_Node000010_Node000005" class="edge">
<title>Node10&#45;&gt;Node5</title>
<g id="a_edge16_Node000010_Node000005"><a xlink:title=" ">
<path fill="none" stroke="#63b8ff" d="M540.46,-111.72C531.6,-97.79 513.09,-71.46 491.07,-56 465.15,-37.79 430.96,-25.97 405.54,-19.04"/>
<polygon fill="#63b8ff" stroke="#63b8ff" points="406.56,-15.69 396,-16.57 404.81,-22.46 406.56,-15.69"/>
</a>
</g>
</g>
<!-- Node10&#45;&gt;Node6 -->
<g id="edge17_Node000010_Node000006" class="edge">
<title>Node10&#45;&gt;Node6</title>
<g id="a_edge17_Node000010_Node000006"><a xlink:title=" ">
<path fill="none" stroke="#63b8ff" d="M528.84,-111.69C502.32,-97.72 449.57,-71.34 402.07,-56 336.34,-34.77 256.25,-21.43 212.81,-15.19"/>
<polygon fill="#63b8ff" stroke="#63b8ff" points="213.46,-11.74 203.07,-13.82 212.49,-18.68 213.46,-11.74"/>
</a>
</g>
</g>
<!-- Node11 -->
<g id="Node000011" class="node">
<title>Node11</title>
<g id="a_Node000011"><a xlink:href="_utils_8h.html" target="_top" xlink:title=" ">
<polygon fill="white" stroke="#666666" points="587.32,-76 542.82,-76 542.82,-56 587.32,-56 587.32,-76"/>
<text text-anchor="middle" x="565.07" y="-62.5" font-family="Helvetica,sans-Serif" font-size="10.00">Utils.h</text>
</a>
</g>
</g>
<!-- Node10&#45;&gt;Node11 -->
<g id="edge18_Node000010_Node000011" class="edge">
<title>Node10&#45;&gt;Node11</title>
<g id="a_edge18_Node000010_Node000011"><a xlink:title=" ">
<path fill="none" stroke="#63b8ff" d="M549.38,-111.59C551.75,-104.86 555.03,-95.53 557.98,-87.15"/>
<polygon fill="#63b8ff" stroke="#63b8ff" points="561.28,-88.32 561.3,-77.73 554.68,-86 561.28,-88.32"/>
</a>
</g>
</g>
<!-- Node11&#45;&gt;Node5 -->
<g id="edge19_Node000011_Node000005" class="edge">
<title>Node11&#45;&gt;Node5</title>
<g id="a_edge19_Node000011_Node000005"><a xlink:title=" ">
<path fill="none" stroke="#63b8ff" d="M542.7,-58.81C509.19,-49.53 445.65,-31.93 405.71,-20.87"/>
<polygon fill="#63b8ff" stroke="#63b8ff" points="406.65,-17.5 396.08,-18.2 404.78,-24.24 406.65,-17.5"/>
</a>
</g>
</g>
<!-- Node11&#45;&gt;Node6 -->
<g id="edge20_Node000011_Node000006" class="edge">
<title>Node11&#45;&gt;Node6</title>
<g id="a_edge20_Node000011_Node000006"><a xlink:title=" ">
<path fill="none" stroke="#63b8ff" d="M542.48,-61.82C477.17,-52.64 287.95,-26.03 212.59,-15.43"/>
<polygon fill="#63b8ff" stroke="#63b8ff" points="213.4,-12.01 203.01,-14.08 212.42,-18.94 213.4,-12.01"/>
</a>
</g>
</g>
<!-- Node11&#45;&gt;Node12 -->
<g id="edge21_Node000011_Node000012" class="edge">
<title>Node11&#45;&gt;Node12</title>
<g id="a_edge21_Node000011_Node000012"><a xlink:title=" ">
<path fill="none" stroke="#63b8ff" d="M573.78,-55.59C580.66,-48.16 590.46,-37.58 598.79,-28.58"/>
<polygon fill="#63b8ff" stroke="#63b8ff" points="601.21,-31.12 605.43,-21.41 596.07,-26.37 601.21,-31.12"/>
</a>
</g>
</g>
<!-- Node13&#45;&gt;Node6 -->
<g id="edge23_Node000013_Node000006" class="edge">
<title>Node13&#45;&gt;Node6</title>
<g id="a_edge23_Node000013_Node000006"><a xlink:title=" ">
<path fill="none" stroke="#63b8ff" d="M401.14,-111.52C400.7,-97.32 397.68,-70.64 382.07,-56 357.8,-33.24 262.61,-19.79 212.43,-14.14"/>
<polygon fill="#63b8ff" stroke="#63b8ff" points="213.11,-10.7 202.79,-13.1 212.36,-17.66 213.11,-10.7"/>
</a>
</g>
</g>
<!-- Node13&#45;&gt;Node7 -->
<g id="edge25_Node000013_Node000007" class="edge">
<title>Node13&#45;&gt;Node7</title>
<g id="a_edge25_Node000013_Node000007"><a xlink:title=" ">
<path fill="none" stroke="#63b8ff" d="M389.05,-111.59C379.06,-103.77 364.61,-92.46 352.76,-83.19"/>
<polygon fill="#63b8ff" stroke="#63b8ff" points="355.18,-80.64 345.14,-77.23 350.86,-86.15 355.18,-80.64"/>
</a>
</g>
</g>
<!-- Node13&#45;&gt;Node12 -->
<g id="edge24_Node000013_Node000012" class="edge">
<title>Node13&#45;&gt;Node12</title>
<g id="a_edge24_Node000013_Node000012"><a xlink:title=" ">
<path fill="none" stroke="#63b8ff" d="M449.11,-115.5C499.79,-108.76 575.16,-95.74 596.07,-76 608.11,-64.64 612.65,-46.12 614.3,-31.75"/>
<polygon fill="#63b8ff" stroke="#63b8ff" points="617.78,-32.21 615.02,-21.98 610.8,-31.7 617.78,-32.21"/>
</a>
</g>
</g>
<!-- Node14&#45;&gt;Node5 -->
<g id="edge27_Node000014_Node000005" class="edge">
<title>Node14&#45;&gt;Node5</title>
<g id="a_edge27_Node000014_Node000005"><a xlink:title=" ">
<path fill="none" stroke="#63b8ff" d="M126.75,-111.62C173.77,-92.18 282.04,-47.4 336.91,-24.71"/>
<polygon fill="#63b8ff" stroke="#63b8ff" points="338.15,-27.99 346.05,-20.93 335.47,-21.52 338.15,-27.99"/>
</a>
</g>
</g>
<!-- Node14&#45;&gt;Node6 -->
<g id="edge28_Node000014_Node000006" class="edge">
<title>Node14&#45;&gt;Node6</title>
<g id="a_edge28_Node000014_Node000006"><a xlink:title=" ">
<path fill="none" stroke="#63b8ff" d="M104.02,-111.81C104.37,-98.45 106.66,-73.36 118.07,-56 126.2,-43.63 139,-33.57 150.94,-26.13"/>
<polygon fill="#63b8ff" stroke="#63b8ff" points="152.45,-29.3 159.34,-21.25 148.94,-23.24 152.45,-29.3"/>
</a>
</g>
</g>
<!-- Node15 -->
<g id="Node000015" class="node">
<title>Node15</title>
<g id="a_Node000015"><a xlink:href="_token_8h.html" target="_top" xlink:title=" ">
<polygon fill="white" stroke="#666666" points="71.32,-76 20.82,-76 20.82,-56 71.32,-56 71.32,-76"/>
<text text-anchor="middle" x="46.07" y="-62.5" font-family="Helvetica,sans-Serif" font-size="10.00">Token.h</text>
</a>
</g>
</g>
<!-- Node14&#45;&gt;Node15 -->
<g id="edge29_Node000014_Node000015" class="edge">
<title>Node14&#45;&gt;Node15</title>
<g id="a_edge29_Node000014_Node000015"><a xlink:title=" ">
<path fill="none" stroke="#63b8ff" d="M93.97,-111.59C85.82,-104.01 74.14,-93.13 64.36,-84.02"/>
<polygon fill="#63b8ff" stroke="#63b8ff" points="66.87,-81.58 57.17,-77.33 62.1,-86.71 66.87,-81.58"/>
</a>
</g>
</g>
<!-- Node15&#45;&gt;Node4 -->
<g id="edge32_Node000015_Node000004" class="edge">
<title>Node15&#45;&gt;Node4</title>
<g id="a_edge32_Node000015_Node000004"><a xlink:title=" ">
<path fill="none" stroke="#63b8ff" d="M46.07,-55.59C46.07,-49.01 46.07,-39.96 46.07,-31.73"/>
<polygon fill="#63b8ff" stroke="#63b8ff" points="49.57,-31.81 46.07,-21.81 42.57,-31.81 49.57,-31.81"/>
</a>
</g>
</g>
<!-- Node15&#45;&gt;Node5 -->
<g id="edge30_Node000015_Node000005" class="edge">
<title>Node15&#45;&gt;Node5</title>
<g id="a_edge30_Node000015_Node000005"><a xlink:title=" ">
<path fill="none" stroke="#63b8ff" d="M71.77,-60.72C129.37,-51.12 268.95,-27.85 334.69,-16.9"/>
<polygon fill="#63b8ff" stroke="#63b8ff" points="334.92,-20.41 344.21,-15.31 333.77,-13.5 334.92,-20.41"/>
</a>
</g>
</g>
<!-- Node15&#45;&gt;Node6 -->
<g id="edge31_Node000015_Node000006" class="edge">
<title>Node15&#45;&gt;Node6</title>
<g id="a_edge31_Node000015_Node000006"><a xlink:title=" ">
<path fill="none" stroke="#63b8ff" d="M69.59,-55.59C91.99,-46.63 125.85,-33.09 150.37,-23.28"/>
<polygon fill="#63b8ff" stroke="#63b8ff" points="151.52,-26.59 159.5,-19.63 148.92,-20.09 151.52,-26.59"/>
</a>
</g>
</g>
</g>
</svg>
