<?xml version="1.0" encoding="UTF-8" standalone="no"?>
<!DOCTYPE svg PUBLIC "-//W3C//DTD SVG 1.1//EN"
 "http://www.w3.org/Graphics/SVG/1.1/DTD/svg11.dtd">
<!-- Generated by graphviz version 12.2.1 (20241206.2353)
 -->
<!-- Title: C:/Users/emilly/Documents/Lucca/Projetos/Cpp/NikiScript/include/NikiScript/Parser.h Pages: 1 -->
<svg width="769pt" height="276pt"
 viewBox="0.00 0.00 768.60 276.00" xmlns="http://www.w3.org/2000/svg" xmlns:xlink="http://www.w3.org/1999/xlink">
<g id="graph0" class="graph" transform="scale(1 1) rotate(0) translate(4 272)">
<title>C:/Users/emilly/Documents/Lucca/Projetos/Cpp/NikiScript/include/NikiScript/Parser.h</title>
<!-- Node1 -->
<g id="Node000001" class="node">
<title>Node1</title>
<g id="a_Node000001"><a xlink:title=" ">
<polygon fill="#999999" stroke="#666666" points="741.47,-268 590.47,-268 590.47,-224 741.47,-224 741.47,-268"/>
<text text-anchor="start" x="598.47" y="-254.5" font-family="Helvetica,sans-Serif" font-size="10.00">C:/Users/emilly/Documents</text>
<text text-anchor="start" x="598.47" y="-242.5" font-family="Helvetica,sans-Serif" font-size="10.00">/Lucca/Projetos/Cpp/NikiScript</text>
<text text-anchor="middle" x="665.97" y="-230.5" font-family="Helvetica,sans-Serif" font-size="10.00">/include/NikiScript/Parser.h</text>
</a>
</g>
</g>
<!-- Node2 -->
<g id="Node000002" class="node">
<title>Node2</title>
<g id="a_Node000002"><a xlink:href="_context_8h.html" target="_top" xlink:title=" ">
<polygon fill="white" stroke="#666666" points="526.34,-188 467.59,-188 467.59,-168 526.34,-168 526.34,-188"/>
<text text-anchor="middle" x="496.97" y="-174.5" font-family="Helvetica,sans-Serif" font-size="10.00">Context.h</text>
</a>
</g>
</g>
<!-- Node1&#45;&gt;Node2 -->
<g id="edge1_Node000001_Node000002" class="edge">
<title>Node1&#45;&gt;Node2</title>
<g id="a_edge1_Node000001_Node000002"><a xlink:title=" ">
<path fill="none" stroke="#63b8ff" d="M611.1,-223.57C584.93,-213.35 554.41,-201.43 531.52,-192.49"/>
<polygon fill="#63b8ff" stroke="#63b8ff" points="532.95,-189.29 522.36,-188.92 530.4,-195.81 532.95,-189.29"/>
</a>
</g>
</g>
<!-- Node8 -->
<g id="Node000008" class="node">
<title>Node8</title>
<g id="a_Node000008"><a xlink:href="_d_l_l_8h.html" target="_top" xlink:title=" ">
<polygon fill="white" stroke="#666666" points="530.09,-20 487.84,-20 487.84,0 530.09,0 530.09,-20"/>
<text text-anchor="middle" x="508.97" y="-6.5" font-family="Helvetica,sans-Serif" font-size="10.00">DLL.h</text>
</a>
</g>
</g>
<!-- Node1&#45;&gt;Node8 -->
<g id="edge40_Node000001_Node000008" class="edge">
<title>Node1&#45;&gt;Node8</title>
<g id="a_edge40_Node000001_Node000008"><a xlink:title=" ">
<path fill="none" stroke="#63b8ff" d="M689.99,-223.54C711.45,-202.62 741.37,-168.69 753.97,-132 765.21,-99.26 762.63,-79.22 736.97,-56 708.68,-30.4 597.75,-18.07 541.73,-13.37"/>
<polygon fill="#63b8ff" stroke="#63b8ff" points="542.09,-9.89 531.84,-12.58 541.53,-16.86 542.09,-9.89"/>
</a>
</g>
</g>
<!-- Node3 -->
<g id="Node000003" class="node">
<title>Node3</title>
<g id="a_Node000003"><a xlink:title=" ">
<polygon fill="#e0e0e0" stroke="#999999" points="429.47,-20 386.47,-20 386.47,0 429.47,0 429.47,-20"/>
<text text-anchor="middle" x="407.97" y="-6.5" font-family="Helvetica,sans-Serif" font-size="10.00">vector</text>
</a>
</g>
</g>
<!-- Node2&#45;&gt;Node3 -->
<g id="edge2_Node000002_Node000003" class="edge">
<title>Node2&#45;&gt;Node3</title>
<g id="a_edge2_Node000002_Node000003"><a xlink:title=" ">
<path fill="none" stroke="#63b8ff" d="M526.73,-173.72C572.69,-167.99 657.66,-154.58 676.97,-132 698.97,-106.27 703.88,-81.8 681.97,-56 674.19,-46.84 512.2,-24.64 441.02,-15.27"/>
<polygon fill="#63b8ff" stroke="#63b8ff" points="441.5,-11.81 431.13,-13.98 440.59,-18.75 441.5,-11.81"/>
</a>
</g>
</g>
<!-- Node4 -->
<g id="Node000004" class="node">
<title>Node4</title>
<g id="a_Node000004"><a xlink:title=" ">
<polygon fill="#e0e0e0" stroke="#999999" points="57.09,-20 8.84,-20 8.84,0 57.09,0 57.09,-20"/>
<text text-anchor="middle" x="32.97" y="-6.5" font-family="Helvetica,sans-Serif" font-size="10.00">stdint.h</text>
</a>
</g>
</g>
<!-- Node2&#45;&gt;Node4 -->
<g id="edge3_Node000002_Node000004" class="edge">
<title>Node2&#45;&gt;Node4</title>
<g id="a_edge3_Node000002_Node000004"><a xlink:title=" ">
<path fill="none" stroke="#63b8ff" d="M467.3,-175.72C384.58,-171.85 152.78,-158.84 81.97,-132 41.72,-116.75 22.73,-114.23 2.97,-76 -5.11,-60.36 4.93,-42.13 15.51,-28.97"/>
<polygon fill="#63b8ff" stroke="#63b8ff" points="18.09,-31.34 22.07,-21.52 12.83,-26.71 18.09,-31.34"/>
</a>
</g>
</g>
<!-- Node5 -->
<g id="Node000005" class="node">
<title>Node5</title>
<g id="a_Node000005"><a xlink:title=" ">
<polygon fill="#e0e0e0" stroke="#999999" points="277.97,-20 237.97,-20 237.97,0 277.97,0 277.97,-20"/>
<text text-anchor="middle" x="257.97" y="-6.5" font-family="Helvetica,sans-Serif" font-size="10.00">string</text>
</a>
</g>
</g>
<!-- Node2&#45;&gt;Node5 -->
<g id="edge4_Node000002_Node000005" class="edge">
<title>Node2&#45;&gt;Node5</title>
<g id="a_edge4_Node000002_Node000005"><a xlink:title=" ">
<path fill="none" stroke="#63b8ff" d="M467.2,-176.33C425.99,-174.13 350.57,-165.43 296.97,-132 269.88,-115.1 262.57,-106.12 251.97,-76 246.89,-61.58 248.83,-44.31 251.8,-31.2"/>
<polygon fill="#63b8ff" stroke="#63b8ff" points="255.17,-32.15 254.38,-21.59 248.41,-30.34 255.17,-32.15"/>
</a>
</g>
</g>
<!-- Node6 -->
<g id="Node000006" class="node">
<title>Node6</title>
<g id="a_Node000006"><a xlink:title=" ">
<polygon fill="#e0e0e0" stroke="#999999" points="657.34,-76 574.59,-76 574.59,-56 657.34,-56 657.34,-76"/>
<text text-anchor="middle" x="615.97" y="-62.5" font-family="Helvetica,sans-Serif" font-size="10.00">unordered_map</text>
</a>
</g>
</g>
<!-- Node2&#45;&gt;Node6 -->
<g id="edge5_Node000002_Node000006" class="edge">
<title>Node2&#45;&gt;Node6</title>
<g id="a_edge5_Node000002_Node000006"><a xlink:title=" ">
<path fill="none" stroke="#63b8ff" d="M504.48,-167.66C515.22,-154.55 535.91,-130.26 555.97,-112 567.44,-101.56 581.22,-91.09 592.68,-82.88"/>
<polygon fill="#63b8ff" stroke="#63b8ff" points="594.63,-85.79 600.81,-77.18 590.61,-80.06 594.63,-85.79"/>
</a>
</g>
</g>
<!-- Node7 -->
<g id="Node000007" class="node">
<title>Node7</title>
<g id="a_Node000007"><a xlink:href="_command_8h.html" target="_top" xlink:title=" ">
<polygon fill="white" stroke="#666666" points="442.59,-76 373.34,-76 373.34,-56 442.59,-56 442.59,-76"/>
<text text-anchor="middle" x="407.97" y="-62.5" font-family="Helvetica,sans-Serif" font-size="10.00">Command.h</text>
</a>
</g>
</g>
<!-- Node2&#45;&gt;Node7 -->
<g id="edge6_Node000002_Node000007" class="edge">
<title>Node2&#45;&gt;Node7</title>
<g id="a_edge6_Node000002_Node000007"><a xlink:title=" ">
<path fill="none" stroke="#63b8ff" d="M496.29,-167.7C494.88,-154.2 490.64,-128.95 477.97,-112 468.32,-99.09 453.78,-88.89 440.46,-81.48"/>
<polygon fill="#63b8ff" stroke="#63b8ff" points="442.43,-78.56 431.94,-77.06 439.21,-84.78 442.43,-78.56"/>
</a>
</g>
</g>
<!-- Node2&#45;&gt;Node8 -->
<g id="edge39_Node000002_Node000008" class="edge">
<title>Node2&#45;&gt;Node8</title>
<g id="a_edge39_Node000002_Node000008"><a xlink:title=" ">
<path fill="none" stroke="#63b8ff" d="M526.41,-175.99C584.49,-173.32 710.5,-163.89 736.97,-132 754.01,-111.46 733.67,-71.93 714.97,-56 689.18,-34.03 593.01,-20.3 541.7,-14.39"/>
<polygon fill="#63b8ff" stroke="#63b8ff" points="542.41,-10.95 532.08,-13.32 541.63,-17.9 542.41,-10.95"/>
</a>
</g>
</g>
<!-- Node9 -->
<g id="Node000009" class="node">
<title>Node9</title>
<g id="a_Node000009"><a xlink:href="_command_handler_8h.html" target="_top" xlink:title=" ">
<polygon fill="white" stroke="#666666" points="667.47,-132 564.47,-132 564.47,-112 667.47,-112 667.47,-132"/>
<text text-anchor="middle" x="615.97" y="-118.5" font-family="Helvetica,sans-Serif" font-size="10.00">CommandHandler.h</text>
</a>
</g>
</g>
<!-- Node2&#45;&gt;Node9 -->
<g id="edge11_Node000002_Node000009" class="edge">
<title>Node2&#45;&gt;Node9</title>
<g id="a_edge11_Node000002_Node000009"><a xlink:title=" ">
<path fill="none" stroke="#63b8ff" d="M517.7,-167.59C536.18,-159.21 563.51,-146.8 584.66,-137.21"/>
<polygon fill="#63b8ff" stroke="#63b8ff" points="586.04,-140.42 593.7,-133.1 583.15,-134.05 586.04,-140.42"/>
</a>
</g>
</g>
<!-- Node10 -->
<g id="Node000010" class="node">
<title>Node10</title>
<g id="a_Node000010"><a xlink:href="_print_callback_8h.html" target="_top" xlink:title=" ">
<polygon fill="white" stroke="#666666" points="173.34,-132 90.59,-132 90.59,-112 173.34,-112 173.34,-132"/>
<text text-anchor="middle" x="131.97" y="-118.5" font-family="Helvetica,sans-Serif" font-size="10.00">PrintCallback.h</text>
</a>
</g>
</g>
<!-- Node2&#45;&gt;Node10 -->
<g id="edge16_Node000002_Node000010" class="edge">
<title>Node2&#45;&gt;Node10</title>
<g id="a_edge16_Node000002_Node000010"><a xlink:title=" ">
<path fill="none" stroke="#63b8ff" d="M467.45,-172.9C412.3,-165.19 289.89,-147.89 186.97,-132 186.3,-131.9 185.62,-131.79 184.94,-131.69"/>
<polygon fill="#63b8ff" stroke="#63b8ff" points="185.62,-128.25 175.19,-130.15 184.52,-135.16 185.62,-128.25"/>
</a>
</g>
</g>
<!-- Node13 -->
<g id="Node000013" class="node">
<title>Node13</title>
<g id="a_Node000013"><a xlink:href="_program_variable_8h.html" target="_top" xlink:title=" ">
<polygon fill="white" stroke="#666666" points="468.72,-132 373.22,-132 373.22,-112 468.72,-112 468.72,-132"/>
<text text-anchor="middle" x="420.97" y="-118.5" font-family="Helvetica,sans-Serif" font-size="10.00">ProgramVariable.h</text>
</a>
</g>
</g>
<!-- Node2&#45;&gt;Node13 -->
<g id="edge25_Node000002_Node000013" class="edge">
<title>Node2&#45;&gt;Node13</title>
<g id="a_edge25_Node000002_Node000013"><a xlink:title=" ">
<path fill="none" stroke="#63b8ff" d="M483.73,-167.59C472.68,-159.74 456.69,-148.38 443.61,-139.09"/>
<polygon fill="#63b8ff" stroke="#63b8ff" points="445.72,-136.3 435.54,-133.36 441.67,-142 445.72,-136.3"/>
</a>
</g>
</g>
<!-- Node14 -->
<g id="Node000014" class="node">
<title>Node14</title>
<g id="a_Node000014"><a xlink:href="_lexer_8h.html" target="_top" xlink:title=" ">
<polygon fill="white" stroke="#666666" points="354.09,-132 305.84,-132 305.84,-112 354.09,-112 354.09,-132"/>
<text text-anchor="middle" x="329.97" y="-118.5" font-family="Helvetica,sans-Serif" font-size="10.00">Lexer.h</text>
</a>
</g>
</g>
<!-- Node2&#45;&gt;Node14 -->
<g id="edge30_Node000002_Node000014" class="edge">
<title>Node2&#45;&gt;Node14</title>
<g id="a_edge30_Node000002_Node000014"><a xlink:title=" ">
<path fill="none" stroke="#63b8ff" d="M467.88,-167.59C439.25,-158.34 395.5,-144.19 364.98,-134.32"/>
<polygon fill="#63b8ff" stroke="#63b8ff" points="366.42,-131.11 355.83,-131.36 364.26,-137.77 366.42,-131.11"/>
</a>
</g>
</g>
<!-- Node7&#45;&gt;Node3 -->
<g id="edge7_Node000007_Node000003" class="edge">
<title>Node7&#45;&gt;Node3</title>
<g id="a_edge7_Node000007_Node000003"><a xlink:title=" ">
<path fill="none" stroke="#63b8ff" d="M407.97,-55.59C407.97,-49.01 407.97,-39.96 407.97,-31.73"/>
<polygon fill="#63b8ff" stroke="#63b8ff" points="411.47,-31.81 407.97,-21.81 404.47,-31.81 411.47,-31.81"/>
</a>
</g>
</g>
<!-- Node7&#45;&gt;Node4 -->
<g id="edge9_Node000007_Node000004" class="edge">
<title>Node7&#45;&gt;Node4</title>
<g id="a_edge9_Node000007_Node000004"><a xlink:title=" ">
<path fill="none" stroke="#63b8ff" d="M372.95,-57.59C369.92,-57.02 366.89,-56.48 363.97,-56 239.32,-35.33 206.82,-39.42 81.97,-20 77.57,-19.32 72.97,-18.54 68.42,-17.75"/>
<polygon fill="#63b8ff" stroke="#63b8ff" points="69.3,-14.35 58.84,-16.02 68.06,-21.24 69.3,-14.35"/>
</a>
</g>
</g>
<!-- Node7&#45;&gt;Node5 -->
<g id="edge8_Node000007_Node000005" class="edge">
<title>Node7&#45;&gt;Node5</title>
<g id="a_edge8_Node000007_Node000005"><a xlink:title=" ">
<path fill="none" stroke="#63b8ff" d="M381.84,-55.59C355.87,-46.25 316.06,-31.91 288.61,-22.03"/>
<polygon fill="#63b8ff" stroke="#63b8ff" points="290.06,-18.83 279.47,-18.74 287.69,-25.42 290.06,-18.83"/>
</a>
</g>
</g>
<!-- Node7&#45;&gt;Node8 -->
<g id="edge10_Node000007_Node000008" class="edge">
<title>Node7&#45;&gt;Node8</title>
<g id="a_edge10_Node000007_Node000008"><a xlink:title=" ">
<path fill="none" stroke="#63b8ff" d="M425.56,-55.59C440.89,-47.4 463.39,-35.37 481.15,-25.87"/>
<polygon fill="#63b8ff" stroke="#63b8ff" points="482.73,-28.99 489.9,-21.19 479.43,-22.82 482.73,-28.99"/>
</a>
</g>
</g>
<!-- Node9&#45;&gt;Node5 -->
<g id="edge13_Node000009_Node000005" class="edge">
<title>Node9&#45;&gt;Node5</title>
<g id="a_edge13_Node000009_Node000005"><a xlink:title=" ">
<path fill="none" stroke="#63b8ff" d="M632.12,-111.61C652.44,-98.66 682.78,-74.77 665.97,-56 653.4,-41.97 383.16,-20.41 289.55,-13.34"/>
<polygon fill="#63b8ff" stroke="#63b8ff" points="290.04,-9.86 279.81,-12.6 289.52,-16.84 290.04,-9.86"/>
</a>
</g>
</g>
<!-- Node9&#45;&gt;Node6 -->
<g id="edge12_Node000009_Node000006" class="edge">
<title>Node9&#45;&gt;Node6</title>
<g id="a_edge12_Node000009_Node000006"><a xlink:title=" ">
<path fill="none" stroke="#63b8ff" d="M615.97,-111.59C615.97,-105.01 615.97,-95.96 615.97,-87.73"/>
<polygon fill="#63b8ff" stroke="#63b8ff" points="619.47,-87.81 615.97,-77.81 612.47,-87.81 619.47,-87.81"/>
</a>
</g>
</g>
<!-- Node9&#45;&gt;Node7 -->
<g id="edge14_Node000009_Node000007" class="edge">
<title>Node9&#45;&gt;Node7</title>
<g id="a_edge14_Node000009_Node000007"><a xlink:title=" ">
<path fill="none" stroke="#63b8ff" d="M579.74,-111.59C544.78,-102.52 491.72,-88.74 453.84,-78.91"/>
<polygon fill="#63b8ff" stroke="#63b8ff" points="455.11,-75.62 444.56,-76.5 453.36,-82.4 455.11,-75.62"/>
</a>
</g>
</g>
<!-- Node9&#45;&gt;Node8 -->
<g id="edge15_Node000009_Node000008" class="edge">
<title>Node9&#45;&gt;Node8</title>
<g id="a_edge15_Node000009_Node000008"><a xlink:title=" ">
<path fill="none" stroke="#63b8ff" d="M645.96,-111.59C676.83,-100.33 717.93,-79.97 698.97,-56 679.69,-31.62 590.54,-19.08 541.51,-13.92"/>
<polygon fill="#63b8ff" stroke="#63b8ff" points="542.06,-10.46 531.77,-12.95 541.37,-17.43 542.06,-10.46"/>
</a>
</g>
</g>
<!-- Node10&#45;&gt;Node4 -->
<g id="edge17_Node000010_Node000004" class="edge">
<title>Node10&#45;&gt;Node4</title>
<g id="a_edge17_Node000010_Node000004"><a xlink:title=" ">
<path fill="none" stroke="#63b8ff" d="M90.39,-117.42C62.89,-112.65 28.75,-101.58 10.97,-76 1.12,-61.83 9.46,-42.89 18.56,-29.11"/>
<polygon fill="#63b8ff" stroke="#63b8ff" points="21.14,-31.5 24.18,-21.35 15.47,-27.4 21.14,-31.5"/>
</a>
</g>
</g>
<!-- Node10&#45;&gt;Node5 -->
<g id="edge18_Node000010_Node000005" class="edge">
<title>Node10&#45;&gt;Node5</title>
<g id="a_edge18_Node000010_Node000005"><a xlink:title=" ">
<path fill="none" stroke="#63b8ff" d="M138.33,-111.84C147.87,-98.51 166.91,-73.48 186.97,-56 200.12,-44.54 216.47,-33.97 230.16,-25.96"/>
<polygon fill="#63b8ff" stroke="#63b8ff" points="231.74,-29.09 238.7,-21.11 228.28,-23 231.74,-29.09"/>
</a>
</g>
</g>
<!-- Node10&#45;&gt;Node8 -->
<g id="edge19_Node000010_Node000008" class="edge">
<title>Node10&#45;&gt;Node8</title>
<g id="a_edge19_Node000010_Node000008"><a xlink:title=" ">
<path fill="none" stroke="#63b8ff" d="M173.67,-118.73C249.09,-114.05 404.71,-101.53 451.97,-76 471.71,-65.34 487.83,-44.96 497.83,-29.85"/>
<polygon fill="#63b8ff" stroke="#63b8ff" points="500.6,-32.03 502.94,-21.7 494.66,-28.31 500.6,-32.03"/>
</a>
</g>
</g>
<!-- Node11 -->
<g id="Node000011" class="node">
<title>Node11</title>
<g id="a_Node000011"><a xlink:href="_utils_8h.html" target="_top" xlink:title=" ">
<polygon fill="white" stroke="#666666" points="97.22,-76 52.72,-76 52.72,-56 97.22,-56 97.22,-76"/>
<text text-anchor="middle" x="74.97" y="-62.5" font-family="Helvetica,sans-Serif" font-size="10.00">Utils.h</text>
</a>
</g>
</g>
<!-- Node10&#45;&gt;Node11 -->
<g id="edge20_Node000010_Node000011" class="edge">
<title>Node10&#45;&gt;Node11</title>
<g id="a_edge20_Node000010_Node000011"><a xlink:title=" ">
<path fill="none" stroke="#63b8ff" d="M122.04,-111.59C114.03,-104.01 102.55,-93.13 92.94,-84.02"/>
<polygon fill="#63b8ff" stroke="#63b8ff" points="95.55,-81.68 85.88,-77.34 90.73,-86.76 95.55,-81.68"/>
</a>
</g>
</g>
<!-- Node11&#45;&gt;Node4 -->
<g id="edge21_Node000011_Node000004" class="edge">
<title>Node11&#45;&gt;Node4</title>
<g id="a_edge21_Node000011_Node000004"><a xlink:title=" ">
<path fill="none" stroke="#63b8ff" d="M67.65,-55.59C61.99,-48.32 53.98,-38.02 47.08,-29.15"/>
<polygon fill="#63b8ff" stroke="#63b8ff" points="50.03,-27.24 41.13,-21.49 44.51,-31.54 50.03,-27.24"/>
</a>
</g>
</g>
<!-- Node11&#45;&gt;Node5 -->
<g id="edge22_Node000011_Node000005" class="edge">
<title>Node11&#45;&gt;Node5</title>
<g id="a_edge22_Node000011_Node000005"><a xlink:title=" ">
<path fill="none" stroke="#63b8ff" d="M97.41,-58.38C129.93,-48.78 190.28,-30.97 227.01,-20.13"/>
<polygon fill="#63b8ff" stroke="#63b8ff" points="227.54,-23.63 236.14,-17.44 225.56,-16.91 227.54,-23.63"/>
</a>
</g>
</g>
<!-- Node11&#45;&gt;Node8 -->
<g id="edge24_Node000011_Node000008" class="edge">
<title>Node11&#45;&gt;Node8</title>
<g id="a_edge24_Node000011_Node000008"><a xlink:title=" ">
<path fill="none" stroke="#63b8ff" d="M97.55,-62.25C154.71,-55.27 309.77,-36.29 438.97,-20 451.19,-18.46 464.6,-16.74 476.39,-15.22"/>
<polygon fill="#63b8ff" stroke="#63b8ff" points="476.56,-18.73 486.02,-13.98 475.66,-11.79 476.56,-18.73"/>
</a>
</g>
</g>
<!-- Node12 -->
<g id="Node000012" class="node">
<title>Node12</title>
<g id="a_Node000012"><a xlink:title=" ">
<polygon fill="#e0e0e0" stroke="#999999" points="142.59,-20 91.34,-20 91.34,0 142.59,0 142.59,-20"/>
<text text-anchor="middle" x="116.97" y="-6.5" font-family="Helvetica,sans-Serif" font-size="10.00">sstream</text>
</a>
</g>
</g>
<!-- Node11&#45;&gt;Node12 -->
<g id="edge23_Node000011_Node000012" class="edge">
<title>Node11&#45;&gt;Node12</title>
<g id="a_edge23_Node000011_Node000012"><a xlink:title=" ">
<path fill="none" stroke="#63b8ff" d="M82.28,-55.59C87.95,-48.32 95.96,-38.02 102.85,-29.15"/>
<polygon fill="#63b8ff" stroke="#63b8ff" points="105.43,-31.54 108.81,-21.49 99.9,-27.24 105.43,-31.54"/>
</a>
</g>
</g>
<!-- Node13&#45;&gt;Node5 -->
<g id="edge26_Node000013_Node000005" class="edge">
<title>Node13&#45;&gt;Node5</title>
<g id="a_edge26_Node000013_Node000005"><a xlink:title=" ">
<path fill="none" stroke="#63b8ff" d="M372.78,-111.95C347.73,-105.33 317.87,-94.21 295.97,-76 281.53,-64 271.34,-45.01 265.16,-30.64"/>
<polygon fill="#63b8ff" stroke="#63b8ff" points="268.57,-29.75 261.63,-21.75 262.07,-32.33 268.57,-29.75"/>
</a>
</g>
</g>
<!-- Node13&#45;&gt;Node6 -->
<g id="edge28_Node000013_Node000006" class="edge">
<title>Node13&#45;&gt;Node6</title>
<g id="a_edge28_Node000013_Node000006"><a xlink:title=" ">
<path fill="none" stroke="#63b8ff" d="M454.93,-111.59C487.03,-102.71 535.4,-89.31 570.75,-79.52"/>
<polygon fill="#63b8ff" stroke="#63b8ff" points="571.57,-82.93 580.28,-76.88 569.71,-76.18 571.57,-82.93"/>
</a>
</g>
</g>
<!-- Node13&#45;&gt;Node8 -->
<g id="edge29_Node000013_Node000008" class="edge">
<title>Node13&#45;&gt;Node8</title>
<g id="a_edge29_Node000013_Node000008"><a xlink:title=" ">
<path fill="none" stroke="#63b8ff" d="M469.18,-111.89C489.37,-105.43 510.92,-94.48 522.97,-76 531.92,-62.26 526.63,-43.76 520.14,-30.01"/>
<polygon fill="#63b8ff" stroke="#63b8ff" points="523.42,-28.72 515.65,-21.52 517.24,-31.99 523.42,-28.72"/>
</a>
</g>
</g>
<!-- Node13&#45;&gt;Node12 -->
<g id="edge27_Node000013_Node000012" class="edge">
<title>Node13&#45;&gt;Node12</title>
<g id="a_edge27_Node000013_Node000012"><a xlink:title=" ">
<path fill="none" stroke="#63b8ff" d="M387.58,-111.54C358.02,-102.95 313.8,-89.58 275.97,-76 231.27,-59.96 180.67,-38.73 148.79,-24.97"/>
<polygon fill="#63b8ff" stroke="#63b8ff" points="150.3,-21.8 139.73,-21.04 147.51,-28.23 150.3,-21.8"/>
</a>
</g>
</g>
<!-- Node14&#45;&gt;Node4 -->
<g id="edge31_Node000014_Node000004" class="edge">
<title>Node14&#45;&gt;Node4</title>
<g id="a_edge31_Node000014_Node000004"><a xlink:title=" ">
<path fill="none" stroke="#63b8ff" d="M305.53,-118.79C239.74,-112.6 62.56,-94.37 43.97,-76 32.51,-64.67 30.33,-46.15 30.68,-31.77"/>
<polygon fill="#63b8ff" stroke="#63b8ff" points="34.16,-32.21 31.37,-21.99 27.18,-31.72 34.16,-32.21"/>
</a>
</g>
</g>
<!-- Node14&#45;&gt;Node5 -->
<g id="edge32_Node000014_Node000005" class="edge">
<title>Node14&#45;&gt;Node5</title>
<g id="a_edge32_Node000014_Node000005"><a xlink:title=" ">
<path fill="none" stroke="#63b8ff" d="M306.27,-111.62C291.15,-104.3 272.64,-92.58 262.97,-76 255.19,-62.66 254.28,-45.09 255.13,-31.57"/>
<polygon fill="#63b8ff" stroke="#63b8ff" points="258.61,-31.94 256.16,-21.64 251.65,-31.22 258.61,-31.94"/>
</a>
</g>
</g>
<!-- Node14&#45;&gt;Node8 -->
<g id="edge38_Node000014_Node000008" class="edge">
<title>Node14&#45;&gt;Node8</title>
<g id="a_edge38_Node000014_Node000008"><a xlink:title=" ">
<path fill="none" stroke="#63b8ff" d="M354.59,-114.47C397.08,-103.13 480.1,-80.54 484.97,-76 497.36,-64.46 503.38,-45.96 506.29,-31.64"/>
<polygon fill="#63b8ff" stroke="#63b8ff" points="509.72,-32.34 507.88,-21.91 502.81,-31.21 509.72,-32.34"/>
</a>
</g>
</g>
<!-- Node15 -->
<g id="Node000015" class="node">
<title>Node15</title>
<g id="a_Node000015"><a xlink:href="_token_8h.html" target="_top" xlink:title=" ">
<polygon fill="white" stroke="#666666" points="355.22,-76 304.72,-76 304.72,-56 355.22,-56 355.22,-76"/>
<text text-anchor="middle" x="329.97" y="-62.5" font-family="Helvetica,sans-Serif" font-size="10.00">Token.h</text>
</a>
</g>
</g>
<!-- Node14&#45;&gt;Node15 -->
<g id="edge33_Node000014_Node000015" class="edge">
<title>Node14&#45;&gt;Node15</title>
<g id="a_edge33_Node000014_Node000015"><a xlink:title=" ">
<path fill="none" stroke="#63b8ff" d="M329.97,-111.59C329.97,-105.01 329.97,-95.96 329.97,-87.73"/>
<polygon fill="#63b8ff" stroke="#63b8ff" points="333.47,-87.81 329.97,-77.81 326.47,-87.81 333.47,-87.81"/>
</a>
</g>
</g>
<!-- Node15&#45;&gt;Node3 -->
<g id="edge36_Node000015_Node000003" class="edge">
<title>Node15&#45;&gt;Node3</title>
<g id="a_edge36_Node000015_Node000003"><a xlink:title=" ">
<path fill="none" stroke="#63b8ff" d="M343.55,-55.59C355,-47.67 371.63,-36.16 385.12,-26.82"/>
<polygon fill="#63b8ff" stroke="#63b8ff" points="386.8,-29.91 393.03,-21.34 382.82,-24.16 386.8,-29.91"/>
</a>
</g>
</g>
<!-- Node15&#45;&gt;Node4 -->
<g id="edge34_Node000015_Node000004" class="edge">
<title>Node15&#45;&gt;Node4</title>
<g id="a_edge34_Node000015_Node000004"><a xlink:title=" ">
<path fill="none" stroke="#63b8ff" d="M304.26,-60.35C259.22,-52.21 163.11,-34.81 81.97,-20 77.59,-19.2 73,-18.36 68.45,-17.53"/>
<polygon fill="#63b8ff" stroke="#63b8ff" points="69.35,-14.13 58.88,-15.77 68.08,-21.02 69.35,-14.13"/>
</a>
</g>
</g>
<!-- Node15&#45;&gt;Node5 -->
<g id="edge35_Node000015_Node000005" class="edge">
<title>Node15&#45;&gt;Node5</title>
<g id="a_edge35_Node000015_Node000005"><a xlink:title=" ">
<path fill="none" stroke="#63b8ff" d="M317.43,-55.59C307,-47.77 291.92,-36.46 279.56,-27.19"/>
<polygon fill="#63b8ff" stroke="#63b8ff" points="281.68,-24.41 271.58,-21.21 277.48,-30.01 281.68,-24.41"/>
</a>
</g>
</g>
<!-- Node15&#45;&gt;Node8 -->
<g id="edge37_Node000015_Node000008" class="edge">
<title>Node15&#45;&gt;Node8</title>
<g id="a_edge37_Node000015_Node000008"><a xlink:title=" ">
<path fill="none" stroke="#63b8ff" d="M355.61,-57.26C387.49,-47.65 441.91,-31.23 476.62,-20.76"/>
<polygon fill="#63b8ff" stroke="#63b8ff" points="477.56,-24.13 486.12,-17.89 475.54,-17.43 477.56,-24.13"/>
</a>
</g>
</g>
</g>
</svg>
