<?xml version="1.0" encoding="UTF-8" standalone="no"?>
<!DOCTYPE svg PUBLIC "-//W3C//DTD SVG 1.1//EN"
 "http://www.w3.org/Graphics/SVG/1.1/DTD/svg11.dtd">
<!-- Generated by graphviz version 12.2.1 (20241206.2353)
 -->
<!-- Title: C:/Users/emilly/Documents/Lucca/Projetos/Cpp/NikiScript/wrapper/PrintCallbackWrapper.h Pages: 1 -->
<svg width="222pt" height="220pt"
 viewBox="0.00 0.00 222.38 220.00" xmlns="http://www.w3.org/2000/svg" xmlns:xlink="http://www.w3.org/1999/xlink">
<g id="graph0" class="graph" transform="scale(1 1) rotate(0) translate(4 216)">
<title>C:/Users/emilly/Documents/Lucca/Projetos/Cpp/NikiScript/wrapper/PrintCallbackWrapper.h</title>
<!-- Node1 -->
<g id="Node000001" class="node">
<title>Node1</title>
<g id="a_Node000001"><a xlink:title=" ">
<polygon fill="#999999" stroke="#666666" points="162,-212 2.75,-212 2.75,-168 162,-168 162,-212"/>
<text text-anchor="start" x="10.75" y="-198.5" font-family="Helvetica,sans-Serif" font-size="10.00">C:/Users/emilly/Documents</text>
<text text-anchor="start" x="10.75" y="-186.5" font-family="Helvetica,sans-Serif" font-size="10.00">/Lucca/Projetos/Cpp/NikiScript</text>
<text text-anchor="middle" x="82.38" y="-174.5" font-family="Helvetica,sans-Serif" font-size="10.00">/wrapper/PrintCallbackWrapper.h</text>
</a>
</g>
</g>
<!-- Node2 -->
<g id="Node000002" class="node">
<title>Node2</title>
<g id="a_Node000002"><a xlink:href="_d_l_l_export_8h.html" target="_top" xlink:title=" ">
<polygon fill="white" stroke="#666666" points="70.75,-132 0,-132 0,-112 70.75,-112 70.75,-132"/>
<text text-anchor="middle" x="35.38" y="-118.5" font-family="Helvetica,sans-Serif" font-size="10.00">DLLExport.h</text>
</a>
</g>
</g>
<!-- Node1&#45;&gt;Node2 -->
<g id="edge1_Node000001_Node000002" class="edge">
<title>Node1&#45;&gt;Node2</title>
<g id="a_edge1_Node000001_Node000002"><a xlink:title=" ">
<path fill="none" stroke="#63b8ff" d="M67.25,-167.75C61.28,-159.38 54.49,-149.85 48.72,-141.74"/>
<polygon fill="#63b8ff" stroke="#63b8ff" points="51.61,-139.77 42.96,-133.65 45.91,-143.83 51.61,-139.77"/>
</a>
</g>
</g>
<!-- Node3 -->
<g id="Node000003" class="node">
<title>Node3</title>
<g id="a_Node000003"><a xlink:href="_print_callback_8h.html" target="_top" xlink:title=" ">
<polygon fill="white" stroke="#666666" points="171.75,-132 89,-132 89,-112 171.75,-112 171.75,-132"/>
<text text-anchor="middle" x="130.38" y="-118.5" font-family="Helvetica,sans-Serif" font-size="10.00">PrintCallback.h</text>
</a>
</g>
</g>
<!-- Node1&#45;&gt;Node3 -->
<g id="edge2_Node000001_Node000003" class="edge">
<title>Node1&#45;&gt;Node3</title>
<g id="a_edge2_Node000001_Node000003"><a xlink:title=" ">
<path fill="none" stroke="#63b8ff" d="M97.83,-167.75C103.98,-159.29 111,-149.64 116.94,-141.47"/>
<polygon fill="#63b8ff" stroke="#63b8ff" points="119.58,-143.79 122.63,-133.64 113.92,-139.67 119.58,-143.79"/>
</a>
</g>
</g>
<!-- Node4 -->
<g id="Node000004" class="node">
<title>Node4</title>
<g id="a_Node000004"><a xlink:title=" ">
<polygon fill="#e0e0e0" stroke="#999999" points="86.5,-20 38.25,-20 38.25,0 86.5,0 86.5,-20"/>
<text text-anchor="middle" x="62.38" y="-6.5" font-family="Helvetica,sans-Serif" font-size="10.00">stdint.h</text>
</a>
</g>
</g>
<!-- Node3&#45;&gt;Node4 -->
<g id="edge3_Node000003_Node000004" class="edge">
<title>Node3&#45;&gt;Node4</title>
<g id="a_edge3_Node000003_Node000004"><a xlink:title=" ">
<path fill="none" stroke="#63b8ff" d="M123.48,-111.5C117.03,-102.5 107.24,-88.54 99.38,-76 89.89,-60.88 79.92,-43.25 72.72,-30.17"/>
<polygon fill="#63b8ff" stroke="#63b8ff" points="75.98,-28.84 68.12,-21.73 69.84,-32.19 75.98,-28.84"/>
</a>
</g>
</g>
<!-- Node5 -->
<g id="Node000005" class="node">
<title>Node5</title>
<g id="a_Node000005"><a xlink:title=" ">
<polygon fill="#e0e0e0" stroke="#999999" points="214.38,-20 174.38,-20 174.38,0 214.38,0 214.38,-20"/>
<text text-anchor="middle" x="194.38" y="-6.5" font-family="Helvetica,sans-Serif" font-size="10.00">string</text>
</a>
</g>
</g>
<!-- Node3&#45;&gt;Node5 -->
<g id="edge4_Node000003_Node000005" class="edge">
<title>Node3&#45;&gt;Node5</title>
<g id="a_edge4_Node000003_Node000005"><a xlink:title=" ">
<path fill="none" stroke="#63b8ff" d="M137.41,-111.59C143.95,-102.65 153.81,-88.72 161.38,-76 170.18,-61.19 178.95,-43.75 185.24,-30.67"/>
<polygon fill="#63b8ff" stroke="#63b8ff" points="188.3,-32.37 189.41,-21.84 181.97,-29.38 188.3,-32.37"/>
</a>
</g>
</g>
<!-- Node6 -->
<g id="Node000006" class="node">
<title>Node6</title>
<g id="a_Node000006"><a xlink:href="_utils_8h.html" target="_top" xlink:title=" ">
<polygon fill="white" stroke="#666666" points="152.62,-76 108.12,-76 108.12,-56 152.62,-56 152.62,-76"/>
<text text-anchor="middle" x="130.38" y="-62.5" font-family="Helvetica,sans-Serif" font-size="10.00">Utils.h</text>
</a>
</g>
</g>
<!-- Node3&#45;&gt;Node6 -->
<g id="edge5_Node000003_Node000006" class="edge">
<title>Node3&#45;&gt;Node6</title>
<g id="a_edge5_Node000003_Node000006"><a xlink:title=" ">
<path fill="none" stroke="#63b8ff" d="M130.38,-111.59C130.38,-105.01 130.38,-95.96 130.38,-87.73"/>
<polygon fill="#63b8ff" stroke="#63b8ff" points="133.88,-87.81 130.38,-77.81 126.88,-87.81 133.88,-87.81"/>
</a>
</g>
</g>
<!-- Node6&#45;&gt;Node4 -->
<g id="edge6_Node000006_Node000004" class="edge">
<title>Node6&#45;&gt;Node4</title>
<g id="a_edge6_Node000006_Node000004"><a xlink:title=" ">
<path fill="none" stroke="#63b8ff" d="M118.53,-55.59C108.68,-47.77 94.44,-36.46 82.77,-27.19"/>
<polygon fill="#63b8ff" stroke="#63b8ff" points="85.28,-24.72 75.27,-21.24 80.92,-30.2 85.28,-24.72"/>
</a>
</g>
</g>
<!-- Node6&#45;&gt;Node5 -->
<g id="edge7_Node000006_Node000005" class="edge">
<title>Node6&#45;&gt;Node5</title>
<g id="a_edge7_Node000006_Node000005"><a xlink:title=" ">
<path fill="none" stroke="#63b8ff" d="M141.52,-55.59C150.7,-47.85 163.93,-36.69 174.86,-27.47"/>
<polygon fill="#63b8ff" stroke="#63b8ff" points="176.81,-30.4 182.2,-21.27 172.3,-25.05 176.81,-30.4"/>
</a>
</g>
</g>
<!-- Node7 -->
<g id="Node000007" class="node">
<title>Node7</title>
<g id="a_Node000007"><a xlink:title=" ">
<polygon fill="#e0e0e0" stroke="#999999" points="156,-20 104.75,-20 104.75,0 156,0 156,-20"/>
<text text-anchor="middle" x="130.38" y="-6.5" font-family="Helvetica,sans-Serif" font-size="10.00">sstream</text>
</a>
</g>
</g>
<!-- Node6&#45;&gt;Node7 -->
<g id="edge8_Node000006_Node000007" class="edge">
<title>Node6&#45;&gt;Node7</title>
<g id="a_edge8_Node000006_Node000007"><a xlink:title=" ">
<path fill="none" stroke="#63b8ff" d="M130.38,-55.59C130.38,-49.01 130.38,-39.96 130.38,-31.73"/>
<polygon fill="#63b8ff" stroke="#63b8ff" points="133.88,-31.81 130.38,-21.81 126.88,-31.81 133.88,-31.81"/>
</a>
</g>
</g>
</g>
</svg>
