<?xml version="1.0" encoding="UTF-8" standalone="no"?>
<!DOCTYPE svg PUBLIC "-//W3C//DTD SVG 1.1//EN"
 "http://www.w3.org/Graphics/SVG/1.1/DTD/svg11.dtd">
<!-- Generated by graphviz version 12.2.1 (20241206.2353)
 -->
<!-- Title: C:/Users/emilly/Documents/Lucca/Projetos/Cpp/NikiScript/include/NikiScript/PrintCallback.h Pages: 1 -->
<svg width="244pt" height="164pt"
 viewBox="0.00 0.00 244.25 164.00" xmlns="http://www.w3.org/2000/svg" xmlns:xlink="http://www.w3.org/1999/xlink">
<g id="graph0" class="graph" transform="scale(1 1) rotate(0) translate(4 160)">
<title>C:/Users/emilly/Documents/Lucca/Projetos/Cpp/NikiScript/include/NikiScript/PrintCallback.h</title>
<!-- Node1 -->
<g id="Node000001" class="node">
<title>Node1</title>
<g id="a_Node000001"><a xlink:title=" ">
<polygon fill="#999999" stroke="#666666" points="193.75,-156 28.5,-156 28.5,-112 193.75,-112 193.75,-156"/>
<text text-anchor="start" x="36.5" y="-142.5" font-family="Helvetica,sans-Serif" font-size="10.00">C:/Users/emilly/Documents</text>
<text text-anchor="start" x="36.5" y="-130.5" font-family="Helvetica,sans-Serif" font-size="10.00">/Lucca/Projetos/Cpp/NikiScript</text>
<text text-anchor="middle" x="111.12" y="-118.5" font-family="Helvetica,sans-Serif" font-size="10.00">/include/NikiScript/PrintCallback.h</text>
</a>
</g>
</g>
<!-- Node2 -->
<g id="Node000002" class="node">
<title>Node2</title>
<g id="a_Node000002"><a xlink:title=" ">
<polygon fill="#e0e0e0" stroke="#999999" points="48.25,-20 0,-20 0,0 48.25,0 48.25,-20"/>
<text text-anchor="middle" x="24.12" y="-6.5" font-family="Helvetica,sans-Serif" font-size="10.00">stdint.h</text>
</a>
</g>
</g>
<!-- Node1&#45;&gt;Node2 -->
<g id="edge1_Node000001_Node000002" class="edge">
<title>Node1&#45;&gt;Node2</title>
<g id="a_edge1_Node000001_Node000002"><a xlink:title=" ">
<path fill="none" stroke="#63b8ff" d="M95.97,-111.75C79.41,-88.53 53.15,-51.7 37.38,-29.59"/>
<polygon fill="#63b8ff" stroke="#63b8ff" points="40.29,-27.64 31.64,-21.53 34.59,-31.71 40.29,-27.64"/>
</a>
</g>
</g>
<!-- Node3 -->
<g id="Node000003" class="node">
<title>Node3</title>
<g id="a_Node000003"><a xlink:title=" ">
<polygon fill="#e0e0e0" stroke="#999999" points="106.12,-20 66.12,-20 66.12,0 106.12,0 106.12,-20"/>
<text text-anchor="middle" x="86.12" y="-6.5" font-family="Helvetica,sans-Serif" font-size="10.00">string</text>
</a>
</g>
</g>
<!-- Node1&#45;&gt;Node3 -->
<g id="edge2_Node000001_Node000003" class="edge">
<title>Node1&#45;&gt;Node3</title>
<g id="a_edge2_Node000001_Node000003"><a xlink:title=" ">
<path fill="none" stroke="#63b8ff" d="M106.77,-111.75C102.14,-89.16 94.87,-53.69 90.31,-31.42"/>
<polygon fill="#63b8ff" stroke="#63b8ff" points="93.77,-30.88 88.33,-21.78 86.91,-32.28 93.77,-30.88"/>
</a>
</g>
</g>
<!-- Node4 -->
<g id="Node000004" class="node">
<title>Node4</title>
<g id="a_Node000004"><a xlink:href="_d_l_l_8h.html" target="_top" xlink:title=" ">
<polygon fill="white" stroke="#666666" points="236.25,-20 194,-20 194,0 236.25,0 236.25,-20"/>
<text text-anchor="middle" x="215.12" y="-6.5" font-family="Helvetica,sans-Serif" font-size="10.00">DLL.h</text>
</a>
</g>
</g>
<!-- Node1&#45;&gt;Node4 -->
<g id="edge3_Node000001_Node000004" class="edge">
<title>Node1&#45;&gt;Node4</title>
<g id="a_edge3_Node000001_Node000004"><a xlink:title=" ">
<path fill="none" stroke="#63b8ff" d="M133.41,-111.76C143.99,-101.32 156.59,-88.35 167.12,-76 180.04,-60.86 193.38,-42.54 202.71,-29.22"/>
<polygon fill="#63b8ff" stroke="#63b8ff" points="205.32,-31.6 208.13,-21.38 199.56,-27.62 205.32,-31.6"/>
</a>
</g>
</g>
<!-- Node5 -->
<g id="Node000005" class="node">
<title>Node5</title>
<g id="a_Node000005"><a xlink:href="_utils_8h.html" target="_top" xlink:title=" ">
<polygon fill="white" stroke="#666666" points="158.38,-76 113.88,-76 113.88,-56 158.38,-56 158.38,-76"/>
<text text-anchor="middle" x="136.12" y="-62.5" font-family="Helvetica,sans-Serif" font-size="10.00">Utils.h</text>
</a>
</g>
</g>
<!-- Node1&#45;&gt;Node5 -->
<g id="edge4_Node000001_Node000005" class="edge">
<title>Node1&#45;&gt;Node5</title>
<g id="a_edge4_Node000001_Node000005"><a xlink:title=" ">
<path fill="none" stroke="#63b8ff" d="M119.17,-111.75C122.17,-103.85 125.56,-94.9 128.51,-87.1"/>
<polygon fill="#63b8ff" stroke="#63b8ff" points="131.75,-88.43 132.02,-77.83 125.21,-85.95 131.75,-88.43"/>
</a>
</g>
</g>
<!-- Node5&#45;&gt;Node2 -->
<g id="edge5_Node000005_Node000002" class="edge">
<title>Node5&#45;&gt;Node2</title>
<g id="a_edge5_Node000005_Node000002"><a xlink:title=" ">
<path fill="none" stroke="#63b8ff" d="M116.62,-55.59C99.38,-47.28 73.97,-35.03 54.14,-25.47"/>
<polygon fill="#63b8ff" stroke="#63b8ff" points="55.68,-22.33 45.15,-21.14 52.64,-28.63 55.68,-22.33"/>
</a>
</g>
</g>
<!-- Node5&#45;&gt;Node3 -->
<g id="edge6_Node000005_Node000003" class="edge">
<title>Node5&#45;&gt;Node3</title>
<g id="a_edge6_Node000005_Node000003"><a xlink:title=" ">
<path fill="none" stroke="#63b8ff" d="M127.42,-55.59C120.53,-48.16 110.73,-37.58 102.41,-28.58"/>
<polygon fill="#63b8ff" stroke="#63b8ff" points="105.13,-26.37 95.76,-21.41 99.99,-31.12 105.13,-26.37"/>
</a>
</g>
</g>
<!-- Node5&#45;&gt;Node4 -->
<g id="edge8_Node000005_Node000004" class="edge">
<title>Node5&#45;&gt;Node4</title>
<g id="a_edge8_Node000005_Node000004"><a xlink:title=" ">
<path fill="none" stroke="#63b8ff" d="M149.89,-55.59C161.48,-47.67 178.32,-36.16 191.99,-26.82"/>
<polygon fill="#63b8ff" stroke="#63b8ff" points="193.73,-29.87 200.01,-21.33 189.78,-24.09 193.73,-29.87"/>
</a>
</g>
</g>
<!-- Node6 -->
<g id="Node000006" class="node">
<title>Node6</title>
<g id="a_Node000006"><a xlink:title=" ">
<polygon fill="#e0e0e0" stroke="#999999" points="175.75,-20 124.5,-20 124.5,0 175.75,0 175.75,-20"/>
<text text-anchor="middle" x="150.12" y="-6.5" font-family="Helvetica,sans-Serif" font-size="10.00">sstream</text>
</a>
</g>
</g>
<!-- Node5&#45;&gt;Node6 -->
<g id="edge7_Node000005_Node000006" class="edge">
<title>Node5&#45;&gt;Node6</title>
<g id="a_edge7_Node000005_Node000006"><a xlink:title=" ">
<path fill="none" stroke="#63b8ff" d="M138.56,-55.59C140.29,-48.93 142.67,-39.75 144.83,-31.44"/>
<polygon fill="#63b8ff" stroke="#63b8ff" points="148.21,-32.32 147.33,-21.76 141.44,-30.56 148.21,-32.32"/>
</a>
</g>
</g>
</g>
</svg>
