<?xml version="1.0" encoding="UTF-8" standalone="no"?>
<!DOCTYPE svg PUBLIC "-//W3C//DTD SVG 1.1//EN"
 "http://www.w3.org/Graphics/SVG/1.1/DTD/svg11.dtd">
<!-- Generated by graphviz version 12.2.1 (20241206.2353)
 -->
<!-- Title: C:/Users/emilly/Documents/Lucca/Projetos/Cpp/NikiScript/wrapper/PrintCallbackWrapper.cpp Pages: 1 -->
<svg width="225pt" height="276pt"
 viewBox="0.00 0.00 224.88 276.00" xmlns="http://www.w3.org/2000/svg" xmlns:xlink="http://www.w3.org/1999/xlink">
<g id="graph0" class="graph" transform="scale(1 1) rotate(0) translate(4 272)">
<title>C:/Users/emilly/Documents/Lucca/Projetos/Cpp/NikiScript/wrapper/PrintCallbackWrapper.cpp</title>
<!-- Node1 -->
<g id="Node000001" class="node">
<title>Node1</title>
<g id="a_Node000001"><a xlink:title=" ">
<polygon fill="#999999" stroke="#666666" points="169.75,-268 0,-268 0,-224 169.75,-224 169.75,-268"/>
<text text-anchor="start" x="8" y="-254.5" font-family="Helvetica,sans-Serif" font-size="10.00">C:/Users/emilly/Documents</text>
<text text-anchor="start" x="8" y="-242.5" font-family="Helvetica,sans-Serif" font-size="10.00">/Lucca/Projetos/Cpp/NikiScript</text>
<text text-anchor="middle" x="84.88" y="-230.5" font-family="Helvetica,sans-Serif" font-size="10.00">/wrapper/PrintCallbackWrapper.cpp</text>
</a>
</g>
</g>
<!-- Node2 -->
<g id="Node000002" class="node">
<title>Node2</title>
<g id="a_Node000002"><a xlink:href="_print_callback_wrapper_8h.html" target="_top" xlink:title=" ">
<polygon fill="white" stroke="#666666" points="144.25,-188 25.5,-188 25.5,-168 144.25,-168 144.25,-188"/>
<text text-anchor="middle" x="84.88" y="-174.5" font-family="Helvetica,sans-Serif" font-size="10.00">PrintCallbackWrapper.h</text>
</a>
</g>
</g>
<!-- Node1&#45;&gt;Node2 -->
<g id="edge1_Node000001_Node000002" class="edge">
<title>Node1&#45;&gt;Node2</title>
<g id="a_edge1_Node000001_Node000002"><a xlink:title=" ">
<path fill="none" stroke="#63b8ff" d="M84.88,-223.75C84.88,-216.13 84.88,-207.53 84.88,-199.93"/>
<polygon fill="#63b8ff" stroke="#63b8ff" points="88.38,-199.93 84.88,-189.93 81.38,-199.93 88.38,-199.93"/>
</a>
</g>
</g>
<!-- Node3 -->
<g id="Node000003" class="node">
<title>Node3</title>
<g id="a_Node000003"><a xlink:href="_d_l_l_export_8h.html" target="_top" xlink:title=" ">
<polygon fill="white" stroke="#666666" points="73.25,-132 2.5,-132 2.5,-112 73.25,-112 73.25,-132"/>
<text text-anchor="middle" x="37.88" y="-118.5" font-family="Helvetica,sans-Serif" font-size="10.00">DLLExport.h</text>
</a>
</g>
</g>
<!-- Node2&#45;&gt;Node3 -->
<g id="edge2_Node000002_Node000003" class="edge">
<title>Node2&#45;&gt;Node3</title>
<g id="a_edge2_Node000002_Node000003"><a xlink:title=" ">
<path fill="none" stroke="#63b8ff" d="M76.69,-167.59C70.29,-160.24 61.2,-149.8 53.42,-140.87"/>
<polygon fill="#63b8ff" stroke="#63b8ff" points="56.17,-138.69 46.96,-133.44 50.89,-143.28 56.17,-138.69"/>
</a>
</g>
</g>
<!-- Node4 -->
<g id="Node000004" class="node">
<title>Node4</title>
<g id="a_Node000004"><a xlink:href="_print_callback_8h.html" target="_top" xlink:title=" ">
<polygon fill="white" stroke="#666666" points="174.25,-132 91.5,-132 91.5,-112 174.25,-112 174.25,-132"/>
<text text-anchor="middle" x="132.88" y="-118.5" font-family="Helvetica,sans-Serif" font-size="10.00">PrintCallback.h</text>
</a>
</g>
</g>
<!-- Node2&#45;&gt;Node4 -->
<g id="edge3_Node000002_Node000004" class="edge">
<title>Node2&#45;&gt;Node4</title>
<g id="a_edge3_Node000002_Node000004"><a xlink:title=" ">
<path fill="none" stroke="#63b8ff" d="M93.24,-167.59C99.77,-160.24 109.06,-149.8 116.99,-140.87"/>
<polygon fill="#63b8ff" stroke="#63b8ff" points="119.58,-143.23 123.6,-133.43 114.34,-138.58 119.58,-143.23"/>
</a>
</g>
</g>
<!-- Node5 -->
<g id="Node000005" class="node">
<title>Node5</title>
<g id="a_Node000005"><a xlink:title=" ">
<polygon fill="#e0e0e0" stroke="#999999" points="89,-20 40.75,-20 40.75,0 89,0 89,-20"/>
<text text-anchor="middle" x="64.88" y="-6.5" font-family="Helvetica,sans-Serif" font-size="10.00">stdint.h</text>
</a>
</g>
</g>
<!-- Node4&#45;&gt;Node5 -->
<g id="edge4_Node000004_Node000005" class="edge">
<title>Node4&#45;&gt;Node5</title>
<g id="a_edge4_Node000004_Node000005"><a xlink:title=" ">
<path fill="none" stroke="#63b8ff" d="M125.98,-111.5C119.53,-102.5 109.74,-88.54 101.88,-76 92.39,-60.88 82.42,-43.25 75.22,-30.17"/>
<polygon fill="#63b8ff" stroke="#63b8ff" points="78.48,-28.84 70.62,-21.73 72.34,-32.19 78.48,-28.84"/>
</a>
</g>
</g>
<!-- Node6 -->
<g id="Node000006" class="node">
<title>Node6</title>
<g id="a_Node000006"><a xlink:title=" ">
<polygon fill="#e0e0e0" stroke="#999999" points="216.88,-20 176.88,-20 176.88,0 216.88,0 216.88,-20"/>
<text text-anchor="middle" x="196.88" y="-6.5" font-family="Helvetica,sans-Serif" font-size="10.00">string</text>
</a>
</g>
</g>
<!-- Node4&#45;&gt;Node6 -->
<g id="edge5_Node000004_Node000006" class="edge">
<title>Node4&#45;&gt;Node6</title>
<g id="a_edge5_Node000004_Node000006"><a xlink:title=" ">
<path fill="none" stroke="#63b8ff" d="M139.91,-111.59C146.45,-102.65 156.31,-88.72 163.88,-76 172.68,-61.19 181.45,-43.75 187.74,-30.67"/>
<polygon fill="#63b8ff" stroke="#63b8ff" points="190.8,-32.37 191.91,-21.84 184.47,-29.38 190.8,-32.37"/>
</a>
</g>
</g>
<!-- Node7 -->
<g id="Node000007" class="node">
<title>Node7</title>
<g id="a_Node000007"><a xlink:href="_utils_8h.html" target="_top" xlink:title=" ">
<polygon fill="white" stroke="#666666" points="155.12,-76 110.62,-76 110.62,-56 155.12,-56 155.12,-76"/>
<text text-anchor="middle" x="132.88" y="-62.5" font-family="Helvetica,sans-Serif" font-size="10.00">Utils.h</text>
</a>
</g>
</g>
<!-- Node4&#45;&gt;Node7 -->
<g id="edge6_Node000004_Node000007" class="edge">
<title>Node4&#45;&gt;Node7</title>
<g id="a_edge6_Node000004_Node000007"><a xlink:title=" ">
<path fill="none" stroke="#63b8ff" d="M132.88,-111.59C132.88,-105.01 132.88,-95.96 132.88,-87.73"/>
<polygon fill="#63b8ff" stroke="#63b8ff" points="136.38,-87.81 132.88,-77.81 129.38,-87.81 136.38,-87.81"/>
</a>
</g>
</g>
<!-- Node7&#45;&gt;Node5 -->
<g id="edge7_Node000007_Node000005" class="edge">
<title>Node7&#45;&gt;Node5</title>
<g id="a_edge7_Node000007_Node000005"><a xlink:title=" ">
<path fill="none" stroke="#63b8ff" d="M121.03,-55.59C111.18,-47.77 96.94,-36.46 85.27,-27.19"/>
<polygon fill="#63b8ff" stroke="#63b8ff" points="87.78,-24.72 77.77,-21.24 83.42,-30.2 87.78,-24.72"/>
</a>
</g>
</g>
<!-- Node7&#45;&gt;Node6 -->
<g id="edge8_Node000007_Node000006" class="edge">
<title>Node7&#45;&gt;Node6</title>
<g id="a_edge8_Node000007_Node000006"><a xlink:title=" ">
<path fill="none" stroke="#63b8ff" d="M144.02,-55.59C153.2,-47.85 166.43,-36.69 177.36,-27.47"/>
<polygon fill="#63b8ff" stroke="#63b8ff" points="179.31,-30.4 184.7,-21.27 174.8,-25.05 179.31,-30.4"/>
</a>
</g>
</g>
<!-- Node8 -->
<g id="Node000008" class="node">
<title>Node8</title>
<g id="a_Node000008"><a xlink:title=" ">
<polygon fill="#e0e0e0" stroke="#999999" points="158.5,-20 107.25,-20 107.25,0 158.5,0 158.5,-20"/>
<text text-anchor="middle" x="132.88" y="-6.5" font-family="Helvetica,sans-Serif" font-size="10.00">sstream</text>
</a>
</g>
</g>
<!-- Node7&#45;&gt;Node8 -->
<g id="edge9_Node000007_Node000008" class="edge">
<title>Node7&#45;&gt;Node8</title>
<g id="a_edge9_Node000007_Node000008"><a xlink:title=" ">
<path fill="none" stroke="#63b8ff" d="M132.88,-55.59C132.88,-49.01 132.88,-39.96 132.88,-31.73"/>
<polygon fill="#63b8ff" stroke="#63b8ff" points="136.38,-31.81 132.88,-21.81 129.38,-31.81 136.38,-31.81"/>
</a>
</g>
</g>
</g>
</svg>
