<?xml version="1.0" encoding="UTF-8" standalone="no"?>
<!DOCTYPE svg PUBLIC "-//W3C//DTD SVG 1.1//EN"
 "http://www.w3.org/Graphics/SVG/1.1/DTD/svg11.dtd">
<!-- Generated by graphviz version 12.2.1 (20241206.2353)
 -->
<!-- Title: C:/Users/emilly/Documents/Lucca/Projetos/Cpp/NikiScript/src/PrintCallback.h Pages: 1 -->
<svg width="184pt" height="164pt"
 viewBox="0.00 0.00 184.12 164.00" xmlns="http://www.w3.org/2000/svg" xmlns:xlink="http://www.w3.org/1999/xlink">
<g id="graph0" class="graph" transform="scale(1 1) rotate(0) translate(4 160)">
<title>C:/Users/emilly/Documents/Lucca/Projetos/Cpp/NikiScript/src/PrintCallback.h</title>
<!-- Node1 -->
<g id="Node000001" class="node">
<title>Node1</title>
<g id="a_Node000001"><a xlink:title=" ">
<polygon fill="#999999" stroke="#666666" points="167.62,-156 16.62,-156 16.62,-112 167.62,-112 167.62,-156"/>
<text text-anchor="start" x="24.62" y="-142.5" font-family="Helvetica,sans-Serif" font-size="10.00">C:/Users/emilly/Documents</text>
<text text-anchor="start" x="24.62" y="-130.5" font-family="Helvetica,sans-Serif" font-size="10.00">/Lucca/Projetos/Cpp/NikiScript</text>
<text text-anchor="middle" x="92.12" y="-118.5" font-family="Helvetica,sans-Serif" font-size="10.00">/src/PrintCallback.h</text>
</a>
</g>
</g>
<!-- Node2 -->
<g id="Node000002" class="node">
<title>Node2</title>
<g id="a_Node000002"><a xlink:title=" ">
<polygon fill="#e0e0e0" stroke="#999999" points="48.25,-20 0,-20 0,0 48.25,0 48.25,-20"/>
<text text-anchor="middle" x="24.12" y="-6.5" font-family="Helvetica,sans-Serif" font-size="10.00">stdint.h</text>
</a>
</g>
</g>
<!-- Node1&#45;&gt;Node2 -->
<g id="edge1_Node000001_Node000002" class="edge">
<title>Node1&#45;&gt;Node2</title>
<g id="a_edge1_Node000001_Node000002"><a xlink:title=" ">
<path fill="none" stroke="#63b8ff" d="M80.28,-111.75C67.45,-88.74 47.18,-52.36 34.82,-30.19"/>
<polygon fill="#63b8ff" stroke="#63b8ff" points="37.97,-28.65 30.05,-21.62 31.86,-32.06 37.97,-28.65"/>
</a>
</g>
</g>
<!-- Node3 -->
<g id="Node000003" class="node">
<title>Node3</title>
<g id="a_Node000003"><a xlink:title=" ">
<polygon fill="#e0e0e0" stroke="#999999" points="176.12,-20 136.12,-20 136.12,0 176.12,0 176.12,-20"/>
<text text-anchor="middle" x="156.12" y="-6.5" font-family="Helvetica,sans-Serif" font-size="10.00">string</text>
</a>
</g>
</g>
<!-- Node1&#45;&gt;Node3 -->
<g id="edge2_Node000001_Node000003" class="edge">
<title>Node1&#45;&gt;Node3</title>
<g id="a_edge2_Node000001_Node000003"><a xlink:title=" ">
<path fill="none" stroke="#63b8ff" d="M103.9,-111.69C109.75,-101.02 116.89,-87.87 123.12,-76 131.14,-60.75 139.96,-43.34 146.47,-30.38"/>
<polygon fill="#63b8ff" stroke="#63b8ff" points="149.49,-32.16 150.83,-21.65 143.23,-29.03 149.49,-32.16"/>
</a>
</g>
</g>
<!-- Node4 -->
<g id="Node000004" class="node">
<title>Node4</title>
<g id="a_Node000004"><a xlink:href="_utils_8h.html" target="_top" xlink:title=" ">
<polygon fill="white" stroke="#666666" points="114.38,-76 69.88,-76 69.88,-56 114.38,-56 114.38,-76"/>
<text text-anchor="middle" x="92.12" y="-62.5" font-family="Helvetica,sans-Serif" font-size="10.00">Utils.h</text>
</a>
</g>
</g>
<!-- Node1&#45;&gt;Node4 -->
<g id="edge3_Node000001_Node000004" class="edge">
<title>Node1&#45;&gt;Node4</title>
<g id="a_edge3_Node000001_Node000004"><a xlink:title=" ">
<path fill="none" stroke="#63b8ff" d="M92.12,-111.75C92.12,-104.13 92.12,-95.53 92.12,-87.93"/>
<polygon fill="#63b8ff" stroke="#63b8ff" points="95.63,-87.93 92.13,-77.93 88.63,-87.93 95.63,-87.93"/>
</a>
</g>
</g>
<!-- Node4&#45;&gt;Node2 -->
<g id="edge4_Node000004_Node000002" class="edge">
<title>Node4&#45;&gt;Node2</title>
<g id="a_edge4_Node000004_Node000002"><a xlink:title=" ">
<path fill="none" stroke="#63b8ff" d="M80.28,-55.59C70.43,-47.77 56.19,-36.46 44.52,-27.19"/>
<polygon fill="#63b8ff" stroke="#63b8ff" points="47.03,-24.72 37.02,-21.24 42.67,-30.2 47.03,-24.72"/>
</a>
</g>
</g>
<!-- Node4&#45;&gt;Node3 -->
<g id="edge5_Node000004_Node000003" class="edge">
<title>Node4&#45;&gt;Node3</title>
<g id="a_edge5_Node000004_Node000003"><a xlink:title=" ">
<path fill="none" stroke="#63b8ff" d="M103.27,-55.59C112.45,-47.85 125.68,-36.69 136.61,-27.47"/>
<polygon fill="#63b8ff" stroke="#63b8ff" points="138.56,-30.4 143.95,-21.27 134.05,-25.05 138.56,-30.4"/>
</a>
</g>
</g>
<!-- Node5 -->
<g id="Node000005" class="node">
<title>Node5</title>
<g id="a_Node000005"><a xlink:title=" ">
<polygon fill="#e0e0e0" stroke="#999999" points="117.75,-20 66.5,-20 66.5,0 117.75,0 117.75,-20"/>
<text text-anchor="middle" x="92.12" y="-6.5" font-family="Helvetica,sans-Serif" font-size="10.00">sstream</text>
</a>
</g>
</g>
<!-- Node4&#45;&gt;Node5 -->
<g id="edge6_Node000004_Node000005" class="edge">
<title>Node4&#45;&gt;Node5</title>
<g id="a_edge6_Node000004_Node000005"><a xlink:title=" ">
<path fill="none" stroke="#63b8ff" d="M92.12,-55.59C92.12,-49.01 92.12,-39.96 92.12,-31.73"/>
<polygon fill="#63b8ff" stroke="#63b8ff" points="95.63,-31.81 92.13,-21.81 88.63,-31.81 95.63,-31.81"/>
</a>
</g>
</g>
</g>
</svg>
