<?xml version="1.0" encoding="UTF-8" standalone="no"?>
<!DOCTYPE svg PUBLIC "-//W3C//DTD SVG 1.1//EN"
 "http://www.w3.org/Graphics/SVG/1.1/DTD/svg11.dtd">
<!-- Generated by graphviz version 12.2.1 (20241206.2353)
 -->
<!-- Title: C:/Users/emilly/Documents/Lucca/Projetos/Cpp/NikiScript/src/PrintCallback.h Pages: 1 -->
<svg width="1583pt" height="292pt"
 viewBox="0.00 0.00 1583.05 292.00" xmlns="http://www.w3.org/2000/svg" xmlns:xlink="http://www.w3.org/1999/xlink">
<g id="graph0" class="graph" transform="scale(1 1) rotate(0) translate(4 288)">
<title>C:/Users/emilly/Documents/Lucca/Projetos/Cpp/NikiScript/src/PrintCallback.h</title>
<!-- Node1 -->
<g id="Node000001" class="node">
<title>Node1</title>
<g id="a_Node000001"><a xlink:title=" ">
<polygon fill="#999999" stroke="#666666" points="1276.05,-284 1125.05,-284 1125.05,-240 1276.05,-240 1276.05,-284"/>
<text text-anchor="start" x="1133.05" y="-270.5" font-family="Helvetica,sans-Serif" font-size="10.00">C:/Users/emilly/Documents</text>
<text text-anchor="start" x="1133.05" y="-258.5" font-family="Helvetica,sans-Serif" font-size="10.00">/Lucca/Projetos/Cpp/NikiScript</text>
<text text-anchor="middle" x="1200.55" y="-246.5" font-family="Helvetica,sans-Serif" font-size="10.00">/src/PrintCallback.h</text>
</a>
</g>
</g>
<!-- Node2 -->
<g id="Node000002" class="node">
<title>Node2</title>
<g id="a_Node000002"><a xlink:href="example_8cpp.html" target="_top" xlink:title=" ">
<polygon fill="white" stroke="#666666" points="454.05,-44 303.05,-44 303.05,0 454.05,0 454.05,-44"/>
<text text-anchor="start" x="311.05" y="-30.5" font-family="Helvetica,sans-Serif" font-size="10.00">C:/Users/emilly/Documents</text>
<text text-anchor="start" x="311.05" y="-18.5" font-family="Helvetica,sans-Serif" font-size="10.00">/Lucca/Projetos/Cpp/NikiScript</text>
<text text-anchor="middle" x="378.55" y="-6.5" font-family="Helvetica,sans-Serif" font-size="10.00">/example/src/example.cpp</text>
</a>
</g>
</g>
<!-- Node1&#45;&gt;Node2 -->
<g id="edge1_Node000001_Node000002" class="edge">
<title>Node1&#45;&gt;Node2</title>
<g id="a_edge1_Node000001_Node000002"><a xlink:title=" ">
<path fill="none" stroke="#63b8ff" d="M1113.36,-257.66C850.83,-246.72 81.38,-207.7 9.55,-124 -3.19,-109.16 -3.18,-94.85 9.55,-80 46.52,-36.88 205.8,-26.08 302.6,-23.56"/>
<polygon fill="#63b8ff" stroke="#63b8ff" points="1113.08,-261.16 1123.22,-258.07 1113.37,-254.16 1113.08,-261.16"/>
</a>
</g>
</g>
<!-- Node3 -->
<g id="Node000003" class="node">
<title>Node3</title>
<g id="a_Node000003"><a xlink:href="_command_8cpp.html" target="_top" xlink:title=" ">
<polygon fill="white" stroke="#666666" points="1406.05,-204 1255.05,-204 1255.05,-160 1406.05,-160 1406.05,-204"/>
<text text-anchor="start" x="1263.05" y="-190.5" font-family="Helvetica,sans-Serif" font-size="10.00">C:/Users/emilly/Documents</text>
<text text-anchor="start" x="1263.05" y="-178.5" font-family="Helvetica,sans-Serif" font-size="10.00">/Lucca/Projetos/Cpp/NikiScript</text>
<text text-anchor="middle" x="1330.55" y="-166.5" font-family="Helvetica,sans-Serif" font-size="10.00">/src/Command.cpp</text>
</a>
</g>
</g>
<!-- Node1&#45;&gt;Node3 -->
<g id="edge2_Node000001_Node000003" class="edge">
<title>Node1&#45;&gt;Node3</title>
<g id="a_edge2_Node000001_Node000003"><a xlink:title=" ">
<path fill="none" stroke="#63b8ff" d="M1245.84,-233.82C1261.97,-224.15 1279.88,-213.4 1295.07,-204.29"/>
<polygon fill="#63b8ff" stroke="#63b8ff" points="1244.14,-230.76 1237.37,-238.91 1247.75,-236.76 1244.14,-230.76"/>
</a>
</g>
</g>
<!-- Node4 -->
<g id="Node000004" class="node">
<title>Node4</title>
<g id="a_Node000004"><a xlink:href="_context_8h.html" target="_top" xlink:title=" ">
<polygon fill="white" stroke="#666666" points="691.05,-204 540.05,-204 540.05,-160 691.05,-160 691.05,-204"/>
<text text-anchor="start" x="548.05" y="-190.5" font-family="Helvetica,sans-Serif" font-size="10.00">C:/Users/emilly/Documents</text>
<text text-anchor="start" x="548.05" y="-178.5" font-family="Helvetica,sans-Serif" font-size="10.00">/Lucca/Projetos/Cpp/NikiScript</text>
<text text-anchor="middle" x="615.55" y="-166.5" font-family="Helvetica,sans-Serif" font-size="10.00">/src/Context.h</text>
</a>
</g>
</g>
<!-- Node1&#45;&gt;Node4 -->
<g id="edge3_Node000001_Node000004" class="edge">
<title>Node1&#45;&gt;Node4</title>
<g id="a_edge3_Node000001_Node000004"><a xlink:title=" ">
<path fill="none" stroke="#63b8ff" d="M1113.53,-249.4C999.08,-234.14 799.83,-207.57 691.29,-193.1"/>
<polygon fill="#63b8ff" stroke="#63b8ff" points="1112.8,-252.83 1123.17,-250.68 1113.72,-245.89 1112.8,-252.83"/>
</a>
</g>
</g>
<!-- Node7 -->
<g id="Node000007" class="node">
<title>Node7</title>
<g id="a_Node000007"><a xlink:href="_lexer_8cpp.html" target="_top" xlink:title=" ">
<polygon fill="white" stroke="#666666" points="1198.05,-124 1047.05,-124 1047.05,-80 1198.05,-80 1198.05,-124"/>
<text text-anchor="start" x="1055.05" y="-110.5" font-family="Helvetica,sans-Serif" font-size="10.00">C:/Users/emilly/Documents</text>
<text text-anchor="start" x="1055.05" y="-98.5" font-family="Helvetica,sans-Serif" font-size="10.00">/Lucca/Projetos/Cpp/NikiScript</text>
<text text-anchor="middle" x="1122.55" y="-86.5" font-family="Helvetica,sans-Serif" font-size="10.00">/src/Lexer.cpp</text>
</a>
</g>
</g>
<!-- Node1&#45;&gt;Node7 -->
<g id="edge17_Node000001_Node000007" class="edge">
<title>Node1&#45;&gt;Node7</title>
<g id="a_edge17_Node000001_Node000007"><a xlink:title=" ">
<path fill="none" stroke="#63b8ff" d="M1184.94,-229.38C1169.57,-198.25 1146.51,-151.53 1133.15,-124.48"/>
<polygon fill="#63b8ff" stroke="#63b8ff" points="1181.79,-230.92 1189.36,-238.33 1188.07,-227.82 1181.79,-230.92"/>
</a>
</g>
</g>
<!-- Node11 -->
<g id="Node000011" class="node">
<title>Node11</title>
<g id="a_Node000011"><a xlink:href="_parser_8cpp.html" target="_top" xlink:title=" ">
<polygon fill="white" stroke="#666666" points="1233.05,-44 1082.05,-44 1082.05,0 1233.05,0 1233.05,-44"/>
<text text-anchor="start" x="1090.05" y="-30.5" font-family="Helvetica,sans-Serif" font-size="10.00">C:/Users/emilly/Documents</text>
<text text-anchor="start" x="1090.05" y="-18.5" font-family="Helvetica,sans-Serif" font-size="10.00">/Lucca/Projetos/Cpp/NikiScript</text>
<text text-anchor="middle" x="1157.55" y="-6.5" font-family="Helvetica,sans-Serif" font-size="10.00">/src/Parser.cpp</text>
</a>
</g>
</g>
<!-- Node1&#45;&gt;Node11 -->
<g id="edge18_Node000001_Node000011" class="edge">
<title>Node1&#45;&gt;Node11</title>
<g id="a_edge18_Node000001_Node000011"><a xlink:title=" ">
<path fill="none" stroke="#63b8ff" d="M1209.22,-228.36C1217.44,-191.15 1226.04,-129.13 1207.55,-80 1202.45,-66.45 1192.5,-54.02 1182.81,-44.25"/>
<polygon fill="#63b8ff" stroke="#63b8ff" points="1205.82,-227.51 1206.94,-238.05 1212.64,-229.11 1205.82,-227.51"/>
</a>
</g>
</g>
<!-- Node14 -->
<g id="Node000014" class="node">
<title>Node14</title>
<g id="a_Node000014"><a xlink:href="_print_callback_8cpp.html" target="_top" xlink:title=" ">
<polygon fill="white" stroke="#666666" points="1575.05,-204 1424.05,-204 1424.05,-160 1575.05,-160 1575.05,-204"/>
<text text-anchor="start" x="1432.05" y="-190.5" font-family="Helvetica,sans-Serif" font-size="10.00">C:/Users/emilly/Documents</text>
<text text-anchor="start" x="1432.05" y="-178.5" font-family="Helvetica,sans-Serif" font-size="10.00">/Lucca/Projetos/Cpp/NikiScript</text>
<text text-anchor="middle" x="1499.55" y="-166.5" font-family="Helvetica,sans-Serif" font-size="10.00">/src/PrintCallback.cpp</text>
</a>
</g>
</g>
<!-- Node1&#45;&gt;Node14 -->
<g id="edge19_Node000001_Node000014" class="edge">
<title>Node1&#45;&gt;Node14</title>
<g id="a_edge19_Node000001_Node000014"><a xlink:title=" ">
<path fill="none" stroke="#63b8ff" d="M1287.45,-238.33C1330.61,-227.07 1382.27,-213.6 1423.79,-202.76"/>
<polygon fill="#63b8ff" stroke="#63b8ff" points="1286.64,-234.92 1277.85,-240.83 1288.41,-241.7 1286.64,-234.92"/>
</a>
</g>
</g>
<!-- Node4&#45;&gt;Node2 -->
<g id="edge4_Node000004_Node000002" class="edge">
<title>Node4&#45;&gt;Node2</title>
<g id="a_edge4_Node000004_Node000002"><a xlink:title=" ">
<path fill="none" stroke="#63b8ff" d="M528.27,-178.94C371.83,-174.35 56.8,-160.61 23.55,-124 10.4,-109.52 10.86,-94.88 23.55,-80 58.67,-38.79 209.25,-27.26 302.65,-24.1"/>
<polygon fill="#63b8ff" stroke="#63b8ff" points="528.1,-182.44 538.2,-179.23 528.3,-175.44 528.1,-182.44"/>
</a>
</g>
</g>
<!-- Node5 -->
<g id="Node000005" class="node">
<title>Node5</title>
<g id="a_Node000005"><a xlink:href="_command_handler_8cpp.html" target="_top" xlink:title=" ">
<polygon fill="white" stroke="#666666" points="184.05,-124 33.05,-124 33.05,-80 184.05,-80 184.05,-124"/>
<text text-anchor="start" x="41.05" y="-110.5" font-family="Helvetica,sans-Serif" font-size="10.00">C:/Users/emilly/Documents</text>
<text text-anchor="start" x="41.05" y="-98.5" font-family="Helvetica,sans-Serif" font-size="10.00">/Lucca/Projetos/Cpp/NikiScript</text>
<text text-anchor="middle" x="108.55" y="-86.5" font-family="Helvetica,sans-Serif" font-size="10.00">/src/CommandHandler.cpp</text>
</a>
</g>
</g>
<!-- Node4&#45;&gt;Node5 -->
<g id="edge5_Node000004_Node000005" class="edge">
<title>Node4&#45;&gt;Node5</title>
<g id="a_edge5_Node000004_Node000005"><a xlink:title=" ">
<path fill="none" stroke="#63b8ff" d="M528.62,-172.14C442.78,-162.73 307.99,-146.14 192.55,-124 189.89,-123.49 187.19,-122.95 184.47,-122.38"/>
<polygon fill="#63b8ff" stroke="#63b8ff" points="528.05,-175.6 538.37,-173.2 528.81,-168.64 528.05,-175.6"/>
</a>
</g>
</g>
<!-- Node6 -->
<g id="Node000006" class="node">
<title>Node6</title>
<g id="a_Node000006"><a xlink:href="_context_8cpp.html" target="_top" xlink:title=" ">
<polygon fill="white" stroke="#666666" points="353.05,-124 202.05,-124 202.05,-80 353.05,-80 353.05,-124"/>
<text text-anchor="start" x="210.05" y="-110.5" font-family="Helvetica,sans-Serif" font-size="10.00">C:/Users/emilly/Documents</text>
<text text-anchor="start" x="210.05" y="-98.5" font-family="Helvetica,sans-Serif" font-size="10.00">/Lucca/Projetos/Cpp/NikiScript</text>
<text text-anchor="middle" x="277.55" y="-86.5" font-family="Helvetica,sans-Serif" font-size="10.00">/src/Context.cpp</text>
</a>
</g>
</g>
<!-- Node4&#45;&gt;Node6 -->
<g id="edge6_Node000004_Node000006" class="edge">
<title>Node4&#45;&gt;Node6</title>
<g id="a_edge6_Node000004_Node000006"><a xlink:title=" ">
<path fill="none" stroke="#63b8ff" d="M528.37,-161.98C479.29,-151.14 416.93,-137.13 361.55,-124 358.92,-123.38 356.24,-122.74 353.54,-122.08"/>
<polygon fill="#63b8ff" stroke="#63b8ff" points="527.59,-165.39 538.11,-164.13 529.09,-158.56 527.59,-165.39"/>
</a>
</g>
</g>
<!-- Node4&#45;&gt;Node7 -->
<g id="edge7_Node000004_Node000007" class="edge">
<title>Node4&#45;&gt;Node7</title>
<g id="a_edge7_Node000004_Node000007"><a xlink:title=" ">
<path fill="none" stroke="#63b8ff" d="M702.48,-172.14C788.32,-162.73 923.11,-146.14 1038.55,-124 1041.21,-123.49 1043.91,-122.95 1046.63,-122.38"/>
<polygon fill="#63b8ff" stroke="#63b8ff" points="702.29,-168.64 692.73,-173.2 703.05,-175.6 702.29,-168.64"/>
</a>
</g>
</g>
<!-- Node8 -->
<g id="Node000008" class="node">
<title>Node8</title>
<g id="a_Node000008"><a xlink:href="_niki_script_8h.html" target="_top" xlink:title=" ">
<polygon fill="white" stroke="#666666" points="860.05,-124 709.05,-124 709.05,-80 860.05,-80 860.05,-124"/>
<text text-anchor="start" x="717.05" y="-110.5" font-family="Helvetica,sans-Serif" font-size="10.00">C:/Users/emilly/Documents</text>
<text text-anchor="start" x="717.05" y="-98.5" font-family="Helvetica,sans-Serif" font-size="10.00">/Lucca/Projetos/Cpp/NikiScript</text>
<text text-anchor="middle" x="784.55" y="-86.5" font-family="Helvetica,sans-Serif" font-size="10.00">/src/NikiScript.h</text>
</a>
</g>
</g>
<!-- Node4&#45;&gt;Node8 -->
<g id="edge8_Node000004_Node000008" class="edge">
<title>Node4&#45;&gt;Node8</title>
<g id="a_edge8_Node000004_Node000008"><a xlink:title=" ">
<path fill="none" stroke="#63b8ff" d="M672.02,-154.93C693.5,-145.02 717.69,-133.86 738.13,-124.42"/>
<polygon fill="#63b8ff" stroke="#63b8ff" points="670.72,-151.68 663.1,-159.05 673.65,-158.04 670.72,-151.68"/>
</a>
</g>
</g>
<!-- Node10 -->
<g id="Node000010" class="node">
<title>Node10</title>
<g id="a_Node000010"><a xlink:href="_parser_8h.html" target="_top" xlink:title=" ">
<polygon fill="white" stroke="#666666" points="1029.05,-124 878.05,-124 878.05,-80 1029.05,-80 1029.05,-124"/>
<text text-anchor="start" x="886.05" y="-110.5" font-family="Helvetica,sans-Serif" font-size="10.00">C:/Users/emilly/Documents</text>
<text text-anchor="start" x="886.05" y="-98.5" font-family="Helvetica,sans-Serif" font-size="10.00">/Lucca/Projetos/Cpp/NikiScript</text>
<text text-anchor="middle" x="953.55" y="-86.5" font-family="Helvetica,sans-Serif" font-size="10.00">/src/Parser.h</text>
</a>
</g>
</g>
<!-- Node4&#45;&gt;Node10 -->
<g id="edge11_Node000004_Node000010" class="edge">
<title>Node4&#45;&gt;Node10</title>
<g id="a_edge11_Node000004_Node000010"><a xlink:title=" ">
<path fill="none" stroke="#63b8ff" d="M702.64,-161.84C751.47,-150.99 813.47,-137.01 868.55,-124 871.51,-123.3 874.52,-122.58 877.57,-121.85"/>
<polygon fill="#63b8ff" stroke="#63b8ff" points="701.96,-158.41 692.96,-163.99 703.48,-165.24 701.96,-158.41"/>
</a>
</g>
</g>
<!-- Node12 -->
<g id="Node000012" class="node">
<title>Node12</title>
<g id="a_Node000012"><a xlink:href="_program_variable_8cpp.html" target="_top" xlink:title=" ">
<polygon fill="white" stroke="#666666" points="522.05,-124 371.05,-124 371.05,-80 522.05,-80 522.05,-124"/>
<text text-anchor="start" x="379.05" y="-110.5" font-family="Helvetica,sans-Serif" font-size="10.00">C:/Users/emilly/Documents</text>
<text text-anchor="start" x="379.05" y="-98.5" font-family="Helvetica,sans-Serif" font-size="10.00">/Lucca/Projetos/Cpp/NikiScript</text>
<text text-anchor="middle" x="446.55" y="-86.5" font-family="Helvetica,sans-Serif" font-size="10.00">/src/ProgramVariable.cpp</text>
</a>
</g>
</g>
<!-- Node4&#45;&gt;Node12 -->
<g id="edge15_Node000004_Node000012" class="edge">
<title>Node4&#45;&gt;Node12</title>
<g id="a_edge15_Node000004_Node000012"><a xlink:title=" ">
<path fill="none" stroke="#63b8ff" d="M559.08,-154.93C537.6,-145.02 513.4,-133.86 492.97,-124.42"/>
<polygon fill="#63b8ff" stroke="#63b8ff" points="557.45,-158.04 568,-159.05 560.38,-151.68 557.45,-158.04"/>
</a>
</g>
</g>
<!-- Node13 -->
<g id="Node000013" class="node">
<title>Node13</title>
<g id="a_Node000013"><a xlink:href="_token_8cpp.html" target="_top" xlink:title=" ">
<polygon fill="white" stroke="#666666" points="691.05,-124 540.05,-124 540.05,-80 691.05,-80 691.05,-124"/>
<text text-anchor="start" x="548.05" y="-110.5" font-family="Helvetica,sans-Serif" font-size="10.00">C:/Users/emilly/Documents</text>
<text text-anchor="start" x="548.05" y="-98.5" font-family="Helvetica,sans-Serif" font-size="10.00">/Lucca/Projetos/Cpp/NikiScript</text>
<text text-anchor="middle" x="615.55" y="-86.5" font-family="Helvetica,sans-Serif" font-size="10.00">/src/Token.cpp</text>
</a>
</g>
</g>
<!-- Node4&#45;&gt;Node13 -->
<g id="edge16_Node000004_Node000013" class="edge">
<title>Node4&#45;&gt;Node13</title>
<g id="a_edge16_Node000004_Node000013"><a xlink:title=" ">
<path fill="none" stroke="#63b8ff" d="M615.55,-148.25C615.55,-140.15 615.55,-131.68 615.55,-124.29"/>
<polygon fill="#63b8ff" stroke="#63b8ff" points="612.05,-148.17 615.55,-158.17 619.05,-148.17 612.05,-148.17"/>
</a>
</g>
</g>
<!-- Node8&#45;&gt;Node2 -->
<g id="edge9_Node000008_Node000002" class="edge">
<title>Node8&#45;&gt;Node2</title>
<g id="a_edge9_Node000008_Node000002"><a xlink:title=" ">
<path fill="none" stroke="#63b8ff" d="M697.48,-79.62C608.4,-60.98 516.99,-45.25 454.38,-35.01"/>
<polygon fill="#63b8ff" stroke="#63b8ff" points="696.62,-83.02 707.13,-81.66 698.06,-76.17 696.62,-83.02"/>
</a>
</g>
</g>
<!-- Node9 -->
<g id="Node000009" class="node">
<title>Node9</title>
<g id="a_Node000009"><a xlink:href="_niki_script_8cpp.html" target="_top" xlink:title=" ">
<polygon fill="white" stroke="#666666" points="928.05,-44 777.05,-44 777.05,0 928.05,0 928.05,-44"/>
<text text-anchor="start" x="785.05" y="-30.5" font-family="Helvetica,sans-Serif" font-size="10.00">C:/Users/emilly/Documents</text>
<text text-anchor="start" x="785.05" y="-18.5" font-family="Helvetica,sans-Serif" font-size="10.00">/Lucca/Projetos/Cpp/NikiScript</text>
<text text-anchor="middle" x="852.55" y="-6.5" font-family="Helvetica,sans-Serif" font-size="10.00">/src/NikiScript.cpp</text>
</a>
</g>
</g>
<!-- Node8&#45;&gt;Node9 -->
<g id="edge10_Node000008_Node000009" class="edge">
<title>Node8&#45;&gt;Node9</title>
<g id="a_edge10_Node000008_Node000009"><a xlink:title=" ">
<path fill="none" stroke="#63b8ff" d="M810.65,-71.06C818.43,-62.13 826.8,-52.54 833.99,-44.29"/>
<polygon fill="#63b8ff" stroke="#63b8ff" points="808.06,-68.71 804.13,-78.55 813.33,-73.31 808.06,-68.71"/>
</a>
</g>
</g>
<!-- Node10&#45;&gt;Node2 -->
<g id="edge12_Node000010_Node000002" class="edge">
<title>Node10&#45;&gt;Node2</title>
<g id="a_edge12_Node000010_Node000002"><a xlink:title=" ">
<path fill="none" stroke="#63b8ff" d="M866.76,-79.79C715.16,-52.92 548.97,-36.77 454.54,-28.84"/>
<polygon fill="#63b8ff" stroke="#63b8ff" points="865.7,-83.16 876.16,-81.48 866.94,-76.27 865.7,-83.16"/>
</a>
</g>
</g>
<!-- Node10&#45;&gt;Node9 -->
<g id="edge13_Node000010_Node000009" class="edge">
<title>Node10&#45;&gt;Node9</title>
<g id="a_edge13_Node000010_Node000009"><a xlink:title=" ">
<path fill="none" stroke="#63b8ff" d="M916.94,-72.72C904.78,-63.34 891.47,-53.06 880.11,-44.29"/>
<polygon fill="#63b8ff" stroke="#63b8ff" points="914.7,-75.42 924.75,-78.76 918.98,-69.88 914.7,-75.42"/>
</a>
</g>
</g>
<!-- Node10&#45;&gt;Node11 -->
<g id="edge14_Node000010_Node000011" class="edge">
<title>Node10&#45;&gt;Node11</title>
<g id="a_edge14_Node000010_Node000011"><a xlink:title=" ">
<path fill="none" stroke="#63b8ff" d="M1020.22,-75.51C1046.56,-65.44 1076.48,-54 1101.66,-44.37"/>
<polygon fill="#63b8ff" stroke="#63b8ff" points="1019.07,-72.2 1010.98,-79.04 1021.57,-78.74 1019.07,-72.2"/>
</a>
</g>
</g>
</g>
</svg>
