<?xml version="1.0" encoding="UTF-8" standalone="no"?>
<!DOCTYPE svg PUBLIC "-//W3C//DTD SVG 1.1//EN"
 "http://www.w3.org/Graphics/SVG/1.1/DTD/svg11.dtd">
<!-- Generated by graphviz version 12.2.1 (20241206.2353)
 -->
<!-- Title: C:/Users/emilly/Documents/Lucca/Projetos/Cpp/NikiScript/src/ProgramVariable.cpp Pages: 1 -->
<svg width="852pt" height="276pt"
 viewBox="0.00 0.00 851.60 276.00" xmlns="http://www.w3.org/2000/svg" xmlns:xlink="http://www.w3.org/1999/xlink">
<g id="graph0" class="graph" transform="scale(1 1) rotate(0) translate(4 272)">
<title>C:/Users/emilly/Documents/Lucca/Projetos/Cpp/NikiScript/src/ProgramVariable.cpp</title>
<!-- Node1 -->
<g id="Node000001" class="node">
<title>Node1</title>
<g id="a_Node000001"><a xlink:title=" ">
<polygon fill="#999999" stroke="#666666" points="309.15,-268 158.15,-268 158.15,-224 309.15,-224 309.15,-268"/>
<text text-anchor="start" x="166.15" y="-254.5" font-family="Helvetica,sans-Serif" font-size="10.00">C:/Users/emilly/Documents</text>
<text text-anchor="start" x="166.15" y="-242.5" font-family="Helvetica,sans-Serif" font-size="10.00">/Lucca/Projetos/Cpp/NikiScript</text>
<text text-anchor="middle" x="233.65" y="-230.5" font-family="Helvetica,sans-Serif" font-size="10.00">/src/ProgramVariable.cpp</text>
</a>
</g>
</g>
<!-- Node2 -->
<g id="Node000002" class="node">
<title>Node2</title>
<g id="a_Node000002"><a xlink:href="_program_variable_8h.html" target="_top" xlink:title=" ">
<polygon fill="white" stroke="#666666" points="167.4,-132 71.9,-132 71.9,-112 167.4,-112 167.4,-132"/>
<text text-anchor="middle" x="119.65" y="-118.5" font-family="Helvetica,sans-Serif" font-size="10.00">ProgramVariable.h</text>
</a>
</g>
</g>
<!-- Node1&#45;&gt;Node2 -->
<g id="edge1_Node000001_Node000002" class="edge">
<title>Node1&#45;&gt;Node2</title>
<g id="a_edge1_Node000001_Node000002"><a xlink:title=" ">
<path fill="none" stroke="#63b8ff" d="M213.79,-223.75C191.8,-200.21 156.74,-162.69 136.18,-140.69"/>
<polygon fill="#63b8ff" stroke="#63b8ff" points="138.76,-138.32 129.37,-133.41 133.64,-143.1 138.76,-138.32"/>
</a>
</g>
</g>
<!-- Node8 -->
<g id="Node000008" class="node">
<title>Node8</title>
<g id="a_Node000008"><a xlink:href="_context_8h.html" target="_top" xlink:title=" ">
<polygon fill="white" stroke="#666666" points="540.02,-188 481.27,-188 481.27,-168 540.02,-168 540.02,-188"/>
<text text-anchor="middle" x="510.65" y="-174.5" font-family="Helvetica,sans-Serif" font-size="10.00">Context.h</text>
</a>
</g>
</g>
<!-- Node1&#45;&gt;Node8 -->
<g id="edge7_Node000001_Node000008" class="edge">
<title>Node1&#45;&gt;Node8</title>
<g id="a_edge7_Node000001_Node000008"><a xlink:title=" ">
<path fill="none" stroke="#63b8ff" d="M309.34,-226.97C361.03,-214.65 427.52,-198.81 469.63,-188.77"/>
<polygon fill="#63b8ff" stroke="#63b8ff" points="470.44,-192.18 479.35,-186.46 468.81,-185.37 470.44,-192.18"/>
</a>
</g>
</g>
<!-- Node14 -->
<g id="Node000014" class="node">
<title>Node14</title>
<g id="a_Node000014"><a xlink:href="_utils_8h.html" target="_top" xlink:title=" ">
<polygon fill="white" stroke="#666666" points="374.9,-76 330.4,-76 330.4,-56 374.9,-56 374.9,-76"/>
<text text-anchor="middle" x="352.65" y="-62.5" font-family="Helvetica,sans-Serif" font-size="10.00">Utils.h</text>
</a>
</g>
</g>
<!-- Node1&#45;&gt;Node14 -->
<g id="edge42_Node000001_Node000014" class="edge">
<title>Node1&#45;&gt;Node14</title>
<g id="a_edge42_Node000001_Node000014"><a xlink:title=" ">
<path fill="none" stroke="#63b8ff" d="M248,-223.53C271.54,-188.32 317.95,-118.9 340.19,-85.63"/>
<polygon fill="#63b8ff" stroke="#63b8ff" points="343.01,-87.71 345.66,-77.45 337.19,-83.82 343.01,-87.71"/>
</a>
</g>
</g>
<!-- Node3 -->
<g id="Node000003" class="node">
<title>Node3</title>
<g id="a_Node000003"><a xlink:title=" ">
<polygon fill="#e0e0e0" stroke="#999999" points="567.65,-20 527.65,-20 527.65,0 567.65,0 567.65,-20"/>
<text text-anchor="middle" x="547.65" y="-6.5" font-family="Helvetica,sans-Serif" font-size="10.00">string</text>
</a>
</g>
</g>
<!-- Node2&#45;&gt;Node3 -->
<g id="edge2_Node000002_Node000003" class="edge">
<title>Node2&#45;&gt;Node3</title>
<g id="a_edge2_Node000002_Node000003"><a xlink:title=" ">
<path fill="none" stroke="#63b8ff" d="M120.44,-111.68C122.21,-97.2 127.86,-69.55 145.65,-56 160.37,-44.79 423.39,-21.53 515.84,-13.67"/>
<polygon fill="#63b8ff" stroke="#63b8ff" points="516.04,-17.16 525.71,-12.83 515.45,-10.19 516.04,-17.16"/>
</a>
</g>
</g>
<!-- Node4 -->
<g id="Node000004" class="node">
<title>Node4</title>
<g id="a_Node000004"><a xlink:title=" ">
<polygon fill="#e0e0e0" stroke="#999999" points="60.27,-76 15.02,-76 15.02,-56 60.27,-56 60.27,-76"/>
<text text-anchor="middle" x="37.65" y="-62.5" font-family="Helvetica,sans-Serif" font-size="10.00">cstring</text>
</a>
</g>
</g>
<!-- Node2&#45;&gt;Node4 -->
<g id="edge3_Node000002_Node000004" class="edge">
<title>Node2&#45;&gt;Node4</title>
<g id="a_edge3_Node000002_Node000004"><a xlink:title=" ">
<path fill="none" stroke="#63b8ff" d="M105.37,-111.59C93.21,-103.59 75.51,-91.93 61.25,-82.54"/>
<polygon fill="#63b8ff" stroke="#63b8ff" points="63.58,-79.89 53.31,-77.31 59.73,-85.73 63.58,-79.89"/>
</a>
</g>
</g>
<!-- Node5 -->
<g id="Node000005" class="node">
<title>Node5</title>
<g id="a_Node000005"><a xlink:title=" ">
<polygon fill="#e0e0e0" stroke="#999999" points="188.27,-20 137.02,-20 137.02,0 188.27,0 188.27,-20"/>
<text text-anchor="middle" x="162.65" y="-6.5" font-family="Helvetica,sans-Serif" font-size="10.00">sstream</text>
</a>
</g>
</g>
<!-- Node2&#45;&gt;Node5 -->
<g id="edge4_Node000002_Node000005" class="edge">
<title>Node2&#45;&gt;Node5</title>
<g id="a_edge4_Node000002_Node000005"><a xlink:title=" ">
<path fill="none" stroke="#63b8ff" d="M71.65,-112.08C31.57,-102.43 -15.81,-84.47 5.65,-56 20.08,-36.85 83.95,-23.37 125.65,-16.42"/>
<polygon fill="#63b8ff" stroke="#63b8ff" points="125.95,-19.91 135.27,-14.87 124.84,-13 125.95,-19.91"/>
</a>
</g>
</g>
<!-- Node6 -->
<g id="Node000006" class="node">
<title>Node6</title>
<g id="a_Node000006"><a xlink:title=" ">
<polygon fill="#e0e0e0" stroke="#999999" points="237.02,-76 154.27,-76 154.27,-56 237.02,-56 237.02,-76"/>
<text text-anchor="middle" x="195.65" y="-62.5" font-family="Helvetica,sans-Serif" font-size="10.00">unordered_map</text>
</a>
</g>
</g>
<!-- Node2&#45;&gt;Node6 -->
<g id="edge5_Node000002_Node000006" class="edge">
<title>Node2&#45;&gt;Node6</title>
<g id="a_edge5_Node000002_Node000006"><a xlink:title=" ">
<path fill="none" stroke="#63b8ff" d="M132.89,-111.59C143.94,-103.74 159.93,-92.38 173.01,-83.09"/>
<polygon fill="#63b8ff" stroke="#63b8ff" points="174.95,-86 181.07,-77.36 170.89,-80.3 174.95,-86"/>
</a>
</g>
</g>
<!-- Node7 -->
<g id="Node000007" class="node">
<title>Node7</title>
<g id="a_Node000007"><a xlink:href="_d_l_l_8h.html" target="_top" xlink:title=" ">
<polygon fill="white" stroke="#666666" points="398.77,-20 356.52,-20 356.52,0 398.77,0 398.77,-20"/>
<text text-anchor="middle" x="377.65" y="-6.5" font-family="Helvetica,sans-Serif" font-size="10.00">DLL.h</text>
</a>
</g>
</g>
<!-- Node2&#45;&gt;Node7 -->
<g id="edge6_Node000002_Node000007" class="edge">
<title>Node2&#45;&gt;Node7</title>
<g id="a_edge6_Node000002_Node000007"><a xlink:title=" ">
<path fill="none" stroke="#63b8ff" d="M114.89,-111.8C108.48,-97.98 99.32,-71.78 112.65,-56 142,-21.25 280.31,-13.33 344.62,-11.53"/>
<polygon fill="#63b8ff" stroke="#63b8ff" points="344.66,-15.03 354.57,-11.29 344.49,-8.03 344.66,-15.03"/>
</a>
</g>
</g>
<!-- Node8&#45;&gt;Node2 -->
<g id="edge31_Node000008_Node000002" class="edge">
<title>Node8&#45;&gt;Node2</title>
<g id="a_edge31_Node000008_Node000002"><a xlink:title=" ">
<path fill="none" stroke="#63b8ff" d="M481.15,-173.05C423.55,-165.31 292.11,-147.57 181.65,-132 180.8,-131.88 179.95,-131.76 179.09,-131.64"/>
<polygon fill="#63b8ff" stroke="#63b8ff" points="179.6,-128.18 169.21,-130.23 178.61,-135.11 179.6,-128.18"/>
</a>
</g>
</g>
<!-- Node8&#45;&gt;Node3 -->
<g id="edge10_Node000008_Node000003" class="edge">
<title>Node8&#45;&gt;Node3</title>
<g id="a_edge10_Node000008_Node000003"><a xlink:title=" ">
<path fill="none" stroke="#63b8ff" d="M529.99,-167.64C557.9,-152.81 607.84,-120.92 623.65,-76 626.6,-67.62 628.05,-63.72 623.65,-56 613.93,-38.95 594.94,-27.7 578.37,-20.72"/>
<polygon fill="#63b8ff" stroke="#63b8ff" points="579.96,-17.58 569.37,-17.26 577.45,-24.11 579.96,-17.58"/>
</a>
</g>
</g>
<!-- Node8&#45;&gt;Node6 -->
<g id="edge11_Node000008_Node000006" class="edge">
<title>Node8&#45;&gt;Node6</title>
<g id="a_edge11_Node000008_Node000006"><a xlink:title=" ">
<path fill="none" stroke="#63b8ff" d="M481.04,-177.55C431.73,-177.24 330.96,-171.34 257.65,-132 237.11,-120.98 219.41,-100.66 208.25,-85.66"/>
<polygon fill="#63b8ff" stroke="#63b8ff" points="211.12,-83.67 202.48,-77.55 205.42,-87.73 211.12,-83.67"/>
</a>
</g>
</g>
<!-- Node8&#45;&gt;Node7 -->
<g id="edge41_Node000008_Node000007" class="edge">
<title>Node8&#45;&gt;Node7</title>
<g id="a_edge41_Node000008_Node000007"><a xlink:title=" ">
<path fill="none" stroke="#63b8ff" d="M480.82,-176.7C443.62,-174.79 380.01,-166.28 339.65,-132 312.55,-108.98 298.38,-87.62 314.65,-56 321.42,-42.83 334.03,-32.67 346.2,-25.36"/>
<polygon fill="#63b8ff" stroke="#63b8ff" points="347.77,-28.49 354.85,-20.61 344.4,-22.35 347.77,-28.49"/>
</a>
</g>
</g>
<!-- Node9 -->
<g id="Node000009" class="node">
<title>Node9</title>
<g id="a_Node000009"><a xlink:title=" ">
<polygon fill="#e0e0e0" stroke="#999999" points="793.15,-20 750.15,-20 750.15,0 793.15,0 793.15,-20"/>
<text text-anchor="middle" x="771.65" y="-6.5" font-family="Helvetica,sans-Serif" font-size="10.00">vector</text>
</a>
</g>
</g>
<!-- Node8&#45;&gt;Node9 -->
<g id="edge8_Node000008_Node000009" class="edge">
<title>Node8&#45;&gt;Node9</title>
<g id="a_edge8_Node000008_Node000009"><a xlink:title=" ">
<path fill="none" stroke="#63b8ff" d="M540.39,-175.12C604.42,-170.64 752.95,-157.71 795.65,-132 828.71,-112.09 855.68,-90.12 837.65,-56 830.34,-42.16 816.65,-31.78 803.63,-24.5"/>
<polygon fill="#63b8ff" stroke="#63b8ff" points="805.31,-21.43 794.81,-20 802.13,-27.66 805.31,-21.43"/>
</a>
</g>
</g>
<!-- Node10 -->
<g id="Node000010" class="node">
<title>Node10</title>
<g id="a_Node000010"><a xlink:title=" ">
<polygon fill="#e0e0e0" stroke="#999999" points="698.77,-20 650.52,-20 650.52,0 698.77,0 698.77,-20"/>
<text text-anchor="middle" x="674.65" y="-6.5" font-family="Helvetica,sans-Serif" font-size="10.00">stdint.h</text>
</a>
</g>
</g>
<!-- Node8&#45;&gt;Node10 -->
<g id="edge9_Node000008_Node000010" class="edge">
<title>Node8&#45;&gt;Node10</title>
<g id="a_edge9_Node000008_Node000010"><a xlink:title=" ">
<path fill="none" stroke="#63b8ff" d="M540.38,-177.41C589.93,-176.91 691.28,-170.72 765.65,-132 796.87,-115.75 808.18,-108.52 821.65,-76 825.05,-67.79 826.93,-63.15 821.65,-56 808.35,-38.02 749.48,-24.3 710.4,-16.96"/>
<polygon fill="#63b8ff" stroke="#63b8ff" points="711.17,-13.55 700.71,-15.21 709.92,-20.44 711.17,-13.55"/>
</a>
</g>
</g>
<!-- Node11 -->
<g id="Node000011" class="node">
<title>Node11</title>
<g id="a_Node000011"><a xlink:href="_command_8h.html" target="_top" xlink:title=" ">
<polygon fill="white" stroke="#666666" points="614.27,-76 545.02,-76 545.02,-56 614.27,-56 614.27,-76"/>
<text text-anchor="middle" x="579.65" y="-62.5" font-family="Helvetica,sans-Serif" font-size="10.00">Command.h</text>
</a>
</g>
</g>
<!-- Node8&#45;&gt;Node11 -->
<g id="edge12_Node000008_Node000011" class="edge">
<title>Node8&#45;&gt;Node11</title>
<g id="a_edge12_Node000008_Node000011"><a xlink:title=" ">
<path fill="none" stroke="#63b8ff" d="M524.93,-167.54C536.18,-159.39 551.45,-146.63 560.65,-132 569.18,-118.43 574.01,-100.89 576.66,-87.45"/>
<polygon fill="#63b8ff" stroke="#63b8ff" points="580.05,-88.43 578.28,-77.98 573.15,-87.25 580.05,-88.43"/>
</a>
</g>
</g>
<!-- Node12 -->
<g id="Node000012" class="node">
<title>Node12</title>
<g id="a_Node000012"><a xlink:href="_command_handler_8h.html" target="_top" xlink:title=" ">
<polygon fill="white" stroke="#666666" points="451.15,-132 348.15,-132 348.15,-112 451.15,-112 451.15,-132"/>
<text text-anchor="middle" x="399.65" y="-118.5" font-family="Helvetica,sans-Serif" font-size="10.00">CommandHandler.h</text>
</a>
</g>
</g>
<!-- Node8&#45;&gt;Node12 -->
<g id="edge17_Node000008_Node000012" class="edge">
<title>Node8&#45;&gt;Node12</title>
<g id="a_edge17_Node000008_Node000012"><a xlink:title=" ">
<path fill="none" stroke="#63b8ff" d="M491.31,-167.59C474.23,-159.28 449.04,-147.03 429.4,-137.47"/>
<polygon fill="#63b8ff" stroke="#63b8ff" points="431.02,-134.37 420.5,-133.14 427.96,-140.66 431.02,-134.37"/>
</a>
</g>
</g>
<!-- Node13 -->
<g id="Node000013" class="node">
<title>Node13</title>
<g id="a_Node000013"><a xlink:href="_print_callback_8h.html" target="_top" xlink:title=" ">
<polygon fill="white" stroke="#666666" points="552.02,-132 469.27,-132 469.27,-112 552.02,-112 552.02,-132"/>
<text text-anchor="middle" x="510.65" y="-118.5" font-family="Helvetica,sans-Serif" font-size="10.00">PrintCallback.h</text>
</a>
</g>
</g>
<!-- Node8&#45;&gt;Node13 -->
<g id="edge22_Node000008_Node000013" class="edge">
<title>Node8&#45;&gt;Node13</title>
<g id="a_edge22_Node000008_Node000013"><a xlink:title=" ">
<path fill="none" stroke="#63b8ff" d="M510.65,-167.59C510.65,-161.01 510.65,-151.96 510.65,-143.73"/>
<polygon fill="#63b8ff" stroke="#63b8ff" points="514.15,-143.81 510.65,-133.81 507.15,-143.81 514.15,-143.81"/>
</a>
</g>
</g>
<!-- Node15 -->
<g id="Node000015" class="node">
<title>Node15</title>
<g id="a_Node000015"><a xlink:href="_lexer_8h.html" target="_top" xlink:title=" ">
<polygon fill="white" stroke="#666666" points="756.77,-132 708.52,-132 708.52,-112 756.77,-112 756.77,-132"/>
<text text-anchor="middle" x="732.65" y="-118.5" font-family="Helvetica,sans-Serif" font-size="10.00">Lexer.h</text>
</a>
</g>
</g>
<!-- Node8&#45;&gt;Node15 -->
<g id="edge32_Node000008_Node000015" class="edge">
<title>Node8&#45;&gt;Node15</title>
<g id="a_edge32_Node000008_Node000015"><a xlink:title=" ">
<path fill="none" stroke="#63b8ff" d="M540.13,-169.83C580.73,-159.95 653.76,-142.19 697.26,-131.61"/>
<polygon fill="#63b8ff" stroke="#63b8ff" points="697.81,-135.08 706.7,-129.31 696.16,-128.27 697.81,-135.08"/>
</a>
</g>
</g>
<!-- Node11&#45;&gt;Node3 -->
<g id="edge14_Node000011_Node000003" class="edge">
<title>Node11&#45;&gt;Node3</title>
<g id="a_edge14_Node000011_Node000003"><a xlink:title=" ">
<path fill="none" stroke="#63b8ff" d="M574.07,-55.59C569.9,-48.55 564.05,-38.67 558.91,-30"/>
<polygon fill="#63b8ff" stroke="#63b8ff" points="562.04,-28.42 553.93,-21.6 556.02,-31.99 562.04,-28.42"/>
</a>
</g>
</g>
<!-- Node11&#45;&gt;Node7 -->
<g id="edge16_Node000011_Node000007" class="edge">
<title>Node11&#45;&gt;Node7</title>
<g id="a_edge16_Node000011_Node000007"><a xlink:title=" ">
<path fill="none" stroke="#63b8ff" d="M544.92,-55.72C507,-45.58 446.75,-29.47 409.85,-19.61"/>
<polygon fill="#63b8ff" stroke="#63b8ff" points="411.23,-16.35 400.66,-17.15 409.42,-23.12 411.23,-16.35"/>
</a>
</g>
</g>
<!-- Node11&#45;&gt;Node9 -->
<g id="edge13_Node000011_Node000009" class="edge">
<title>Node11&#45;&gt;Node9</title>
<g id="a_edge13_Node000011_Node000009"><a xlink:title=" ">
<path fill="none" stroke="#63b8ff" d="M613.09,-55.59C648.42,-45.66 703.77,-30.09 738.85,-20.22"/>
<polygon fill="#63b8ff" stroke="#63b8ff" points="739.78,-23.6 748.46,-17.52 737.88,-16.86 739.78,-23.6"/>
</a>
</g>
</g>
<!-- Node11&#45;&gt;Node10 -->
<g id="edge15_Node000011_Node000010" class="edge">
<title>Node11&#45;&gt;Node10</title>
<g id="a_edge15_Node000011_Node000010"><a xlink:title=" ">
<path fill="none" stroke="#63b8ff" d="M596.2,-55.59C610.55,-47.44 631.58,-35.48 648.25,-26"/>
<polygon fill="#63b8ff" stroke="#63b8ff" points="649.69,-29.21 656.66,-21.23 646.23,-23.13 649.69,-29.21"/>
</a>
</g>
</g>
<!-- Node12&#45;&gt;Node3 -->
<g id="edge19_Node000012_Node000003" class="edge">
<title>Node12&#45;&gt;Node3</title>
<g id="a_edge19_Node000012_Node000003"><a xlink:title=" ">
<path fill="none" stroke="#63b8ff" d="M412.27,-111.62C437.5,-92.87 494.44,-50.55 525.84,-27.21"/>
<polygon fill="#63b8ff" stroke="#63b8ff" points="527.91,-30.03 533.85,-21.26 523.73,-24.41 527.91,-30.03"/>
</a>
</g>
</g>
<!-- Node12&#45;&gt;Node6 -->
<g id="edge18_Node000012_Node000006" class="edge">
<title>Node12&#45;&gt;Node6</title>
<g id="a_edge18_Node000012_Node000006"><a xlink:title=" ">
<path fill="none" stroke="#63b8ff" d="M364.11,-111.59C330.39,-102.67 279.49,-89.19 242.47,-79.39"/>
<polygon fill="#63b8ff" stroke="#63b8ff" points="243.49,-76.04 232.92,-76.87 241.69,-82.81 243.49,-76.04"/>
</a>
</g>
</g>
<!-- Node12&#45;&gt;Node7 -->
<g id="edge21_Node000012_Node000007" class="edge">
<title>Node12&#45;&gt;Node7</title>
<g id="a_edge21_Node000012_Node000007"><a xlink:title=" ">
<path fill="none" stroke="#63b8ff" d="M368.55,-111.66C351.46,-104.75 331.74,-93.46 321.65,-76 310.8,-57.22 330.41,-38.77 349.34,-26.36"/>
<polygon fill="#63b8ff" stroke="#63b8ff" points="351.02,-29.44 357.72,-21.23 347.37,-23.46 351.02,-29.44"/>
</a>
</g>
</g>
<!-- Node12&#45;&gt;Node11 -->
<g id="edge20_Node000012_Node000011" class="edge">
<title>Node12&#45;&gt;Node11</title>
<g id="a_edge20_Node000012_Node000011"><a xlink:title=" ">
<path fill="none" stroke="#63b8ff" d="M431,-111.59C460.38,-102.78 504.51,-89.54 537.06,-79.78"/>
<polygon fill="#63b8ff" stroke="#63b8ff" points="538.03,-83.14 546.6,-76.91 536.02,-76.44 538.03,-83.14"/>
</a>
</g>
</g>
<!-- Node13&#45;&gt;Node3 -->
<g id="edge24_Node000013_Node000003" class="edge">
<title>Node13&#45;&gt;Node3</title>
<g id="a_edge24_Node000013_Node000003"><a xlink:title=" ">
<path fill="none" stroke="#63b8ff" d="M513.8,-111.62C519.78,-93.84 532.89,-54.88 540.92,-31"/>
<polygon fill="#63b8ff" stroke="#63b8ff" points="544.15,-32.38 544.02,-21.79 537.51,-30.15 544.15,-32.38"/>
</a>
</g>
</g>
<!-- Node13&#45;&gt;Node7 -->
<g id="edge25_Node000013_Node000007" class="edge">
<title>Node13&#45;&gt;Node7</title>
<g id="a_edge25_Node000013_Node000007"><a xlink:title=" ">
<path fill="none" stroke="#63b8ff" d="M499.31,-111.62C476.73,-92.95 425.91,-50.92 397.62,-27.52"/>
<polygon fill="#63b8ff" stroke="#63b8ff" points="400.06,-25 390.13,-21.32 395.6,-30.39 400.06,-25"/>
</a>
</g>
</g>
<!-- Node13&#45;&gt;Node10 -->
<g id="edge23_Node000013_Node000010" class="edge">
<title>Node13&#45;&gt;Node10</title>
<g id="a_edge23_Node000013_Node000010"><a xlink:title=" ">
<path fill="none" stroke="#63b8ff" d="M548,-111.55C571.32,-104.4 601.08,-92.89 623.65,-76 640.31,-63.54 654.46,-44.34 663.6,-30.03"/>
<polygon fill="#63b8ff" stroke="#63b8ff" points="666.56,-31.89 668.78,-21.53 660.59,-28.24 666.56,-31.89"/>
</a>
</g>
</g>
<!-- Node13&#45;&gt;Node14 -->
<g id="edge26_Node000013_Node000014" class="edge">
<title>Node13&#45;&gt;Node14</title>
<g id="a_edge26_Node000013_Node000014"><a xlink:title=" ">
<path fill="none" stroke="#63b8ff" d="M483.13,-111.59C456.12,-102.36 414.9,-88.28 386.03,-78.41"/>
<polygon fill="#63b8ff" stroke="#63b8ff" points="387.28,-75.14 376.69,-75.22 385.02,-81.76 387.28,-75.14"/>
</a>
</g>
</g>
<!-- Node14&#45;&gt;Node3 -->
<g id="edge28_Node000014_Node000003" class="edge">
<title>Node14&#45;&gt;Node3</title>
<g id="a_edge28_Node000014_Node000003"><a xlink:title=" ">
<path fill="none" stroke="#63b8ff" d="M375.02,-58.81C409.72,-49.19 476.66,-30.66 516.21,-19.71"/>
<polygon fill="#63b8ff" stroke="#63b8ff" points="517.14,-23.08 525.85,-17.04 515.27,-16.33 517.14,-23.08"/>
</a>
</g>
</g>
<!-- Node14&#45;&gt;Node5 -->
<g id="edge29_Node000014_Node000005" class="edge">
<title>Node14&#45;&gt;Node5</title>
<g id="a_edge29_Node000014_Node000005"><a xlink:title=" ">
<path fill="none" stroke="#63b8ff" d="M330.11,-58.59C297.81,-49.41 238,-32.42 199.29,-21.41"/>
<polygon fill="#63b8ff" stroke="#63b8ff" points="200.53,-18.13 189.95,-18.76 198.61,-24.86 200.53,-18.13"/>
</a>
</g>
</g>
<!-- Node14&#45;&gt;Node7 -->
<g id="edge30_Node000014_Node000007" class="edge">
<title>Node14&#45;&gt;Node7</title>
<g id="a_edge30_Node000014_Node000007"><a xlink:title=" ">
<path fill="none" stroke="#63b8ff" d="M357,-55.59C360.19,-48.7 364.64,-39.1 368.59,-30.57"/>
<polygon fill="#63b8ff" stroke="#63b8ff" points="371.68,-32.22 372.71,-21.67 365.33,-29.28 371.68,-32.22"/>
</a>
</g>
</g>
<!-- Node14&#45;&gt;Node10 -->
<g id="edge27_Node000014_Node000010" class="edge">
<title>Node14&#45;&gt;Node10</title>
<g id="a_edge27_Node000014_Node000010"><a xlink:title=" ">
<path fill="none" stroke="#63b8ff" d="M375.29,-61.2C430.52,-51.94 572.51,-28.13 639.14,-16.96"/>
<polygon fill="#63b8ff" stroke="#63b8ff" points="639.51,-20.44 648.79,-15.34 638.35,-13.54 639.51,-20.44"/>
</a>
</g>
</g>
<!-- Node15&#45;&gt;Node3 -->
<g id="edge34_Node000015_Node000003" class="edge">
<title>Node15&#45;&gt;Node3</title>
<g id="a_edge34_Node000015_Node000003"><a xlink:title=" ">
<path fill="none" stroke="#63b8ff" d="M729.64,-111.55C724.64,-97.39 713.3,-70.76 694.65,-56 660.96,-29.35 611.53,-18.42 579.47,-13.98"/>
<polygon fill="#63b8ff" stroke="#63b8ff" points="579.96,-10.51 569.6,-12.76 579.1,-17.46 579.96,-10.51"/>
</a>
</g>
</g>
<!-- Node15&#45;&gt;Node7 -->
<g id="edge40_Node000015_Node000007" class="edge">
<title>Node15&#45;&gt;Node7</title>
<g id="a_edge40_Node000015_Node000007"><a xlink:title=" ">
<path fill="none" stroke="#63b8ff" d="M708.04,-116.74C670.4,-109.91 596.51,-95.32 535.65,-76 489.88,-61.47 438.8,-39.32 407.44,-25"/>
<polygon fill="#63b8ff" stroke="#63b8ff" points="409.13,-21.92 398.59,-20.92 406.2,-28.28 409.13,-21.92"/>
</a>
</g>
</g>
<!-- Node15&#45;&gt;Node10 -->
<g id="edge33_Node000015_Node000010" class="edge">
<title>Node15&#45;&gt;Node10</title>
<g id="a_edge33_Node000015_Node000010"><a xlink:title=" ">
<path fill="none" stroke="#63b8ff" d="M757.02,-112.07C784.27,-100.69 822.51,-79.62 805.65,-56 794.35,-40.17 745.05,-26.39 710.27,-18.38"/>
<polygon fill="#63b8ff" stroke="#63b8ff" points="711.11,-14.98 700.58,-16.22 709.58,-21.81 711.11,-14.98"/>
</a>
</g>
</g>
<!-- Node16 -->
<g id="Node000016" class="node">
<title>Node16</title>
<g id="a_Node000016"><a xlink:href="_token_8h.html" target="_top" xlink:title=" ">
<polygon fill="white" stroke="#666666" points="796.9,-76 746.4,-76 746.4,-56 796.9,-56 796.9,-76"/>
<text text-anchor="middle" x="771.65" y="-62.5" font-family="Helvetica,sans-Serif" font-size="10.00">Token.h</text>
</a>
</g>
</g>
<!-- Node15&#45;&gt;Node16 -->
<g id="edge35_Node000015_Node000016" class="edge">
<title>Node15&#45;&gt;Node16</title>
<g id="a_edge35_Node000015_Node000016"><a xlink:title=" ">
<path fill="none" stroke="#63b8ff" d="M739.44,-111.59C744.64,-104.39 751.98,-94.23 758.34,-85.43"/>
<polygon fill="#63b8ff" stroke="#63b8ff" points="761.03,-87.68 764.05,-77.53 755.35,-83.58 761.03,-87.68"/>
</a>
</g>
</g>
<!-- Node16&#45;&gt;Node3 -->
<g id="edge37_Node000016_Node000003" class="edge">
<title>Node16&#45;&gt;Node3</title>
<g id="a_edge37_Node000016_Node000003"><a xlink:title=" ">
<path fill="none" stroke="#63b8ff" d="M745.95,-58.81C704.71,-48.86 623.84,-29.37 579.17,-18.6"/>
<polygon fill="#63b8ff" stroke="#63b8ff" points="580.13,-15.23 569.58,-16.29 578.48,-22.03 580.13,-15.23"/>
</a>
</g>
</g>
<!-- Node16&#45;&gt;Node7 -->
<g id="edge39_Node000016_Node000007" class="edge">
<title>Node16&#45;&gt;Node7</title>
<g id="a_edge39_Node000016_Node000007"><a xlink:title=" ">
<path fill="none" stroke="#63b8ff" d="M746.1,-61.5C677.15,-52.05 487.29,-26.03 410.51,-15.5"/>
<polygon fill="#63b8ff" stroke="#63b8ff" points="411.08,-12.05 400.69,-14.16 410.13,-18.98 411.08,-12.05"/>
</a>
</g>
</g>
<!-- Node16&#45;&gt;Node9 -->
<g id="edge38_Node000016_Node000009" class="edge">
<title>Node16&#45;&gt;Node9</title>
<g id="a_edge38_Node000016_Node000009"><a xlink:title=" ">
<path fill="none" stroke="#63b8ff" d="M771.65,-55.59C771.65,-49.01 771.65,-39.96 771.65,-31.73"/>
<polygon fill="#63b8ff" stroke="#63b8ff" points="775.15,-31.81 771.65,-21.81 768.15,-31.81 775.15,-31.81"/>
</a>
</g>
</g>
<!-- Node16&#45;&gt;Node10 -->
<g id="edge36_Node000016_Node000010" class="edge">
<title>Node16&#45;&gt;Node10</title>
<g id="a_edge36_Node000016_Node000010"><a xlink:title=" ">
<path fill="none" stroke="#63b8ff" d="M754.75,-55.59C740.1,-47.44 718.63,-35.48 701.6,-26"/>
<polygon fill="#63b8ff" stroke="#63b8ff" points="703.44,-23.02 693,-21.22 700.03,-29.14 703.44,-23.02"/>
</a>
</g>
</g>
</g>
</svg>
