<?xml version="1.0" encoding="UTF-8" standalone="no"?>
<!DOCTYPE svg PUBLIC "-//W3C//DTD SVG 1.1//EN"
 "http://www.w3.org/Graphics/SVG/1.1/DTD/svg11.dtd">
<!-- Generated by graphviz version 12.2.1 (20241206.2353)
 -->
<!-- Title: C:/Users/emilly/Documents/Lucca/Projetos/Cpp/NikiScript/src/ProgramVariable.cpp Pages: 1 -->
<svg width="635pt" height="276pt"
 viewBox="0.00 0.00 634.86 276.00" xmlns="http://www.w3.org/2000/svg" xmlns:xlink="http://www.w3.org/1999/xlink">
<g id="graph0" class="graph" transform="scale(1 1) rotate(0) translate(4 272)">
<title>C:/Users/emilly/Documents/Lucca/Projetos/Cpp/NikiScript/src/ProgramVariable.cpp</title>
<!-- Node1 -->
<g id="Node000001" class="node">
<title>Node1</title>
<g id="a_Node000001"><a xlink:title=" ">
<polygon fill="#999999" stroke="#666666" points="381,-268 230,-268 230,-224 381,-224 381,-268"/>
<text text-anchor="start" x="238" y="-254.5" font-family="Helvetica,sans-Serif" font-size="10.00">C:/Users/emilly/Documents</text>
<text text-anchor="start" x="238" y="-242.5" font-family="Helvetica,sans-Serif" font-size="10.00">/Lucca/Projetos/Cpp/NikiScript</text>
<text text-anchor="middle" x="305.5" y="-230.5" font-family="Helvetica,sans-Serif" font-size="10.00">/src/ProgramVariable.cpp</text>
</a>
</g>
</g>
<!-- Node2 -->
<g id="Node000002" class="node">
<title>Node2</title>
<g id="a_Node000002"><a xlink:href="_program_variable_8h.html" target="_top" xlink:title=" ">
<polygon fill="white" stroke="#666666" points="320.25,-76 224.75,-76 224.75,-56 320.25,-56 320.25,-76"/>
<text text-anchor="middle" x="272.5" y="-62.5" font-family="Helvetica,sans-Serif" font-size="10.00">ProgramVariable.h</text>
</a>
</g>
</g>
<!-- Node1&#45;&gt;Node2 -->
<g id="edge1_Node000001_Node000002" class="edge">
<title>Node1&#45;&gt;Node2</title>
<g id="a_edge1_Node000001_Node000002"><a xlink:title=" ">
<path fill="none" stroke="#63b8ff" d="M301.52,-223.53C295.1,-188.93 282.57,-121.29 276.28,-87.39"/>
<polygon fill="#63b8ff" stroke="#63b8ff" points="279.74,-86.87 274.48,-77.68 272.86,-88.15 279.74,-86.87"/>
</a>
</g>
</g>
<!-- Node7 -->
<g id="Node000007" class="node">
<title>Node7</title>
<g id="a_Node000007"><a xlink:href="_context_8h.html" target="_top" xlink:title=" ">
<polygon fill="white" stroke="#666666" points="277.88,-188 219.12,-188 219.12,-168 277.88,-168 277.88,-188"/>
<text text-anchor="middle" x="248.5" y="-174.5" font-family="Helvetica,sans-Serif" font-size="10.00">Context.h</text>
</a>
</g>
</g>
<!-- Node1&#45;&gt;Node7 -->
<g id="edge6_Node000001_Node000007" class="edge">
<title>Node1&#45;&gt;Node7</title>
<g id="a_edge6_Node000001_Node000007"><a xlink:title=" ">
<path fill="none" stroke="#63b8ff" d="M287.15,-223.75C279.68,-215.1 271.14,-205.21 263.99,-196.93"/>
<polygon fill="#63b8ff" stroke="#63b8ff" points="266.81,-194.84 257.62,-189.56 261.51,-199.42 266.81,-194.84"/>
</a>
</g>
</g>
<!-- Node13 -->
<g id="Node000013" class="node">
<title>Node13</title>
<g id="a_Node000013"><a xlink:href="_utils_8h.html" target="_top" xlink:title=" ">
<polygon fill="white" stroke="#666666" points="565.75,-76 521.25,-76 521.25,-56 565.75,-56 565.75,-76"/>
<text text-anchor="middle" x="543.5" y="-62.5" font-family="Helvetica,sans-Serif" font-size="10.00">Utils.h</text>
</a>
</g>
</g>
<!-- Node1&#45;&gt;Node13 -->
<g id="edge34_Node000001_Node000013" class="edge">
<title>Node1&#45;&gt;Node13</title>
<g id="a_edge34_Node000001_Node000013"><a xlink:title=" ">
<path fill="none" stroke="#63b8ff" d="M381.25,-225.33C430.75,-208.58 492.81,-179.48 529.5,-132 539.23,-119.41 542.54,-101.54 543.52,-87.72"/>
<polygon fill="#63b8ff" stroke="#63b8ff" points="547.01,-88.06 543.84,-77.95 540.02,-87.83 547.01,-88.06"/>
</a>
</g>
</g>
<!-- Node3 -->
<g id="Node000003" class="node">
<title>Node3</title>
<g id="a_Node000003"><a xlink:title=" ">
<polygon fill="#e0e0e0" stroke="#999999" points="406.5,-20 366.5,-20 366.5,0 406.5,0 406.5,-20"/>
<text text-anchor="middle" x="386.5" y="-6.5" font-family="Helvetica,sans-Serif" font-size="10.00">string</text>
</a>
</g>
</g>
<!-- Node2&#45;&gt;Node3 -->
<g id="edge2_Node000002_Node000003" class="edge">
<title>Node2&#45;&gt;Node3</title>
<g id="a_edge2_Node000002_Node000003"><a xlink:title=" ">
<path fill="none" stroke="#63b8ff" d="M292.36,-55.59C309.99,-47.24 336.01,-34.92 356.23,-25.34"/>
<polygon fill="#63b8ff" stroke="#63b8ff" points="357.58,-28.57 365.12,-21.13 354.58,-22.25 357.58,-28.57"/>
</a>
</g>
</g>
<!-- Node4 -->
<g id="Node000004" class="node">
<title>Node4</title>
<g id="a_Node000004"><a xlink:title=" ">
<polygon fill="#e0e0e0" stroke="#999999" points="153.25,-20 87.75,-20 87.75,0 153.25,0 153.25,-20"/>
<text text-anchor="middle" x="120.5" y="-6.5" font-family="Helvetica,sans-Serif" font-size="10.00">string_view</text>
</a>
</g>
</g>
<!-- Node2&#45;&gt;Node4 -->
<g id="edge3_Node000002_Node000004" class="edge">
<title>Node2&#45;&gt;Node4</title>
<g id="a_edge3_Node000002_Node000004"><a xlink:title=" ">
<path fill="none" stroke="#63b8ff" d="M246.02,-55.59C221.65,-46.94 185.25,-34 157.91,-24.29"/>
<polygon fill="#63b8ff" stroke="#63b8ff" points="159.2,-21.04 148.61,-20.99 156.86,-27.63 159.2,-21.04"/>
</a>
</g>
</g>
<!-- Node5 -->
<g id="Node000005" class="node">
<title>Node5</title>
<g id="a_Node000005"><a xlink:title=" ">
<polygon fill="#e0e0e0" stroke="#999999" points="514.12,-20 462.88,-20 462.88,0 514.12,0 514.12,-20"/>
<text text-anchor="middle" x="488.5" y="-6.5" font-family="Helvetica,sans-Serif" font-size="10.00">sstream</text>
</a>
</g>
</g>
<!-- Node2&#45;&gt;Node5 -->
<g id="edge4_Node000002_Node000005" class="edge">
<title>Node2&#45;&gt;Node5</title>
<g id="a_edge4_Node000002_Node000005"><a xlink:title=" ">
<path fill="none" stroke="#63b8ff" d="M310.12,-55.59C349.84,-45.67 412.04,-30.12 451.51,-20.25"/>
<polygon fill="#63b8ff" stroke="#63b8ff" points="452.17,-23.69 461.02,-17.87 450.47,-16.9 452.17,-23.69"/>
</a>
</g>
</g>
<!-- Node6 -->
<g id="Node000006" class="node">
<title>Node6</title>
<g id="a_Node000006"><a xlink:title=" ">
<polygon fill="#e0e0e0" stroke="#999999" points="283.88,-20 201.12,-20 201.12,0 283.88,0 283.88,-20"/>
<text text-anchor="middle" x="242.5" y="-6.5" font-family="Helvetica,sans-Serif" font-size="10.00">unordered_map</text>
</a>
</g>
</g>
<!-- Node2&#45;&gt;Node6 -->
<g id="edge5_Node000002_Node000006" class="edge">
<title>Node2&#45;&gt;Node6</title>
<g id="a_edge5_Node000002_Node000006"><a xlink:title=" ">
<path fill="none" stroke="#63b8ff" d="M267.27,-55.59C263.4,-48.63 257.99,-38.89 253.22,-30.29"/>
<polygon fill="#63b8ff" stroke="#63b8ff" points="256.32,-28.66 248.4,-21.62 250.2,-32.06 256.32,-28.66"/>
</a>
</g>
</g>
<!-- Node7&#45;&gt;Node2 -->
<g id="edge26_Node000007_Node000002" class="edge">
<title>Node7&#45;&gt;Node2</title>
<g id="a_edge26_Node000007_Node000002"><a xlink:title=" ">
<path fill="none" stroke="#63b8ff" d="M250.55,-167.62C254.41,-149.92 262.85,-111.24 268.07,-87.32"/>
<polygon fill="#63b8ff" stroke="#63b8ff" points="271.42,-88.35 270.14,-77.83 264.59,-86.86 271.42,-88.35"/>
</a>
</g>
</g>
<!-- Node7&#45;&gt;Node3 -->
<g id="edge9_Node000007_Node000003" class="edge">
<title>Node7&#45;&gt;Node3</title>
<g id="a_edge9_Node000007_Node000003"><a xlink:title=" ">
<path fill="none" stroke="#63b8ff" d="M256.31,-167.6C278.52,-140.89 342.25,-64.23 371.5,-29.05"/>
<polygon fill="#63b8ff" stroke="#63b8ff" points="374.1,-31.39 377.8,-21.46 368.72,-26.91 374.1,-31.39"/>
</a>
</g>
</g>
<!-- Node7&#45;&gt;Node6 -->
<g id="edge10_Node000007_Node000006" class="edge">
<title>Node7&#45;&gt;Node6</title>
<g id="a_edge10_Node000007_Node000006"><a xlink:title=" ">
<path fill="none" stroke="#63b8ff" d="M242.41,-167.58C230.03,-147.21 203.99,-97.55 215.5,-56 218.07,-46.7 223.14,-37.4 228.19,-29.68"/>
<polygon fill="#63b8ff" stroke="#63b8ff" points="231.04,-31.72 233.97,-21.53 225.33,-27.67 231.04,-31.72"/>
</a>
</g>
</g>
<!-- Node8 -->
<g id="Node000008" class="node">
<title>Node8</title>
<g id="a_Node000008"><a xlink:title=" ">
<polygon fill="#e0e0e0" stroke="#999999" points="43,-20 0,-20 0,0 43,0 43,-20"/>
<text text-anchor="middle" x="21.5" y="-6.5" font-family="Helvetica,sans-Serif" font-size="10.00">vector</text>
</a>
</g>
</g>
<!-- Node7&#45;&gt;Node8 -->
<g id="edge7_Node000007_Node000008" class="edge">
<title>Node7&#45;&gt;Node8</title>
<g id="a_edge7_Node000007_Node000008"><a xlink:title=" ">
<path fill="none" stroke="#63b8ff" d="M218.65,-177.36C176.62,-176.42 99.35,-169.23 47.5,-132 23.85,-115.02 21.35,-104.04 13.5,-76 9.41,-61.4 11.76,-44.37 14.94,-31.4"/>
<polygon fill="#63b8ff" stroke="#63b8ff" points="18.28,-32.46 17.65,-21.89 11.54,-30.54 18.28,-32.46"/>
</a>
</g>
</g>
<!-- Node9 -->
<g id="Node000009" class="node">
<title>Node9</title>
<g id="a_Node000009"><a xlink:title=" ">
<polygon fill="#e0e0e0" stroke="#999999" points="617.62,-20 569.38,-20 569.38,0 617.62,0 617.62,-20"/>
<text text-anchor="middle" x="593.5" y="-6.5" font-family="Helvetica,sans-Serif" font-size="10.00">stdint.h</text>
</a>
</g>
</g>
<!-- Node7&#45;&gt;Node9 -->
<g id="edge8_Node000007_Node000009" class="edge">
<title>Node7&#45;&gt;Node9</title>
<g id="a_edge8_Node000007_Node000009"><a xlink:title=" ">
<path fill="none" stroke="#63b8ff" d="M278.13,-175.91C330.39,-173.2 441.72,-163.85 529.5,-132 575.21,-115.41 599.47,-118.28 623.5,-76 632.38,-60.37 621.65,-41.66 610.64,-28.33"/>
<polygon fill="#63b8ff" stroke="#63b8ff" points="613.51,-26.29 604.21,-21.19 608.3,-30.97 613.51,-26.29"/>
</a>
</g>
</g>
<!-- Node10 -->
<g id="Node000010" class="node">
<title>Node10</title>
<g id="a_Node000010"><a xlink:href="_command_8h.html" target="_top" xlink:title=" ">
<polygon fill="white" stroke="#666666" points="92.12,-76 22.88,-76 22.88,-56 92.12,-56 92.12,-76"/>
<text text-anchor="middle" x="57.5" y="-62.5" font-family="Helvetica,sans-Serif" font-size="10.00">Command.h</text>
</a>
</g>
</g>
<!-- Node7&#45;&gt;Node10 -->
<g id="edge11_Node000007_Node000010" class="edge">
<title>Node7&#45;&gt;Node10</title>
<g id="a_edge11_Node000007_Node000010"><a xlink:title=" ">
<path fill="none" stroke="#63b8ff" d="M218.67,-174.24C170.6,-169.12 79.37,-156.38 59.5,-132 49.46,-119.68 49.86,-101.26 52.25,-87.17"/>
<polygon fill="#63b8ff" stroke="#63b8ff" points="55.61,-88.16 54.33,-77.64 48.77,-86.66 55.61,-88.16"/>
</a>
</g>
</g>
<!-- Node11 -->
<g id="Node000011" class="node">
<title>Node11</title>
<g id="a_Node000011"><a xlink:href="_command_handler_8h.html" target="_top" xlink:title=" ">
<polygon fill="white" stroke="#666666" points="172,-132 69,-132 69,-112 172,-112 172,-132"/>
<text text-anchor="middle" x="120.5" y="-118.5" font-family="Helvetica,sans-Serif" font-size="10.00">CommandHandler.h</text>
</a>
</g>
</g>
<!-- Node7&#45;&gt;Node11 -->
<g id="edge15_Node000007_Node000011" class="edge">
<title>Node7&#45;&gt;Node11</title>
<g id="a_edge15_Node000007_Node000011"><a xlink:title=" ">
<path fill="none" stroke="#63b8ff" d="M226.2,-167.59C206.14,-159.13 176.38,-146.58 153.55,-136.94"/>
<polygon fill="#63b8ff" stroke="#63b8ff" points="154.94,-133.73 144.36,-133.07 152.22,-140.18 154.94,-133.73"/>
</a>
</g>
</g>
<!-- Node12 -->
<g id="Node000012" class="node">
<title>Node12</title>
<g id="a_Node000012"><a xlink:href="_print_callback_8h.html" target="_top" xlink:title=" ">
<polygon fill="white" stroke="#666666" points="453.88,-132 371.12,-132 371.12,-112 453.88,-112 453.88,-132"/>
<text text-anchor="middle" x="412.5" y="-118.5" font-family="Helvetica,sans-Serif" font-size="10.00">PrintCallback.h</text>
</a>
</g>
</g>
<!-- Node7&#45;&gt;Node12 -->
<g id="edge19_Node000007_Node000012" class="edge">
<title>Node7&#45;&gt;Node12</title>
<g id="a_edge19_Node000007_Node000012"><a xlink:title=" ">
<path fill="none" stroke="#63b8ff" d="M277.07,-167.59C303.6,-158.86 343.34,-145.77 372.92,-136.03"/>
<polygon fill="#63b8ff" stroke="#63b8ff" points="373.87,-139.4 382.27,-132.95 371.68,-132.76 373.87,-139.4"/>
</a>
</g>
</g>
<!-- Node14 -->
<g id="Node000014" class="node">
<title>Node14</title>
<g id="a_Node000014"><a xlink:href="_lexer_8h.html" target="_top" xlink:title=" ">
<polygon fill="white" stroke="#666666" points="520.62,-132 472.38,-132 472.38,-112 520.62,-112 520.62,-132"/>
<text text-anchor="middle" x="496.5" y="-118.5" font-family="Helvetica,sans-Serif" font-size="10.00">Lexer.h</text>
</a>
</g>
</g>
<!-- Node7&#45;&gt;Node14 -->
<g id="edge27_Node000007_Node000014" class="edge">
<title>Node7&#45;&gt;Node14</title>
<g id="a_edge27_Node000007_Node000014"><a xlink:title=" ">
<path fill="none" stroke="#63b8ff" d="M278.03,-171.29C317.39,-163.57 389.45,-149.07 461.01,-132.25"/>
<polygon fill="#63b8ff" stroke="#63b8ff" points="461.63,-135.7 470.55,-129.99 460.01,-128.89 461.63,-135.7"/>
</a>
</g>
</g>
<!-- Node10&#45;&gt;Node3 -->
<g id="edge14_Node000010_Node000003" class="edge">
<title>Node10&#45;&gt;Node3</title>
<g id="a_edge14_Node000010_Node000003"><a xlink:title=" ">
<path fill="none" stroke="#63b8ff" d="M92.4,-59.27C156.74,-48.71 293.12,-26.33 354.9,-16.19"/>
<polygon fill="#63b8ff" stroke="#63b8ff" points="355.43,-19.65 364.73,-14.57 354.29,-12.74 355.43,-19.65"/>
</a>
</g>
</g>
<!-- Node10&#45;&gt;Node4 -->
<g id="edge13_Node000010_Node000004" class="edge">
<title>Node10&#45;&gt;Node4</title>
<g id="a_edge13_Node000010_Node000004"><a xlink:title=" ">
<path fill="none" stroke="#63b8ff" d="M68.47,-55.59C77.42,-47.93 90.27,-36.91 100.96,-27.75"/>
<polygon fill="#63b8ff" stroke="#63b8ff" points="103.19,-30.45 108.5,-21.28 98.63,-25.13 103.19,-30.45"/>
</a>
</g>
</g>
<!-- Node10&#45;&gt;Node8 -->
<g id="edge12_Node000010_Node000008" class="edge">
<title>Node10&#45;&gt;Node8</title>
<g id="a_edge12_Node000010_Node000008"><a xlink:title=" ">
<path fill="none" stroke="#63b8ff" d="M51.23,-55.59C46.48,-48.47 39.8,-38.45 33.98,-29.72"/>
<polygon fill="#63b8ff" stroke="#63b8ff" points="37,-27.94 28.54,-21.56 31.17,-31.82 37,-27.94"/>
</a>
</g>
</g>
<!-- Node11&#45;&gt;Node4 -->
<g id="edge17_Node000011_Node000004" class="edge">
<title>Node11&#45;&gt;Node4</title>
<g id="a_edge17_Node000011_Node000004"><a xlink:title=" ">
<path fill="none" stroke="#63b8ff" d="M120.5,-111.62C120.5,-94.01 120.5,-55.59 120.5,-31.65"/>
<polygon fill="#63b8ff" stroke="#63b8ff" points="124,-31.87 120.5,-21.87 117,-31.87 124,-31.87"/>
</a>
</g>
</g>
<!-- Node11&#45;&gt;Node6 -->
<g id="edge16_Node000011_Node000006" class="edge">
<title>Node11&#45;&gt;Node6</title>
<g id="a_edge16_Node000011_Node000006"><a xlink:title=" ">
<path fill="none" stroke="#63b8ff" d="M128.48,-111.71C139.88,-98.66 161.75,-74.43 182.5,-56 194.1,-45.7 207.89,-35.24 219.33,-27.01"/>
<polygon fill="#63b8ff" stroke="#63b8ff" points="221.28,-29.91 227.42,-21.27 217.24,-24.2 221.28,-29.91"/>
</a>
</g>
</g>
<!-- Node11&#45;&gt;Node10 -->
<g id="edge18_Node000011_Node000010" class="edge">
<title>Node11&#45;&gt;Node10</title>
<g id="a_edge18_Node000011_Node000010"><a xlink:title=" ">
<path fill="none" stroke="#63b8ff" d="M109.53,-111.59C100.58,-103.93 87.73,-92.91 77.04,-83.75"/>
<polygon fill="#63b8ff" stroke="#63b8ff" points="79.37,-81.13 69.5,-77.28 74.81,-86.45 79.37,-81.13"/>
</a>
</g>
</g>
<!-- Node12&#45;&gt;Node3 -->
<g id="edge21_Node000012_Node000003" class="edge">
<title>Node12&#45;&gt;Node3</title>
<g id="a_edge21_Node000012_Node000003"><a xlink:title=" ">
<path fill="none" stroke="#63b8ff" d="M410.28,-111.62C406.1,-93.92 396.96,-55.24 391.3,-31.32"/>
<polygon fill="#63b8ff" stroke="#63b8ff" points="394.77,-30.75 389.06,-21.83 387.95,-32.36 394.77,-30.75"/>
</a>
</g>
</g>
<!-- Node12&#45;&gt;Node9 -->
<g id="edge20_Node000012_Node000009" class="edge">
<title>Node12&#45;&gt;Node9</title>
<g id="a_edge20_Node000012_Node000009"><a xlink:title=" ">
<path fill="none" stroke="#63b8ff" d="M454.08,-111.66C499.13,-101.2 565.8,-84.58 574.5,-76 586.28,-64.38 590.85,-45.88 592.58,-31.59"/>
<polygon fill="#63b8ff" stroke="#63b8ff" points="596.04,-32.14 593.35,-21.9 589.07,-31.58 596.04,-32.14"/>
</a>
</g>
</g>
<!-- Node12&#45;&gt;Node13 -->
<g id="edge22_Node000012_Node000013" class="edge">
<title>Node12&#45;&gt;Node13</title>
<g id="a_edge22_Node000012_Node000013"><a xlink:title=" ">
<path fill="none" stroke="#63b8ff" d="M435.32,-111.59C456.08,-103.04 486.96,-90.31 510.42,-80.63"/>
<polygon fill="#63b8ff" stroke="#63b8ff" points="511.63,-83.92 519.54,-76.88 508.96,-77.45 511.63,-83.92"/>
</a>
</g>
</g>
<!-- Node13&#45;&gt;Node3 -->
<g id="edge24_Node000013_Node000003" class="edge">
<title>Node13&#45;&gt;Node3</title>
<g id="a_edge24_Node000013_Node000003"><a xlink:title=" ">
<path fill="none" stroke="#63b8ff" d="M521.01,-57.26C493.94,-47.95 448.34,-32.27 417.84,-21.78"/>
<polygon fill="#63b8ff" stroke="#63b8ff" points="418.98,-18.47 408.39,-18.53 416.7,-25.09 418.98,-18.47"/>
</a>
</g>
</g>
<!-- Node13&#45;&gt;Node5 -->
<g id="edge25_Node000013_Node000005" class="edge">
<title>Node13&#45;&gt;Node5</title>
<g id="a_edge25_Node000013_Node000005"><a xlink:title=" ">
<path fill="none" stroke="#63b8ff" d="M533.92,-55.59C526.27,-48.08 515.34,-37.35 506.12,-28.3"/>
<polygon fill="#63b8ff" stroke="#63b8ff" points="508.64,-25.87 499.05,-21.36 503.73,-30.86 508.64,-25.87"/>
</a>
</g>
</g>
<!-- Node13&#45;&gt;Node9 -->
<g id="edge23_Node000013_Node000009" class="edge">
<title>Node13&#45;&gt;Node9</title>
<g id="a_edge23_Node000013_Node000009"><a xlink:title=" ">
<path fill="none" stroke="#63b8ff" d="M552.21,-55.59C559.09,-48.16 568.89,-37.58 577.22,-28.58"/>
<polygon fill="#63b8ff" stroke="#63b8ff" points="579.64,-31.12 583.86,-21.41 574.5,-26.37 579.64,-31.12"/>
</a>
</g>
</g>
<!-- Node14&#45;&gt;Node3 -->
<g id="edge29_Node000014_Node000003" class="edge">
<title>Node14&#45;&gt;Node3</title>
<g id="a_edge29_Node000014_Node000003"><a xlink:title=" ">
<path fill="none" stroke="#63b8ff" d="M484.7,-111.81C473.67,-103.03 456.92,-89.21 443.5,-76 428.18,-60.92 412.16,-42.37 401.02,-28.95"/>
<polygon fill="#63b8ff" stroke="#63b8ff" points="403.86,-26.89 394.81,-21.38 398.44,-31.33 403.86,-26.89"/>
</a>
</g>
</g>
<!-- Node14&#45;&gt;Node9 -->
<g id="edge28_Node000014_Node000009" class="edge">
<title>Node14&#45;&gt;Node9</title>
<g id="a_edge28_Node000014_Node000009"><a xlink:title=" ">
<path fill="none" stroke="#63b8ff" d="M520.86,-118.84C547.27,-115.05 588.21,-104.63 607.5,-76 616.66,-62.4 611.35,-43.88 604.8,-30.09"/>
<polygon fill="#63b8ff" stroke="#63b8ff" points="608.05,-28.74 600.25,-21.56 601.87,-32.03 608.05,-28.74"/>
</a>
</g>
</g>
<!-- Node15 -->
<g id="Node000015" class="node">
<title>Node15</title>
<g id="a_Node000015"><a xlink:href="_token_8h.html" target="_top" xlink:title=" ">
<polygon fill="white" stroke="#666666" points="502.75,-76 452.25,-76 452.25,-56 502.75,-56 502.75,-76"/>
<text text-anchor="middle" x="477.5" y="-62.5" font-family="Helvetica,sans-Serif" font-size="10.00">Token.h</text>
</a>
</g>
</g>
<!-- Node14&#45;&gt;Node15 -->
<g id="edge30_Node000014_Node000015" class="edge">
<title>Node14&#45;&gt;Node15</title>
<g id="a_edge30_Node000014_Node000015"><a xlink:title=" ">
<path fill="none" stroke="#63b8ff" d="M493.19,-111.59C490.82,-104.86 487.54,-95.53 484.59,-87.15"/>
<polygon fill="#63b8ff" stroke="#63b8ff" points="487.89,-86 481.27,-77.73 481.29,-88.32 487.89,-86"/>
</a>
</g>
</g>
<!-- Node15&#45;&gt;Node3 -->
<g id="edge32_Node000015_Node000003" class="edge">
<title>Node15&#45;&gt;Node3</title>
<g id="a_edge32_Node000015_Node000003"><a xlink:title=" ">
<path fill="none" stroke="#63b8ff" d="M461.65,-55.59C448.03,-47.51 428.14,-35.71 412.24,-26.27"/>
<polygon fill="#63b8ff" stroke="#63b8ff" points="414.16,-23.35 403.78,-21.25 410.59,-29.37 414.16,-23.35"/>
</a>
</g>
</g>
<!-- Node15&#45;&gt;Node6 -->
<g id="edge33_Node000015_Node000006" class="edge">
<title>Node15&#45;&gt;Node6</title>
<g id="a_edge33_Node000015_Node000006"><a xlink:title=" ">
<path fill="none" stroke="#63b8ff" d="M451.9,-59.12C414.38,-50.5 343.61,-34.23 294.8,-23.02"/>
<polygon fill="#63b8ff" stroke="#63b8ff" points="295.83,-19.66 285.3,-20.83 294.26,-26.49 295.83,-19.66"/>
</a>
</g>
</g>
<!-- Node15&#45;&gt;Node9 -->
<g id="edge31_Node000015_Node000009" class="edge">
<title>Node15&#45;&gt;Node9</title>
<g id="a_edge31_Node000015_Node000009"><a xlink:title=" ">
<path fill="none" stroke="#63b8ff" d="M497.71,-55.59C515.73,-47.21 542.37,-34.8 562.98,-25.21"/>
<polygon fill="#63b8ff" stroke="#63b8ff" points="564.18,-28.51 571.76,-21.12 561.22,-22.17 564.18,-28.51"/>
</a>
</g>
</g>
</g>
</svg>
