<?xml version="1.0" encoding="UTF-8" standalone="no"?>
<!DOCTYPE svg PUBLIC "-//W3C//DTD SVG 1.1//EN"
 "http://www.w3.org/Graphics/SVG/1.1/DTD/svg11.dtd">
<!-- Generated by graphviz version 12.2.1 (20241206.2353)
 -->
<!-- Title: C:/Users/emilly/Documents/Lucca/Projetos/Cpp/NikiScript/src/ProgramVariable.cpp Pages: 1 -->
<svg width="781pt" height="276pt"
 viewBox="0.00 0.00 780.90 276.00" xmlns="http://www.w3.org/2000/svg" xmlns:xlink="http://www.w3.org/1999/xlink">
<g id="graph0" class="graph" transform="scale(1 1) rotate(0) translate(4 272)">
<title>C:/Users/emilly/Documents/Lucca/Projetos/Cpp/NikiScript/src/ProgramVariable.cpp</title>
<!-- Node1 -->
<g id="Node000001" class="node">
<title>Node1</title>
<g id="a_Node000001"><a xlink:title=" ">
<polygon fill="#999999" stroke="#666666" points="242.45,-268 91.45,-268 91.45,-224 242.45,-224 242.45,-268"/>
<text text-anchor="start" x="99.45" y="-254.5" font-family="Helvetica,sans-Serif" font-size="10.00">C:/Users/emilly/Documents</text>
<text text-anchor="start" x="99.45" y="-242.5" font-family="Helvetica,sans-Serif" font-size="10.00">/Lucca/Projetos/Cpp/NikiScript</text>
<text text-anchor="middle" x="166.95" y="-230.5" font-family="Helvetica,sans-Serif" font-size="10.00">/src/ProgramVariable.cpp</text>
</a>
</g>
</g>
<!-- Node2 -->
<g id="Node000002" class="node">
<title>Node2</title>
<g id="a_Node000002"><a xlink:href="_program_variable_8h.html" target="_top" xlink:title=" ">
<polygon fill="white" stroke="#666666" points="100.7,-132 5.2,-132 5.2,-112 100.7,-112 100.7,-132"/>
<text text-anchor="middle" x="52.95" y="-118.5" font-family="Helvetica,sans-Serif" font-size="10.00">ProgramVariable.h</text>
</a>
</g>
</g>
<!-- Node1&#45;&gt;Node2 -->
<g id="edge1_Node000001_Node000002" class="edge">
<title>Node1&#45;&gt;Node2</title>
<g id="a_edge1_Node000001_Node000002"><a xlink:title=" ">
<path fill="none" stroke="#63b8ff" d="M147.09,-223.75C125.1,-200.21 90.04,-162.69 69.48,-140.69"/>
<polygon fill="#63b8ff" stroke="#63b8ff" points="72.06,-138.32 62.67,-133.41 66.94,-143.1 72.06,-138.32"/>
</a>
</g>
</g>
<!-- Node7 -->
<g id="Node000007" class="node">
<title>Node7</title>
<g id="a_Node000007"><a xlink:href="_context_8h.html" target="_top" xlink:title=" ">
<polygon fill="white" stroke="#666666" points="469.32,-188 410.57,-188 410.57,-168 469.32,-168 469.32,-188"/>
<text text-anchor="middle" x="439.95" y="-174.5" font-family="Helvetica,sans-Serif" font-size="10.00">Context.h</text>
</a>
</g>
</g>
<!-- Node1&#45;&gt;Node7 -->
<g id="edge6_Node000001_Node000007" class="edge">
<title>Node1&#45;&gt;Node7</title>
<g id="a_edge6_Node000001_Node000007"><a xlink:title=" ">
<path fill="none" stroke="#63b8ff" d="M242.63,-226.7C293.26,-214.46 357.92,-198.83 399.14,-188.87"/>
<polygon fill="#63b8ff" stroke="#63b8ff" points="399.75,-192.32 408.65,-186.57 398.1,-185.52 399.75,-192.32"/>
</a>
</g>
</g>
<!-- Node13 -->
<g id="Node000013" class="node">
<title>Node13</title>
<g id="a_Node000013"><a xlink:href="_utils_8h.html" target="_top" xlink:title=" ">
<polygon fill="white" stroke="#666666" points="304.2,-76 259.7,-76 259.7,-56 304.2,-56 304.2,-76"/>
<text text-anchor="middle" x="281.95" y="-62.5" font-family="Helvetica,sans-Serif" font-size="10.00">Utils.h</text>
</a>
</g>
</g>
<!-- Node1&#45;&gt;Node13 -->
<g id="edge41_Node000001_Node000013" class="edge">
<title>Node1&#45;&gt;Node13</title>
<g id="a_edge41_Node000001_Node000013"><a xlink:title=" ">
<path fill="none" stroke="#63b8ff" d="M180.82,-223.53C203.57,-188.32 248.42,-118.9 269.91,-85.63"/>
<polygon fill="#63b8ff" stroke="#63b8ff" points="272.7,-87.76 275.19,-77.46 266.82,-83.96 272.7,-87.76"/>
</a>
</g>
</g>
<!-- Node3 -->
<g id="Node000003" class="node">
<title>Node3</title>
<g id="a_Node000003"><a xlink:title=" ">
<polygon fill="#e0e0e0" stroke="#999999" points="496.95,-20 456.95,-20 456.95,0 496.95,0 496.95,-20"/>
<text text-anchor="middle" x="476.95" y="-6.5" font-family="Helvetica,sans-Serif" font-size="10.00">string</text>
</a>
</g>
</g>
<!-- Node2&#45;&gt;Node3 -->
<g id="edge2_Node000002_Node000003" class="edge">
<title>Node2&#45;&gt;Node3</title>
<g id="a_edge2_Node000002_Node000003"><a xlink:title=" ">
<path fill="none" stroke="#63b8ff" d="M53.14,-111.73C53.98,-97.31 57.88,-69.75 74.95,-56 89.36,-44.39 352.58,-21.39 445.11,-13.63"/>
<polygon fill="#63b8ff" stroke="#63b8ff" points="445.32,-17.12 454.99,-12.8 444.74,-10.15 445.32,-17.12"/>
</a>
</g>
</g>
<!-- Node4 -->
<g id="Node000004" class="node">
<title>Node4</title>
<g id="a_Node000004"><a xlink:title=" ">
<polygon fill="#e0e0e0" stroke="#999999" points="149.57,-20 98.32,-20 98.32,0 149.57,0 149.57,-20"/>
<text text-anchor="middle" x="123.95" y="-6.5" font-family="Helvetica,sans-Serif" font-size="10.00">sstream</text>
</a>
</g>
</g>
<!-- Node2&#45;&gt;Node4 -->
<g id="edge3_Node000002_Node000004" class="edge">
<title>Node2&#45;&gt;Node4</title>
<g id="a_edge3_Node000002_Node000004"><a xlink:title=" ">
<path fill="none" stroke="#63b8ff" d="M37.11,-111.7C17.93,-99.24 -10.14,-76.33 3.95,-56 22.41,-29.36 58.73,-18.46 86.59,-14.02"/>
<polygon fill="#63b8ff" stroke="#63b8ff" points="87,-17.5 96.44,-12.69 86.06,-10.56 87,-17.5"/>
</a>
</g>
</g>
<!-- Node5 -->
<g id="Node000005" class="node">
<title>Node5</title>
<g id="a_Node000005"><a xlink:title=" ">
<polygon fill="#e0e0e0" stroke="#999999" points="166.32,-76 83.57,-76 83.57,-56 166.32,-56 166.32,-76"/>
<text text-anchor="middle" x="124.95" y="-62.5" font-family="Helvetica,sans-Serif" font-size="10.00">unordered_map</text>
</a>
</g>
</g>
<!-- Node2&#45;&gt;Node5 -->
<g id="edge4_Node000002_Node000005" class="edge">
<title>Node2&#45;&gt;Node5</title>
<g id="a_edge4_Node000002_Node000005"><a xlink:title=" ">
<path fill="none" stroke="#63b8ff" d="M65.49,-111.59C75.92,-103.77 91,-92.46 103.36,-83.19"/>
<polygon fill="#63b8ff" stroke="#63b8ff" points="105.44,-86.01 111.34,-77.21 101.24,-80.41 105.44,-86.01"/>
</a>
</g>
</g>
<!-- Node6 -->
<g id="Node000006" class="node">
<title>Node6</title>
<g id="a_Node000006"><a xlink:href="_d_l_l_8h.html" target="_top" xlink:title=" ">
<polygon fill="white" stroke="#666666" points="328.07,-20 285.82,-20 285.82,0 328.07,0 328.07,-20"/>
<text text-anchor="middle" x="306.95" y="-6.5" font-family="Helvetica,sans-Serif" font-size="10.00">DLL.h</text>
</a>
</g>
</g>
<!-- Node2&#45;&gt;Node6 -->
<g id="edge5_Node000002_Node000006" class="edge">
<title>Node2&#45;&gt;Node6</title>
<g id="a_edge5_Node000002_Node000006"><a xlink:title=" ">
<path fill="none" stroke="#63b8ff" d="M47.35,-111.84C39.74,-98.05 28.51,-71.91 41.95,-56 56.83,-38.38 206.67,-21.15 274.23,-14.2"/>
<polygon fill="#63b8ff" stroke="#63b8ff" points="274.35,-17.71 283.95,-13.22 273.65,-10.74 274.35,-17.71"/>
</a>
</g>
</g>
<!-- Node7&#45;&gt;Node2 -->
<g id="edge30_Node000007_Node000002" class="edge">
<title>Node7&#45;&gt;Node2</title>
<g id="a_edge30_Node000007_Node000002"><a xlink:title=" ">
<path fill="none" stroke="#63b8ff" d="M410.36,-172.97C353.24,-165.17 223.8,-147.44 114.95,-132 114.1,-131.88 113.25,-131.76 112.39,-131.64"/>
<polygon fill="#63b8ff" stroke="#63b8ff" points="112.9,-128.17 102.51,-130.22 111.91,-135.1 112.9,-128.17"/>
</a>
</g>
</g>
<!-- Node7&#45;&gt;Node3 -->
<g id="edge9_Node000007_Node000003" class="edge">
<title>Node7&#45;&gt;Node3</title>
<g id="a_edge9_Node000007_Node000003"><a xlink:title=" ">
<path fill="none" stroke="#63b8ff" d="M459.29,-167.64C487.2,-152.81 537.14,-120.92 552.95,-76 555.9,-67.62 557.35,-63.72 552.95,-56 543.23,-38.95 524.24,-27.7 507.67,-20.72"/>
<polygon fill="#63b8ff" stroke="#63b8ff" points="509.26,-17.58 498.67,-17.26 506.75,-24.11 509.26,-17.58"/>
</a>
</g>
</g>
<!-- Node7&#45;&gt;Node5 -->
<g id="edge10_Node000007_Node000005" class="edge">
<title>Node7&#45;&gt;Node5</title>
<g id="a_edge10_Node000007_Node000005"><a xlink:title=" ">
<path fill="none" stroke="#63b8ff" d="M410.16,-177.17C361.54,-176.28 263.29,-169.51 190.95,-132 169.4,-120.83 150.32,-100.23 138.28,-85.21"/>
<polygon fill="#63b8ff" stroke="#63b8ff" points="141.23,-83.3 132.36,-77.5 135.68,-87.56 141.23,-83.3"/>
</a>
</g>
</g>
<!-- Node7&#45;&gt;Node6 -->
<g id="edge40_Node000007_Node000006" class="edge">
<title>Node7&#45;&gt;Node6</title>
<g id="a_edge40_Node000007_Node000006"><a xlink:title=" ">
<path fill="none" stroke="#63b8ff" d="M410.12,-176.7C372.92,-174.79 309.31,-166.28 268.95,-132 241.85,-108.98 227.68,-87.62 243.95,-56 250.72,-42.83 263.33,-32.67 275.5,-25.36"/>
<polygon fill="#63b8ff" stroke="#63b8ff" points="277.07,-28.49 284.15,-20.61 273.7,-22.35 277.07,-28.49"/>
</a>
</g>
</g>
<!-- Node8 -->
<g id="Node000008" class="node">
<title>Node8</title>
<g id="a_Node000008"><a xlink:title=" ">
<polygon fill="#e0e0e0" stroke="#999999" points="722.45,-20 679.45,-20 679.45,0 722.45,0 722.45,-20"/>
<text text-anchor="middle" x="700.95" y="-6.5" font-family="Helvetica,sans-Serif" font-size="10.00">vector</text>
</a>
</g>
</g>
<!-- Node7&#45;&gt;Node8 -->
<g id="edge7_Node000007_Node000008" class="edge">
<title>Node7&#45;&gt;Node8</title>
<g id="a_edge7_Node000007_Node000008"><a xlink:title=" ">
<path fill="none" stroke="#63b8ff" d="M469.69,-175.12C533.72,-170.64 682.25,-157.71 724.95,-132 758.01,-112.09 784.98,-90.12 766.95,-56 759.64,-42.16 745.95,-31.78 732.93,-24.5"/>
<polygon fill="#63b8ff" stroke="#63b8ff" points="734.61,-21.43 724.11,-20 731.43,-27.66 734.61,-21.43"/>
</a>
</g>
</g>
<!-- Node9 -->
<g id="Node000009" class="node">
<title>Node9</title>
<g id="a_Node000009"><a xlink:title=" ">
<polygon fill="#e0e0e0" stroke="#999999" points="628.07,-20 579.82,-20 579.82,0 628.07,0 628.07,-20"/>
<text text-anchor="middle" x="603.95" y="-6.5" font-family="Helvetica,sans-Serif" font-size="10.00">stdint.h</text>
</a>
</g>
</g>
<!-- Node7&#45;&gt;Node9 -->
<g id="edge8_Node000007_Node000009" class="edge">
<title>Node7&#45;&gt;Node9</title>
<g id="a_edge8_Node000007_Node000009"><a xlink:title=" ">
<path fill="none" stroke="#63b8ff" d="M469.68,-177.41C519.23,-176.91 620.58,-170.72 694.95,-132 726.17,-115.75 737.48,-108.52 750.95,-76 754.35,-67.79 756.24,-63.15 750.95,-56 737.65,-38.02 678.78,-24.3 639.7,-16.96"/>
<polygon fill="#63b8ff" stroke="#63b8ff" points="640.47,-13.55 630.01,-15.21 639.22,-20.44 640.47,-13.55"/>
</a>
</g>
</g>
<!-- Node10 -->
<g id="Node000010" class="node">
<title>Node10</title>
<g id="a_Node000010"><a xlink:href="_command_8h.html" target="_top" xlink:title=" ">
<polygon fill="white" stroke="#666666" points="543.57,-76 474.32,-76 474.32,-56 543.57,-56 543.57,-76"/>
<text text-anchor="middle" x="508.95" y="-62.5" font-family="Helvetica,sans-Serif" font-size="10.00">Command.h</text>
</a>
</g>
</g>
<!-- Node7&#45;&gt;Node10 -->
<g id="edge11_Node000007_Node000010" class="edge">
<title>Node7&#45;&gt;Node10</title>
<g id="a_edge11_Node000007_Node000010"><a xlink:title=" ">
<path fill="none" stroke="#63b8ff" d="M454.23,-167.54C465.48,-159.39 480.75,-146.63 489.95,-132 498.48,-118.43 503.31,-100.89 505.96,-87.45"/>
<polygon fill="#63b8ff" stroke="#63b8ff" points="509.35,-88.43 507.58,-77.98 502.45,-87.25 509.35,-88.43"/>
</a>
</g>
</g>
<!-- Node11 -->
<g id="Node000011" class="node">
<title>Node11</title>
<g id="a_Node000011"><a xlink:href="_command_handler_8h.html" target="_top" xlink:title=" ">
<polygon fill="white" stroke="#666666" points="380.45,-132 277.45,-132 277.45,-112 380.45,-112 380.45,-132"/>
<text text-anchor="middle" x="328.95" y="-118.5" font-family="Helvetica,sans-Serif" font-size="10.00">CommandHandler.h</text>
</a>
</g>
</g>
<!-- Node7&#45;&gt;Node11 -->
<g id="edge16_Node000007_Node000011" class="edge">
<title>Node7&#45;&gt;Node11</title>
<g id="a_edge16_Node000007_Node000011"><a xlink:title=" ">
<path fill="none" stroke="#63b8ff" d="M420.61,-167.59C403.53,-159.28 378.35,-147.03 358.7,-137.47"/>
<polygon fill="#63b8ff" stroke="#63b8ff" points="360.32,-134.37 349.8,-133.14 357.26,-140.66 360.32,-134.37"/>
</a>
</g>
</g>
<!-- Node12 -->
<g id="Node000012" class="node">
<title>Node12</title>
<g id="a_Node000012"><a xlink:href="_print_callback_8h.html" target="_top" xlink:title=" ">
<polygon fill="white" stroke="#666666" points="481.32,-132 398.57,-132 398.57,-112 481.32,-112 481.32,-132"/>
<text text-anchor="middle" x="439.95" y="-118.5" font-family="Helvetica,sans-Serif" font-size="10.00">PrintCallback.h</text>
</a>
</g>
</g>
<!-- Node7&#45;&gt;Node12 -->
<g id="edge21_Node000007_Node000012" class="edge">
<title>Node7&#45;&gt;Node12</title>
<g id="a_edge21_Node000007_Node000012"><a xlink:title=" ">
<path fill="none" stroke="#63b8ff" d="M439.95,-167.59C439.95,-161.01 439.95,-151.96 439.95,-143.73"/>
<polygon fill="#63b8ff" stroke="#63b8ff" points="443.45,-143.81 439.95,-133.81 436.45,-143.81 443.45,-143.81"/>
</a>
</g>
</g>
<!-- Node14 -->
<g id="Node000014" class="node">
<title>Node14</title>
<g id="a_Node000014"><a xlink:href="_lexer_8h.html" target="_top" xlink:title=" ">
<polygon fill="white" stroke="#666666" points="686.07,-132 637.82,-132 637.82,-112 686.07,-112 686.07,-132"/>
<text text-anchor="middle" x="661.95" y="-118.5" font-family="Helvetica,sans-Serif" font-size="10.00">Lexer.h</text>
</a>
</g>
</g>
<!-- Node7&#45;&gt;Node14 -->
<g id="edge31_Node000007_Node000014" class="edge">
<title>Node7&#45;&gt;Node14</title>
<g id="a_edge31_Node000007_Node000014"><a xlink:title=" ">
<path fill="none" stroke="#63b8ff" d="M469.43,-169.83C510.03,-159.95 583.06,-142.19 626.56,-131.61"/>
<polygon fill="#63b8ff" stroke="#63b8ff" points="627.11,-135.08 636,-129.31 625.46,-128.27 627.11,-135.08"/>
</a>
</g>
</g>
<!-- Node10&#45;&gt;Node3 -->
<g id="edge13_Node000010_Node000003" class="edge">
<title>Node10&#45;&gt;Node3</title>
<g id="a_edge13_Node000010_Node000003"><a xlink:title=" ">
<path fill="none" stroke="#63b8ff" d="M503.38,-55.59C499.2,-48.55 493.35,-38.67 488.21,-30"/>
<polygon fill="#63b8ff" stroke="#63b8ff" points="491.34,-28.42 483.23,-21.6 485.32,-31.99 491.34,-28.42"/>
</a>
</g>
</g>
<!-- Node10&#45;&gt;Node6 -->
<g id="edge15_Node000010_Node000006" class="edge">
<title>Node10&#45;&gt;Node6</title>
<g id="a_edge15_Node000010_Node000006"><a xlink:title=" ">
<path fill="none" stroke="#63b8ff" d="M474.22,-55.72C436.3,-45.58 376.05,-29.47 339.15,-19.61"/>
<polygon fill="#63b8ff" stroke="#63b8ff" points="340.53,-16.35 329.96,-17.15 338.72,-23.12 340.53,-16.35"/>
</a>
</g>
</g>
<!-- Node10&#45;&gt;Node8 -->
<g id="edge12_Node000010_Node000008" class="edge">
<title>Node10&#45;&gt;Node8</title>
<g id="a_edge12_Node000010_Node000008"><a xlink:title=" ">
<path fill="none" stroke="#63b8ff" d="M542.39,-55.59C577.72,-45.66 633.07,-30.09 668.15,-20.22"/>
<polygon fill="#63b8ff" stroke="#63b8ff" points="669.08,-23.6 677.76,-17.52 667.19,-16.86 669.08,-23.6"/>
</a>
</g>
</g>
<!-- Node10&#45;&gt;Node9 -->
<g id="edge14_Node000010_Node000009" class="edge">
<title>Node10&#45;&gt;Node9</title>
<g id="a_edge14_Node000010_Node000009"><a xlink:title=" ">
<path fill="none" stroke="#63b8ff" d="M525.5,-55.59C539.85,-47.44 560.88,-35.48 577.55,-26"/>
<polygon fill="#63b8ff" stroke="#63b8ff" points="578.99,-29.21 585.96,-21.23 575.53,-23.13 578.99,-29.21"/>
</a>
</g>
</g>
<!-- Node11&#45;&gt;Node3 -->
<g id="edge18_Node000011_Node000003" class="edge">
<title>Node11&#45;&gt;Node3</title>
<g id="a_edge18_Node000011_Node000003"><a xlink:title=" ">
<path fill="none" stroke="#63b8ff" d="M341.57,-111.62C366.8,-92.87 423.74,-50.55 455.14,-27.21"/>
<polygon fill="#63b8ff" stroke="#63b8ff" points="457.21,-30.03 463.15,-21.26 453.03,-24.41 457.21,-30.03"/>
</a>
</g>
</g>
<!-- Node11&#45;&gt;Node5 -->
<g id="edge17_Node000011_Node000005" class="edge">
<title>Node11&#45;&gt;Node5</title>
<g id="a_edge17_Node000011_Node000005"><a xlink:title=" ">
<path fill="none" stroke="#63b8ff" d="M293.42,-111.59C259.69,-102.67 208.79,-89.19 171.77,-79.39"/>
<polygon fill="#63b8ff" stroke="#63b8ff" points="172.79,-76.04 162.22,-76.87 171,-82.81 172.79,-76.04"/>
</a>
</g>
</g>
<!-- Node11&#45;&gt;Node6 -->
<g id="edge20_Node000011_Node000006" class="edge">
<title>Node11&#45;&gt;Node6</title>
<g id="a_edge20_Node000011_Node000006"><a xlink:title=" ">
<path fill="none" stroke="#63b8ff" d="M297.85,-111.66C280.76,-104.75 261.04,-93.46 250.95,-76 240.1,-57.22 259.71,-38.77 278.64,-26.36"/>
<polygon fill="#63b8ff" stroke="#63b8ff" points="280.32,-29.44 287.02,-21.23 276.67,-23.46 280.32,-29.44"/>
</a>
</g>
</g>
<!-- Node11&#45;&gt;Node10 -->
<g id="edge19_Node000011_Node000010" class="edge">
<title>Node11&#45;&gt;Node10</title>
<g id="a_edge19_Node000011_Node000010"><a xlink:title=" ">
<path fill="none" stroke="#63b8ff" d="M360.3,-111.59C389.68,-102.78 433.81,-89.54 466.36,-79.78"/>
<polygon fill="#63b8ff" stroke="#63b8ff" points="467.33,-83.14 475.9,-76.91 465.32,-76.44 467.33,-83.14"/>
</a>
</g>
</g>
<!-- Node12&#45;&gt;Node3 -->
<g id="edge23_Node000012_Node000003" class="edge">
<title>Node12&#45;&gt;Node3</title>
<g id="a_edge23_Node000012_Node000003"><a xlink:title=" ">
<path fill="none" stroke="#63b8ff" d="M443.1,-111.62C449.08,-93.84 462.19,-54.88 470.22,-31"/>
<polygon fill="#63b8ff" stroke="#63b8ff" points="473.45,-32.38 473.32,-21.79 466.81,-30.15 473.45,-32.38"/>
</a>
</g>
</g>
<!-- Node12&#45;&gt;Node6 -->
<g id="edge24_Node000012_Node000006" class="edge">
<title>Node12&#45;&gt;Node6</title>
<g id="a_edge24_Node000012_Node000006"><a xlink:title=" ">
<path fill="none" stroke="#63b8ff" d="M428.61,-111.62C406.03,-92.95 355.21,-50.92 326.92,-27.52"/>
<polygon fill="#63b8ff" stroke="#63b8ff" points="329.36,-25 319.43,-21.32 324.9,-30.39 329.36,-25"/>
</a>
</g>
</g>
<!-- Node12&#45;&gt;Node9 -->
<g id="edge22_Node000012_Node000009" class="edge">
<title>Node12&#45;&gt;Node9</title>
<g id="a_edge22_Node000012_Node000009"><a xlink:title=" ">
<path fill="none" stroke="#63b8ff" d="M477.3,-111.55C500.62,-104.4 530.38,-92.89 552.95,-76 569.61,-63.54 583.76,-44.34 592.9,-30.03"/>
<polygon fill="#63b8ff" stroke="#63b8ff" points="595.86,-31.89 598.08,-21.53 589.89,-28.24 595.86,-31.89"/>
</a>
</g>
</g>
<!-- Node12&#45;&gt;Node13 -->
<g id="edge25_Node000012_Node000013" class="edge">
<title>Node12&#45;&gt;Node13</title>
<g id="a_edge25_Node000012_Node000013"><a xlink:title=" ">
<path fill="none" stroke="#63b8ff" d="M412.43,-111.59C385.42,-102.36 344.2,-88.28 315.33,-78.41"/>
<polygon fill="#63b8ff" stroke="#63b8ff" points="316.58,-75.14 305.99,-75.22 314.32,-81.76 316.58,-75.14"/>
</a>
</g>
</g>
<!-- Node13&#45;&gt;Node3 -->
<g id="edge27_Node000013_Node000003" class="edge">
<title>Node13&#45;&gt;Node3</title>
<g id="a_edge27_Node000013_Node000003"><a xlink:title=" ">
<path fill="none" stroke="#63b8ff" d="M304.32,-58.81C339.03,-49.19 405.96,-30.66 445.51,-19.71"/>
<polygon fill="#63b8ff" stroke="#63b8ff" points="446.44,-23.08 455.15,-17.04 444.57,-16.33 446.44,-23.08"/>
</a>
</g>
</g>
<!-- Node13&#45;&gt;Node4 -->
<g id="edge28_Node000013_Node000004" class="edge">
<title>Node13&#45;&gt;Node4</title>
<g id="a_edge28_Node000013_Node000004"><a xlink:title=" ">
<path fill="none" stroke="#63b8ff" d="M259.31,-57.26C233.55,-48.46 191.1,-33.95 160.6,-23.53"/>
<polygon fill="#63b8ff" stroke="#63b8ff" points="161.99,-20.3 151.39,-20.38 159.72,-26.93 161.99,-20.3"/>
</a>
</g>
</g>
<!-- Node13&#45;&gt;Node6 -->
<g id="edge29_Node000013_Node000006" class="edge">
<title>Node13&#45;&gt;Node6</title>
<g id="a_edge29_Node000013_Node000006"><a xlink:title=" ">
<path fill="none" stroke="#63b8ff" d="M286.3,-55.59C289.49,-48.7 293.94,-39.1 297.89,-30.57"/>
<polygon fill="#63b8ff" stroke="#63b8ff" points="300.98,-32.22 302.01,-21.67 294.63,-29.28 300.98,-32.22"/>
</a>
</g>
</g>
<!-- Node13&#45;&gt;Node9 -->
<g id="edge26_Node000013_Node000009" class="edge">
<title>Node13&#45;&gt;Node9</title>
<g id="a_edge26_Node000013_Node000009"><a xlink:title=" ">
<path fill="none" stroke="#63b8ff" d="M304.59,-61.2C359.82,-51.94 501.81,-28.13 568.44,-16.96"/>
<polygon fill="#63b8ff" stroke="#63b8ff" points="568.81,-20.44 578.09,-15.34 567.65,-13.54 568.81,-20.44"/>
</a>
</g>
</g>
<!-- Node14&#45;&gt;Node3 -->
<g id="edge33_Node000014_Node000003" class="edge">
<title>Node14&#45;&gt;Node3</title>
<g id="a_edge33_Node000014_Node000003"><a xlink:title=" ">
<path fill="none" stroke="#63b8ff" d="M658.94,-111.55C653.94,-97.39 642.61,-70.76 623.95,-56 590.26,-29.35 540.84,-18.42 508.77,-13.98"/>
<polygon fill="#63b8ff" stroke="#63b8ff" points="509.26,-10.51 498.9,-12.76 508.4,-17.46 509.26,-10.51"/>
</a>
</g>
</g>
<!-- Node14&#45;&gt;Node6 -->
<g id="edge39_Node000014_Node000006" class="edge">
<title>Node14&#45;&gt;Node6</title>
<g id="a_edge39_Node000014_Node000006"><a xlink:title=" ">
<path fill="none" stroke="#63b8ff" d="M637.34,-116.74C599.7,-109.91 525.81,-95.32 464.95,-76 419.18,-61.47 368.1,-39.32 336.74,-25"/>
<polygon fill="#63b8ff" stroke="#63b8ff" points="338.43,-21.92 327.89,-20.92 335.5,-28.28 338.43,-21.92"/>
</a>
</g>
</g>
<!-- Node14&#45;&gt;Node9 -->
<g id="edge32_Node000014_Node000009" class="edge">
<title>Node14&#45;&gt;Node9</title>
<g id="a_edge32_Node000014_Node000009"><a xlink:title=" ">
<path fill="none" stroke="#63b8ff" d="M686.32,-112.07C713.57,-100.69 751.81,-79.62 734.95,-56 723.65,-40.17 674.35,-26.39 639.57,-18.38"/>
<polygon fill="#63b8ff" stroke="#63b8ff" points="640.41,-14.98 629.88,-16.22 638.88,-21.81 640.41,-14.98"/>
</a>
</g>
</g>
<!-- Node15 -->
<g id="Node000015" class="node">
<title>Node15</title>
<g id="a_Node000015"><a xlink:href="_token_8h.html" target="_top" xlink:title=" ">
<polygon fill="white" stroke="#666666" points="726.2,-76 675.7,-76 675.7,-56 726.2,-56 726.2,-76"/>
<text text-anchor="middle" x="700.95" y="-62.5" font-family="Helvetica,sans-Serif" font-size="10.00">Token.h</text>
</a>
</g>
</g>
<!-- Node14&#45;&gt;Node15 -->
<g id="edge34_Node000014_Node000015" class="edge">
<title>Node14&#45;&gt;Node15</title>
<g id="a_edge34_Node000014_Node000015"><a xlink:title=" ">
<path fill="none" stroke="#63b8ff" d="M668.74,-111.59C673.94,-104.39 681.28,-94.23 687.64,-85.43"/>
<polygon fill="#63b8ff" stroke="#63b8ff" points="690.33,-87.68 693.35,-77.53 684.66,-83.58 690.33,-87.68"/>
</a>
</g>
</g>
<!-- Node15&#45;&gt;Node3 -->
<g id="edge36_Node000015_Node000003" class="edge">
<title>Node15&#45;&gt;Node3</title>
<g id="a_edge36_Node000015_Node000003"><a xlink:title=" ">
<path fill="none" stroke="#63b8ff" d="M675.25,-58.81C634.01,-48.86 553.14,-29.37 508.47,-18.6"/>
<polygon fill="#63b8ff" stroke="#63b8ff" points="509.43,-15.23 498.88,-16.29 507.78,-22.03 509.43,-15.23"/>
</a>
</g>
</g>
<!-- Node15&#45;&gt;Node6 -->
<g id="edge38_Node000015_Node000006" class="edge">
<title>Node15&#45;&gt;Node6</title>
<g id="a_edge38_Node000015_Node000006"><a xlink:title=" ">
<path fill="none" stroke="#63b8ff" d="M675.4,-61.5C606.45,-52.05 416.59,-26.03 339.81,-15.5"/>
<polygon fill="#63b8ff" stroke="#63b8ff" points="340.38,-12.05 329.99,-14.16 339.43,-18.98 340.38,-12.05"/>
</a>
</g>
</g>
<!-- Node15&#45;&gt;Node8 -->
<g id="edge37_Node000015_Node000008" class="edge">
<title>Node15&#45;&gt;Node8</title>
<g id="a_edge37_Node000015_Node000008"><a xlink:title=" ">
<path fill="none" stroke="#63b8ff" d="M700.95,-55.59C700.95,-49.01 700.95,-39.96 700.95,-31.73"/>
<polygon fill="#63b8ff" stroke="#63b8ff" points="704.45,-31.81 700.95,-21.81 697.45,-31.81 704.45,-31.81"/>
</a>
</g>
</g>
<!-- Node15&#45;&gt;Node9 -->
<g id="edge35_Node000015_Node000009" class="edge">
<title>Node15&#45;&gt;Node9</title>
<g id="a_edge35_Node000015_Node000009"><a xlink:title=" ">
<path fill="none" stroke="#63b8ff" d="M684.05,-55.59C669.4,-47.44 647.93,-35.48 630.9,-26"/>
<polygon fill="#63b8ff" stroke="#63b8ff" points="632.74,-23.02 622.3,-21.22 629.33,-29.14 632.74,-23.02"/>
</a>
</g>
</g>
</g>
</svg>
