<?xml version="1.0" encoding="UTF-8" standalone="no"?>
<!DOCTYPE svg PUBLIC "-//W3C//DTD SVG 1.1//EN"
 "http://www.w3.org/Graphics/SVG/1.1/DTD/svg11.dtd">
<!-- Generated by graphviz version 12.2.1 (20241206.2353)
 -->
<!-- Title: C:/Users/emilly/Documents/Lucca/Projetos/Cpp/NikiScript/src/ProgramVariable.cpp Pages: 1 -->
<svg width="690pt" height="276pt"
 viewBox="0.00 0.00 690.12 276.00" xmlns="http://www.w3.org/2000/svg" xmlns:xlink="http://www.w3.org/1999/xlink">
<g id="graph0" class="graph" transform="scale(1 1) rotate(0) translate(4 272)">
<title>C:/Users/emilly/Documents/Lucca/Projetos/Cpp/NikiScript/src/ProgramVariable.cpp</title>
<!-- Node1 -->
<g id="Node000001" class="node">
<title>Node1</title>
<g id="a_Node000001"><a xlink:title=" ">
<polygon fill="#999999" stroke="#666666" points="386,-268 235,-268 235,-224 386,-224 386,-268"/>
<text text-anchor="start" x="243" y="-254.5" font-family="Helvetica,sans-Serif" font-size="10.00">C:/Users/emilly/Documents</text>
<text text-anchor="start" x="243" y="-242.5" font-family="Helvetica,sans-Serif" font-size="10.00">/Lucca/Projetos/Cpp/NikiScript</text>
<text text-anchor="middle" x="310.5" y="-230.5" font-family="Helvetica,sans-Serif" font-size="10.00">/src/ProgramVariable.cpp</text>
</a>
</g>
</g>
<!-- Node2 -->
<g id="Node000002" class="node">
<title>Node2</title>
<g id="a_Node000002"><a xlink:href="_program_variable_8h.html" target="_top" xlink:title=" ">
<polygon fill="white" stroke="#666666" points="282.25,-76 186.75,-76 186.75,-56 282.25,-56 282.25,-76"/>
<text text-anchor="middle" x="234.5" y="-62.5" font-family="Helvetica,sans-Serif" font-size="10.00">ProgramVariable.h</text>
</a>
</g>
</g>
<!-- Node1&#45;&gt;Node2 -->
<g id="edge1_Node000001_Node000002" class="edge">
<title>Node1&#45;&gt;Node2</title>
<g id="a_edge1_Node000001_Node000002"><a xlink:title=" ">
<path fill="none" stroke="#63b8ff" d="M294.18,-223.67C286.81,-213.32 278.45,-200.45 272.5,-188 256.4,-154.34 244.96,-112.22 239.07,-87.59"/>
<polygon fill="#63b8ff" stroke="#63b8ff" points="242.5,-86.88 236.84,-77.92 235.68,-88.45 242.5,-86.88"/>
</a>
</g>
</g>
<!-- Node6 -->
<g id="Node000006" class="node">
<title>Node6</title>
<g id="a_Node000006"><a xlink:href="_context_8h.html" target="_top" xlink:title=" ">
<polygon fill="white" stroke="#666666" points="339.88,-188 281.12,-188 281.12,-168 339.88,-168 339.88,-188"/>
<text text-anchor="middle" x="310.5" y="-174.5" font-family="Helvetica,sans-Serif" font-size="10.00">Context.h</text>
</a>
</g>
</g>
<!-- Node1&#45;&gt;Node6 -->
<g id="edge5_Node000001_Node000006" class="edge">
<title>Node1&#45;&gt;Node6</title>
<g id="a_edge5_Node000001_Node000006"><a xlink:title=" ">
<path fill="none" stroke="#63b8ff" d="M310.5,-223.75C310.5,-216.13 310.5,-207.53 310.5,-199.93"/>
<polygon fill="#63b8ff" stroke="#63b8ff" points="314,-199.93 310.5,-189.93 307,-199.93 314,-199.93"/>
</a>
</g>
</g>
<!-- Node12 -->
<g id="Node000012" class="node">
<title>Node12</title>
<g id="a_Node000012"><a xlink:href="_utils_8h.html" target="_top" xlink:title=" ">
<polygon fill="white" stroke="#666666" points="678.75,-76 634.25,-76 634.25,-56 678.75,-56 678.75,-76"/>
<text text-anchor="middle" x="656.5" y="-62.5" font-family="Helvetica,sans-Serif" font-size="10.00">Utils.h</text>
</a>
</g>
</g>
<!-- Node1&#45;&gt;Node12 -->
<g id="edge33_Node000001_Node000012" class="edge">
<title>Node1&#45;&gt;Node12</title>
<g id="a_edge33_Node000001_Node000012"><a xlink:title=" ">
<path fill="none" stroke="#63b8ff" d="M386.43,-227.06C448.61,-209.81 536.74,-179.28 602.5,-132 619.94,-119.46 635.1,-99.99 644.88,-85.63"/>
<polygon fill="#63b8ff" stroke="#63b8ff" points="647.64,-87.8 650.18,-77.51 641.78,-83.97 647.64,-87.8"/>
</a>
</g>
</g>
<!-- Node3 -->
<g id="Node000003" class="node">
<title>Node3</title>
<g id="a_Node000003"><a xlink:title=" ">
<polygon fill="#e0e0e0" stroke="#999999" points="406.5,-20 366.5,-20 366.5,0 406.5,0 406.5,-20"/>
<text text-anchor="middle" x="386.5" y="-6.5" font-family="Helvetica,sans-Serif" font-size="10.00">string</text>
</a>
</g>
</g>
<!-- Node2&#45;&gt;Node3 -->
<g id="edge2_Node000002_Node000003" class="edge">
<title>Node2&#45;&gt;Node3</title>
<g id="a_edge2_Node000002_Node000003"><a xlink:title=" ">
<path fill="none" stroke="#63b8ff" d="M260.98,-55.59C287.29,-46.25 327.63,-31.91 355.45,-22.03"/>
<polygon fill="#63b8ff" stroke="#63b8ff" points="356.48,-25.38 364.73,-18.73 354.14,-18.78 356.48,-25.38"/>
</a>
</g>
</g>
<!-- Node4 -->
<g id="Node000004" class="node">
<title>Node4</title>
<g id="a_Node000004"><a xlink:title=" ">
<polygon fill="#e0e0e0" stroke="#999999" points="153.25,-20 87.75,-20 87.75,0 153.25,0 153.25,-20"/>
<text text-anchor="middle" x="120.5" y="-6.5" font-family="Helvetica,sans-Serif" font-size="10.00">string_view</text>
</a>
</g>
</g>
<!-- Node2&#45;&gt;Node4 -->
<g id="edge3_Node000002_Node000004" class="edge">
<title>Node2&#45;&gt;Node4</title>
<g id="a_edge3_Node000002_Node000004"><a xlink:title=" ">
<path fill="none" stroke="#63b8ff" d="M214.64,-55.59C197.01,-47.24 170.99,-34.92 150.77,-25.34"/>
<polygon fill="#63b8ff" stroke="#63b8ff" points="152.42,-22.25 141.88,-21.13 149.42,-28.57 152.42,-22.25"/>
</a>
</g>
</g>
<!-- Node5 -->
<g id="Node000005" class="node">
<title>Node5</title>
<g id="a_Node000005"><a xlink:title=" ">
<polygon fill="#e0e0e0" stroke="#999999" points="311.88,-20 229.12,-20 229.12,0 311.88,0 311.88,-20"/>
<text text-anchor="middle" x="270.5" y="-6.5" font-family="Helvetica,sans-Serif" font-size="10.00">unordered_map</text>
</a>
</g>
</g>
<!-- Node2&#45;&gt;Node5 -->
<g id="edge4_Node000002_Node000005" class="edge">
<title>Node2&#45;&gt;Node5</title>
<g id="a_edge4_Node000002_Node000005"><a xlink:title=" ">
<path fill="none" stroke="#63b8ff" d="M240.77,-55.59C245.52,-48.47 252.2,-38.45 258.02,-29.72"/>
<polygon fill="#63b8ff" stroke="#63b8ff" points="260.83,-31.82 263.46,-21.56 255,-27.94 260.83,-31.82"/>
</a>
</g>
</g>
<!-- Node6&#45;&gt;Node2 -->
<g id="edge25_Node000006_Node000002" class="edge">
<title>Node6&#45;&gt;Node2</title>
<g id="a_edge25_Node000006_Node000002"><a xlink:title=" ">
<path fill="none" stroke="#63b8ff" d="M304.02,-167.62C291.51,-149.52 263.83,-109.45 247.42,-85.7"/>
<polygon fill="#63b8ff" stroke="#63b8ff" points="250.39,-83.84 241.82,-77.6 244.63,-87.82 250.39,-83.84"/>
</a>
</g>
</g>
<!-- Node6&#45;&gt;Node3 -->
<g id="edge8_Node000006_Node000003" class="edge">
<title>Node6&#45;&gt;Node3</title>
<g id="a_edge8_Node000006_Node000003"><a xlink:title=" ">
<path fill="none" stroke="#63b8ff" d="M314.8,-167.6C326.87,-141.23 361.23,-66.19 377.61,-30.42"/>
<polygon fill="#63b8ff" stroke="#63b8ff" points="380.63,-32.22 381.61,-21.67 374.27,-29.31 380.63,-32.22"/>
</a>
</g>
</g>
<!-- Node6&#45;&gt;Node5 -->
<g id="edge9_Node000006_Node000005" class="edge">
<title>Node6&#45;&gt;Node5</title>
<g id="a_edge9_Node000006_Node000005"><a xlink:title=" ">
<path fill="none" stroke="#63b8ff" d="M309.93,-167.69C308.48,-147.14 303.85,-96.47 291.5,-56 288.86,-47.36 284.86,-38.25 281.06,-30.5"/>
<polygon fill="#63b8ff" stroke="#63b8ff" points="284.21,-28.97 276.51,-21.69 277.99,-32.18 284.21,-28.97"/>
</a>
</g>
</g>
<!-- Node7 -->
<g id="Node000007" class="node">
<title>Node7</title>
<g id="a_Node000007"><a xlink:title=" ">
<polygon fill="#e0e0e0" stroke="#999999" points="43,-20 0,-20 0,0 43,0 43,-20"/>
<text text-anchor="middle" x="21.5" y="-6.5" font-family="Helvetica,sans-Serif" font-size="10.00">vector</text>
</a>
</g>
</g>
<!-- Node6&#45;&gt;Node7 -->
<g id="edge6_Node000006_Node000007" class="edge">
<title>Node6&#45;&gt;Node7</title>
<g id="a_edge6_Node000006_Node000007"><a xlink:title=" ">
<path fill="none" stroke="#63b8ff" d="M280.86,-177C233.49,-175.82 138.97,-168.61 69.5,-132 38.36,-115.59 26.97,-108.52 13.5,-76 7.57,-61.68 10.22,-44.19 14,-30.96"/>
<polygon fill="#63b8ff" stroke="#63b8ff" points="17.26,-32.25 17.09,-21.65 10.61,-30.04 17.26,-32.25"/>
</a>
</g>
</g>
<!-- Node8 -->
<g id="Node000008" class="node">
<title>Node8</title>
<g id="a_Node000008"><a xlink:title=" ">
<polygon fill="#e0e0e0" stroke="#999999" points="592.62,-20 544.38,-20 544.38,0 592.62,0 592.62,-20"/>
<text text-anchor="middle" x="568.5" y="-6.5" font-family="Helvetica,sans-Serif" font-size="10.00">stdint.h</text>
</a>
</g>
</g>
<!-- Node6&#45;&gt;Node8 -->
<g id="edge7_Node000006_Node000008" class="edge">
<title>Node6&#45;&gt;Node8</title>
<g id="a_edge7_Node000006_Node000008"><a xlink:title=" ">
<path fill="none" stroke="#63b8ff" d="M339.99,-176.73C404.02,-175.45 552.5,-168.53 583.5,-132 607.72,-103.46 591.32,-56.62 578.87,-30.37"/>
<polygon fill="#63b8ff" stroke="#63b8ff" points="582.05,-28.9 574.42,-21.55 575.8,-32.06 582.05,-28.9"/>
</a>
</g>
</g>
<!-- Node9 -->
<g id="Node000009" class="node">
<title>Node9</title>
<g id="a_Node000009"><a xlink:href="_command_8h.html" target="_top" xlink:title=" ">
<polygon fill="white" stroke="#666666" points="92.12,-76 22.88,-76 22.88,-56 92.12,-56 92.12,-76"/>
<text text-anchor="middle" x="57.5" y="-62.5" font-family="Helvetica,sans-Serif" font-size="10.00">Command.h</text>
</a>
</g>
</g>
<!-- Node6&#45;&gt;Node9 -->
<g id="edge10_Node000006_Node000009" class="edge">
<title>Node6&#45;&gt;Node9</title>
<g id="a_edge10_Node000006_Node000009"><a xlink:title=" ">
<path fill="none" stroke="#63b8ff" d="M280.72,-174.19C227.56,-168.65 119.11,-154.84 89.5,-132 75.18,-120.96 66.86,-101.82 62.3,-87.16"/>
<polygon fill="#63b8ff" stroke="#63b8ff" points="65.72,-86.37 59.72,-77.64 58.96,-88.21 65.72,-86.37"/>
</a>
</g>
</g>
<!-- Node10 -->
<g id="Node000010" class="node">
<title>Node10</title>
<g id="a_Node000010"><a xlink:href="_command_handler_8h.html" target="_top" xlink:title=" ">
<polygon fill="white" stroke="#666666" points="202,-132 99,-132 99,-112 202,-112 202,-132"/>
<text text-anchor="middle" x="150.5" y="-118.5" font-family="Helvetica,sans-Serif" font-size="10.00">CommandHandler.h</text>
</a>
</g>
</g>
<!-- Node6&#45;&gt;Node10 -->
<g id="edge14_Node000006_Node000010" class="edge">
<title>Node6&#45;&gt;Node10</title>
<g id="a_edge14_Node000006_Node000010"><a xlink:title=" ">
<path fill="none" stroke="#63b8ff" d="M282.63,-167.59C256.75,-158.86 217.97,-145.77 189.11,-136.03"/>
<polygon fill="#63b8ff" stroke="#63b8ff" points="190.62,-132.85 180.02,-132.96 188.38,-139.48 190.62,-132.85"/>
</a>
</g>
</g>
<!-- Node11 -->
<g id="Node000011" class="node">
<title>Node11</title>
<g id="a_Node000011"><a xlink:href="_print_callback_8h.html" target="_top" xlink:title=" ">
<polygon fill="white" stroke="#666666" points="574.88,-132 492.12,-132 492.12,-112 574.88,-112 574.88,-132"/>
<text text-anchor="middle" x="533.5" y="-118.5" font-family="Helvetica,sans-Serif" font-size="10.00">PrintCallback.h</text>
</a>
</g>
</g>
<!-- Node6&#45;&gt;Node11 -->
<g id="edge18_Node000006_Node000011" class="edge">
<title>Node6&#45;&gt;Node11</title>
<g id="a_edge18_Node000006_Node000011"><a xlink:title=" ">
<path fill="none" stroke="#63b8ff" d="M340.11,-169.83C376.62,-160.99 439.24,-145.82 483.32,-135.15"/>
<polygon fill="#63b8ff" stroke="#63b8ff" points="484.01,-138.59 492.9,-132.83 482.36,-131.78 484.01,-138.59"/>
</a>
</g>
</g>
<!-- Node14 -->
<g id="Node000014" class="node">
<title>Node14</title>
<g id="a_Node000014"><a xlink:href="_lexer_8h.html" target="_top" xlink:title=" ">
<polygon fill="white" stroke="#666666" points="444.62,-132 396.38,-132 396.38,-112 444.62,-112 444.62,-132"/>
<text text-anchor="middle" x="420.5" y="-118.5" font-family="Helvetica,sans-Serif" font-size="10.00">Lexer.h</text>
</a>
</g>
</g>
<!-- Node6&#45;&gt;Node14 -->
<g id="edge26_Node000006_Node000014" class="edge">
<title>Node6&#45;&gt;Node14</title>
<g id="a_edge26_Node000006_Node000014"><a xlink:title=" ">
<path fill="none" stroke="#63b8ff" d="M329.66,-167.59C346.59,-159.28 371.55,-147.03 391.02,-137.47"/>
<polygon fill="#63b8ff" stroke="#63b8ff" points="392.4,-140.7 399.83,-133.15 389.31,-134.41 392.4,-140.7"/>
</a>
</g>
</g>
<!-- Node9&#45;&gt;Node3 -->
<g id="edge13_Node000009_Node000003" class="edge">
<title>Node9&#45;&gt;Node3</title>
<g id="a_edge13_Node000009_Node000003"><a xlink:title=" ">
<path fill="none" stroke="#63b8ff" d="M92.4,-59.27C156.74,-48.71 293.12,-26.33 354.9,-16.19"/>
<polygon fill="#63b8ff" stroke="#63b8ff" points="355.43,-19.65 364.73,-14.57 354.29,-12.74 355.43,-19.65"/>
</a>
</g>
</g>
<!-- Node9&#45;&gt;Node4 -->
<g id="edge12_Node000009_Node000004" class="edge">
<title>Node9&#45;&gt;Node4</title>
<g id="a_edge12_Node000009_Node000004"><a xlink:title=" ">
<path fill="none" stroke="#63b8ff" d="M68.47,-55.59C77.42,-47.93 90.27,-36.91 100.96,-27.75"/>
<polygon fill="#63b8ff" stroke="#63b8ff" points="103.19,-30.45 108.5,-21.28 98.63,-25.13 103.19,-30.45"/>
</a>
</g>
</g>
<!-- Node9&#45;&gt;Node7 -->
<g id="edge11_Node000009_Node000007" class="edge">
<title>Node9&#45;&gt;Node7</title>
<g id="a_edge11_Node000009_Node000007"><a xlink:title=" ">
<path fill="none" stroke="#63b8ff" d="M51.23,-55.59C46.48,-48.47 39.8,-38.45 33.98,-29.72"/>
<polygon fill="#63b8ff" stroke="#63b8ff" points="37,-27.94 28.54,-21.56 31.17,-31.82 37,-27.94"/>
</a>
</g>
</g>
<!-- Node10&#45;&gt;Node4 -->
<g id="edge16_Node000010_Node000004" class="edge">
<title>Node10&#45;&gt;Node4</title>
<g id="a_edge16_Node000010_Node000004"><a xlink:title=" ">
<path fill="none" stroke="#63b8ff" d="M147.94,-111.62C143.12,-93.92 132.57,-55.24 126.04,-31.32"/>
<polygon fill="#63b8ff" stroke="#63b8ff" points="129.46,-30.54 123.45,-21.82 122.7,-32.38 129.46,-30.54"/>
</a>
</g>
</g>
<!-- Node10&#45;&gt;Node5 -->
<g id="edge15_Node000010_Node000005" class="edge">
<title>Node10&#45;&gt;Node5</title>
<g id="a_edge15_Node000010_Node000005"><a xlink:title=" ">
<path fill="none" stroke="#63b8ff" d="M152.14,-111.9C155.02,-98.2 162.23,-72.17 177.5,-56 190.86,-41.85 209.6,-31.62 226.76,-24.52"/>
<polygon fill="#63b8ff" stroke="#63b8ff" points="227.7,-27.9 235.76,-21.04 225.17,-21.38 227.7,-27.9"/>
</a>
</g>
</g>
<!-- Node10&#45;&gt;Node9 -->
<g id="edge17_Node000010_Node000009" class="edge">
<title>Node10&#45;&gt;Node9</title>
<g id="a_edge17_Node000010_Node000009"><a xlink:title=" ">
<path fill="none" stroke="#63b8ff" d="M134.3,-111.59C120.25,-103.44 99.67,-91.48 83.34,-82"/>
<polygon fill="#63b8ff" stroke="#63b8ff" points="85.54,-79.23 75.13,-77.24 82.03,-85.29 85.54,-79.23"/>
</a>
</g>
</g>
<!-- Node11&#45;&gt;Node3 -->
<g id="edge20_Node000011_Node000003" class="edge">
<title>Node11&#45;&gt;Node3</title>
<g id="a_edge20_Node000011_Node000003"><a xlink:title=" ">
<path fill="none" stroke="#63b8ff" d="M526.59,-111.65C516.22,-98.09 495.48,-72.76 473.5,-56 456.14,-42.77 434.32,-31.49 416.87,-23.54"/>
<polygon fill="#63b8ff" stroke="#63b8ff" points="418.6,-20.47 408.04,-19.64 415.77,-26.88 418.6,-20.47"/>
</a>
</g>
</g>
<!-- Node11&#45;&gt;Node8 -->
<g id="edge19_Node000011_Node000008" class="edge">
<title>Node11&#45;&gt;Node8</title>
<g id="a_edge19_Node000011_Node000008"><a xlink:title=" ">
<path fill="none" stroke="#63b8ff" d="M536.48,-111.62C542.12,-93.92 554.42,-55.24 562.03,-31.32"/>
<polygon fill="#63b8ff" stroke="#63b8ff" points="565.37,-32.39 565.06,-21.8 558.7,-30.27 565.37,-32.39"/>
</a>
</g>
</g>
<!-- Node11&#45;&gt;Node12 -->
<g id="edge21_Node000011_Node000012" class="edge">
<title>Node11&#45;&gt;Node12</title>
<g id="a_edge21_Node000011_Node000012"><a xlink:title=" ">
<path fill="none" stroke="#63b8ff" d="M554.92,-111.59C574.12,-103.17 602.54,-90.69 624.44,-81.07"/>
<polygon fill="#63b8ff" stroke="#63b8ff" points="625.77,-84.31 633.52,-77.09 622.96,-77.9 625.77,-84.31"/>
</a>
</g>
</g>
<!-- Node12&#45;&gt;Node3 -->
<g id="edge23_Node000012_Node000003" class="edge">
<title>Node12&#45;&gt;Node3</title>
<g id="a_edge23_Node000012_Node000003"><a xlink:title=" ">
<path fill="none" stroke="#63b8ff" d="M633.94,-60.49C585.89,-50.88 473.3,-28.36 418.12,-17.32"/>
<polygon fill="#63b8ff" stroke="#63b8ff" points="418.92,-13.91 408.43,-15.39 417.55,-20.78 418.92,-13.91"/>
</a>
</g>
</g>
<!-- Node12&#45;&gt;Node8 -->
<g id="edge22_Node000012_Node000008" class="edge">
<title>Node12&#45;&gt;Node8</title>
<g id="a_edge22_Node000012_Node000008"><a xlink:title=" ">
<path fill="none" stroke="#63b8ff" d="M641.17,-55.59C628,-47.51 608.77,-35.71 593.39,-26.27"/>
<polygon fill="#63b8ff" stroke="#63b8ff" points="595.59,-23.52 585.24,-21.27 591.93,-29.48 595.59,-23.52"/>
</a>
</g>
</g>
<!-- Node13 -->
<g id="Node000013" class="node">
<title>Node13</title>
<g id="a_Node000013"><a xlink:title=" ">
<polygon fill="#e0e0e0" stroke="#999999" points="682.12,-20 630.88,-20 630.88,0 682.12,0 682.12,-20"/>
<text text-anchor="middle" x="656.5" y="-6.5" font-family="Helvetica,sans-Serif" font-size="10.00">sstream</text>
</a>
</g>
</g>
<!-- Node12&#45;&gt;Node13 -->
<g id="edge24_Node000012_Node000013" class="edge">
<title>Node12&#45;&gt;Node13</title>
<g id="a_edge24_Node000012_Node000013"><a xlink:title=" ">
<path fill="none" stroke="#63b8ff" d="M656.5,-55.59C656.5,-49.01 656.5,-39.96 656.5,-31.73"/>
<polygon fill="#63b8ff" stroke="#63b8ff" points="660,-31.81 656.5,-21.81 653,-31.81 660,-31.81"/>
</a>
</g>
</g>
<!-- Node14&#45;&gt;Node3 -->
<g id="edge28_Node000014_Node000003" class="edge">
<title>Node14&#45;&gt;Node3</title>
<g id="a_edge28_Node000014_Node000003"><a xlink:title=" ">
<path fill="none" stroke="#63b8ff" d="M417.3,-111.72C414.19,-102.65 409.38,-88.42 405.5,-76 400.82,-61.03 395.86,-44.02 392.18,-31.15"/>
<polygon fill="#63b8ff" stroke="#63b8ff" points="395.61,-30.41 389.51,-21.75 388.87,-32.32 395.61,-30.41"/>
</a>
</g>
</g>
<!-- Node14&#45;&gt;Node8 -->
<g id="edge27_Node000014_Node000008" class="edge">
<title>Node14&#45;&gt;Node8</title>
<g id="a_edge27_Node000014_Node000008"><a xlink:title=" ">
<path fill="none" stroke="#63b8ff" d="M433.12,-111.62C458.35,-92.87 515.29,-50.55 546.69,-27.21"/>
<polygon fill="#63b8ff" stroke="#63b8ff" points="548.76,-30.03 554.7,-21.26 544.58,-24.41 548.76,-30.03"/>
</a>
</g>
</g>
<!-- Node15 -->
<g id="Node000015" class="node">
<title>Node15</title>
<g id="a_Node000015"><a xlink:href="_token_8h.html" target="_top" xlink:title=" ">
<polygon fill="white" stroke="#666666" points="464.75,-76 414.25,-76 414.25,-56 464.75,-56 464.75,-76"/>
<text text-anchor="middle" x="439.5" y="-62.5" font-family="Helvetica,sans-Serif" font-size="10.00">Token.h</text>
</a>
</g>
</g>
<!-- Node14&#45;&gt;Node15 -->
<g id="edge29_Node000014_Node000015" class="edge">
<title>Node14&#45;&gt;Node15</title>
<g id="a_edge29_Node000014_Node000015"><a xlink:title=" ">
<path fill="none" stroke="#63b8ff" d="M423.81,-111.59C426.18,-104.86 429.46,-95.53 432.41,-87.15"/>
<polygon fill="#63b8ff" stroke="#63b8ff" points="435.71,-88.32 435.73,-77.73 429.11,-86 435.71,-88.32"/>
</a>
</g>
</g>
<!-- Node15&#45;&gt;Node3 -->
<g id="edge31_Node000015_Node000003" class="edge">
<title>Node15&#45;&gt;Node3</title>
<g id="a_edge31_Node000015_Node000003"><a xlink:title=" ">
<path fill="none" stroke="#63b8ff" d="M430.27,-55.59C422.9,-48.08 412.37,-37.35 403.48,-28.3"/>
<polygon fill="#63b8ff" stroke="#63b8ff" points="406.19,-26.06 396.69,-21.38 401.19,-30.97 406.19,-26.06"/>
</a>
</g>
</g>
<!-- Node15&#45;&gt;Node5 -->
<g id="edge32_Node000015_Node000005" class="edge">
<title>Node15&#45;&gt;Node5</title>
<g id="a_edge32_Node000015_Node000005"><a xlink:title=" ">
<path fill="none" stroke="#63b8ff" d="M413.83,-56.8C386.49,-48.06 342.84,-34.11 310.88,-23.9"/>
<polygon fill="#63b8ff" stroke="#63b8ff" points="312.15,-20.63 301.56,-20.92 310.02,-27.3 312.15,-20.63"/>
</a>
</g>
</g>
<!-- Node15&#45;&gt;Node8 -->
<g id="edge30_Node000015_Node000008" class="edge">
<title>Node15&#45;&gt;Node8</title>
<g id="a_edge30_Node000015_Node000008"><a xlink:title=" ">
<path fill="none" stroke="#63b8ff" d="M461.97,-55.59C482.29,-47.09 512.45,-34.46 535.51,-24.81"/>
<polygon fill="#63b8ff" stroke="#63b8ff" points="536.59,-28.15 544.46,-21.06 533.88,-21.7 536.59,-28.15"/>
</a>
</g>
</g>
</g>
</svg>
