<?xml version="1.0" encoding="UTF-8" standalone="no"?>
<!DOCTYPE svg PUBLIC "-//W3C//DTD SVG 1.1//EN"
 "http://www.w3.org/Graphics/SVG/1.1/DTD/svg11.dtd">
<!-- Generated by graphviz version 12.2.1 (20241206.2353)
 -->
<!-- Title: C:/Users/emilly/Documents/Lucca/Projetos/Cpp/NikiScript/wrapper/ProgramVariableWrapper.cpp Pages: 1 -->
<svg width="418pt" height="164pt"
 viewBox="0.00 0.00 417.75 164.00" xmlns="http://www.w3.org/2000/svg" xmlns:xlink="http://www.w3.org/1999/xlink">
<g id="graph0" class="graph" transform="scale(1 1) rotate(0) translate(4 160)">
<title>C:/Users/emilly/Documents/Lucca/Projetos/Cpp/NikiScript/wrapper/ProgramVariableWrapper.cpp</title>
<!-- Node1 -->
<g id="Node000001" class="node">
<title>Node1</title>
<g id="a_Node000001"><a xlink:title=" ">
<polygon fill="#999999" stroke="#666666" points="302,-156 119.5,-156 119.5,-112 302,-112 302,-156"/>
<text text-anchor="start" x="127.5" y="-142.5" font-family="Helvetica,sans-Serif" font-size="10.00">C:/Users/emilly/Documents</text>
<text text-anchor="start" x="127.5" y="-130.5" font-family="Helvetica,sans-Serif" font-size="10.00">/Lucca/Projetos/Cpp/NikiScript</text>
<text text-anchor="middle" x="210.75" y="-118.5" font-family="Helvetica,sans-Serif" font-size="10.00">/wrapper/ProgramVariableWrapper.cpp</text>
</a>
</g>
</g>
<!-- Node2 -->
<g id="Node000002" class="node">
<title>Node2</title>
<g id="a_Node000002"><a xlink:href="_program_variable_wrapper_8h.html" target="_top" xlink:title=" ">
<polygon fill="white" stroke="#666666" points="214.5,-76 83,-76 83,-56 214.5,-56 214.5,-76"/>
<text text-anchor="middle" x="148.75" y="-62.5" font-family="Helvetica,sans-Serif" font-size="10.00">ProgramVariableWrapper.h</text>
</a>
</g>
</g>
<!-- Node1&#45;&gt;Node2 -->
<g id="edge1_Node000001_Node000002" class="edge">
<title>Node1&#45;&gt;Node2</title>
<g id="a_edge1_Node000001_Node000002"><a xlink:title=" ">
<path fill="none" stroke="#63b8ff" d="M190.79,-111.75C182.58,-103.01 173.17,-93 165.34,-84.66"/>
<polygon fill="#63b8ff" stroke="#63b8ff" points="168.03,-82.41 158.63,-77.52 162.93,-87.21 168.03,-82.41"/>
</a>
</g>
</g>
<!-- Node6 -->
<g id="Node000006" class="node">
<title>Node6</title>
<g id="a_Node000006"><a xlink:href="_base_wrapper_8h.html" target="_top" xlink:title=" ">
<polygon fill="white" stroke="#666666" points="315.12,-76 232.38,-76 232.38,-56 315.12,-56 315.12,-76"/>
<text text-anchor="middle" x="273.75" y="-62.5" font-family="Helvetica,sans-Serif" font-size="10.00">BaseWrapper.h</text>
</a>
</g>
</g>
<!-- Node1&#45;&gt;Node6 -->
<g id="edge5_Node000001_Node000006" class="edge">
<title>Node1&#45;&gt;Node6</title>
<g id="a_edge5_Node000001_Node000006"><a xlink:title=" ">
<path fill="none" stroke="#63b8ff" d="M231.03,-111.75C239.38,-103.01 248.93,-93 256.89,-84.66"/>
<polygon fill="#63b8ff" stroke="#63b8ff" points="259.34,-87.16 263.71,-77.51 254.28,-82.33 259.34,-87.16"/>
</a>
</g>
</g>
<!-- Node3 -->
<g id="Node000003" class="node">
<title>Node3</title>
<g id="a_Node000003"><a xlink:title=" ">
<polygon fill="#e0e0e0" stroke="#999999" points="250.88,-20 202.62,-20 202.62,0 250.88,0 250.88,-20"/>
<text text-anchor="middle" x="226.75" y="-6.5" font-family="Helvetica,sans-Serif" font-size="10.00">stdint.h</text>
</a>
</g>
</g>
<!-- Node2&#45;&gt;Node3 -->
<g id="edge2_Node000002_Node000003" class="edge">
<title>Node2&#45;&gt;Node3</title>
<g id="a_edge2_Node000002_Node000003"><a xlink:title=" ">
<path fill="none" stroke="#63b8ff" d="M162.34,-55.59C173.79,-47.67 190.41,-36.16 203.91,-26.82"/>
<polygon fill="#63b8ff" stroke="#63b8ff" points="205.58,-29.91 211.81,-21.34 201.6,-24.16 205.58,-29.91"/>
</a>
</g>
</g>
<!-- Node4 -->
<g id="Node000004" class="node">
<title>Node4</title>
<g id="a_Node000004"><a xlink:href="_d_l_l_export_8h.html" target="_top" xlink:title=" ">
<polygon fill="white" stroke="#666666" points="184.12,-20 113.38,-20 113.38,0 184.12,0 184.12,-20"/>
<text text-anchor="middle" x="148.75" y="-6.5" font-family="Helvetica,sans-Serif" font-size="10.00">DLLExport.h</text>
</a>
</g>
</g>
<!-- Node2&#45;&gt;Node4 -->
<g id="edge3_Node000002_Node000004" class="edge">
<title>Node2&#45;&gt;Node4</title>
<g id="a_edge3_Node000002_Node000004"><a xlink:title=" ">
<path fill="none" stroke="#63b8ff" d="M148.75,-55.59C148.75,-49.01 148.75,-39.96 148.75,-31.73"/>
<polygon fill="#63b8ff" stroke="#63b8ff" points="152.25,-31.81 148.75,-21.81 145.25,-31.81 152.25,-31.81"/>
</a>
</g>
</g>
<!-- Node5 -->
<g id="Node000005" class="node">
<title>Node5</title>
<g id="a_Node000005"><a xlink:title=" ">
<polygon fill="#e0e0e0" stroke="#999999" points="95.5,-20 0,-20 0,0 95.5,0 95.5,-20"/>
<text text-anchor="middle" x="47.75" y="-6.5" font-family="Helvetica,sans-Serif" font-size="10.00">ProgramVariable.h</text>
</a>
</g>
</g>
<!-- Node2&#45;&gt;Node5 -->
<g id="edge4_Node000002_Node000005" class="edge">
<title>Node2&#45;&gt;Node5</title>
<g id="a_edge4_Node000002_Node000005"><a xlink:title=" ">
<path fill="none" stroke="#63b8ff" d="M131.16,-55.59C115.83,-47.4 93.33,-35.37 75.56,-25.87"/>
<polygon fill="#63b8ff" stroke="#63b8ff" points="77.28,-22.82 66.81,-21.19 73.98,-28.99 77.28,-22.82"/>
</a>
</g>
</g>
<!-- Node6&#45;&gt;Node3 -->
<g id="edge6_Node000006_Node000003" class="edge">
<title>Node6&#45;&gt;Node3</title>
<g id="a_edge6_Node000006_Node000003"><a xlink:title=" ">
<path fill="none" stroke="#63b8ff" d="M265.56,-55.59C259.16,-48.24 250.07,-37.8 242.3,-28.87"/>
<polygon fill="#63b8ff" stroke="#63b8ff" points="245.04,-26.69 235.84,-21.44 239.76,-31.28 245.04,-26.69"/>
</a>
</g>
</g>
<!-- Node6&#45;&gt;Node4 -->
<g id="edge9_Node000006_Node000004" class="edge">
<title>Node6&#45;&gt;Node4</title>
<g id="a_edge9_Node000006_Node000004"><a xlink:title=" ">
<path fill="none" stroke="#63b8ff" d="M251.98,-55.59C232.38,-47.13 203.32,-34.58 181.03,-24.94"/>
<polygon fill="#63b8ff" stroke="#63b8ff" points="182.65,-21.83 172.08,-21.08 179.87,-28.26 182.65,-21.83"/>
</a>
</g>
</g>
<!-- Node7 -->
<g id="Node000007" class="node">
<title>Node7</title>
<g id="a_Node000007"><a xlink:title=" ">
<polygon fill="#e0e0e0" stroke="#999999" points="409.75,-20 369.75,-20 369.75,0 409.75,0 409.75,-20"/>
<text text-anchor="middle" x="389.75" y="-6.5" font-family="Helvetica,sans-Serif" font-size="10.00">string</text>
</a>
</g>
</g>
<!-- Node6&#45;&gt;Node7 -->
<g id="edge7_Node000006_Node000007" class="edge">
<title>Node6&#45;&gt;Node7</title>
<g id="a_edge7_Node000006_Node000007"><a xlink:title=" ">
<path fill="none" stroke="#63b8ff" d="M293.96,-55.59C311.98,-47.21 338.62,-34.8 359.23,-25.21"/>
<polygon fill="#63b8ff" stroke="#63b8ff" points="360.43,-28.51 368.01,-21.12 357.47,-22.17 360.43,-28.51"/>
</a>
</g>
</g>
<!-- Node8 -->
<g id="Node000008" class="node">
<title>Node8</title>
<g id="a_Node000008"><a xlink:title=" ">
<polygon fill="#e0e0e0" stroke="#999999" points="352.12,-20 269.38,-20 269.38,0 352.12,0 352.12,-20"/>
<text text-anchor="middle" x="310.75" y="-6.5" font-family="Helvetica,sans-Serif" font-size="10.00">unordered_map</text>
</a>
</g>
</g>
<!-- Node6&#45;&gt;Node8 -->
<g id="edge8_Node000006_Node000008" class="edge">
<title>Node6&#45;&gt;Node8</title>
<g id="a_edge8_Node000006_Node000008"><a xlink:title=" ">
<path fill="none" stroke="#63b8ff" d="M280.19,-55.59C285.08,-48.47 291.94,-38.45 297.93,-29.72"/>
<polygon fill="#63b8ff" stroke="#63b8ff" points="300.76,-31.77 303.52,-21.55 294.98,-27.82 300.76,-31.77"/>
</a>
</g>
</g>
</g>
</svg>
