<?xml version="1.0" encoding="UTF-8" standalone="no"?>
<!DOCTYPE svg PUBLIC "-//W3C//DTD SVG 1.1//EN"
 "http://www.w3.org/Graphics/SVG/1.1/DTD/svg11.dtd">
<!-- Generated by graphviz version 12.2.1 (20241206.2353)
 -->
<!-- Title: C:/Users/emilly/Documents/Lucca/Projetos/Cpp/NikiScript/src/ProgramVariable.h Pages: 1 -->
<svg width="1212pt" height="292pt"
 viewBox="0.00 0.00 1212.00 292.00" xmlns="http://www.w3.org/2000/svg" xmlns:xlink="http://www.w3.org/1999/xlink">
<g id="graph0" class="graph" transform="scale(1 1) rotate(0) translate(4 288)">
<title>C:/Users/emilly/Documents/Lucca/Projetos/Cpp/NikiScript/src/ProgramVariable.h</title>
<!-- Node1 -->
<g id="Node000001" class="node">
<title>Node1</title>
<g id="a_Node000001"><a xlink:title=" ">
<polygon fill="#999999" stroke="#666666" points="814,-284 663,-284 663,-240 814,-240 814,-284"/>
<text text-anchor="start" x="671" y="-270.5" font-family="Helvetica,sans-Serif" font-size="10.00">C:/Users/emilly/Documents</text>
<text text-anchor="start" x="671" y="-258.5" font-family="Helvetica,sans-Serif" font-size="10.00">/Lucca/Projetos/Cpp/NikiScript</text>
<text text-anchor="middle" x="738.5" y="-246.5" font-family="Helvetica,sans-Serif" font-size="10.00">/src/ProgramVariable.h</text>
</a>
</g>
</g>
<!-- Node2 -->
<g id="Node000002" class="node">
<title>Node2</title>
<g id="a_Node000002"><a xlink:href="_context_8h.html" target="_top" xlink:title=" ">
<polygon fill="white" stroke="#666666" points="762,-204 611,-204 611,-160 762,-160 762,-204"/>
<text text-anchor="start" x="619" y="-190.5" font-family="Helvetica,sans-Serif" font-size="10.00">C:/Users/emilly/Documents</text>
<text text-anchor="start" x="619" y="-178.5" font-family="Helvetica,sans-Serif" font-size="10.00">/Lucca/Projetos/Cpp/NikiScript</text>
<text text-anchor="middle" x="686.5" y="-166.5" font-family="Helvetica,sans-Serif" font-size="10.00">/src/Context.h</text>
</a>
</g>
</g>
<!-- Node1&#45;&gt;Node2 -->
<g id="edge1_Node000001_Node000002" class="edge">
<title>Node1&#45;&gt;Node2</title>
<g id="a_edge1_Node000001_Node000002"><a xlink:title=" ">
<path fill="none" stroke="#63b8ff" d="M717.98,-230.22C712.19,-221.54 706.02,-212.28 700.69,-204.29"/>
<polygon fill="#63b8ff" stroke="#63b8ff" points="714.99,-232.05 723.45,-238.43 720.82,-228.16 714.99,-232.05"/>
</a>
</g>
</g>
<!-- Node11 -->
<g id="Node000011" class="node">
<title>Node11</title>
<g id="a_Node000011"><a xlink:href="_program_variable_8cpp.html" target="_top" xlink:title=" ">
<polygon fill="white" stroke="#666666" points="1204,-124 1053,-124 1053,-80 1204,-80 1204,-124"/>
<text text-anchor="start" x="1061" y="-110.5" font-family="Helvetica,sans-Serif" font-size="10.00">C:/Users/emilly/Documents</text>
<text text-anchor="start" x="1061" y="-98.5" font-family="Helvetica,sans-Serif" font-size="10.00">/Lucca/Projetos/Cpp/NikiScript</text>
<text text-anchor="middle" x="1128.5" y="-86.5" font-family="Helvetica,sans-Serif" font-size="10.00">/src/ProgramVariable.cpp</text>
</a>
</g>
</g>
<!-- Node1&#45;&gt;Node11 -->
<g id="edge15_Node000001_Node000011" class="edge">
<title>Node1&#45;&gt;Node11</title>
<g id="a_edge15_Node000001_Node000011"><a xlink:title=" ">
<path fill="none" stroke="#63b8ff" d="M801.91,-235.31C878.07,-204.45 1004.46,-153.25 1075.61,-124.43"/>
<polygon fill="#63b8ff" stroke="#63b8ff" points="800.86,-231.96 792.91,-238.96 803.49,-238.45 800.86,-231.96"/>
</a>
</g>
</g>
<!-- Node3 -->
<g id="Node000003" class="node">
<title>Node3</title>
<g id="a_Node000003"><a xlink:href="example_8cpp.html" target="_top" xlink:title=" ">
<polygon fill="white" stroke="#666666" points="814,-44 663,-44 663,0 814,0 814,-44"/>
<text text-anchor="start" x="671" y="-30.5" font-family="Helvetica,sans-Serif" font-size="10.00">C:/Users/emilly/Documents</text>
<text text-anchor="start" x="671" y="-18.5" font-family="Helvetica,sans-Serif" font-size="10.00">/Lucca/Projetos/Cpp/NikiScript</text>
<text text-anchor="middle" x="738.5" y="-6.5" font-family="Helvetica,sans-Serif" font-size="10.00">/example/src/example.cpp</text>
</a>
</g>
</g>
<!-- Node2&#45;&gt;Node3 -->
<g id="edge2_Node000002_Node000003" class="edge">
<title>Node2&#45;&gt;Node3</title>
<g id="a_edge2_Node000002_Node000003"><a xlink:title=" ">
<path fill="none" stroke="#63b8ff" d="M689.82,-148.16C692.55,-128.03 697.34,-101.99 705.5,-80 710.12,-67.56 717.32,-54.7 723.83,-44.34"/>
<polygon fill="#63b8ff" stroke="#63b8ff" points="686.35,-147.69 688.6,-158.05 693.3,-148.55 686.35,-147.69"/>
</a>
</g>
</g>
<!-- Node4 -->
<g id="Node000004" class="node">
<title>Node4</title>
<g id="a_Node000004"><a xlink:href="_command_handler_8cpp.html" target="_top" xlink:title=" ">
<polygon fill="white" stroke="#666666" points="151,-124 0,-124 0,-80 151,-80 151,-124"/>
<text text-anchor="start" x="8" y="-110.5" font-family="Helvetica,sans-Serif" font-size="10.00">C:/Users/emilly/Documents</text>
<text text-anchor="start" x="8" y="-98.5" font-family="Helvetica,sans-Serif" font-size="10.00">/Lucca/Projetos/Cpp/NikiScript</text>
<text text-anchor="middle" x="75.5" y="-86.5" font-family="Helvetica,sans-Serif" font-size="10.00">/src/CommandHandler.cpp</text>
</a>
</g>
</g>
<!-- Node2&#45;&gt;Node4 -->
<g id="edge3_Node000002_Node000004" class="edge">
<title>Node2&#45;&gt;Node4</title>
<g id="a_edge3_Node000002_Node000004"><a xlink:title=" ">
<path fill="none" stroke="#63b8ff" d="M599.07,-175.23C494.09,-167.46 312.97,-151.35 159.5,-124 156.84,-123.53 154.13,-123.01 151.41,-122.47"/>
<polygon fill="#63b8ff" stroke="#63b8ff" points="598.81,-178.72 609.04,-175.96 599.32,-171.74 598.81,-178.72"/>
</a>
</g>
</g>
<!-- Node5 -->
<g id="Node000005" class="node">
<title>Node5</title>
<g id="a_Node000005"><a xlink:href="_context_8cpp.html" target="_top" xlink:title=" ">
<polygon fill="white" stroke="#666666" points="320,-124 169,-124 169,-80 320,-80 320,-124"/>
<text text-anchor="start" x="177" y="-110.5" font-family="Helvetica,sans-Serif" font-size="10.00">C:/Users/emilly/Documents</text>
<text text-anchor="start" x="177" y="-98.5" font-family="Helvetica,sans-Serif" font-size="10.00">/Lucca/Projetos/Cpp/NikiScript</text>
<text text-anchor="middle" x="244.5" y="-86.5" font-family="Helvetica,sans-Serif" font-size="10.00">/src/Context.cpp</text>
</a>
</g>
</g>
<!-- Node2&#45;&gt;Node5 -->
<g id="edge4_Node000002_Node000005" class="edge">
<title>Node2&#45;&gt;Node5</title>
<g id="a_edge4_Node000002_Node000005"><a xlink:title=" ">
<path fill="none" stroke="#63b8ff" d="M599.35,-169.29C526.62,-159 420.39,-142.77 328.5,-124 325.85,-123.46 323.16,-122.89 320.44,-122.3"/>
<polygon fill="#63b8ff" stroke="#63b8ff" points="598.84,-172.75 609.23,-170.68 599.81,-165.82 598.84,-172.75"/>
</a>
</g>
</g>
<!-- Node6 -->
<g id="Node000006" class="node">
<title>Node6</title>
<g id="a_Node000006"><a xlink:href="_lexer_8cpp.html" target="_top" xlink:title=" ">
<polygon fill="white" stroke="#666666" points="489,-124 338,-124 338,-80 489,-80 489,-124"/>
<text text-anchor="start" x="346" y="-110.5" font-family="Helvetica,sans-Serif" font-size="10.00">C:/Users/emilly/Documents</text>
<text text-anchor="start" x="346" y="-98.5" font-family="Helvetica,sans-Serif" font-size="10.00">/Lucca/Projetos/Cpp/NikiScript</text>
<text text-anchor="middle" x="413.5" y="-86.5" font-family="Helvetica,sans-Serif" font-size="10.00">/src/Lexer.cpp</text>
</a>
</g>
</g>
<!-- Node2&#45;&gt;Node6 -->
<g id="edge5_Node000002_Node000006" class="edge">
<title>Node2&#45;&gt;Node6</title>
<g id="a_edge5_Node000002_Node000006"><a xlink:title=" ">
<path fill="none" stroke="#63b8ff" d="M600.55,-156.44C564.53,-146.15 523.03,-134.29 488.29,-124.37"/>
<polygon fill="#63b8ff" stroke="#63b8ff" points="599.51,-159.79 610.09,-159.17 601.43,-153.05 599.51,-159.79"/>
</a>
</g>
</g>
<!-- Node7 -->
<g id="Node000007" class="node">
<title>Node7</title>
<g id="a_Node000007"><a xlink:href="_niki_script_8h.html" target="_top" xlink:title=" ">
<polygon fill="white" stroke="#666666" points="866,-124 715,-124 715,-80 866,-80 866,-124"/>
<text text-anchor="start" x="723" y="-110.5" font-family="Helvetica,sans-Serif" font-size="10.00">C:/Users/emilly/Documents</text>
<text text-anchor="start" x="723" y="-98.5" font-family="Helvetica,sans-Serif" font-size="10.00">/Lucca/Projetos/Cpp/NikiScript</text>
<text text-anchor="middle" x="790.5" y="-86.5" font-family="Helvetica,sans-Serif" font-size="10.00">/src/NikiScript.h</text>
</a>
</g>
</g>
<!-- Node2&#45;&gt;Node7 -->
<g id="edge6_Node000002_Node000007" class="edge">
<title>Node2&#45;&gt;Node7</title>
<g id="a_edge6_Node000002_Node000007"><a xlink:title=" ">
<path fill="none" stroke="#63b8ff" d="M723.83,-153C736.45,-143.54 750.31,-133.14 762.12,-124.29"/>
<polygon fill="#63b8ff" stroke="#63b8ff" points="722.03,-149.98 716.13,-158.78 726.23,-155.58 722.03,-149.98"/>
</a>
</g>
</g>
<!-- Node9 -->
<g id="Node000009" class="node">
<title>Node9</title>
<g id="a_Node000009"><a xlink:href="_parser_8h.html" target="_top" xlink:title=" ">
<polygon fill="white" stroke="#666666" points="1035,-124 884,-124 884,-80 1035,-80 1035,-124"/>
<text text-anchor="start" x="892" y="-110.5" font-family="Helvetica,sans-Serif" font-size="10.00">C:/Users/emilly/Documents</text>
<text text-anchor="start" x="892" y="-98.5" font-family="Helvetica,sans-Serif" font-size="10.00">/Lucca/Projetos/Cpp/NikiScript</text>
<text text-anchor="middle" x="959.5" y="-86.5" font-family="Helvetica,sans-Serif" font-size="10.00">/src/Parser.h</text>
</a>
</g>
</g>
<!-- Node2&#45;&gt;Node9 -->
<g id="edge9_Node000002_Node000009" class="edge">
<title>Node2&#45;&gt;Node9</title>
<g id="a_edge9_Node000002_Node000009"><a xlink:title=" ">
<path fill="none" stroke="#63b8ff" d="M772.45,-156.44C808.47,-146.15 849.97,-134.29 884.71,-124.37"/>
<polygon fill="#63b8ff" stroke="#63b8ff" points="771.57,-153.05 762.91,-159.17 773.49,-159.79 771.57,-153.05"/>
</a>
</g>
</g>
<!-- Node2&#45;&gt;Node11 -->
<g id="edge13_Node000002_Node000011" class="edge">
<title>Node2&#45;&gt;Node11</title>
<g id="a_edge13_Node000002_Node000011"><a xlink:title=" ">
<path fill="none" stroke="#63b8ff" d="M773.65,-169.29C846.38,-159 952.61,-142.77 1044.5,-124 1047.15,-123.46 1049.84,-122.89 1052.56,-122.3"/>
<polygon fill="#63b8ff" stroke="#63b8ff" points="773.19,-165.82 763.77,-170.68 774.16,-172.75 773.19,-165.82"/>
</a>
</g>
</g>
<!-- Node12 -->
<g id="Node000012" class="node">
<title>Node12</title>
<g id="a_Node000012"><a xlink:href="_token_8cpp.html" target="_top" xlink:title=" ">
<polygon fill="white" stroke="#666666" points="658,-124 507,-124 507,-80 658,-80 658,-124"/>
<text text-anchor="start" x="515" y="-110.5" font-family="Helvetica,sans-Serif" font-size="10.00">C:/Users/emilly/Documents</text>
<text text-anchor="start" x="515" y="-98.5" font-family="Helvetica,sans-Serif" font-size="10.00">/Lucca/Projetos/Cpp/NikiScript</text>
<text text-anchor="middle" x="582.5" y="-86.5" font-family="Helvetica,sans-Serif" font-size="10.00">/src/Token.cpp</text>
</a>
</g>
</g>
<!-- Node2&#45;&gt;Node12 -->
<g id="edge14_Node000002_Node000012" class="edge">
<title>Node2&#45;&gt;Node12</title>
<g id="a_edge14_Node000002_Node000012"><a xlink:title=" ">
<path fill="none" stroke="#63b8ff" d="M649.17,-153C636.55,-143.54 622.69,-133.14 610.88,-124.29"/>
<polygon fill="#63b8ff" stroke="#63b8ff" points="646.77,-155.58 656.87,-158.78 650.97,-149.98 646.77,-155.58"/>
</a>
</g>
</g>
<!-- Node7&#45;&gt;Node3 -->
<g id="edge7_Node000007_Node000003" class="edge">
<title>Node7&#45;&gt;Node3</title>
<g id="a_edge7_Node000007_Node000003"><a xlink:title=" ">
<path fill="none" stroke="#63b8ff" d="M769.98,-70.22C764.19,-61.54 758.02,-52.28 752.69,-44.29"/>
<polygon fill="#63b8ff" stroke="#63b8ff" points="766.99,-72.05 775.45,-78.43 772.82,-68.16 766.99,-72.05"/>
</a>
</g>
</g>
<!-- Node8 -->
<g id="Node000008" class="node">
<title>Node8</title>
<g id="a_Node000008"><a xlink:href="_niki_script_8cpp.html" target="_top" xlink:title=" ">
<polygon fill="white" stroke="#666666" points="983,-44 832,-44 832,0 983,0 983,-44"/>
<text text-anchor="start" x="840" y="-30.5" font-family="Helvetica,sans-Serif" font-size="10.00">C:/Users/emilly/Documents</text>
<text text-anchor="start" x="840" y="-18.5" font-family="Helvetica,sans-Serif" font-size="10.00">/Lucca/Projetos/Cpp/NikiScript</text>
<text text-anchor="middle" x="907.5" y="-6.5" font-family="Helvetica,sans-Serif" font-size="10.00">/src/NikiScript.cpp</text>
</a>
</g>
</g>
<!-- Node7&#45;&gt;Node8 -->
<g id="edge8_Node000007_Node000008" class="edge">
<title>Node7&#45;&gt;Node8</title>
<g id="a_edge8_Node000007_Node000008"><a xlink:title=" ">
<path fill="none" stroke="#63b8ff" d="M831.67,-73.55C846.08,-63.95 862.03,-53.31 875.57,-44.29"/>
<polygon fill="#63b8ff" stroke="#63b8ff" points="830.11,-70.39 823.73,-78.85 833.99,-76.21 830.11,-70.39"/>
</a>
</g>
</g>
<!-- Node9&#45;&gt;Node3 -->
<g id="edge10_Node000009_Node000003" class="edge">
<title>Node9&#45;&gt;Node3</title>
<g id="a_edge10_Node000009_Node000003"><a xlink:title=" ">
<path fill="none" stroke="#63b8ff" d="M888.03,-75.78C859.31,-65.64 826.56,-54.08 799.05,-44.37"/>
<polygon fill="#63b8ff" stroke="#63b8ff" points="886.8,-79.05 897.39,-79.08 889.13,-72.45 886.8,-79.05"/>
</a>
</g>
</g>
<!-- Node9&#45;&gt;Node8 -->
<g id="edge11_Node000009_Node000008" class="edge">
<title>Node9&#45;&gt;Node8</title>
<g id="a_edge11_Node000009_Node000008"><a xlink:title=" ">
<path fill="none" stroke="#63b8ff" d="M938.98,-70.22C933.19,-61.54 927.02,-52.28 921.69,-44.29"/>
<polygon fill="#63b8ff" stroke="#63b8ff" points="935.99,-72.05 944.45,-78.43 941.82,-68.16 935.99,-72.05"/>
</a>
</g>
</g>
<!-- Node10 -->
<g id="Node000010" class="node">
<title>Node10</title>
<g id="a_Node000010"><a xlink:href="_parser_8cpp.html" target="_top" xlink:title=" ">
<polygon fill="white" stroke="#666666" points="1152,-44 1001,-44 1001,0 1152,0 1152,-44"/>
<text text-anchor="start" x="1009" y="-30.5" font-family="Helvetica,sans-Serif" font-size="10.00">C:/Users/emilly/Documents</text>
<text text-anchor="start" x="1009" y="-18.5" font-family="Helvetica,sans-Serif" font-size="10.00">/Lucca/Projetos/Cpp/NikiScript</text>
<text text-anchor="middle" x="1076.5" y="-6.5" font-family="Helvetica,sans-Serif" font-size="10.00">/src/Parser.cpp</text>
</a>
</g>
</g>
<!-- Node9&#45;&gt;Node10 -->
<g id="edge12_Node000009_Node000010" class="edge">
<title>Node9&#45;&gt;Node10</title>
<g id="a_edge12_Node000009_Node000010"><a xlink:title=" ">
<path fill="none" stroke="#63b8ff" d="M1000.67,-73.55C1015.08,-63.95 1031.03,-53.31 1044.57,-44.29"/>
<polygon fill="#63b8ff" stroke="#63b8ff" points="999.11,-70.39 992.73,-78.85 1002.99,-76.21 999.11,-70.39"/>
</a>
</g>
</g>
</g>
</svg>
