<?xml version="1.0" encoding="UTF-8" standalone="no"?>
<!DOCTYPE svg PUBLIC "-//W3C//DTD SVG 1.1//EN"
 "http://www.w3.org/Graphics/SVG/1.1/DTD/svg11.dtd">
<!-- Generated by graphviz version 12.2.1 (20241206.2353)
 -->
<!-- Title: C:/Users/emilly/Documents/Lucca/Projetos/Cpp/NikiScript/src/ProgramVariable.cpp Pages: 1 -->
<svg width="682pt" height="276pt"
 viewBox="0.00 0.00 682.44 276.00" xmlns="http://www.w3.org/2000/svg" xmlns:xlink="http://www.w3.org/1999/xlink">
<g id="graph0" class="graph" transform="scale(1 1) rotate(0) translate(4 272)">
<title>C:/Users/emilly/Documents/Lucca/Projetos/Cpp/NikiScript/src/ProgramVariable.cpp</title>
<!-- Node1 -->
<g id="Node000001" class="node">
<title>Node1</title>
<g id="a_Node000001"><a xlink:title=" ">
<polygon fill="#999999" stroke="#666666" points="359.25,-268 208.25,-268 208.25,-224 359.25,-224 359.25,-268"/>
<text text-anchor="start" x="216.25" y="-254.5" font-family="Helvetica,sans-Serif" font-size="10.00">C:/Users/emilly/Documents</text>
<text text-anchor="start" x="216.25" y="-242.5" font-family="Helvetica,sans-Serif" font-size="10.00">/Lucca/Projetos/Cpp/NikiScript</text>
<text text-anchor="middle" x="283.75" y="-230.5" font-family="Helvetica,sans-Serif" font-size="10.00">/src/ProgramVariable.cpp</text>
</a>
</g>
</g>
<!-- Node2 -->
<g id="Node000002" class="node">
<title>Node2</title>
<g id="a_Node000002"><a xlink:href="_program_variable_8h.html" target="_top" xlink:title=" ">
<polygon fill="white" stroke="#666666" points="95.5,-132 0,-132 0,-112 95.5,-112 95.5,-132"/>
<text text-anchor="middle" x="47.75" y="-118.5" font-family="Helvetica,sans-Serif" font-size="10.00">ProgramVariable.h</text>
</a>
</g>
</g>
<!-- Node1&#45;&gt;Node2 -->
<g id="edge1_Node000001_Node000002" class="edge">
<title>Node1&#45;&gt;Node2</title>
<g id="a_edge1_Node000001_Node000002"><a xlink:title=" ">
<path fill="none" stroke="#63b8ff" d="M242.37,-223.61C194.68,-198.96 117.57,-159.09 76.18,-137.7"/>
<polygon fill="#63b8ff" stroke="#63b8ff" points="77.82,-134.6 67.33,-133.12 74.6,-140.82 77.82,-134.6"/>
</a>
</g>
</g>
<!-- Node7 -->
<g id="Node000007" class="node">
<title>Node7</title>
<g id="a_Node000007"><a xlink:href="_context_8h.html" target="_top" xlink:title=" ">
<polygon fill="white" stroke="#666666" points="395.12,-188 336.38,-188 336.38,-168 395.12,-168 395.12,-188"/>
<text text-anchor="middle" x="365.75" y="-174.5" font-family="Helvetica,sans-Serif" font-size="10.00">Context.h</text>
</a>
</g>
</g>
<!-- Node1&#45;&gt;Node7 -->
<g id="edge6_Node000001_Node000007" class="edge">
<title>Node1&#45;&gt;Node7</title>
<g id="a_edge6_Node000001_Node000007"><a xlink:title=" ">
<path fill="none" stroke="#63b8ff" d="M310.15,-223.75C321.47,-214.64 334.51,-204.14 345.11,-195.61"/>
<polygon fill="#63b8ff" stroke="#63b8ff" points="347.27,-198.36 352.87,-189.37 342.88,-192.91 347.27,-198.36"/>
</a>
</g>
</g>
<!-- Node13 -->
<g id="Node000013" class="node">
<title>Node13</title>
<g id="a_Node000013"><a xlink:href="_utils_8h.html" target="_top" xlink:title=" ">
<polygon fill="white" stroke="#666666" points="394,-76 349.5,-76 349.5,-56 394,-56 394,-76"/>
<text text-anchor="middle" x="371.75" y="-62.5" font-family="Helvetica,sans-Serif" font-size="10.00">Utils.h</text>
</a>
</g>
</g>
<!-- Node1&#45;&gt;Node13 -->
<g id="edge34_Node000001_Node000013" class="edge">
<title>Node1&#45;&gt;Node13</title>
<g id="a_edge34_Node000001_Node000013"><a xlink:title=" ">
<path fill="none" stroke="#63b8ff" d="M291.39,-223.66C301.32,-196.87 319.88,-149.83 340.75,-112 345.78,-102.89 352.19,-93.32 357.87,-85.37"/>
<polygon fill="#63b8ff" stroke="#63b8ff" points="360.53,-87.65 363.63,-77.52 354.89,-83.51 360.53,-87.65"/>
</a>
</g>
</g>
<!-- Node3 -->
<g id="Node000003" class="node">
<title>Node3</title>
<g id="a_Node000003"><a xlink:title=" ">
<polygon fill="#e0e0e0" stroke="#999999" points="441.75,-20 401.75,-20 401.75,0 441.75,0 441.75,-20"/>
<text text-anchor="middle" x="421.75" y="-6.5" font-family="Helvetica,sans-Serif" font-size="10.00">string</text>
</a>
</g>
</g>
<!-- Node2&#45;&gt;Node3 -->
<g id="edge2_Node000002_Node000003" class="edge">
<title>Node2&#45;&gt;Node3</title>
<g id="a_edge2_Node000002_Node000003"><a xlink:title=" ">
<path fill="none" stroke="#63b8ff" d="M53.65,-111.58C63.36,-96.95 84.22,-69.1 109.75,-56 212.37,-3.34 252.72,-37.31 366.75,-20 374.37,-18.84 382.58,-17.53 390.27,-16.28"/>
<polygon fill="#63b8ff" stroke="#63b8ff" points="390.6,-19.77 399.9,-14.69 389.46,-12.86 390.6,-19.77"/>
</a>
</g>
</g>
<!-- Node4 -->
<g id="Node000004" class="node">
<title>Node4</title>
<g id="a_Node000004"><a xlink:title=" ">
<polygon fill="#e0e0e0" stroke="#999999" points="261.5,-20 196,-20 196,0 261.5,0 261.5,-20"/>
<text text-anchor="middle" x="228.75" y="-6.5" font-family="Helvetica,sans-Serif" font-size="10.00">string_view</text>
</a>
</g>
</g>
<!-- Node2&#45;&gt;Node4 -->
<g id="edge3_Node000002_Node000004" class="edge">
<title>Node2&#45;&gt;Node4</title>
<g id="a_edge3_Node000002_Node000004"><a xlink:title=" ">
<path fill="none" stroke="#63b8ff" d="M42.7,-111.92C35.86,-98.26 25.89,-72.26 38.75,-56 56.55,-33.49 133.91,-21.07 184.27,-15.24"/>
<polygon fill="#63b8ff" stroke="#63b8ff" points="184.44,-18.74 194,-14.16 183.67,-11.79 184.44,-18.74"/>
</a>
</g>
</g>
<!-- Node5 -->
<g id="Node000005" class="node">
<title>Node5</title>
<g id="a_Node000005"><a xlink:title=" ">
<polygon fill="#e0e0e0" stroke="#999999" points="357.38,-20 306.12,-20 306.12,0 357.38,0 357.38,-20"/>
<text text-anchor="middle" x="331.75" y="-6.5" font-family="Helvetica,sans-Serif" font-size="10.00">sstream</text>
</a>
</g>
</g>
<!-- Node2&#45;&gt;Node5 -->
<g id="edge4_Node000002_Node000005" class="edge">
<title>Node2&#45;&gt;Node5</title>
<g id="a_edge4_Node000002_Node000005"><a xlink:title=" ">
<path fill="none" stroke="#63b8ff" d="M49.09,-111.79C51.69,-97.45 58.83,-69.99 76.75,-56 85.31,-49.31 226.35,-27.07 294.91,-16.57"/>
<polygon fill="#63b8ff" stroke="#63b8ff" points="295.19,-20.07 304.55,-15.1 294.13,-13.15 295.19,-20.07"/>
</a>
</g>
</g>
<!-- Node6 -->
<g id="Node000006" class="node">
<title>Node6</title>
<g id="a_Node000006"><a xlink:title=" ">
<polygon fill="#e0e0e0" stroke="#999999" points="201.12,-76 118.38,-76 118.38,-56 201.12,-56 201.12,-76"/>
<text text-anchor="middle" x="159.75" y="-62.5" font-family="Helvetica,sans-Serif" font-size="10.00">unordered_map</text>
</a>
</g>
</g>
<!-- Node2&#45;&gt;Node6 -->
<g id="edge5_Node000002_Node000006" class="edge">
<title>Node2&#45;&gt;Node6</title>
<g id="a_edge5_Node000002_Node000006"><a xlink:title=" ">
<path fill="none" stroke="#63b8ff" d="M67.26,-111.59C84.5,-103.28 109.91,-91.03 129.74,-81.47"/>
<polygon fill="#63b8ff" stroke="#63b8ff" points="131.24,-84.63 138.73,-77.14 128.2,-78.33 131.24,-84.63"/>
</a>
</g>
</g>
<!-- Node7&#45;&gt;Node2 -->
<g id="edge26_Node000007_Node000002" class="edge">
<title>Node7&#45;&gt;Node2</title>
<g id="a_edge26_Node000007_Node000002"><a xlink:title=" ">
<path fill="none" stroke="#63b8ff" d="M336.12,-171.97C283.98,-163.11 174.91,-144.59 106.87,-133.04"/>
<polygon fill="#63b8ff" stroke="#63b8ff" points="107.84,-129.65 97.39,-131.43 106.66,-136.55 107.84,-129.65"/>
</a>
</g>
</g>
<!-- Node7&#45;&gt;Node3 -->
<g id="edge9_Node000007_Node000003" class="edge">
<title>Node7&#45;&gt;Node3</title>
<g id="a_edge9_Node000007_Node000003"><a xlink:title=" ">
<path fill="none" stroke="#63b8ff" d="M395.3,-167.51C411.84,-160.51 431.02,-149.18 440.75,-132 459.01,-99.75 443.6,-55.32 431.9,-30.25"/>
<polygon fill="#63b8ff" stroke="#63b8ff" points="435.17,-28.97 427.59,-21.56 428.9,-32.08 435.17,-28.97"/>
</a>
</g>
</g>
<!-- Node7&#45;&gt;Node6 -->
<g id="edge10_Node000007_Node000006" class="edge">
<title>Node7&#45;&gt;Node6</title>
<g id="a_edge10_Node000007_Node000006"><a xlink:title=" ">
<path fill="none" stroke="#63b8ff" d="M335.97,-175.48C281.16,-171.98 167.71,-161.3 143.75,-132 133.08,-118.95 139.64,-99.83 147.32,-85.7"/>
<polygon fill="#63b8ff" stroke="#63b8ff" points="150.19,-87.71 152.37,-77.34 144.2,-84.09 150.19,-87.71"/>
</a>
</g>
</g>
<!-- Node8 -->
<g id="Node000008" class="node">
<title>Node8</title>
<g id="a_Node000008"><a xlink:title=" ">
<polygon fill="#e0e0e0" stroke="#999999" points="519.25,-20 476.25,-20 476.25,0 519.25,0 519.25,-20"/>
<text text-anchor="middle" x="497.75" y="-6.5" font-family="Helvetica,sans-Serif" font-size="10.00">vector</text>
</a>
</g>
</g>
<!-- Node7&#45;&gt;Node8 -->
<g id="edge7_Node000007_Node000008" class="edge">
<title>Node7&#45;&gt;Node8</title>
<g id="a_edge7_Node000007_Node000008"><a xlink:title=" ">
<path fill="none" stroke="#63b8ff" d="M395.22,-169.21C415.4,-162.45 441.38,-150.75 457.75,-132 483.01,-103.06 492.4,-57.73 495.83,-31.55"/>
<polygon fill="#63b8ff" stroke="#63b8ff" points="499.28,-32.22 496.92,-21.89 492.33,-31.44 499.28,-32.22"/>
</a>
</g>
</g>
<!-- Node9 -->
<g id="Node000009" class="node">
<title>Node9</title>
<g id="a_Node000009"><a xlink:title=" ">
<polygon fill="#e0e0e0" stroke="#999999" points="665.88,-20 617.62,-20 617.62,0 665.88,0 665.88,-20"/>
<text text-anchor="middle" x="641.75" y="-6.5" font-family="Helvetica,sans-Serif" font-size="10.00">stdint.h</text>
</a>
</g>
</g>
<!-- Node7&#45;&gt;Node9 -->
<g id="edge8_Node000007_Node000009" class="edge">
<title>Node7&#45;&gt;Node9</title>
<g id="a_edge8_Node000007_Node000009"><a xlink:title=" ">
<path fill="none" stroke="#63b8ff" d="M395.62,-175.98C442,-173.4 533.24,-164.28 602.75,-132 638.57,-115.37 654.77,-111.66 671.75,-76 679.32,-60.11 669.33,-41.91 658.9,-28.81"/>
<polygon fill="#63b8ff" stroke="#63b8ff" points="661.67,-26.67 652.46,-21.43 656.39,-31.27 661.67,-26.67"/>
</a>
</g>
</g>
<!-- Node10 -->
<g id="Node000010" class="node">
<title>Node10</title>
<g id="a_Node000010"><a xlink:href="_command_8h.html" target="_top" xlink:title=" ">
<polygon fill="white" stroke="#666666" points="331.38,-76 262.12,-76 262.12,-56 331.38,-56 331.38,-76"/>
<text text-anchor="middle" x="296.75" y="-62.5" font-family="Helvetica,sans-Serif" font-size="10.00">Command.h</text>
</a>
</g>
</g>
<!-- Node7&#45;&gt;Node10 -->
<g id="edge11_Node000007_Node000010" class="edge">
<title>Node7&#45;&gt;Node10</title>
<g id="a_edge11_Node000007_Node000010"><a xlink:title=" ">
<path fill="none" stroke="#63b8ff" d="M359.87,-167.62C348.56,-149.6 323.61,-109.81 308.68,-86.02"/>
<polygon fill="#63b8ff" stroke="#63b8ff" points="311.7,-84.25 303.42,-77.64 305.77,-87.97 311.7,-84.25"/>
</a>
</g>
</g>
<!-- Node11 -->
<g id="Node000011" class="node">
<title>Node11</title>
<g id="a_Node000011"><a xlink:href="_command_handler_8h.html" target="_top" xlink:title=" ">
<polygon fill="white" stroke="#666666" points="255.25,-132 152.25,-132 152.25,-112 255.25,-112 255.25,-132"/>
<text text-anchor="middle" x="203.75" y="-118.5" font-family="Helvetica,sans-Serif" font-size="10.00">CommandHandler.h</text>
</a>
</g>
</g>
<!-- Node7&#45;&gt;Node11 -->
<g id="edge15_Node000007_Node000011" class="edge">
<title>Node7&#45;&gt;Node11</title>
<g id="a_edge15_Node000007_Node000011"><a xlink:title=" ">
<path fill="none" stroke="#63b8ff" d="M337.53,-167.59C311.33,-158.86 272.07,-145.77 242.85,-136.03"/>
<polygon fill="#63b8ff" stroke="#63b8ff" points="244.22,-132.8 233.62,-132.96 242,-139.44 244.22,-132.8"/>
</a>
</g>
</g>
<!-- Node12 -->
<g id="Node000012" class="node">
<title>Node12</title>
<g id="a_Node000012"><a xlink:href="_print_callback_8h.html" target="_top" xlink:title=" ">
<polygon fill="white" stroke="#666666" points="432.12,-132 349.38,-132 349.38,-112 432.12,-112 432.12,-132"/>
<text text-anchor="middle" x="390.75" y="-118.5" font-family="Helvetica,sans-Serif" font-size="10.00">PrintCallback.h</text>
</a>
</g>
</g>
<!-- Node7&#45;&gt;Node12 -->
<g id="edge19_Node000007_Node000012" class="edge">
<title>Node7&#45;&gt;Node12</title>
<g id="a_edge19_Node000007_Node000012"><a xlink:title=" ">
<path fill="none" stroke="#63b8ff" d="M370.1,-167.59C373.3,-160.7 377.74,-151.1 381.69,-142.57"/>
<polygon fill="#63b8ff" stroke="#63b8ff" points="384.78,-144.22 385.81,-133.67 378.43,-141.28 384.78,-144.22"/>
</a>
</g>
</g>
<!-- Node14 -->
<g id="Node000014" class="node">
<title>Node14</title>
<g id="a_Node000014"><a xlink:href="_lexer_8h.html" target="_top" xlink:title=" ">
<polygon fill="white" stroke="#666666" points="593.88,-132 545.62,-132 545.62,-112 593.88,-112 593.88,-132"/>
<text text-anchor="middle" x="569.75" y="-118.5" font-family="Helvetica,sans-Serif" font-size="10.00">Lexer.h</text>
</a>
</g>
</g>
<!-- Node7&#45;&gt;Node14 -->
<g id="edge27_Node000007_Node000014" class="edge">
<title>Node7&#45;&gt;Node14</title>
<g id="a_edge27_Node000007_Node000014"><a xlink:title=" ">
<path fill="none" stroke="#63b8ff" d="M395.41,-169.15C432.22,-159.4 494.93,-142.8 534.26,-132.39"/>
<polygon fill="#63b8ff" stroke="#63b8ff" points="534.94,-135.84 543.71,-129.89 533.15,-129.07 534.94,-135.84"/>
</a>
</g>
</g>
<!-- Node10&#45;&gt;Node3 -->
<g id="edge14_Node000010_Node000003" class="edge">
<title>Node10&#45;&gt;Node3</title>
<g id="a_edge14_Node000010_Node000003"><a xlink:title=" ">
<path fill="none" stroke="#63b8ff" d="M318.52,-55.59C338.6,-46.92 368.61,-33.96 391.1,-24.24"/>
<polygon fill="#63b8ff" stroke="#63b8ff" points="392.29,-27.54 400.08,-20.36 389.51,-21.12 392.29,-27.54"/>
</a>
</g>
</g>
<!-- Node10&#45;&gt;Node4 -->
<g id="edge13_Node000010_Node000004" class="edge">
<title>Node10&#45;&gt;Node4</title>
<g id="a_edge13_Node000010_Node000004"><a xlink:title=" ">
<path fill="none" stroke="#63b8ff" d="M284.91,-55.59C275.06,-47.77 260.82,-36.46 249.14,-27.19"/>
<polygon fill="#63b8ff" stroke="#63b8ff" points="251.65,-24.72 241.64,-21.24 247.3,-30.2 251.65,-24.72"/>
</a>
</g>
</g>
<!-- Node10&#45;&gt;Node8 -->
<g id="edge12_Node000010_Node000008" class="edge">
<title>Node10&#45;&gt;Node8</title>
<g id="a_edge12_Node000010_Node000008"><a xlink:title=" ">
<path fill="none" stroke="#63b8ff" d="M331.76,-55.59C369.21,-45.53 428.15,-29.7 464.79,-19.85"/>
<polygon fill="#63b8ff" stroke="#63b8ff" points="465.64,-23.25 474.39,-17.28 463.82,-16.49 465.64,-23.25"/>
</a>
</g>
</g>
<!-- Node11&#45;&gt;Node4 -->
<g id="edge17_Node000011_Node000004" class="edge">
<title>Node11&#45;&gt;Node4</title>
<g id="a_edge17_Node000011_Node000004"><a xlink:title=" ">
<path fill="none" stroke="#63b8ff" d="M205.88,-111.62C209.9,-93.92 218.7,-55.24 224.13,-31.32"/>
<polygon fill="#63b8ff" stroke="#63b8ff" points="227.49,-32.36 226.29,-21.83 220.66,-30.81 227.49,-32.36"/>
</a>
</g>
</g>
<!-- Node11&#45;&gt;Node6 -->
<g id="edge16_Node000011_Node000006" class="edge">
<title>Node11&#45;&gt;Node6</title>
<g id="a_edge16_Node000011_Node000006"><a xlink:title=" ">
<path fill="none" stroke="#63b8ff" d="M196.09,-111.59C190.16,-104.32 181.76,-94.02 174.54,-85.15"/>
<polygon fill="#63b8ff" stroke="#63b8ff" points="177.31,-83.01 168.28,-77.47 171.89,-87.43 177.31,-83.01"/>
</a>
</g>
</g>
<!-- Node11&#45;&gt;Node10 -->
<g id="edge18_Node000011_Node000010" class="edge">
<title>Node11&#45;&gt;Node10</title>
<g id="a_edge18_Node000011_Node000010"><a xlink:title=" ">
<path fill="none" stroke="#63b8ff" d="M219.95,-111.59C234,-103.44 254.58,-91.48 270.91,-82"/>
<polygon fill="#63b8ff" stroke="#63b8ff" points="272.22,-85.29 279.12,-77.24 268.71,-79.23 272.22,-85.29"/>
</a>
</g>
</g>
<!-- Node12&#45;&gt;Node3 -->
<g id="edge21_Node000012_Node000003" class="edge">
<title>Node12&#45;&gt;Node3</title>
<g id="a_edge21_Node000012_Node000003"><a xlink:title=" ">
<path fill="none" stroke="#63b8ff" d="M393.39,-111.62C398.38,-93.92 409.28,-55.24 416.02,-31.32"/>
<polygon fill="#63b8ff" stroke="#63b8ff" points="419.36,-32.39 418.7,-21.81 412.62,-30.49 419.36,-32.39"/>
</a>
</g>
</g>
<!-- Node12&#45;&gt;Node9 -->
<g id="edge20_Node000012_Node000009" class="edge">
<title>Node12&#45;&gt;Node9</title>
<g id="a_edge20_Node000012_Node000009"><a xlink:title=" ">
<path fill="none" stroke="#63b8ff" d="M432.24,-118.07C491.27,-113.08 595.38,-100.94 622.75,-76 635.12,-64.73 639.61,-45.9 641.15,-31.4"/>
<polygon fill="#63b8ff" stroke="#63b8ff" points="644.64,-31.79 641.78,-21.59 637.65,-31.34 644.64,-31.79"/>
</a>
</g>
</g>
<!-- Node12&#45;&gt;Node13 -->
<g id="edge22_Node000012_Node000013" class="edge">
<title>Node12&#45;&gt;Node13</title>
<g id="a_edge22_Node000012_Node000013"><a xlink:title=" ">
<path fill="none" stroke="#63b8ff" d="M387.44,-111.59C385.07,-104.86 381.79,-95.53 378.84,-87.15"/>
<polygon fill="#63b8ff" stroke="#63b8ff" points="382.14,-86 375.52,-77.73 375.54,-88.32 382.14,-86"/>
</a>
</g>
</g>
<!-- Node13&#45;&gt;Node3 -->
<g id="edge24_Node000013_Node000003" class="edge">
<title>Node13&#45;&gt;Node3</title>
<g id="a_edge24_Node000013_Node000003"><a xlink:title=" ">
<path fill="none" stroke="#63b8ff" d="M380.46,-55.59C387.34,-48.16 397.14,-37.58 405.47,-28.58"/>
<polygon fill="#63b8ff" stroke="#63b8ff" points="407.89,-31.12 412.11,-21.41 402.75,-26.37 407.89,-31.12"/>
</a>
</g>
</g>
<!-- Node13&#45;&gt;Node5 -->
<g id="edge25_Node000013_Node000005" class="edge">
<title>Node13&#45;&gt;Node5</title>
<g id="a_edge25_Node000013_Node000005"><a xlink:title=" ">
<path fill="none" stroke="#63b8ff" d="M364.78,-55.59C359.45,-48.39 351.92,-38.23 345.4,-29.43"/>
<polygon fill="#63b8ff" stroke="#63b8ff" points="348.3,-27.47 339.54,-21.51 342.68,-31.63 348.3,-27.47"/>
</a>
</g>
</g>
<!-- Node13&#45;&gt;Node9 -->
<g id="edge23_Node000013_Node000009" class="edge">
<title>Node13&#45;&gt;Node9</title>
<g id="a_edge23_Node000013_Node000009"><a xlink:title=" ">
<path fill="none" stroke="#63b8ff" d="M394.31,-60.49C441.16,-51.12 549.37,-29.48 605.89,-18.17"/>
<polygon fill="#63b8ff" stroke="#63b8ff" points="606.53,-21.61 615.65,-16.22 605.15,-14.75 606.53,-21.61"/>
</a>
</g>
</g>
<!-- Node14&#45;&gt;Node3 -->
<g id="edge29_Node000014_Node000003" class="edge">
<title>Node14&#45;&gt;Node3</title>
<g id="a_edge29_Node000014_Node000003"><a xlink:title=" ">
<path fill="none" stroke="#63b8ff" d="M557.13,-111.62C531.9,-92.87 474.96,-50.55 443.56,-27.21"/>
<polygon fill="#63b8ff" stroke="#63b8ff" points="445.67,-24.41 435.55,-21.26 441.49,-30.03 445.67,-24.41"/>
</a>
</g>
</g>
<!-- Node14&#45;&gt;Node9 -->
<g id="edge28_Node000014_Node000009" class="edge">
<title>Node14&#45;&gt;Node9</title>
<g id="a_edge28_Node000014_Node000009"><a xlink:title=" ">
<path fill="none" stroke="#63b8ff" d="M594.23,-115.6C614.65,-109.67 642.49,-97.91 655.75,-76 664.16,-62.11 659.1,-43.87 652.84,-30.25"/>
<polygon fill="#63b8ff" stroke="#63b8ff" points="655.98,-28.69 648.26,-21.43 649.76,-31.92 655.98,-28.69"/>
</a>
</g>
</g>
<!-- Node15 -->
<g id="Node000015" class="node">
<title>Node15</title>
<g id="a_Node000015"><a xlink:href="_token_8h.html" target="_top" xlink:title=" ">
<polygon fill="white" stroke="#666666" points="614,-76 563.5,-76 563.5,-56 614,-56 614,-76"/>
<text text-anchor="middle" x="588.75" y="-62.5" font-family="Helvetica,sans-Serif" font-size="10.00">Token.h</text>
</a>
</g>
</g>
<!-- Node14&#45;&gt;Node15 -->
<g id="edge30_Node000014_Node000015" class="edge">
<title>Node14&#45;&gt;Node15</title>
<g id="a_edge30_Node000014_Node000015"><a xlink:title=" ">
<path fill="none" stroke="#63b8ff" d="M573.06,-111.59C575.43,-104.86 578.71,-95.53 581.66,-87.15"/>
<polygon fill="#63b8ff" stroke="#63b8ff" points="584.96,-88.32 584.98,-77.73 578.36,-86 584.96,-88.32"/>
</a>
</g>
</g>
<!-- Node15&#45;&gt;Node3 -->
<g id="edge32_Node000015_Node000003" class="edge">
<title>Node15&#45;&gt;Node3</title>
<g id="a_edge32_Node000015_Node000003"><a xlink:title=" ">
<path fill="none" stroke="#63b8ff" d="M563.02,-56.68C533.44,-47.12 484.89,-31.42 453.12,-21.14"/>
<polygon fill="#63b8ff" stroke="#63b8ff" points="454.27,-17.84 443.68,-18.09 452.12,-24.5 454.27,-17.84"/>
</a>
</g>
</g>
<!-- Node15&#45;&gt;Node8 -->
<g id="edge33_Node000015_Node000008" class="edge">
<title>Node15&#45;&gt;Node8</title>
<g id="a_edge33_Node000015_Node000008"><a xlink:title=" ">
<path fill="none" stroke="#63b8ff" d="M572.9,-55.59C559.28,-47.51 539.39,-35.71 523.49,-26.27"/>
<polygon fill="#63b8ff" stroke="#63b8ff" points="525.41,-23.35 515.03,-21.25 521.84,-29.37 525.41,-23.35"/>
</a>
</g>
</g>
<!-- Node15&#45;&gt;Node9 -->
<g id="edge31_Node000015_Node000009" class="edge">
<title>Node15&#45;&gt;Node9</title>
<g id="a_edge31_Node000015_Node000009"><a xlink:title=" ">
<path fill="none" stroke="#63b8ff" d="M597.98,-55.59C605.35,-48.08 615.88,-37.35 624.77,-28.3"/>
<polygon fill="#63b8ff" stroke="#63b8ff" points="627.06,-30.97 631.56,-21.38 622.06,-26.06 627.06,-30.97"/>
</a>
</g>
</g>
</g>
</svg>
