<?xml version="1.0" encoding="UTF-8" standalone="no"?>
<!DOCTYPE svg PUBLIC "-//W3C//DTD SVG 1.1//EN"
 "http://www.w3.org/Graphics/SVG/1.1/DTD/svg11.dtd">
<!-- Generated by graphviz version 12.2.1 (20241206.2353)
 -->
<!-- Title: C:/Users/emilly/Documents/Lucca/Projetos/Cpp/NikiScript/src/ProgramVariable.cpp Pages: 1 -->
<svg width="603pt" height="276pt"
 viewBox="0.00 0.00 603.20 276.00" xmlns="http://www.w3.org/2000/svg" xmlns:xlink="http://www.w3.org/1999/xlink">
<g id="graph0" class="graph" transform="scale(1 1) rotate(0) translate(4 272)">
<title>C:/Users/emilly/Documents/Lucca/Projetos/Cpp/NikiScript/src/ProgramVariable.cpp</title>
<!-- Node1 -->
<g id="Node000001" class="node">
<title>Node1</title>
<g id="a_Node000001"><a xlink:title=" ">
<polygon fill="#999999" stroke="#666666" points="275.25,-268 124.25,-268 124.25,-224 275.25,-224 275.25,-268"/>
<text text-anchor="start" x="132.25" y="-254.5" font-family="Helvetica,sans-Serif" font-size="10.00">C:/Users/emilly/Documents</text>
<text text-anchor="start" x="132.25" y="-242.5" font-family="Helvetica,sans-Serif" font-size="10.00">/Lucca/Projetos/Cpp/NikiScript</text>
<text text-anchor="middle" x="199.75" y="-230.5" font-family="Helvetica,sans-Serif" font-size="10.00">/src/ProgramVariable.cpp</text>
</a>
</g>
</g>
<!-- Node2 -->
<g id="Node000002" class="node">
<title>Node2</title>
<g id="a_Node000002"><a xlink:href="_program_variable_8h.html" target="_top" xlink:title=" ">
<polygon fill="white" stroke="#666666" points="95.5,-132 0,-132 0,-112 95.5,-112 95.5,-132"/>
<text text-anchor="middle" x="47.75" y="-118.5" font-family="Helvetica,sans-Serif" font-size="10.00">ProgramVariable.h</text>
</a>
</g>
</g>
<!-- Node1&#45;&gt;Node2 -->
<g id="edge1_Node000001_Node000002" class="edge">
<title>Node1&#45;&gt;Node2</title>
<g id="a_edge1_Node000001_Node000002"><a xlink:title=" ">
<path fill="none" stroke="#63b8ff" d="M173.27,-223.75C143.3,-199.69 95.11,-161.01 67.99,-139.24"/>
<polygon fill="#63b8ff" stroke="#63b8ff" points="70.51,-136.78 60.52,-133.25 66.13,-142.24 70.51,-136.78"/>
</a>
</g>
</g>
<!-- Node6 -->
<g id="Node000006" class="node">
<title>Node6</title>
<g id="a_Node000006"><a xlink:href="_context_8h.html" target="_top" xlink:title=" ">
<polygon fill="white" stroke="#666666" points="364.12,-188 305.38,-188 305.38,-168 364.12,-168 364.12,-188"/>
<text text-anchor="middle" x="334.75" y="-174.5" font-family="Helvetica,sans-Serif" font-size="10.00">Context.h</text>
</a>
</g>
</g>
<!-- Node1&#45;&gt;Node6 -->
<g id="edge5_Node000001_Node000006" class="edge">
<title>Node1&#45;&gt;Node6</title>
<g id="a_edge5_Node000001_Node000006"><a xlink:title=" ">
<path fill="none" stroke="#63b8ff" d="M243.58,-223.57C263.82,-213.68 287.32,-202.19 305.39,-193.36"/>
<polygon fill="#63b8ff" stroke="#63b8ff" points="306.79,-196.57 314.23,-189.03 303.71,-190.28 306.79,-196.57"/>
</a>
</g>
</g>
<!-- Node12 -->
<g id="Node000012" class="node">
<title>Node12</title>
<g id="a_Node000012"><a xlink:href="_utils_8h.html" target="_top" xlink:title=" ">
<polygon fill="white" stroke="#666666" points="234,-76 189.5,-76 189.5,-56 234,-56 234,-76"/>
<text text-anchor="middle" x="211.75" y="-62.5" font-family="Helvetica,sans-Serif" font-size="10.00">Utils.h</text>
</a>
</g>
</g>
<!-- Node1&#45;&gt;Node12 -->
<g id="edge33_Node000001_Node000012" class="edge">
<title>Node1&#45;&gt;Node12</title>
<g id="a_edge33_Node000001_Node000012"><a xlink:title=" ">
<path fill="none" stroke="#63b8ff" d="M201.2,-223.53C203.53,-188.93 208.09,-121.29 210.38,-87.39"/>
<polygon fill="#63b8ff" stroke="#63b8ff" points="213.85,-87.92 211.03,-77.7 206.86,-87.44 213.85,-87.92"/>
</a>
</g>
</g>
<!-- Node3 -->
<g id="Node000003" class="node">
<title>Node3</title>
<g id="a_Node000003"><a xlink:title=" ">
<polygon fill="#e0e0e0" stroke="#999999" points="300.75,-20 260.75,-20 260.75,0 300.75,0 300.75,-20"/>
<text text-anchor="middle" x="280.75" y="-6.5" font-family="Helvetica,sans-Serif" font-size="10.00">string</text>
</a>
</g>
</g>
<!-- Node2&#45;&gt;Node3 -->
<g id="edge2_Node000002_Node000003" class="edge">
<title>Node2&#45;&gt;Node3</title>
<g id="a_edge2_Node000002_Node000003"><a xlink:title=" ">
<path fill="none" stroke="#63b8ff" d="M43.44,-111.82C37.68,-98.02 29.61,-71.86 42.75,-56 68.61,-24.79 190.5,-15.07 249.11,-12.17"/>
<polygon fill="#63b8ff" stroke="#63b8ff" points="249.26,-15.66 259.09,-11.72 248.94,-8.67 249.26,-15.66"/>
</a>
</g>
</g>
<!-- Node4 -->
<g id="Node000004" class="node">
<title>Node4</title>
<g id="a_Node000004"><a xlink:title=" ">
<polygon fill="#e0e0e0" stroke="#999999" points="136.38,-20 85.12,-20 85.12,0 136.38,0 136.38,-20"/>
<text text-anchor="middle" x="110.75" y="-6.5" font-family="Helvetica,sans-Serif" font-size="10.00">sstream</text>
</a>
</g>
</g>
<!-- Node2&#45;&gt;Node4 -->
<g id="edge3_Node000002_Node000004" class="edge">
<title>Node2&#45;&gt;Node4</title>
<g id="a_edge3_Node000002_Node000004"><a xlink:title=" ">
<path fill="none" stroke="#63b8ff" d="M35.27,-111.58C19.88,-98.78 -2.78,-75.3 9.75,-56 23.88,-34.24 51.24,-22.91 73.93,-17.07"/>
<polygon fill="#63b8ff" stroke="#63b8ff" points="74.5,-20.53 83.46,-14.89 72.94,-13.7 74.5,-20.53"/>
</a>
</g>
</g>
<!-- Node5 -->
<g id="Node000005" class="node">
<title>Node5</title>
<g id="a_Node000005"><a xlink:title=" ">
<polygon fill="#e0e0e0" stroke="#999999" points="134.12,-76 51.38,-76 51.38,-56 134.12,-56 134.12,-76"/>
<text text-anchor="middle" x="92.75" y="-62.5" font-family="Helvetica,sans-Serif" font-size="10.00">unordered_map</text>
</a>
</g>
</g>
<!-- Node2&#45;&gt;Node5 -->
<g id="edge4_Node000002_Node000005" class="edge">
<title>Node2&#45;&gt;Node5</title>
<g id="a_edge4_Node000002_Node000005"><a xlink:title=" ">
<path fill="none" stroke="#63b8ff" d="M55.59,-111.59C61.72,-104.24 70.42,-93.8 77.86,-84.87"/>
<polygon fill="#63b8ff" stroke="#63b8ff" points="80.32,-87.38 84.03,-77.46 74.94,-82.9 80.32,-87.38"/>
</a>
</g>
</g>
<!-- Node6&#45;&gt;Node2 -->
<g id="edge25_Node000006_Node000002" class="edge">
<title>Node6&#45;&gt;Node2</title>
<g id="a_edge25_Node000006_Node000002"><a xlink:title=" ">
<path fill="none" stroke="#63b8ff" d="M305.12,-171.42C258.56,-162.67 167.39,-145.51 107.01,-134.15"/>
<polygon fill="#63b8ff" stroke="#63b8ff" points="107.7,-130.72 97.23,-132.31 106.41,-137.6 107.7,-130.72"/>
</a>
</g>
</g>
<!-- Node6&#45;&gt;Node3 -->
<g id="edge8_Node000006_Node000003" class="edge">
<title>Node6&#45;&gt;Node3</title>
<g id="a_edge8_Node000006_Node000003"><a xlink:title=" ">
<path fill="none" stroke="#63b8ff" d="M304.92,-170.49C280.14,-163.94 245,-151.91 219.75,-132 195.93,-113.22 189.83,-104.94 180.75,-76 178.09,-67.52 175.92,-63.46 180.75,-56 195.78,-32.75 226.01,-21.39 249.31,-15.92"/>
<polygon fill="#63b8ff" stroke="#63b8ff" points="249.86,-19.38 258.94,-13.93 248.44,-12.53 249.86,-19.38"/>
</a>
</g>
</g>
<!-- Node6&#45;&gt;Node5 -->
<g id="edge9_Node000006_Node000005" class="edge">
<title>Node6&#45;&gt;Node5</title>
<g id="a_edge9_Node000006_Node000005"><a xlink:title=" ">
<path fill="none" stroke="#63b8ff" d="M305.04,-175.52C266.22,-172.37 197.35,-162.57 147.75,-132 129.12,-120.52 113.64,-100.57 103.9,-85.8"/>
<polygon fill="#63b8ff" stroke="#63b8ff" points="106.94,-84.05 98.66,-77.43 101,-87.76 106.94,-84.05"/>
</a>
</g>
</g>
<!-- Node7 -->
<g id="Node000007" class="node">
<title>Node7</title>
<g id="a_Node000007"><a xlink:title=" ">
<polygon fill="#e0e0e0" stroke="#999999" points="538.25,-20 495.25,-20 495.25,0 538.25,0 538.25,-20"/>
<text text-anchor="middle" x="516.75" y="-6.5" font-family="Helvetica,sans-Serif" font-size="10.00">vector</text>
</a>
</g>
</g>
<!-- Node6&#45;&gt;Node7 -->
<g id="edge6_Node000006_Node000007" class="edge">
<title>Node6&#45;&gt;Node7</title>
<g id="a_edge6_Node000006_Node000007"><a xlink:title=" ">
<path fill="none" stroke="#63b8ff" d="M364.36,-175.21C420.86,-171.18 541.11,-159.54 570.75,-132 595.97,-108.56 602.15,-86.27 585.75,-56 577.82,-41.37 562.85,-30.74 548.87,-23.5"/>
<polygon fill="#63b8ff" stroke="#63b8ff" points="550.42,-20.36 539.88,-19.26 547.43,-26.69 550.42,-20.36"/>
</a>
</g>
</g>
<!-- Node8 -->
<g id="Node000008" class="node">
<title>Node8</title>
<g id="a_Node000008"><a xlink:title=" ">
<polygon fill="#e0e0e0" stroke="#999999" points="450.88,-20 402.62,-20 402.62,0 450.88,0 450.88,-20"/>
<text text-anchor="middle" x="426.75" y="-6.5" font-family="Helvetica,sans-Serif" font-size="10.00">stdint.h</text>
</a>
</g>
</g>
<!-- Node6&#45;&gt;Node8 -->
<g id="edge7_Node000006_Node000008" class="edge">
<title>Node6&#45;&gt;Node8</title>
<g id="a_edge7_Node000006_Node000008"><a xlink:title=" ">
<path fill="none" stroke="#63b8ff" d="M364.57,-174.32C416.57,-169.08 520.9,-155.84 547.75,-132 573.79,-108.89 587.26,-84.14 566.75,-56 554.31,-38.94 499.51,-25.14 462.28,-17.51"/>
<polygon fill="#63b8ff" stroke="#63b8ff" points="463.33,-14.15 452.84,-15.64 461.96,-21.02 463.33,-14.15"/>
</a>
</g>
</g>
<!-- Node9 -->
<g id="Node000009" class="node">
<title>Node9</title>
<g id="a_Node000009"><a xlink:href="_command_8h.html" target="_top" xlink:title=" ">
<polygon fill="white" stroke="#666666" points="435.38,-76 366.12,-76 366.12,-56 435.38,-56 435.38,-76"/>
<text text-anchor="middle" x="400.75" y="-62.5" font-family="Helvetica,sans-Serif" font-size="10.00">Command.h</text>
</a>
</g>
</g>
<!-- Node6&#45;&gt;Node9 -->
<g id="edge10_Node000006_Node000009" class="edge">
<title>Node6&#45;&gt;Node9</title>
<g id="a_edge10_Node000006_Node000009"><a xlink:title=" ">
<path fill="none" stroke="#63b8ff" d="M364.22,-173.4C389.3,-168.6 423.87,-157.51 440.75,-132 451.41,-115.9 436.96,-97.06 422.55,-83.82"/>
<polygon fill="#63b8ff" stroke="#63b8ff" points="424.84,-81.17 414.95,-77.36 420.3,-86.51 424.84,-81.17"/>
</a>
</g>
</g>
<!-- Node10 -->
<g id="Node000010" class="node">
<title>Node10</title>
<g id="a_Node000010"><a xlink:href="_command_handler_8h.html" target="_top" xlink:title=" ">
<polygon fill="white" stroke="#666666" points="331.25,-132 228.25,-132 228.25,-112 331.25,-112 331.25,-132"/>
<text text-anchor="middle" x="279.75" y="-118.5" font-family="Helvetica,sans-Serif" font-size="10.00">CommandHandler.h</text>
</a>
</g>
</g>
<!-- Node6&#45;&gt;Node10 -->
<g id="edge14_Node000006_Node000010" class="edge">
<title>Node6&#45;&gt;Node10</title>
<g id="a_edge14_Node000006_Node000010"><a xlink:title=" ">
<path fill="none" stroke="#63b8ff" d="M325.17,-167.59C317.52,-160.08 306.59,-149.35 297.37,-140.3"/>
<polygon fill="#63b8ff" stroke="#63b8ff" points="299.89,-137.87 290.3,-133.36 294.98,-142.86 299.89,-137.87"/>
</a>
</g>
</g>
<!-- Node11 -->
<g id="Node000011" class="node">
<title>Node11</title>
<g id="a_Node000011"><a xlink:href="_print_callback_8h.html" target="_top" xlink:title=" ">
<polygon fill="white" stroke="#666666" points="432.12,-132 349.38,-132 349.38,-112 432.12,-112 432.12,-132"/>
<text text-anchor="middle" x="390.75" y="-118.5" font-family="Helvetica,sans-Serif" font-size="10.00">PrintCallback.h</text>
</a>
</g>
</g>
<!-- Node6&#45;&gt;Node11 -->
<g id="edge18_Node000006_Node000011" class="edge">
<title>Node6&#45;&gt;Node11</title>
<g id="a_edge18_Node000006_Node000011"><a xlink:title=" ">
<path fill="none" stroke="#63b8ff" d="M344.5,-167.59C352.37,-160.01 363.65,-149.13 373.1,-140.02"/>
<polygon fill="#63b8ff" stroke="#63b8ff" points="375.25,-142.81 380.02,-133.35 370.39,-137.77 375.25,-142.81"/>
</a>
</g>
</g>
<!-- Node13 -->
<g id="Node000013" class="node">
<title>Node13</title>
<g id="a_Node000013"><a xlink:href="_lexer_8h.html" target="_top" xlink:title=" ">
<polygon fill="white" stroke="#666666" points="538.88,-132 490.62,-132 490.62,-112 538.88,-112 538.88,-132"/>
<text text-anchor="middle" x="514.75" y="-118.5" font-family="Helvetica,sans-Serif" font-size="10.00">Lexer.h</text>
</a>
</g>
</g>
<!-- Node6&#45;&gt;Node13 -->
<g id="edge26_Node000006_Node000013" class="edge">
<title>Node6&#45;&gt;Node13</title>
<g id="a_edge26_Node000006_Node000013"><a xlink:title=" ">
<path fill="none" stroke="#63b8ff" d="M364.47,-168.08C396.05,-158.61 445.95,-143.64 479.5,-133.58"/>
<polygon fill="#63b8ff" stroke="#63b8ff" points="480.17,-137.03 488.74,-130.8 478.16,-130.32 480.17,-137.03"/>
</a>
</g>
</g>
<!-- Node9&#45;&gt;Node3 -->
<g id="edge12_Node000009_Node000003" class="edge">
<title>Node9&#45;&gt;Node3</title>
<g id="a_edge12_Node000009_Node000003"><a xlink:title=" ">
<path fill="none" stroke="#63b8ff" d="M379.85,-55.59C360.89,-47.06 332.71,-34.38 311.24,-24.72"/>
<polygon fill="#63b8ff" stroke="#63b8ff" points="312.95,-21.65 302.39,-20.74 310.08,-28.03 312.95,-21.65"/>
</a>
</g>
</g>
<!-- Node9&#45;&gt;Node7 -->
<g id="edge11_Node000009_Node000007" class="edge">
<title>Node9&#45;&gt;Node7</title>
<g id="a_edge11_Node000009_Node000007"><a xlink:title=" ">
<path fill="none" stroke="#63b8ff" d="M420.96,-55.59C438.98,-47.21 465.62,-34.8 486.23,-25.21"/>
<polygon fill="#63b8ff" stroke="#63b8ff" points="487.43,-28.51 495.01,-21.12 484.47,-22.17 487.43,-28.51"/>
</a>
</g>
</g>
<!-- Node9&#45;&gt;Node8 -->
<g id="edge13_Node000009_Node000008" class="edge">
<title>Node9&#45;&gt;Node8</title>
<g id="a_edge13_Node000009_Node000008"><a xlink:title=" ">
<path fill="none" stroke="#63b8ff" d="M405.28,-55.59C408.6,-48.7 413.22,-39.1 417.33,-30.57"/>
<polygon fill="#63b8ff" stroke="#63b8ff" points="420.43,-32.19 421.62,-21.66 414.12,-29.15 420.43,-32.19"/>
</a>
</g>
</g>
<!-- Node10&#45;&gt;Node3 -->
<g id="edge16_Node000010_Node000003" class="edge">
<title>Node10&#45;&gt;Node3</title>
<g id="a_edge16_Node000010_Node000003"><a xlink:title=" ">
<path fill="none" stroke="#63b8ff" d="M279.84,-111.62C280,-94.01 280.34,-55.59 280.56,-31.65"/>
<polygon fill="#63b8ff" stroke="#63b8ff" points="284.06,-31.9 280.65,-21.87 277.06,-31.84 284.06,-31.9"/>
</a>
</g>
</g>
<!-- Node10&#45;&gt;Node5 -->
<g id="edge15_Node000010_Node000005" class="edge">
<title>Node10&#45;&gt;Node5</title>
<g id="a_edge15_Node000010_Node000005"><a xlink:title=" ">
<path fill="none" stroke="#63b8ff" d="M247.18,-111.59C216.53,-102.74 170.41,-89.43 136.55,-79.65"/>
<polygon fill="#63b8ff" stroke="#63b8ff" points="137.61,-76.31 127.03,-76.9 135.67,-83.04 137.61,-76.31"/>
</a>
</g>
</g>
<!-- Node10&#45;&gt;Node9 -->
<g id="edge17_Node000010_Node000009" class="edge">
<title>Node10&#45;&gt;Node9</title>
<g id="a_edge17_Node000010_Node000009"><a xlink:title=" ">
<path fill="none" stroke="#63b8ff" d="M300.83,-111.59C319.71,-103.17 347.67,-90.69 369.21,-81.07"/>
<polygon fill="#63b8ff" stroke="#63b8ff" points="370.42,-84.37 378.13,-77.1 367.57,-77.98 370.42,-84.37"/>
</a>
</g>
</g>
<!-- Node11&#45;&gt;Node3 -->
<g id="edge20_Node000011_Node000003" class="edge">
<title>Node11&#45;&gt;Node3</title>
<g id="a_edge20_Node000011_Node000003"><a xlink:title=" ">
<path fill="none" stroke="#63b8ff" d="M381.37,-111.62C362.94,-93.19 321.76,-52.01 298.19,-28.44"/>
<polygon fill="#63b8ff" stroke="#63b8ff" points="300.72,-26.02 291.18,-21.43 295.77,-30.97 300.72,-26.02"/>
</a>
</g>
</g>
<!-- Node11&#45;&gt;Node8 -->
<g id="edge19_Node000011_Node000008" class="edge">
<title>Node11&#45;&gt;Node8</title>
<g id="a_edge19_Node000011_Node000008"><a xlink:title=" ">
<path fill="none" stroke="#63b8ff" d="M379.72,-111.69C366.11,-99.02 346.01,-75.67 356.75,-56 364.42,-41.95 378.56,-31.64 392.13,-24.45"/>
<polygon fill="#63b8ff" stroke="#63b8ff" points="393.43,-27.71 400.92,-20.22 390.39,-21.41 393.43,-27.71"/>
</a>
</g>
</g>
<!-- Node11&#45;&gt;Node12 -->
<g id="edge21_Node000011_Node000012" class="edge">
<title>Node11&#45;&gt;Node12</title>
<g id="a_edge21_Node000011_Node000012"><a xlink:title=" ">
<path fill="none" stroke="#63b8ff" d="M359.57,-111.59C327.58,-101.94 277.99,-86.98 245.2,-77.09"/>
<polygon fill="#63b8ff" stroke="#63b8ff" points="246.39,-73.79 235.81,-74.26 244.37,-80.5 246.39,-73.79"/>
</a>
</g>
</g>
<!-- Node12&#45;&gt;Node3 -->
<g id="edge23_Node000012_Node000003" class="edge">
<title>Node12&#45;&gt;Node3</title>
<g id="a_edge23_Node000012_Node000003"><a xlink:title=" ">
<path fill="none" stroke="#63b8ff" d="M223.77,-55.59C233.76,-47.77 248.21,-36.46 260.06,-27.19"/>
<polygon fill="#63b8ff" stroke="#63b8ff" points="261.96,-30.15 267.68,-21.23 257.64,-24.64 261.96,-30.15"/>
</a>
</g>
</g>
<!-- Node12&#45;&gt;Node4 -->
<g id="edge24_Node000012_Node000004" class="edge">
<title>Node12&#45;&gt;Node4</title>
<g id="a_edge24_Node000012_Node000004"><a xlink:title=" ">
<path fill="none" stroke="#63b8ff" d="M194.16,-55.59C178.83,-47.4 156.33,-35.37 138.56,-25.87"/>
<polygon fill="#63b8ff" stroke="#63b8ff" points="140.28,-22.82 129.81,-21.19 136.98,-28.99 140.28,-22.82"/>
</a>
</g>
</g>
<!-- Node12&#45;&gt;Node8 -->
<g id="edge22_Node000012_Node000008" class="edge">
<title>Node12&#45;&gt;Node8</title>
<g id="a_edge22_Node000012_Node000008"><a xlink:title=" ">
<path fill="none" stroke="#63b8ff" d="M234.35,-59.32C271.74,-49.93 346.76,-31.09 391.27,-19.91"/>
<polygon fill="#63b8ff" stroke="#63b8ff" points="391.84,-23.38 400.69,-17.55 390.13,-16.59 391.84,-23.38"/>
</a>
</g>
</g>
<!-- Node13&#45;&gt;Node3 -->
<g id="edge28_Node000013_Node000003" class="edge">
<title>Node13&#45;&gt;Node3</title>
<g id="a_edge28_Node000013_Node000003"><a xlink:title=" ">
<path fill="none" stroke="#63b8ff" d="M507.19,-111.53C495.38,-97.34 471.12,-70.68 444.75,-56 402.29,-32.36 346.64,-20.51 312.31,-15.07"/>
<polygon fill="#63b8ff" stroke="#63b8ff" points="313.01,-11.64 302.6,-13.63 311.98,-18.56 313.01,-11.64"/>
</a>
</g>
</g>
<!-- Node13&#45;&gt;Node8 -->
<g id="edge27_Node000013_Node000008" class="edge">
<title>Node13&#45;&gt;Node8</title>
<g id="a_edge27_Node000013_Node000008"><a xlink:title=" ">
<path fill="none" stroke="#63b8ff" d="M526.66,-111.59C541.63,-98.61 563.86,-74.7 550.75,-56 540.31,-41.11 495.12,-27.38 462.3,-19.1"/>
<polygon fill="#63b8ff" stroke="#63b8ff" points="463.3,-15.74 452.76,-16.76 461.64,-22.54 463.3,-15.74"/>
</a>
</g>
</g>
<!-- Node14 -->
<g id="Node000014" class="node">
<title>Node14</title>
<g id="a_Node000014"><a xlink:href="_token_8h.html" target="_top" xlink:title=" ">
<polygon fill="white" stroke="#666666" points="542,-76 491.5,-76 491.5,-56 542,-56 542,-76"/>
<text text-anchor="middle" x="516.75" y="-62.5" font-family="Helvetica,sans-Serif" font-size="10.00">Token.h</text>
</a>
</g>
</g>
<!-- Node13&#45;&gt;Node14 -->
<g id="edge29_Node000013_Node000014" class="edge">
<title>Node13&#45;&gt;Node14</title>
<g id="a_edge29_Node000013_Node000014"><a xlink:title=" ">
<path fill="none" stroke="#63b8ff" d="M515.1,-111.59C515.34,-105.01 515.68,-95.96 515.98,-87.73"/>
<polygon fill="#63b8ff" stroke="#63b8ff" points="519.48,-87.93 516.35,-77.81 512.48,-87.67 519.48,-87.93"/>
</a>
</g>
</g>
<!-- Node14&#45;&gt;Node3 -->
<g id="edge31_Node000014_Node000003" class="edge">
<title>Node14&#45;&gt;Node3</title>
<g id="a_edge31_Node000014_Node000003"><a xlink:title=" ">
<path fill="none" stroke="#63b8ff" d="M491.16,-59.09C486.69,-58.06 482.08,-57 477.75,-56 419.34,-42.59 351.16,-27.04 312.26,-18.18"/>
<polygon fill="#63b8ff" stroke="#63b8ff" points="313.18,-14.79 302.65,-15.99 311.62,-21.62 313.18,-14.79"/>
</a>
</g>
</g>
<!-- Node14&#45;&gt;Node7 -->
<g id="edge32_Node000014_Node000007" class="edge">
<title>Node14&#45;&gt;Node7</title>
<g id="a_edge32_Node000014_Node000007"><a xlink:title=" ">
<path fill="none" stroke="#63b8ff" d="M516.75,-55.59C516.75,-49.01 516.75,-39.96 516.75,-31.73"/>
<polygon fill="#63b8ff" stroke="#63b8ff" points="520.25,-31.81 516.75,-21.81 513.25,-31.81 520.25,-31.81"/>
</a>
</g>
</g>
<!-- Node14&#45;&gt;Node8 -->
<g id="edge30_Node000014_Node000008" class="edge">
<title>Node14&#45;&gt;Node8</title>
<g id="a_edge30_Node000014_Node000008"><a xlink:title=" ">
<path fill="none" stroke="#63b8ff" d="M501.07,-55.59C487.61,-47.51 467.93,-35.71 452.21,-26.27"/>
<polygon fill="#63b8ff" stroke="#63b8ff" points="454.22,-23.4 443.85,-21.26 450.62,-29.4 454.22,-23.4"/>
</a>
</g>
</g>
</g>
</svg>
