<?xml version="1.0" encoding="UTF-8" standalone="no"?>
<!DOCTYPE svg PUBLIC "-//W3C//DTD SVG 1.1//EN"
 "http://www.w3.org/Graphics/SVG/1.1/DTD/svg11.dtd">
<!-- Generated by graphviz version 12.2.1 (20241206.2353)
 -->
<!-- Title: C:/Users/emilly/Documents/Lucca/Projetos/Cpp/NikiScript/wrapper/ProgramVariableWrapper.cpp Pages: 1 -->
<svg width="334pt" height="220pt"
 viewBox="0.00 0.00 334.12 220.00" xmlns="http://www.w3.org/2000/svg" xmlns:xlink="http://www.w3.org/1999/xlink">
<g id="graph0" class="graph" transform="scale(1 1) rotate(0) translate(4 216)">
<title>C:/Users/emilly/Documents/Lucca/Projetos/Cpp/NikiScript/wrapper/ProgramVariableWrapper.cpp</title>
<!-- Node1 -->
<g id="Node000001" class="node">
<title>Node1</title>
<g id="a_Node000001"><a xlink:title=" ">
<polygon fill="#999999" stroke="#666666" points="216.62,-212 34.12,-212 34.12,-168 216.62,-168 216.62,-212"/>
<text text-anchor="start" x="42.12" y="-198.5" font-family="Helvetica,sans-Serif" font-size="10.00">C:/Users/emilly/Documents</text>
<text text-anchor="start" x="42.12" y="-186.5" font-family="Helvetica,sans-Serif" font-size="10.00">/Lucca/Projetos/Cpp/NikiScript</text>
<text text-anchor="middle" x="125.38" y="-174.5" font-family="Helvetica,sans-Serif" font-size="10.00">/wrapper/ProgramVariableWrapper.cpp</text>
</a>
</g>
</g>
<!-- Node2 -->
<g id="Node000002" class="node">
<title>Node2</title>
<g id="a_Node000002"><a xlink:href="_program_variable_wrapper_8h.html" target="_top" xlink:title=" ">
<polygon fill="white" stroke="#666666" points="254.12,-132 122.62,-132 122.62,-112 254.12,-112 254.12,-132"/>
<text text-anchor="middle" x="188.38" y="-118.5" font-family="Helvetica,sans-Serif" font-size="10.00">ProgramVariableWrapper.h</text>
</a>
</g>
</g>
<!-- Node1&#45;&gt;Node2 -->
<g id="edge1_Node000001_Node000002" class="edge">
<title>Node1&#45;&gt;Node2</title>
<g id="a_edge1_Node000001_Node000002"><a xlink:title=" ">
<path fill="none" stroke="#63b8ff" d="M145.66,-167.75C154,-159.01 163.56,-149 171.51,-140.66"/>
<polygon fill="#63b8ff" stroke="#63b8ff" points="173.97,-143.16 178.34,-133.51 168.9,-138.33 173.97,-143.16"/>
</a>
</g>
</g>
<!-- Node9 -->
<g id="Node000009" class="node">
<title>Node9</title>
<g id="a_Node000009"><a xlink:href="_base_wrapper_8h.html" target="_top" xlink:title=" ">
<polygon fill="white" stroke="#666666" points="104.75,-132 22,-132 22,-112 104.75,-112 104.75,-132"/>
<text text-anchor="middle" x="63.38" y="-118.5" font-family="Helvetica,sans-Serif" font-size="10.00">BaseWrapper.h</text>
</a>
</g>
</g>
<!-- Node1&#45;&gt;Node9 -->
<g id="edge8_Node000001_Node000009" class="edge">
<title>Node1&#45;&gt;Node9</title>
<g id="a_edge8_Node000001_Node000009"><a xlink:title=" ">
<path fill="none" stroke="#63b8ff" d="M105.42,-167.75C97.2,-159.01 87.8,-149 79.97,-140.66"/>
<polygon fill="#63b8ff" stroke="#63b8ff" points="82.66,-138.41 73.26,-133.52 77.56,-143.21 82.66,-138.41"/>
</a>
</g>
</g>
<!-- Node3 -->
<g id="Node000003" class="node">
<title>Node3</title>
<g id="a_Node000003"><a xlink:title=" ">
<polygon fill="#e0e0e0" stroke="#999999" points="212.5,-76 164.25,-76 164.25,-56 212.5,-56 212.5,-76"/>
<text text-anchor="middle" x="188.38" y="-62.5" font-family="Helvetica,sans-Serif" font-size="10.00">stdint.h</text>
</a>
</g>
</g>
<!-- Node2&#45;&gt;Node3 -->
<g id="edge2_Node000002_Node000003" class="edge">
<title>Node2&#45;&gt;Node3</title>
<g id="a_edge2_Node000002_Node000003"><a xlink:title=" ">
<path fill="none" stroke="#63b8ff" d="M188.38,-111.59C188.38,-105.01 188.38,-95.96 188.38,-87.73"/>
<polygon fill="#63b8ff" stroke="#63b8ff" points="191.88,-87.81 188.38,-77.81 184.88,-87.81 191.88,-87.81"/>
</a>
</g>
</g>
<!-- Node4 -->
<g id="Node000004" class="node">
<title>Node4</title>
<g id="a_Node000004"><a xlink:href="_d_l_l_export_8h.html" target="_top" xlink:title=" ">
<polygon fill="white" stroke="#666666" points="145.75,-76 75,-76 75,-56 145.75,-56 145.75,-76"/>
<text text-anchor="middle" x="110.38" y="-62.5" font-family="Helvetica,sans-Serif" font-size="10.00">DLLExport.h</text>
</a>
</g>
</g>
<!-- Node2&#45;&gt;Node4 -->
<g id="edge3_Node000002_Node000004" class="edge">
<title>Node2&#45;&gt;Node4</title>
<g id="a_edge3_Node000002_Node000004"><a xlink:title=" ">
<path fill="none" stroke="#63b8ff" d="M174.79,-111.59C163.34,-103.67 146.71,-92.16 133.22,-82.82"/>
<polygon fill="#63b8ff" stroke="#63b8ff" points="135.53,-80.16 125.31,-77.34 131.54,-85.91 135.53,-80.16"/>
</a>
</g>
</g>
<!-- Node5 -->
<g id="Node000005" class="node">
<title>Node5</title>
<g id="a_Node000005"><a xlink:href="_program_variable_8h.html" target="_top" xlink:title=" ">
<polygon fill="white" stroke="#666666" points="326.12,-76 230.62,-76 230.62,-56 326.12,-56 326.12,-76"/>
<text text-anchor="middle" x="278.38" y="-62.5" font-family="Helvetica,sans-Serif" font-size="10.00">ProgramVariable.h</text>
</a>
</g>
</g>
<!-- Node2&#45;&gt;Node5 -->
<g id="edge4_Node000002_Node000005" class="edge">
<title>Node2&#45;&gt;Node5</title>
<g id="a_edge4_Node000002_Node000005"><a xlink:title=" ">
<path fill="none" stroke="#63b8ff" d="M204.05,-111.59C217.52,-103.51 237.19,-91.71 252.92,-82.27"/>
<polygon fill="#63b8ff" stroke="#63b8ff" points="254.5,-85.4 261.28,-77.26 250.9,-79.4 254.5,-85.4"/>
</a>
</g>
</g>
<!-- Node6 -->
<g id="Node000006" class="node">
<title>Node6</title>
<g id="a_Node000006"><a xlink:title=" ">
<polygon fill="#e0e0e0" stroke="#999999" points="203.38,-20 163.38,-20 163.38,0 203.38,0 203.38,-20"/>
<text text-anchor="middle" x="183.38" y="-6.5" font-family="Helvetica,sans-Serif" font-size="10.00">string</text>
</a>
</g>
</g>
<!-- Node5&#45;&gt;Node6 -->
<g id="edge5_Node000005_Node000006" class="edge">
<title>Node5&#45;&gt;Node6</title>
<g id="a_edge5_Node000005_Node000006"><a xlink:title=" ">
<path fill="none" stroke="#63b8ff" d="M261.83,-55.59C247.48,-47.44 226.45,-35.48 209.77,-26"/>
<polygon fill="#63b8ff" stroke="#63b8ff" points="211.79,-23.13 201.37,-21.23 208.33,-29.21 211.79,-23.13"/>
</a>
</g>
</g>
<!-- Node7 -->
<g id="Node000007" class="node">
<title>Node7</title>
<g id="a_Node000007"><a xlink:title=" ">
<polygon fill="#e0e0e0" stroke="#999999" points="304,-20 252.75,-20 252.75,0 304,0 304,-20"/>
<text text-anchor="middle" x="278.38" y="-6.5" font-family="Helvetica,sans-Serif" font-size="10.00">sstream</text>
</a>
</g>
</g>
<!-- Node5&#45;&gt;Node7 -->
<g id="edge6_Node000005_Node000007" class="edge">
<title>Node5&#45;&gt;Node7</title>
<g id="a_edge6_Node000005_Node000007"><a xlink:title=" ">
<path fill="none" stroke="#63b8ff" d="M278.38,-55.59C278.38,-49.01 278.38,-39.96 278.38,-31.73"/>
<polygon fill="#63b8ff" stroke="#63b8ff" points="281.88,-31.81 278.38,-21.81 274.88,-31.81 281.88,-31.81"/>
</a>
</g>
</g>
<!-- Node8 -->
<g id="Node000008" class="node">
<title>Node8</title>
<g id="a_Node000008"><a xlink:title=" ">
<polygon fill="#e0e0e0" stroke="#999999" points="82.75,-20 0,-20 0,0 82.75,0 82.75,-20"/>
<text text-anchor="middle" x="41.38" y="-6.5" font-family="Helvetica,sans-Serif" font-size="10.00">unordered_map</text>
</a>
</g>
</g>
<!-- Node5&#45;&gt;Node8 -->
<g id="edge7_Node000005_Node000008" class="edge">
<title>Node5&#45;&gt;Node8</title>
<g id="a_edge7_Node000005_Node000008"><a xlink:title=" ">
<path fill="none" stroke="#63b8ff" d="M236.82,-55.53C197.09,-46.48 137.04,-32.8 93.99,-22.99"/>
<polygon fill="#63b8ff" stroke="#63b8ff" points="94.88,-19.6 84.36,-20.79 93.33,-26.43 94.88,-19.6"/>
</a>
</g>
</g>
<!-- Node9&#45;&gt;Node3 -->
<g id="edge9_Node000009_Node000003" class="edge">
<title>Node9&#45;&gt;Node3</title>
<g id="a_edge9_Node000009_Node000003"><a xlink:title=" ">
<path fill="none" stroke="#63b8ff" d="M85.15,-111.59C104.74,-103.13 133.8,-90.58 156.1,-80.94"/>
<polygon fill="#63b8ff" stroke="#63b8ff" points="157.25,-84.26 165.04,-77.08 154.47,-77.83 157.25,-84.26"/>
</a>
</g>
</g>
<!-- Node9&#45;&gt;Node4 -->
<g id="edge12_Node000009_Node000004" class="edge">
<title>Node9&#45;&gt;Node4</title>
<g id="a_edge12_Node000009_Node000004"><a xlink:title=" ">
<path fill="none" stroke="#63b8ff" d="M71.56,-111.59C77.96,-104.24 87.05,-93.8 94.83,-84.87"/>
<polygon fill="#63b8ff" stroke="#63b8ff" points="97.36,-87.28 101.29,-77.44 92.08,-82.69 97.36,-87.28"/>
</a>
</g>
</g>
<!-- Node9&#45;&gt;Node6 -->
<g id="edge10_Node000009_Node000006" class="edge">
<title>Node9&#45;&gt;Node6</title>
<g id="a_edge10_Node000009_Node000006"><a xlink:title=" ">
<path fill="none" stroke="#63b8ff" d="M60.87,-111.58C57.83,-97.93 54.48,-72.49 66.38,-56 86,-28.79 124.43,-18.03 151.89,-13.78"/>
<polygon fill="#63b8ff" stroke="#63b8ff" points="152.3,-17.25 161.76,-12.48 151.39,-10.31 152.3,-17.25"/>
</a>
</g>
</g>
<!-- Node9&#45;&gt;Node8 -->
<g id="edge11_Node000009_Node000008" class="edge">
<title>Node9&#45;&gt;Node8</title>
<g id="a_edge11_Node000009_Node000008"><a xlink:title=" ">
<path fill="none" stroke="#63b8ff" d="M54.59,-111.52C47.31,-102.96 37.51,-89.66 33.38,-76 28.98,-61.49 31.34,-44.45 34.6,-31.46"/>
<polygon fill="#63b8ff" stroke="#63b8ff" points="37.95,-32.5 37.4,-21.92 31.23,-30.53 37.95,-32.5"/>
</a>
</g>
</g>
</g>
</svg>
