<?xml version="1.0" encoding="UTF-8" standalone="no"?>
<!DOCTYPE svg PUBLIC "-//W3C//DTD SVG 1.1//EN"
 "http://www.w3.org/Graphics/SVG/1.1/DTD/svg11.dtd">
<!-- Generated by graphviz version 12.2.1 (20241206.2353)
 -->
<!-- Title: C:/Users/emilly/Documents/Lucca/Projetos/Cpp/NikiScript/src/Token.cpp Pages: 1 -->
<svg width="766pt" height="332pt"
 viewBox="0.00 0.00 765.89 332.00" xmlns="http://www.w3.org/2000/svg" xmlns:xlink="http://www.w3.org/1999/xlink">
<g id="graph0" class="graph" transform="scale(1 1) rotate(0) translate(4 328)">
<title>C:/Users/emilly/Documents/Lucca/Projetos/Cpp/NikiScript/src/Token.cpp</title>
<!-- Node1 -->
<g id="Node000001" class="node">
<title>Node1</title>
<g id="a_Node000001"><a xlink:title=" ">
<polygon fill="#999999" stroke="#666666" points="419.55,-324 268.55,-324 268.55,-280 419.55,-280 419.55,-324"/>
<text text-anchor="start" x="276.55" y="-310.5" font-family="Helvetica,sans-Serif" font-size="10.00">C:/Users/emilly/Documents</text>
<text text-anchor="start" x="276.55" y="-298.5" font-family="Helvetica,sans-Serif" font-size="10.00">/Lucca/Projetos/Cpp/NikiScript</text>
<text text-anchor="middle" x="344.05" y="-286.5" font-family="Helvetica,sans-Serif" font-size="10.00">/src/Token.cpp</text>
</a>
</g>
</g>
<!-- Node2 -->
<g id="Node000002" class="node">
<title>Node2</title>
<g id="a_Node000002"><a xlink:href="_token_8h.html" target="_top" xlink:title=" ">
<polygon fill="white" stroke="#666666" points="319.3,-76 268.8,-76 268.8,-56 319.3,-56 319.3,-76"/>
<text text-anchor="middle" x="294.05" y="-62.5" font-family="Helvetica,sans-Serif" font-size="10.00">Token.h</text>
</a>
</g>
</g>
<!-- Node1&#45;&gt;Node2 -->
<g id="edge1_Node000001_Node000002" class="edge">
<title>Node1&#45;&gt;Node2</title>
<g id="a_edge1_Node000001_Node000002"><a xlink:title=" ">
<path fill="none" stroke="#63b8ff" d="M337.29,-279.64C327.5,-247.81 309.49,-185.9 300.05,-132 297.47,-117.27 295.96,-100.44 295.1,-87.61"/>
<polygon fill="#63b8ff" stroke="#63b8ff" points="298.6,-87.61 294.53,-77.83 291.62,-88.02 298.6,-87.61"/>
</a>
</g>
</g>
<!-- Node7 -->
<g id="Node000007" class="node">
<title>Node7</title>
<g id="a_Node000007"><a xlink:href="_print_callback_8h.html" target="_top" xlink:title=" ">
<polygon fill="white" stroke="#666666" points="230.43,-132 147.68,-132 147.68,-112 230.43,-112 230.43,-132"/>
<text text-anchor="middle" x="189.05" y="-118.5" font-family="Helvetica,sans-Serif" font-size="10.00">PrintCallback.h</text>
</a>
</g>
</g>
<!-- Node1&#45;&gt;Node7 -->
<g id="edge6_Node000001_Node000007" class="edge">
<title>Node1&#45;&gt;Node7</title>
<g id="a_edge6_Node000001_Node000007"><a xlink:title=" ">
<path fill="none" stroke="#63b8ff" d="M309.7,-279.55C295.54,-269.75 279.57,-257.35 267.05,-244 237.26,-212.22 211.88,-167.62 198.71,-142.39"/>
<polygon fill="#63b8ff" stroke="#63b8ff" points="201.9,-140.94 194.24,-133.63 195.67,-144.13 201.9,-140.94"/>
</a>
</g>
</g>
<!-- Node10 -->
<g id="Node000010" class="node">
<title>Node10</title>
<g id="a_Node000010"><a xlink:href="_context_8h.html" target="_top" xlink:title=" ">
<polygon fill="white" stroke="#666666" points="490.43,-188 431.68,-188 431.68,-168 490.43,-168 490.43,-188"/>
<text text-anchor="middle" x="461.05" y="-174.5" font-family="Helvetica,sans-Serif" font-size="10.00">Context.h</text>
</a>
</g>
</g>
<!-- Node1&#45;&gt;Node10 -->
<g id="edge15_Node000001_Node000010" class="edge">
<title>Node1&#45;&gt;Node10</title>
<g id="a_edge15_Node000001_Node000010"><a xlink:title=" ">
<path fill="none" stroke="#63b8ff" d="M364.43,-279.75C387.11,-256.11 423.31,-218.36 444.37,-196.4"/>
<polygon fill="#63b8ff" stroke="#63b8ff" points="446.69,-199.03 451.09,-189.39 441.64,-194.19 446.69,-199.03"/>
</a>
</g>
</g>
<!-- Node16 -->
<g id="Node000016" class="node">
<title>Node16</title>
<g id="a_Node000016"><a xlink:href="_parser_8h.html" target="_top" xlink:title=" ">
<polygon fill="white" stroke="#666666" points="487.43,-244 434.68,-244 434.68,-224 487.43,-224 487.43,-244"/>
<text text-anchor="middle" x="461.05" y="-230.5" font-family="Helvetica,sans-Serif" font-size="10.00">Parser.h</text>
</a>
</g>
</g>
<!-- Node1&#45;&gt;Node16 -->
<g id="edge42_Node000001_Node000016" class="edge">
<title>Node1&#45;&gt;Node16</title>
<g id="a_edge42_Node000001_Node000016"><a xlink:title=" ">
<path fill="none" stroke="#63b8ff" d="M382.04,-279.57C399.17,-269.91 418.99,-258.73 434.49,-249.98"/>
<polygon fill="#63b8ff" stroke="#63b8ff" points="436.14,-253.07 443.13,-245.11 432.7,-246.97 436.14,-253.07"/>
</a>
</g>
</g>
<!-- Node3 -->
<g id="Node000003" class="node">
<title>Node3</title>
<g id="a_Node000003"><a xlink:title=" ">
<polygon fill="#e0e0e0" stroke="#999999" points="59.18,-20 10.93,-20 10.93,0 59.18,0 59.18,-20"/>
<text text-anchor="middle" x="35.05" y="-6.5" font-family="Helvetica,sans-Serif" font-size="10.00">stdint.h</text>
</a>
</g>
</g>
<!-- Node2&#45;&gt;Node3 -->
<g id="edge2_Node000002_Node000003" class="edge">
<title>Node2&#45;&gt;Node3</title>
<g id="a_edge2_Node000002_Node000003"><a xlink:title=" ">
<path fill="none" stroke="#63b8ff" d="M268.75,-59.72C222.36,-50.05 123.61,-29.46 70.54,-18.4"/>
<polygon fill="#63b8ff" stroke="#63b8ff" points="71.31,-14.98 60.81,-16.37 69.88,-21.84 71.31,-14.98"/>
</a>
</g>
</g>
<!-- Node4 -->
<g id="Node000004" class="node">
<title>Node4</title>
<g id="a_Node000004"><a xlink:title=" ">
<polygon fill="#e0e0e0" stroke="#999999" points="359.05,-20 319.05,-20 319.05,0 359.05,0 359.05,-20"/>
<text text-anchor="middle" x="339.05" y="-6.5" font-family="Helvetica,sans-Serif" font-size="10.00">string</text>
</a>
</g>
</g>
<!-- Node2&#45;&gt;Node4 -->
<g id="edge3_Node000002_Node000004" class="edge">
<title>Node2&#45;&gt;Node4</title>
<g id="a_edge3_Node000002_Node000004"><a xlink:title=" ">
<path fill="none" stroke="#63b8ff" d="M301.89,-55.59C308.02,-48.24 316.72,-37.8 324.17,-28.87"/>
<polygon fill="#63b8ff" stroke="#63b8ff" points="326.62,-31.38 330.34,-21.46 321.25,-26.9 326.62,-31.38"/>
</a>
</g>
</g>
<!-- Node5 -->
<g id="Node000005" class="node">
<title>Node5</title>
<g id="a_Node000005"><a xlink:title=" ">
<polygon fill="#e0e0e0" stroke="#999999" points="683.55,-20 640.55,-20 640.55,0 683.55,0 683.55,-20"/>
<text text-anchor="middle" x="662.05" y="-6.5" font-family="Helvetica,sans-Serif" font-size="10.00">vector</text>
</a>
</g>
</g>
<!-- Node2&#45;&gt;Node5 -->
<g id="edge4_Node000002_Node000005" class="edge">
<title>Node2&#45;&gt;Node5</title>
<g id="a_edge4_Node000002_Node000005"><a xlink:title=" ">
<path fill="none" stroke="#63b8ff" d="M319.64,-61.25C384.8,-51.68 556.94,-26.42 629.29,-15.81"/>
<polygon fill="#63b8ff" stroke="#63b8ff" points="629.53,-19.31 638.91,-14.4 628.51,-12.38 629.53,-19.31"/>
</a>
</g>
</g>
<!-- Node6 -->
<g id="Node000006" class="node">
<title>Node6</title>
<g id="a_Node000006"><a xlink:href="_d_l_l_8h.html" target="_top" xlink:title=" ">
<polygon fill="white" stroke="#666666" points="482.18,-20 439.93,-20 439.93,0 482.18,0 482.18,-20"/>
<text text-anchor="middle" x="461.05" y="-6.5" font-family="Helvetica,sans-Serif" font-size="10.00">DLL.h</text>
</a>
</g>
</g>
<!-- Node2&#45;&gt;Node6 -->
<g id="edge5_Node000002_Node000006" class="edge">
<title>Node2&#45;&gt;Node6</title>
<g id="a_edge5_Node000002_Node000006"><a xlink:title=" ">
<path fill="none" stroke="#63b8ff" d="M319.78,-56.68C349.04,-47.22 396.85,-31.76 428.63,-21.49"/>
<polygon fill="#63b8ff" stroke="#63b8ff" points="429.67,-24.83 438.11,-18.42 427.52,-18.17 429.67,-24.83"/>
</a>
</g>
</g>
<!-- Node7&#45;&gt;Node3 -->
<g id="edge7_Node000007_Node000003" class="edge">
<title>Node7&#45;&gt;Node3</title>
<g id="a_edge7_Node000007_Node000003"><a xlink:title=" ">
<path fill="none" stroke="#63b8ff" d="M147.55,-116.23C100.87,-109.92 29.4,-97.05 13.05,-76 2.47,-62.37 10.91,-43.36 20.23,-29.41"/>
<polygon fill="#63b8ff" stroke="#63b8ff" points="22.92,-31.66 26.02,-21.53 17.28,-27.52 22.92,-31.66"/>
</a>
</g>
</g>
<!-- Node7&#45;&gt;Node4 -->
<g id="edge8_Node000007_Node000004" class="edge">
<title>Node7&#45;&gt;Node4</title>
<g id="a_edge8_Node000007_Node000004"><a xlink:title=" ">
<path fill="none" stroke="#63b8ff" d="M196.57,-111.7C207.81,-98.21 230.15,-72.97 253.05,-56 270.32,-43.21 291.73,-31.99 308.86,-23.96"/>
<polygon fill="#63b8ff" stroke="#63b8ff" points="309.88,-27.34 317.53,-20.01 306.98,-20.97 309.88,-27.34"/>
</a>
</g>
</g>
<!-- Node7&#45;&gt;Node6 -->
<g id="edge9_Node000007_Node000006" class="edge">
<title>Node7&#45;&gt;Node6</title>
<g id="a_edge9_Node000007_Node000006"><a xlink:title=" ">
<path fill="none" stroke="#63b8ff" d="M196.27,-111.84C208.04,-97.58 232.79,-70.22 260.05,-56 314.74,-27.48 386.97,-16.96 428.29,-13.14"/>
<polygon fill="#63b8ff" stroke="#63b8ff" points="428.39,-16.64 438.07,-12.31 427.81,-9.66 428.39,-16.64"/>
</a>
</g>
</g>
<!-- Node8 -->
<g id="Node000008" class="node">
<title>Node8</title>
<g id="a_Node000008"><a xlink:href="_utils_8h.html" target="_top" xlink:title=" ">
<polygon fill="white" stroke="#666666" points="99.3,-76 54.8,-76 54.8,-56 99.3,-56 99.3,-76"/>
<text text-anchor="middle" x="77.05" y="-62.5" font-family="Helvetica,sans-Serif" font-size="10.00">Utils.h</text>
</a>
</g>
</g>
<!-- Node7&#45;&gt;Node8 -->
<g id="edge10_Node000007_Node000008" class="edge">
<title>Node7&#45;&gt;Node8</title>
<g id="a_edge10_Node000007_Node000008"><a xlink:title=" ">
<path fill="none" stroke="#63b8ff" d="M169.55,-111.59C152.31,-103.28 126.9,-91.03 107.07,-81.47"/>
<polygon fill="#63b8ff" stroke="#63b8ff" points="108.61,-78.33 98.08,-77.14 105.57,-84.63 108.61,-78.33"/>
</a>
</g>
</g>
<!-- Node8&#45;&gt;Node3 -->
<g id="edge11_Node000008_Node000003" class="edge">
<title>Node8&#45;&gt;Node3</title>
<g id="a_edge11_Node000008_Node000003"><a xlink:title=" ">
<path fill="none" stroke="#63b8ff" d="M69.74,-55.59C64.08,-48.32 56.07,-38.02 49.17,-29.15"/>
<polygon fill="#63b8ff" stroke="#63b8ff" points="52.12,-27.24 43.22,-21.49 46.59,-31.54 52.12,-27.24"/>
</a>
</g>
</g>
<!-- Node8&#45;&gt;Node4 -->
<g id="edge12_Node000008_Node000004" class="edge">
<title>Node8&#45;&gt;Node4</title>
<g id="a_edge12_Node000008_Node000004"><a xlink:title=" ">
<path fill="none" stroke="#63b8ff" d="M99.39,-60.4C145.99,-50.79 253.66,-28.6 307.38,-17.53"/>
<polygon fill="#63b8ff" stroke="#63b8ff" points="308.02,-20.97 317.11,-15.52 306.61,-14.11 308.02,-20.97"/>
</a>
</g>
</g>
<!-- Node8&#45;&gt;Node6 -->
<g id="edge14_Node000008_Node000006" class="edge">
<title>Node8&#45;&gt;Node6</title>
<g id="a_edge14_Node000008_Node000006"><a xlink:title=" ">
<path fill="none" stroke="#63b8ff" d="M99.64,-61.82C164.65,-52.68 352.41,-26.28 428.47,-15.58"/>
<polygon fill="#63b8ff" stroke="#63b8ff" points="428.77,-19.07 438.19,-14.22 427.8,-12.14 428.77,-19.07"/>
</a>
</g>
</g>
<!-- Node9 -->
<g id="Node000009" class="node">
<title>Node9</title>
<g id="a_Node000009"><a xlink:title=" ">
<polygon fill="#e0e0e0" stroke="#999999" points="144.68,-20 93.43,-20 93.43,0 144.68,0 144.68,-20"/>
<text text-anchor="middle" x="119.05" y="-6.5" font-family="Helvetica,sans-Serif" font-size="10.00">sstream</text>
</a>
</g>
</g>
<!-- Node8&#45;&gt;Node9 -->
<g id="edge13_Node000008_Node000009" class="edge">
<title>Node8&#45;&gt;Node9</title>
<g id="a_edge13_Node000008_Node000009"><a xlink:title=" ">
<path fill="none" stroke="#63b8ff" d="M84.37,-55.59C90.03,-48.32 98.04,-38.02 104.94,-29.15"/>
<polygon fill="#63b8ff" stroke="#63b8ff" points="107.52,-31.54 110.89,-21.49 101.99,-27.24 107.52,-31.54"/>
</a>
</g>
</g>
<!-- Node10&#45;&gt;Node3 -->
<g id="edge17_Node000010_Node000003" class="edge">
<title>Node10&#45;&gt;Node3</title>
<g id="a_edge17_Node000010_Node000003"><a xlink:title=" ">
<path fill="none" stroke="#63b8ff" d="M431.25,-175.37C373.8,-171.67 244.16,-160.64 139.05,-132 76.38,-114.92 40.13,-130.02 4.05,-76 -5.99,-60.96 5.21,-42.17 16.85,-28.67"/>
<polygon fill="#63b8ff" stroke="#63b8ff" points="19.41,-31.06 23.7,-21.38 14.3,-26.27 19.41,-31.06"/>
</a>
</g>
</g>
<!-- Node10&#45;&gt;Node4 -->
<g id="edge18_Node000010_Node000004" class="edge">
<title>Node10&#45;&gt;Node4</title>
<g id="a_edge18_Node000010_Node000004"><a xlink:title=" ">
<path fill="none" stroke="#63b8ff" d="M446.08,-167.7C433.69,-159.45 416.2,-146.49 404.05,-132 377.47,-100.29 357.06,-55.98 346.67,-30.71"/>
<polygon fill="#63b8ff" stroke="#63b8ff" points="350.02,-29.67 343.06,-21.68 343.52,-32.26 350.02,-29.67"/>
</a>
</g>
</g>
<!-- Node10&#45;&gt;Node5 -->
<g id="edge16_Node000010_Node000005" class="edge">
<title>Node10&#45;&gt;Node5</title>
<g id="a_edge16_Node000010_Node000005"><a xlink:title=" ">
<path fill="none" stroke="#63b8ff" d="M490.89,-175.43C551.31,-171.69 685.31,-160.34 720.05,-132 747.3,-109.77 759.81,-86.35 742.05,-56 731.73,-38.34 711.64,-27.08 694.18,-20.24"/>
<polygon fill="#63b8ff" stroke="#63b8ff" points="695.78,-17.09 685.19,-17.04 693.44,-23.69 695.78,-17.09"/>
</a>
</g>
</g>
<!-- Node10&#45;&gt;Node6 -->
<g id="edge41_Node000010_Node000006" class="edge">
<title>Node10&#45;&gt;Node6</title>
<g id="a_edge41_Node000010_Node000006"><a xlink:title=" ">
<path fill="none" stroke="#63b8ff" d="M490.81,-174.55C546.4,-169.45 663.24,-156.11 695.05,-132 723.74,-110.26 746.25,-83.52 723.05,-56 694.06,-21.6 557.31,-13.5 493.71,-11.59"/>
<polygon fill="#63b8ff" stroke="#63b8ff" points="493.98,-8.09 483.89,-11.33 493.8,-15.09 493.98,-8.09"/>
</a>
</g>
</g>
<!-- Node10&#45;&gt;Node7 -->
<g id="edge30_Node000010_Node000007" class="edge">
<title>Node10&#45;&gt;Node7</title>
<g id="a_edge30_Node000010_Node000007"><a xlink:title=" ">
<path fill="none" stroke="#63b8ff" d="M431.43,-171.12C385.96,-162.09 298.31,-144.69 241.81,-133.47"/>
<polygon fill="#63b8ff" stroke="#63b8ff" points="242.57,-130.06 232.08,-131.54 241.21,-136.92 242.57,-130.06"/>
</a>
</g>
</g>
<!-- Node11 -->
<g id="Node000011" class="node">
<title>Node11</title>
<g id="a_Node000011"><a xlink:title=" ">
<polygon fill="#e0e0e0" stroke="#999999" points="571.43,-76 488.68,-76 488.68,-56 571.43,-56 571.43,-76"/>
<text text-anchor="middle" x="530.05" y="-62.5" font-family="Helvetica,sans-Serif" font-size="10.00">unordered_map</text>
</a>
</g>
</g>
<!-- Node10&#45;&gt;Node11 -->
<g id="edge19_Node000010_Node000011" class="edge">
<title>Node10&#45;&gt;Node11</title>
<g id="a_edge19_Node000010_Node000011"><a xlink:title=" ">
<path fill="none" stroke="#63b8ff" d="M478.86,-167.63C491.82,-159.84 508.68,-147.55 518.05,-132 526.14,-118.59 529.01,-101.02 529.94,-87.53"/>
<polygon fill="#63b8ff" stroke="#63b8ff" points="533.43,-87.73 530.28,-77.62 526.43,-87.49 533.43,-87.73"/>
</a>
</g>
</g>
<!-- Node12 -->
<g id="Node000012" class="node">
<title>Node12</title>
<g id="a_Node000012"><a xlink:href="_command_8h.html" target="_top" xlink:title=" ">
<polygon fill="white" stroke="#666666" points="696.68,-76 627.43,-76 627.43,-56 696.68,-56 696.68,-76"/>
<text text-anchor="middle" x="662.05" y="-62.5" font-family="Helvetica,sans-Serif" font-size="10.00">Command.h</text>
</a>
</g>
</g>
<!-- Node10&#45;&gt;Node12 -->
<g id="edge20_Node000010_Node000012" class="edge">
<title>Node10&#45;&gt;Node12</title>
<g id="a_edge20_Node000010_Node000012"><a xlink:title=" ">
<path fill="none" stroke="#63b8ff" d="M490.59,-175.34C544.33,-171.64 654.74,-160.65 678.05,-132 688.58,-119.07 682.28,-100.22 674.72,-86.15"/>
<polygon fill="#63b8ff" stroke="#63b8ff" points="677.85,-84.58 669.72,-77.79 671.85,-88.17 677.85,-84.58"/>
</a>
</g>
</g>
<!-- Node13 -->
<g id="Node000013" class="node">
<title>Node13</title>
<g id="a_Node000013"><a xlink:href="_command_handler_8h.html" target="_top" xlink:title=" ">
<polygon fill="white" stroke="#666666" points="668.55,-132 565.55,-132 565.55,-112 668.55,-112 668.55,-132"/>
<text text-anchor="middle" x="617.05" y="-118.5" font-family="Helvetica,sans-Serif" font-size="10.00">CommandHandler.h</text>
</a>
</g>
</g>
<!-- Node10&#45;&gt;Node13 -->
<g id="edge25_Node000010_Node000013" class="edge">
<title>Node10&#45;&gt;Node13</title>
<g id="a_edge25_Node000010_Node000013"><a xlink:title=" ">
<path fill="none" stroke="#63b8ff" d="M488.23,-167.59C513.35,-158.9 550.93,-145.89 579.03,-136.16"/>
<polygon fill="#63b8ff" stroke="#63b8ff" points="579.93,-139.55 588.24,-132.97 577.64,-132.94 579.93,-139.55"/>
</a>
</g>
</g>
<!-- Node14 -->
<g id="Node000014" class="node">
<title>Node14</title>
<g id="a_Node000014"><a xlink:href="_program_variable_8h.html" target="_top" xlink:title=" ">
<polygon fill="white" stroke="#666666" points="508.8,-132 413.3,-132 413.3,-112 508.8,-112 508.8,-132"/>
<text text-anchor="middle" x="461.05" y="-118.5" font-family="Helvetica,sans-Serif" font-size="10.00">ProgramVariable.h</text>
</a>
</g>
</g>
<!-- Node10&#45;&gt;Node14 -->
<g id="edge31_Node000010_Node000014" class="edge">
<title>Node10&#45;&gt;Node14</title>
<g id="a_edge31_Node000010_Node000014"><a xlink:title=" ">
<path fill="none" stroke="#63b8ff" d="M461.05,-167.59C461.05,-161.01 461.05,-151.96 461.05,-143.73"/>
<polygon fill="#63b8ff" stroke="#63b8ff" points="464.55,-143.81 461.05,-133.81 457.55,-143.81 464.55,-143.81"/>
</a>
</g>
</g>
<!-- Node15 -->
<g id="Node000015" class="node">
<title>Node15</title>
<g id="a_Node000015"><a xlink:href="_lexer_8h.html" target="_top" xlink:title=" ">
<polygon fill="white" stroke="#666666" points="357.18,-132 308.93,-132 308.93,-112 357.18,-112 357.18,-132"/>
<text text-anchor="middle" x="333.05" y="-118.5" font-family="Helvetica,sans-Serif" font-size="10.00">Lexer.h</text>
</a>
</g>
</g>
<!-- Node10&#45;&gt;Node15 -->
<g id="edge36_Node000010_Node000015" class="edge">
<title>Node10&#45;&gt;Node15</title>
<g id="a_edge36_Node000010_Node000015"><a xlink:title=" ">
<path fill="none" stroke="#63b8ff" d="M438.76,-167.59C418.69,-159.13 388.94,-146.58 366.1,-136.94"/>
<polygon fill="#63b8ff" stroke="#63b8ff" points="367.49,-133.73 356.92,-133.07 364.77,-140.18 367.49,-133.73"/>
</a>
</g>
</g>
<!-- Node12&#45;&gt;Node3 -->
<g id="edge23_Node000012_Node000003" class="edge">
<title>Node12&#45;&gt;Node3</title>
<g id="a_edge23_Node000012_Node000003"><a xlink:title=" ">
<path fill="none" stroke="#63b8ff" d="M626.97,-60.86C612.46,-59.22 595.46,-57.4 580.05,-56 359.94,-35.94 303.3,-48.01 84.05,-20 79.69,-19.44 75.13,-18.75 70.61,-18"/>
<polygon fill="#63b8ff" stroke="#63b8ff" points="71.6,-14.62 61.14,-16.32 70.38,-21.51 71.6,-14.62"/>
</a>
</g>
</g>
<!-- Node12&#45;&gt;Node4 -->
<g id="edge22_Node000012_Node000004" class="edge">
<title>Node12&#45;&gt;Node4</title>
<g id="a_edge22_Node000012_Node000004"><a xlink:title=" ">
<path fill="none" stroke="#63b8ff" d="M627,-58.48C622.32,-57.63 617.57,-56.79 613.05,-56 525.34,-40.74 421.57,-24.08 370.57,-15.98"/>
<polygon fill="#63b8ff" stroke="#63b8ff" points="371.28,-12.55 360.85,-14.44 370.18,-19.46 371.28,-12.55"/>
</a>
</g>
</g>
<!-- Node12&#45;&gt;Node5 -->
<g id="edge21_Node000012_Node000005" class="edge">
<title>Node12&#45;&gt;Node5</title>
<g id="a_edge21_Node000012_Node000005"><a xlink:title=" ">
<path fill="none" stroke="#63b8ff" d="M662.05,-55.59C662.05,-49.01 662.05,-39.96 662.05,-31.73"/>
<polygon fill="#63b8ff" stroke="#63b8ff" points="665.55,-31.81 662.05,-21.81 658.55,-31.81 665.55,-31.81"/>
</a>
</g>
</g>
<!-- Node12&#45;&gt;Node6 -->
<g id="edge24_Node000012_Node000006" class="edge">
<title>Node12&#45;&gt;Node6</title>
<g id="a_edge24_Node000012_Node000006"><a xlink:title=" ">
<path fill="none" stroke="#63b8ff" d="M627.04,-55.59C589.49,-45.51 530.33,-29.61 493.71,-19.77"/>
<polygon fill="#63b8ff" stroke="#63b8ff" points="494.7,-16.41 484.13,-17.2 492.88,-23.18 494.7,-16.41"/>
</a>
</g>
</g>
<!-- Node13&#45;&gt;Node4 -->
<g id="edge27_Node000013_Node000004" class="edge">
<title>Node13&#45;&gt;Node4</title>
<g id="a_edge27_Node000013_Node000004"><a xlink:title=" ">
<path fill="none" stroke="#63b8ff" d="M614.54,-111.76C610.11,-97.38 599.51,-69.86 580.05,-56 546.8,-32.31 428.03,-18.85 370.6,-13.6"/>
<polygon fill="#63b8ff" stroke="#63b8ff" points="371.11,-10.13 360.84,-12.73 370.49,-17.1 371.11,-10.13"/>
</a>
</g>
</g>
<!-- Node13&#45;&gt;Node6 -->
<g id="edge29_Node000013_Node000006" class="edge">
<title>Node13&#45;&gt;Node6</title>
<g id="a_edge29_Node000013_Node000006"><a xlink:title=" ">
<path fill="none" stroke="#63b8ff" d="M649.86,-111.6C682.93,-100.49 726.38,-80.4 706.05,-56 679.39,-23.99 554.1,-14.67 493.73,-12.02"/>
<polygon fill="#63b8ff" stroke="#63b8ff" points="494.22,-8.54 484.09,-11.64 493.94,-15.53 494.22,-8.54"/>
</a>
</g>
</g>
<!-- Node13&#45;&gt;Node11 -->
<g id="edge26_Node000013_Node000011" class="edge">
<title>Node13&#45;&gt;Node11</title>
<g id="a_edge26_Node000013_Node000011"><a xlink:title=" ">
<path fill="none" stroke="#63b8ff" d="M601.9,-111.59C589,-103.59 570.22,-91.93 555.1,-82.54"/>
<polygon fill="#63b8ff" stroke="#63b8ff" points="556.95,-79.58 546.61,-77.28 553.26,-85.53 556.95,-79.58"/>
</a>
</g>
</g>
<!-- Node13&#45;&gt;Node12 -->
<g id="edge28_Node000013_Node000012" class="edge">
<title>Node13&#45;&gt;Node12</title>
<g id="a_edge28_Node000013_Node000012"><a xlink:title=" ">
<path fill="none" stroke="#63b8ff" d="M624.89,-111.59C631.02,-104.24 639.72,-93.8 647.17,-84.87"/>
<polygon fill="#63b8ff" stroke="#63b8ff" points="649.62,-87.38 653.34,-77.46 644.25,-82.9 649.62,-87.38"/>
</a>
</g>
</g>
<!-- Node14&#45;&gt;Node4 -->
<g id="edge32_Node000014_Node000004" class="edge">
<title>Node14&#45;&gt;Node4</title>
<g id="a_edge32_Node000014_Node000004"><a xlink:title=" ">
<path fill="none" stroke="#63b8ff" d="M453.07,-111.71C441.68,-98.66 419.81,-74.43 399.05,-56 387.46,-45.7 373.66,-35.24 362.23,-27.01"/>
<polygon fill="#63b8ff" stroke="#63b8ff" points="364.32,-24.2 354.13,-21.27 360.27,-29.91 364.32,-24.2"/>
</a>
</g>
</g>
<!-- Node14&#45;&gt;Node6 -->
<g id="edge35_Node000014_Node000006" class="edge">
<title>Node14&#45;&gt;Node6</title>
<g id="a_edge35_Node000014_Node000006"><a xlink:title=" ">
<path fill="none" stroke="#63b8ff" d="M461.05,-111.62C461.05,-94.01 461.05,-55.59 461.05,-31.65"/>
<polygon fill="#63b8ff" stroke="#63b8ff" points="464.55,-31.87 461.05,-21.87 457.55,-31.87 464.55,-31.87"/>
</a>
</g>
</g>
<!-- Node14&#45;&gt;Node9 -->
<g id="edge33_Node000014_Node000009" class="edge">
<title>Node14&#45;&gt;Node9</title>
<g id="a_edge33_Node000014_Node000009"><a xlink:title=" ">
<path fill="none" stroke="#63b8ff" d="M413.17,-113.23C371.95,-105.85 311.21,-93.3 260.05,-76 219.25,-62.2 174.45,-40.31 146.54,-25.8"/>
<polygon fill="#63b8ff" stroke="#63b8ff" points="148.19,-22.71 137.71,-21.15 144.93,-28.9 148.19,-22.71"/>
</a>
</g>
</g>
<!-- Node14&#45;&gt;Node11 -->
<g id="edge34_Node000014_Node000011" class="edge">
<title>Node14&#45;&gt;Node11</title>
<g id="a_edge34_Node000014_Node000011"><a xlink:title=" ">
<path fill="none" stroke="#63b8ff" d="M473.07,-111.59C483.07,-103.77 497.52,-92.46 509.36,-83.19"/>
<polygon fill="#63b8ff" stroke="#63b8ff" points="511.26,-86.15 516.98,-77.23 506.95,-80.64 511.26,-86.15"/>
</a>
</g>
</g>
<!-- Node15&#45;&gt;Node2 -->
<g id="edge39_Node000015_Node000002" class="edge">
<title>Node15&#45;&gt;Node2</title>
<g id="a_edge39_Node000015_Node000002"><a xlink:title=" ">
<path fill="none" stroke="#63b8ff" d="M326.26,-111.59C321.06,-104.39 313.72,-94.23 307.37,-85.43"/>
<polygon fill="#63b8ff" stroke="#63b8ff" points="310.35,-83.58 301.66,-77.53 304.67,-87.68 310.35,-83.58"/>
</a>
</g>
</g>
<!-- Node15&#45;&gt;Node3 -->
<g id="edge37_Node000015_Node000003" class="edge">
<title>Node15&#45;&gt;Node3</title>
<g id="a_edge37_Node000015_Node000003"><a xlink:title=" ">
<path fill="none" stroke="#63b8ff" d="M308.54,-118.79C242.52,-112.62 64.71,-94.43 46.05,-76 34.59,-64.68 32.41,-46.15 32.77,-31.77"/>
<polygon fill="#63b8ff" stroke="#63b8ff" points="36.24,-32.22 33.46,-21.99 29.26,-31.72 36.24,-32.22"/>
</a>
</g>
</g>
<!-- Node15&#45;&gt;Node4 -->
<g id="edge38_Node000015_Node000004" class="edge">
<title>Node15&#45;&gt;Node4</title>
<g id="a_edge38_Node000015_Node000004"><a xlink:title=" ">
<path fill="none" stroke="#63b8ff" d="M308.5,-112.17C282.07,-101.18 245.64,-80.79 260.05,-56 270.43,-38.14 290.84,-26.79 308.31,-19.95"/>
<polygon fill="#63b8ff" stroke="#63b8ff" points="309.02,-23.41 317.27,-16.76 306.68,-16.81 309.02,-23.41"/>
</a>
</g>
</g>
<!-- Node15&#45;&gt;Node6 -->
<g id="edge40_Node000015_Node000006" class="edge">
<title>Node15&#45;&gt;Node6</title>
<g id="a_edge40_Node000015_Node000006"><a xlink:title=" ">
<path fill="none" stroke="#63b8ff" d="M343.97,-111.62C365.6,-93.03 414.18,-51.28 441.48,-27.82"/>
<polygon fill="#63b8ff" stroke="#63b8ff" points="443.72,-30.51 449.02,-21.34 439.16,-25.2 443.72,-30.51"/>
</a>
</g>
</g>
<!-- Node16&#45;&gt;Node6 -->
<g id="edge44_Node000016_Node000006" class="edge">
<title>Node16&#45;&gt;Node6</title>
<g id="a_edge44_Node000016_Node000006"><a xlink:title=" ">
<path fill="none" stroke="#63b8ff" d="M487.73,-227.85C571.96,-210.49 822.11,-149.89 742.05,-56 710.45,-18.94 560.85,-12.27 493.75,-11.17"/>
<polygon fill="#63b8ff" stroke="#63b8ff" points="494.16,-7.67 484.12,-11.04 494.07,-14.67 494.16,-7.67"/>
</a>
</g>
</g>
<!-- Node16&#45;&gt;Node10 -->
<g id="edge43_Node000016_Node000010" class="edge">
<title>Node16&#45;&gt;Node10</title>
<g id="a_edge43_Node000016_Node000010"><a xlink:title=" ">
<path fill="none" stroke="#63b8ff" d="M461.05,-223.59C461.05,-217.01 461.05,-207.96 461.05,-199.73"/>
<polygon fill="#63b8ff" stroke="#63b8ff" points="464.55,-199.81 461.05,-189.81 457.55,-199.81 464.55,-199.81"/>
</a>
</g>
</g>
</g>
</svg>
