<?xml version="1.0" encoding="UTF-8" standalone="no"?>
<!DOCTYPE svg PUBLIC "-//W3C//DTD SVG 1.1//EN"
 "http://www.w3.org/Graphics/SVG/1.1/DTD/svg11.dtd">
<!-- Generated by graphviz version 12.2.1 (20241206.2353)
 -->
<!-- Title: C:/Users/emilly/Documents/Lucca/Projetos/Cpp/NikiScript/src/Token.cpp Pages: 1 -->
<svg width="634pt" height="276pt"
 viewBox="0.00 0.00 634.17 276.00" xmlns="http://www.w3.org/2000/svg" xmlns:xlink="http://www.w3.org/1999/xlink">
<g id="graph0" class="graph" transform="scale(1 1) rotate(0) translate(4 272)">
<title>C:/Users/emilly/Documents/Lucca/Projetos/Cpp/NikiScript/src/Token.cpp</title>
<!-- Node1 -->
<g id="Node000001" class="node">
<title>Node1</title>
<g id="a_Node000001"><a xlink:title=" ">
<polygon fill="#999999" stroke="#666666" points="438,-268 287,-268 287,-224 438,-224 438,-268"/>
<text text-anchor="start" x="295" y="-254.5" font-family="Helvetica,sans-Serif" font-size="10.00">C:/Users/emilly/Documents</text>
<text text-anchor="start" x="295" y="-242.5" font-family="Helvetica,sans-Serif" font-size="10.00">/Lucca/Projetos/Cpp/NikiScript</text>
<text text-anchor="middle" x="362.5" y="-230.5" font-family="Helvetica,sans-Serif" font-size="10.00">/src/Token.cpp</text>
</a>
</g>
</g>
<!-- Node2 -->
<g id="Node000002" class="node">
<title>Node2</title>
<g id="a_Node000002"><a xlink:href="_token_8h.html" target="_top" xlink:title=" ">
<polygon fill="white" stroke="#666666" points="464.75,-76 414.25,-76 414.25,-56 464.75,-56 464.75,-76"/>
<text text-anchor="middle" x="439.5" y="-62.5" font-family="Helvetica,sans-Serif" font-size="10.00">Token.h</text>
</a>
</g>
</g>
<!-- Node1&#45;&gt;Node2 -->
<g id="edge1_Node000001_Node000002" class="edge">
<title>Node1&#45;&gt;Node2</title>
<g id="a_edge1_Node000001_Node000002"><a xlink:title=" ">
<path fill="none" stroke="#63b8ff" d="M380.27,-223.65C397.16,-202.03 421.68,-166.89 433.5,-132 438.35,-117.67 439.78,-100.61 440.03,-87.56"/>
<polygon fill="#63b8ff" stroke="#63b8ff" points="443.53,-87.6 439.98,-77.62 436.53,-87.64 443.53,-87.6"/>
</a>
</g>
</g>
<!-- Node6 -->
<g id="Node000006" class="node">
<title>Node6</title>
<g id="a_Node000006"><a xlink:href="_context_8h.html" target="_top" xlink:title=" ">
<polygon fill="white" stroke="#666666" points="339.88,-188 281.12,-188 281.12,-168 339.88,-168 339.88,-188"/>
<text text-anchor="middle" x="310.5" y="-174.5" font-family="Helvetica,sans-Serif" font-size="10.00">Context.h</text>
</a>
</g>
</g>
<!-- Node1&#45;&gt;Node6 -->
<g id="edge5_Node000001_Node000006" class="edge">
<title>Node1&#45;&gt;Node6</title>
<g id="a_edge5_Node000001_Node000006"><a xlink:title=" ">
<path fill="none" stroke="#63b8ff" d="M345.76,-223.75C339.02,-215.2 331.32,-205.42 324.84,-197.2"/>
<polygon fill="#63b8ff" stroke="#63b8ff" points="327.8,-195.3 318.86,-189.61 322.3,-199.63 327.8,-195.3"/>
</a>
</g>
</g>
<!-- Node3 -->
<g id="Node000003" class="node">
<title>Node3</title>
<g id="a_Node000003"><a xlink:title=" ">
<polygon fill="#e0e0e0" stroke="#999999" points="616.62,-20 568.38,-20 568.38,0 616.62,0 616.62,-20"/>
<text text-anchor="middle" x="592.5" y="-6.5" font-family="Helvetica,sans-Serif" font-size="10.00">stdint.h</text>
</a>
</g>
</g>
<!-- Node2&#45;&gt;Node3 -->
<g id="edge2_Node000002_Node000003" class="edge">
<title>Node2&#45;&gt;Node3</title>
<g id="a_edge2_Node000002_Node000003"><a xlink:title=" ">
<path fill="none" stroke="#63b8ff" d="M465.11,-55.96C490.49,-47 529.56,-33.21 557.74,-23.27"/>
<polygon fill="#63b8ff" stroke="#63b8ff" points="558.63,-26.67 566.9,-20.04 556.3,-20.06 558.63,-26.67"/>
</a>
</g>
</g>
<!-- Node4 -->
<g id="Node000004" class="node">
<title>Node4</title>
<g id="a_Node000004"><a xlink:title=" ">
<polygon fill="#e0e0e0" stroke="#999999" points="406.5,-20 366.5,-20 366.5,0 406.5,0 406.5,-20"/>
<text text-anchor="middle" x="386.5" y="-6.5" font-family="Helvetica,sans-Serif" font-size="10.00">string</text>
</a>
</g>
</g>
<!-- Node2&#45;&gt;Node4 -->
<g id="edge3_Node000002_Node000004" class="edge">
<title>Node2&#45;&gt;Node4</title>
<g id="a_edge3_Node000002_Node000004"><a xlink:title=" ">
<path fill="none" stroke="#63b8ff" d="M430.27,-55.59C422.9,-48.08 412.37,-37.35 403.48,-28.3"/>
<polygon fill="#63b8ff" stroke="#63b8ff" points="406.19,-26.06 396.69,-21.38 401.19,-30.97 406.19,-26.06"/>
</a>
</g>
</g>
<!-- Node5 -->
<g id="Node000005" class="node">
<title>Node5</title>
<g id="a_Node000005"><a xlink:title=" ">
<polygon fill="#e0e0e0" stroke="#999999" points="283.88,-20 201.12,-20 201.12,0 283.88,0 283.88,-20"/>
<text text-anchor="middle" x="242.5" y="-6.5" font-family="Helvetica,sans-Serif" font-size="10.00">unordered_map</text>
</a>
</g>
</g>
<!-- Node2&#45;&gt;Node5 -->
<g id="edge4_Node000002_Node000005" class="edge">
<title>Node2&#45;&gt;Node5</title>
<g id="a_edge4_Node000002_Node000005"><a xlink:title=" ">
<path fill="none" stroke="#63b8ff" d="M414.15,-58.05C382.37,-49.34 327.32,-34.25 288.13,-23.51"/>
<polygon fill="#63b8ff" stroke="#63b8ff" points="289.06,-20.13 278.49,-20.86 287.2,-26.88 289.06,-20.13"/>
</a>
</g>
</g>
<!-- Node6&#45;&gt;Node3 -->
<g id="edge7_Node000006_Node000003" class="edge">
<title>Node6&#45;&gt;Node3</title>
<g id="a_edge7_Node000006_Node000003"><a xlink:title=" ">
<path fill="none" stroke="#63b8ff" d="M340.34,-174.94C402.27,-170.21 542.38,-157 582.5,-132 614.9,-111.81 633.56,-92.53 622.5,-56 619.62,-46.5 614.01,-37.18 608.41,-29.5"/>
<polygon fill="#63b8ff" stroke="#63b8ff" points="611.17,-27.35 602.22,-21.67 605.67,-31.69 611.17,-27.35"/>
</a>
</g>
</g>
<!-- Node6&#45;&gt;Node4 -->
<g id="edge8_Node000006_Node000004" class="edge">
<title>Node6&#45;&gt;Node4</title>
<g id="a_edge8_Node000006_Node000004"><a xlink:title=" ">
<path fill="none" stroke="#63b8ff" d="M314.8,-167.6C326.87,-141.23 361.23,-66.19 377.61,-30.42"/>
<polygon fill="#63b8ff" stroke="#63b8ff" points="380.63,-32.22 381.61,-21.67 374.27,-29.31 380.63,-32.22"/>
</a>
</g>
</g>
<!-- Node6&#45;&gt;Node5 -->
<g id="edge9_Node000006_Node000005" class="edge">
<title>Node6&#45;&gt;Node5</title>
<g id="a_edge9_Node000006_Node000005"><a xlink:title=" ">
<path fill="none" stroke="#63b8ff" d="M296.42,-167.56C274.22,-151.71 231.91,-117.4 215.5,-76 209.18,-60.07 217.89,-42.08 227.06,-29.08"/>
<polygon fill="#63b8ff" stroke="#63b8ff" points="229.64,-31.47 232.99,-21.42 224.1,-27.18 229.64,-31.47"/>
</a>
</g>
</g>
<!-- Node7 -->
<g id="Node000007" class="node">
<title>Node7</title>
<g id="a_Node000007"><a xlink:title=" ">
<polygon fill="#e0e0e0" stroke="#999999" points="43,-20 0,-20 0,0 43,0 43,-20"/>
<text text-anchor="middle" x="21.5" y="-6.5" font-family="Helvetica,sans-Serif" font-size="10.00">vector</text>
</a>
</g>
</g>
<!-- Node6&#45;&gt;Node7 -->
<g id="edge6_Node000006_Node000007" class="edge">
<title>Node6&#45;&gt;Node7</title>
<g id="a_edge6_Node000006_Node000007"><a xlink:title=" ">
<path fill="none" stroke="#63b8ff" d="M281.04,-175.02C220.63,-170.48 85.23,-157.66 47.5,-132 23.42,-115.62 21.35,-104.04 13.5,-76 9.41,-61.4 11.76,-44.37 14.94,-31.4"/>
<polygon fill="#63b8ff" stroke="#63b8ff" points="18.28,-32.46 17.65,-21.89 11.54,-30.54 18.28,-32.46"/>
</a>
</g>
</g>
<!-- Node8 -->
<g id="Node000008" class="node">
<title>Node8</title>
<g id="a_Node000008"><a xlink:href="_command_8h.html" target="_top" xlink:title=" ">
<polygon fill="white" stroke="#666666" points="92.12,-76 22.88,-76 22.88,-56 92.12,-56 92.12,-76"/>
<text text-anchor="middle" x="57.5" y="-62.5" font-family="Helvetica,sans-Serif" font-size="10.00">Command.h</text>
</a>
</g>
</g>
<!-- Node6&#45;&gt;Node8 -->
<g id="edge10_Node000006_Node000008" class="edge">
<title>Node6&#45;&gt;Node8</title>
<g id="a_edge10_Node000006_Node000008"><a xlink:title=" ">
<path fill="none" stroke="#63b8ff" d="M280.73,-176.17C220.59,-173.82 87.92,-164.93 59.5,-132 49.12,-119.97 49.55,-101.52 52.04,-87.34"/>
<polygon fill="#63b8ff" stroke="#63b8ff" points="55.42,-88.26 54.21,-77.73 48.59,-86.72 55.42,-88.26"/>
</a>
</g>
</g>
<!-- Node10 -->
<g id="Node000010" class="node">
<title>Node10</title>
<g id="a_Node000010"><a xlink:href="_command_handler_8h.html" target="_top" xlink:title=" ">
<polygon fill="white" stroke="#666666" points="172,-132 69,-132 69,-112 172,-112 172,-132"/>
<text text-anchor="middle" x="120.5" y="-118.5" font-family="Helvetica,sans-Serif" font-size="10.00">CommandHandler.h</text>
</a>
</g>
</g>
<!-- Node6&#45;&gt;Node10 -->
<g id="edge14_Node000006_Node000010" class="edge">
<title>Node6&#45;&gt;Node10</title>
<g id="a_edge14_Node000006_Node000010"><a xlink:title=" ">
<path fill="none" stroke="#63b8ff" d="M280.81,-168.56C249.6,-159.69 200.15,-145.64 164.43,-135.48"/>
<polygon fill="#63b8ff" stroke="#63b8ff" points="165.84,-132.25 155.27,-132.88 163.93,-138.98 165.84,-132.25"/>
</a>
</g>
</g>
<!-- Node11 -->
<g id="Node000011" class="node">
<title>Node11</title>
<g id="a_Node000011"><a xlink:href="_print_callback_8h.html" target="_top" xlink:title=" ">
<polygon fill="white" stroke="#666666" points="573.88,-132 491.12,-132 491.12,-112 573.88,-112 573.88,-132"/>
<text text-anchor="middle" x="532.5" y="-118.5" font-family="Helvetica,sans-Serif" font-size="10.00">PrintCallback.h</text>
</a>
</g>
</g>
<!-- Node6&#45;&gt;Node11 -->
<g id="edge18_Node000006_Node000011" class="edge">
<title>Node6&#45;&gt;Node11</title>
<g id="a_edge18_Node000006_Node000011"><a xlink:title=" ">
<path fill="none" stroke="#63b8ff" d="M339.98,-169.83C376.33,-160.99 438.67,-145.82 482.54,-135.15"/>
<polygon fill="#63b8ff" stroke="#63b8ff" points="483.19,-138.6 492.08,-132.83 481.54,-131.79 483.19,-138.6"/>
</a>
</g>
</g>
<!-- Node14 -->
<g id="Node000014" class="node">
<title>Node14</title>
<g id="a_Node000014"><a xlink:href="_program_variable_8h.html" target="_top" xlink:title=" ">
<polygon fill="white" stroke="#666666" points="320.25,-76 224.75,-76 224.75,-56 320.25,-56 320.25,-76"/>
<text text-anchor="middle" x="272.5" y="-62.5" font-family="Helvetica,sans-Serif" font-size="10.00">ProgramVariable.h</text>
</a>
</g>
</g>
<!-- Node6&#45;&gt;Node14 -->
<g id="edge25_Node000006_Node000014" class="edge">
<title>Node6&#45;&gt;Node14</title>
<g id="a_edge25_Node000006_Node000014"><a xlink:title=" ">
<path fill="none" stroke="#63b8ff" d="M307.26,-167.62C301.12,-149.84 287.66,-110.88 279.41,-87"/>
<polygon fill="#63b8ff" stroke="#63b8ff" points="282.8,-86.09 276.23,-77.79 276.18,-88.38 282.8,-86.09"/>
</a>
</g>
</g>
<!-- Node15 -->
<g id="Node000015" class="node">
<title>Node15</title>
<g id="a_Node000015"><a xlink:href="_lexer_8h.html" target="_top" xlink:title=" ">
<polygon fill="white" stroke="#666666" points="424.62,-132 376.38,-132 376.38,-112 424.62,-112 424.62,-132"/>
<text text-anchor="middle" x="400.5" y="-118.5" font-family="Helvetica,sans-Serif" font-size="10.00">Lexer.h</text>
</a>
</g>
</g>
<!-- Node6&#45;&gt;Node15 -->
<g id="edge30_Node000006_Node000015" class="edge">
<title>Node6&#45;&gt;Node15</title>
<g id="a_edge30_Node000006_Node000015"><a xlink:title=" ">
<path fill="none" stroke="#63b8ff" d="M326.18,-167.59C339.64,-159.51 359.32,-147.71 375.04,-138.27"/>
<polygon fill="#63b8ff" stroke="#63b8ff" points="376.63,-141.4 383.4,-133.26 373.03,-135.4 376.63,-141.4"/>
</a>
</g>
</g>
<!-- Node8&#45;&gt;Node4 -->
<g id="edge13_Node000008_Node000004" class="edge">
<title>Node8&#45;&gt;Node4</title>
<g id="a_edge13_Node000008_Node000004"><a xlink:title=" ">
<path fill="none" stroke="#63b8ff" d="M92.4,-59.27C156.74,-48.71 293.12,-26.33 354.9,-16.19"/>
<polygon fill="#63b8ff" stroke="#63b8ff" points="355.43,-19.65 364.73,-14.57 354.29,-12.74 355.43,-19.65"/>
</a>
</g>
</g>
<!-- Node8&#45;&gt;Node7 -->
<g id="edge11_Node000008_Node000007" class="edge">
<title>Node8&#45;&gt;Node7</title>
<g id="a_edge11_Node000008_Node000007"><a xlink:title=" ">
<path fill="none" stroke="#63b8ff" d="M51.23,-55.59C46.48,-48.47 39.8,-38.45 33.98,-29.72"/>
<polygon fill="#63b8ff" stroke="#63b8ff" points="37,-27.94 28.54,-21.56 31.17,-31.82 37,-27.94"/>
</a>
</g>
</g>
<!-- Node9 -->
<g id="Node000009" class="node">
<title>Node9</title>
<g id="a_Node000009"><a xlink:title=" ">
<polygon fill="#e0e0e0" stroke="#999999" points="153.25,-20 87.75,-20 87.75,0 153.25,0 153.25,-20"/>
<text text-anchor="middle" x="120.5" y="-6.5" font-family="Helvetica,sans-Serif" font-size="10.00">string_view</text>
</a>
</g>
</g>
<!-- Node8&#45;&gt;Node9 -->
<g id="edge12_Node000008_Node000009" class="edge">
<title>Node8&#45;&gt;Node9</title>
<g id="a_edge12_Node000008_Node000009"><a xlink:title=" ">
<path fill="none" stroke="#63b8ff" d="M68.47,-55.59C77.42,-47.93 90.27,-36.91 100.96,-27.75"/>
<polygon fill="#63b8ff" stroke="#63b8ff" points="103.19,-30.45 108.5,-21.28 98.63,-25.13 103.19,-30.45"/>
</a>
</g>
</g>
<!-- Node10&#45;&gt;Node5 -->
<g id="edge15_Node000010_Node000005" class="edge">
<title>Node10&#45;&gt;Node5</title>
<g id="a_edge15_Node000010_Node000005"><a xlink:title=" ">
<path fill="none" stroke="#63b8ff" d="M128.48,-111.71C139.88,-98.66 161.75,-74.43 182.5,-56 194.1,-45.7 207.89,-35.24 219.33,-27.01"/>
<polygon fill="#63b8ff" stroke="#63b8ff" points="221.28,-29.91 227.42,-21.27 217.24,-24.2 221.28,-29.91"/>
</a>
</g>
</g>
<!-- Node10&#45;&gt;Node8 -->
<g id="edge17_Node000010_Node000008" class="edge">
<title>Node10&#45;&gt;Node8</title>
<g id="a_edge17_Node000010_Node000008"><a xlink:title=" ">
<path fill="none" stroke="#63b8ff" d="M109.53,-111.59C100.58,-103.93 87.73,-92.91 77.04,-83.75"/>
<polygon fill="#63b8ff" stroke="#63b8ff" points="79.37,-81.13 69.5,-77.28 74.81,-86.45 79.37,-81.13"/>
</a>
</g>
</g>
<!-- Node10&#45;&gt;Node9 -->
<g id="edge16_Node000010_Node000009" class="edge">
<title>Node10&#45;&gt;Node9</title>
<g id="a_edge16_Node000010_Node000009"><a xlink:title=" ">
<path fill="none" stroke="#63b8ff" d="M120.5,-111.62C120.5,-94.01 120.5,-55.59 120.5,-31.65"/>
<polygon fill="#63b8ff" stroke="#63b8ff" points="124,-31.87 120.5,-21.87 117,-31.87 124,-31.87"/>
</a>
</g>
</g>
<!-- Node11&#45;&gt;Node3 -->
<g id="edge19_Node000011_Node000003" class="edge">
<title>Node11&#45;&gt;Node3</title>
<g id="a_edge19_Node000011_Node000003"><a xlink:title=" ">
<path fill="none" stroke="#63b8ff" d="M561.29,-111.57C577.69,-104.55 596.85,-93.17 606.5,-76 614.37,-62.01 609.56,-44.04 603.52,-30.54"/>
<polygon fill="#63b8ff" stroke="#63b8ff" points="606.73,-29.13 599.09,-21.79 600.48,-32.29 606.73,-29.13"/>
</a>
</g>
</g>
<!-- Node11&#45;&gt;Node4 -->
<g id="edge20_Node000011_Node000004" class="edge">
<title>Node11&#45;&gt;Node4</title>
<g id="a_edge20_Node000011_Node000004"><a xlink:title=" ">
<path fill="none" stroke="#63b8ff" d="M525.74,-111.64C515.58,-98.06 495.25,-72.72 473.5,-56 456.2,-42.69 434.37,-31.42 416.91,-23.48"/>
<polygon fill="#63b8ff" stroke="#63b8ff" points="418.63,-20.41 408.07,-19.59 415.81,-26.82 418.63,-20.41"/>
</a>
</g>
</g>
<!-- Node12 -->
<g id="Node000012" class="node">
<title>Node12</title>
<g id="a_Node000012"><a xlink:href="_utils_8h.html" target="_top" xlink:title=" ">
<polygon fill="white" stroke="#666666" points="564.75,-76 520.25,-76 520.25,-56 564.75,-56 564.75,-76"/>
<text text-anchor="middle" x="542.5" y="-62.5" font-family="Helvetica,sans-Serif" font-size="10.00">Utils.h</text>
</a>
</g>
</g>
<!-- Node11&#45;&gt;Node12 -->
<g id="edge21_Node000011_Node000012" class="edge">
<title>Node11&#45;&gt;Node12</title>
<g id="a_edge21_Node000011_Node000012"><a xlink:title=" ">
<path fill="none" stroke="#63b8ff" d="M534.24,-111.59C535.48,-104.93 537.18,-95.75 538.71,-87.44"/>
<polygon fill="#63b8ff" stroke="#63b8ff" points="542.12,-88.26 540.5,-77.79 535.24,-86.98 542.12,-88.26"/>
</a>
</g>
</g>
<!-- Node12&#45;&gt;Node3 -->
<g id="edge22_Node000012_Node000003" class="edge">
<title>Node12&#45;&gt;Node3</title>
<g id="a_edge22_Node000012_Node000003"><a xlink:title=" ">
<path fill="none" stroke="#63b8ff" d="M551.21,-55.59C558.09,-48.16 567.89,-37.58 576.22,-28.58"/>
<polygon fill="#63b8ff" stroke="#63b8ff" points="578.64,-31.12 582.86,-21.41 573.5,-26.37 578.64,-31.12"/>
</a>
</g>
</g>
<!-- Node12&#45;&gt;Node4 -->
<g id="edge23_Node000012_Node000004" class="edge">
<title>Node12&#45;&gt;Node4</title>
<g id="a_edge23_Node000012_Node000004"><a xlink:title=" ">
<path fill="none" stroke="#63b8ff" d="M519.82,-57.15C492.84,-47.81 447.68,-32.18 417.5,-21.73"/>
<polygon fill="#63b8ff" stroke="#63b8ff" points="418.75,-18.46 408.16,-18.5 416.46,-25.08 418.75,-18.46"/>
</a>
</g>
</g>
<!-- Node13 -->
<g id="Node000013" class="node">
<title>Node13</title>
<g id="a_Node000013"><a xlink:title=" ">
<polygon fill="#e0e0e0" stroke="#999999" points="513.12,-20 461.88,-20 461.88,0 513.12,0 513.12,-20"/>
<text text-anchor="middle" x="487.5" y="-6.5" font-family="Helvetica,sans-Serif" font-size="10.00">sstream</text>
</a>
</g>
</g>
<!-- Node12&#45;&gt;Node13 -->
<g id="edge24_Node000012_Node000013" class="edge">
<title>Node12&#45;&gt;Node13</title>
<g id="a_edge24_Node000012_Node000013"><a xlink:title=" ">
<path fill="none" stroke="#63b8ff" d="M532.92,-55.59C525.27,-48.08 514.34,-37.35 505.12,-28.3"/>
<polygon fill="#63b8ff" stroke="#63b8ff" points="507.64,-25.87 498.05,-21.36 502.73,-30.86 507.64,-25.87"/>
</a>
</g>
</g>
<!-- Node14&#45;&gt;Node4 -->
<g id="edge26_Node000014_Node000004" class="edge">
<title>Node14&#45;&gt;Node4</title>
<g id="a_edge26_Node000014_Node000004"><a xlink:title=" ">
<path fill="none" stroke="#63b8ff" d="M292.36,-55.59C309.99,-47.24 336.01,-34.92 356.23,-25.34"/>
<polygon fill="#63b8ff" stroke="#63b8ff" points="357.58,-28.57 365.12,-21.13 354.58,-22.25 357.58,-28.57"/>
</a>
</g>
</g>
<!-- Node14&#45;&gt;Node5 -->
<g id="edge29_Node000014_Node000005" class="edge">
<title>Node14&#45;&gt;Node5</title>
<g id="a_edge29_Node000014_Node000005"><a xlink:title=" ">
<path fill="none" stroke="#63b8ff" d="M267.27,-55.59C263.4,-48.63 257.99,-38.89 253.22,-30.29"/>
<polygon fill="#63b8ff" stroke="#63b8ff" points="256.32,-28.66 248.4,-21.62 250.2,-32.06 256.32,-28.66"/>
</a>
</g>
</g>
<!-- Node14&#45;&gt;Node9 -->
<g id="edge27_Node000014_Node000009" class="edge">
<title>Node14&#45;&gt;Node9</title>
<g id="a_edge27_Node000014_Node000009"><a xlink:title=" ">
<path fill="none" stroke="#63b8ff" d="M246.02,-55.59C221.65,-46.94 185.25,-34 157.91,-24.29"/>
<polygon fill="#63b8ff" stroke="#63b8ff" points="159.2,-21.04 148.61,-20.99 156.86,-27.63 159.2,-21.04"/>
</a>
</g>
</g>
<!-- Node14&#45;&gt;Node13 -->
<g id="edge28_Node000014_Node000013" class="edge">
<title>Node14&#45;&gt;Node13</title>
<g id="a_edge28_Node000014_Node000013"><a xlink:title=" ">
<path fill="none" stroke="#63b8ff" d="M309.95,-55.59C349.48,-45.67 411.39,-30.12 450.68,-20.25"/>
<polygon fill="#63b8ff" stroke="#63b8ff" points="451.3,-23.7 460.14,-17.87 449.59,-16.91 451.3,-23.7"/>
</a>
</g>
</g>
<!-- Node15&#45;&gt;Node2 -->
<g id="edge33_Node000015_Node000002" class="edge">
<title>Node15&#45;&gt;Node2</title>
<g id="a_edge33_Node000015_Node000002"><a xlink:title=" ">
<path fill="none" stroke="#63b8ff" d="M407.29,-111.59C412.49,-104.39 419.83,-94.23 426.19,-85.43"/>
<polygon fill="#63b8ff" stroke="#63b8ff" points="428.88,-87.68 431.9,-77.53 423.21,-83.58 428.88,-87.68"/>
</a>
</g>
</g>
<!-- Node15&#45;&gt;Node3 -->
<g id="edge31_Node000015_Node000003" class="edge">
<title>Node15&#45;&gt;Node3</title>
<g id="a_edge31_Node000015_Node000003"><a xlink:title=" ">
<path fill="none" stroke="#63b8ff" d="M424.85,-117.66C467.3,-111.38 552.34,-96.53 573.5,-76 585.38,-64.47 589.94,-45.97 591.64,-31.65"/>
<polygon fill="#63b8ff" stroke="#63b8ff" points="595.11,-32.17 592.39,-21.93 588.13,-31.63 595.11,-32.17"/>
</a>
</g>
</g>
<!-- Node15&#45;&gt;Node4 -->
<g id="edge32_Node000015_Node000004" class="edge">
<title>Node15&#45;&gt;Node4</title>
<g id="a_edge32_Node000015_Node000004"><a xlink:title=" ">
<path fill="none" stroke="#63b8ff" d="M399.31,-111.62C397.06,-94.01 392.18,-55.59 389.13,-31.65"/>
<polygon fill="#63b8ff" stroke="#63b8ff" points="392.62,-31.33 387.88,-21.86 385.67,-32.22 392.62,-31.33"/>
</a>
</g>
</g>
</g>
</svg>
