<?xml version="1.0" encoding="UTF-8" standalone="no"?>
<!DOCTYPE svg PUBLIC "-//W3C//DTD SVG 1.1//EN"
 "http://www.w3.org/Graphics/SVG/1.1/DTD/svg11.dtd">
<!-- Generated by graphviz version 12.2.1 (20241206.2353)
 -->
<!-- Title: C:/Users/emilly/Documents/Lucca/Projetos/Cpp/NikiScript/src/Token.h Pages: 1 -->
<svg width="1474pt" height="372pt"
 viewBox="0.00 0.00 1474.30 372.00" xmlns="http://www.w3.org/2000/svg" xmlns:xlink="http://www.w3.org/1999/xlink">
<g id="graph0" class="graph" transform="scale(1 1) rotate(0) translate(4 368)">
<title>C:/Users/emilly/Documents/Lucca/Projetos/Cpp/NikiScript/src/Token.h</title>
<!-- Node1 -->
<g id="Node000001" class="node">
<title>Node1</title>
<g id="a_Node000001"><a xlink:title=" ">
<polygon fill="#999999" stroke="#666666" points="1121.3,-364 970.3,-364 970.3,-320 1121.3,-320 1121.3,-364"/>
<text text-anchor="start" x="978.3" y="-350.5" font-family="Helvetica,sans-Serif" font-size="10.00">C:/Users/emilly/Documents</text>
<text text-anchor="start" x="978.3" y="-338.5" font-family="Helvetica,sans-Serif" font-size="10.00">/Lucca/Projetos/Cpp/NikiScript</text>
<text text-anchor="middle" x="1045.8" y="-326.5" font-family="Helvetica,sans-Serif" font-size="10.00">/src/Token.h</text>
</a>
</g>
</g>
<!-- Node2 -->
<g id="Node000002" class="node">
<title>Node2</title>
<g id="a_Node000002"><a xlink:href="example_8cpp.html" target="_top" xlink:title=" ">
<polygon fill="white" stroke="#666666" points="231.3,-44 80.3,-44 80.3,0 231.3,0 231.3,-44"/>
<text text-anchor="start" x="88.3" y="-30.5" font-family="Helvetica,sans-Serif" font-size="10.00">C:/Users/emilly/Documents</text>
<text text-anchor="start" x="88.3" y="-18.5" font-family="Helvetica,sans-Serif" font-size="10.00">/Lucca/Projetos/Cpp/NikiScript</text>
<text text-anchor="middle" x="155.8" y="-6.5" font-family="Helvetica,sans-Serif" font-size="10.00">/example/src/example.cpp</text>
</a>
</g>
</g>
<!-- Node1&#45;&gt;Node2 -->
<g id="edge1_Node000001_Node000002" class="edge">
<title>Node1&#45;&gt;Node2</title>
<g id="a_edge1_Node000001_Node000002"><a xlink:title=" ">
<path fill="none" stroke="#63b8ff" d="M958.68,-335.91C721.16,-321.16 75.87,-274.85 13.8,-204 -34.76,-148.57 60.43,-79.02 117.39,-44.5"/>
<polygon fill="#63b8ff" stroke="#63b8ff" points="958.31,-339.4 968.5,-336.52 958.74,-332.41 958.31,-339.4"/>
</a>
</g>
</g>
<!-- Node3 -->
<g id="Node000003" class="node">
<title>Node3</title>
<g id="a_Node000003"><a xlink:href="_lexer_8h.html" target="_top" xlink:title=" ">
<polygon fill="white" stroke="#666666" points="787.3,-284 636.3,-284 636.3,-240 787.3,-240 787.3,-284"/>
<text text-anchor="start" x="644.3" y="-270.5" font-family="Helvetica,sans-Serif" font-size="10.00">C:/Users/emilly/Documents</text>
<text text-anchor="start" x="644.3" y="-258.5" font-family="Helvetica,sans-Serif" font-size="10.00">/Lucca/Projetos/Cpp/NikiScript</text>
<text text-anchor="middle" x="711.8" y="-246.5" font-family="Helvetica,sans-Serif" font-size="10.00">/src/Lexer.h</text>
</a>
</g>
</g>
<!-- Node1&#45;&gt;Node3 -->
<g id="edge2_Node000001_Node000003" class="edge">
<title>Node1&#45;&gt;Node3</title>
<g id="a_edge2_Node000001_Node000003"><a xlink:title=" ">
<path fill="none" stroke="#63b8ff" d="M958.9,-320.71C905.79,-308.3 838.52,-292.59 787.58,-280.7"/>
<polygon fill="#63b8ff" stroke="#63b8ff" points="958,-324.09 968.54,-322.96 959.6,-317.27 958,-324.09"/>
</a>
</g>
</g>
<!-- Node12 -->
<g id="Node000012" class="node">
<title>Node12</title>
<g id="a_Node000012"><a xlink:href="_token_8cpp.html" target="_top" xlink:title=" ">
<polygon fill="white" stroke="#666666" points="1428.3,-124 1277.3,-124 1277.3,-80 1428.3,-80 1428.3,-124"/>
<text text-anchor="start" x="1285.3" y="-110.5" font-family="Helvetica,sans-Serif" font-size="10.00">C:/Users/emilly/Documents</text>
<text text-anchor="start" x="1285.3" y="-98.5" font-family="Helvetica,sans-Serif" font-size="10.00">/Lucca/Projetos/Cpp/NikiScript</text>
<text text-anchor="middle" x="1352.8" y="-86.5" font-family="Helvetica,sans-Serif" font-size="10.00">/src/Token.cpp</text>
</a>
</g>
</g>
<!-- Node1&#45;&gt;Node12 -->
<g id="edge20_Node000001_Node000012" class="edge">
<title>Node1&#45;&gt;Node12</title>
<g id="a_edge20_Node000001_Node000012"><a xlink:title=" ">
<path fill="none" stroke="#63b8ff" d="M1096.89,-314.14C1142.68,-288.85 1210.5,-248.32 1262.8,-204 1278.21,-190.94 1313.54,-149.84 1335.07,-124.27"/>
<polygon fill="#63b8ff" stroke="#63b8ff" points="1095.31,-311.02 1088.22,-318.89 1098.67,-317.16 1095.31,-311.02"/>
</a>
</g>
</g>
<!-- Node15 -->
<g id="Node000015" class="node">
<title>Node15</title>
<g id="a_Node000015"><a xlink:href="_token_wrapper_8h.html" target="_top" xlink:title=" ">
<polygon fill="white" stroke="#666666" points="1466.3,-284 1315.3,-284 1315.3,-240 1466.3,-240 1466.3,-284"/>
<text text-anchor="start" x="1323.3" y="-270.5" font-family="Helvetica,sans-Serif" font-size="10.00">C:/Users/emilly/Documents</text>
<text text-anchor="start" x="1323.3" y="-258.5" font-family="Helvetica,sans-Serif" font-size="10.00">/Lucca/Projetos/Cpp/NikiScript</text>
<text text-anchor="middle" x="1390.8" y="-246.5" font-family="Helvetica,sans-Serif" font-size="10.00">/wrapper/TokenWrapper.h</text>
</a>
</g>
</g>
<!-- Node1&#45;&gt;Node15 -->
<g id="edge21_Node000001_Node000015" class="edge">
<title>Node1&#45;&gt;Node15</title>
<g id="a_edge21_Node000001_Node000015"><a xlink:title=" ">
<path fill="none" stroke="#63b8ff" d="M1132.67,-321.79C1182,-310.83 1244.89,-296.77 1300.8,-284 1305.49,-282.93 1310.32,-281.82 1315.19,-280.7"/>
<polygon fill="#63b8ff" stroke="#63b8ff" points="1132.2,-318.31 1123.19,-323.9 1133.72,-325.15 1132.2,-318.31"/>
</a>
</g>
</g>
<!-- Node3&#45;&gt;Node2 -->
<g id="edge3_Node000003_Node000002" class="edge">
<title>Node3&#45;&gt;Node2</title>
<g id="a_edge3_Node000003_Node000002"><a xlink:title=" ">
<path fill="none" stroke="#63b8ff" d="M624.54,-252.62C481.88,-236.92 208.75,-197.8 150.8,-124 133.13,-101.49 139.99,-66.7 147.3,-44.39"/>
<polygon fill="#63b8ff" stroke="#63b8ff" points="624.01,-256.08 634.33,-253.68 624.76,-249.13 624.01,-256.08"/>
</a>
</g>
</g>
<!-- Node4 -->
<g id="Node000004" class="node">
<title>Node4</title>
<g id="a_Node000004"><a xlink:href="_context_8h.html" target="_top" xlink:title=" ">
<polygon fill="white" stroke="#666666" points="787.3,-204 636.3,-204 636.3,-160 787.3,-160 787.3,-204"/>
<text text-anchor="start" x="644.3" y="-190.5" font-family="Helvetica,sans-Serif" font-size="10.00">C:/Users/emilly/Documents</text>
<text text-anchor="start" x="644.3" y="-178.5" font-family="Helvetica,sans-Serif" font-size="10.00">/Lucca/Projetos/Cpp/NikiScript</text>
<text text-anchor="middle" x="711.8" y="-166.5" font-family="Helvetica,sans-Serif" font-size="10.00">/src/Context.h</text>
</a>
</g>
</g>
<!-- Node3&#45;&gt;Node4 -->
<g id="edge4_Node000003_Node000004" class="edge">
<title>Node3&#45;&gt;Node4</title>
<g id="a_edge4_Node000003_Node000004"><a xlink:title=" ">
<path fill="none" stroke="#63b8ff" d="M711.8,-228.25C711.8,-220.15 711.8,-211.68 711.8,-204.29"/>
<polygon fill="#63b8ff" stroke="#63b8ff" points="708.3,-228.17 711.8,-238.17 715.3,-228.17 708.3,-228.17"/>
</a>
</g>
</g>
<!-- Node8 -->
<g id="Node000008" class="node">
<title>Node8</title>
<g id="a_Node000008"><a xlink:href="_niki_script_8cpp.html" target="_top" xlink:title=" ">
<polygon fill="white" stroke="#666666" points="1135.3,-44 984.3,-44 984.3,0 1135.3,0 1135.3,-44"/>
<text text-anchor="start" x="992.3" y="-30.5" font-family="Helvetica,sans-Serif" font-size="10.00">C:/Users/emilly/Documents</text>
<text text-anchor="start" x="992.3" y="-18.5" font-family="Helvetica,sans-Serif" font-size="10.00">/Lucca/Projetos/Cpp/NikiScript</text>
<text text-anchor="middle" x="1059.8" y="-6.5" font-family="Helvetica,sans-Serif" font-size="10.00">/src/NikiScript.cpp</text>
</a>
</g>
</g>
<!-- Node3&#45;&gt;Node8 -->
<g id="edge19_Node000003_Node000008" class="edge">
<title>Node3&#45;&gt;Node8</title>
<g id="a_edge19_Node000003_Node000008"><a xlink:title=" ">
<path fill="none" stroke="#63b8ff" d="M799,-250.72C932.48,-232.98 1177.56,-191.86 1229.8,-124 1241.73,-108.5 1241.22,-95.87 1229.8,-80 1208.26,-50.06 1170.23,-35.62 1135.6,-28.75"/>
<polygon fill="#63b8ff" stroke="#63b8ff" points="798.58,-247.24 789.12,-252.01 799.49,-254.18 798.58,-247.24"/>
</a>
</g>
</g>
<!-- Node14 -->
<g id="Node000014" class="node">
<title>Node14</title>
<g id="a_Node000014"><a xlink:href="_lexer_8cpp.html" target="_top" xlink:title=" ">
<polygon fill="white" stroke="#666666" points="174.3,-204 23.3,-204 23.3,-160 174.3,-160 174.3,-204"/>
<text text-anchor="start" x="31.3" y="-190.5" font-family="Helvetica,sans-Serif" font-size="10.00">C:/Users/emilly/Documents</text>
<text text-anchor="start" x="31.3" y="-178.5" font-family="Helvetica,sans-Serif" font-size="10.00">/Lucca/Projetos/Cpp/NikiScript</text>
<text text-anchor="middle" x="98.8" y="-166.5" font-family="Helvetica,sans-Serif" font-size="10.00">/src/Lexer.cpp</text>
</a>
</g>
</g>
<!-- Node3&#45;&gt;Node14 -->
<g id="edge18_Node000003_Node000014" class="edge">
<title>Node3&#45;&gt;Node14</title>
<g id="a_edge18_Node000003_Node000014"><a xlink:title=" ">
<path fill="none" stroke="#63b8ff" d="M624.66,-254.74C520.49,-246.51 341.11,-229.97 188.8,-204 184.21,-203.22 179.51,-202.34 174.78,-201.41"/>
<polygon fill="#63b8ff" stroke="#63b8ff" points="624.3,-258.22 634.55,-255.51 624.85,-251.24 624.3,-258.22"/>
</a>
</g>
</g>
<!-- Node4&#45;&gt;Node2 -->
<g id="edge5_Node000004_Node000002" class="edge">
<title>Node4&#45;&gt;Node2</title>
<g id="a_edge5_Node000004_Node000002"><a xlink:title=" ">
<path fill="none" stroke="#63b8ff" d="M624.63,-177.37C481,-170.58 207.15,-153.85 174.8,-124 153.04,-103.91 151.51,-67.41 153.12,-44.22"/>
<polygon fill="#63b8ff" stroke="#63b8ff" points="624.35,-180.86 634.5,-177.83 624.67,-173.87 624.35,-180.86"/>
</a>
</g>
</g>
<!-- Node5 -->
<g id="Node000005" class="node">
<title>Node5</title>
<g id="a_Node000005"><a xlink:href="_command_handler_8cpp.html" target="_top" xlink:title=" ">
<polygon fill="white" stroke="#666666" points="1220.3,-124 1069.3,-124 1069.3,-80 1220.3,-80 1220.3,-124"/>
<text text-anchor="start" x="1077.3" y="-110.5" font-family="Helvetica,sans-Serif" font-size="10.00">C:/Users/emilly/Documents</text>
<text text-anchor="start" x="1077.3" y="-98.5" font-family="Helvetica,sans-Serif" font-size="10.00">/Lucca/Projetos/Cpp/NikiScript</text>
<text text-anchor="middle" x="1144.8" y="-86.5" font-family="Helvetica,sans-Serif" font-size="10.00">/src/CommandHandler.cpp</text>
</a>
</g>
</g>
<!-- Node4&#45;&gt;Node5 -->
<g id="edge6_Node000004_Node000005" class="edge">
<title>Node4&#45;&gt;Node5</title>
<g id="a_edge6_Node000004_Node000005"><a xlink:title=" ">
<path fill="none" stroke="#63b8ff" d="M798.53,-168.76C869.15,-158.32 971.28,-142.15 1059.8,-124 1062.78,-123.39 1065.81,-122.75 1068.87,-122.08"/>
<polygon fill="#63b8ff" stroke="#63b8ff" points="798.35,-165.25 788.97,-170.17 799.37,-172.17 798.35,-165.25"/>
</a>
</g>
</g>
<!-- Node6 -->
<g id="Node000006" class="node">
<title>Node6</title>
<g id="a_Node000006"><a xlink:href="_context_8cpp.html" target="_top" xlink:title=" ">
<polygon fill="white" stroke="#666666" points="335.3,-124 184.3,-124 184.3,-80 335.3,-80 335.3,-124"/>
<text text-anchor="start" x="192.3" y="-110.5" font-family="Helvetica,sans-Serif" font-size="10.00">C:/Users/emilly/Documents</text>
<text text-anchor="start" x="192.3" y="-98.5" font-family="Helvetica,sans-Serif" font-size="10.00">/Lucca/Projetos/Cpp/NikiScript</text>
<text text-anchor="middle" x="259.8" y="-86.5" font-family="Helvetica,sans-Serif" font-size="10.00">/src/Context.cpp</text>
</a>
</g>
</g>
<!-- Node4&#45;&gt;Node6 -->
<g id="edge7_Node000004_Node000006" class="edge">
<title>Node4&#45;&gt;Node6</title>
<g id="a_edge7_Node000004_Node000006"><a xlink:title=" ">
<path fill="none" stroke="#63b8ff" d="M624.8,-169.81C549.98,-159.64 439.34,-143.3 343.8,-124 341.15,-123.46 338.45,-122.9 335.74,-122.31"/>
<polygon fill="#63b8ff" stroke="#63b8ff" points="624.15,-173.25 634.53,-171.12 625.09,-166.31 624.15,-173.25"/>
</a>
</g>
</g>
<!-- Node7 -->
<g id="Node000007" class="node">
<title>Node7</title>
<g id="a_Node000007"><a xlink:href="_niki_script_8h.html" target="_top" xlink:title=" ">
<polygon fill="white" stroke="#666666" points="882.3,-124 731.3,-124 731.3,-80 882.3,-80 882.3,-124"/>
<text text-anchor="start" x="739.3" y="-110.5" font-family="Helvetica,sans-Serif" font-size="10.00">C:/Users/emilly/Documents</text>
<text text-anchor="start" x="739.3" y="-98.5" font-family="Helvetica,sans-Serif" font-size="10.00">/Lucca/Projetos/Cpp/NikiScript</text>
<text text-anchor="middle" x="806.8" y="-86.5" font-family="Helvetica,sans-Serif" font-size="10.00">/src/NikiScript.h</text>
</a>
</g>
</g>
<!-- Node4&#45;&gt;Node7 -->
<g id="edge8_Node000004_Node000007" class="edge">
<title>Node4&#45;&gt;Node7</title>
<g id="a_edge8_Node000004_Node000007"><a xlink:title=" ">
<path fill="none" stroke="#63b8ff" d="M746.58,-152.45C757.92,-143.14 770.3,-132.97 780.87,-124.29"/>
<polygon fill="#63b8ff" stroke="#63b8ff" points="744.44,-149.67 738.93,-158.73 748.88,-155.09 744.44,-149.67"/>
</a>
</g>
</g>
<!-- Node9 -->
<g id="Node000009" class="node">
<title>Node9</title>
<g id="a_Node000009"><a xlink:href="_parser_8h.html" target="_top" xlink:title=" ">
<polygon fill="white" stroke="#666666" points="1051.3,-124 900.3,-124 900.3,-80 1051.3,-80 1051.3,-124"/>
<text text-anchor="start" x="908.3" y="-110.5" font-family="Helvetica,sans-Serif" font-size="10.00">C:/Users/emilly/Documents</text>
<text text-anchor="start" x="908.3" y="-98.5" font-family="Helvetica,sans-Serif" font-size="10.00">/Lucca/Projetos/Cpp/NikiScript</text>
<text text-anchor="middle" x="975.8" y="-86.5" font-family="Helvetica,sans-Serif" font-size="10.00">/src/Parser.h</text>
</a>
</g>
</g>
<!-- Node4&#45;&gt;Node9 -->
<g id="edge11_Node000004_Node000009" class="edge">
<title>Node4&#45;&gt;Node9</title>
<g id="a_edge11_Node000004_Node000009"><a xlink:title=" ">
<path fill="none" stroke="#63b8ff" d="M794.92,-156.44C829.75,-146.15 869.88,-134.29 903.47,-124.37"/>
<polygon fill="#63b8ff" stroke="#63b8ff" points="794.34,-152.96 785.74,-159.15 796.32,-159.68 794.34,-152.96"/>
</a>
</g>
</g>
<!-- Node11 -->
<g id="Node000011" class="node">
<title>Node11</title>
<g id="a_Node000011"><a xlink:href="_program_variable_8cpp.html" target="_top" xlink:title=" ">
<polygon fill="white" stroke="#666666" points="504.3,-124 353.3,-124 353.3,-80 504.3,-80 504.3,-124"/>
<text text-anchor="start" x="361.3" y="-110.5" font-family="Helvetica,sans-Serif" font-size="10.00">C:/Users/emilly/Documents</text>
<text text-anchor="start" x="361.3" y="-98.5" font-family="Helvetica,sans-Serif" font-size="10.00">/Lucca/Projetos/Cpp/NikiScript</text>
<text text-anchor="middle" x="428.8" y="-86.5" font-family="Helvetica,sans-Serif" font-size="10.00">/src/ProgramVariable.cpp</text>
</a>
</g>
</g>
<!-- Node4&#45;&gt;Node11 -->
<g id="edge15_Node000004_Node000011" class="edge">
<title>Node4&#45;&gt;Node11</title>
<g id="a_edge15_Node000004_Node000011"><a xlink:title=" ">
<path fill="none" stroke="#63b8ff" d="M625.26,-157.15C586.65,-146.51 541.58,-134.08 504.36,-123.82"/>
<polygon fill="#63b8ff" stroke="#63b8ff" points="623.93,-160.41 634.5,-159.7 625.79,-153.66 623.93,-160.41"/>
</a>
</g>
</g>
<!-- Node4&#45;&gt;Node12 -->
<g id="edge16_Node000004_Node000012" class="edge">
<title>Node4&#45;&gt;Node12</title>
<g id="a_edge16_Node000004_Node000012"><a xlink:title=" ">
<path fill="none" stroke="#63b8ff" d="M798.74,-173.03C901.81,-163.21 1078.67,-145.2 1229.8,-124 1245.14,-121.85 1261.51,-119.26 1277.13,-116.65"/>
<polygon fill="#63b8ff" stroke="#63b8ff" points="798.6,-169.52 788.98,-173.95 799.26,-176.49 798.6,-169.52"/>
</a>
</g>
</g>
<!-- Node13 -->
<g id="Node000013" class="node">
<title>Node13</title>
<g id="a_Node000013"><a xlink:href="_command_handler_wrapper_8cpp.html" target="_top" xlink:title=" ">
<polygon fill="white" stroke="#666666" points="712.8,-124 522.8,-124 522.8,-80 712.8,-80 712.8,-124"/>
<text text-anchor="start" x="530.8" y="-110.5" font-family="Helvetica,sans-Serif" font-size="10.00">C:/Users/emilly/Documents</text>
<text text-anchor="start" x="530.8" y="-98.5" font-family="Helvetica,sans-Serif" font-size="10.00">/Lucca/Projetos/Cpp/NikiScript</text>
<text text-anchor="middle" x="617.8" y="-86.5" font-family="Helvetica,sans-Serif" font-size="10.00">/wrapper/CommandHandlerWrapper.cpp</text>
</a>
</g>
</g>
<!-- Node4&#45;&gt;Node13 -->
<g id="edge17_Node000004_Node000013" class="edge">
<title>Node4&#45;&gt;Node13</title>
<g id="a_edge17_Node000004_Node000013"><a xlink:title=" ">
<path fill="none" stroke="#63b8ff" d="M677.39,-152.45C666.17,-143.14 653.92,-132.97 643.46,-124.29"/>
<polygon fill="#63b8ff" stroke="#63b8ff" points="675.02,-155.03 684.95,-158.72 679.49,-149.64 675.02,-155.03"/>
</a>
</g>
</g>
<!-- Node7&#45;&gt;Node2 -->
<g id="edge9_Node000007_Node000002" class="edge">
<title>Node7&#45;&gt;Node2</title>
<g id="a_edge9_Node000007_Node000002"><a xlink:title=" ">
<path fill="none" stroke="#63b8ff" d="M719.62,-79.75C539.4,-49.26 338.63,-33.91 231.79,-27.22"/>
<polygon fill="#63b8ff" stroke="#63b8ff" points="718.97,-83.19 729.42,-81.43 720.16,-76.29 718.97,-83.19"/>
</a>
</g>
</g>
<!-- Node7&#45;&gt;Node8 -->
<g id="edge10_Node000007_Node000008" class="edge">
<title>Node7&#45;&gt;Node8</title>
<g id="a_edge10_Node000007_Node000008"><a xlink:title=" ">
<path fill="none" stroke="#63b8ff" d="M886.89,-76.31C920.17,-66.05 958.43,-54.25 990.49,-44.37"/>
<polygon fill="#63b8ff" stroke="#63b8ff" points="886.24,-72.85 877.72,-79.14 888.3,-79.54 886.24,-72.85"/>
</a>
</g>
</g>
<!-- Node9&#45;&gt;Node2 -->
<g id="edge12_Node000009_Node000002" class="edge">
<title>Node9&#45;&gt;Node2</title>
<g id="a_edge12_Node000009_Node000002"><a xlink:title=" ">
<path fill="none" stroke="#63b8ff" d="M888.65,-79.8C643.5,-41.15 363.53,-28.74 231.68,-24.77"/>
<polygon fill="#63b8ff" stroke="#63b8ff" points="888.01,-83.24 898.43,-81.36 889.11,-76.33 888.01,-83.24"/>
</a>
</g>
</g>
<!-- Node9&#45;&gt;Node8 -->
<g id="edge13_Node000009_Node000008" class="edge">
<title>Node9&#45;&gt;Node8</title>
<g id="a_edge13_Node000009_Node000008"><a xlink:title=" ">
<path fill="none" stroke="#63b8ff" d="M1007.15,-71.89C1017.01,-62.74 1027.71,-52.8 1036.88,-44.29"/>
<polygon fill="#63b8ff" stroke="#63b8ff" points="1004.81,-69.29 999.86,-78.66 1009.57,-74.42 1004.81,-69.29"/>
</a>
</g>
</g>
<!-- Node10 -->
<g id="Node000010" class="node">
<title>Node10</title>
<g id="a_Node000010"><a xlink:href="_parser_8cpp.html" target="_top" xlink:title=" ">
<polygon fill="white" stroke="#666666" points="966.3,-44 815.3,-44 815.3,0 966.3,0 966.3,-44"/>
<text text-anchor="start" x="823.3" y="-30.5" font-family="Helvetica,sans-Serif" font-size="10.00">C:/Users/emilly/Documents</text>
<text text-anchor="start" x="823.3" y="-18.5" font-family="Helvetica,sans-Serif" font-size="10.00">/Lucca/Projetos/Cpp/NikiScript</text>
<text text-anchor="middle" x="890.8" y="-6.5" font-family="Helvetica,sans-Serif" font-size="10.00">/src/Parser.cpp</text>
</a>
</g>
</g>
<!-- Node9&#45;&gt;Node10 -->
<g id="edge14_Node000009_Node000010" class="edge">
<title>Node9&#45;&gt;Node10</title>
<g id="a_edge14_Node000009_Node000010"><a xlink:title=" ">
<path fill="none" stroke="#63b8ff" d="M944.39,-72.17C934.32,-62.94 923.37,-52.88 914,-44.29"/>
<polygon fill="#63b8ff" stroke="#63b8ff" points="941.73,-74.48 951.46,-78.66 946.46,-69.32 941.73,-74.48"/>
</a>
</g>
</g>
<!-- Node16 -->
<g id="Node000016" class="node">
<title>Node16</title>
<g id="a_Node000016"><a xlink:href="_token_wrapper_8cpp.html" target="_top" xlink:title=" ">
<polygon fill="white" stroke="#666666" points="1466.3,-204 1315.3,-204 1315.3,-160 1466.3,-160 1466.3,-204"/>
<text text-anchor="start" x="1323.3" y="-190.5" font-family="Helvetica,sans-Serif" font-size="10.00">C:/Users/emilly/Documents</text>
<text text-anchor="start" x="1323.3" y="-178.5" font-family="Helvetica,sans-Serif" font-size="10.00">/Lucca/Projetos/Cpp/NikiScript</text>
<text text-anchor="middle" x="1390.8" y="-166.5" font-family="Helvetica,sans-Serif" font-size="10.00">/wrapper/TokenWrapper.cpp</text>
</a>
</g>
</g>
<!-- Node15&#45;&gt;Node16 -->
<g id="edge22_Node000015_Node000016" class="edge">
<title>Node15&#45;&gt;Node16</title>
<g id="a_edge22_Node000015_Node000016"><a xlink:title=" ">
<path fill="none" stroke="#63b8ff" d="M1390.8,-228.25C1390.8,-220.15 1390.8,-211.68 1390.8,-204.29"/>
<polygon fill="#63b8ff" stroke="#63b8ff" points="1387.3,-228.17 1390.8,-238.17 1394.3,-228.17 1387.3,-228.17"/>
</a>
</g>
</g>
</g>
</svg>
