<?xml version="1.0" encoding="UTF-8" standalone="no"?>
<!DOCTYPE svg PUBLIC "-//W3C//DTD SVG 1.1//EN"
 "http://www.w3.org/Graphics/SVG/1.1/DTD/svg11.dtd">
<!-- Generated by graphviz version 12.2.1 (20241206.2353)
 -->
<!-- Title: C:/Users/emilly/Documents/Lucca/Projetos/Cpp/NikiScript/src/Token.cpp Pages: 1 -->
<svg width="598pt" height="276pt"
 viewBox="0.00 0.00 597.75 276.00" xmlns="http://www.w3.org/2000/svg" xmlns:xlink="http://www.w3.org/1999/xlink">
<g id="graph0" class="graph" transform="scale(1 1) rotate(0) translate(4 272)">
<title>C:/Users/emilly/Documents/Lucca/Projetos/Cpp/NikiScript/src/Token.cpp</title>
<!-- Node1 -->
<g id="Node000001" class="node">
<title>Node1</title>
<g id="a_Node000001"><a xlink:title=" ">
<polygon fill="#999999" stroke="#666666" points="151,-268 0,-268 0,-224 151,-224 151,-268"/>
<text text-anchor="start" x="8" y="-254.5" font-family="Helvetica,sans-Serif" font-size="10.00">C:/Users/emilly/Documents</text>
<text text-anchor="start" x="8" y="-242.5" font-family="Helvetica,sans-Serif" font-size="10.00">/Lucca/Projetos/Cpp/NikiScript</text>
<text text-anchor="middle" x="75.5" y="-230.5" font-family="Helvetica,sans-Serif" font-size="10.00">/src/Token.cpp</text>
</a>
</g>
</g>
<!-- Node2 -->
<g id="Node000002" class="node">
<title>Node2</title>
<g id="a_Node000002"><a xlink:href="_token_8h.html" target="_top" xlink:title=" ">
<polygon fill="white" stroke="#666666" points="85.75,-76 35.25,-76 35.25,-56 85.75,-56 85.75,-76"/>
<text text-anchor="middle" x="60.5" y="-62.5" font-family="Helvetica,sans-Serif" font-size="10.00">Token.h</text>
</a>
</g>
</g>
<!-- Node1&#45;&gt;Node2 -->
<g id="edge1_Node000001_Node000002" class="edge">
<title>Node1&#45;&gt;Node2</title>
<g id="a_edge1_Node000001_Node000002"><a xlink:title=" ">
<path fill="none" stroke="#63b8ff" d="M66.24,-223.5C56.07,-197.34 41.88,-151.72 47.5,-112 48.67,-103.76 50.98,-94.91 53.33,-87.26"/>
<polygon fill="#63b8ff" stroke="#63b8ff" points="56.61,-88.52 56.44,-77.92 49.96,-86.31 56.61,-88.52"/>
</a>
</g>
</g>
<!-- Node6 -->
<g id="Node000006" class="node">
<title>Node6</title>
<g id="a_Node000006"><a xlink:href="_context_8h.html" target="_top" xlink:title=" ">
<polygon fill="white" stroke="#666666" points="283.88,-188 225.12,-188 225.12,-168 283.88,-168 283.88,-188"/>
<text text-anchor="middle" x="254.5" y="-174.5" font-family="Helvetica,sans-Serif" font-size="10.00">Context.h</text>
</a>
</g>
</g>
<!-- Node1&#45;&gt;Node6 -->
<g id="edge5_Node000001_Node000006" class="edge">
<title>Node1&#45;&gt;Node6</title>
<g id="a_edge5_Node000001_Node000006"><a xlink:title=" ">
<path fill="none" stroke="#63b8ff" d="M133.62,-223.57C161.59,-213.26 194.25,-201.22 218.56,-192.25"/>
<polygon fill="#63b8ff" stroke="#63b8ff" points="219.51,-195.63 227.68,-188.89 217.09,-189.06 219.51,-195.63"/>
</a>
</g>
</g>
<!-- Node3 -->
<g id="Node000003" class="node">
<title>Node3</title>
<g id="a_Node000003"><a xlink:title=" ">
<polygon fill="#e0e0e0" stroke="#999999" points="168.62,-20 120.38,-20 120.38,0 168.62,0 168.62,-20"/>
<text text-anchor="middle" x="144.5" y="-6.5" font-family="Helvetica,sans-Serif" font-size="10.00">stdint.h</text>
</a>
</g>
</g>
<!-- Node2&#45;&gt;Node3 -->
<g id="edge2_Node000002_Node000003" class="edge">
<title>Node2&#45;&gt;Node3</title>
<g id="a_edge2_Node000002_Node000003"><a xlink:title=" ">
<path fill="none" stroke="#63b8ff" d="M75.13,-55.59C87.58,-47.59 105.72,-35.93 120.32,-26.54"/>
<polygon fill="#63b8ff" stroke="#63b8ff" points="121.96,-29.65 128.48,-21.3 118.18,-23.76 121.96,-29.65"/>
</a>
</g>
</g>
<!-- Node4 -->
<g id="Node000004" class="node">
<title>Node4</title>
<g id="a_Node000004"><a xlink:title=" ">
<polygon fill="#e0e0e0" stroke="#999999" points="284.5,-20 244.5,-20 244.5,0 284.5,0 284.5,-20"/>
<text text-anchor="middle" x="264.5" y="-6.5" font-family="Helvetica,sans-Serif" font-size="10.00">string</text>
</a>
</g>
</g>
<!-- Node2&#45;&gt;Node4 -->
<g id="edge3_Node000002_Node000004" class="edge">
<title>Node2&#45;&gt;Node4</title>
<g id="a_edge3_Node000002_Node000004"><a xlink:title=" ">
<path fill="none" stroke="#63b8ff" d="M85.92,-58.27C123.25,-48.39 192.83,-29.97 233.23,-19.28"/>
<polygon fill="#63b8ff" stroke="#63b8ff" points="234.05,-22.68 242.82,-16.74 232.26,-15.91 234.05,-22.68"/>
</a>
</g>
</g>
<!-- Node5 -->
<g id="Node000005" class="node">
<title>Node5</title>
<g id="a_Node000005"><a xlink:title=" ">
<polygon fill="#e0e0e0" stroke="#999999" points="374,-20 331,-20 331,0 374,0 374,-20"/>
<text text-anchor="middle" x="352.5" y="-6.5" font-family="Helvetica,sans-Serif" font-size="10.00">vector</text>
</a>
</g>
</g>
<!-- Node2&#45;&gt;Node5 -->
<g id="edge4_Node000002_Node000005" class="edge">
<title>Node2&#45;&gt;Node5</title>
<g id="a_edge4_Node000002_Node000005"><a xlink:title=" ">
<path fill="none" stroke="#63b8ff" d="M86.16,-60.26C139.15,-50.46 260.63,-27.99 319.42,-17.12"/>
<polygon fill="#63b8ff" stroke="#63b8ff" points="319.95,-20.58 329.15,-15.32 318.68,-13.7 319.95,-20.58"/>
</a>
</g>
</g>
<!-- Node6&#45;&gt;Node3 -->
<g id="edge7_Node000006_Node000003" class="edge">
<title>Node6&#45;&gt;Node3</title>
<g id="a_edge7_Node000006_Node000003"><a xlink:title=" ">
<path fill="none" stroke="#63b8ff" d="M224.66,-173.66C174.24,-167.51 75.02,-153.07 47.5,-132 25.25,-114.96 25.13,-103.23 18.5,-76 16.4,-67.36 13.38,-63.27 18.5,-56 38.76,-27.25 79.13,-16.77 108.73,-13"/>
<polygon fill="#63b8ff" stroke="#63b8ff" points="108.8,-16.51 118.37,-11.99 108.06,-9.55 108.8,-16.51"/>
</a>
</g>
</g>
<!-- Node6&#45;&gt;Node4 -->
<g id="edge8_Node000006_Node000004" class="edge">
<title>Node6&#45;&gt;Node4</title>
<g id="a_edge8_Node000006_Node000004"><a xlink:title=" ">
<path fill="none" stroke="#63b8ff" d="M224.89,-169.62C205.72,-163.13 182.23,-151.59 170.5,-132 165.93,-124.37 167.89,-120.5 170.5,-112 181.88,-74.97 216.39,-44.42 240.27,-26.94"/>
<polygon fill="#63b8ff" stroke="#63b8ff" points="242.05,-29.97 248.21,-21.35 238.02,-24.24 242.05,-29.97"/>
</a>
</g>
</g>
<!-- Node6&#45;&gt;Node5 -->
<g id="edge6_Node000006_Node000005" class="edge">
<title>Node6&#45;&gt;Node5</title>
<g id="a_edge6_Node000006_Node000005"><a xlink:title=" ">
<path fill="none" stroke="#63b8ff" d="M284.29,-177.65C357.65,-178.54 543.87,-176.29 582.5,-132 603.62,-107.79 573.44,-72.46 551.5,-56 502.27,-19.06 428.19,-11.53 385.68,-10.51"/>
<polygon fill="#63b8ff" stroke="#63b8ff" points="385.87,-7.01 375.83,-10.39 385.79,-14.01 385.87,-7.01"/>
</a>
</g>
</g>
<!-- Node7 -->
<g id="Node000007" class="node">
<title>Node7</title>
<g id="a_Node000007"><a xlink:title=" ">
<polygon fill="#e0e0e0" stroke="#999999" points="525.88,-76 443.12,-76 443.12,-56 525.88,-56 525.88,-76"/>
<text text-anchor="middle" x="484.5" y="-62.5" font-family="Helvetica,sans-Serif" font-size="10.00">unordered_map</text>
</a>
</g>
</g>
<!-- Node6&#45;&gt;Node7 -->
<g id="edge9_Node000006_Node000007" class="edge">
<title>Node6&#45;&gt;Node7</title>
<g id="a_edge9_Node000006_Node000007"><a xlink:title=" ">
<path fill="none" stroke="#63b8ff" d="M284.1,-175.01C320.96,-171.34 384.65,-161 430.5,-132 448.86,-120.39 464.04,-100.47 473.59,-85.73"/>
<polygon fill="#63b8ff" stroke="#63b8ff" points="476.45,-87.75 478.71,-77.4 470.49,-84.08 476.45,-87.75"/>
</a>
</g>
</g>
<!-- Node8 -->
<g id="Node000008" class="node">
<title>Node8</title>
<g id="a_Node000008"><a xlink:href="_command_8h.html" target="_top" xlink:title=" ">
<polygon fill="white" stroke="#666666" points="387.12,-76 317.88,-76 317.88,-56 387.12,-56 387.12,-76"/>
<text text-anchor="middle" x="352.5" y="-62.5" font-family="Helvetica,sans-Serif" font-size="10.00">Command.h</text>
</a>
</g>
</g>
<!-- Node6&#45;&gt;Node8 -->
<g id="edge10_Node000006_Node000008" class="edge">
<title>Node6&#45;&gt;Node8</title>
<g id="a_edge10_Node000006_Node000008"><a xlink:title=" ">
<path fill="none" stroke="#63b8ff" d="M262.16,-167.59C272.63,-154.81 292.1,-131.34 309.5,-112 317.78,-102.8 327.26,-92.82 335.21,-84.6"/>
<polygon fill="#63b8ff" stroke="#63b8ff" points="337.57,-87.19 342.05,-77.58 332.56,-82.3 337.57,-87.19"/>
</a>
</g>
</g>
<!-- Node9 -->
<g id="Node000009" class="node">
<title>Node9</title>
<g id="a_Node000009"><a xlink:href="_command_handler_8h.html" target="_top" xlink:title=" ">
<polygon fill="white" stroke="#666666" points="421,-132 318,-132 318,-112 421,-112 421,-132"/>
<text text-anchor="middle" x="369.5" y="-118.5" font-family="Helvetica,sans-Serif" font-size="10.00">CommandHandler.h</text>
</a>
</g>
</g>
<!-- Node6&#45;&gt;Node9 -->
<g id="edge14_Node000006_Node000009" class="edge">
<title>Node6&#45;&gt;Node9</title>
<g id="a_edge14_Node000006_Node000009"><a xlink:title=" ">
<path fill="none" stroke="#63b8ff" d="M274.53,-167.59C292.31,-159.24 318.57,-146.92 338.96,-137.34"/>
<polygon fill="#63b8ff" stroke="#63b8ff" points="340.38,-140.54 347.94,-133.12 337.4,-134.21 340.38,-140.54"/>
</a>
</g>
</g>
<!-- Node10 -->
<g id="Node000010" class="node">
<title>Node10</title>
<g id="a_Node000010"><a xlink:href="_print_callback_8h.html" target="_top" xlink:title=" ">
<polygon fill="white" stroke="#666666" points="261.88,-132 179.12,-132 179.12,-112 261.88,-112 261.88,-132"/>
<text text-anchor="middle" x="220.5" y="-118.5" font-family="Helvetica,sans-Serif" font-size="10.00">PrintCallback.h</text>
</a>
</g>
</g>
<!-- Node6&#45;&gt;Node10 -->
<g id="edge18_Node000006_Node000010" class="edge">
<title>Node6&#45;&gt;Node10</title>
<g id="a_edge18_Node000006_Node000010"><a xlink:title=" ">
<path fill="none" stroke="#63b8ff" d="M248.58,-167.59C244.14,-160.55 237.92,-150.67 232.46,-142"/>
<polygon fill="#63b8ff" stroke="#63b8ff" points="235.45,-140.18 227.16,-133.58 229.53,-143.91 235.45,-140.18"/>
</a>
</g>
</g>
<!-- Node13 -->
<g id="Node000013" class="node">
<title>Node13</title>
<g id="a_Node000013"><a xlink:href="_program_variable_8h.html" target="_top" xlink:title=" ">
<polygon fill="white" stroke="#666666" points="573.25,-132 477.75,-132 477.75,-112 573.25,-112 573.25,-132"/>
<text text-anchor="middle" x="525.5" y="-118.5" font-family="Helvetica,sans-Serif" font-size="10.00">ProgramVariable.h</text>
</a>
</g>
</g>
<!-- Node6&#45;&gt;Node13 -->
<g id="edge25_Node000006_Node000013" class="edge">
<title>Node6&#45;&gt;Node13</title>
<g id="a_edge25_Node000006_Node000013"><a xlink:title=" ">
<path fill="none" stroke="#63b8ff" d="M284.28,-171.07C328.01,-162.35 410.51,-145.91 466.73,-134.71"/>
<polygon fill="#63b8ff" stroke="#63b8ff" points="467.34,-138.16 476.46,-132.77 465.97,-131.29 467.34,-138.16"/>
</a>
</g>
</g>
<!-- Node14 -->
<g id="Node000014" class="node">
<title>Node14</title>
<g id="a_Node000014"><a xlink:href="_lexer_8h.html" target="_top" xlink:title=" ">
<polygon fill="white" stroke="#666666" points="104.62,-132 56.38,-132 56.38,-112 104.62,-112 104.62,-132"/>
<text text-anchor="middle" x="80.5" y="-118.5" font-family="Helvetica,sans-Serif" font-size="10.00">Lexer.h</text>
</a>
</g>
</g>
<!-- Node6&#45;&gt;Node14 -->
<g id="edge29_Node000006_Node000014" class="edge">
<title>Node6&#45;&gt;Node14</title>
<g id="a_edge29_Node000006_Node000014"><a xlink:title=" ">
<path fill="none" stroke="#63b8ff" d="M224.98,-167.84C194.8,-158.47 147.91,-143.92 115.79,-133.95"/>
<polygon fill="#63b8ff" stroke="#63b8ff" points="117.12,-130.7 106.54,-131.08 115.05,-137.39 117.12,-130.7"/>
</a>
</g>
</g>
<!-- Node8&#45;&gt;Node3 -->
<g id="edge13_Node000008_Node000003" class="edge">
<title>Node8&#45;&gt;Node3</title>
<g id="a_edge13_Node000008_Node000003"><a xlink:title=" ">
<path fill="none" stroke="#63b8ff" d="M317.69,-55.96C279.37,-46.01 218.13,-30.12 179.67,-20.13"/>
<polygon fill="#63b8ff" stroke="#63b8ff" points="181.02,-16.86 170.46,-17.74 179.26,-23.64 181.02,-16.86"/>
</a>
</g>
</g>
<!-- Node8&#45;&gt;Node4 -->
<g id="edge12_Node000008_Node000004" class="edge">
<title>Node8&#45;&gt;Node4</title>
<g id="a_edge12_Node000008_Node000004"><a xlink:title=" ">
<path fill="none" stroke="#63b8ff" d="M337.17,-55.59C324,-47.51 304.77,-35.71 289.39,-26.27"/>
<polygon fill="#63b8ff" stroke="#63b8ff" points="291.59,-23.52 281.24,-21.27 287.93,-29.48 291.59,-23.52"/>
</a>
</g>
</g>
<!-- Node8&#45;&gt;Node5 -->
<g id="edge11_Node000008_Node000005" class="edge">
<title>Node8&#45;&gt;Node5</title>
<g id="a_edge11_Node000008_Node000005"><a xlink:title=" ">
<path fill="none" stroke="#63b8ff" d="M352.5,-55.59C352.5,-49.01 352.5,-39.96 352.5,-31.73"/>
<polygon fill="#63b8ff" stroke="#63b8ff" points="356,-31.81 352.5,-21.81 349,-31.81 356,-31.81"/>
</a>
</g>
</g>
<!-- Node9&#45;&gt;Node4 -->
<g id="edge16_Node000009_Node000004" class="edge">
<title>Node9&#45;&gt;Node4</title>
<g id="a_edge16_Node000009_Node000004"><a xlink:title=" ">
<path fill="none" stroke="#63b8ff" d="M379.02,-111.5C391.16,-98.2 409.16,-73.69 396.5,-56 384.63,-39.42 331.23,-25.17 296.09,-17.37"/>
<polygon fill="#63b8ff" stroke="#63b8ff" points="296.95,-13.98 286.44,-15.29 295.48,-20.82 296.95,-13.98"/>
</a>
</g>
</g>
<!-- Node9&#45;&gt;Node7 -->
<g id="edge15_Node000009_Node000007" class="edge">
<title>Node9&#45;&gt;Node7</title>
<g id="a_edge15_Node000009_Node000007"><a xlink:title=" ">
<path fill="none" stroke="#63b8ff" d="M389.53,-111.59C407.31,-103.24 433.57,-90.92 453.96,-81.34"/>
<polygon fill="#63b8ff" stroke="#63b8ff" points="455.38,-84.54 462.94,-77.12 452.4,-78.21 455.38,-84.54"/>
</a>
</g>
</g>
<!-- Node9&#45;&gt;Node8 -->
<g id="edge17_Node000009_Node000008" class="edge">
<title>Node9&#45;&gt;Node8</title>
<g id="a_edge17_Node000009_Node000008"><a xlink:title=" ">
<path fill="none" stroke="#63b8ff" d="M366.54,-111.59C364.42,-104.86 361.48,-95.53 358.84,-87.15"/>
<polygon fill="#63b8ff" stroke="#63b8ff" points="362.22,-86.23 355.88,-77.74 355.55,-88.33 362.22,-86.23"/>
</a>
</g>
</g>
<!-- Node10&#45;&gt;Node3 -->
<g id="edge19_Node000010_Node000003" class="edge">
<title>Node10&#45;&gt;Node3</title>
<g id="a_edge19_Node000010_Node000003"><a xlink:title=" ">
<path fill="none" stroke="#63b8ff" d="M214.02,-111.62C201.51,-93.52 173.83,-53.45 157.42,-29.7"/>
<polygon fill="#63b8ff" stroke="#63b8ff" points="160.39,-27.84 151.82,-21.6 154.63,-31.82 160.39,-27.84"/>
</a>
</g>
</g>
<!-- Node10&#45;&gt;Node4 -->
<g id="edge20_Node000010_Node000004" class="edge">
<title>Node10&#45;&gt;Node4</title>
<g id="a_edge20_Node000010_Node000004"><a xlink:title=" ">
<path fill="none" stroke="#63b8ff" d="M236.91,-111.52C248.69,-103.68 263.66,-91.36 270.5,-76 276.78,-61.89 274.68,-44.38 271.33,-31.09"/>
<polygon fill="#63b8ff" stroke="#63b8ff" points="274.76,-30.33 268.55,-21.74 268.05,-32.33 274.76,-30.33"/>
</a>
</g>
</g>
<!-- Node11 -->
<g id="Node000011" class="node">
<title>Node11</title>
<g id="a_Node000011"><a xlink:href="_utils_8h.html" target="_top" xlink:title=" ">
<polygon fill="white" stroke="#666666" points="261.75,-76 217.25,-76 217.25,-56 261.75,-56 261.75,-76"/>
<text text-anchor="middle" x="239.5" y="-62.5" font-family="Helvetica,sans-Serif" font-size="10.00">Utils.h</text>
</a>
</g>
</g>
<!-- Node10&#45;&gt;Node11 -->
<g id="edge21_Node000010_Node000011" class="edge">
<title>Node10&#45;&gt;Node11</title>
<g id="a_edge21_Node000010_Node000011"><a xlink:title=" ">
<path fill="none" stroke="#63b8ff" d="M223.81,-111.59C226.18,-104.86 229.46,-95.53 232.41,-87.15"/>
<polygon fill="#63b8ff" stroke="#63b8ff" points="235.71,-88.32 235.73,-77.73 229.11,-86 235.71,-88.32"/>
</a>
</g>
</g>
<!-- Node11&#45;&gt;Node3 -->
<g id="edge22_Node000011_Node000003" class="edge">
<title>Node11&#45;&gt;Node3</title>
<g id="a_edge22_Node000011_Node000003"><a xlink:title=" ">
<path fill="none" stroke="#63b8ff" d="M222.95,-55.59C208.6,-47.44 187.57,-35.48 170.9,-26"/>
<polygon fill="#63b8ff" stroke="#63b8ff" points="172.92,-23.13 162.49,-21.23 169.46,-29.21 172.92,-23.13"/>
</a>
</g>
</g>
<!-- Node11&#45;&gt;Node4 -->
<g id="edge23_Node000011_Node000004" class="edge">
<title>Node11&#45;&gt;Node4</title>
<g id="a_edge23_Node000011_Node000004"><a xlink:title=" ">
<path fill="none" stroke="#63b8ff" d="M243.85,-55.59C247.05,-48.7 251.49,-39.1 255.44,-30.57"/>
<polygon fill="#63b8ff" stroke="#63b8ff" points="258.53,-32.22 259.56,-21.67 252.18,-29.28 258.53,-32.22"/>
</a>
</g>
</g>
<!-- Node12 -->
<g id="Node000012" class="node">
<title>Node12</title>
<g id="a_Node000012"><a xlink:title=" ">
<polygon fill="#e0e0e0" stroke="#999999" points="554.12,-20 502.88,-20 502.88,0 554.12,0 554.12,-20"/>
<text text-anchor="middle" x="528.5" y="-6.5" font-family="Helvetica,sans-Serif" font-size="10.00">sstream</text>
</a>
</g>
</g>
<!-- Node11&#45;&gt;Node12 -->
<g id="edge24_Node000011_Node000012" class="edge">
<title>Node11&#45;&gt;Node12</title>
<g id="a_edge24_Node000011_Node000012"><a xlink:title=" ">
<path fill="none" stroke="#63b8ff" d="M262.18,-60.76C311.93,-51.47 431.05,-29.21 491.69,-17.88"/>
<polygon fill="#63b8ff" stroke="#63b8ff" points="491.97,-21.39 501.16,-16.11 490.69,-14.51 491.97,-21.39"/>
</a>
</g>
</g>
<!-- Node13&#45;&gt;Node4 -->
<g id="edge26_Node000013_Node000004" class="edge">
<title>Node13&#45;&gt;Node4</title>
<g id="a_edge26_Node000013_Node000004"><a xlink:title=" ">
<path fill="none" stroke="#63b8ff" d="M530.68,-111.81C537.7,-98 547.9,-71.82 534.5,-56 532.57,-53.72 366.65,-27.19 295.89,-15.96"/>
<polygon fill="#63b8ff" stroke="#63b8ff" points="296.54,-12.52 286.12,-14.41 295.44,-19.44 296.54,-12.52"/>
</a>
</g>
</g>
<!-- Node13&#45;&gt;Node7 -->
<g id="edge28_Node000013_Node000007" class="edge">
<title>Node13&#45;&gt;Node7</title>
<g id="a_edge28_Node000013_Node000007"><a xlink:title=" ">
<path fill="none" stroke="#63b8ff" d="M518.36,-111.59C512.89,-104.39 505.18,-94.23 498.49,-85.43"/>
<polygon fill="#63b8ff" stroke="#63b8ff" points="501.31,-83.35 492.48,-77.5 495.73,-87.58 501.31,-83.35"/>
</a>
</g>
</g>
<!-- Node13&#45;&gt;Node12 -->
<g id="edge27_Node000013_Node000012" class="edge">
<title>Node13&#45;&gt;Node12</title>
<g id="a_edge27_Node000013_Node000012"><a xlink:title=" ">
<path fill="none" stroke="#63b8ff" d="M538.52,-111.59C548.57,-103.46 561.7,-90.71 567.5,-76 574.39,-58.52 561.47,-40.33 548.69,-27.65"/>
<polygon fill="#63b8ff" stroke="#63b8ff" points="551.38,-25.37 541.64,-21.2 546.66,-30.53 551.38,-25.37"/>
</a>
</g>
</g>
<!-- Node14&#45;&gt;Node2 -->
<g id="edge32_Node000014_Node000002" class="edge">
<title>Node14&#45;&gt;Node2</title>
<g id="a_edge32_Node000014_Node000002"><a xlink:title=" ">
<path fill="none" stroke="#63b8ff" d="M77.02,-111.59C74.49,-104.78 70.99,-95.32 67.86,-86.86"/>
<polygon fill="#63b8ff" stroke="#63b8ff" points="71.22,-85.88 64.47,-77.72 64.66,-88.31 71.22,-85.88"/>
</a>
</g>
</g>
<!-- Node14&#45;&gt;Node3 -->
<g id="edge30_Node000014_Node000003" class="edge">
<title>Node14&#45;&gt;Node3</title>
<g id="a_edge30_Node000014_Node000003"><a xlink:title=" ">
<path fill="none" stroke="#63b8ff" d="M62.61,-111.52C41.82,-99.24 12.1,-76.9 26.5,-56 44.89,-29.3 81.41,-18.43 108.97,-14.01"/>
<polygon fill="#63b8ff" stroke="#63b8ff" points="109.23,-17.51 118.66,-12.69 108.28,-10.58 109.23,-17.51"/>
</a>
</g>
</g>
<!-- Node14&#45;&gt;Node4 -->
<g id="edge31_Node000014_Node000004" class="edge">
<title>Node14&#45;&gt;Node4</title>
<g id="a_edge31_Node000014_Node000004"><a xlink:title=" ">
<path fill="none" stroke="#63b8ff" d="M86.37,-111.69C95.62,-97.71 114.89,-71.33 137.5,-56 166.85,-36.11 205.96,-24 232.99,-17.42"/>
<polygon fill="#63b8ff" stroke="#63b8ff" points="233.69,-20.86 242.65,-15.2 232.12,-14.03 233.69,-20.86"/>
</a>
</g>
</g>
</g>
</svg>
