<?xml version="1.0" encoding="UTF-8" standalone="no"?>
<!DOCTYPE svg PUBLIC "-//W3C//DTD SVG 1.1//EN"
 "http://www.w3.org/Graphics/SVG/1.1/DTD/svg11.dtd">
<!-- Generated by graphviz version 12.2.1 (20241206.2353)
 -->
<!-- Title: C:/Users/emilly/Documents/Lucca/Projetos/Cpp/NikiScript/src/Token.h Pages: 1 -->
<svg width="1259pt" height="372pt"
 viewBox="0.00 0.00 1259.26 372.00" xmlns="http://www.w3.org/2000/svg" xmlns:xlink="http://www.w3.org/1999/xlink">
<g id="graph0" class="graph" transform="scale(1 1) rotate(0) translate(4 368)">
<title>C:/Users/emilly/Documents/Lucca/Projetos/Cpp/NikiScript/src/Token.h</title>
<!-- Node1 -->
<g id="Node000001" class="node">
<title>Node1</title>
<g id="a_Node000001"><a xlink:title=" ">
<polygon fill="#999999" stroke="#666666" points="367.97,-364 216.97,-364 216.97,-320 367.97,-320 367.97,-364"/>
<text text-anchor="start" x="224.97" y="-350.5" font-family="Helvetica,sans-Serif" font-size="10.00">C:/Users/emilly/Documents</text>
<text text-anchor="start" x="224.97" y="-338.5" font-family="Helvetica,sans-Serif" font-size="10.00">/Lucca/Projetos/Cpp/NikiScript</text>
<text text-anchor="middle" x="292.47" y="-326.5" font-family="Helvetica,sans-Serif" font-size="10.00">/src/Token.h</text>
</a>
</g>
</g>
<!-- Node2 -->
<g id="Node000002" class="node">
<title>Node2</title>
<g id="a_Node000002"><a xlink:href="example_8cpp.html" target="_top" xlink:title=" ">
<polygon fill="white" stroke="#666666" points="282.97,-44 131.97,-44 131.97,0 282.97,0 282.97,-44"/>
<text text-anchor="start" x="139.97" y="-30.5" font-family="Helvetica,sans-Serif" font-size="10.00">C:/Users/emilly/Documents</text>
<text text-anchor="start" x="139.97" y="-18.5" font-family="Helvetica,sans-Serif" font-size="10.00">/Lucca/Projetos/Cpp/NikiScript</text>
<text text-anchor="middle" x="207.47" y="-6.5" font-family="Helvetica,sans-Serif" font-size="10.00">/example/src/example.cpp</text>
</a>
</g>
</g>
<!-- Node1&#45;&gt;Node2 -->
<g id="edge1_Node000001_Node000002" class="edge">
<title>Node1&#45;&gt;Node2</title>
<g id="a_edge1_Node000001_Node000002"><a xlink:title=" ">
<path fill="none" stroke="#63b8ff" d="M219.44,-315.29C165.04,-293.01 92.05,-256.1 43.47,-204 16.76,-175.35 14.89,-162.26 6.47,-124 2.27,-104.9 -5.32,-95.6 6.47,-80 21.89,-59.6 81.3,-44.38 131.56,-34.82"/>
<polygon fill="#63b8ff" stroke="#63b8ff" points="218.08,-318.51 228.66,-318.99 220.68,-312.01 218.08,-318.51"/>
</a>
</g>
</g>
<!-- Node3 -->
<g id="Node000003" class="node">
<title>Node3</title>
<g id="a_Node000003"><a xlink:href="_lexer_8h.html" target="_top" xlink:title=" ">
<polygon fill="white" stroke="#666666" points="367.97,-284 216.97,-284 216.97,-240 367.97,-240 367.97,-284"/>
<text text-anchor="start" x="224.97" y="-270.5" font-family="Helvetica,sans-Serif" font-size="10.00">C:/Users/emilly/Documents</text>
<text text-anchor="start" x="224.97" y="-258.5" font-family="Helvetica,sans-Serif" font-size="10.00">/Lucca/Projetos/Cpp/NikiScript</text>
<text text-anchor="middle" x="292.47" y="-246.5" font-family="Helvetica,sans-Serif" font-size="10.00">/src/Lexer.h</text>
</a>
</g>
</g>
<!-- Node1&#45;&gt;Node3 -->
<g id="edge2_Node000001_Node000003" class="edge">
<title>Node1&#45;&gt;Node3</title>
<g id="a_edge2_Node000001_Node000003"><a xlink:title=" ">
<path fill="none" stroke="#63b8ff" d="M292.47,-308.25C292.47,-300.15 292.47,-291.68 292.47,-284.29"/>
<polygon fill="#63b8ff" stroke="#63b8ff" points="288.97,-308.17 292.47,-318.17 295.97,-308.17 288.97,-308.17"/>
</a>
</g>
</g>
<!-- Node13 -->
<g id="Node000013" class="node">
<title>Node13</title>
<g id="a_Node000013"><a xlink:href="_token_8cpp.html" target="_top" xlink:title=" ">
<polygon fill="white" stroke="#666666" points="1231.97,-124 1080.97,-124 1080.97,-80 1231.97,-80 1231.97,-124"/>
<text text-anchor="start" x="1088.97" y="-110.5" font-family="Helvetica,sans-Serif" font-size="10.00">C:/Users/emilly/Documents</text>
<text text-anchor="start" x="1088.97" y="-98.5" font-family="Helvetica,sans-Serif" font-size="10.00">/Lucca/Projetos/Cpp/NikiScript</text>
<text text-anchor="middle" x="1156.47" y="-86.5" font-family="Helvetica,sans-Serif" font-size="10.00">/src/Token.cpp</text>
</a>
</g>
</g>
<!-- Node1&#45;&gt;Node13 -->
<g id="edge20_Node000001_Node000013" class="edge">
<title>Node1&#45;&gt;Node13</title>
<g id="a_edge20_Node000001_Node000013"><a xlink:title=" ">
<path fill="none" stroke="#63b8ff" d="M379.25,-317.1C548.61,-270.44 920.61,-167.97 1080.73,-123.86"/>
<polygon fill="#63b8ff" stroke="#63b8ff" points="378.56,-313.66 369.85,-319.69 380.42,-320.4 378.56,-313.66"/>
</a>
</g>
</g>
<!-- Node3&#45;&gt;Node2 -->
<g id="edge3_Node000003_Node000002" class="edge">
<title>Node3&#45;&gt;Node2</title>
<g id="a_edge3_Node000003_Node000002"><a xlink:title=" ">
<path fill="none" stroke="#63b8ff" d="M205.59,-243.4C141.41,-225.32 58.51,-190.12 18.47,-124 8.34,-107.27 6.81,-95.7 18.47,-80 32.42,-61.22 85.23,-46.27 131.49,-36.39"/>
<polygon fill="#63b8ff" stroke="#63b8ff" points="204.5,-246.73 215.07,-245.97 206.33,-239.97 204.5,-246.73"/>
</a>
</g>
</g>
<!-- Node4 -->
<g id="Node000004" class="node">
<title>Node4</title>
<g id="a_Node000004"><a xlink:href="_context_8h.html" target="_top" xlink:title=" ">
<polygon fill="white" stroke="#666666" points="555.97,-204 404.97,-204 404.97,-160 555.97,-160 555.97,-204"/>
<text text-anchor="start" x="412.97" y="-190.5" font-family="Helvetica,sans-Serif" font-size="10.00">C:/Users/emilly/Documents</text>
<text text-anchor="start" x="412.97" y="-178.5" font-family="Helvetica,sans-Serif" font-size="10.00">/Lucca/Projetos/Cpp/NikiScript</text>
<text text-anchor="middle" x="480.47" y="-166.5" font-family="Helvetica,sans-Serif" font-size="10.00">/src/Context.h</text>
</a>
</g>
</g>
<!-- Node3&#45;&gt;Node4 -->
<g id="edge4_Node000003_Node000004" class="edge">
<title>Node3&#45;&gt;Node4</title>
<g id="a_edge4_Node000003_Node000004"><a xlink:title=" ">
<path fill="none" stroke="#63b8ff" d="M354.32,-235.34C378.45,-225.33 405.79,-213.99 428.84,-204.42"/>
<polygon fill="#63b8ff" stroke="#63b8ff" points="353.14,-232.04 345.24,-239.11 355.82,-238.51 353.14,-232.04"/>
</a>
</g>
</g>
<!-- Node7 -->
<g id="Node000007" class="node">
<title>Node7</title>
<g id="a_Node000007"><a xlink:href="_lexer_8cpp.html" target="_top" xlink:title=" ">
<polygon fill="white" stroke="#666666" points="178.97,-124 27.97,-124 27.97,-80 178.97,-80 178.97,-124"/>
<text text-anchor="start" x="35.97" y="-110.5" font-family="Helvetica,sans-Serif" font-size="10.00">C:/Users/emilly/Documents</text>
<text text-anchor="start" x="35.97" y="-98.5" font-family="Helvetica,sans-Serif" font-size="10.00">/Lucca/Projetos/Cpp/NikiScript</text>
<text text-anchor="middle" x="103.47" y="-86.5" font-family="Helvetica,sans-Serif" font-size="10.00">/src/Lexer.cpp</text>
</a>
</g>
</g>
<!-- Node3&#45;&gt;Node7 -->
<g id="edge18_Node000003_Node000007" class="edge">
<title>Node3&#45;&gt;Node7</title>
<g id="a_edge18_Node000003_Node000007"><a xlink:title=" ">
<path fill="none" stroke="#63b8ff" d="M258.49,-232.59C221.34,-201.53 162.66,-152.48 129.16,-124.48"/>
<polygon fill="#63b8ff" stroke="#63b8ff" points="255.9,-234.99 265.82,-238.72 260.39,-229.62 255.9,-234.99"/>
</a>
</g>
</g>
<!-- Node9 -->
<g id="Node000009" class="node">
<title>Node9</title>
<g id="a_Node000009"><a xlink:href="_niki_script_8cpp.html" target="_top" xlink:title=" ">
<polygon fill="white" stroke="#666666" points="808.97,-44 657.97,-44 657.97,0 808.97,0 808.97,-44"/>
<text text-anchor="start" x="665.97" y="-30.5" font-family="Helvetica,sans-Serif" font-size="10.00">C:/Users/emilly/Documents</text>
<text text-anchor="start" x="665.97" y="-18.5" font-family="Helvetica,sans-Serif" font-size="10.00">/Lucca/Projetos/Cpp/NikiScript</text>
<text text-anchor="middle" x="733.47" y="-6.5" font-family="Helvetica,sans-Serif" font-size="10.00">/src/NikiScript.cpp</text>
</a>
</g>
</g>
<!-- Node3&#45;&gt;Node9 -->
<g id="edge19_Node000003_Node000009" class="edge">
<title>Node3&#45;&gt;Node9</title>
<g id="a_edge19_Node000003_Node000009"><a xlink:title=" ">
<path fill="none" stroke="#63b8ff" d="M379.57,-254.85C603.43,-238.16 1185.27,-188.9 1241.47,-124 1254.27,-109.22 1254.7,-94.4 1241.47,-80 1209.49,-45.18 864.11,-51.76 817.47,-44 814.8,-43.56 812.09,-43.07 809.36,-42.55"/>
<polygon fill="#63b8ff" stroke="#63b8ff" points="379.45,-251.35 369.73,-255.58 379.97,-258.33 379.45,-251.35"/>
</a>
</g>
</g>
<!-- Node4&#45;&gt;Node2 -->
<g id="edge5_Node000004_Node000002" class="edge">
<title>Node4&#45;&gt;Node2</title>
<g id="a_edge5_Node000004_Node000002"><a xlink:title=" ">
<path fill="none" stroke="#63b8ff" d="M393.38,-171.7C329.28,-163.03 249.46,-147.81 226.47,-124 206.02,-102.82 204.04,-66.99 205.22,-44.19"/>
<polygon fill="#63b8ff" stroke="#63b8ff" points="392.87,-175.16 403.24,-172.99 393.78,-168.22 392.87,-175.16"/>
</a>
</g>
</g>
<!-- Node5 -->
<g id="Node000005" class="node">
<title>Node5</title>
<g id="a_Node000005"><a xlink:href="_command_handler_8cpp.html" target="_top" xlink:title=" ">
<polygon fill="white" stroke="#666666" points="386.97,-124 235.97,-124 235.97,-80 386.97,-80 386.97,-124"/>
<text text-anchor="start" x="243.97" y="-110.5" font-family="Helvetica,sans-Serif" font-size="10.00">C:/Users/emilly/Documents</text>
<text text-anchor="start" x="243.97" y="-98.5" font-family="Helvetica,sans-Serif" font-size="10.00">/Lucca/Projetos/Cpp/NikiScript</text>
<text text-anchor="middle" x="311.47" y="-86.5" font-family="Helvetica,sans-Serif" font-size="10.00">/src/CommandHandler.cpp</text>
</a>
</g>
</g>
<!-- Node4&#45;&gt;Node5 -->
<g id="edge6_Node000004_Node000005" class="edge">
<title>Node4&#45;&gt;Node5</title>
<g id="a_edge6_Node000004_Node000005"><a xlink:title=" ">
<path fill="none" stroke="#63b8ff" d="M424,-154.93C402.52,-145.02 378.33,-133.86 357.89,-124.42"/>
<polygon fill="#63b8ff" stroke="#63b8ff" points="422.37,-158.04 432.92,-159.05 425.31,-151.68 422.37,-158.04"/>
</a>
</g>
</g>
<!-- Node6 -->
<g id="Node000006" class="node">
<title>Node6</title>
<g id="a_Node000006"><a xlink:href="_context_8cpp.html" target="_top" xlink:title=" ">
<polygon fill="white" stroke="#666666" points="555.97,-124 404.97,-124 404.97,-80 555.97,-80 555.97,-124"/>
<text text-anchor="start" x="412.97" y="-110.5" font-family="Helvetica,sans-Serif" font-size="10.00">C:/Users/emilly/Documents</text>
<text text-anchor="start" x="412.97" y="-98.5" font-family="Helvetica,sans-Serif" font-size="10.00">/Lucca/Projetos/Cpp/NikiScript</text>
<text text-anchor="middle" x="480.47" y="-86.5" font-family="Helvetica,sans-Serif" font-size="10.00">/src/Context.cpp</text>
</a>
</g>
</g>
<!-- Node4&#45;&gt;Node6 -->
<g id="edge7_Node000004_Node000006" class="edge">
<title>Node4&#45;&gt;Node6</title>
<g id="a_edge7_Node000004_Node000006"><a xlink:title=" ">
<path fill="none" stroke="#63b8ff" d="M480.47,-148.25C480.47,-140.15 480.47,-131.68 480.47,-124.29"/>
<polygon fill="#63b8ff" stroke="#63b8ff" points="476.97,-148.17 480.47,-158.17 483.97,-148.17 476.97,-148.17"/>
</a>
</g>
</g>
<!-- Node4&#45;&gt;Node7 -->
<g id="edge8_Node000004_Node000007" class="edge">
<title>Node4&#45;&gt;Node7</title>
<g id="a_edge8_Node000004_Node000007"><a xlink:title=" ">
<path fill="none" stroke="#63b8ff" d="M393.36,-164.48C336.39,-153.48 260.39,-138.45 193.47,-124 188.77,-122.98 183.93,-121.92 179.05,-120.83"/>
<polygon fill="#63b8ff" stroke="#63b8ff" points="392.53,-167.88 403.01,-166.34 393.85,-161.01 392.53,-167.88"/>
</a>
</g>
</g>
<!-- Node8 -->
<g id="Node000008" class="node">
<title>Node8</title>
<g id="a_Node000008"><a xlink:href="_niki_script_8h.html" target="_top" xlink:title=" ">
<polygon fill="white" stroke="#666666" points="724.97,-124 573.97,-124 573.97,-80 724.97,-80 724.97,-124"/>
<text text-anchor="start" x="581.97" y="-110.5" font-family="Helvetica,sans-Serif" font-size="10.00">C:/Users/emilly/Documents</text>
<text text-anchor="start" x="581.97" y="-98.5" font-family="Helvetica,sans-Serif" font-size="10.00">/Lucca/Projetos/Cpp/NikiScript</text>
<text text-anchor="middle" x="649.47" y="-86.5" font-family="Helvetica,sans-Serif" font-size="10.00">/src/NikiScript.h</text>
</a>
</g>
</g>
<!-- Node4&#45;&gt;Node8 -->
<g id="edge9_Node000004_Node000008" class="edge">
<title>Node4&#45;&gt;Node8</title>
<g id="a_edge9_Node000004_Node000008"><a xlink:title=" ">
<path fill="none" stroke="#63b8ff" d="M536.95,-154.93C558.42,-145.02 582.62,-133.86 603.05,-124.42"/>
<polygon fill="#63b8ff" stroke="#63b8ff" points="535.64,-151.68 528.03,-159.05 538.57,-158.04 535.64,-151.68"/>
</a>
</g>
</g>
<!-- Node10 -->
<g id="Node000010" class="node">
<title>Node10</title>
<g id="a_Node000010"><a xlink:href="_parser_8h.html" target="_top" xlink:title=" ">
<polygon fill="white" stroke="#666666" points="893.97,-124 742.97,-124 742.97,-80 893.97,-80 893.97,-124"/>
<text text-anchor="start" x="750.97" y="-110.5" font-family="Helvetica,sans-Serif" font-size="10.00">C:/Users/emilly/Documents</text>
<text text-anchor="start" x="750.97" y="-98.5" font-family="Helvetica,sans-Serif" font-size="10.00">/Lucca/Projetos/Cpp/NikiScript</text>
<text text-anchor="middle" x="818.47" y="-86.5" font-family="Helvetica,sans-Serif" font-size="10.00">/src/Parser.h</text>
</a>
</g>
</g>
<!-- Node4&#45;&gt;Node10 -->
<g id="edge12_Node000004_Node000010" class="edge">
<title>Node4&#45;&gt;Node10</title>
<g id="a_edge12_Node000004_Node000010"><a xlink:title=" ">
<path fill="none" stroke="#63b8ff" d="M567.56,-161.84C616.4,-150.99 678.39,-137.01 733.47,-124 736.43,-123.3 739.45,-122.58 742.49,-121.85"/>
<polygon fill="#63b8ff" stroke="#63b8ff" points="566.88,-158.41 557.88,-163.99 568.4,-165.24 566.88,-158.41"/>
</a>
</g>
</g>
<!-- Node12 -->
<g id="Node000012" class="node">
<title>Node12</title>
<g id="a_Node000012"><a xlink:href="_program_variable_8cpp.html" target="_top" xlink:title=" ">
<polygon fill="white" stroke="#666666" points="1062.97,-124 911.97,-124 911.97,-80 1062.97,-80 1062.97,-124"/>
<text text-anchor="start" x="919.97" y="-110.5" font-family="Helvetica,sans-Serif" font-size="10.00">C:/Users/emilly/Documents</text>
<text text-anchor="start" x="919.97" y="-98.5" font-family="Helvetica,sans-Serif" font-size="10.00">/Lucca/Projetos/Cpp/NikiScript</text>
<text text-anchor="middle" x="987.47" y="-86.5" font-family="Helvetica,sans-Serif" font-size="10.00">/src/ProgramVariable.cpp</text>
</a>
</g>
</g>
<!-- Node4&#45;&gt;Node12 -->
<g id="edge16_Node000004_Node000012" class="edge">
<title>Node4&#45;&gt;Node12</title>
<g id="a_edge16_Node000004_Node000012"><a xlink:title=" ">
<path fill="none" stroke="#63b8ff" d="M567.57,-172.02C653.21,-162.53 787.45,-145.91 902.47,-124 905.46,-123.43 908.5,-122.82 911.56,-122.19"/>
<polygon fill="#63b8ff" stroke="#63b8ff" points="567.4,-168.51 557.84,-173.08 568.17,-175.47 567.4,-168.51"/>
</a>
</g>
</g>
<!-- Node4&#45;&gt;Node13 -->
<g id="edge17_Node000004_Node000013" class="edge">
<title>Node4&#45;&gt;Node13</title>
<g id="a_edge17_Node000004_Node000013"><a xlink:title=" ">
<path fill="none" stroke="#63b8ff" d="M567.27,-176.61C682.95,-169.84 893.73,-154.36 1071.47,-124 1074.47,-123.49 1077.52,-122.93 1080.59,-122.33"/>
<polygon fill="#63b8ff" stroke="#63b8ff" points="567.33,-173.1 557.55,-177.17 567.74,-180.08 567.33,-173.1"/>
</a>
</g>
</g>
<!-- Node8&#45;&gt;Node2 -->
<g id="edge10_Node000008_Node000002" class="edge">
<title>Node8&#45;&gt;Node2</title>
<g id="a_edge10_Node000008_Node000002"><a xlink:title=" ">
<path fill="none" stroke="#63b8ff" d="M562.4,-79.66C460.22,-59.24 353.32,-43.09 283.37,-33.23"/>
<polygon fill="#63b8ff" stroke="#63b8ff" points="561.57,-83.06 572.06,-81.61 562.95,-76.2 561.57,-83.06"/>
</a>
</g>
</g>
<!-- Node8&#45;&gt;Node9 -->
<g id="edge11_Node000008_Node000009" class="edge">
<title>Node8&#45;&gt;Node9</title>
<g id="a_edge11_Node000008_Node000009"><a xlink:title=" ">
<path fill="none" stroke="#63b8ff" d="M680.82,-71.89C690.68,-62.74 701.38,-52.8 710.55,-44.29"/>
<polygon fill="#63b8ff" stroke="#63b8ff" points="678.48,-69.29 673.53,-78.66 683.24,-74.42 678.48,-69.29"/>
</a>
</g>
</g>
<!-- Node10&#45;&gt;Node2 -->
<g id="edge13_Node000010_Node000002" class="edge">
<title>Node10&#45;&gt;Node2</title>
<g id="a_edge13_Node000010_Node000002"><a xlink:title=" ">
<path fill="none" stroke="#63b8ff" d="M731.72,-79.81C566.44,-51.18 383.69,-35.34 283.27,-28"/>
<polygon fill="#63b8ff" stroke="#63b8ff" points="730.63,-83.17 741.09,-81.45 731.84,-76.28 730.63,-83.17"/>
</a>
</g>
</g>
<!-- Node10&#45;&gt;Node9 -->
<g id="edge14_Node000010_Node000009" class="edge">
<title>Node10&#45;&gt;Node9</title>
<g id="a_edge14_Node000010_Node000009"><a xlink:title=" ">
<path fill="none" stroke="#63b8ff" d="M787.06,-72.17C776.99,-62.94 766.04,-52.88 756.67,-44.29"/>
<polygon fill="#63b8ff" stroke="#63b8ff" points="784.4,-74.48 794.13,-78.66 789.13,-69.32 784.4,-74.48"/>
</a>
</g>
</g>
<!-- Node11 -->
<g id="Node000011" class="node">
<title>Node11</title>
<g id="a_Node000011"><a xlink:href="_parser_8cpp.html" target="_top" xlink:title=" ">
<polygon fill="white" stroke="#666666" points="977.97,-44 826.97,-44 826.97,0 977.97,0 977.97,-44"/>
<text text-anchor="start" x="834.97" y="-30.5" font-family="Helvetica,sans-Serif" font-size="10.00">C:/Users/emilly/Documents</text>
<text text-anchor="start" x="834.97" y="-18.5" font-family="Helvetica,sans-Serif" font-size="10.00">/Lucca/Projetos/Cpp/NikiScript</text>
<text text-anchor="middle" x="902.47" y="-6.5" font-family="Helvetica,sans-Serif" font-size="10.00">/src/Parser.cpp</text>
</a>
</g>
</g>
<!-- Node10&#45;&gt;Node11 -->
<g id="edge15_Node000010_Node000011" class="edge">
<title>Node10&#45;&gt;Node11</title>
<g id="a_edge15_Node000010_Node000011"><a xlink:title=" ">
<path fill="none" stroke="#63b8ff" d="M849.82,-71.89C859.68,-62.74 870.38,-52.8 879.55,-44.29"/>
<polygon fill="#63b8ff" stroke="#63b8ff" points="847.48,-69.29 842.53,-78.66 852.24,-74.42 847.48,-69.29"/>
</a>
</g>
</g>
</g>
</svg>
