<?xml version="1.0" encoding="UTF-8" standalone="no"?>
<!DOCTYPE svg PUBLIC "-//W3C//DTD SVG 1.1//EN"
 "http://www.w3.org/Graphics/SVG/1.1/DTD/svg11.dtd">
<!-- Generated by graphviz version 12.2.1 (20241206.2353)
 -->
<!-- Title: C:/Users/emilly/Documents/Lucca/Projetos/Cpp/NikiScript/src/Token.cpp Pages: 1 -->
<svg width="857pt" height="332pt"
 viewBox="0.00 0.00 857.17 332.00" xmlns="http://www.w3.org/2000/svg" xmlns:xlink="http://www.w3.org/1999/xlink">
<g id="graph0" class="graph" transform="scale(1 1) rotate(0) translate(4 328)">
<title>C:/Users/emilly/Documents/Lucca/Projetos/Cpp/NikiScript/src/Token.cpp</title>
<!-- Node1 -->
<g id="Node000001" class="node">
<title>Node1</title>
<g id="a_Node000001"><a xlink:title=" ">
<polygon fill="#999999" stroke="#666666" points="808.12,-324 657.12,-324 657.12,-280 808.12,-280 808.12,-324"/>
<text text-anchor="start" x="665.12" y="-310.5" font-family="Helvetica,sans-Serif" font-size="10.00">C:/Users/emilly/Documents</text>
<text text-anchor="start" x="665.12" y="-298.5" font-family="Helvetica,sans-Serif" font-size="10.00">/Lucca/Projetos/Cpp/NikiScript</text>
<text text-anchor="middle" x="732.62" y="-286.5" font-family="Helvetica,sans-Serif" font-size="10.00">/src/Token.cpp</text>
</a>
</g>
</g>
<!-- Node2 -->
<g id="Node000002" class="node">
<title>Node2</title>
<g id="a_Node000002"><a xlink:href="_token_8h.html" target="_top" xlink:title=" ">
<polygon fill="white" stroke="#666666" points="824.88,-76 774.38,-76 774.38,-56 824.88,-56 824.88,-76"/>
<text text-anchor="middle" x="799.62" y="-62.5" font-family="Helvetica,sans-Serif" font-size="10.00">Token.h</text>
</a>
</g>
</g>
<!-- Node1&#45;&gt;Node2 -->
<g id="edge1_Node000001_Node000002" class="edge">
<title>Node1&#45;&gt;Node2</title>
<g id="a_edge1_Node000001_Node000002"><a xlink:title=" ">
<path fill="none" stroke="#63b8ff" d="M788.32,-279.63C803.45,-270.96 818.01,-259.3 826.62,-244 855.54,-192.65 826.82,-120.29 809.98,-86.2"/>
<polygon fill="#63b8ff" stroke="#63b8ff" points="813.2,-84.82 805.51,-77.53 806.98,-88.02 813.2,-84.82"/>
</a>
</g>
</g>
<!-- Node7 -->
<g id="Node000007" class="node">
<title>Node7</title>
<g id="a_Node000007"><a xlink:href="_print_callback_8h.html" target="_top" xlink:title=" ">
<polygon fill="white" stroke="#666666" points="125,-132 42.25,-132 42.25,-112 125,-112 125,-132"/>
<text text-anchor="middle" x="83.62" y="-118.5" font-family="Helvetica,sans-Serif" font-size="10.00">PrintCallback.h</text>
</a>
</g>
</g>
<!-- Node1&#45;&gt;Node7 -->
<g id="edge6_Node000001_Node000007" class="edge">
<title>Node1&#45;&gt;Node7</title>
<g id="a_edge6_Node000001_Node000007"><a xlink:title=" ">
<path fill="none" stroke="#63b8ff" d="M656.91,-280.23C520.95,-242.94 239.37,-165.72 129.21,-135.5"/>
<polygon fill="#63b8ff" stroke="#63b8ff" points="130.21,-132.15 119.64,-132.88 128.35,-138.9 130.21,-132.15"/>
</a>
</g>
</g>
<!-- Node10 -->
<g id="Node000010" class="node">
<title>Node10</title>
<g id="a_Node000010"><a xlink:href="_context_8h.html" target="_top" xlink:title=" ">
<polygon fill="white" stroke="#666666" points="582,-188 523.25,-188 523.25,-168 582,-168 582,-188"/>
<text text-anchor="middle" x="552.62" y="-174.5" font-family="Helvetica,sans-Serif" font-size="10.00">Context.h</text>
</a>
</g>
</g>
<!-- Node1&#45;&gt;Node10 -->
<g id="edge15_Node000001_Node000010" class="edge">
<title>Node1&#45;&gt;Node10</title>
<g id="a_edge15_Node000001_Node000010"><a xlink:title=" ">
<path fill="none" stroke="#63b8ff" d="M701.27,-279.75C665.46,-255.48 607.71,-216.34 575.76,-194.68"/>
<polygon fill="#63b8ff" stroke="#63b8ff" points="577.84,-191.86 567.6,-189.15 573.92,-197.66 577.84,-191.86"/>
</a>
</g>
</g>
<!-- Node17 -->
<g id="Node000017" class="node">
<title>Node17</title>
<g id="a_Node000017"><a xlink:href="_parser_8h.html" target="_top" xlink:title=" ">
<polygon fill="white" stroke="#666666" points="818,-244 765.25,-244 765.25,-224 818,-224 818,-244"/>
<text text-anchor="middle" x="791.62" y="-230.5" font-family="Helvetica,sans-Serif" font-size="10.00">Parser.h</text>
</a>
</g>
</g>
<!-- Node1&#45;&gt;Node17 -->
<g id="edge43_Node000001_Node000017" class="edge">
<title>Node1&#45;&gt;Node17</title>
<g id="a_edge43_Node000001_Node000017"><a xlink:title=" ">
<path fill="none" stroke="#63b8ff" d="M751.62,-279.75C759.35,-271.1 768.19,-261.21 775.6,-252.93"/>
<polygon fill="#63b8ff" stroke="#63b8ff" points="778.14,-255.34 782.2,-245.55 772.92,-250.67 778.14,-255.34"/>
</a>
</g>
</g>
<!-- Node3 -->
<g id="Node000003" class="node">
<title>Node3</title>
<g id="a_Node000003"><a xlink:title=" ">
<polygon fill="#e0e0e0" stroke="#999999" points="127.75,-20 79.5,-20 79.5,0 127.75,0 127.75,-20"/>
<text text-anchor="middle" x="103.62" y="-6.5" font-family="Helvetica,sans-Serif" font-size="10.00">stdint.h</text>
</a>
</g>
</g>
<!-- Node2&#45;&gt;Node3 -->
<g id="edge2_Node000002_Node000003" class="edge">
<title>Node2&#45;&gt;Node3</title>
<g id="a_edge2_Node000002_Node000003"><a xlink:title=" ">
<path fill="none" stroke="#63b8ff" d="M774.03,-63.01C667.93,-54.78 262.54,-23.33 139.34,-13.77"/>
<polygon fill="#63b8ff" stroke="#63b8ff" points="139.75,-10.29 129.5,-13.01 139.2,-17.27 139.75,-10.29"/>
</a>
</g>
</g>
<!-- Node4 -->
<g id="Node000004" class="node">
<title>Node4</title>
<g id="a_Node000004"><a xlink:title=" ">
<polygon fill="#e0e0e0" stroke="#999999" points="368.62,-20 328.62,-20 328.62,0 368.62,0 368.62,-20"/>
<text text-anchor="middle" x="348.62" y="-6.5" font-family="Helvetica,sans-Serif" font-size="10.00">string</text>
</a>
</g>
</g>
<!-- Node2&#45;&gt;Node4 -->
<g id="edge3_Node000002_Node000004" class="edge">
<title>Node2&#45;&gt;Node4</title>
<g id="a_edge3_Node000002_Node000004"><a xlink:title=" ">
<path fill="none" stroke="#63b8ff" d="M774.09,-61.94C696.75,-52.68 465.22,-24.96 380.3,-14.79"/>
<polygon fill="#63b8ff" stroke="#63b8ff" points="380.95,-11.35 370.6,-13.63 380.11,-18.3 380.95,-11.35"/>
</a>
</g>
</g>
<!-- Node5 -->
<g id="Node000005" class="node">
<title>Node5</title>
<g id="a_Node000005"><a xlink:title=" ">
<polygon fill="#e0e0e0" stroke="#999999" points="821.12,-20 778.12,-20 778.12,0 821.12,0 821.12,-20"/>
<text text-anchor="middle" x="799.62" y="-6.5" font-family="Helvetica,sans-Serif" font-size="10.00">vector</text>
</a>
</g>
</g>
<!-- Node2&#45;&gt;Node5 -->
<g id="edge4_Node000002_Node000005" class="edge">
<title>Node2&#45;&gt;Node5</title>
<g id="a_edge4_Node000002_Node000005"><a xlink:title=" ">
<path fill="none" stroke="#63b8ff" d="M799.62,-55.59C799.62,-49.01 799.62,-39.96 799.62,-31.73"/>
<polygon fill="#63b8ff" stroke="#63b8ff" points="803.13,-31.81 799.63,-21.81 796.13,-31.81 803.13,-31.81"/>
</a>
</g>
</g>
<!-- Node6 -->
<g id="Node000006" class="node">
<title>Node6</title>
<g id="a_Node000006"><a xlink:href="_d_l_l_8h.html" target="_top" xlink:title=" ">
<polygon fill="white" stroke="#666666" points="628.75,-20 586.5,-20 586.5,0 628.75,0 628.75,-20"/>
<text text-anchor="middle" x="607.62" y="-6.5" font-family="Helvetica,sans-Serif" font-size="10.00">DLL.h</text>
</a>
</g>
</g>
<!-- Node2&#45;&gt;Node6 -->
<g id="edge5_Node000002_Node000006" class="edge">
<title>Node2&#45;&gt;Node6</title>
<g id="a_edge5_Node000002_Node000006"><a xlink:title=" ">
<path fill="none" stroke="#63b8ff" d="M774.13,-57.83C739.55,-48.11 677.79,-30.73 639.98,-20.1"/>
<polygon fill="#63b8ff" stroke="#63b8ff" points="641.11,-16.78 630.53,-17.44 639.21,-23.52 641.11,-16.78"/>
</a>
</g>
</g>
<!-- Node7&#45;&gt;Node3 -->
<g id="edge7_Node000007_Node000003" class="edge">
<title>Node7&#45;&gt;Node3</title>
<g id="a_edge7_Node000007_Node000003"><a xlink:title=" ">
<path fill="none" stroke="#63b8ff" d="M67.22,-111.54C48.5,-99.45 21.89,-77.49 33.62,-56 41.29,-41.95 55.43,-31.64 69,-24.45"/>
<polygon fill="#63b8ff" stroke="#63b8ff" points="70.3,-27.71 77.79,-20.22 67.26,-21.41 70.3,-27.71"/>
</a>
</g>
</g>
<!-- Node7&#45;&gt;Node4 -->
<g id="edge8_Node000007_Node000004" class="edge">
<title>Node7&#45;&gt;Node4</title>
<g id="a_edge8_Node000007_Node000004"><a xlink:title=" ">
<path fill="none" stroke="#63b8ff" d="M88.69,-111.78C97.09,-97.44 115.29,-69.98 138.62,-56 195.07,-22.18 273.5,-13.6 316.77,-11.54"/>
<polygon fill="#63b8ff" stroke="#63b8ff" points="316.88,-15.04 326.74,-11.16 316.62,-8.04 316.88,-15.04"/>
</a>
</g>
</g>
<!-- Node7&#45;&gt;Node6 -->
<g id="edge9_Node000007_Node000006" class="edge">
<title>Node7&#45;&gt;Node6</title>
<g id="a_edge9_Node000007_Node000006"><a xlink:title=" ">
<path fill="none" stroke="#63b8ff" d="M102.78,-111.55C132.86,-97.15 193.33,-69.91 247.62,-56 365.71,-25.74 510.99,-15.52 574.87,-12.33"/>
<polygon fill="#63b8ff" stroke="#63b8ff" points="574.84,-15.83 584.66,-11.86 574.51,-8.84 574.84,-15.83"/>
</a>
</g>
</g>
<!-- Node8 -->
<g id="Node000008" class="node">
<title>Node8</title>
<g id="a_Node000008"><a xlink:href="_utils_8h.html" target="_top" xlink:title=" ">
<polygon fill="white" stroke="#666666" points="86.88,-76 42.38,-76 42.38,-56 86.88,-56 86.88,-76"/>
<text text-anchor="middle" x="64.62" y="-62.5" font-family="Helvetica,sans-Serif" font-size="10.00">Utils.h</text>
</a>
</g>
</g>
<!-- Node7&#45;&gt;Node8 -->
<g id="edge10_Node000007_Node000008" class="edge">
<title>Node7&#45;&gt;Node8</title>
<g id="a_edge10_Node000007_Node000008"><a xlink:title=" ">
<path fill="none" stroke="#63b8ff" d="M80.32,-111.59C77.95,-104.86 74.66,-95.53 71.72,-87.15"/>
<polygon fill="#63b8ff" stroke="#63b8ff" points="75.02,-86 68.4,-77.73 68.42,-88.32 75.02,-86"/>
</a>
</g>
</g>
<!-- Node8&#45;&gt;Node3 -->
<g id="edge11_Node000008_Node000003" class="edge">
<title>Node8&#45;&gt;Node3</title>
<g id="a_edge11_Node000008_Node000003"><a xlink:title=" ">
<path fill="none" stroke="#63b8ff" d="M71.42,-55.59C76.62,-48.39 83.96,-38.23 90.31,-29.43"/>
<polygon fill="#63b8ff" stroke="#63b8ff" points="93.01,-31.68 96.02,-21.53 87.33,-27.58 93.01,-31.68"/>
</a>
</g>
</g>
<!-- Node8&#45;&gt;Node4 -->
<g id="edge12_Node000008_Node000004" class="edge">
<title>Node8&#45;&gt;Node4</title>
<g id="a_edge12_Node000008_Node000004"><a xlink:title=" ">
<path fill="none" stroke="#63b8ff" d="M87.04,-59.16C91.53,-58.05 96.22,-56.95 100.62,-56 177.95,-39.34 269.73,-23.77 316.99,-16.06"/>
<polygon fill="#63b8ff" stroke="#63b8ff" points="317.48,-19.52 326.79,-14.47 316.36,-12.62 317.48,-19.52"/>
</a>
</g>
</g>
<!-- Node8&#45;&gt;Node6 -->
<g id="edge14_Node000008_Node000006" class="edge">
<title>Node8&#45;&gt;Node6</title>
<g id="a_edge14_Node000008_Node000006"><a xlink:title=" ">
<path fill="none" stroke="#63b8ff" d="M87.27,-62.75C172.52,-54.27 474.42,-24.25 574.86,-14.26"/>
<polygon fill="#63b8ff" stroke="#63b8ff" points="574.97,-17.76 584.57,-13.29 574.28,-10.8 574.97,-17.76"/>
</a>
</g>
</g>
<!-- Node9 -->
<g id="Node000009" class="node">
<title>Node9</title>
<g id="a_Node000009"><a xlink:title=" ">
<polygon fill="#e0e0e0" stroke="#999999" points="51.25,-20 0,-20 0,0 51.25,0 51.25,-20"/>
<text text-anchor="middle" x="25.62" y="-6.5" font-family="Helvetica,sans-Serif" font-size="10.00">sstream</text>
</a>
</g>
</g>
<!-- Node8&#45;&gt;Node9 -->
<g id="edge13_Node000008_Node000009" class="edge">
<title>Node8&#45;&gt;Node9</title>
<g id="a_edge13_Node000008_Node000009"><a xlink:title=" ">
<path fill="none" stroke="#63b8ff" d="M57.83,-55.59C52.63,-48.39 45.29,-38.23 38.94,-29.43"/>
<polygon fill="#63b8ff" stroke="#63b8ff" points="41.92,-27.58 33.23,-21.53 36.24,-31.68 41.92,-27.58"/>
</a>
</g>
</g>
<!-- Node10&#45;&gt;Node3 -->
<g id="edge17_Node000010_Node000003" class="edge">
<title>Node10&#45;&gt;Node3</title>
<g id="a_edge17_Node000010_Node000003"><a xlink:title=" ">
<path fill="none" stroke="#63b8ff" d="M522.98,-176.56C418.11,-174.72 69.01,-166.07 33.62,-132 9.19,-108.47 9.74,-85.42 26.62,-56 35.7,-40.18 52.73,-29.39 68.47,-22.35"/>
<polygon fill="#63b8ff" stroke="#63b8ff" points="69.7,-25.63 77.65,-18.63 67.07,-19.14 69.7,-25.63"/>
</a>
</g>
</g>
<!-- Node10&#45;&gt;Node4 -->
<g id="edge18_Node000010_Node000004" class="edge">
<title>Node10&#45;&gt;Node4</title>
<g id="a_edge18_Node000010_Node000004"><a xlink:title=" ">
<path fill="none" stroke="#63b8ff" d="M523.11,-176.34C456.51,-174.25 297.26,-165.76 257.62,-132 231.2,-109.49 220.32,-84.85 239.62,-56 256.8,-30.32 291.6,-19.28 317.28,-14.54"/>
<polygon fill="#63b8ff" stroke="#63b8ff" points="317.52,-18.05 326.84,-13.02 316.42,-11.14 317.52,-18.05"/>
</a>
</g>
</g>
<!-- Node10&#45;&gt;Node5 -->
<g id="edge16_Node000010_Node000005" class="edge">
<title>Node10&#45;&gt;Node5</title>
<g id="a_edge16_Node000010_Node000005"><a xlink:title=" ">
<path fill="none" stroke="#63b8ff" d="M582.43,-177.21C643.17,-175.79 780.07,-162.65 833.62,-76 843.29,-60.36 831.24,-41.69 818.89,-28.38"/>
<polygon fill="#63b8ff" stroke="#63b8ff" points="821.6,-26.13 812.04,-21.56 816.66,-31.09 821.6,-26.13"/>
</a>
</g>
</g>
<!-- Node10&#45;&gt;Node6 -->
<g id="edge42_Node000010_Node000006" class="edge">
<title>Node10&#45;&gt;Node6</title>
<g id="a_edge42_Node000010_Node000006"><a xlink:title=" ">
<path fill="none" stroke="#63b8ff" d="M582.27,-177.81C617.69,-176.98 675.67,-169.5 703.62,-132 712.13,-120.59 720,-85.13 700.62,-56 686.97,-35.46 661.14,-24 640.17,-17.79"/>
<polygon fill="#63b8ff" stroke="#63b8ff" points="641.14,-14.43 630.58,-15.25 639.35,-21.2 641.14,-14.43"/>
</a>
</g>
</g>
<!-- Node10&#45;&gt;Node7 -->
<g id="edge30_Node000010_Node000007" class="edge">
<title>Node10&#45;&gt;Node7</title>
<g id="a_edge30_Node000010_Node000007"><a xlink:title=" ">
<path fill="none" stroke="#63b8ff" d="M522.94,-174.33C454.85,-168.08 282.26,-151.54 138.62,-132 137.95,-131.91 137.27,-131.81 136.59,-131.72"/>
<polygon fill="#63b8ff" stroke="#63b8ff" points="137.23,-128.28 126.83,-130.29 136.21,-135.2 137.23,-128.28"/>
</a>
</g>
</g>
<!-- Node11 -->
<g id="Node000011" class="node">
<title>Node11</title>
<g id="a_Node000011"><a xlink:title=" ">
<polygon fill="#e0e0e0" stroke="#999999" points="441,-76 358.25,-76 358.25,-56 441,-56 441,-76"/>
<text text-anchor="middle" x="399.62" y="-62.5" font-family="Helvetica,sans-Serif" font-size="10.00">unordered_map</text>
</a>
</g>
</g>
<!-- Node10&#45;&gt;Node11 -->
<g id="edge19_Node000010_Node000011" class="edge">
<title>Node10&#45;&gt;Node11</title>
<g id="a_edge19_Node000010_Node000011"><a xlink:title=" ">
<path fill="none" stroke="#63b8ff" d="M522.91,-169.15C500.29,-162.11 469.29,-150.07 446.62,-132 430.83,-119.41 417.85,-100.22 409.56,-85.95"/>
<polygon fill="#63b8ff" stroke="#63b8ff" points="412.8,-84.58 404.9,-77.52 406.67,-87.96 412.8,-84.58"/>
</a>
</g>
</g>
<!-- Node12 -->
<g id="Node000012" class="node">
<title>Node12</title>
<g id="a_Node000012"><a xlink:href="_command_8h.html" target="_top" xlink:title=" ">
<polygon fill="white" stroke="#666666" points="642.25,-76 573,-76 573,-56 642.25,-56 642.25,-76"/>
<text text-anchor="middle" x="607.62" y="-62.5" font-family="Helvetica,sans-Serif" font-size="10.00">Command.h</text>
</a>
</g>
</g>
<!-- Node10&#45;&gt;Node12 -->
<g id="edge20_Node000010_Node000012" class="edge">
<title>Node10&#45;&gt;Node12</title>
<g id="a_edge20_Node000010_Node000012"><a xlink:title=" ">
<path fill="none" stroke="#63b8ff" d="M557.31,-167.62C566.28,-149.68 586.04,-110.17 597.95,-86.35"/>
<polygon fill="#63b8ff" stroke="#63b8ff" points="600.93,-88.22 602.27,-77.71 594.67,-85.09 600.93,-88.22"/>
</a>
</g>
</g>
<!-- Node13 -->
<g id="Node000013" class="node">
<title>Node13</title>
<g id="a_Node000013"><a xlink:href="_command_handler_8h.html" target="_top" xlink:title=" ">
<polygon fill="white" stroke="#666666" points="558.12,-132 455.12,-132 455.12,-112 558.12,-112 558.12,-132"/>
<text text-anchor="middle" x="506.62" y="-118.5" font-family="Helvetica,sans-Serif" font-size="10.00">CommandHandler.h</text>
</a>
</g>
</g>
<!-- Node10&#45;&gt;Node13 -->
<g id="edge25_Node000010_Node000013" class="edge">
<title>Node10&#45;&gt;Node13</title>
<g id="a_edge25_Node000010_Node000013"><a xlink:title=" ">
<path fill="none" stroke="#63b8ff" d="M544.61,-167.59C538.35,-160.24 529.45,-149.8 521.84,-140.87"/>
<polygon fill="#63b8ff" stroke="#63b8ff" points="524.68,-138.79 515.53,-133.45 519.35,-143.33 524.68,-138.79"/>
</a>
</g>
</g>
<!-- Node14 -->
<g id="Node000014" class="node">
<title>Node14</title>
<g id="a_Node000014"><a xlink:href="_program_variable_8h.html" target="_top" xlink:title=" ">
<polygon fill="white" stroke="#666666" points="362.38,-132 266.88,-132 266.88,-112 362.38,-112 362.38,-132"/>
<text text-anchor="middle" x="314.62" y="-118.5" font-family="Helvetica,sans-Serif" font-size="10.00">ProgramVariable.h</text>
</a>
</g>
</g>
<!-- Node10&#45;&gt;Node14 -->
<g id="edge31_Node000010_Node000014" class="edge">
<title>Node10&#45;&gt;Node14</title>
<g id="a_edge31_Node000010_Node000014"><a xlink:title=" ">
<path fill="none" stroke="#63b8ff" d="M522.96,-170.27C484.09,-161.45 415.23,-145.83 367.37,-134.97"/>
<polygon fill="#63b8ff" stroke="#63b8ff" points="368.29,-131.59 357.76,-132.79 366.74,-138.41 368.29,-131.59"/>
</a>
</g>
</g>
<!-- Node16 -->
<g id="Node000016" class="node">
<title>Node16</title>
<g id="a_Node000016"><a xlink:href="_lexer_8h.html" target="_top" xlink:title=" ">
<polygon fill="white" stroke="#666666" points="694.75,-132 646.5,-132 646.5,-112 694.75,-112 694.75,-132"/>
<text text-anchor="middle" x="670.62" y="-118.5" font-family="Helvetica,sans-Serif" font-size="10.00">Lexer.h</text>
</a>
</g>
</g>
<!-- Node10&#45;&gt;Node16 -->
<g id="edge37_Node000010_Node000016" class="edge">
<title>Node10&#45;&gt;Node16</title>
<g id="a_edge37_Node000010_Node000016"><a xlink:title=" ">
<path fill="none" stroke="#63b8ff" d="M573.18,-167.59C591.51,-159.21 618.61,-146.8 639.58,-137.21"/>
<polygon fill="#63b8ff" stroke="#63b8ff" points="640.9,-140.45 648.53,-133.11 637.98,-134.09 640.9,-140.45"/>
</a>
</g>
</g>
<!-- Node12&#45;&gt;Node3 -->
<g id="edge23_Node000012_Node000003" class="edge">
<title>Node12&#45;&gt;Node3</title>
<g id="a_edge23_Node000012_Node000003"><a xlink:title=" ">
<path fill="none" stroke="#63b8ff" d="M572.62,-58.21C567.92,-57.4 563.16,-56.64 558.62,-56 403.07,-34.06 216.09,-19.15 139.25,-13.51"/>
<polygon fill="#63b8ff" stroke="#63b8ff" points="139.62,-10.03 129.39,-12.8 139.11,-17.01 139.62,-10.03"/>
</a>
</g>
</g>
<!-- Node12&#45;&gt;Node4 -->
<g id="edge22_Node000012_Node000004" class="edge">
<title>Node12&#45;&gt;Node4</title>
<g id="a_edge22_Node000012_Node000004"><a xlink:title=" ">
<path fill="none" stroke="#63b8ff" d="M572.7,-57.72C521.93,-47.13 428.52,-27.66 379.9,-17.52"/>
<polygon fill="#63b8ff" stroke="#63b8ff" points="380.82,-14.14 370.31,-15.52 379.39,-20.99 380.82,-14.14"/>
</a>
</g>
</g>
<!-- Node12&#45;&gt;Node5 -->
<g id="edge21_Node000012_Node000005" class="edge">
<title>Node12&#45;&gt;Node5</title>
<g id="a_edge21_Node000012_Node000005"><a xlink:title=" ">
<path fill="none" stroke="#63b8ff" d="M641.07,-55.59C676.4,-45.66 731.75,-30.09 766.83,-20.22"/>
<polygon fill="#63b8ff" stroke="#63b8ff" points="767.76,-23.6 776.43,-17.52 765.86,-16.86 767.76,-23.6"/>
</a>
</g>
</g>
<!-- Node12&#45;&gt;Node6 -->
<g id="edge24_Node000012_Node000006" class="edge">
<title>Node12&#45;&gt;Node6</title>
<g id="a_edge24_Node000012_Node000006"><a xlink:title=" ">
<path fill="none" stroke="#63b8ff" d="M607.62,-55.59C607.62,-49.01 607.62,-39.96 607.62,-31.73"/>
<polygon fill="#63b8ff" stroke="#63b8ff" points="611.13,-31.81 607.63,-21.81 604.13,-31.81 611.13,-31.81"/>
</a>
</g>
</g>
<!-- Node13&#45;&gt;Node4 -->
<g id="edge27_Node000013_Node000004" class="edge">
<title>Node13&#45;&gt;Node4</title>
<g id="a_edge27_Node000013_Node000004"><a xlink:title=" ">
<path fill="none" stroke="#63b8ff" d="M500.6,-111.91C491.15,-98.22 471.62,-72.2 449.62,-56 428.27,-40.27 400.55,-28.41 379.55,-20.82"/>
<polygon fill="#63b8ff" stroke="#63b8ff" points="380.98,-17.62 370.38,-17.65 378.69,-24.23 380.98,-17.62"/>
</a>
</g>
</g>
<!-- Node13&#45;&gt;Node6 -->
<g id="edge29_Node000013_Node000006" class="edge">
<title>Node13&#45;&gt;Node6</title>
<g id="a_edge29_Node000013_Node000006"><a xlink:title=" ">
<path fill="none" stroke="#63b8ff" d="M514.59,-111.6C525.47,-98.84 545.68,-75.38 563.62,-56 572.24,-46.7 582.08,-36.58 590.27,-28.3"/>
<polygon fill="#63b8ff" stroke="#63b8ff" points="592.73,-30.8 597.31,-21.24 587.77,-25.86 592.73,-30.8"/>
</a>
</g>
</g>
<!-- Node13&#45;&gt;Node11 -->
<g id="edge26_Node000013_Node000011" class="edge">
<title>Node13&#45;&gt;Node11</title>
<g id="a_edge26_Node000013_Node000011"><a xlink:title=" ">
<path fill="none" stroke="#63b8ff" d="M487.99,-111.59C471.59,-103.32 447.47,-91.14 428.56,-81.6"/>
<polygon fill="#63b8ff" stroke="#63b8ff" points="430.26,-78.54 419.76,-77.16 427.11,-84.79 430.26,-78.54"/>
</a>
</g>
</g>
<!-- Node13&#45;&gt;Node12 -->
<g id="edge28_Node000013_Node000012" class="edge">
<title>Node13&#45;&gt;Node12</title>
<g id="a_edge28_Node000013_Node000012"><a xlink:title=" ">
<path fill="none" stroke="#63b8ff" d="M524.22,-111.59C539.55,-103.4 562.04,-91.37 579.81,-81.87"/>
<polygon fill="#63b8ff" stroke="#63b8ff" points="581.39,-84.99 588.56,-77.19 578.09,-78.82 581.39,-84.99"/>
</a>
</g>
</g>
<!-- Node14&#45;&gt;Node4 -->
<g id="edge32_Node000014_Node000004" class="edge">
<title>Node14&#45;&gt;Node4</title>
<g id="a_edge32_Node000014_Node000004"><a xlink:title=" ">
<path fill="none" stroke="#63b8ff" d="M291.5,-111.54C266.69,-99.94 232.71,-78.97 247.62,-56 262.92,-32.45 293.71,-21.12 317.3,-15.73"/>
<polygon fill="#63b8ff" stroke="#63b8ff" points="317.93,-19.18 327.04,-13.78 316.55,-12.31 317.93,-19.18"/>
</a>
</g>
</g>
<!-- Node14&#45;&gt;Node6 -->
<g id="edge36_Node000014_Node000006" class="edge">
<title>Node14&#45;&gt;Node6</title>
<g id="a_edge36_Node000014_Node000006"><a xlink:title=" ">
<path fill="none" stroke="#63b8ff" d="M316.83,-111.74C320.78,-97.34 330.5,-69.79 349.62,-56 385.24,-30.32 513.95,-17.78 575.02,-13.16"/>
<polygon fill="#63b8ff" stroke="#63b8ff" points="575.06,-16.67 584.78,-12.45 574.55,-9.69 575.06,-16.67"/>
</a>
</g>
</g>
<!-- Node14&#45;&gt;Node9 -->
<g id="edge34_Node000014_Node000009" class="edge">
<title>Node14&#45;&gt;Node9</title>
<g id="a_edge34_Node000014_Node000009"><a xlink:title=" ">
<path fill="none" stroke="#63b8ff" d="M266.47,-120.04C194.76,-117.53 64.96,-108.5 33.62,-76 22.52,-64.48 21.2,-45.98 22.28,-31.65"/>
<polygon fill="#63b8ff" stroke="#63b8ff" points="25.73,-32.27 23.46,-21.92 18.78,-31.43 25.73,-32.27"/>
</a>
</g>
</g>
<!-- Node14&#45;&gt;Node11 -->
<g id="edge35_Node000014_Node000011" class="edge">
<title>Node14&#45;&gt;Node11</title>
<g id="a_edge35_Node000014_Node000011"><a xlink:title=" ">
<path fill="none" stroke="#63b8ff" d="M329.43,-111.59C342.03,-103.59 360.38,-91.93 375.16,-82.54"/>
<polygon fill="#63b8ff" stroke="#63b8ff" points="376.86,-85.61 383.43,-77.29 373.11,-79.7 376.86,-85.61"/>
</a>
</g>
</g>
<!-- Node15 -->
<g id="Node000015" class="node">
<title>Node15</title>
<g id="a_Node000015"><a xlink:title=" ">
<polygon fill="#e0e0e0" stroke="#999999" points="302.25,-76 257,-76 257,-56 302.25,-56 302.25,-76"/>
<text text-anchor="middle" x="279.62" y="-62.5" font-family="Helvetica,sans-Serif" font-size="10.00">cstring</text>
</a>
</g>
</g>
<!-- Node14&#45;&gt;Node15 -->
<g id="edge33_Node000014_Node000015" class="edge">
<title>Node14&#45;&gt;Node15</title>
<g id="a_edge33_Node000014_Node000015"><a xlink:title=" ">
<path fill="none" stroke="#63b8ff" d="M308.53,-111.59C303.91,-104.47 297.42,-94.45 291.76,-85.72"/>
<polygon fill="#63b8ff" stroke="#63b8ff" points="294.85,-84.06 286.47,-77.57 288.98,-87.86 294.85,-84.06"/>
</a>
</g>
</g>
<!-- Node16&#45;&gt;Node2 -->
<g id="edge40_Node000016_Node000002" class="edge">
<title>Node16&#45;&gt;Node2</title>
<g id="a_edge40_Node000016_Node000002"><a xlink:title=" ">
<path fill="none" stroke="#63b8ff" d="M693.1,-111.59C713.41,-103.09 743.58,-90.46 766.63,-80.81"/>
<polygon fill="#63b8ff" stroke="#63b8ff" points="767.71,-84.15 775.58,-77.06 765.01,-77.7 767.71,-84.15"/>
</a>
</g>
</g>
<!-- Node16&#45;&gt;Node3 -->
<g id="edge38_Node000016_Node000003" class="edge">
<title>Node16&#45;&gt;Node3</title>
<g id="a_edge38_Node000016_Node000003"><a xlink:title=" ">
<path fill="none" stroke="#63b8ff" d="M646.09,-112.41C605.65,-98.55 522.22,-71.3 449.62,-56 337.7,-32.41 202.64,-19.14 139.47,-13.8"/>
<polygon fill="#63b8ff" stroke="#63b8ff" points="139.94,-10.32 129.69,-12.99 139.36,-17.3 139.94,-10.32"/>
</a>
</g>
</g>
<!-- Node16&#45;&gt;Node4 -->
<g id="edge39_Node000016_Node000004" class="edge">
<title>Node16&#45;&gt;Node4</title>
<g id="a_edge39_Node000016_Node000004"><a xlink:title=" ">
<path fill="none" stroke="#63b8ff" d="M670.83,-111.84C670.61,-97.57 667.93,-70.21 651.62,-56 611.63,-21.14 449.93,-13.28 380.52,-11.51"/>
<polygon fill="#63b8ff" stroke="#63b8ff" points="380.65,-8.02 370.58,-11.29 380.5,-15.01 380.65,-8.02"/>
</a>
</g>
</g>
<!-- Node16&#45;&gt;Node6 -->
<g id="edge41_Node000016_Node000006" class="edge">
<title>Node16&#45;&gt;Node6</title>
<g id="a_edge41_Node000016_Node000006"><a xlink:title=" ">
<path fill="none" stroke="#63b8ff" d="M676.58,-111.54C684.09,-98.28 694.85,-73.82 684.62,-56 674.89,-39.03 656.01,-27.86 639.39,-20.88"/>
<polygon fill="#63b8ff" stroke="#63b8ff" points="640.91,-17.72 630.32,-17.43 638.42,-24.26 640.91,-17.72"/>
</a>
</g>
</g>
<!-- Node17&#45;&gt;Node2 -->
<g id="edge45_Node000017_Node000002" class="edge">
<title>Node17&#45;&gt;Node2</title>
<g id="a_edge45_Node000017_Node000002"><a xlink:title=" ">
<path fill="none" stroke="#63b8ff" d="M792.08,-223.6C793.34,-197.46 796.9,-123.48 798.64,-87.36"/>
<polygon fill="#63b8ff" stroke="#63b8ff" points="802.12,-87.97 799.1,-77.81 795.13,-87.63 802.12,-87.97"/>
</a>
</g>
</g>
<!-- Node17&#45;&gt;Node6 -->
<g id="edge46_Node000017_Node000006" class="edge">
<title>Node17&#45;&gt;Node6</title>
<g id="a_edge46_Node000017_Node000006"><a xlink:title=" ">
<path fill="none" stroke="#63b8ff" d="M798.68,-223.7C819.42,-195.18 876.1,-107.76 833.62,-56 809.52,-26.62 696.72,-16.06 640.15,-12.57"/>
<polygon fill="#63b8ff" stroke="#63b8ff" points="640.68,-9.1 630.49,-12.02 640.28,-16.09 640.68,-9.1"/>
</a>
</g>
</g>
<!-- Node17&#45;&gt;Node10 -->
<g id="edge44_Node000017_Node000010" class="edge">
<title>Node17&#45;&gt;Node10</title>
<g id="a_edge44_Node000017_Node000010"><a xlink:title=" ">
<path fill="none" stroke="#63b8ff" d="M765.13,-227.01C723.5,-217.61 642.46,-199.3 593.37,-188.21"/>
<polygon fill="#63b8ff" stroke="#63b8ff" points="594.22,-184.81 583.7,-186.02 592.68,-191.64 594.22,-184.81"/>
</a>
</g>
</g>
</g>
</svg>
