<?xml version="1.0" encoding="UTF-8" standalone="no"?>
<!DOCTYPE svg PUBLIC "-//W3C//DTD SVG 1.1//EN"
 "http://www.w3.org/Graphics/SVG/1.1/DTD/svg11.dtd">
<!-- Generated by graphviz version 12.2.1 (20241206.2353)
 -->
<!-- Title: C:/Users/emilly/Documents/Lucca/Projetos/Cpp/NikiScript/src/Token.cpp Pages: 1 -->
<svg width="648pt" height="276pt"
 viewBox="0.00 0.00 647.94 276.00" xmlns="http://www.w3.org/2000/svg" xmlns:xlink="http://www.w3.org/1999/xlink">
<g id="graph0" class="graph" transform="scale(1 1) rotate(0) translate(4 272)">
<title>C:/Users/emilly/Documents/Lucca/Projetos/Cpp/NikiScript/src/Token.cpp</title>
<!-- Node1 -->
<g id="Node000001" class="node">
<title>Node1</title>
<g id="a_Node000001"><a xlink:title=" ">
<polygon fill="#999999" stroke="#666666" points="470.78,-268 319.78,-268 319.78,-224 470.78,-224 470.78,-268"/>
<text text-anchor="start" x="327.78" y="-254.5" font-family="Helvetica,sans-Serif" font-size="10.00">C:/Users/emilly/Documents</text>
<text text-anchor="start" x="327.78" y="-242.5" font-family="Helvetica,sans-Serif" font-size="10.00">/Lucca/Projetos/Cpp/NikiScript</text>
<text text-anchor="middle" x="395.28" y="-230.5" font-family="Helvetica,sans-Serif" font-size="10.00">/src/Token.cpp</text>
</a>
</g>
</g>
<!-- Node2 -->
<g id="Node000002" class="node">
<title>Node2</title>
<g id="a_Node000002"><a xlink:href="_token_8h.html" target="_top" xlink:title=" ">
<polygon fill="white" stroke="#666666" points="478.53,-76 428.03,-76 428.03,-56 478.53,-56 478.53,-76"/>
<text text-anchor="middle" x="453.28" y="-62.5" font-family="Helvetica,sans-Serif" font-size="10.00">Token.h</text>
</a>
</g>
</g>
<!-- Node1&#45;&gt;Node2 -->
<g id="edge1_Node000001_Node000002" class="edge">
<title>Node1&#45;&gt;Node2</title>
<g id="a_edge1_Node000001_Node000002"><a xlink:title=" ">
<path fill="none" stroke="#63b8ff" d="M407.73,-223.74C420.04,-201.62 438.29,-165.59 447.28,-132 451.15,-117.55 452.62,-100.72 453.14,-87.81"/>
<polygon fill="#63b8ff" stroke="#63b8ff" points="456.64,-88.02 453.37,-77.94 449.64,-87.86 456.64,-88.02"/>
</a>
</g>
</g>
<!-- Node6 -->
<g id="Node000006" class="node">
<title>Node6</title>
<g id="a_Node000006"><a xlink:href="_context_8h.html" target="_top" xlink:title=" ">
<polygon fill="white" stroke="#666666" points="372.65,-188 313.9,-188 313.9,-168 372.65,-168 372.65,-188"/>
<text text-anchor="middle" x="343.28" y="-174.5" font-family="Helvetica,sans-Serif" font-size="10.00">Context.h</text>
</a>
</g>
</g>
<!-- Node1&#45;&gt;Node6 -->
<g id="edge5_Node000001_Node000006" class="edge">
<title>Node1&#45;&gt;Node6</title>
<g id="a_edge5_Node000001_Node000006"><a xlink:title=" ">
<path fill="none" stroke="#63b8ff" d="M378.54,-223.75C371.8,-215.2 364.1,-205.42 357.62,-197.2"/>
<polygon fill="#63b8ff" stroke="#63b8ff" points="360.58,-195.3 351.64,-189.61 355.08,-199.63 360.58,-195.3"/>
</a>
</g>
</g>
<!-- Node3 -->
<g id="Node000003" class="node">
<title>Node3</title>
<g id="a_Node000003"><a xlink:title=" ">
<polygon fill="#e0e0e0" stroke="#999999" points="630.4,-20 582.15,-20 582.15,0 630.4,0 630.4,-20"/>
<text text-anchor="middle" x="606.28" y="-6.5" font-family="Helvetica,sans-Serif" font-size="10.00">stdint.h</text>
</a>
</g>
</g>
<!-- Node2&#45;&gt;Node3 -->
<g id="edge2_Node000002_Node000003" class="edge">
<title>Node2&#45;&gt;Node3</title>
<g id="a_edge2_Node000002_Node000003"><a xlink:title=" ">
<path fill="none" stroke="#63b8ff" d="M478.89,-55.96C504.27,-47 543.34,-33.21 571.52,-23.27"/>
<polygon fill="#63b8ff" stroke="#63b8ff" points="572.41,-26.67 580.68,-20.04 570.08,-20.06 572.41,-26.67"/>
</a>
</g>
</g>
<!-- Node4 -->
<g id="Node000004" class="node">
<title>Node4</title>
<g id="a_Node000004"><a xlink:title=" ">
<polygon fill="#e0e0e0" stroke="#999999" points="420.28,-20 380.28,-20 380.28,0 420.28,0 420.28,-20"/>
<text text-anchor="middle" x="400.28" y="-6.5" font-family="Helvetica,sans-Serif" font-size="10.00">string</text>
</a>
</g>
</g>
<!-- Node2&#45;&gt;Node4 -->
<g id="edge3_Node000002_Node000004" class="edge">
<title>Node2&#45;&gt;Node4</title>
<g id="a_edge3_Node000002_Node000004"><a xlink:title=" ">
<path fill="none" stroke="#63b8ff" d="M444.05,-55.59C436.68,-48.08 426.15,-37.35 417.26,-28.3"/>
<polygon fill="#63b8ff" stroke="#63b8ff" points="419.97,-26.06 410.47,-21.38 414.97,-30.97 419.97,-26.06"/>
</a>
</g>
</g>
<!-- Node5 -->
<g id="Node000005" class="node">
<title>Node5</title>
<g id="a_Node000005"><a xlink:title=" ">
<polygon fill="#e0e0e0" stroke="#999999" points="269.78,-20 226.78,-20 226.78,0 269.78,0 269.78,-20"/>
<text text-anchor="middle" x="248.28" y="-6.5" font-family="Helvetica,sans-Serif" font-size="10.00">vector</text>
</a>
</g>
</g>
<!-- Node2&#45;&gt;Node5 -->
<g id="edge4_Node000002_Node000005" class="edge">
<title>Node2&#45;&gt;Node5</title>
<g id="a_edge4_Node000002_Node000005"><a xlink:title=" ">
<path fill="none" stroke="#63b8ff" d="M427.73,-58.27C390.63,-48.5 321.82,-30.37 281.04,-19.63"/>
<polygon fill="#63b8ff" stroke="#63b8ff" points="282.11,-16.29 271.54,-17.13 280.32,-23.06 282.11,-16.29"/>
</a>
</g>
</g>
<!-- Node6&#45;&gt;Node3 -->
<g id="edge7_Node000006_Node000003" class="edge">
<title>Node6&#45;&gt;Node3</title>
<g id="a_edge7_Node000006_Node000003"><a xlink:title=" ">
<path fill="none" stroke="#63b8ff" d="M372.81,-174.55C431.3,-169.25 559.41,-155.29 596.28,-132 628.55,-111.62 647.34,-92.53 636.28,-56 633.4,-46.5 627.79,-37.18 622.19,-29.5"/>
<polygon fill="#63b8ff" stroke="#63b8ff" points="624.95,-27.35 616,-21.67 619.45,-31.69 624.95,-27.35"/>
</a>
</g>
</g>
<!-- Node6&#45;&gt;Node4 -->
<g id="edge8_Node000006_Node000004" class="edge">
<title>Node6&#45;&gt;Node4</title>
<g id="a_edge8_Node000006_Node000004"><a xlink:title=" ">
<path fill="none" stroke="#63b8ff" d="M346.51,-167.6C355.52,-141.35 381.11,-66.84 393.45,-30.89"/>
<polygon fill="#63b8ff" stroke="#63b8ff" points="396.66,-32.32 396.6,-21.73 390.04,-30.05 396.66,-32.32"/>
</a>
</g>
</g>
<!-- Node6&#45;&gt;Node5 -->
<g id="edge6_Node000006_Node000005" class="edge">
<title>Node6&#45;&gt;Node5</title>
<g id="a_edge6_Node000006_Node000005"><a xlink:title=" ">
<path fill="none" stroke="#63b8ff" d="M337.9,-167.6C322.75,-141.12 279.49,-65.54 259.13,-29.96"/>
<polygon fill="#63b8ff" stroke="#63b8ff" points="262.36,-28.55 254.35,-21.61 256.28,-32.03 262.36,-28.55"/>
</a>
</g>
</g>
<!-- Node7 -->
<g id="Node000007" class="node">
<title>Node7</title>
<g id="a_Node000007"><a xlink:title=" ">
<polygon fill="#e0e0e0" stroke="#999999" points="182.65,-76 99.9,-76 99.9,-56 182.65,-56 182.65,-76"/>
<text text-anchor="middle" x="141.28" y="-62.5" font-family="Helvetica,sans-Serif" font-size="10.00">unordered_map</text>
</a>
</g>
</g>
<!-- Node6&#45;&gt;Node7 -->
<g id="edge9_Node000006_Node000007" class="edge">
<title>Node6&#45;&gt;Node7</title>
<g id="a_edge9_Node000006_Node000007"><a xlink:title=" ">
<path fill="none" stroke="#63b8ff" d="M313.58,-175.96C277.52,-173.25 216.53,-163.89 176.28,-132 161.84,-120.56 152.58,-101.47 147.24,-86.93"/>
<polygon fill="#63b8ff" stroke="#63b8ff" points="150.58,-85.89 144.12,-77.49 143.93,-88.09 150.58,-85.89"/>
</a>
</g>
</g>
<!-- Node8 -->
<g id="Node000008" class="node">
<title>Node8</title>
<g id="a_Node000008"><a xlink:href="_command_8h.html" target="_top" xlink:title=" ">
<polygon fill="white" stroke="#666666" points="81.9,-76 12.65,-76 12.65,-56 81.9,-56 81.9,-76"/>
<text text-anchor="middle" x="47.28" y="-62.5" font-family="Helvetica,sans-Serif" font-size="10.00">Command.h</text>
</a>
</g>
</g>
<!-- Node6&#45;&gt;Node8 -->
<g id="edge10_Node000006_Node000008" class="edge">
<title>Node6&#45;&gt;Node8</title>
<g id="a_edge10_Node000006_Node000008"><a xlink:title=" ">
<path fill="none" stroke="#63b8ff" d="M313.58,-177.63C240.44,-178.49 54.78,-176.17 16.28,-132 4.03,-117.95 16.56,-98.23 29.16,-84.2"/>
<polygon fill="#63b8ff" stroke="#63b8ff" points="31.31,-87.01 35.74,-77.39 26.28,-82.14 31.31,-87.01"/>
</a>
</g>
</g>
<!-- Node10 -->
<g id="Node000010" class="node">
<title>Node10</title>
<g id="a_Node000010"><a xlink:href="_command_handler_8h.html" target="_top" xlink:title=" ">
<polygon fill="white" stroke="#666666" points="128.78,-132 25.78,-132 25.78,-112 128.78,-112 128.78,-132"/>
<text text-anchor="middle" x="77.28" y="-118.5" font-family="Helvetica,sans-Serif" font-size="10.00">CommandHandler.h</text>
</a>
</g>
</g>
<!-- Node6&#45;&gt;Node10 -->
<g id="edge14_Node000006_Node000010" class="edge">
<title>Node6&#45;&gt;Node10</title>
<g id="a_edge14_Node000006_Node000010"><a xlink:title=" ">
<path fill="none" stroke="#63b8ff" d="M313.54,-170.96C270.42,-162.21 189.69,-145.82 134.72,-134.66"/>
<polygon fill="#63b8ff" stroke="#63b8ff" points="135.73,-131.29 125.23,-132.73 134.34,-138.15 135.73,-131.29"/>
</a>
</g>
</g>
<!-- Node11 -->
<g id="Node000011" class="node">
<title>Node11</title>
<g id="a_Node000011"><a xlink:href="_print_callback_8h.html" target="_top" xlink:title=" ">
<polygon fill="white" stroke="#666666" points="587.65,-132 504.9,-132 504.9,-112 587.65,-112 587.65,-132"/>
<text text-anchor="middle" x="546.28" y="-118.5" font-family="Helvetica,sans-Serif" font-size="10.00">PrintCallback.h</text>
</a>
</g>
</g>
<!-- Node6&#45;&gt;Node11 -->
<g id="edge18_Node000006_Node000011" class="edge">
<title>Node6&#45;&gt;Node11</title>
<g id="a_edge18_Node000006_Node000011"><a xlink:title=" ">
<path fill="none" stroke="#63b8ff" d="M372.8,-169.15C406.03,-160.31 460.46,-145.83 499.49,-135.45"/>
<polygon fill="#63b8ff" stroke="#63b8ff" points="500.34,-138.84 509.1,-132.89 498.54,-132.08 500.34,-138.84"/>
</a>
</g>
</g>
<!-- Node14 -->
<g id="Node000014" class="node">
<title>Node14</title>
<g id="a_Node000014"><a xlink:href="_program_variable_8h.html" target="_top" xlink:title=" ">
<polygon fill="white" stroke="#666666" points="281.03,-132 185.53,-132 185.53,-112 281.03,-112 281.03,-132"/>
<text text-anchor="middle" x="233.28" y="-118.5" font-family="Helvetica,sans-Serif" font-size="10.00">ProgramVariable.h</text>
</a>
</g>
</g>
<!-- Node6&#45;&gt;Node14 -->
<g id="edge25_Node000006_Node000014" class="edge">
<title>Node6&#45;&gt;Node14</title>
<g id="a_edge25_Node000006_Node000014"><a xlink:title=" ">
<path fill="none" stroke="#63b8ff" d="M324.12,-167.59C307.19,-159.28 282.23,-147.03 262.76,-137.47"/>
<polygon fill="#63b8ff" stroke="#63b8ff" points="264.47,-134.41 253.95,-133.15 261.38,-140.7 264.47,-134.41"/>
</a>
</g>
</g>
<!-- Node15 -->
<g id="Node000015" class="node">
<title>Node15</title>
<g id="a_Node000015"><a xlink:href="_lexer_8h.html" target="_top" xlink:title=" ">
<polygon fill="white" stroke="#666666" points="438.4,-132 390.15,-132 390.15,-112 438.4,-112 438.4,-132"/>
<text text-anchor="middle" x="414.28" y="-118.5" font-family="Helvetica,sans-Serif" font-size="10.00">Lexer.h</text>
</a>
</g>
</g>
<!-- Node6&#45;&gt;Node15 -->
<g id="edge30_Node000006_Node000015" class="edge">
<title>Node6&#45;&gt;Node15</title>
<g id="a_edge30_Node000006_Node000015"><a xlink:title=" ">
<path fill="none" stroke="#63b8ff" d="M355.65,-167.59C365.93,-159.77 380.8,-148.46 392.99,-139.19"/>
<polygon fill="#63b8ff" stroke="#63b8ff" points="395.01,-142.05 400.85,-133.21 390.77,-136.48 395.01,-142.05"/>
</a>
</g>
</g>
<!-- Node8&#45;&gt;Node4 -->
<g id="edge13_Node000008_Node000004" class="edge">
<title>Node8&#45;&gt;Node4</title>
<g id="a_edge13_Node000008_Node000004"><a xlink:title=" ">
<path fill="none" stroke="#63b8ff" d="M82.31,-57.65C85.34,-57.07 88.36,-56.51 91.28,-56 192.27,-38.33 312.69,-22.21 368.71,-14.99"/>
<polygon fill="#63b8ff" stroke="#63b8ff" points="368.99,-18.48 378.47,-13.74 368.1,-11.54 368.99,-18.48"/>
</a>
</g>
</g>
<!-- Node8&#45;&gt;Node5 -->
<g id="edge11_Node000008_Node000005" class="edge">
<title>Node8&#45;&gt;Node5</title>
<g id="a_edge11_Node000008_Node000005"><a xlink:title=" ">
<path fill="none" stroke="#63b8ff" d="M82.29,-55.59C119.74,-45.53 178.68,-29.7 215.32,-19.85"/>
<polygon fill="#63b8ff" stroke="#63b8ff" points="216.17,-23.25 224.92,-17.28 214.35,-16.49 216.17,-23.25"/>
</a>
</g>
</g>
<!-- Node9 -->
<g id="Node000009" class="node">
<title>Node9</title>
<g id="a_Node000009"><a xlink:title=" ">
<polygon fill="#e0e0e0" stroke="#999999" points="80.03,-20 14.53,-20 14.53,0 80.03,0 80.03,-20"/>
<text text-anchor="middle" x="47.28" y="-6.5" font-family="Helvetica,sans-Serif" font-size="10.00">string_view</text>
</a>
</g>
</g>
<!-- Node8&#45;&gt;Node9 -->
<g id="edge12_Node000008_Node000009" class="edge">
<title>Node8&#45;&gt;Node9</title>
<g id="a_edge12_Node000008_Node000009"><a xlink:title=" ">
<path fill="none" stroke="#63b8ff" d="M47.28,-55.59C47.28,-49.01 47.28,-39.96 47.28,-31.73"/>
<polygon fill="#63b8ff" stroke="#63b8ff" points="50.78,-31.81 47.28,-21.81 43.78,-31.81 50.78,-31.81"/>
</a>
</g>
</g>
<!-- Node10&#45;&gt;Node7 -->
<g id="edge15_Node000010_Node000007" class="edge">
<title>Node10&#45;&gt;Node7</title>
<g id="a_edge15_Node000010_Node000007"><a xlink:title=" ">
<path fill="none" stroke="#63b8ff" d="M88.43,-111.59C97.6,-103.85 110.83,-92.69 121.76,-83.47"/>
<polygon fill="#63b8ff" stroke="#63b8ff" points="123.72,-86.4 129.1,-77.27 119.2,-81.05 123.72,-86.4"/>
</a>
</g>
</g>
<!-- Node10&#45;&gt;Node8 -->
<g id="edge17_Node000010_Node000008" class="edge">
<title>Node10&#45;&gt;Node8</title>
<g id="a_edge17_Node000010_Node000008"><a xlink:title=" ">
<path fill="none" stroke="#63b8ff" d="M72.05,-111.59C68.18,-104.63 62.77,-94.89 57.99,-86.29"/>
<polygon fill="#63b8ff" stroke="#63b8ff" points="61.1,-84.66 53.18,-77.62 54.98,-88.06 61.1,-84.66"/>
</a>
</g>
</g>
<!-- Node10&#45;&gt;Node9 -->
<g id="edge16_Node000010_Node000009" class="edge">
<title>Node10&#45;&gt;Node9</title>
<g id="a_edge16_Node000010_Node000009"><a xlink:title=" ">
<path fill="none" stroke="#63b8ff" d="M48.49,-111.57C32.08,-104.55 12.93,-93.17 3.28,-76 -6.43,-58.72 9.09,-40.1 24.32,-27.23"/>
<polygon fill="#63b8ff" stroke="#63b8ff" points="26.16,-30.24 31.86,-21.31 21.83,-24.73 26.16,-30.24"/>
</a>
</g>
</g>
<!-- Node11&#45;&gt;Node3 -->
<g id="edge19_Node000011_Node000003" class="edge">
<title>Node11&#45;&gt;Node3</title>
<g id="a_edge19_Node000011_Node000003"><a xlink:title=" ">
<path fill="none" stroke="#63b8ff" d="M575.07,-111.57C591.47,-104.55 610.63,-93.17 620.28,-76 628.15,-62.01 623.34,-44.04 617.3,-30.54"/>
<polygon fill="#63b8ff" stroke="#63b8ff" points="620.51,-29.13 612.87,-21.79 614.26,-32.29 620.51,-29.13"/>
</a>
</g>
</g>
<!-- Node11&#45;&gt;Node4 -->
<g id="edge20_Node000011_Node000004" class="edge">
<title>Node11&#45;&gt;Node4</title>
<g id="a_edge20_Node000011_Node000004"><a xlink:title=" ">
<path fill="none" stroke="#63b8ff" d="M539.52,-111.64C529.36,-98.06 509.03,-72.72 487.28,-56 469.98,-42.69 448.15,-31.42 430.69,-23.48"/>
<polygon fill="#63b8ff" stroke="#63b8ff" points="432.41,-20.41 421.85,-19.59 429.59,-26.82 432.41,-20.41"/>
</a>
</g>
</g>
<!-- Node12 -->
<g id="Node000012" class="node">
<title>Node12</title>
<g id="a_Node000012"><a xlink:href="_utils_8h.html" target="_top" xlink:title=" ">
<polygon fill="white" stroke="#666666" points="578.53,-76 534.03,-76 534.03,-56 578.53,-56 578.53,-76"/>
<text text-anchor="middle" x="556.28" y="-62.5" font-family="Helvetica,sans-Serif" font-size="10.00">Utils.h</text>
</a>
</g>
</g>
<!-- Node11&#45;&gt;Node12 -->
<g id="edge21_Node000011_Node000012" class="edge">
<title>Node11&#45;&gt;Node12</title>
<g id="a_edge21_Node000011_Node000012"><a xlink:title=" ">
<path fill="none" stroke="#63b8ff" d="M548.02,-111.59C549.25,-104.93 550.96,-95.75 552.49,-87.44"/>
<polygon fill="#63b8ff" stroke="#63b8ff" points="555.9,-88.26 554.28,-77.79 549.02,-86.98 555.9,-88.26"/>
</a>
</g>
</g>
<!-- Node12&#45;&gt;Node3 -->
<g id="edge22_Node000012_Node000003" class="edge">
<title>Node12&#45;&gt;Node3</title>
<g id="a_edge22_Node000012_Node000003"><a xlink:title=" ">
<path fill="none" stroke="#63b8ff" d="M564.99,-55.59C571.87,-48.16 581.67,-37.58 590,-28.58"/>
<polygon fill="#63b8ff" stroke="#63b8ff" points="592.42,-31.12 596.64,-21.41 587.28,-26.37 592.42,-31.12"/>
</a>
</g>
</g>
<!-- Node12&#45;&gt;Node4 -->
<g id="edge23_Node000012_Node000004" class="edge">
<title>Node12&#45;&gt;Node4</title>
<g id="a_edge23_Node000012_Node000004"><a xlink:title=" ">
<path fill="none" stroke="#63b8ff" d="M533.6,-57.15C506.62,-47.81 461.46,-32.18 431.27,-21.73"/>
<polygon fill="#63b8ff" stroke="#63b8ff" points="432.53,-18.46 421.94,-18.5 430.24,-25.08 432.53,-18.46"/>
</a>
</g>
</g>
<!-- Node13 -->
<g id="Node000013" class="node">
<title>Node13</title>
<g id="a_Node000013"><a xlink:title=" ">
<polygon fill="#e0e0e0" stroke="#999999" points="526.9,-20 475.65,-20 475.65,0 526.9,0 526.9,-20"/>
<text text-anchor="middle" x="501.28" y="-6.5" font-family="Helvetica,sans-Serif" font-size="10.00">sstream</text>
</a>
</g>
</g>
<!-- Node12&#45;&gt;Node13 -->
<g id="edge24_Node000012_Node000013" class="edge">
<title>Node12&#45;&gt;Node13</title>
<g id="a_edge24_Node000012_Node000013"><a xlink:title=" ">
<path fill="none" stroke="#63b8ff" d="M546.7,-55.59C539.05,-48.08 528.12,-37.35 518.9,-28.3"/>
<polygon fill="#63b8ff" stroke="#63b8ff" points="521.42,-25.87 511.83,-21.36 516.51,-30.86 521.42,-25.87"/>
</a>
</g>
</g>
<!-- Node14&#45;&gt;Node4 -->
<g id="edge26_Node000014_Node000004" class="edge">
<title>Node14&#45;&gt;Node4</title>
<g id="a_edge26_Node000014_Node000004"><a xlink:title=" ">
<path fill="none" stroke="#63b8ff" d="M242.66,-111.79C256.6,-98.42 283.98,-73.32 310.28,-56 329.01,-43.67 351.58,-32.39 369.44,-24.21"/>
<polygon fill="#63b8ff" stroke="#63b8ff" points="370.79,-27.44 378.49,-20.15 367.93,-21.05 370.79,-27.44"/>
</a>
</g>
</g>
<!-- Node14&#45;&gt;Node7 -->
<g id="edge29_Node000014_Node000007" class="edge">
<title>Node14&#45;&gt;Node7</title>
<g id="a_edge29_Node000014_Node000007"><a xlink:title=" ">
<path fill="none" stroke="#63b8ff" d="M217.25,-111.59C203.49,-103.51 183.37,-91.71 167.3,-82.27"/>
<polygon fill="#63b8ff" stroke="#63b8ff" points="169.13,-79.29 158.74,-77.25 165.59,-85.33 169.13,-79.29"/>
</a>
</g>
</g>
<!-- Node14&#45;&gt;Node9 -->
<g id="edge27_Node000014_Node000009" class="edge">
<title>Node14&#45;&gt;Node9</title>
<g id="a_edge27_Node000014_Node000009"><a xlink:title=" ">
<path fill="none" stroke="#63b8ff" d="M229.66,-111.56C223.76,-97.41 210.75,-70.8 191.28,-56 162.16,-33.86 121.96,-22.49 91.43,-16.72"/>
<polygon fill="#63b8ff" stroke="#63b8ff" points="92.19,-13.3 81.74,-15.03 90.99,-20.19 92.19,-13.3"/>
</a>
</g>
</g>
<!-- Node14&#45;&gt;Node13 -->
<g id="edge28_Node000014_Node000013" class="edge">
<title>Node14&#45;&gt;Node13</title>
<g id="a_edge28_Node000014_Node000013"><a xlink:title=" ">
<path fill="none" stroke="#63b8ff" d="M256.13,-111.62C303.5,-92.18 412.59,-47.4 467.87,-24.71"/>
<polygon fill="#63b8ff" stroke="#63b8ff" points="469.17,-27.96 477.09,-20.93 466.51,-21.49 469.17,-27.96"/>
</a>
</g>
</g>
<!-- Node15&#45;&gt;Node2 -->
<g id="edge33_Node000015_Node000002" class="edge">
<title>Node15&#45;&gt;Node2</title>
<g id="a_edge33_Node000015_Node000002"><a xlink:title=" ">
<path fill="none" stroke="#63b8ff" d="M421.07,-111.59C426.27,-104.39 433.61,-94.23 439.97,-85.43"/>
<polygon fill="#63b8ff" stroke="#63b8ff" points="442.66,-87.68 445.68,-77.53 436.99,-83.58 442.66,-87.68"/>
</a>
</g>
</g>
<!-- Node15&#45;&gt;Node3 -->
<g id="edge31_Node000015_Node000003" class="edge">
<title>Node15&#45;&gt;Node3</title>
<g id="a_edge31_Node000015_Node000003"><a xlink:title=" ">
<path fill="none" stroke="#63b8ff" d="M438.63,-117.66C481.07,-111.38 566.12,-96.53 587.28,-76 599.16,-64.47 603.72,-45.97 605.42,-31.65"/>
<polygon fill="#63b8ff" stroke="#63b8ff" points="608.89,-32.17 606.17,-21.93 601.91,-31.63 608.89,-32.17"/>
</a>
</g>
</g>
<!-- Node15&#45;&gt;Node4 -->
<g id="edge32_Node000015_Node000004" class="edge">
<title>Node15&#45;&gt;Node4</title>
<g id="a_edge32_Node000015_Node000004"><a xlink:title=" ">
<path fill="none" stroke="#63b8ff" d="M413.09,-111.62C410.84,-94.01 405.96,-55.59 402.91,-31.65"/>
<polygon fill="#63b8ff" stroke="#63b8ff" points="406.4,-31.33 401.66,-21.86 399.45,-32.22 406.4,-31.33"/>
</a>
</g>
</g>
</g>
</svg>
