<?xml version="1.0" encoding="UTF-8" standalone="no"?>
<!DOCTYPE svg PUBLIC "-//W3C//DTD SVG 1.1//EN"
 "http://www.w3.org/Graphics/SVG/1.1/DTD/svg11.dtd">
<!-- Generated by graphviz version 12.2.1 (20241206.2353)
 -->
<!-- Title: C:/Users/emilly/Documents/Lucca/Projetos/Cpp/NikiScript/wrapper/TokenWrapper.h Pages: 1 -->
<svg width="214pt" height="164pt"
 viewBox="0.00 0.00 214.00 164.00" xmlns="http://www.w3.org/2000/svg" xmlns:xlink="http://www.w3.org/1999/xlink">
<g id="graph0" class="graph" transform="scale(1 1) rotate(0) translate(4 160)">
<title>C:/Users/emilly/Documents/Lucca/Projetos/Cpp/NikiScript/wrapper/TokenWrapper.h</title>
<!-- Node1 -->
<g id="Node000001" class="node">
<title>Node1</title>
<g id="a_Node000001"><a xlink:title=" ">
<polygon fill="#999999" stroke="#666666" points="151,-156 0,-156 0,-112 151,-112 151,-156"/>
<text text-anchor="start" x="8" y="-142.5" font-family="Helvetica,sans-Serif" font-size="10.00">C:/Users/emilly/Documents</text>
<text text-anchor="start" x="8" y="-130.5" font-family="Helvetica,sans-Serif" font-size="10.00">/Lucca/Projetos/Cpp/NikiScript</text>
<text text-anchor="middle" x="75.5" y="-118.5" font-family="Helvetica,sans-Serif" font-size="10.00">/wrapper/TokenWrapper.h</text>
</a>
</g>
</g>
<!-- Node2 -->
<g id="Node000002" class="node">
<title>Node2</title>
<g id="a_Node000002"><a xlink:title=" ">
<polygon fill="#e0e0e0" stroke="#999999" points="76.62,-20 28.38,-20 28.38,0 76.62,0 76.62,-20"/>
<text text-anchor="middle" x="52.5" y="-6.5" font-family="Helvetica,sans-Serif" font-size="10.00">stdint.h</text>
</a>
</g>
</g>
<!-- Node1&#45;&gt;Node2 -->
<g id="edge1_Node000001_Node000002" class="edge">
<title>Node1&#45;&gt;Node2</title>
<g id="a_edge1_Node000001_Node000002"><a xlink:title=" ">
<path fill="none" stroke="#63b8ff" d="M53.69,-111.76C45.01,-101.82 36.02,-89.25 31.5,-76 26.24,-60.57 32.69,-42.96 39.78,-29.97"/>
<polygon fill="#63b8ff" stroke="#63b8ff" points="42.68,-31.95 44.87,-21.58 36.69,-28.32 42.68,-31.95"/>
</a>
</g>
</g>
<!-- Node3 -->
<g id="Node000003" class="node">
<title>Node3</title>
<g id="a_Node000003"><a xlink:href="_d_l_l_export_8h.html" target="_top" xlink:title=" ">
<polygon fill="white" stroke="#666666" points="110.88,-76 40.12,-76 40.12,-56 110.88,-56 110.88,-76"/>
<text text-anchor="middle" x="75.5" y="-62.5" font-family="Helvetica,sans-Serif" font-size="10.00">DLLExport.h</text>
</a>
</g>
</g>
<!-- Node1&#45;&gt;Node3 -->
<g id="edge2_Node000001_Node000003" class="edge">
<title>Node1&#45;&gt;Node3</title>
<g id="a_edge2_Node000001_Node000003"><a xlink:title=" ">
<path fill="none" stroke="#63b8ff" d="M75.5,-111.75C75.5,-104.13 75.5,-95.53 75.5,-87.93"/>
<polygon fill="#63b8ff" stroke="#63b8ff" points="79,-87.93 75.5,-77.93 72,-87.93 79,-87.93"/>
</a>
</g>
</g>
<!-- Node4 -->
<g id="Node000004" class="node">
<title>Node4</title>
<g id="a_Node000004"><a xlink:href="_token_8h.html" target="_top" xlink:title=" ">
<polygon fill="white" stroke="#666666" points="179.75,-76 129.25,-76 129.25,-56 179.75,-56 179.75,-76"/>
<text text-anchor="middle" x="154.5" y="-62.5" font-family="Helvetica,sans-Serif" font-size="10.00">Token.h</text>
</a>
</g>
</g>
<!-- Node1&#45;&gt;Node4 -->
<g id="edge3_Node000001_Node000004" class="edge">
<title>Node1&#45;&gt;Node4</title>
<g id="a_edge3_Node000001_Node000004"><a xlink:title=" ">
<path fill="none" stroke="#63b8ff" d="M100.93,-111.75C111.84,-102.64 124.4,-92.14 134.62,-83.61"/>
<polygon fill="#63b8ff" stroke="#63b8ff" points="136.63,-86.49 142.06,-77.39 132.15,-81.11 136.63,-86.49"/>
</a>
</g>
</g>
<!-- Node4&#45;&gt;Node2 -->
<g id="edge4_Node000004_Node000002" class="edge">
<title>Node4&#45;&gt;Node2</title>
<g id="a_edge4_Node000004_Node000002"><a xlink:title=" ">
<path fill="none" stroke="#63b8ff" d="M136.73,-55.59C121.18,-47.36 98.32,-35.26 80.34,-25.74"/>
<polygon fill="#63b8ff" stroke="#63b8ff" points="82.22,-22.77 71.74,-21.19 78.94,-28.96 82.22,-22.77"/>
</a>
</g>
</g>
<!-- Node5 -->
<g id="Node000005" class="node">
<title>Node5</title>
<g id="a_Node000005"><a xlink:title=" ">
<polygon fill="#e0e0e0" stroke="#999999" points="144.5,-20 104.5,-20 104.5,0 144.5,0 144.5,-20"/>
<text text-anchor="middle" x="124.5" y="-6.5" font-family="Helvetica,sans-Serif" font-size="10.00">string</text>
</a>
</g>
</g>
<!-- Node4&#45;&gt;Node5 -->
<g id="edge5_Node000004_Node000005" class="edge">
<title>Node4&#45;&gt;Node5</title>
<g id="a_edge5_Node000004_Node000005"><a xlink:title=" ">
<path fill="none" stroke="#63b8ff" d="M149.27,-55.59C145.4,-48.63 139.99,-38.89 135.22,-30.29"/>
<polygon fill="#63b8ff" stroke="#63b8ff" points="138.32,-28.66 130.4,-21.62 132.2,-32.06 138.32,-28.66"/>
</a>
</g>
</g>
<!-- Node6 -->
<g id="Node000006" class="node">
<title>Node6</title>
<g id="a_Node000006"><a xlink:title=" ">
<polygon fill="#e0e0e0" stroke="#999999" points="206,-20 163,-20 163,0 206,0 206,-20"/>
<text text-anchor="middle" x="184.5" y="-6.5" font-family="Helvetica,sans-Serif" font-size="10.00">vector</text>
</a>
</g>
</g>
<!-- Node4&#45;&gt;Node6 -->
<g id="edge6_Node000004_Node000006" class="edge">
<title>Node4&#45;&gt;Node6</title>
<g id="a_edge6_Node000004_Node000006"><a xlink:title=" ">
<path fill="none" stroke="#63b8ff" d="M159.73,-55.59C163.6,-48.63 169.01,-38.89 173.78,-30.29"/>
<polygon fill="#63b8ff" stroke="#63b8ff" points="176.8,-32.06 178.6,-21.62 170.68,-28.66 176.8,-32.06"/>
</a>
</g>
</g>
</g>
</svg>
