<?xml version="1.0" encoding="UTF-8" standalone="no"?>
<!DOCTYPE svg PUBLIC "-//W3C//DTD SVG 1.1//EN"
 "http://www.w3.org/Graphics/SVG/1.1/DTD/svg11.dtd">
<!-- Generated by graphviz version 12.2.1 (20241206.2353)
 -->
<!-- Title: C:/Users/emilly/Documents/Lucca/Projetos/Cpp/NikiScript/include/NikiScript/Token.h Pages: 1 -->
<svg width="236pt" height="108pt"
 viewBox="0.00 0.00 236.25 108.00" xmlns="http://www.w3.org/2000/svg" xmlns:xlink="http://www.w3.org/1999/xlink">
<g id="graph0" class="graph" transform="scale(1 1) rotate(0) translate(4 104)">
<title>C:/Users/emilly/Documents/Lucca/Projetos/Cpp/NikiScript/include/NikiScript/Token.h</title>
<!-- Node1 -->
<g id="Node000001" class="node">
<title>Node1</title>
<g id="a_Node000001"><a xlink:title=" ">
<polygon fill="#999999" stroke="#666666" points="191.62,-100 40.62,-100 40.62,-56 191.62,-56 191.62,-100"/>
<text text-anchor="start" x="48.62" y="-86.5" font-family="Helvetica,sans-Serif" font-size="10.00">C:/Users/emilly/Documents</text>
<text text-anchor="start" x="48.62" y="-74.5" font-family="Helvetica,sans-Serif" font-size="10.00">/Lucca/Projetos/Cpp/NikiScript</text>
<text text-anchor="middle" x="116.12" y="-62.5" font-family="Helvetica,sans-Serif" font-size="10.00">/include/NikiScript/Token.h</text>
</a>
</g>
</g>
<!-- Node2 -->
<g id="Node000002" class="node">
<title>Node2</title>
<g id="a_Node000002"><a xlink:title=" ">
<polygon fill="#e0e0e0" stroke="#999999" points="48.25,-20 0,-20 0,0 48.25,0 48.25,-20"/>
<text text-anchor="middle" x="24.12" y="-6.5" font-family="Helvetica,sans-Serif" font-size="10.00">stdint.h</text>
</a>
</g>
</g>
<!-- Node1&#45;&gt;Node2 -->
<g id="edge1_Node000001_Node000002" class="edge">
<title>Node1&#45;&gt;Node2</title>
<g id="a_edge1_Node000001_Node000002"><a xlink:title=" ">
<path fill="none" stroke="#63b8ff" d="M86.26,-55.57C73.3,-46.28 58.4,-35.59 46.43,-27"/>
<polygon fill="#63b8ff" stroke="#63b8ff" points="48.58,-24.23 38.41,-21.25 44.49,-29.92 48.58,-24.23"/>
</a>
</g>
</g>
<!-- Node3 -->
<g id="Node000003" class="node">
<title>Node3</title>
<g id="a_Node000003"><a xlink:title=" ">
<polygon fill="#e0e0e0" stroke="#999999" points="106.12,-20 66.12,-20 66.12,0 106.12,0 106.12,-20"/>
<text text-anchor="middle" x="86.12" y="-6.5" font-family="Helvetica,sans-Serif" font-size="10.00">string</text>
</a>
</g>
</g>
<!-- Node1&#45;&gt;Node3 -->
<g id="edge2_Node000001_Node000003" class="edge">
<title>Node1&#45;&gt;Node3</title>
<g id="a_edge2_Node000001_Node000003"><a xlink:title=" ">
<path fill="none" stroke="#63b8ff" d="M106.47,-55.75C102.83,-47.75 98.71,-38.69 95.14,-30.83"/>
<polygon fill="#63b8ff" stroke="#63b8ff" points="98.36,-29.45 91.03,-21.8 91.98,-32.35 98.36,-29.45"/>
</a>
</g>
</g>
<!-- Node4 -->
<g id="Node000004" class="node">
<title>Node4</title>
<g id="a_Node000004"><a xlink:title=" ">
<polygon fill="#e0e0e0" stroke="#999999" points="167.62,-20 124.62,-20 124.62,0 167.62,0 167.62,-20"/>
<text text-anchor="middle" x="146.12" y="-6.5" font-family="Helvetica,sans-Serif" font-size="10.00">vector</text>
</a>
</g>
</g>
<!-- Node1&#45;&gt;Node4 -->
<g id="edge3_Node000001_Node000004" class="edge">
<title>Node1&#45;&gt;Node4</title>
<g id="a_edge3_Node000001_Node000004"><a xlink:title=" ">
<path fill="none" stroke="#63b8ff" d="M125.78,-55.75C129.42,-47.75 133.54,-38.69 137.11,-30.83"/>
<polygon fill="#63b8ff" stroke="#63b8ff" points="140.27,-32.35 141.22,-21.8 133.89,-29.45 140.27,-32.35"/>
</a>
</g>
</g>
<!-- Node5 -->
<g id="Node000005" class="node">
<title>Node5</title>
<g id="a_Node000005"><a xlink:href="_d_l_l_8h.html" target="_top" xlink:title=" ">
<polygon fill="white" stroke="#666666" points="228.25,-20 186,-20 186,0 228.25,0 228.25,-20"/>
<text text-anchor="middle" x="207.12" y="-6.5" font-family="Helvetica,sans-Serif" font-size="10.00">DLL.h</text>
</a>
</g>
</g>
<!-- Node1&#45;&gt;Node5 -->
<g id="edge4_Node000001_Node000005" class="edge">
<title>Node1&#45;&gt;Node5</title>
<g id="a_edge4_Node000001_Node000005"><a xlink:title=" ">
<path fill="none" stroke="#63b8ff" d="M145.67,-55.57C158.48,-46.28 173.23,-35.59 185.06,-27"/>
<polygon fill="#63b8ff" stroke="#63b8ff" points="186.95,-29.96 192.99,-21.25 182.84,-24.29 186.95,-29.96"/>
</a>
</g>
</g>
</g>
</svg>
