<?xml version="1.0" encoding="UTF-8" standalone="no"?>
<!DOCTYPE svg PUBLIC "-//W3C//DTD SVG 1.1//EN"
 "http://www.w3.org/Graphics/SVG/1.1/DTD/svg11.dtd">
<!-- Generated by graphviz version 12.2.1 (20241206.2353)
 -->
<!-- Title: C:/Users/emilly/Documents/Lucca/Projetos/Cpp/NikiScript/src/Utils.cpp Pages: 1 -->
<svg width="345pt" height="164pt"
 viewBox="0.00 0.00 344.88 164.00" xmlns="http://www.w3.org/2000/svg" xmlns:xlink="http://www.w3.org/1999/xlink">
<g id="graph0" class="graph" transform="scale(1 1) rotate(0) translate(4 160)">
<title>C:/Users/emilly/Documents/Lucca/Projetos/Cpp/NikiScript/src/Utils.cpp</title>
<!-- Node1 -->
<g id="Node000001" class="node">
<title>Node1</title>
<g id="a_Node000001"><a xlink:title=" ">
<polygon fill="#999999" stroke="#666666" points="295.62,-156 144.62,-156 144.62,-112 295.62,-112 295.62,-156"/>
<text text-anchor="start" x="152.62" y="-142.5" font-family="Helvetica,sans-Serif" font-size="10.00">C:/Users/emilly/Documents</text>
<text text-anchor="start" x="152.62" y="-130.5" font-family="Helvetica,sans-Serif" font-size="10.00">/Lucca/Projetos/Cpp/NikiScript</text>
<text text-anchor="middle" x="220.12" y="-118.5" font-family="Helvetica,sans-Serif" font-size="10.00">/src/Utils.cpp</text>
</a>
</g>
</g>
<!-- Node2 -->
<g id="Node000002" class="node">
<title>Node2</title>
<g id="a_Node000002"><a xlink:href="_utils_8h.html" target="_top" xlink:title=" ">
<polygon fill="white" stroke="#666666" points="140.38,-76 95.88,-76 95.88,-56 140.38,-56 140.38,-76"/>
<text text-anchor="middle" x="118.12" y="-62.5" font-family="Helvetica,sans-Serif" font-size="10.00">Utils.h</text>
</a>
</g>
</g>
<!-- Node1&#45;&gt;Node2 -->
<g id="edge1_Node000001_Node000002" class="edge">
<title>Node1&#45;&gt;Node2</title>
<g id="a_edge1_Node000001_Node000002"><a xlink:title=" ">
<path fill="none" stroke="#63b8ff" d="M187.01,-111.57C172.36,-102.09 155.46,-91.16 142.06,-82.49"/>
<polygon fill="#63b8ff" stroke="#63b8ff" points="144.17,-79.68 133.87,-77.19 140.36,-85.56 144.17,-79.68"/>
</a>
</g>
</g>
<!-- Node7 -->
<g id="Node000007" class="node">
<title>Node7</title>
<g id="a_Node000007"><a xlink:title=" ">
<polygon fill="#e0e0e0" stroke="#999999" points="214,-76 158.25,-76 158.25,-56 214,-56 214,-76"/>
<text text-anchor="middle" x="186.12" y="-62.5" font-family="Helvetica,sans-Serif" font-size="10.00">algorithm</text>
</a>
</g>
</g>
<!-- Node1&#45;&gt;Node7 -->
<g id="edge6_Node000001_Node000007" class="edge">
<title>Node1&#45;&gt;Node7</title>
<g id="a_edge6_Node000001_Node000007"><a xlink:title=" ">
<path fill="none" stroke="#63b8ff" d="M209.18,-111.75C205.01,-103.66 200.28,-94.48 196.2,-86.55"/>
<polygon fill="#63b8ff" stroke="#63b8ff" points="199.36,-85.05 191.67,-77.76 193.14,-88.26 199.36,-85.05"/>
</a>
</g>
</g>
<!-- Node8 -->
<g id="Node000008" class="node">
<title>Node8</title>
<g id="a_Node000008"><a xlink:title=" ">
<polygon fill="#e0e0e0" stroke="#999999" points="277.75,-76 232.5,-76 232.5,-56 277.75,-56 277.75,-76"/>
<text text-anchor="middle" x="255.12" y="-62.5" font-family="Helvetica,sans-Serif" font-size="10.00">cctype</text>
</a>
</g>
</g>
<!-- Node1&#45;&gt;Node8 -->
<g id="edge7_Node000001_Node000008" class="edge">
<title>Node1&#45;&gt;Node8</title>
<g id="a_edge7_Node000001_Node000008"><a xlink:title=" ">
<path fill="none" stroke="#63b8ff" d="M231.39,-111.75C235.68,-103.66 240.55,-94.48 244.76,-86.55"/>
<polygon fill="#63b8ff" stroke="#63b8ff" points="247.83,-88.23 249.42,-77.76 241.64,-84.95 247.83,-88.23"/>
</a>
</g>
</g>
<!-- Node9 -->
<g id="Node000009" class="node">
<title>Node9</title>
<g id="a_Node000009"><a xlink:title=" ">
<polygon fill="#e0e0e0" stroke="#999999" points="336.88,-76 295.38,-76 295.38,-56 336.88,-56 336.88,-76"/>
<text text-anchor="middle" x="316.12" y="-62.5" font-family="Helvetica,sans-Serif" font-size="10.00">locale</text>
</a>
</g>
</g>
<!-- Node1&#45;&gt;Node9 -->
<g id="edge8_Node000001_Node000009" class="edge">
<title>Node1&#45;&gt;Node9</title>
<g id="a_edge8_Node000001_Node000009"><a xlink:title=" ">
<path fill="none" stroke="#63b8ff" d="M251.29,-111.57C264.94,-102.19 280.68,-91.37 293.22,-82.75"/>
<polygon fill="#63b8ff" stroke="#63b8ff" points="295,-85.77 301.26,-77.22 291.03,-80 295,-85.77"/>
</a>
</g>
</g>
<!-- Node3 -->
<g id="Node000003" class="node">
<title>Node3</title>
<g id="a_Node000003"><a xlink:title=" ">
<polygon fill="#e0e0e0" stroke="#999999" points="48.25,-20 0,-20 0,0 48.25,0 48.25,-20"/>
<text text-anchor="middle" x="24.12" y="-6.5" font-family="Helvetica,sans-Serif" font-size="10.00">stdint.h</text>
</a>
</g>
</g>
<!-- Node2&#45;&gt;Node3 -->
<g id="edge2_Node000002_Node000003" class="edge">
<title>Node2&#45;&gt;Node3</title>
<g id="a_edge2_Node000002_Node000003"><a xlink:title=" ">
<path fill="none" stroke="#63b8ff" d="M101.75,-55.59C87.55,-47.44 66.74,-35.48 50.24,-26"/>
<polygon fill="#63b8ff" stroke="#63b8ff" points="52.35,-23.18 41.94,-21.23 48.87,-29.25 52.35,-23.18"/>
</a>
</g>
</g>
<!-- Node4 -->
<g id="Node000004" class="node">
<title>Node4</title>
<g id="a_Node000004"><a xlink:title=" ">
<polygon fill="#e0e0e0" stroke="#999999" points="106.12,-20 66.12,-20 66.12,0 106.12,0 106.12,-20"/>
<text text-anchor="middle" x="86.12" y="-6.5" font-family="Helvetica,sans-Serif" font-size="10.00">string</text>
</a>
</g>
</g>
<!-- Node2&#45;&gt;Node4 -->
<g id="edge3_Node000002_Node000004" class="edge">
<title>Node2&#45;&gt;Node4</title>
<g id="a_edge3_Node000002_Node000004"><a xlink:title=" ">
<path fill="none" stroke="#63b8ff" d="M112.55,-55.59C108.38,-48.55 102.52,-38.67 97.38,-30"/>
<polygon fill="#63b8ff" stroke="#63b8ff" points="100.52,-28.42 92.41,-21.6 94.49,-31.99 100.52,-28.42"/>
</a>
</g>
</g>
<!-- Node5 -->
<g id="Node000005" class="node">
<title>Node5</title>
<g id="a_Node000005"><a xlink:title=" ">
<polygon fill="#e0e0e0" stroke="#999999" points="175.75,-20 124.5,-20 124.5,0 175.75,0 175.75,-20"/>
<text text-anchor="middle" x="150.12" y="-6.5" font-family="Helvetica,sans-Serif" font-size="10.00">sstream</text>
</a>
</g>
</g>
<!-- Node2&#45;&gt;Node5 -->
<g id="edge4_Node000002_Node000005" class="edge">
<title>Node2&#45;&gt;Node5</title>
<g id="a_edge4_Node000002_Node000005"><a xlink:title=" ">
<path fill="none" stroke="#63b8ff" d="M123.7,-55.59C127.87,-48.55 133.73,-38.67 138.87,-30"/>
<polygon fill="#63b8ff" stroke="#63b8ff" points="141.76,-31.99 143.84,-21.6 135.73,-28.42 141.76,-31.99"/>
</a>
</g>
</g>
<!-- Node6 -->
<g id="Node000006" class="node">
<title>Node6</title>
<g id="a_Node000006"><a xlink:href="_d_l_l_8h.html" target="_top" xlink:title=" ">
<polygon fill="white" stroke="#666666" points="236.25,-20 194,-20 194,0 236.25,0 236.25,-20"/>
<text text-anchor="middle" x="215.12" y="-6.5" font-family="Helvetica,sans-Serif" font-size="10.00">DLL.h</text>
</a>
</g>
</g>
<!-- Node2&#45;&gt;Node6 -->
<g id="edge5_Node000002_Node000006" class="edge">
<title>Node2&#45;&gt;Node6</title>
<g id="a_edge5_Node000002_Node000006"><a xlink:title=" ">
<path fill="none" stroke="#63b8ff" d="M135.02,-55.59C149.67,-47.44 171.15,-35.48 188.17,-26"/>
<polygon fill="#63b8ff" stroke="#63b8ff" points="189.74,-29.14 196.77,-21.22 186.33,-23.02 189.74,-29.14"/>
</a>
</g>
</g>
</g>
</svg>
