<?xml version="1.0" encoding="UTF-8" standalone="no"?>
<!DOCTYPE svg PUBLIC "-//W3C//DTD SVG 1.1//EN"
 "http://www.w3.org/Graphics/SVG/1.1/DTD/svg11.dtd">
<!-- Generated by graphviz version 12.2.1 (20241206.2353)
 -->
<!-- Title: C:/Users/emilly/Documents/Lucca/Projetos/Cpp/NikiScript/src/Utils.h Pages: 1 -->
<svg width="1341pt" height="372pt"
 viewBox="0.00 0.00 1341.00 372.00" xmlns="http://www.w3.org/2000/svg" xmlns:xlink="http://www.w3.org/1999/xlink">
<g id="graph0" class="graph" transform="scale(1 1) rotate(0) translate(4 368)">
<title>C:/Users/emilly/Documents/Lucca/Projetos/Cpp/NikiScript/src/Utils.h</title>
<!-- Node1 -->
<g id="Node000001" class="node">
<title>Node1</title>
<g id="a_Node000001"><a xlink:title=" ">
<polygon fill="#999999" stroke="#666666" points="937,-364 786,-364 786,-320 937,-320 937,-364"/>
<text text-anchor="start" x="794" y="-350.5" font-family="Helvetica,sans-Serif" font-size="10.00">C:/Users/emilly/Documents</text>
<text text-anchor="start" x="794" y="-338.5" font-family="Helvetica,sans-Serif" font-size="10.00">/Lucca/Projetos/Cpp/NikiScript</text>
<text text-anchor="middle" x="861.5" y="-326.5" font-family="Helvetica,sans-Serif" font-size="10.00">/src/Utils.h</text>
</a>
</g>
</g>
<!-- Node2 -->
<g id="Node000002" class="node">
<title>Node2</title>
<g id="a_Node000002"><a xlink:href="_niki_script_8cpp.html" target="_top" xlink:title=" ">
<polygon fill="white" stroke="#666666" points="372,-44 221,-44 221,0 372,0 372,-44"/>
<text text-anchor="start" x="229" y="-30.5" font-family="Helvetica,sans-Serif" font-size="10.00">C:/Users/emilly/Documents</text>
<text text-anchor="start" x="229" y="-18.5" font-family="Helvetica,sans-Serif" font-size="10.00">/Lucca/Projetos/Cpp/NikiScript</text>
<text text-anchor="middle" x="296.5" y="-6.5" font-family="Helvetica,sans-Serif" font-size="10.00">/src/NikiScript.cpp</text>
</a>
</g>
</g>
<!-- Node1&#45;&gt;Node2 -->
<g id="edge1_Node000001_Node000002" class="edge">
<title>Node1&#45;&gt;Node2</title>
<g id="a_edge1_Node000001_Node000002"><a xlink:title=" ">
<path fill="none" stroke="#63b8ff" d="M774.22,-335.44C686.73,-328.46 548.69,-313.62 432.5,-284 336.52,-259.53 316.08,-241.72 224.5,-204 142.8,-170.35 90.8,-197.99 42.5,-124 31.81,-107.62 30.28,-95.27 42.5,-80 53.78,-65.91 149.89,-47.21 220.57,-35.14"/>
<polygon fill="#63b8ff" stroke="#63b8ff" points="773.95,-338.93 784.19,-336.22 774.49,-331.95 773.95,-338.93"/>
</a>
</g>
</g>
<!-- Node3 -->
<g id="Node000003" class="node">
<title>Node3</title>
<g id="a_Node000003"><a xlink:href="_print_callback_8h.html" target="_top" xlink:title=" ">
<polygon fill="white" stroke="#666666" points="593,-284 442,-284 442,-240 593,-240 593,-284"/>
<text text-anchor="start" x="450" y="-270.5" font-family="Helvetica,sans-Serif" font-size="10.00">C:/Users/emilly/Documents</text>
<text text-anchor="start" x="450" y="-258.5" font-family="Helvetica,sans-Serif" font-size="10.00">/Lucca/Projetos/Cpp/NikiScript</text>
<text text-anchor="middle" x="517.5" y="-246.5" font-family="Helvetica,sans-Serif" font-size="10.00">/src/PrintCallback.h</text>
</a>
</g>
</g>
<!-- Node1&#45;&gt;Node3 -->
<g id="edge2_Node000001_Node000003" class="edge">
<title>Node1&#45;&gt;Node3</title>
<g id="a_edge2_Node000001_Node000003"><a xlink:title=" ">
<path fill="none" stroke="#63b8ff" d="M774.63,-321.3C718.73,-308.63 646.79,-292.32 593.22,-280.17"/>
<polygon fill="#63b8ff" stroke="#63b8ff" points="773.58,-324.65 784.11,-323.45 775.13,-317.83 773.58,-324.65"/>
</a>
</g>
</g>
<!-- Node13 -->
<g id="Node000013" class="node">
<title>Node13</title>
<g id="a_Node000013"><a xlink:href="_program_variable_8cpp.html" target="_top" xlink:title=" ">
<polygon fill="white" stroke="#666666" points="1295,-124 1144,-124 1144,-80 1295,-80 1295,-124"/>
<text text-anchor="start" x="1152" y="-110.5" font-family="Helvetica,sans-Serif" font-size="10.00">C:/Users/emilly/Documents</text>
<text text-anchor="start" x="1152" y="-98.5" font-family="Helvetica,sans-Serif" font-size="10.00">/Lucca/Projetos/Cpp/NikiScript</text>
<text text-anchor="middle" x="1219.5" y="-86.5" font-family="Helvetica,sans-Serif" font-size="10.00">/src/ProgramVariable.cpp</text>
</a>
</g>
</g>
<!-- Node1&#45;&gt;Node13 -->
<g id="edge22_Node000001_Node000013" class="edge">
<title>Node1&#45;&gt;Node13</title>
<g id="a_edge22_Node000001_Node000013"><a xlink:title=" ">
<path fill="none" stroke="#63b8ff" d="M902.83,-313.52C974.94,-265.58 1122.27,-167.64 1187.36,-124.37"/>
<polygon fill="#63b8ff" stroke="#63b8ff" points="901.24,-310.38 894.85,-318.83 905.11,-316.21 901.24,-310.38"/>
</a>
</g>
</g>
<!-- Node16 -->
<g id="Node000016" class="node">
<title>Node16</title>
<g id="a_Node000016"><a xlink:href="_utils_8cpp.html" target="_top" xlink:title=" ">
<polygon fill="white" stroke="#666666" points="1333,-284 1182,-284 1182,-240 1333,-240 1333,-284"/>
<text text-anchor="start" x="1190" y="-270.5" font-family="Helvetica,sans-Serif" font-size="10.00">C:/Users/emilly/Documents</text>
<text text-anchor="start" x="1190" y="-258.5" font-family="Helvetica,sans-Serif" font-size="10.00">/Lucca/Projetos/Cpp/NikiScript</text>
<text text-anchor="middle" x="1257.5" y="-246.5" font-family="Helvetica,sans-Serif" font-size="10.00">/src/Utils.cpp</text>
</a>
</g>
</g>
<!-- Node1&#45;&gt;Node16 -->
<g id="edge23_Node000001_Node000016" class="edge">
<title>Node1&#45;&gt;Node16</title>
<g id="a_edge23_Node000001_Node000016"><a xlink:title=" ">
<path fill="none" stroke="#63b8ff" d="M948.64,-325.85C1009.98,-314.92 1093.94,-299.43 1167.5,-284 1172.21,-283.01 1177.05,-281.97 1181.93,-280.89"/>
<polygon fill="#63b8ff" stroke="#63b8ff" points="948.18,-322.37 938.94,-327.57 949.4,-329.27 948.18,-322.37"/>
</a>
</g>
</g>
<!-- Node4 -->
<g id="Node000004" class="node">
<title>Node4</title>
<g id="a_Node000004"><a xlink:href="example_8cpp.html" target="_top" xlink:title=" ">
<polygon fill="white" stroke="#666666" points="762,-44 611,-44 611,0 762,0 762,-44"/>
<text text-anchor="start" x="619" y="-30.5" font-family="Helvetica,sans-Serif" font-size="10.00">C:/Users/emilly/Documents</text>
<text text-anchor="start" x="619" y="-18.5" font-family="Helvetica,sans-Serif" font-size="10.00">/Lucca/Projetos/Cpp/NikiScript</text>
<text text-anchor="middle" x="686.5" y="-6.5" font-family="Helvetica,sans-Serif" font-size="10.00">/example/src/example.cpp</text>
</a>
</g>
</g>
<!-- Node3&#45;&gt;Node4 -->
<g id="edge3_Node000003_Node000004" class="edge">
<title>Node3&#45;&gt;Node4</title>
<g id="a_edge3_Node000003_Node000004"><a xlink:title=" ">
<path fill="none" stroke="#63b8ff" d="M604.58,-253.42C751,-238.66 1036.43,-200.59 1096.5,-124 1108.57,-108.61 1109.34,-94.75 1096.5,-80 1054.03,-31.22 868.59,-22.86 762.22,-22.19"/>
<polygon fill="#63b8ff" stroke="#63b8ff" points="604.54,-249.91 594.94,-254.38 605.23,-256.87 604.54,-249.91"/>
</a>
</g>
</g>
<!-- Node5 -->
<g id="Node000005" class="node">
<title>Node5</title>
<g id="a_Node000005"><a xlink:href="_command_8cpp.html" target="_top" xlink:title=" ">
<polygon fill="white" stroke="#666666" points="385,-204 234,-204 234,-160 385,-160 385,-204"/>
<text text-anchor="start" x="242" y="-190.5" font-family="Helvetica,sans-Serif" font-size="10.00">C:/Users/emilly/Documents</text>
<text text-anchor="start" x="242" y="-178.5" font-family="Helvetica,sans-Serif" font-size="10.00">/Lucca/Projetos/Cpp/NikiScript</text>
<text text-anchor="middle" x="309.5" y="-166.5" font-family="Helvetica,sans-Serif" font-size="10.00">/src/Command.cpp</text>
</a>
</g>
</g>
<!-- Node3&#45;&gt;Node5 -->
<g id="edge4_Node000003_Node000005" class="edge">
<title>Node3&#45;&gt;Node5</title>
<g id="a_edge4_Node000003_Node000005"><a xlink:title=" ">
<path fill="none" stroke="#63b8ff" d="M449.88,-235.64C422.94,-225.54 392.27,-214.04 366.48,-204.37"/>
<polygon fill="#63b8ff" stroke="#63b8ff" points="448.38,-238.82 458.97,-239.05 450.84,-232.26 448.38,-238.82"/>
</a>
</g>
</g>
<!-- Node6 -->
<g id="Node000006" class="node">
<title>Node6</title>
<g id="a_Node000006"><a xlink:href="_context_8h.html" target="_top" xlink:title=" ">
<polygon fill="white" stroke="#666666" points="762,-204 611,-204 611,-160 762,-160 762,-204"/>
<text text-anchor="start" x="619" y="-190.5" font-family="Helvetica,sans-Serif" font-size="10.00">C:/Users/emilly/Documents</text>
<text text-anchor="start" x="619" y="-178.5" font-family="Helvetica,sans-Serif" font-size="10.00">/Lucca/Projetos/Cpp/NikiScript</text>
<text text-anchor="middle" x="686.5" y="-166.5" font-family="Helvetica,sans-Serif" font-size="10.00">/src/Context.h</text>
</a>
</g>
</g>
<!-- Node3&#45;&gt;Node6 -->
<g id="edge5_Node000003_Node000006" class="edge">
<title>Node3&#45;&gt;Node6</title>
<g id="a_edge5_Node000003_Node000006"><a xlink:title=" ">
<path fill="none" stroke="#63b8ff" d="M573.97,-234.93C595.45,-225.02 619.64,-213.86 640.08,-204.42"/>
<polygon fill="#63b8ff" stroke="#63b8ff" points="572.67,-231.68 565.05,-239.05 575.6,-238.04 572.67,-231.68"/>
</a>
</g>
</g>
<!-- Node9 -->
<g id="Node000009" class="node">
<title>Node9</title>
<g id="a_Node000009"><a xlink:href="_lexer_8cpp.html" target="_top" xlink:title=" ">
<polygon fill="white" stroke="#666666" points="203,-124 52,-124 52,-80 203,-80 203,-124"/>
<text text-anchor="start" x="60" y="-110.5" font-family="Helvetica,sans-Serif" font-size="10.00">C:/Users/emilly/Documents</text>
<text text-anchor="start" x="60" y="-98.5" font-family="Helvetica,sans-Serif" font-size="10.00">/Lucca/Projetos/Cpp/NikiScript</text>
<text text-anchor="middle" x="127.5" y="-86.5" font-family="Helvetica,sans-Serif" font-size="10.00">/src/Lexer.cpp</text>
</a>
</g>
</g>
<!-- Node3&#45;&gt;Node9 -->
<g id="edge19_Node000003_Node000009" class="edge">
<title>Node3&#45;&gt;Node9</title>
<g id="a_edge19_Node000003_Node000009"><a xlink:title=" ">
<path fill="none" stroke="#63b8ff" d="M471.87,-233.49C458.66,-224.72 444.56,-214.54 432.5,-204 412.82,-186.81 416.17,-172.99 393.5,-160 321.96,-119 291.97,-142 211.5,-124 208.86,-123.41 206.18,-122.8 203.47,-122.17"/>
<polygon fill="#63b8ff" stroke="#63b8ff" points="469.74,-236.27 480.03,-238.79 473.55,-230.4 469.74,-236.27"/>
</a>
</g>
</g>
<!-- Node12 -->
<g id="Node000012" class="node">
<title>Node12</title>
<g id="a_Node000012"><a xlink:href="_parser_8cpp.html" target="_top" xlink:title=" ">
<polygon fill="white" stroke="#666666" points="151,-44 0,-44 0,0 151,0 151,-44"/>
<text text-anchor="start" x="8" y="-30.5" font-family="Helvetica,sans-Serif" font-size="10.00">C:/Users/emilly/Documents</text>
<text text-anchor="start" x="8" y="-18.5" font-family="Helvetica,sans-Serif" font-size="10.00">/Lucca/Projetos/Cpp/NikiScript</text>
<text text-anchor="middle" x="75.5" y="-6.5" font-family="Helvetica,sans-Serif" font-size="10.00">/src/Parser.cpp</text>
</a>
</g>
</g>
<!-- Node3&#45;&gt;Node12 -->
<g id="edge20_Node000003_Node000012" class="edge">
<title>Node3&#45;&gt;Node12</title>
<g id="a_edge20_Node000003_Node000012"><a xlink:title=" ">
<path fill="none" stroke="#63b8ff" d="M430.59,-249.45C305.5,-230.72 85.02,-189.14 42.5,-124 26.27,-99.13 43.5,-65.59 58.53,-44.13"/>
<polygon fill="#63b8ff" stroke="#63b8ff" points="429.75,-252.86 440.15,-250.86 430.77,-245.94 429.75,-252.86"/>
</a>
</g>
</g>
<!-- Node15 -->
<g id="Node000015" class="node">
<title>Node15</title>
<g id="a_Node000015"><a xlink:href="_print_callback_8cpp.html" target="_top" xlink:title=" ">
<polygon fill="white" stroke="#666666" points="593,-204 442,-204 442,-160 593,-160 593,-204"/>
<text text-anchor="start" x="450" y="-190.5" font-family="Helvetica,sans-Serif" font-size="10.00">C:/Users/emilly/Documents</text>
<text text-anchor="start" x="450" y="-178.5" font-family="Helvetica,sans-Serif" font-size="10.00">/Lucca/Projetos/Cpp/NikiScript</text>
<text text-anchor="middle" x="517.5" y="-166.5" font-family="Helvetica,sans-Serif" font-size="10.00">/src/PrintCallback.cpp</text>
</a>
</g>
</g>
<!-- Node3&#45;&gt;Node15 -->
<g id="edge21_Node000003_Node000015" class="edge">
<title>Node3&#45;&gt;Node15</title>
<g id="a_edge21_Node000003_Node000015"><a xlink:title=" ">
<path fill="none" stroke="#63b8ff" d="M517.5,-228.25C517.5,-220.15 517.5,-211.68 517.5,-204.29"/>
<polygon fill="#63b8ff" stroke="#63b8ff" points="514,-228.17 517.5,-238.17 521,-228.17 514,-228.17"/>
</a>
</g>
</g>
<!-- Node6&#45;&gt;Node4 -->
<g id="edge6_Node000006_Node000004" class="edge">
<title>Node6&#45;&gt;Node4</title>
<g id="a_edge6_Node000006_Node000004"><a xlink:title=" ">
<path fill="none" stroke="#63b8ff" d="M707.68,-149.93C712.13,-141.83 716.18,-132.88 718.5,-124 723.45,-105.08 723.45,-98.92 718.5,-80 715.2,-67.37 708.41,-54.59 701.92,-44.34"/>
<polygon fill="#63b8ff" stroke="#63b8ff" points="704.77,-147.97 702.69,-158.36 710.8,-151.54 704.77,-147.97"/>
</a>
</g>
</g>
<!-- Node7 -->
<g id="Node000007" class="node">
<title>Node7</title>
<g id="a_Node000007"><a xlink:href="_command_handler_8cpp.html" target="_top" xlink:title=" ">
<polygon fill="white" stroke="#666666" points="918,-124 767,-124 767,-80 918,-80 918,-124"/>
<text text-anchor="start" x="775" y="-110.5" font-family="Helvetica,sans-Serif" font-size="10.00">C:/Users/emilly/Documents</text>
<text text-anchor="start" x="775" y="-98.5" font-family="Helvetica,sans-Serif" font-size="10.00">/Lucca/Projetos/Cpp/NikiScript</text>
<text text-anchor="middle" x="842.5" y="-86.5" font-family="Helvetica,sans-Serif" font-size="10.00">/src/CommandHandler.cpp</text>
</a>
</g>
</g>
<!-- Node6&#45;&gt;Node7 -->
<g id="edge7_Node000006_Node000007" class="edge">
<title>Node6&#45;&gt;Node7</title>
<g id="a_edge7_Node000006_Node000007"><a xlink:title=" ">
<path fill="none" stroke="#63b8ff" d="M739.17,-154.66C758.86,-144.82 780.96,-133.77 799.65,-124.42"/>
<polygon fill="#63b8ff" stroke="#63b8ff" points="737.86,-151.41 730.48,-159.01 740.99,-157.67 737.86,-151.41"/>
</a>
</g>
</g>
<!-- Node8 -->
<g id="Node000008" class="node">
<title>Node8</title>
<g id="a_Node000008"><a xlink:href="_context_8cpp.html" target="_top" xlink:title=" ">
<polygon fill="white" stroke="#666666" points="1087,-124 936,-124 936,-80 1087,-80 1087,-124"/>
<text text-anchor="start" x="944" y="-110.5" font-family="Helvetica,sans-Serif" font-size="10.00">C:/Users/emilly/Documents</text>
<text text-anchor="start" x="944" y="-98.5" font-family="Helvetica,sans-Serif" font-size="10.00">/Lucca/Projetos/Cpp/NikiScript</text>
<text text-anchor="middle" x="1011.5" y="-86.5" font-family="Helvetica,sans-Serif" font-size="10.00">/src/Context.cpp</text>
</a>
</g>
</g>
<!-- Node6&#45;&gt;Node8 -->
<g id="edge8_Node000006_Node000008" class="edge">
<title>Node6&#45;&gt;Node8</title>
<g id="a_edge8_Node000006_Node000008"><a xlink:title=" ">
<path fill="none" stroke="#63b8ff" d="M773.51,-160.53C819.1,-149.76 875.84,-136.27 926.5,-124 929.45,-123.28 932.47,-122.55 935.51,-121.81"/>
<polygon fill="#63b8ff" stroke="#63b8ff" points="772.88,-157.09 763.95,-162.79 774.49,-163.9 772.88,-157.09"/>
</a>
</g>
</g>
<!-- Node6&#45;&gt;Node9 -->
<g id="edge9_Node000006_Node000009" class="edge">
<title>Node6&#45;&gt;Node9</title>
<g id="a_edge9_Node000006_Node000009"><a xlink:title=" ">
<path fill="none" stroke="#63b8ff" d="M599.41,-159.79C427.84,-131.95 379.5,-152.58 211.5,-124 208.83,-123.55 206.12,-123.05 203.4,-122.53"/>
<polygon fill="#63b8ff" stroke="#63b8ff" points="598.69,-163.22 609.13,-161.41 599.83,-156.32 598.69,-163.22"/>
</a>
</g>
</g>
<!-- Node10 -->
<g id="Node000010" class="node">
<title>Node10</title>
<g id="a_Node000010"><a xlink:href="_niki_script_8h.html" target="_top" xlink:title=" ">
<polygon fill="white" stroke="#666666" points="710,-124 559,-124 559,-80 710,-80 710,-124"/>
<text text-anchor="start" x="567" y="-110.5" font-family="Helvetica,sans-Serif" font-size="10.00">C:/Users/emilly/Documents</text>
<text text-anchor="start" x="567" y="-98.5" font-family="Helvetica,sans-Serif" font-size="10.00">/Lucca/Projetos/Cpp/NikiScript</text>
<text text-anchor="middle" x="634.5" y="-86.5" font-family="Helvetica,sans-Serif" font-size="10.00">/src/NikiScript.h</text>
</a>
</g>
</g>
<!-- Node6&#45;&gt;Node10 -->
<g id="edge10_Node000006_Node000010" class="edge">
<title>Node6&#45;&gt;Node10</title>
<g id="a_edge10_Node000006_Node000010"><a xlink:title=" ">
<path fill="none" stroke="#63b8ff" d="M665.98,-150.22C660.19,-141.54 654.02,-132.28 648.69,-124.29"/>
<polygon fill="#63b8ff" stroke="#63b8ff" points="662.99,-152.05 671.45,-158.43 668.82,-148.16 662.99,-152.05"/>
</a>
</g>
</g>
<!-- Node11 -->
<g id="Node000011" class="node">
<title>Node11</title>
<g id="a_Node000011"><a xlink:href="_parser_8h.html" target="_top" xlink:title=" ">
<polygon fill="white" stroke="#666666" points="372,-124 221,-124 221,-80 372,-80 372,-124"/>
<text text-anchor="start" x="229" y="-110.5" font-family="Helvetica,sans-Serif" font-size="10.00">C:/Users/emilly/Documents</text>
<text text-anchor="start" x="229" y="-98.5" font-family="Helvetica,sans-Serif" font-size="10.00">/Lucca/Projetos/Cpp/NikiScript</text>
<text text-anchor="middle" x="296.5" y="-86.5" font-family="Helvetica,sans-Serif" font-size="10.00">/src/Parser.h</text>
</a>
</g>
</g>
<!-- Node6&#45;&gt;Node11 -->
<g id="edge13_Node000006_Node000011" class="edge">
<title>Node6&#45;&gt;Node11</title>
<g id="a_edge13_Node000006_Node000011"><a xlink:title=" ">
<path fill="none" stroke="#63b8ff" d="M599.33,-159.65C502.03,-140.31 474.45,-143.36 380.5,-124 377.85,-123.45 375.16,-122.88 372.44,-122.29"/>
<polygon fill="#63b8ff" stroke="#63b8ff" points="598.59,-163.07 609.09,-161.62 599.98,-156.21 598.59,-163.07"/>
</a>
</g>
</g>
<!-- Node6&#45;&gt;Node13 -->
<g id="edge17_Node000006_Node000013" class="edge">
<title>Node6&#45;&gt;Node13</title>
<g id="a_edge17_Node000006_Node000013"><a xlink:title=" ">
<path fill="none" stroke="#63b8ff" d="M773.58,-169.69C856.66,-158.71 985.26,-141.22 1096.5,-124 1111.81,-121.63 1128.16,-118.95 1143.78,-116.31"/>
<polygon fill="#63b8ff" stroke="#63b8ff" points="773.13,-166.22 763.67,-171 774.04,-173.16 773.13,-166.22"/>
</a>
</g>
</g>
<!-- Node14 -->
<g id="Node000014" class="node">
<title>Node14</title>
<g id="a_Node000014"><a xlink:href="_token_8cpp.html" target="_top" xlink:title=" ">
<polygon fill="white" stroke="#666666" points="541,-124 390,-124 390,-80 541,-80 541,-124"/>
<text text-anchor="start" x="398" y="-110.5" font-family="Helvetica,sans-Serif" font-size="10.00">C:/Users/emilly/Documents</text>
<text text-anchor="start" x="398" y="-98.5" font-family="Helvetica,sans-Serif" font-size="10.00">/Lucca/Projetos/Cpp/NikiScript</text>
<text text-anchor="middle" x="465.5" y="-86.5" font-family="Helvetica,sans-Serif" font-size="10.00">/src/Token.cpp</text>
</a>
</g>
</g>
<!-- Node6&#45;&gt;Node14 -->
<g id="edge18_Node000006_Node000014" class="edge">
<title>Node6&#45;&gt;Node14</title>
<g id="a_edge18_Node000006_Node000014"><a xlink:title=" ">
<path fill="none" stroke="#63b8ff" d="M615.03,-155.78C586.31,-145.64 553.56,-134.08 526.05,-124.37"/>
<polygon fill="#63b8ff" stroke="#63b8ff" points="613.8,-159.05 624.39,-159.08 616.13,-152.45 613.8,-159.05"/>
</a>
</g>
</g>
<!-- Node10&#45;&gt;Node2 -->
<g id="edge12_Node000010_Node000002" class="edge">
<title>Node10&#45;&gt;Node2</title>
<g id="a_edge12_Node000010_Node000002"><a xlink:title=" ">
<path fill="none" stroke="#63b8ff" d="M547.71,-79.6C483.06,-64.39 420.07,-50.24 372.43,-39.68"/>
<polygon fill="#63b8ff" stroke="#63b8ff" points="546.51,-82.91 557.05,-81.8 548.12,-76.1 546.51,-82.91"/>
</a>
</g>
</g>
<!-- Node10&#45;&gt;Node4 -->
<g id="edge11_Node000010_Node000004" class="edge">
<title>Node10&#45;&gt;Node4</title>
<g id="a_edge11_Node000010_Node000004"><a xlink:title=" ">
<path fill="none" stroke="#63b8ff" d="M655.02,-70.22C660.81,-61.54 666.98,-52.28 672.31,-44.29"/>
<polygon fill="#63b8ff" stroke="#63b8ff" points="652.18,-68.16 649.55,-78.43 658.01,-72.05 652.18,-68.16"/>
</a>
</g>
</g>
<!-- Node11&#45;&gt;Node2 -->
<g id="edge15_Node000011_Node000002" class="edge">
<title>Node11&#45;&gt;Node2</title>
<g id="a_edge15_Node000011_Node000002"><a xlink:title=" ">
<path fill="none" stroke="#63b8ff" d="M296.5,-68.25C296.5,-60.15 296.5,-51.68 296.5,-44.29"/>
<polygon fill="#63b8ff" stroke="#63b8ff" points="293,-68.17 296.5,-78.17 300,-68.17 293,-68.17"/>
</a>
</g>
</g>
<!-- Node11&#45;&gt;Node4 -->
<g id="edge14_Node000011_Node000004" class="edge">
<title>Node11&#45;&gt;Node4</title>
<g id="a_edge14_Node000011_Node000004"><a xlink:title=" ">
<path fill="none" stroke="#63b8ff" d="M383.59,-79.38C466.33,-61.57 551.38,-46.12 610.79,-35.78"/>
<polygon fill="#63b8ff" stroke="#63b8ff" points="382.97,-75.93 373.94,-81.47 384.45,-82.77 382.97,-75.93"/>
</a>
</g>
</g>
<!-- Node11&#45;&gt;Node12 -->
<g id="edge16_Node000011_Node000012" class="edge">
<title>Node11&#45;&gt;Node12</title>
<g id="a_edge16_Node000011_Node000012"><a xlink:title=" ">
<path fill="none" stroke="#63b8ff" d="M225.03,-75.78C196.31,-65.64 163.56,-54.08 136.05,-44.37"/>
<polygon fill="#63b8ff" stroke="#63b8ff" points="223.8,-79.05 234.39,-79.08 226.13,-72.45 223.8,-79.05"/>
</a>
</g>
</g>
</g>
</svg>
