<?xml version="1.0" encoding="UTF-8" standalone="no"?>
<!DOCTYPE svg PUBLIC "-//W3C//DTD SVG 1.1//EN"
 "http://www.w3.org/Graphics/SVG/1.1/DTD/svg11.dtd">
<!-- Generated by graphviz version 12.2.1 (20241206.2353)
 -->
<!-- Title: C:/Users/emilly/Documents/Lucca/Projetos/Cpp/NikiScript/include/NikiScript/Utils.h Pages: 1 -->
<svg width="1325pt" height="372pt"
 viewBox="0.00 0.00 1325.43 372.00" xmlns="http://www.w3.org/2000/svg" xmlns:xlink="http://www.w3.org/1999/xlink">
<g id="graph0" class="graph" transform="scale(1 1) rotate(0) translate(4 368)">
<title>C:/Users/emilly/Documents/Lucca/Projetos/Cpp/NikiScript/include/NikiScript/Utils.h</title>
<!-- Node1 -->
<g id="Node000001" class="node">
<title>Node1</title>
<g id="a_Node000001"><a xlink:title=" ">
<polygon fill="#999999" stroke="#666666" points="1044.43,-364 893.43,-364 893.43,-320 1044.43,-320 1044.43,-364"/>
<text text-anchor="start" x="901.43" y="-350.5" font-family="Helvetica,sans-Serif" font-size="10.00">C:/Users/emilly/Documents</text>
<text text-anchor="start" x="901.43" y="-338.5" font-family="Helvetica,sans-Serif" font-size="10.00">/Lucca/Projetos/Cpp/NikiScript</text>
<text text-anchor="middle" x="968.93" y="-326.5" font-family="Helvetica,sans-Serif" font-size="10.00">/include/NikiScript/Utils.h</text>
</a>
</g>
</g>
<!-- Node2 -->
<g id="Node000002" class="node">
<title>Node2</title>
<g id="a_Node000002"><a xlink:href="_print_callback_8h.html" target="_top" xlink:title=" ">
<polygon fill="white" stroke="#666666" points="806.55,-284 641.3,-284 641.3,-240 806.55,-240 806.55,-284"/>
<text text-anchor="start" x="649.3" y="-270.5" font-family="Helvetica,sans-Serif" font-size="10.00">C:/Users/emilly/Documents</text>
<text text-anchor="start" x="649.3" y="-258.5" font-family="Helvetica,sans-Serif" font-size="10.00">/Lucca/Projetos/Cpp/NikiScript</text>
<text text-anchor="middle" x="723.93" y="-246.5" font-family="Helvetica,sans-Serif" font-size="10.00">/include/NikiScript/PrintCallback.h</text>
</a>
</g>
</g>
<!-- Node1&#45;&gt;Node2 -->
<g id="edge1_Node000001_Node000002" class="edge">
<title>Node1&#45;&gt;Node2</title>
<g id="a_edge1_Node000001_Node000002"><a xlink:title=" ">
<path fill="none" stroke="#63b8ff" d="M890.96,-316.18C858.82,-305.95 821.96,-294.21 791.05,-284.37"/>
<polygon fill="#63b8ff" stroke="#63b8ff" points="889.62,-319.43 900.21,-319.12 891.75,-312.76 889.62,-319.43"/>
</a>
</g>
</g>
<!-- Node5 -->
<g id="Node000005" class="node">
<title>Node5</title>
<g id="a_Node000005"><a xlink:href="_niki_script_8cpp.html" target="_top" xlink:title=" ">
<polygon fill="white" stroke="#666666" points="168.43,-44 17.43,-44 17.43,0 168.43,0 168.43,-44"/>
<text text-anchor="start" x="25.43" y="-30.5" font-family="Helvetica,sans-Serif" font-size="10.00">C:/Users/emilly/Documents</text>
<text text-anchor="start" x="25.43" y="-18.5" font-family="Helvetica,sans-Serif" font-size="10.00">/Lucca/Projetos/Cpp/NikiScript</text>
<text text-anchor="middle" x="92.93" y="-6.5" font-family="Helvetica,sans-Serif" font-size="10.00">/src/NikiScript.cpp</text>
</a>
</g>
</g>
<!-- Node1&#45;&gt;Node5 -->
<g id="edge18_Node000001_Node000005" class="edge">
<title>Node1&#45;&gt;Node5</title>
<g id="a_edge18_Node000001_Node000005"><a xlink:title=" ">
<path fill="none" stroke="#63b8ff" d="M881.9,-335.43C665.19,-319.5 111.43,-265.46 7.93,-124 -3.62,-108.22 -1.28,-97.25 7.93,-80 15.96,-64.95 29.92,-53.17 44.23,-44.33"/>
<polygon fill="#63b8ff" stroke="#63b8ff" points="881.46,-338.91 891.69,-336.14 881.97,-331.93 881.46,-338.91"/>
</a>
</g>
</g>
<!-- Node11 -->
<g id="Node000011" class="node">
<title>Node11</title>
<g id="a_Node000011"><a xlink:href="_program_variable_8cpp.html" target="_top" xlink:title=" ">
<polygon fill="white" stroke="#666666" points="922.43,-124 771.43,-124 771.43,-80 922.43,-80 922.43,-124"/>
<text text-anchor="start" x="779.43" y="-110.5" font-family="Helvetica,sans-Serif" font-size="10.00">C:/Users/emilly/Documents</text>
<text text-anchor="start" x="779.43" y="-98.5" font-family="Helvetica,sans-Serif" font-size="10.00">/Lucca/Projetos/Cpp/NikiScript</text>
<text text-anchor="middle" x="846.93" y="-86.5" font-family="Helvetica,sans-Serif" font-size="10.00">/src/ProgramVariable.cpp</text>
</a>
</g>
</g>
<!-- Node1&#45;&gt;Node11 -->
<g id="edge19_Node000001_Node000011" class="edge">
<title>Node1&#45;&gt;Node11</title>
<g id="a_edge19_Node000001_Node000011"><a xlink:title=" ">
<path fill="none" stroke="#63b8ff" d="M958.59,-309.04C945.87,-271.83 922.3,-209.19 892.93,-160 885.43,-147.44 875.39,-134.67 866.6,-124.4"/>
<polygon fill="#63b8ff" stroke="#63b8ff" points="955.2,-309.93 961.7,-318.29 961.83,-307.7 955.2,-309.93"/>
</a>
</g>
</g>
<!-- Node14 -->
<g id="Node000014" class="node">
<title>Node14</title>
<g id="a_Node000014"><a xlink:href="_lexer_8cpp.html" target="_top" xlink:title=" ">
<polygon fill="white" stroke="#666666" points="1148.43,-284 997.43,-284 997.43,-240 1148.43,-240 1148.43,-284"/>
<text text-anchor="start" x="1005.43" y="-270.5" font-family="Helvetica,sans-Serif" font-size="10.00">C:/Users/emilly/Documents</text>
<text text-anchor="start" x="1005.43" y="-258.5" font-family="Helvetica,sans-Serif" font-size="10.00">/Lucca/Projetos/Cpp/NikiScript</text>
<text text-anchor="middle" x="1072.93" y="-246.5" font-family="Helvetica,sans-Serif" font-size="10.00">/src/Lexer.cpp</text>
</a>
</g>
</g>
<!-- Node1&#45;&gt;Node14 -->
<g id="edge17_Node000001_Node000014" class="edge">
<title>Node1&#45;&gt;Node14</title>
<g id="a_edge17_Node000001_Node000014"><a xlink:title=" ">
<path fill="none" stroke="#63b8ff" d="M1006.26,-313C1018.87,-303.54 1032.74,-293.14 1044.54,-284.29"/>
<polygon fill="#63b8ff" stroke="#63b8ff" points="1004.46,-309.98 998.56,-318.78 1008.66,-315.58 1004.46,-309.98"/>
</a>
</g>
</g>
<!-- Node15 -->
<g id="Node000015" class="node">
<title>Node15</title>
<g id="a_Node000015"><a xlink:href="_utils_8cpp.html" target="_top" xlink:title=" ">
<polygon fill="white" stroke="#666666" points="1317.43,-284 1166.43,-284 1166.43,-240 1317.43,-240 1317.43,-284"/>
<text text-anchor="start" x="1174.43" y="-270.5" font-family="Helvetica,sans-Serif" font-size="10.00">C:/Users/emilly/Documents</text>
<text text-anchor="start" x="1174.43" y="-258.5" font-family="Helvetica,sans-Serif" font-size="10.00">/Lucca/Projetos/Cpp/NikiScript</text>
<text text-anchor="middle" x="1241.93" y="-246.5" font-family="Helvetica,sans-Serif" font-size="10.00">/src/Utils.cpp</text>
</a>
</g>
</g>
<!-- Node1&#45;&gt;Node15 -->
<g id="edge20_Node000001_Node000015" class="edge">
<title>Node1&#45;&gt;Node15</title>
<g id="a_edge20_Node000001_Node000015"><a xlink:title=" ">
<path fill="none" stroke="#63b8ff" d="M1054.88,-316.44C1090.9,-306.15 1132.4,-294.29 1167.14,-284.37"/>
<polygon fill="#63b8ff" stroke="#63b8ff" points="1054,-313.05 1045.34,-319.17 1055.92,-319.79 1054,-313.05"/>
</a>
</g>
</g>
<!-- Node3 -->
<g id="Node000003" class="node">
<title>Node3</title>
<g id="a_Node000003"><a xlink:href="_context_8h.html" target="_top" xlink:title=" ">
<polygon fill="white" stroke="#666666" points="714.43,-204 563.43,-204 563.43,-160 714.43,-160 714.43,-204"/>
<text text-anchor="start" x="571.43" y="-190.5" font-family="Helvetica,sans-Serif" font-size="10.00">C:/Users/emilly/Documents</text>
<text text-anchor="start" x="571.43" y="-178.5" font-family="Helvetica,sans-Serif" font-size="10.00">/Lucca/Projetos/Cpp/NikiScript</text>
<text text-anchor="middle" x="638.93" y="-166.5" font-family="Helvetica,sans-Serif" font-size="10.00">/include/NikiScript/Context.h</text>
</a>
</g>
</g>
<!-- Node2&#45;&gt;Node3 -->
<g id="edge2_Node000002_Node000003" class="edge">
<title>Node2&#45;&gt;Node3</title>
<g id="a_edge2_Node000002_Node000003"><a xlink:title=" ">
<path fill="none" stroke="#63b8ff" d="M692.51,-232.17C682.45,-222.94 671.49,-212.88 662.13,-204.29"/>
<polygon fill="#63b8ff" stroke="#63b8ff" points="689.85,-234.48 699.59,-238.66 694.59,-229.32 689.85,-234.48"/>
</a>
</g>
</g>
<!-- Node7 -->
<g id="Node000007" class="node">
<title>Node7</title>
<g id="a_Node000007"><a xlink:href="_parser_8cpp.html" target="_top" xlink:title=" ">
<polygon fill="white" stroke="#666666" points="357.43,-44 206.43,-44 206.43,0 357.43,0 357.43,-44"/>
<text text-anchor="start" x="214.43" y="-30.5" font-family="Helvetica,sans-Serif" font-size="10.00">C:/Users/emilly/Documents</text>
<text text-anchor="start" x="214.43" y="-18.5" font-family="Helvetica,sans-Serif" font-size="10.00">/Lucca/Projetos/Cpp/NikiScript</text>
<text text-anchor="middle" x="281.93" y="-6.5" font-family="Helvetica,sans-Serif" font-size="10.00">/src/Parser.cpp</text>
</a>
</g>
</g>
<!-- Node2&#45;&gt;Node7 -->
<g id="edge14_Node000002_Node000007" class="edge">
<title>Node2&#45;&gt;Node7</title>
<g id="a_edge14_Node000002_Node000007"><a xlink:title=" ">
<path fill="none" stroke="#63b8ff" d="M629.86,-250.57C495.56,-233.38 260.12,-193.82 215.93,-124 205.47,-107.48 207.79,-97.78 215.93,-80 222.48,-65.68 234.6,-53.59 246.69,-44.28"/>
<polygon fill="#63b8ff" stroke="#63b8ff" points="629.08,-254 639.44,-251.78 629.96,-247.06 629.08,-254"/>
</a>
</g>
</g>
<!-- Node8 -->
<g id="Node000008" class="node">
<title>Node8</title>
<g id="a_Node000008"><a xlink:href="_token_8cpp.html" target="_top" xlink:title=" ">
<polygon fill="white" stroke="#666666" points="818.43,-44 667.43,-44 667.43,0 818.43,0 818.43,-44"/>
<text text-anchor="start" x="675.43" y="-30.5" font-family="Helvetica,sans-Serif" font-size="10.00">C:/Users/emilly/Documents</text>
<text text-anchor="start" x="675.43" y="-18.5" font-family="Helvetica,sans-Serif" font-size="10.00">/Lucca/Projetos/Cpp/NikiScript</text>
<text text-anchor="middle" x="742.93" y="-6.5" font-family="Helvetica,sans-Serif" font-size="10.00">/src/Token.cpp</text>
</a>
</g>
</g>
<!-- Node2&#45;&gt;Node8 -->
<g id="edge16_Node000002_Node000008" class="edge">
<title>Node2&#45;&gt;Node8</title>
<g id="a_edge16_Node000002_Node000008"><a xlink:title=" ">
<path fill="none" stroke="#63b8ff" d="M817.7,-243.67C844.32,-235.18 871.78,-222.6 892.93,-204 922.63,-177.88 923.03,-162.54 931.93,-124 936.33,-104.95 943.59,-95.7 931.93,-80 917.98,-61.22 865.17,-46.27 818.91,-36.39"/>
<polygon fill="#63b8ff" stroke="#63b8ff" points="816.79,-240.28 808.22,-246.51 818.8,-246.99 816.79,-240.28"/>
</a>
</g>
</g>
<!-- Node12 -->
<g id="Node000012" class="node">
<title>Node12</title>
<g id="a_Node000012"><a xlink:href="_command_8cpp.html" target="_top" xlink:title=" ">
<polygon fill="white" stroke="#666666" points="545.43,-204 394.43,-204 394.43,-160 545.43,-160 545.43,-204"/>
<text text-anchor="start" x="402.43" y="-190.5" font-family="Helvetica,sans-Serif" font-size="10.00">C:/Users/emilly/Documents</text>
<text text-anchor="start" x="402.43" y="-178.5" font-family="Helvetica,sans-Serif" font-size="10.00">/Lucca/Projetos/Cpp/NikiScript</text>
<text text-anchor="middle" x="469.93" y="-166.5" font-family="Helvetica,sans-Serif" font-size="10.00">/src/Command.cpp</text>
</a>
</g>
</g>
<!-- Node2&#45;&gt;Node12 -->
<g id="edge13_Node000002_Node000012" class="edge">
<title>Node2&#45;&gt;Node12</title>
<g id="a_edge13_Node000002_Node000012"><a xlink:title=" ">
<path fill="none" stroke="#63b8ff" d="M643.53,-236.31C610.11,-226.05 571.7,-214.25 539.52,-204.37"/>
<polygon fill="#63b8ff" stroke="#63b8ff" points="642.15,-239.55 652.74,-239.14 644.21,-232.86 642.15,-239.55"/>
</a>
</g>
</g>
<!-- Node13 -->
<g id="Node000013" class="node">
<title>Node13</title>
<g id="a_Node000013"><a xlink:href="_print_callback_8cpp.html" target="_top" xlink:title=" ">
<polygon fill="white" stroke="#666666" points="883.43,-204 732.43,-204 732.43,-160 883.43,-160 883.43,-204"/>
<text text-anchor="start" x="740.43" y="-190.5" font-family="Helvetica,sans-Serif" font-size="10.00">C:/Users/emilly/Documents</text>
<text text-anchor="start" x="740.43" y="-178.5" font-family="Helvetica,sans-Serif" font-size="10.00">/Lucca/Projetos/Cpp/NikiScript</text>
<text text-anchor="middle" x="807.93" y="-166.5" font-family="Helvetica,sans-Serif" font-size="10.00">/src/PrintCallback.cpp</text>
</a>
</g>
</g>
<!-- Node2&#45;&gt;Node13 -->
<g id="edge15_Node000002_Node000013" class="edge">
<title>Node2&#45;&gt;Node13</title>
<g id="a_edge15_Node000002_Node000013"><a xlink:title=" ">
<path fill="none" stroke="#63b8ff" d="M755.27,-231.89C765.14,-222.74 775.84,-212.8 785,-204.29"/>
<polygon fill="#63b8ff" stroke="#63b8ff" points="752.94,-229.29 747.99,-238.66 757.7,-234.42 752.94,-229.29"/>
</a>
</g>
</g>
<!-- Node4 -->
<g id="Node000004" class="node">
<title>Node4</title>
<g id="a_Node000004"><a xlink:href="_niki_script_8h.html" target="_top" xlink:title=" ">
<polygon fill="white" stroke="#666666" points="168.43,-124 17.43,-124 17.43,-80 168.43,-80 168.43,-124"/>
<text text-anchor="start" x="25.43" y="-110.5" font-family="Helvetica,sans-Serif" font-size="10.00">C:/Users/emilly/Documents</text>
<text text-anchor="start" x="25.43" y="-98.5" font-family="Helvetica,sans-Serif" font-size="10.00">/Lucca/Projetos/Cpp/NikiScript</text>
<text text-anchor="middle" x="92.93" y="-86.5" font-family="Helvetica,sans-Serif" font-size="10.00">/include/NikiScript/NikiScript.h</text>
</a>
</g>
</g>
<!-- Node3&#45;&gt;Node4 -->
<g id="edge3_Node000003_Node000004" class="edge">
<title>Node3&#45;&gt;Node4</title>
<g id="a_edge3_Node000003_Node000004"><a xlink:title=" ">
<path fill="none" stroke="#63b8ff" d="M552.13,-159.81C403.23,-134.32 362.07,-144.24 215.93,-124 200.69,-121.89 184.45,-119.34 168.92,-116.74"/>
<polygon fill="#63b8ff" stroke="#63b8ff" points="551.09,-163.18 561.55,-161.45 552.29,-156.29 551.09,-163.18"/>
</a>
</g>
</g>
<!-- Node6 -->
<g id="Node000006" class="node">
<title>Node6</title>
<g id="a_Node000006"><a xlink:href="_parser_8h.html" target="_top" xlink:title=" ">
<polygon fill="white" stroke="#666666" points="376.43,-124 225.43,-124 225.43,-80 376.43,-80 376.43,-124"/>
<text text-anchor="start" x="233.43" y="-110.5" font-family="Helvetica,sans-Serif" font-size="10.00">C:/Users/emilly/Documents</text>
<text text-anchor="start" x="233.43" y="-98.5" font-family="Helvetica,sans-Serif" font-size="10.00">/Lucca/Projetos/Cpp/NikiScript</text>
<text text-anchor="middle" x="300.93" y="-86.5" font-family="Helvetica,sans-Serif" font-size="10.00">/include/NikiScript/Parser.h</text>
</a>
</g>
</g>
<!-- Node3&#45;&gt;Node6 -->
<g id="edge5_Node000003_Node000006" class="edge">
<title>Node3&#45;&gt;Node6</title>
<g id="a_edge5_Node000003_Node000006"><a xlink:title=" ">
<path fill="none" stroke="#63b8ff" d="M552.03,-159.6C477.24,-142.62 456.39,-140.54 384.93,-124 382.29,-123.39 379.61,-122.76 376.91,-122.12"/>
<polygon fill="#63b8ff" stroke="#63b8ff" points="550.95,-162.95 561.48,-161.76 552.51,-156.12 550.95,-162.95"/>
</a>
</g>
</g>
<!-- Node3&#45;&gt;Node8 -->
<g id="edge12_Node000003_Node000008" class="edge">
<title>Node3&#45;&gt;Node8</title>
<g id="a_edge12_Node000003_Node000008"><a xlink:title=" ">
<path fill="none" stroke="#63b8ff" d="M693.22,-153.31C704.54,-145.26 715.32,-135.48 722.93,-124 738.82,-100.01 742.63,-66.25 743.28,-44.49"/>
<polygon fill="#63b8ff" stroke="#63b8ff" points="691.3,-150.38 684.91,-158.83 695.18,-156.21 691.3,-150.38"/>
</a>
</g>
</g>
<!-- Node9 -->
<g id="Node000009" class="node">
<title>Node9</title>
<g id="a_Node000009"><a xlink:href="_command_handler_8cpp.html" target="_top" xlink:title=" ">
<polygon fill="white" stroke="#666666" points="545.43,-124 394.43,-124 394.43,-80 545.43,-80 545.43,-124"/>
<text text-anchor="start" x="402.43" y="-110.5" font-family="Helvetica,sans-Serif" font-size="10.00">C:/Users/emilly/Documents</text>
<text text-anchor="start" x="402.43" y="-98.5" font-family="Helvetica,sans-Serif" font-size="10.00">/Lucca/Projetos/Cpp/NikiScript</text>
<text text-anchor="middle" x="469.93" y="-86.5" font-family="Helvetica,sans-Serif" font-size="10.00">/src/CommandHandler.cpp</text>
</a>
</g>
</g>
<!-- Node3&#45;&gt;Node9 -->
<g id="edge9_Node000003_Node000009" class="edge">
<title>Node3&#45;&gt;Node9</title>
<g id="a_edge9_Node000003_Node000009"><a xlink:title=" ">
<path fill="none" stroke="#63b8ff" d="M582.45,-154.93C560.98,-145.02 536.78,-133.86 516.35,-124.42"/>
<polygon fill="#63b8ff" stroke="#63b8ff" points="580.83,-158.04 591.37,-159.05 583.76,-151.68 580.83,-158.04"/>
</a>
</g>
</g>
<!-- Node10 -->
<g id="Node000010" class="node">
<title>Node10</title>
<g id="a_Node000010"><a xlink:href="_context_8cpp.html" target="_top" xlink:title=" ">
<polygon fill="white" stroke="#666666" points="714.43,-124 563.43,-124 563.43,-80 714.43,-80 714.43,-124"/>
<text text-anchor="start" x="571.43" y="-110.5" font-family="Helvetica,sans-Serif" font-size="10.00">C:/Users/emilly/Documents</text>
<text text-anchor="start" x="571.43" y="-98.5" font-family="Helvetica,sans-Serif" font-size="10.00">/Lucca/Projetos/Cpp/NikiScript</text>
<text text-anchor="middle" x="638.93" y="-86.5" font-family="Helvetica,sans-Serif" font-size="10.00">/src/Context.cpp</text>
</a>
</g>
</g>
<!-- Node3&#45;&gt;Node10 -->
<g id="edge10_Node000003_Node000010" class="edge">
<title>Node3&#45;&gt;Node10</title>
<g id="a_edge10_Node000003_Node000010"><a xlink:title=" ">
<path fill="none" stroke="#63b8ff" d="M638.93,-148.25C638.93,-140.15 638.93,-131.68 638.93,-124.29"/>
<polygon fill="#63b8ff" stroke="#63b8ff" points="635.43,-148.17 638.93,-158.17 642.43,-148.17 635.43,-148.17"/>
</a>
</g>
</g>
<!-- Node3&#45;&gt;Node11 -->
<g id="edge11_Node000003_Node000011" class="edge">
<title>Node3&#45;&gt;Node11</title>
<g id="a_edge11_Node000003_Node000011"><a xlink:title=" ">
<path fill="none" stroke="#63b8ff" d="M706.55,-155.64C733.49,-145.54 764.16,-134.04 789.94,-124.37"/>
<polygon fill="#63b8ff" stroke="#63b8ff" points="705.59,-152.26 697.46,-159.05 708.05,-158.82 705.59,-152.26"/>
</a>
</g>
</g>
<!-- Node4&#45;&gt;Node5 -->
<g id="edge4_Node000004_Node000005" class="edge">
<title>Node4&#45;&gt;Node5</title>
<g id="a_edge4_Node000004_Node000005"><a xlink:title=" ">
<path fill="none" stroke="#63b8ff" d="M92.93,-68.25C92.93,-60.15 92.93,-51.68 92.93,-44.29"/>
<polygon fill="#63b8ff" stroke="#63b8ff" points="89.43,-68.17 92.93,-78.17 96.43,-68.17 89.43,-68.17"/>
</a>
</g>
</g>
<!-- Node6&#45;&gt;Node5 -->
<g id="edge6_Node000006_Node000005" class="edge">
<title>Node6&#45;&gt;Node5</title>
<g id="a_edge6_Node000006_Node000005"><a xlink:title=" ">
<path fill="none" stroke="#63b8ff" d="M233.3,-75.64C206.36,-65.54 175.7,-54.04 149.91,-44.37"/>
<polygon fill="#63b8ff" stroke="#63b8ff" points="231.81,-78.82 242.4,-79.05 234.26,-72.26 231.81,-78.82"/>
</a>
</g>
</g>
<!-- Node6&#45;&gt;Node7 -->
<g id="edge7_Node000006_Node000007" class="edge">
<title>Node6&#45;&gt;Node7</title>
<g id="a_edge7_Node000006_Node000007"><a xlink:title=" ">
<path fill="none" stroke="#63b8ff" d="M293.02,-68.53C291.03,-60.35 288.94,-51.77 287.11,-44.29"/>
<polygon fill="#63b8ff" stroke="#63b8ff" points="289.61,-69.33 295.38,-78.22 296.41,-67.67 289.61,-69.33"/>
</a>
</g>
</g>
<!-- Node6&#45;&gt;Node8 -->
<g id="edge8_Node000006_Node000008" class="edge">
<title>Node6&#45;&gt;Node8</title>
<g id="a_edge8_Node000006_Node000008"><a xlink:title=" ">
<path fill="none" stroke="#63b8ff" d="M387.95,-79.45C489.62,-59.05 597.01,-42.91 667.15,-33.11"/>
<polygon fill="#63b8ff" stroke="#63b8ff" points="387.46,-75.98 378.35,-81.4 388.85,-82.84 387.46,-75.98"/>
</a>
</g>
</g>
</g>
</svg>
