<?xml version="1.0" encoding="UTF-8" standalone="no"?>
<!DOCTYPE svg PUBLIC "-//W3C//DTD SVG 1.1//EN"
 "http://www.w3.org/Graphics/SVG/1.1/DTD/svg11.dtd">
<!-- Generated by graphviz version 12.2.1 (20241206.2353)
 -->
<!-- Title: C:/Users/emilly/Documents/Lucca/Projetos/Cpp/NikiScript/src/Utils.h Pages: 1 -->
<svg width="1665pt" height="372pt"
 viewBox="0.00 0.00 1665.34 372.00" xmlns="http://www.w3.org/2000/svg" xmlns:xlink="http://www.w3.org/1999/xlink">
<g id="graph0" class="graph" transform="scale(1 1) rotate(0) translate(4 368)">
<title>C:/Users/emilly/Documents/Lucca/Projetos/Cpp/NikiScript/src/Utils.h</title>
<!-- Node1 -->
<g id="Node000001" class="node">
<title>Node1</title>
<g id="a_Node000001"><a xlink:title=" ">
<polygon fill="#999999" stroke="#666666" points="732,-364 581,-364 581,-320 732,-320 732,-364"/>
<text text-anchor="start" x="589" y="-350.5" font-family="Helvetica,sans-Serif" font-size="10.00">C:/Users/emilly/Documents</text>
<text text-anchor="start" x="589" y="-338.5" font-family="Helvetica,sans-Serif" font-size="10.00">/Lucca/Projetos/Cpp/NikiScript</text>
<text text-anchor="middle" x="656.5" y="-326.5" font-family="Helvetica,sans-Serif" font-size="10.00">/src/Utils.h</text>
</a>
</g>
</g>
<!-- Node2 -->
<g id="Node000002" class="node">
<title>Node2</title>
<g id="a_Node000002"><a xlink:href="_lexer_8cpp.html" target="_top" xlink:title=" ">
<polygon fill="white" stroke="#666666" points="151,-284 0,-284 0,-240 151,-240 151,-284"/>
<text text-anchor="start" x="8" y="-270.5" font-family="Helvetica,sans-Serif" font-size="10.00">C:/Users/emilly/Documents</text>
<text text-anchor="start" x="8" y="-258.5" font-family="Helvetica,sans-Serif" font-size="10.00">/Lucca/Projetos/Cpp/NikiScript</text>
<text text-anchor="middle" x="75.5" y="-246.5" font-family="Helvetica,sans-Serif" font-size="10.00">/src/Lexer.cpp</text>
</a>
</g>
</g>
<!-- Node1&#45;&gt;Node2 -->
<g id="edge1_Node000001_Node000002" class="edge">
<title>Node1&#45;&gt;Node2</title>
<g id="a_edge1_Node000001_Node000002"><a xlink:title=" ">
<path fill="none" stroke="#63b8ff" d="M569.45,-333.91C470.97,-325.18 305.99,-308.46 165.5,-284 160.92,-283.2 156.22,-282.31 151.48,-281.37"/>
<polygon fill="#63b8ff" stroke="#63b8ff" points="569.06,-337.39 579.33,-334.77 569.67,-330.41 569.06,-337.39"/>
</a>
</g>
</g>
<!-- Node3 -->
<g id="Node000003" class="node">
<title>Node3</title>
<g id="a_Node000003"><a xlink:href="_niki_script_8cpp.html" target="_top" xlink:title=" ">
<polygon fill="white" stroke="#666666" points="546,-44 395,-44 395,0 546,0 546,-44"/>
<text text-anchor="start" x="403" y="-30.5" font-family="Helvetica,sans-Serif" font-size="10.00">C:/Users/emilly/Documents</text>
<text text-anchor="start" x="403" y="-18.5" font-family="Helvetica,sans-Serif" font-size="10.00">/Lucca/Projetos/Cpp/NikiScript</text>
<text text-anchor="middle" x="470.5" y="-6.5" font-family="Helvetica,sans-Serif" font-size="10.00">/src/NikiScript.cpp</text>
</a>
</g>
</g>
<!-- Node1&#45;&gt;Node3 -->
<g id="edge2_Node000001_Node000003" class="edge">
<title>Node1&#45;&gt;Node3</title>
<g id="a_edge2_Node000001_Node000003"><a xlink:title=" ">
<path fill="none" stroke="#63b8ff" d="M569.68,-330.39C458.31,-311.4 270.89,-259.89 198.5,-124 189.31,-106.74 186.17,-95.18 198.5,-80 210.95,-64.67 318.76,-45.63 394.85,-33.9"/>
<polygon fill="#63b8ff" stroke="#63b8ff" points="568.95,-333.81 579.39,-331.98 570.09,-326.91 568.95,-333.81"/>
</a>
</g>
</g>
<!-- Node4 -->
<g id="Node000004" class="node">
<title>Node4</title>
<g id="a_Node000004"><a xlink:href="_print_callback_8h.html" target="_top" xlink:title=" ">
<polygon fill="white" stroke="#666666" points="732,-284 581,-284 581,-240 732,-240 732,-284"/>
<text text-anchor="start" x="589" y="-270.5" font-family="Helvetica,sans-Serif" font-size="10.00">C:/Users/emilly/Documents</text>
<text text-anchor="start" x="589" y="-258.5" font-family="Helvetica,sans-Serif" font-size="10.00">/Lucca/Projetos/Cpp/NikiScript</text>
<text text-anchor="middle" x="656.5" y="-246.5" font-family="Helvetica,sans-Serif" font-size="10.00">/src/PrintCallback.h</text>
</a>
</g>
</g>
<!-- Node1&#45;&gt;Node4 -->
<g id="edge3_Node000001_Node000004" class="edge">
<title>Node1&#45;&gt;Node4</title>
<g id="a_edge3_Node000001_Node000004"><a xlink:title=" ">
<path fill="none" stroke="#63b8ff" d="M656.5,-308.25C656.5,-300.15 656.5,-291.68 656.5,-284.29"/>
<polygon fill="#63b8ff" stroke="#63b8ff" points="653,-308.17 656.5,-318.17 660,-308.17 653,-308.17"/>
</a>
</g>
</g>
<!-- Node13 -->
<g id="Node000013" class="node">
<title>Node13</title>
<g id="a_Node000013"><a xlink:href="_program_variable_8cpp.html" target="_top" xlink:title=" ">
<polygon fill="white" stroke="#666666" points="1638,-124 1487,-124 1487,-80 1638,-80 1638,-124"/>
<text text-anchor="start" x="1495" y="-110.5" font-family="Helvetica,sans-Serif" font-size="10.00">C:/Users/emilly/Documents</text>
<text text-anchor="start" x="1495" y="-98.5" font-family="Helvetica,sans-Serif" font-size="10.00">/Lucca/Projetos/Cpp/NikiScript</text>
<text text-anchor="middle" x="1562.5" y="-86.5" font-family="Helvetica,sans-Serif" font-size="10.00">/src/ProgramVariable.cpp</text>
</a>
</g>
</g>
<!-- Node1&#45;&gt;Node13 -->
<g id="edge24_Node000001_Node000013" class="edge">
<title>Node1&#45;&gt;Node13</title>
<g id="a_edge24_Node000001_Node000013"><a xlink:title=" ">
<path fill="none" stroke="#63b8ff" d="M743.25,-318.21C920.08,-271.76 1319.55,-166.82 1486.71,-122.91"/>
<polygon fill="#63b8ff" stroke="#63b8ff" points="742.43,-314.81 733.65,-320.73 744.21,-321.58 742.43,-314.81"/>
</a>
</g>
</g>
<!-- Node19 -->
<g id="Node000019" class="node">
<title>Node19</title>
<g id="a_Node000019"><a xlink:href="_utils_8cpp.html" target="_top" xlink:title=" ">
<polygon fill="white" stroke="#666666" points="1240,-284 1089,-284 1089,-240 1240,-240 1240,-284"/>
<text text-anchor="start" x="1097" y="-270.5" font-family="Helvetica,sans-Serif" font-size="10.00">C:/Users/emilly/Documents</text>
<text text-anchor="start" x="1097" y="-258.5" font-family="Helvetica,sans-Serif" font-size="10.00">/Lucca/Projetos/Cpp/NikiScript</text>
<text text-anchor="middle" x="1164.5" y="-246.5" font-family="Helvetica,sans-Serif" font-size="10.00">/src/Utils.cpp</text>
</a>
</g>
</g>
<!-- Node1&#45;&gt;Node19 -->
<g id="edge25_Node000001_Node000019" class="edge">
<title>Node1&#45;&gt;Node19</title>
<g id="a_edge25_Node000001_Node000019"><a xlink:title=" ">
<path fill="none" stroke="#63b8ff" d="M743.74,-331.52C828.57,-321.73 960.88,-304.96 1074.5,-284 1079.23,-283.13 1084.09,-282.17 1088.99,-281.16"/>
<polygon fill="#63b8ff" stroke="#63b8ff" points="743.39,-328.03 733.86,-332.65 744.19,-334.99 743.39,-328.03"/>
</a>
</g>
</g>
<!-- Node5 -->
<g id="Node000005" class="node">
<title>Node5</title>
<g id="a_Node000005"><a xlink:href="example_8cpp.html" target="_top" xlink:title=" ">
<polygon fill="white" stroke="#666666" points="955,-44 804,-44 804,0 955,0 955,-44"/>
<text text-anchor="start" x="812" y="-30.5" font-family="Helvetica,sans-Serif" font-size="10.00">C:/Users/emilly/Documents</text>
<text text-anchor="start" x="812" y="-18.5" font-family="Helvetica,sans-Serif" font-size="10.00">/Lucca/Projetos/Cpp/NikiScript</text>
<text text-anchor="middle" x="879.5" y="-6.5" font-family="Helvetica,sans-Serif" font-size="10.00">/example/src/example.cpp</text>
</a>
</g>
</g>
<!-- Node4&#45;&gt;Node5 -->
<g id="edge4_Node000004_Node000005" class="edge">
<title>Node4&#45;&gt;Node5</title>
<g id="a_edge4_Node000004_Node000005"><a xlink:title=" ">
<path fill="none" stroke="#63b8ff" d="M743.78,-255.4C974.75,-239.69 1588.35,-191.89 1647.5,-124 1660.35,-109.26 1660.81,-94.33 1647.5,-80 1601.05,-29.97 1139.84,-23.49 955.27,-22.91"/>
<polygon fill="#63b8ff" stroke="#63b8ff" points="743.66,-251.9 733.92,-256.06 744.14,-258.88 743.66,-251.9"/>
</a>
</g>
</g>
<!-- Node6 -->
<g id="Node000006" class="node">
<title>Node6</title>
<g id="a_Node000006"><a xlink:href="_command_8cpp.html" target="_top" xlink:title=" ">
<polygon fill="white" stroke="#666666" points="477,-204 326,-204 326,-160 477,-160 477,-204"/>
<text text-anchor="start" x="334" y="-190.5" font-family="Helvetica,sans-Serif" font-size="10.00">C:/Users/emilly/Documents</text>
<text text-anchor="start" x="334" y="-178.5" font-family="Helvetica,sans-Serif" font-size="10.00">/Lucca/Projetos/Cpp/NikiScript</text>
<text text-anchor="middle" x="401.5" y="-166.5" font-family="Helvetica,sans-Serif" font-size="10.00">/src/Command.cpp</text>
</a>
</g>
</g>
<!-- Node4&#45;&gt;Node6 -->
<g id="edge5_Node000004_Node000006" class="edge">
<title>Node4&#45;&gt;Node6</title>
<g id="a_edge5_Node000004_Node000006"><a xlink:title=" ">
<path fill="none" stroke="#63b8ff" d="M575.78,-236.31C542.23,-226.05 503.67,-214.25 471.36,-204.37"/>
<polygon fill="#63b8ff" stroke="#63b8ff" points="574.45,-239.56 585.04,-239.14 576.5,-232.87 574.45,-239.56"/>
</a>
</g>
</g>
<!-- Node7 -->
<g id="Node000007" class="node">
<title>Node7</title>
<g id="a_Node000007"><a xlink:href="_context_8h.html" target="_top" xlink:title=" ">
<polygon fill="white" stroke="#666666" points="1032,-204 881,-204 881,-160 1032,-160 1032,-204"/>
<text text-anchor="start" x="889" y="-190.5" font-family="Helvetica,sans-Serif" font-size="10.00">C:/Users/emilly/Documents</text>
<text text-anchor="start" x="889" y="-178.5" font-family="Helvetica,sans-Serif" font-size="10.00">/Lucca/Projetos/Cpp/NikiScript</text>
<text text-anchor="middle" x="956.5" y="-166.5" font-family="Helvetica,sans-Serif" font-size="10.00">/src/Context.h</text>
</a>
</g>
</g>
<!-- Node4&#45;&gt;Node7 -->
<g id="edge6_Node000004_Node000007" class="edge">
<title>Node4&#45;&gt;Node7</title>
<g id="a_edge6_Node000004_Node000007"><a xlink:title=" ">
<path fill="none" stroke="#63b8ff" d="M743.33,-238.42C786.73,-227.14 838.77,-213.61 880.56,-202.74"/>
<polygon fill="#63b8ff" stroke="#63b8ff" points="742.46,-235.03 733.67,-240.94 744.23,-241.81 742.46,-235.03"/>
</a>
</g>
</g>
<!-- Node12 -->
<g id="Node000012" class="node">
<title>Node12</title>
<g id="a_Node000012"><a xlink:href="_parser_8cpp.html" target="_top" xlink:title=" ">
<polygon fill="white" stroke="#666666" points="297,-44 146,-44 146,0 297,0 297,-44"/>
<text text-anchor="start" x="154" y="-30.5" font-family="Helvetica,sans-Serif" font-size="10.00">C:/Users/emilly/Documents</text>
<text text-anchor="start" x="154" y="-18.5" font-family="Helvetica,sans-Serif" font-size="10.00">/Lucca/Projetos/Cpp/NikiScript</text>
<text text-anchor="middle" x="221.5" y="-6.5" font-family="Helvetica,sans-Serif" font-size="10.00">/src/Parser.cpp</text>
</a>
</g>
</g>
<!-- Node4&#45;&gt;Node12 -->
<g id="edge20_Node000004_Node000012" class="edge">
<title>Node4&#45;&gt;Node12</title>
<g id="a_edge20_Node000004_Node000012"><a xlink:title=" ">
<path fill="none" stroke="#63b8ff" d="M569.22,-256.5C499.08,-250.51 399.16,-236.54 317.5,-204 258.3,-180.41 228.46,-180.25 198.5,-124 184.97,-98.6 197.34,-65.5 208.52,-44.24"/>
<polygon fill="#63b8ff" stroke="#63b8ff" points="568.88,-259.98 579.13,-257.31 569.45,-253.01 568.88,-259.98"/>
</a>
</g>
</g>
<!-- Node16 -->
<g id="Node000016" class="node">
<title>Node16</title>
<g id="a_Node000016"><a xlink:href="_print_callback_8cpp.html" target="_top" xlink:title=" ">
<polygon fill="white" stroke="#666666" points="646,-204 495,-204 495,-160 646,-160 646,-204"/>
<text text-anchor="start" x="503" y="-190.5" font-family="Helvetica,sans-Serif" font-size="10.00">C:/Users/emilly/Documents</text>
<text text-anchor="start" x="503" y="-178.5" font-family="Helvetica,sans-Serif" font-size="10.00">/Lucca/Projetos/Cpp/NikiScript</text>
<text text-anchor="middle" x="570.5" y="-166.5" font-family="Helvetica,sans-Serif" font-size="10.00">/src/PrintCallback.cpp</text>
</a>
</g>
</g>
<!-- Node4&#45;&gt;Node16 -->
<g id="edge21_Node000004_Node000016" class="edge">
<title>Node4&#45;&gt;Node16</title>
<g id="a_edge21_Node000004_Node000016"><a xlink:title=" ">
<path fill="none" stroke="#63b8ff" d="M624.71,-232.17C614.53,-222.94 603.45,-212.88 593.97,-204.29"/>
<polygon fill="#63b8ff" stroke="#63b8ff" points="622.12,-234.54 631.88,-238.67 626.82,-229.36 622.12,-234.54"/>
</a>
</g>
</g>
<!-- Node17 -->
<g id="Node000017" class="node">
<title>Node17</title>
<g id="a_Node000017"><a xlink:href="_print_callback_wrapper_8h.html" target="_top" xlink:title=" ">
<polygon fill="white" stroke="#666666" points="823.12,-204 663.88,-204 663.88,-160 823.12,-160 823.12,-204"/>
<text text-anchor="start" x="671.88" y="-190.5" font-family="Helvetica,sans-Serif" font-size="10.00">C:/Users/emilly/Documents</text>
<text text-anchor="start" x="671.88" y="-178.5" font-family="Helvetica,sans-Serif" font-size="10.00">/Lucca/Projetos/Cpp/NikiScript</text>
<text text-anchor="middle" x="743.5" y="-166.5" font-family="Helvetica,sans-Serif" font-size="10.00">/wrapper/PrintCallbackWrapper.h</text>
</a>
</g>
</g>
<!-- Node4&#45;&gt;Node17 -->
<g id="edge22_Node000004_Node000017" class="edge">
<title>Node4&#45;&gt;Node17</title>
<g id="a_edge22_Node000004_Node000017"><a xlink:title=" ">
<path fill="none" stroke="#63b8ff" d="M688.66,-232.17C698.96,-222.94 710.17,-212.88 719.76,-204.29"/>
<polygon fill="#63b8ff" stroke="#63b8ff" points="686.51,-229.39 681.4,-238.68 691.18,-234.61 686.51,-229.39"/>
</a>
</g>
</g>
<!-- Node7&#45;&gt;Node5 -->
<g id="edge7_Node000007_Node000005" class="edge">
<title>Node7&#45;&gt;Node5</title>
<g id="a_edge7_Node000007_Node000005"><a xlink:title=" ">
<path fill="none" stroke="#63b8ff" d="M1043.08,-156.05C1069.58,-146.56 1093.8,-135.3 1101.5,-124 1112.51,-107.84 1113.49,-95.45 1101.5,-80 1083.48,-56.77 1012.31,-41.37 955.35,-32.5"/>
<polygon fill="#63b8ff" stroke="#63b8ff" points="1042.17,-152.66 1033.87,-159.24 1044.46,-159.28 1042.17,-152.66"/>
</a>
</g>
</g>
<!-- Node8 -->
<g id="Node000008" class="node">
<title>Node8</title>
<g id="a_Node000008"><a xlink:href="_command_handler_8cpp.html" target="_top" xlink:title=" ">
<polygon fill="white" stroke="#666666" points="1300,-124 1149,-124 1149,-80 1300,-80 1300,-124"/>
<text text-anchor="start" x="1157" y="-110.5" font-family="Helvetica,sans-Serif" font-size="10.00">C:/Users/emilly/Documents</text>
<text text-anchor="start" x="1157" y="-98.5" font-family="Helvetica,sans-Serif" font-size="10.00">/Lucca/Projetos/Cpp/NikiScript</text>
<text text-anchor="middle" x="1224.5" y="-86.5" font-family="Helvetica,sans-Serif" font-size="10.00">/src/CommandHandler.cpp</text>
</a>
</g>
</g>
<!-- Node7&#45;&gt;Node8 -->
<g id="edge8_Node000007_Node000008" class="edge">
<title>Node7&#45;&gt;Node8</title>
<g id="a_edge8_Node000007_Node000008"><a xlink:title=" ">
<path fill="none" stroke="#63b8ff" d="M1040.88,-156.44C1076.24,-146.15 1116.97,-134.29 1151.08,-124.37"/>
<polygon fill="#63b8ff" stroke="#63b8ff" points="1040.16,-153 1031.54,-159.16 1042.12,-159.73 1040.16,-153"/>
</a>
</g>
</g>
<!-- Node9 -->
<g id="Node000009" class="node">
<title>Node9</title>
<g id="a_Node000009"><a xlink:href="_context_8cpp.html" target="_top" xlink:title=" ">
<polygon fill="white" stroke="#666666" points="1469,-124 1318,-124 1318,-80 1469,-80 1469,-124"/>
<text text-anchor="start" x="1326" y="-110.5" font-family="Helvetica,sans-Serif" font-size="10.00">C:/Users/emilly/Documents</text>
<text text-anchor="start" x="1326" y="-98.5" font-family="Helvetica,sans-Serif" font-size="10.00">/Lucca/Projetos/Cpp/NikiScript</text>
<text text-anchor="middle" x="1393.5" y="-86.5" font-family="Helvetica,sans-Serif" font-size="10.00">/src/Context.cpp</text>
</a>
</g>
</g>
<!-- Node7&#45;&gt;Node9 -->
<g id="edge9_Node000007_Node000009" class="edge">
<title>Node7&#45;&gt;Node9</title>
<g id="a_edge9_Node000007_Node000009"><a xlink:title=" ">
<path fill="none" stroke="#63b8ff" d="M1042.93,-160.67C1044.13,-160.44 1045.32,-160.22 1046.5,-160 1162.52,-138.57 1193.66,-146.34 1309.5,-124 1312.16,-123.49 1314.86,-122.94 1317.58,-122.37"/>
<polygon fill="#63b8ff" stroke="#63b8ff" points="1042.62,-157.16 1033.5,-162.55 1043.99,-164.03 1042.62,-157.16"/>
</a>
</g>
</g>
<!-- Node10 -->
<g id="Node000010" class="node">
<title>Node10</title>
<g id="a_Node000010"><a xlink:href="_niki_script_8h.html" target="_top" xlink:title=" ">
<polygon fill="white" stroke="#666666" points="715,-124 564,-124 564,-80 715,-80 715,-124"/>
<text text-anchor="start" x="572" y="-110.5" font-family="Helvetica,sans-Serif" font-size="10.00">C:/Users/emilly/Documents</text>
<text text-anchor="start" x="572" y="-98.5" font-family="Helvetica,sans-Serif" font-size="10.00">/Lucca/Projetos/Cpp/NikiScript</text>
<text text-anchor="middle" x="639.5" y="-86.5" font-family="Helvetica,sans-Serif" font-size="10.00">/src/NikiScript.h</text>
</a>
</g>
</g>
<!-- Node7&#45;&gt;Node10 -->
<g id="edge10_Node000007_Node000010" class="edge">
<title>Node7&#45;&gt;Node10</title>
<g id="a_edge10_Node000007_Node000010"><a xlink:title=" ">
<path fill="none" stroke="#63b8ff" d="M869.6,-159.68C826.04,-148.98 772.48,-135.82 724.5,-124 721.55,-123.27 718.54,-122.53 715.5,-121.78"/>
<polygon fill="#63b8ff" stroke="#63b8ff" points="868.73,-163.07 879.27,-162.05 870.39,-156.27 868.73,-163.07"/>
</a>
</g>
</g>
<!-- Node11 -->
<g id="Node000011" class="node">
<title>Node11</title>
<g id="a_Node000011"><a xlink:href="_parser_8h.html" target="_top" xlink:title=" ">
<polygon fill="white" stroke="#666666" points="546,-124 395,-124 395,-80 546,-80 546,-124"/>
<text text-anchor="start" x="403" y="-110.5" font-family="Helvetica,sans-Serif" font-size="10.00">C:/Users/emilly/Documents</text>
<text text-anchor="start" x="403" y="-98.5" font-family="Helvetica,sans-Serif" font-size="10.00">/Lucca/Projetos/Cpp/NikiScript</text>
<text text-anchor="middle" x="470.5" y="-86.5" font-family="Helvetica,sans-Serif" font-size="10.00">/src/Parser.h</text>
</a>
</g>
</g>
<!-- Node7&#45;&gt;Node11 -->
<g id="edge13_Node000007_Node000011" class="edge">
<title>Node7&#45;&gt;Node11</title>
<g id="a_edge13_Node000007_Node000011"><a xlink:title=" ">
<path fill="none" stroke="#63b8ff" d="M869.26,-165.79C856.93,-163.77 844.4,-161.78 832.5,-160 709.72,-141.63 677.51,-146.92 555.5,-124 552.51,-123.44 549.47,-122.84 546.41,-122.2"/>
<polygon fill="#63b8ff" stroke="#63b8ff" points="868.57,-169.23 879.01,-167.41 869.72,-162.32 868.57,-169.23"/>
</a>
</g>
</g>
<!-- Node7&#45;&gt;Node13 -->
<g id="edge17_Node000007_Node000013" class="edge">
<title>Node7&#45;&gt;Node13</title>
<g id="a_edge17_Node000007_Node000013"><a xlink:title=" ">
<path fill="none" stroke="#63b8ff" d="M1043.47,-160.49C1044.48,-160.32 1045.49,-160.16 1046.5,-160 1236.82,-130.03 1288.42,-155.47 1478.5,-124 1481.17,-123.56 1483.88,-123.07 1486.61,-122.56"/>
<polygon fill="#63b8ff" stroke="#63b8ff" points="1043.17,-156.99 1033.94,-162.19 1044.4,-163.88 1043.17,-156.99"/>
</a>
</g>
</g>
<!-- Node14 -->
<g id="Node000014" class="node">
<title>Node14</title>
<g id="a_Node000014"><a xlink:href="_token_8cpp.html" target="_top" xlink:title=" ">
<polygon fill="white" stroke="#666666" points="884,-124 733,-124 733,-80 884,-80 884,-124"/>
<text text-anchor="start" x="741" y="-110.5" font-family="Helvetica,sans-Serif" font-size="10.00">C:/Users/emilly/Documents</text>
<text text-anchor="start" x="741" y="-98.5" font-family="Helvetica,sans-Serif" font-size="10.00">/Lucca/Projetos/Cpp/NikiScript</text>
<text text-anchor="middle" x="808.5" y="-86.5" font-family="Helvetica,sans-Serif" font-size="10.00">/src/Token.cpp</text>
</a>
</g>
</g>
<!-- Node7&#45;&gt;Node14 -->
<g id="edge18_Node000007_Node000014" class="edge">
<title>Node7&#45;&gt;Node14</title>
<g id="a_edge18_Node000007_Node000014"><a xlink:title=" ">
<path fill="none" stroke="#63b8ff" d="M906.02,-154.39C887.47,-144.62 866.72,-133.68 849.15,-124.42"/>
<polygon fill="#63b8ff" stroke="#63b8ff" points="904.24,-157.41 914.72,-158.98 907.5,-151.22 904.24,-157.41"/>
</a>
</g>
</g>
<!-- Node15 -->
<g id="Node000015" class="node">
<title>Node15</title>
<g id="a_Node000015"><a xlink:href="_command_handler_wrapper_8cpp.html" target="_top" xlink:title=" ">
<polygon fill="white" stroke="#666666" points="1092.5,-124 902.5,-124 902.5,-80 1092.5,-80 1092.5,-124"/>
<text text-anchor="start" x="910.5" y="-110.5" font-family="Helvetica,sans-Serif" font-size="10.00">C:/Users/emilly/Documents</text>
<text text-anchor="start" x="910.5" y="-98.5" font-family="Helvetica,sans-Serif" font-size="10.00">/Lucca/Projetos/Cpp/NikiScript</text>
<text text-anchor="middle" x="997.5" y="-86.5" font-family="Helvetica,sans-Serif" font-size="10.00">/wrapper/CommandHandlerWrapper.cpp</text>
</a>
</g>
</g>
<!-- Node7&#45;&gt;Node15 -->
<g id="edge19_Node000007_Node000015" class="edge">
<title>Node7&#45;&gt;Node15</title>
<g id="a_edge19_Node000007_Node000015"><a xlink:title=" ">
<path fill="none" stroke="#63b8ff" d="M972.97,-149.66C977.45,-141.14 982.2,-132.11 986.31,-124.29"/>
<polygon fill="#63b8ff" stroke="#63b8ff" points="969.96,-147.87 968.41,-158.35 976.16,-151.12 969.96,-147.87"/>
</a>
</g>
</g>
<!-- Node10&#45;&gt;Node3 -->
<g id="edge12_Node000010_Node000003" class="edge">
<title>Node10&#45;&gt;Node3</title>
<g id="a_edge12_Node000010_Node000003"><a xlink:title=" ">
<path fill="none" stroke="#63b8ff" d="M583.03,-74.93C561.55,-65.02 537.36,-53.86 516.92,-44.42"/>
<polygon fill="#63b8ff" stroke="#63b8ff" points="581.4,-78.04 591.95,-79.05 584.33,-71.68 581.4,-78.04"/>
</a>
</g>
</g>
<!-- Node10&#45;&gt;Node5 -->
<g id="edge11_Node000010_Node000005" class="edge">
<title>Node10&#45;&gt;Node5</title>
<g id="a_edge11_Node000010_Node000005"><a xlink:title=" ">
<path fill="none" stroke="#63b8ff" d="M716.29,-76.04C747.67,-65.84 783.6,-54.17 813.75,-44.37"/>
<polygon fill="#63b8ff" stroke="#63b8ff" points="715.27,-72.7 706.84,-79.12 717.43,-79.35 715.27,-72.7"/>
</a>
</g>
</g>
<!-- Node11&#45;&gt;Node3 -->
<g id="edge15_Node000011_Node000003" class="edge">
<title>Node11&#45;&gt;Node3</title>
<g id="a_edge15_Node000011_Node000003"><a xlink:title=" ">
<path fill="none" stroke="#63b8ff" d="M470.5,-68.25C470.5,-60.15 470.5,-51.68 470.5,-44.29"/>
<polygon fill="#63b8ff" stroke="#63b8ff" points="467,-68.17 470.5,-78.17 474,-68.17 467,-68.17"/>
</a>
</g>
</g>
<!-- Node11&#45;&gt;Node5 -->
<g id="edge14_Node000011_Node000005" class="edge">
<title>Node11&#45;&gt;Node5</title>
<g id="a_edge14_Node000011_Node000005"><a xlink:title=" ">
<path fill="none" stroke="#63b8ff" d="M557.7,-79.6C647.8,-60.82 740.4,-45.07 803.61,-34.85"/>
<polygon fill="#63b8ff" stroke="#63b8ff" points="556.99,-76.17 547.92,-81.66 558.43,-83.02 556.99,-76.17"/>
</a>
</g>
</g>
<!-- Node11&#45;&gt;Node12 -->
<g id="edge16_Node000011_Node000012" class="edge">
<title>Node11&#45;&gt;Node12</title>
<g id="a_edge16_Node000011_Node000012"><a xlink:title=" ">
<path fill="none" stroke="#63b8ff" d="M391.25,-76.18C358.6,-65.95 321.13,-54.21 289.72,-44.37"/>
<polygon fill="#63b8ff" stroke="#63b8ff" points="390.1,-79.48 400.69,-79.13 392.19,-72.8 390.1,-79.48"/>
</a>
</g>
</g>
<!-- Node18 -->
<g id="Node000018" class="node">
<title>Node18</title>
<g id="a_Node000018"><a xlink:href="_print_callback_wrapper_8cpp.html" target="_top" xlink:title=" ">
<polygon fill="white" stroke="#666666" points="377.38,-124 207.62,-124 207.62,-80 377.38,-80 377.38,-124"/>
<text text-anchor="start" x="215.62" y="-110.5" font-family="Helvetica,sans-Serif" font-size="10.00">C:/Users/emilly/Documents</text>
<text text-anchor="start" x="215.62" y="-98.5" font-family="Helvetica,sans-Serif" font-size="10.00">/Lucca/Projetos/Cpp/NikiScript</text>
<text text-anchor="middle" x="292.5" y="-86.5" font-family="Helvetica,sans-Serif" font-size="10.00">/wrapper/PrintCallbackWrapper.cpp</text>
</a>
</g>
</g>
<!-- Node17&#45;&gt;Node18 -->
<g id="edge23_Node000017_Node000018" class="edge">
<title>Node17&#45;&gt;Node18</title>
<g id="a_edge23_Node000017_Node000018"><a xlink:title=" ">
<path fill="none" stroke="#63b8ff" d="M652.24,-159.48C534.91,-138.38 501.65,-144.53 386.5,-124 383.62,-123.49 380.69,-122.94 377.74,-122.38"/>
<polygon fill="#63b8ff" stroke="#63b8ff" points="651.52,-162.91 661.99,-161.27 652.78,-156.02 651.52,-162.91"/>
</a>
</g>
</g>
</g>
</svg>
