<?xml version="1.0" encoding="UTF-8" standalone="no"?>
<!DOCTYPE svg PUBLIC "-//W3C//DTD SVG 1.1//EN"
 "http://www.w3.org/Graphics/SVG/1.1/DTD/svg11.dtd">
<!-- Generated by graphviz version 12.2.1 (20241206.2353)
 -->
<!-- Title: C:/Users/emilly/Documents/Lucca/Projetos/Cpp/NikiScript/example/src/example.cpp Pages: 1 -->
<svg width="940pt" height="332pt"
 viewBox="0.00 0.00 939.75 332.00" xmlns="http://www.w3.org/2000/svg" xmlns:xlink="http://www.w3.org/1999/xlink">
<g id="graph0" class="graph" transform="scale(1 1) rotate(0) translate(4 328)">
<title>C:/Users/emilly/Documents/Lucca/Projetos/Cpp/NikiScript/example/src/example.cpp</title>
<!-- Node1 -->
<g id="Node000001" class="node">
<title>Node1</title>
<g id="a_Node000001"><a xlink:title=" ">
<polygon fill="#999999" stroke="#666666" points="653.25,-324 502.25,-324 502.25,-280 653.25,-280 653.25,-324"/>
<text text-anchor="start" x="510.25" y="-310.5" font-family="Helvetica,sans-Serif" font-size="10.00">C:/Users/emilly/Documents</text>
<text text-anchor="start" x="510.25" y="-298.5" font-family="Helvetica,sans-Serif" font-size="10.00">/Lucca/Projetos/Cpp/NikiScript</text>
<text text-anchor="middle" x="577.75" y="-286.5" font-family="Helvetica,sans-Serif" font-size="10.00">/example/src/example.cpp</text>
</a>
</g>
</g>
<!-- Node2 -->
<g id="Node000002" class="node">
<title>Node2</title>
<g id="a_Node000002"><a xlink:title=" ">
<polygon fill="#e0e0e0" stroke="#999999" points="53.5,-244 0,-244 0,-224 53.5,-224 53.5,-244"/>
<text text-anchor="middle" x="26.75" y="-230.5" font-family="Helvetica,sans-Serif" font-size="10.00">iostream</text>
</a>
</g>
</g>
<!-- Node1&#45;&gt;Node2 -->
<g id="edge1_Node000001_Node000002" class="edge">
<title>Node1&#45;&gt;Node2</title>
<g id="a_edge1_Node000001_Node000002"><a xlink:title=" ">
<path fill="none" stroke="#63b8ff" d="M501.8,-295.01C401.86,-286.57 220.92,-269.3 67.75,-244 66.74,-243.83 65.72,-243.66 64.7,-243.48"/>
<polygon fill="#63b8ff" stroke="#63b8ff" points="65.55,-240.08 55.06,-241.6 64.21,-246.95 65.55,-240.08"/>
</a>
</g>
</g>
<!-- Node3 -->
<g id="Node000003" class="node">
<title>Node3</title>
<g id="a_Node000003"><a xlink:title=" ">
<polygon fill="#e0e0e0" stroke="#999999" points="618.75,-20 578.75,-20 578.75,0 618.75,0 618.75,-20"/>
<text text-anchor="middle" x="598.75" y="-6.5" font-family="Helvetica,sans-Serif" font-size="10.00">string</text>
</a>
</g>
</g>
<!-- Node1&#45;&gt;Node3 -->
<g id="edge2_Node000001_Node000003" class="edge">
<title>Node1&#45;&gt;Node3</title>
<g id="a_edge2_Node000001_Node000003"><a xlink:title=" ">
<path fill="none" stroke="#63b8ff" d="M609.45,-279.57C637.41,-257.84 673.75,-221.45 673.75,-179 673.75,-179 673.75,-179 673.75,-121 673.75,-90.9 671.47,-81.02 654.75,-56 647,-44.41 635.34,-34.36 624.67,-26.72"/>
<polygon fill="#63b8ff" stroke="#63b8ff" points="626.78,-23.92 616.53,-21.24 622.88,-29.73 626.78,-23.92"/>
</a>
</g>
</g>
<!-- Node4 -->
<g id="Node000004" class="node">
<title>Node4</title>
<g id="a_Node000004"><a xlink:title=" ">
<polygon fill="#e0e0e0" stroke="#999999" points="860.88,-20 812.62,-20 812.62,0 860.88,0 860.88,-20"/>
<text text-anchor="middle" x="836.75" y="-6.5" font-family="Helvetica,sans-Serif" font-size="10.00">stdint.h</text>
</a>
</g>
</g>
<!-- Node1&#45;&gt;Node4 -->
<g id="edge3_Node000001_Node000004" class="edge">
<title>Node1&#45;&gt;Node4</title>
<g id="a_edge3_Node000001_Node000004"><a xlink:title=" ">
<path fill="none" stroke="#63b8ff" d="M653.69,-290.46C757.71,-273.85 931.75,-237.34 931.75,-179 931.75,-179 931.75,-179 931.75,-121 931.75,-78.97 891.54,-45.07 863.44,-26.51"/>
<polygon fill="#63b8ff" stroke="#63b8ff" points="865.34,-23.57 855.01,-21.19 861.6,-29.49 865.34,-23.57"/>
</a>
</g>
</g>
<!-- Node5 -->
<g id="Node000005" class="node">
<title>Node5</title>
<g id="a_Node000005"><a xlink:title=" ">
<polygon fill="#e0e0e0" stroke="#999999" points="359.38,-20 308.12,-20 308.12,0 359.38,0 359.38,-20"/>
<text text-anchor="middle" x="333.75" y="-6.5" font-family="Helvetica,sans-Serif" font-size="10.00">sstream</text>
</a>
</g>
</g>
<!-- Node1&#45;&gt;Node5 -->
<g id="edge4_Node000001_Node000005" class="edge">
<title>Node1&#45;&gt;Node5</title>
<g id="a_edge4_Node000001_Node000005"><a xlink:title=" ">
<path fill="none" stroke="#63b8ff" d="M501.88,-297.99C362.93,-290.39 81.75,-264.46 81.75,-179 81.75,-179 81.75,-179 81.75,-121 81.75,-74.65 226.75,-35.32 296.77,-19.04"/>
<polygon fill="#63b8ff" stroke="#63b8ff" points="297.29,-22.51 306.26,-16.87 295.73,-15.68 297.29,-22.51"/>
</a>
</g>
</g>
<!-- Node6 -->
<g id="Node000006" class="node">
<title>Node6</title>
<g id="a_Node000006"><a xlink:href="_niki_script_8h.html" target="_top" xlink:title=" ">
<polygon fill="white" stroke="#666666" points="468.25,-244 401.25,-244 401.25,-224 468.25,-224 468.25,-244"/>
<text text-anchor="middle" x="434.75" y="-230.5" font-family="Helvetica,sans-Serif" font-size="10.00">NikiScript.h</text>
</a>
</g>
</g>
<!-- Node1&#45;&gt;Node6 -->
<g id="edge5_Node000001_Node000006" class="edge">
<title>Node1&#45;&gt;Node6</title>
<g id="a_edge5_Node000001_Node000006"><a xlink:title=" ">
<path fill="none" stroke="#63b8ff" d="M531.32,-279.57C509.68,-269.58 484.53,-257.97 465.32,-249.11"/>
<polygon fill="#63b8ff" stroke="#63b8ff" points="466.96,-246.01 456.42,-245 464.03,-252.37 466.96,-246.01"/>
</a>
</g>
</g>
<!-- Node8 -->
<g id="Node000008" class="node">
<title>Node8</title>
<g id="a_Node000008"><a xlink:href="_context_8h.html" target="_top" xlink:title=" ">
<polygon fill="white" stroke="#666666" points="512.12,-188 453.38,-188 453.38,-168 512.12,-168 512.12,-188"/>
<text text-anchor="middle" x="482.75" y="-174.5" font-family="Helvetica,sans-Serif" font-size="10.00">Context.h</text>
</a>
</g>
</g>
<!-- Node1&#45;&gt;Node8 -->
<g id="edge40_Node000001_Node000008" class="edge">
<title>Node1&#45;&gt;Node8</title>
<g id="a_edge40_Node000001_Node000008"><a xlink:title=" ">
<path fill="none" stroke="#63b8ff" d="M550.36,-279.57C538.75,-269.59 525.64,-257.05 515.75,-244 505.23,-230.11 496.48,-212.37 490.64,-198.92"/>
<polygon fill="#63b8ff" stroke="#63b8ff" points="493.93,-197.72 486.86,-189.82 487.46,-200.4 493.93,-197.72"/>
</a>
</g>
</g>
<!-- Node13 -->
<g id="Node000013" class="node">
<title>Node13</title>
<g id="a_Node000013"><a xlink:href="_print_callback_8h.html" target="_top" xlink:title=" ">
<polygon fill="white" stroke="#666666" points="646.12,-132 563.38,-132 563.38,-112 646.12,-112 646.12,-132"/>
<text text-anchor="middle" x="604.75" y="-118.5" font-family="Helvetica,sans-Serif" font-size="10.00">PrintCallback.h</text>
</a>
</g>
</g>
<!-- Node1&#45;&gt;Node13 -->
<g id="edge39_Node000001_Node000013" class="edge">
<title>Node1&#45;&gt;Node13</title>
<g id="a_edge39_Node000001_Node000013"><a xlink:title=" ">
<path fill="none" stroke="#63b8ff" d="M581.01,-279.53C586.26,-244.93 596.51,-177.29 601.66,-143.39"/>
<polygon fill="#63b8ff" stroke="#63b8ff" points="605.09,-144.1 603.13,-133.69 598.17,-143.05 605.09,-144.1"/>
</a>
</g>
</g>
<!-- Node16 -->
<g id="Node000016" class="node">
<title>Node16</title>
<g id="a_Node000016"><a xlink:href="_lexer_8h.html" target="_top" xlink:title=" ">
<polygon fill="white" stroke="#666666" points="749.88,-132 701.62,-132 701.62,-112 749.88,-112 749.88,-132"/>
<text text-anchor="middle" x="725.75" y="-118.5" font-family="Helvetica,sans-Serif" font-size="10.00">Lexer.h</text>
</a>
</g>
</g>
<!-- Node1&#45;&gt;Node16 -->
<g id="edge42_Node000001_Node000016" class="edge">
<title>Node1&#45;&gt;Node16</title>
<g id="a_edge42_Node000001_Node000016"><a xlink:title=" ">
<path fill="none" stroke="#63b8ff" d="M639.39,-279.59C657.05,-270.9 674.96,-259.24 687.75,-244 712.33,-214.73 721.05,-169.52 724.11,-143.44"/>
<polygon fill="#63b8ff" stroke="#63b8ff" points="727.56,-144.14 725.06,-133.84 720.6,-143.45 727.56,-144.14"/>
</a>
</g>
</g>
<!-- Node17 -->
<g id="Node000017" class="node">
<title>Node17</title>
<g id="a_Node000017"><a xlink:href="_token_8h.html" target="_top" xlink:title=" ">
<polygon fill="white" stroke="#666666" points="790,-76 739.5,-76 739.5,-56 790,-56 790,-76"/>
<text text-anchor="middle" x="764.75" y="-62.5" font-family="Helvetica,sans-Serif" font-size="10.00">Token.h</text>
</a>
</g>
</g>
<!-- Node1&#45;&gt;Node17 -->
<g id="edge41_Node000001_Node000017" class="edge">
<title>Node1&#45;&gt;Node17</title>
<g id="a_edge41_Node000001_Node000017"><a xlink:title=" ">
<path fill="none" stroke="#63b8ff" d="M651.6,-279.54C671.66,-270.98 692.13,-259.4 707.75,-244 746.7,-205.6 744.71,-184.86 758.75,-132 762.59,-117.54 764.07,-100.71 764.59,-87.8"/>
<polygon fill="#63b8ff" stroke="#63b8ff" points="768.09,-88.02 764.82,-77.94 761.09,-87.86 768.09,-88.02"/>
</a>
</g>
</g>
<!-- Node18 -->
<g id="Node000018" class="node">
<title>Node18</title>
<g id="a_Node000018"><a xlink:href="_parser_8h.html" target="_top" xlink:title=" ">
<polygon fill="white" stroke="#666666" points="577.12,-244 524.38,-244 524.38,-224 577.12,-224 577.12,-244"/>
<text text-anchor="middle" x="550.75" y="-230.5" font-family="Helvetica,sans-Serif" font-size="10.00">Parser.h</text>
</a>
</g>
</g>
<!-- Node1&#45;&gt;Node18 -->
<g id="edge43_Node000001_Node000018" class="edge">
<title>Node1&#45;&gt;Node18</title>
<g id="a_edge43_Node000001_Node000018"><a xlink:title=" ">
<path fill="none" stroke="#63b8ff" d="M569.06,-279.75C565.79,-271.75 562.08,-262.69 558.86,-254.83"/>
<polygon fill="#63b8ff" stroke="#63b8ff" points="562.2,-253.75 555.18,-245.82 555.72,-256.4 562.2,-253.75"/>
</a>
</g>
</g>
<!-- Node7 -->
<g id="Node000007" class="node">
<title>Node7</title>
<g id="a_Node000007"><a xlink:title=" ">
<polygon fill="#e0e0e0" stroke="#999999" points="240.5,-20 175,-20 175,0 240.5,0 240.5,-20"/>
<text text-anchor="middle" x="207.75" y="-6.5" font-family="Helvetica,sans-Serif" font-size="10.00">string_view</text>
</a>
</g>
</g>
<!-- Node6&#45;&gt;Node7 -->
<g id="edge6_Node000006_Node000007" class="edge">
<title>Node6&#45;&gt;Node7</title>
<g id="a_edge6_Node000006_Node000007"><a xlink:title=" ">
<path fill="none" stroke="#63b8ff" d="M400.87,-231.74C341.79,-227.49 221.13,-209.27 167.75,-132 161.68,-123.21 155.73,-92.32 169.75,-56 173.72,-45.72 181.09,-36.11 188.28,-28.44"/>
<polygon fill="#63b8ff" stroke="#63b8ff" points="190.7,-30.97 195.36,-21.46 185.79,-25.99 190.7,-30.97"/>
</a>
</g>
</g>
<!-- Node6&#45;&gt;Node8 -->
<g id="edge7_Node000006_Node000008" class="edge">
<title>Node6&#45;&gt;Node8</title>
<g id="a_edge7_Node000006_Node000008"><a xlink:title=" ">
<path fill="none" stroke="#63b8ff" d="M443.11,-223.59C449.65,-216.24 458.93,-205.8 466.87,-196.87"/>
<polygon fill="#63b8ff" stroke="#63b8ff" points="469.45,-199.23 473.48,-189.43 464.22,-194.58 469.45,-199.23"/>
</a>
</g>
</g>
<!-- Node8&#45;&gt;Node3 -->
<g id="edge10_Node000008_Node000003" class="edge">
<title>Node8&#45;&gt;Node3</title>
<g id="a_edge10_Node000008_Node000003"><a xlink:title=" ">
<path fill="none" stroke="#63b8ff" d="M489.32,-167.6C507.9,-141.01 561.1,-64.89 585.82,-29.5"/>
<polygon fill="#63b8ff" stroke="#63b8ff" points="588.53,-31.74 591.39,-21.54 582.79,-27.73 588.53,-31.74"/>
</a>
</g>
</g>
<!-- Node8&#45;&gt;Node4 -->
<g id="edge9_Node000008_Node000004" class="edge">
<title>Node8&#45;&gt;Node4</title>
<g id="a_edge9_Node000008_Node000004"><a xlink:title=" ">
<path fill="none" stroke="#63b8ff" d="M512.31,-175.93C563.89,-173.25 672.99,-163.95 758.75,-132 803.25,-115.42 826.58,-117.46 849.75,-76 857.56,-62.03 853.05,-44.06 847.3,-30.55"/>
<polygon fill="#63b8ff" stroke="#63b8ff" points="850.57,-29.29 843.08,-21.81 844.27,-32.34 850.57,-29.29"/>
</a>
</g>
</g>
<!-- Node9 -->
<g id="Node000009" class="node">
<title>Node9</title>
<g id="a_Node000009"><a xlink:title=" ">
<polygon fill="#e0e0e0" stroke="#999999" points="481.25,-20 438.25,-20 438.25,0 481.25,0 481.25,-20"/>
<text text-anchor="middle" x="459.75" y="-6.5" font-family="Helvetica,sans-Serif" font-size="10.00">vector</text>
</a>
</g>
</g>
<!-- Node8&#45;&gt;Node9 -->
<g id="edge8_Node000008_Node000009" class="edge">
<title>Node8&#45;&gt;Node9</title>
<g id="a_edge8_Node000008_Node000009"><a xlink:title=" ">
<path fill="none" stroke="#63b8ff" d="M481.45,-167.6C477.83,-141.46 467.58,-67.48 462.57,-31.36"/>
<polygon fill="#63b8ff" stroke="#63b8ff" points="466.09,-31.22 461.25,-21.8 459.15,-32.18 466.09,-31.22"/>
</a>
</g>
</g>
<!-- Node10 -->
<g id="Node000010" class="node">
<title>Node10</title>
<g id="a_Node000010"><a xlink:title=" ">
<polygon fill="#e0e0e0" stroke="#999999" points="268.12,-76 185.38,-76 185.38,-56 268.12,-56 268.12,-76"/>
<text text-anchor="middle" x="226.75" y="-62.5" font-family="Helvetica,sans-Serif" font-size="10.00">unordered_map</text>
</a>
</g>
</g>
<!-- Node8&#45;&gt;Node10 -->
<g id="edge11_Node000008_Node000010" class="edge">
<title>Node8&#45;&gt;Node10</title>
<g id="a_edge11_Node000008_Node000010"><a xlink:title=" ">
<path fill="none" stroke="#63b8ff" d="M452.9,-177.32C383.07,-177.35 212.29,-173.15 176.75,-132 162.72,-115.76 182.55,-96.11 201.22,-82.7"/>
<polygon fill="#63b8ff" stroke="#63b8ff" points="203.11,-85.64 209.44,-77.15 199.2,-79.84 203.11,-85.64"/>
</a>
</g>
</g>
<!-- Node11 -->
<g id="Node000011" class="node">
<title>Node11</title>
<g id="a_Node000011"><a xlink:href="_command_8h.html" target="_top" xlink:title=" ">
<polygon fill="white" stroke="#666666" points="431.38,-76 362.12,-76 362.12,-56 431.38,-56 431.38,-76"/>
<text text-anchor="middle" x="396.75" y="-62.5" font-family="Helvetica,sans-Serif" font-size="10.00">Command.h</text>
</a>
</g>
</g>
<!-- Node8&#45;&gt;Node11 -->
<g id="edge12_Node000008_Node000011" class="edge">
<title>Node8&#45;&gt;Node11</title>
<g id="a_edge12_Node000008_Node000011"><a xlink:title=" ">
<path fill="none" stroke="#63b8ff" d="M475.42,-167.62C461.2,-149.44 429.66,-109.09 411.12,-85.38"/>
<polygon fill="#63b8ff" stroke="#63b8ff" points="413.91,-83.27 405,-77.55 408.4,-87.58 413.91,-83.27"/>
</a>
</g>
</g>
<!-- Node12 -->
<g id="Node000012" class="node">
<title>Node12</title>
<g id="a_Node000012"><a xlink:href="_command_handler_8h.html" target="_top" xlink:title=" ">
<polygon fill="white" stroke="#666666" points="289.25,-132 186.25,-132 186.25,-112 289.25,-112 289.25,-132"/>
<text text-anchor="middle" x="237.75" y="-118.5" font-family="Helvetica,sans-Serif" font-size="10.00">CommandHandler.h</text>
</a>
</g>
</g>
<!-- Node8&#45;&gt;Node12 -->
<g id="edge16_Node000008_Node000012" class="edge">
<title>Node8&#45;&gt;Node12</title>
<g id="a_edge16_Node000008_Node000012"><a xlink:title=" ">
<path fill="none" stroke="#63b8ff" d="M453.2,-170.49C413.29,-161.69 341.45,-145.86 291.76,-134.91"/>
<polygon fill="#63b8ff" stroke="#63b8ff" points="292.58,-131.5 282.06,-132.77 291.07,-138.34 292.58,-131.5"/>
</a>
</g>
</g>
<!-- Node8&#45;&gt;Node13 -->
<g id="edge20_Node000008_Node000013" class="edge">
<title>Node8&#45;&gt;Node13</title>
<g id="a_edge20_Node000008_Node000013"><a xlink:title=" ">
<path fill="none" stroke="#63b8ff" d="M504,-167.59C523.04,-159.17 551.23,-146.69 572.95,-137.07"/>
<polygon fill="#63b8ff" stroke="#63b8ff" points="574.22,-140.34 581.95,-133.09 571.39,-133.94 574.22,-140.34"/>
</a>
</g>
</g>
<!-- Node15 -->
<g id="Node000015" class="node">
<title>Node15</title>
<g id="a_Node000015"><a xlink:href="_program_variable_8h.html" target="_top" xlink:title=" ">
<polygon fill="white" stroke="#666666" points="402.5,-132 307,-132 307,-112 402.5,-112 402.5,-132"/>
<text text-anchor="middle" x="354.75" y="-118.5" font-family="Helvetica,sans-Serif" font-size="10.00">ProgramVariable.h</text>
</a>
</g>
</g>
<!-- Node8&#45;&gt;Node15 -->
<g id="edge27_Node000008_Node000015" class="edge">
<title>Node8&#45;&gt;Node15</title>
<g id="a_edge27_Node000008_Node000015"><a xlink:title=" ">
<path fill="none" stroke="#63b8ff" d="M460.45,-167.59C440.39,-159.13 410.63,-146.58 387.8,-136.94"/>
<polygon fill="#63b8ff" stroke="#63b8ff" points="389.19,-133.73 378.61,-133.07 386.47,-140.18 389.19,-133.73"/>
</a>
</g>
</g>
<!-- Node8&#45;&gt;Node16 -->
<g id="edge32_Node000008_Node000016" class="edge">
<title>Node8&#45;&gt;Node16</title>
<g id="a_edge32_Node000008_Node000016"><a xlink:title=" ">
<path fill="none" stroke="#63b8ff" d="M512.55,-170.38C557.39,-160.41 642.07,-141.59 690.12,-130.92"/>
<polygon fill="#63b8ff" stroke="#63b8ff" points="690.73,-134.37 699.73,-128.78 689.21,-127.53 690.73,-134.37"/>
</a>
</g>
</g>
<!-- Node11&#45;&gt;Node3 -->
<g id="edge15_Node000011_Node000003" class="edge">
<title>Node11&#45;&gt;Node3</title>
<g id="a_edge15_Node000011_Node000003"><a xlink:title=" ">
<path fill="none" stroke="#63b8ff" d="M431.48,-55.72C469.64,-45.51 530.43,-29.27 567.26,-19.42"/>
<polygon fill="#63b8ff" stroke="#63b8ff" points="568.1,-22.82 576.85,-16.85 566.29,-16.05 568.1,-22.82"/>
</a>
</g>
</g>
<!-- Node11&#45;&gt;Node7 -->
<g id="edge14_Node000011_Node000007" class="edge">
<title>Node11&#45;&gt;Node7</title>
<g id="a_edge14_Node000011_Node000007"><a xlink:title=" ">
<path fill="none" stroke="#63b8ff" d="M363.83,-55.59C332.72,-46.71 285.83,-33.31 251.57,-23.52"/>
<polygon fill="#63b8ff" stroke="#63b8ff" points="252.96,-20.28 242.38,-20.9 251.04,-27.01 252.96,-20.28"/>
</a>
</g>
</g>
<!-- Node11&#45;&gt;Node9 -->
<g id="edge13_Node000011_Node000009" class="edge">
<title>Node11&#45;&gt;Node9</title>
<g id="a_edge13_Node000011_Node000009"><a xlink:title=" ">
<path fill="none" stroke="#63b8ff" d="M407.72,-55.59C416.67,-47.93 429.52,-36.91 440.21,-27.75"/>
<polygon fill="#63b8ff" stroke="#63b8ff" points="442.44,-30.45 447.75,-21.28 437.88,-25.13 442.44,-30.45"/>
</a>
</g>
</g>
<!-- Node12&#45;&gt;Node7 -->
<g id="edge18_Node000012_Node000007" class="edge">
<title>Node12&#45;&gt;Node7</title>
<g id="a_edge18_Node000012_Node000007"><a xlink:title=" ">
<path fill="none" stroke="#63b8ff" d="M216.34,-111.63C202.27,-104.19 185,-92.33 176.75,-76 168.69,-60.04 179.31,-41.63 190.25,-28.48"/>
<polygon fill="#63b8ff" stroke="#63b8ff" points="192.51,-31.2 196.64,-21.44 187.33,-26.5 192.51,-31.2"/>
</a>
</g>
</g>
<!-- Node12&#45;&gt;Node10 -->
<g id="edge17_Node000012_Node000010" class="edge">
<title>Node12&#45;&gt;Node10</title>
<g id="a_edge17_Node000012_Node000010"><a xlink:title=" ">
<path fill="none" stroke="#63b8ff" d="M235.83,-111.59C234.48,-104.93 232.61,-95.75 230.91,-87.44"/>
<polygon fill="#63b8ff" stroke="#63b8ff" points="234.37,-86.88 228.95,-77.78 227.51,-88.28 234.37,-86.88"/>
</a>
</g>
</g>
<!-- Node12&#45;&gt;Node11 -->
<g id="edge19_Node000012_Node000011" class="edge">
<title>Node12&#45;&gt;Node11</title>
<g id="a_edge19_Node000012_Node000011"><a xlink:title=" ">
<path fill="none" stroke="#63b8ff" d="M265.45,-111.59C291.05,-102.9 329.36,-89.89 358,-80.16"/>
<polygon fill="#63b8ff" stroke="#63b8ff" points="359.06,-83.5 367.41,-76.97 356.81,-76.87 359.06,-83.5"/>
</a>
</g>
</g>
<!-- Node13&#45;&gt;Node3 -->
<g id="edge22_Node000013_Node000003" class="edge">
<title>Node13&#45;&gt;Node3</title>
<g id="a_edge22_Node000013_Node000003"><a xlink:title=" ">
<path fill="none" stroke="#63b8ff" d="M601.55,-111.83C598.59,-102.84 594.41,-88.67 592.75,-76 590.81,-61.17 592.46,-44.35 594.52,-31.54"/>
<polygon fill="#63b8ff" stroke="#63b8ff" points="597.95,-32.24 596.32,-21.77 591.07,-30.97 597.95,-32.24"/>
</a>
</g>
</g>
<!-- Node13&#45;&gt;Node4 -->
<g id="edge21_Node000013_Node000004" class="edge">
<title>Node13&#45;&gt;Node4</title>
<g id="a_edge21_Node000013_Node000004"><a xlink:title=" ">
<path fill="none" stroke="#63b8ff" d="M646.4,-115.28C695.92,-107.8 774.88,-93.58 798.75,-76 814.03,-64.74 824.2,-45.35 830.14,-30.67"/>
<polygon fill="#63b8ff" stroke="#63b8ff" points="833.32,-32.16 833.5,-21.57 826.75,-29.74 833.32,-32.16"/>
</a>
</g>
</g>
<!-- Node14 -->
<g id="Node000014" class="node">
<title>Node14</title>
<g id="a_Node000014"><a xlink:href="_utils_8h.html" target="_top" xlink:title=" ">
<polygon fill="white" stroke="#666666" points="646,-76 601.5,-76 601.5,-56 646,-56 646,-76"/>
<text text-anchor="middle" x="623.75" y="-62.5" font-family="Helvetica,sans-Serif" font-size="10.00">Utils.h</text>
</a>
</g>
</g>
<!-- Node13&#45;&gt;Node14 -->
<g id="edge23_Node000013_Node000014" class="edge">
<title>Node13&#45;&gt;Node14</title>
<g id="a_edge23_Node000013_Node000014"><a xlink:title=" ">
<path fill="none" stroke="#63b8ff" d="M608.06,-111.59C610.43,-104.86 613.71,-95.53 616.66,-87.15"/>
<polygon fill="#63b8ff" stroke="#63b8ff" points="619.96,-88.32 619.98,-77.73 613.36,-86 619.96,-88.32"/>
</a>
</g>
</g>
<!-- Node14&#45;&gt;Node3 -->
<g id="edge25_Node000014_Node000003" class="edge">
<title>Node14&#45;&gt;Node3</title>
<g id="a_edge25_Node000014_Node000003"><a xlink:title=" ">
<path fill="none" stroke="#63b8ff" d="M619.4,-55.59C616.2,-48.7 611.76,-39.1 607.81,-30.57"/>
<polygon fill="#63b8ff" stroke="#63b8ff" points="611.07,-29.28 603.69,-21.67 604.72,-32.22 611.07,-29.28"/>
</a>
</g>
</g>
<!-- Node14&#45;&gt;Node4 -->
<g id="edge24_Node000014_Node000004" class="edge">
<title>Node14&#45;&gt;Node4</title>
<g id="a_edge24_Node000014_Node000004"><a xlink:title=" ">
<path fill="none" stroke="#63b8ff" d="M646.14,-59.32C683.11,-49.95 757.18,-31.17 801.32,-19.98"/>
<polygon fill="#63b8ff" stroke="#63b8ff" points="802.08,-23.4 810.91,-17.55 800.36,-16.61 802.08,-23.4"/>
</a>
</g>
</g>
<!-- Node14&#45;&gt;Node5 -->
<g id="edge26_Node000014_Node000005" class="edge">
<title>Node14&#45;&gt;Node5</title>
<g id="a_edge26_Node000014_Node000005"><a xlink:title=" ">
<path fill="none" stroke="#63b8ff" d="M601.48,-60.85C551.88,-51.62 431.94,-29.28 370.85,-17.91"/>
<polygon fill="#63b8ff" stroke="#63b8ff" points="371.77,-14.52 361.29,-16.13 370.48,-21.4 371.77,-14.52"/>
</a>
</g>
</g>
<!-- Node15&#45;&gt;Node3 -->
<g id="edge28_Node000015_Node000003" class="edge">
<title>Node15&#45;&gt;Node3</title>
<g id="a_edge28_Node000015_Node000003"><a xlink:title=" ">
<path fill="none" stroke="#63b8ff" d="M375.55,-111.62C418.61,-92.21 517.66,-47.56 568.07,-24.83"/>
<polygon fill="#63b8ff" stroke="#63b8ff" points="569.29,-28.12 576.96,-20.82 566.41,-21.74 569.29,-28.12"/>
</a>
</g>
</g>
<!-- Node15&#45;&gt;Node5 -->
<g id="edge30_Node000015_Node000005" class="edge">
<title>Node15&#45;&gt;Node5</title>
<g id="a_edge30_Node000015_Node000005"><a xlink:title=" ">
<path fill="none" stroke="#63b8ff" d="M352.96,-111.62C349.6,-94.01 342.26,-55.59 337.69,-31.65"/>
<polygon fill="#63b8ff" stroke="#63b8ff" points="341.13,-31.01 335.82,-21.84 334.26,-32.32 341.13,-31.01"/>
</a>
</g>
</g>
<!-- Node15&#45;&gt;Node7 -->
<g id="edge29_Node000015_Node000007" class="edge">
<title>Node15&#45;&gt;Node7</title>
<g id="a_edge29_Node000015_Node000007"><a xlink:title=" ">
<path fill="none" stroke="#63b8ff" d="M344.47,-111.77C329.84,-98.79 301.99,-74.65 276.75,-56 262.54,-45.5 245.98,-34.66 232.65,-26.25"/>
<polygon fill="#63b8ff" stroke="#63b8ff" points="234.79,-23.46 224.45,-21.14 231.09,-29.4 234.79,-23.46"/>
</a>
</g>
</g>
<!-- Node15&#45;&gt;Node10 -->
<g id="edge31_Node000015_Node000010" class="edge">
<title>Node15&#45;&gt;Node10</title>
<g id="a_edge31_Node000015_Node000010"><a xlink:title=" ">
<path fill="none" stroke="#63b8ff" d="M332.45,-111.59C312.39,-103.13 282.63,-90.58 259.8,-80.94"/>
<polygon fill="#63b8ff" stroke="#63b8ff" points="261.19,-77.73 250.61,-77.07 258.47,-84.18 261.19,-77.73"/>
</a>
</g>
</g>
<!-- Node16&#45;&gt;Node3 -->
<g id="edge34_Node000016_Node000003" class="edge">
<title>Node16&#45;&gt;Node3</title>
<g id="a_edge34_Node000016_Node000003"><a xlink:title=" ">
<path fill="none" stroke="#63b8ff" d="M722.4,-111.93C716.97,-98.28 705.08,-72.3 687.75,-56 671.17,-40.4 648.15,-28.96 629.68,-21.51"/>
<polygon fill="#63b8ff" stroke="#63b8ff" points="631.14,-18.33 620.55,-18.03 628.64,-24.87 631.14,-18.33"/>
</a>
</g>
</g>
<!-- Node16&#45;&gt;Node4 -->
<g id="edge33_Node000016_Node000004" class="edge">
<title>Node16&#45;&gt;Node4</title>
<g id="a_edge33_Node000016_Node000004"><a xlink:title=" ">
<path fill="none" stroke="#63b8ff" d="M750.02,-117.98C774.96,-113.47 812.73,-102.46 831.75,-76 840.85,-63.33 841.6,-45.47 840.36,-31.67"/>
<polygon fill="#63b8ff" stroke="#63b8ff" points="843.85,-31.35 839.04,-21.91 836.91,-32.29 843.85,-31.35"/>
</a>
</g>
</g>
<!-- Node16&#45;&gt;Node17 -->
<g id="edge35_Node000016_Node000017" class="edge">
<title>Node16&#45;&gt;Node17</title>
<g id="a_edge35_Node000016_Node000017"><a xlink:title=" ">
<path fill="none" stroke="#63b8ff" d="M732.54,-111.59C737.74,-104.39 745.08,-94.23 751.44,-85.43"/>
<polygon fill="#63b8ff" stroke="#63b8ff" points="754.13,-87.68 757.15,-77.53 748.46,-83.58 754.13,-87.68"/>
</a>
</g>
</g>
<!-- Node17&#45;&gt;Node3 -->
<g id="edge37_Node000017_Node000003" class="edge">
<title>Node17&#45;&gt;Node3</title>
<g id="a_edge37_Node000017_Node000003"><a xlink:title=" ">
<path fill="none" stroke="#63b8ff" d="M739.18,-56.68C709.77,-47.12 661.51,-31.42 629.93,-21.14"/>
<polygon fill="#63b8ff" stroke="#63b8ff" points="631.15,-17.86 620.56,-18.09 628.98,-24.52 631.15,-17.86"/>
</a>
</g>
</g>
<!-- Node17&#45;&gt;Node4 -->
<g id="edge36_Node000017_Node000004" class="edge">
<title>Node17&#45;&gt;Node4</title>
<g id="a_edge36_Node000017_Node000004"><a xlink:title=" ">
<path fill="none" stroke="#63b8ff" d="M777.29,-55.59C787.72,-47.77 802.8,-36.46 815.16,-27.19"/>
<polygon fill="#63b8ff" stroke="#63b8ff" points="817.24,-30.01 823.14,-21.21 813.04,-24.41 817.24,-30.01"/>
</a>
</g>
</g>
<!-- Node17&#45;&gt;Node9 -->
<g id="edge38_Node000017_Node000009" class="edge">
<title>Node17&#45;&gt;Node9</title>
<g id="a_edge38_Node000017_Node000009"><a xlink:title=" ">
<path fill="none" stroke="#63b8ff" d="M739.01,-60.44C683.81,-50.67 554.1,-27.7 492.86,-16.86"/>
<polygon fill="#63b8ff" stroke="#63b8ff" points="493.52,-13.42 483.06,-15.13 492.3,-20.32 493.52,-13.42"/>
</a>
</g>
</g>
<!-- Node18&#45;&gt;Node8 -->
<g id="edge44_Node000018_Node000008" class="edge">
<title>Node18&#45;&gt;Node8</title>
<g id="a_edge44_Node000018_Node000008"><a xlink:title=" ">
<path fill="none" stroke="#63b8ff" d="M538.91,-223.59C529.06,-215.77 514.82,-204.46 503.14,-195.19"/>
<polygon fill="#63b8ff" stroke="#63b8ff" points="505.65,-192.72 495.64,-189.24 501.3,-198.2 505.65,-192.72"/>
</a>
</g>
</g>
</g>
</svg>
