<?xml version="1.0" encoding="UTF-8" standalone="no"?>
<!DOCTYPE svg PUBLIC "-//W3C//DTD SVG 1.1//EN"
 "http://www.w3.org/Graphics/SVG/1.1/DTD/svg11.dtd">
<!-- Generated by graphviz version 12.2.1 (20241206.2353)
 -->
<!-- Title: C:/Users/emilly/Documents/Lucca/Projetos/Cpp/NikiScript/example/src/example.cpp Pages: 1 -->
<svg width="998pt" height="108pt"
 viewBox="0.00 0.00 998.00 108.00" xmlns="http://www.w3.org/2000/svg" xmlns:xlink="http://www.w3.org/1999/xlink">
<g id="graph0" class="graph" transform="scale(1 1) rotate(0) translate(4 104)">
<title>C:/Users/emilly/Documents/Lucca/Projetos/Cpp/NikiScript/example/src/example.cpp</title>
<!-- Node1 -->
<g id="Node000001" class="node">
<title>Node1</title>
<g id="a_Node000001"><a xlink:title=" ">
<polygon fill="#999999" stroke="#666666" points="466.25,-100 315.25,-100 315.25,-56 466.25,-56 466.25,-100"/>
<text text-anchor="start" x="323.25" y="-86.5" font-family="Helvetica,sans-Serif" font-size="10.00">C:/Users/emilly/Documents</text>
<text text-anchor="start" x="323.25" y="-74.5" font-family="Helvetica,sans-Serif" font-size="10.00">/Lucca/Projetos/Cpp/NikiScript</text>
<text text-anchor="middle" x="390.75" y="-62.5" font-family="Helvetica,sans-Serif" font-size="10.00">/example/src/example.cpp</text>
</a>
</g>
</g>
<!-- Node2 -->
<g id="Node000002" class="node">
<title>Node2</title>
<g id="a_Node000002"><a xlink:title=" ">
<polygon fill="#e0e0e0" stroke="#999999" points="53.5,-20 0,-20 0,0 53.5,0 53.5,-20"/>
<text text-anchor="middle" x="26.75" y="-6.5" font-family="Helvetica,sans-Serif" font-size="10.00">iostream</text>
</a>
</g>
</g>
<!-- Node1&#45;&gt;Node2 -->
<g id="edge1_Node000001_Node000002" class="edge">
<title>Node1&#45;&gt;Node2</title>
<g id="a_edge1_Node000001_Node000002"><a xlink:title=" ">
<path fill="none" stroke="#63b8ff" d="M314.89,-65.43C250.82,-55.28 156.42,-39.48 64.96,-20.34"/>
<polygon fill="#63b8ff" stroke="#63b8ff" points="65.82,-16.95 55.31,-18.31 64.37,-23.8 65.82,-16.95"/>
</a>
</g>
</g>
<!-- Node3 -->
<g id="Node000003" class="node">
<title>Node3</title>
<g id="a_Node000003"><a xlink:title=" ">
<polygon fill="#e0e0e0" stroke="#999999" points="111.75,-20 71.75,-20 71.75,0 111.75,0 111.75,-20"/>
<text text-anchor="middle" x="91.75" y="-6.5" font-family="Helvetica,sans-Serif" font-size="10.00">string</text>
</a>
</g>
</g>
<!-- Node1&#45;&gt;Node3 -->
<g id="edge2_Node000001_Node000003" class="edge">
<title>Node1&#45;&gt;Node3</title>
<g id="a_edge2_Node000001_Node000003"><a xlink:title=" ">
<path fill="none" stroke="#63b8ff" d="M314.95,-62.95C263.25,-52.92 193.03,-38.42 122.78,-20.35"/>
<polygon fill="#63b8ff" stroke="#63b8ff" points="123.99,-17.04 113.43,-17.92 122.23,-23.82 123.99,-17.04"/>
</a>
</g>
</g>
<!-- Node4 -->
<g id="Node000004" class="node">
<title>Node4</title>
<g id="a_Node000004"><a xlink:title=" ">
<polygon fill="#e0e0e0" stroke="#999999" points="177.88,-20 129.62,-20 129.62,0 177.88,0 177.88,-20"/>
<text text-anchor="middle" x="153.75" y="-6.5" font-family="Helvetica,sans-Serif" font-size="10.00">stdint.h</text>
</a>
</g>
</g>
<!-- Node1&#45;&gt;Node4 -->
<g id="edge3_Node000001_Node000004" class="edge">
<title>Node1&#45;&gt;Node4</title>
<g id="a_edge3_Node000001_Node000004"><a xlink:title=" ">
<path fill="none" stroke="#63b8ff" d="M314.78,-55.84C272.64,-44.11 222.21,-30.07 189.16,-20.86"/>
<polygon fill="#63b8ff" stroke="#63b8ff" points="190.26,-17.53 179.69,-18.22 188.38,-24.28 190.26,-17.53"/>
</a>
</g>
</g>
<!-- Node5 -->
<g id="Node000005" class="node">
<title>Node5</title>
<g id="a_Node000005"><a xlink:title=" ">
<polygon fill="#e0e0e0" stroke="#999999" points="247.38,-20 196.12,-20 196.12,0 247.38,0 247.38,-20"/>
<text text-anchor="middle" x="221.75" y="-6.5" font-family="Helvetica,sans-Serif" font-size="10.00">sstream</text>
</a>
</g>
</g>
<!-- Node1&#45;&gt;Node5 -->
<g id="edge4_Node000001_Node000005" class="edge">
<title>Node1&#45;&gt;Node5</title>
<g id="a_edge4_Node000001_Node000005"><a xlink:title=" ">
<path fill="none" stroke="#63b8ff" d="M335.88,-55.57C309.71,-45.35 279.19,-33.43 256.3,-24.49"/>
<polygon fill="#63b8ff" stroke="#63b8ff" points="257.73,-21.29 247.14,-20.92 255.18,-27.81 257.73,-21.29"/>
</a>
</g>
</g>
<!-- Node6 -->
<g id="Node000006" class="node">
<title>Node6</title>
<g id="a_Node000006"><a xlink:title=" ">
<polygon fill="#e0e0e0" stroke="#999999" points="378.12,-20 265.38,-20 265.38,0 378.12,0 378.12,-20"/>
<text text-anchor="middle" x="321.75" y="-6.5" font-family="Helvetica,sans-Serif" font-size="10.00">NikiScript/NikiScript.h</text>
</a>
</g>
</g>
<!-- Node1&#45;&gt;Node6 -->
<g id="edge5_Node000001_Node000006" class="edge">
<title>Node1&#45;&gt;Node6</title>
<g id="a_edge5_Node000001_Node000006"><a xlink:title=" ">
<path fill="none" stroke="#63b8ff" d="M368.54,-55.75C359.2,-46.82 348.48,-36.57 339.66,-28.13"/>
<polygon fill="#63b8ff" stroke="#63b8ff" points="342.34,-25.85 332.69,-21.47 337.5,-30.91 342.34,-25.85"/>
</a>
</g>
</g>
<!-- Node7 -->
<g id="Node000007" class="node">
<title>Node7</title>
<g id="a_Node000007"><a xlink:title=" ">
<polygon fill="#e0e0e0" stroke="#999999" points="525,-20 396.5,-20 396.5,0 525,0 525,-20"/>
<text text-anchor="middle" x="460.75" y="-6.5" font-family="Helvetica,sans-Serif" font-size="10.00">NikiScript/PrintCallback.h</text>
</a>
</g>
</g>
<!-- Node1&#45;&gt;Node7 -->
<g id="edge6_Node000001_Node000007" class="edge">
<title>Node1&#45;&gt;Node7</title>
<g id="a_edge6_Node000001_Node000007"><a xlink:title=" ">
<path fill="none" stroke="#63b8ff" d="M413.28,-55.75C422.76,-46.82 433.63,-36.57 442.58,-28.13"/>
<polygon fill="#63b8ff" stroke="#63b8ff" points="444.78,-30.86 449.66,-21.46 439.98,-25.77 444.78,-30.86"/>
</a>
</g>
</g>
<!-- Node8 -->
<g id="Node000008" class="node">
<title>Node8</title>
<g id="a_Node000008"><a xlink:title=" ">
<polygon fill="#e0e0e0" stroke="#999999" points="648,-20 543.5,-20 543.5,0 648,0 648,-20"/>
<text text-anchor="middle" x="595.75" y="-6.5" font-family="Helvetica,sans-Serif" font-size="10.00">NikiScript/Context.h</text>
</a>
</g>
</g>
<!-- Node1&#45;&gt;Node8 -->
<g id="edge7_Node000001_Node000008" class="edge">
<title>Node1&#45;&gt;Node8</title>
<g id="a_edge7_Node000001_Node000008"><a xlink:title=" ">
<path fill="none" stroke="#63b8ff" d="M457.31,-55.57C489.68,-45.15 527.52,-32.97 555.45,-23.97"/>
<polygon fill="#63b8ff" stroke="#63b8ff" points="556.5,-27.31 564.95,-20.92 554.36,-20.65 556.5,-27.31"/>
</a>
</g>
</g>
<!-- Node9 -->
<g id="Node000009" class="node">
<title>Node9</title>
<g id="a_Node000009"><a xlink:title=" ">
<polygon fill="#e0e0e0" stroke="#999999" points="761.88,-20 665.62,-20 665.62,0 761.88,0 761.88,-20"/>
<text text-anchor="middle" x="713.75" y="-6.5" font-family="Helvetica,sans-Serif" font-size="10.00">NikiScript/Token.h</text>
</a>
</g>
</g>
<!-- Node1&#45;&gt;Node9 -->
<g id="edge8_Node000001_Node000009" class="edge">
<title>Node1&#45;&gt;Node9</title>
<g id="a_edge8_Node000001_Node000009"><a xlink:title=" ">
<path fill="none" stroke="#63b8ff" d="M466.48,-61.53C524.5,-49.67 603.33,-33.56 656.24,-22.75"/>
<polygon fill="#63b8ff" stroke="#63b8ff" points="656.87,-26.19 665.97,-20.76 655.47,-19.34 656.87,-26.19"/>
</a>
</g>
</g>
<!-- Node10 -->
<g id="Node000010" class="node">
<title>Node10</title>
<g id="a_Node000010"><a xlink:title=" ">
<polygon fill="#e0e0e0" stroke="#999999" points="873.75,-20 779.75,-20 779.75,0 873.75,0 873.75,-20"/>
<text text-anchor="middle" x="826.75" y="-6.5" font-family="Helvetica,sans-Serif" font-size="10.00">NikiScript/Lexer.h</text>
</a>
</g>
</g>
<!-- Node1&#45;&gt;Node10 -->
<g id="edge9_Node000001_Node000010" class="edge">
<title>Node1&#45;&gt;Node10</title>
<g id="a_edge9_Node000001_Node000010"><a xlink:title=" ">
<path fill="none" stroke="#63b8ff" d="M466.49,-65.88C540.74,-54.92 657.46,-37.55 768.34,-20.36"/>
<polygon fill="#63b8ff" stroke="#63b8ff" points="768.56,-23.87 777.9,-18.88 767.48,-16.95 768.56,-23.87"/>
</a>
</g>
</g>
<!-- Node11 -->
<g id="Node000011" class="node">
<title>Node11</title>
<g id="a_Node000011"><a xlink:title=" ">
<polygon fill="#e0e0e0" stroke="#999999" points="990,-20 891.5,-20 891.5,0 990,0 990,-20"/>
<text text-anchor="middle" x="940.75" y="-6.5" font-family="Helvetica,sans-Serif" font-size="10.00">NikiScript/Parser.h</text>
</a>
</g>
</g>
<!-- Node1&#45;&gt;Node11 -->
<g id="edge10_Node000001_Node000011" class="edge">
<title>Node1&#45;&gt;Node11</title>
<g id="a_edge10_Node000001_Node000011"><a xlink:title=" ">
<path fill="none" stroke="#63b8ff" d="M466.72,-69.12C561.11,-59.12 727.4,-40.83 879.69,-20.37"/>
<polygon fill="#63b8ff" stroke="#63b8ff" points="880.15,-23.84 889.59,-19.04 879.22,-16.91 880.15,-23.84"/>
</a>
</g>
</g>
</g>
</svg>
