<?xml version="1.0" encoding="UTF-8" standalone="no"?>
<!DOCTYPE svg PUBLIC "-//W3C//DTD SVG 1.1//EN"
 "http://www.w3.org/Graphics/SVG/1.1/DTD/svg11.dtd">
<!-- Generated by graphviz version 12.2.1 (20241206.2353)
 -->
<!-- Title: C:/Users/emilly/Documents/Lucca/Projetos/Cpp/NikiScript/example/src/example.cpp Pages: 1 -->
<svg width="810pt" height="332pt"
 viewBox="0.00 0.00 809.50 332.00" xmlns="http://www.w3.org/2000/svg" xmlns:xlink="http://www.w3.org/1999/xlink">
<g id="graph0" class="graph" transform="scale(1 1) rotate(0) translate(4 328)">
<title>C:/Users/emilly/Documents/Lucca/Projetos/Cpp/NikiScript/example/src/example.cpp</title>
<!-- Node1 -->
<g id="Node000001" class="node">
<title>Node1</title>
<g id="a_Node000001"><a xlink:title=" ">
<polygon fill="#999999" stroke="#666666" points="606,-324 455,-324 455,-280 606,-280 606,-324"/>
<text text-anchor="start" x="463" y="-310.5" font-family="Helvetica,sans-Serif" font-size="10.00">C:/Users/emilly/Documents</text>
<text text-anchor="start" x="463" y="-298.5" font-family="Helvetica,sans-Serif" font-size="10.00">/Lucca/Projetos/Cpp/NikiScript</text>
<text text-anchor="middle" x="530.5" y="-286.5" font-family="Helvetica,sans-Serif" font-size="10.00">/example/src/example.cpp</text>
</a>
</g>
</g>
<!-- Node2 -->
<g id="Node000002" class="node">
<title>Node2</title>
<g id="a_Node000002"><a xlink:title=" ">
<polygon fill="#e0e0e0" stroke="#999999" points="290.25,-244 236.75,-244 236.75,-224 290.25,-224 290.25,-244"/>
<text text-anchor="middle" x="263.5" y="-230.5" font-family="Helvetica,sans-Serif" font-size="10.00">iostream</text>
</a>
</g>
</g>
<!-- Node1&#45;&gt;Node2 -->
<g id="edge1_Node000001_Node000002" class="edge">
<title>Node1&#45;&gt;Node2</title>
<g id="a_edge1_Node000001_Node000002"><a xlink:title=" ">
<path fill="none" stroke="#63b8ff" d="M454.54,-282.32C412.2,-271.89 358.22,-258.57 301.6,-244.52"/>
<polygon fill="#63b8ff" stroke="#63b8ff" points="302.64,-241.17 292.09,-242.16 300.95,-247.96 302.64,-241.17"/>
</a>
</g>
</g>
<!-- Node3 -->
<g id="Node000003" class="node">
<title>Node3</title>
<g id="a_Node000003"><a xlink:title=" ">
<polygon fill="#e0e0e0" stroke="#999999" points="451.5,-20 411.5,-20 411.5,0 451.5,0 451.5,-20"/>
<text text-anchor="middle" x="431.5" y="-6.5" font-family="Helvetica,sans-Serif" font-size="10.00">string</text>
</a>
</g>
</g>
<!-- Node1&#45;&gt;Node3 -->
<g id="edge2_Node000001_Node000003" class="edge">
<title>Node1&#45;&gt;Node3</title>
<g id="a_edge2_Node000001_Node000003"><a xlink:title=" ">
<path fill="none" stroke="#63b8ff" d="M547.29,-279.91C564.11,-256.63 587.5,-217.34 587.5,-179 587.5,-179 587.5,-179 587.5,-121 587.5,-60.64 508.53,-30.49 462.96,-18.11"/>
<polygon fill="#63b8ff" stroke="#63b8ff" points="463.92,-14.74 453.36,-15.65 462.18,-21.52 463.92,-14.74"/>
</a>
</g>
</g>
<!-- Node4 -->
<g id="Node000004" class="node">
<title>Node4</title>
<g id="a_Node000004"><a xlink:title=" ">
<polygon fill="#e0e0e0" stroke="#999999" points="630.62,-20 582.38,-20 582.38,0 630.62,0 630.62,-20"/>
<text text-anchor="middle" x="606.5" y="-6.5" font-family="Helvetica,sans-Serif" font-size="10.00">stdint.h</text>
</a>
</g>
</g>
<!-- Node1&#45;&gt;Node4 -->
<g id="edge3_Node000001_Node000004" class="edge">
<title>Node1&#45;&gt;Node4</title>
<g id="a_edge3_Node000001_Node000004"><a xlink:title=" ">
<path fill="none" stroke="#63b8ff" d="M606.47,-292.83C674.46,-280.8 763.5,-251.26 763.5,-179 763.5,-179 763.5,-179 763.5,-121 763.5,-90.9 765.45,-77.61 744.5,-56 717.59,-28.25 673.38,-17.6 642.26,-13.52"/>
<polygon fill="#63b8ff" stroke="#63b8ff" points="642.87,-10.06 632.55,-12.42 642.09,-17.02 642.87,-10.06"/>
</a>
</g>
</g>
<!-- Node5 -->
<g id="Node000005" class="node">
<title>Node5</title>
<g id="a_Node000005"><a xlink:title=" ">
<polygon fill="#e0e0e0" stroke="#999999" points="783.12,-20 731.88,-20 731.88,0 783.12,0 783.12,-20"/>
<text text-anchor="middle" x="757.5" y="-6.5" font-family="Helvetica,sans-Serif" font-size="10.00">sstream</text>
</a>
</g>
</g>
<!-- Node1&#45;&gt;Node5 -->
<g id="edge4_Node000001_Node000005" class="edge">
<title>Node1&#45;&gt;Node5</title>
<g id="a_edge4_Node000001_Node000005"><a xlink:title=" ">
<path fill="none" stroke="#63b8ff" d="M606.35,-298.23C686.52,-290.75 801.5,-265.04 801.5,-179 801.5,-179 801.5,-179 801.5,-121 801.5,-87.04 783.2,-51.13 770.2,-29.91"/>
<polygon fill="#63b8ff" stroke="#63b8ff" points="773.33,-28.31 765,-21.77 767.43,-32.08 773.33,-28.31"/>
</a>
</g>
</g>
<!-- Node6 -->
<g id="Node000006" class="node">
<title>Node6</title>
<g id="a_Node000006"><a xlink:href="_niki_script_8h.html" target="_top" xlink:title=" ">
<polygon fill="white" stroke="#666666" points="375,-244 308,-244 308,-224 375,-224 375,-244"/>
<text text-anchor="middle" x="341.5" y="-230.5" font-family="Helvetica,sans-Serif" font-size="10.00">NikiScript.h</text>
</a>
</g>
</g>
<!-- Node1&#45;&gt;Node6 -->
<g id="edge5_Node000001_Node000006" class="edge">
<title>Node1&#45;&gt;Node6</title>
<g id="a_edge5_Node000001_Node000006"><a xlink:title=" ">
<path fill="none" stroke="#63b8ff" d="M469.14,-279.57C439.47,-269.21 404.81,-257.11 379.1,-248.13"/>
<polygon fill="#63b8ff" stroke="#63b8ff" points="380.34,-244.86 369.75,-244.86 378.03,-251.47 380.34,-244.86"/>
</a>
</g>
</g>
<!-- Node8 -->
<g id="Node000008" class="node">
<title>Node8</title>
<g id="a_Node000008"><a xlink:href="_context_8h.html" target="_top" xlink:title=" ">
<polygon fill="white" stroke="#666666" points="383.88,-188 325.12,-188 325.12,-168 383.88,-168 383.88,-188"/>
<text text-anchor="middle" x="354.5" y="-174.5" font-family="Helvetica,sans-Serif" font-size="10.00">Context.h</text>
</a>
</g>
</g>
<!-- Node1&#45;&gt;Node8 -->
<g id="edge39_Node000001_Node000008" class="edge">
<title>Node1&#45;&gt;Node8</title>
<g id="a_edge39_Node000001_Node000008"><a xlink:title=" ">
<path fill="none" stroke="#63b8ff" d="M483.11,-279.56C463.61,-269.85 441.25,-257.51 422.5,-244 402.93,-229.91 383.32,-210.45 370.22,-196.5"/>
<polygon fill="#63b8ff" stroke="#63b8ff" points="372.99,-194.34 363.64,-189.36 367.84,-199.08 372.99,-194.34"/>
</a>
</g>
</g>
<!-- Node13 -->
<g id="Node000013" class="node">
<title>Node13</title>
<g id="a_Node000013"><a xlink:href="_print_callback_8h.html" target="_top" xlink:title=" ">
<polygon fill="white" stroke="#666666" points="697.88,-132 615.12,-132 615.12,-112 697.88,-112 697.88,-132"/>
<text text-anchor="middle" x="656.5" y="-118.5" font-family="Helvetica,sans-Serif" font-size="10.00">PrintCallback.h</text>
</a>
</g>
</g>
<!-- Node1&#45;&gt;Node13 -->
<g id="edge38_Node000001_Node000013" class="edge">
<title>Node1&#45;&gt;Node13</title>
<g id="a_edge38_Node000001_Node000013"><a xlink:title=" ">
<path fill="none" stroke="#63b8ff" d="M563.39,-279.66C576.49,-269.96 590.93,-257.61 601.5,-244 625.95,-212.52 642.45,-168.44 650.59,-143.09"/>
<polygon fill="#63b8ff" stroke="#63b8ff" points="653.87,-144.32 653.47,-133.73 647.18,-142.26 653.87,-144.32"/>
</a>
</g>
</g>
<!-- Node16 -->
<g id="Node000016" class="node">
<title>Node16</title>
<g id="a_Node000016"><a xlink:href="_lexer_8h.html" target="_top" xlink:title=" ">
<polygon fill="white" stroke="#666666" points="482.62,-132 434.38,-132 434.38,-112 482.62,-112 482.62,-132"/>
<text text-anchor="middle" x="458.5" y="-118.5" font-family="Helvetica,sans-Serif" font-size="10.00">Lexer.h</text>
</a>
</g>
</g>
<!-- Node1&#45;&gt;Node16 -->
<g id="edge41_Node000001_Node000016" class="edge">
<title>Node1&#45;&gt;Node16</title>
<g id="a_edge41_Node000001_Node000016"><a xlink:title=" ">
<path fill="none" stroke="#63b8ff" d="M521.82,-279.53C507.7,-244.62 479.98,-176.1 466.39,-142.51"/>
<polygon fill="#63b8ff" stroke="#63b8ff" points="469.78,-141.55 462.79,-133.6 463.29,-144.18 469.78,-141.55"/>
</a>
</g>
</g>
<!-- Node17 -->
<g id="Node000017" class="node">
<title>Node17</title>
<g id="a_Node000017"><a xlink:href="_token_8h.html" target="_top" xlink:title=" ">
<polygon fill="white" stroke="#666666" points="483.75,-76 433.25,-76 433.25,-56 483.75,-56 483.75,-76"/>
<text text-anchor="middle" x="458.5" y="-62.5" font-family="Helvetica,sans-Serif" font-size="10.00">Token.h</text>
</a>
</g>
</g>
<!-- Node1&#45;&gt;Node17 -->
<g id="edge40_Node000001_Node000017" class="edge">
<title>Node1&#45;&gt;Node17</title>
<g id="a_edge40_Node000001_Node000017"><a xlink:title=" ">
<path fill="none" stroke="#63b8ff" d="M529.23,-279.62C526.4,-243.54 517.64,-168.94 491.5,-112 487.12,-102.47 480.54,-92.95 474.41,-85.14"/>
<polygon fill="#63b8ff" stroke="#63b8ff" points="477.12,-82.92 468.04,-77.45 471.73,-87.38 477.12,-82.92"/>
</a>
</g>
</g>
<!-- Node18 -->
<g id="Node000018" class="node">
<title>Node18</title>
<g id="a_Node000018"><a xlink:href="_parser_8h.html" target="_top" xlink:title=" ">
<polygon fill="white" stroke="#666666" points="483.88,-244 431.12,-244 431.12,-224 483.88,-224 483.88,-244"/>
<text text-anchor="middle" x="457.5" y="-230.5" font-family="Helvetica,sans-Serif" font-size="10.00">Parser.h</text>
</a>
</g>
</g>
<!-- Node1&#45;&gt;Node18 -->
<g id="edge42_Node000001_Node000018" class="edge">
<title>Node1&#45;&gt;Node18</title>
<g id="a_edge42_Node000001_Node000018"><a xlink:title=" ">
<path fill="none" stroke="#63b8ff" d="M507,-279.75C497.12,-270.82 485.78,-260.57 476.45,-252.13"/>
<polygon fill="#63b8ff" stroke="#63b8ff" points="478.81,-249.54 469.04,-245.43 474.11,-254.74 478.81,-249.54"/>
</a>
</g>
</g>
<!-- Node7 -->
<g id="Node000007" class="node">
<title>Node7</title>
<g id="a_Node000007"><a xlink:title=" ">
<polygon fill="#e0e0e0" stroke="#999999" points="140.25,-20 74.75,-20 74.75,0 140.25,0 140.25,-20"/>
<text text-anchor="middle" x="107.5" y="-6.5" font-family="Helvetica,sans-Serif" font-size="10.00">string_view</text>
</a>
</g>
</g>
<!-- Node6&#45;&gt;Node7 -->
<g id="edge6_Node000006_Node000007" class="edge">
<title>Node6&#45;&gt;Node7</title>
<g id="a_edge6_Node000006_Node000007"><a xlink:title=" ">
<path fill="none" stroke="#63b8ff" d="M307.82,-223.65C258.15,-208.93 163.48,-177.31 92.5,-132 61.75,-112.37 47.04,-109.45 32.5,-76 22.75,-53.56 46.89,-36.02 70.32,-24.84"/>
<polygon fill="#63b8ff" stroke="#63b8ff" points="71.46,-28.17 79.18,-20.92 68.62,-21.77 71.46,-28.17"/>
</a>
</g>
</g>
<!-- Node6&#45;&gt;Node8 -->
<g id="edge7_Node000006_Node000008" class="edge">
<title>Node6&#45;&gt;Node8</title>
<g id="a_edge7_Node000006_Node000008"><a xlink:title=" ">
<path fill="none" stroke="#63b8ff" d="M343.76,-223.59C345.37,-216.93 347.58,-207.75 349.58,-199.44"/>
<polygon fill="#63b8ff" stroke="#63b8ff" points="352.97,-200.31 351.91,-189.77 346.16,-198.67 352.97,-200.31"/>
</a>
</g>
</g>
<!-- Node8&#45;&gt;Node3 -->
<g id="edge10_Node000008_Node000003" class="edge">
<title>Node8&#45;&gt;Node3</title>
<g id="a_edge10_Node000008_Node000003"><a xlink:title=" ">
<path fill="none" stroke="#63b8ff" d="M358.86,-167.6C371.09,-141.23 405.9,-66.19 422.49,-30.42"/>
<polygon fill="#63b8ff" stroke="#63b8ff" points="425.52,-32.21 426.55,-21.67 419.17,-29.27 425.52,-32.21"/>
</a>
</g>
</g>
<!-- Node8&#45;&gt;Node4 -->
<g id="edge9_Node000008_Node000004" class="edge">
<title>Node8&#45;&gt;Node4</title>
<g id="a_edge9_Node000008_Node000004"><a xlink:title=" ">
<path fill="none" stroke="#63b8ff" d="M384.11,-171.68C413.16,-165.49 457.86,-153.28 491.5,-132 535.39,-104.23 574.19,-56.04 593.51,-29.63"/>
<polygon fill="#63b8ff" stroke="#63b8ff" points="596.29,-31.77 599.27,-21.6 590.6,-27.69 596.29,-31.77"/>
</a>
</g>
</g>
<!-- Node9 -->
<g id="Node000009" class="node">
<title>Node9</title>
<g id="a_Node000009"><a xlink:title=" ">
<polygon fill="#e0e0e0" stroke="#999999" points="43,-20 0,-20 0,0 43,0 43,-20"/>
<text text-anchor="middle" x="21.5" y="-6.5" font-family="Helvetica,sans-Serif" font-size="10.00">vector</text>
</a>
</g>
</g>
<!-- Node8&#45;&gt;Node9 -->
<g id="edge8_Node000008_Node000009" class="edge">
<title>Node8&#45;&gt;Node9</title>
<g id="a_edge8_Node000008_Node000009"><a xlink:title=" ">
<path fill="none" stroke="#63b8ff" d="M324.91,-177.32C274.53,-176.72 170.02,-170.46 92.5,-132 59.82,-115.79 49.79,-108.12 32.5,-76 25.18,-62.41 22.52,-45.09 21.64,-31.75"/>
<polygon fill="#63b8ff" stroke="#63b8ff" points="25.15,-31.82 21.3,-21.94 18.15,-32.06 25.15,-31.82"/>
</a>
</g>
</g>
<!-- Node10 -->
<g id="Node000010" class="node">
<title>Node10</title>
<g id="a_Node000010"><a xlink:title=" ">
<polygon fill="#e0e0e0" stroke="#999999" points="332.88,-20 250.12,-20 250.12,0 332.88,0 332.88,-20"/>
<text text-anchor="middle" x="291.5" y="-6.5" font-family="Helvetica,sans-Serif" font-size="10.00">unordered_map</text>
</a>
</g>
</g>
<!-- Node8&#45;&gt;Node10 -->
<g id="edge11_Node000008_Node000010" class="edge">
<title>Node8&#45;&gt;Node10</title>
<g id="a_edge11_Node000008_Node000010"><a xlink:title=" ">
<path fill="none" stroke="#63b8ff" d="M351.24,-167.53C344.15,-147.05 326.68,-97.2 310.5,-56 307.21,-47.62 303.38,-38.45 300.03,-30.59"/>
<polygon fill="#63b8ff" stroke="#63b8ff" points="303.34,-29.44 296.17,-21.64 296.91,-32.21 303.34,-29.44"/>
</a>
</g>
</g>
<!-- Node11 -->
<g id="Node000011" class="node">
<title>Node11</title>
<g id="a_Node000011"><a xlink:href="_command_8h.html" target="_top" xlink:title=" ">
<polygon fill="white" stroke="#666666" points="111.12,-76 41.88,-76 41.88,-56 111.12,-56 111.12,-76"/>
<text text-anchor="middle" x="76.5" y="-62.5" font-family="Helvetica,sans-Serif" font-size="10.00">Command.h</text>
</a>
</g>
</g>
<!-- Node8&#45;&gt;Node11 -->
<g id="edge12_Node000008_Node000011" class="edge">
<title>Node8&#45;&gt;Node11</title>
<g id="a_edge12_Node000008_Node000011"><a xlink:title=" ">
<path fill="none" stroke="#63b8ff" d="M325,-174.53C268.61,-169.31 148.12,-155.68 114.5,-132 98.98,-121.07 88.84,-101.63 82.97,-86.85"/>
<polygon fill="#63b8ff" stroke="#63b8ff" points="86.35,-85.9 79.67,-77.67 79.76,-88.27 86.35,-85.9"/>
</a>
</g>
</g>
<!-- Node12 -->
<g id="Node000012" class="node">
<title>Node12</title>
<g id="a_Node000012"><a xlink:href="_command_handler_8h.html" target="_top" xlink:title=" ">
<polygon fill="white" stroke="#666666" points="227,-132 124,-132 124,-112 227,-112 227,-132"/>
<text text-anchor="middle" x="175.5" y="-118.5" font-family="Helvetica,sans-Serif" font-size="10.00">CommandHandler.h</text>
</a>
</g>
</g>
<!-- Node8&#45;&gt;Node12 -->
<g id="edge16_Node000008_Node000012" class="edge">
<title>Node8&#45;&gt;Node12</title>
<g id="a_edge16_Node000008_Node000012"><a xlink:title=" ">
<path fill="none" stroke="#63b8ff" d="M324.94,-168.08C295.68,-159.26 250.6,-145.65 217.6,-135.7"/>
<polygon fill="#63b8ff" stroke="#63b8ff" points="218.94,-132.45 208.36,-132.91 216.92,-139.15 218.94,-132.45"/>
</a>
</g>
</g>
<!-- Node8&#45;&gt;Node13 -->
<g id="edge20_Node000008_Node000013" class="edge">
<title>Node8&#45;&gt;Node13</title>
<g id="a_edge20_Node000008_Node000013"><a xlink:title=" ">
<path fill="none" stroke="#63b8ff" d="M384.28,-171.67C435.31,-162.55 540.09,-143.81 603.74,-132.43"/>
<polygon fill="#63b8ff" stroke="#63b8ff" points="604.02,-135.94 613.25,-130.73 602.79,-129.05 604.02,-135.94"/>
</a>
</g>
</g>
<!-- Node15 -->
<g id="Node000015" class="node">
<title>Node15</title>
<g id="a_Node000015"><a xlink:href="_program_variable_8h.html" target="_top" xlink:title=" ">
<polygon fill="white" stroke="#666666" points="301.25,-76 205.75,-76 205.75,-56 301.25,-56 301.25,-76"/>
<text text-anchor="middle" x="253.5" y="-62.5" font-family="Helvetica,sans-Serif" font-size="10.00">ProgramVariable.h</text>
</a>
</g>
</g>
<!-- Node8&#45;&gt;Node15 -->
<g id="edge27_Node000008_Node000015" class="edge">
<title>Node8&#45;&gt;Node15</title>
<g id="a_edge27_Node000008_Node000015"><a xlink:title=" ">
<path fill="none" stroke="#63b8ff" d="M345.89,-167.62C329.04,-149.27 291.49,-108.37 269.8,-84.75"/>
<polygon fill="#63b8ff" stroke="#63b8ff" points="272.45,-82.47 263.11,-77.47 267.3,-87.2 272.45,-82.47"/>
</a>
</g>
</g>
<!-- Node8&#45;&gt;Node16 -->
<g id="edge31_Node000008_Node000016" class="edge">
<title>Node8&#45;&gt;Node16</title>
<g id="a_edge31_Node000008_Node000016"><a xlink:title=" ">
<path fill="none" stroke="#63b8ff" d="M372.62,-167.59C388.47,-159.36 411.78,-147.26 430.12,-137.74"/>
<polygon fill="#63b8ff" stroke="#63b8ff" points="431.64,-140.89 438.9,-133.18 428.41,-134.68 431.64,-140.89"/>
</a>
</g>
</g>
<!-- Node11&#45;&gt;Node3 -->
<g id="edge15_Node000011_Node000003" class="edge">
<title>Node11&#45;&gt;Node3</title>
<g id="a_edge15_Node000011_Node000003"><a xlink:title=" ">
<path fill="none" stroke="#63b8ff" d="M111.51,-59.67C180.67,-49.15 333.85,-25.85 400.03,-15.79"/>
<polygon fill="#63b8ff" stroke="#63b8ff" points="400.48,-19.26 409.84,-14.3 399.43,-12.34 400.48,-19.26"/>
</a>
</g>
</g>
<!-- Node11&#45;&gt;Node7 -->
<g id="edge14_Node000011_Node000007" class="edge">
<title>Node11&#45;&gt;Node7</title>
<g id="a_edge14_Node000011_Node000007"><a xlink:title=" ">
<path fill="none" stroke="#63b8ff" d="M81.9,-55.59C85.94,-48.55 91.62,-38.67 96.59,-30"/>
<polygon fill="#63b8ff" stroke="#63b8ff" points="99.47,-32.03 101.41,-21.61 93.39,-28.54 99.47,-32.03"/>
</a>
</g>
</g>
<!-- Node11&#45;&gt;Node9 -->
<g id="edge13_Node000011_Node000009" class="edge">
<title>Node11&#45;&gt;Node9</title>
<g id="a_edge13_Node000011_Node000009"><a xlink:title=" ">
<path fill="none" stroke="#63b8ff" d="M66.92,-55.59C59.27,-48.08 48.34,-37.35 39.12,-28.3"/>
<polygon fill="#63b8ff" stroke="#63b8ff" points="41.64,-25.87 32.05,-21.36 36.73,-30.86 41.64,-25.87"/>
</a>
</g>
</g>
<!-- Node12&#45;&gt;Node7 -->
<g id="edge18_Node000012_Node000007" class="edge">
<title>Node12&#45;&gt;Node7</title>
<g id="a_edge18_Node000012_Node000007"><a xlink:title=" ">
<path fill="none" stroke="#63b8ff" d="M169.7,-111.62C158.56,-93.6 133.97,-53.81 119.26,-30.02"/>
<polygon fill="#63b8ff" stroke="#63b8ff" points="122.31,-28.31 114.08,-21.64 116.36,-31.99 122.31,-28.31"/>
</a>
</g>
</g>
<!-- Node12&#45;&gt;Node10 -->
<g id="edge17_Node000012_Node000010" class="edge">
<title>Node12&#45;&gt;Node10</title>
<g id="a_edge17_Node000012_Node000010"><a xlink:title=" ">
<path fill="none" stroke="#63b8ff" d="M176.18,-111.91C177.65,-98.23 182.26,-72.22 196.5,-56 209.16,-41.58 227.45,-31.41 244.61,-24.43"/>
<polygon fill="#63b8ff" stroke="#63b8ff" points="245.55,-27.82 253.67,-21.03 243.08,-21.27 245.55,-27.82"/>
</a>
</g>
</g>
<!-- Node12&#45;&gt;Node11 -->
<g id="edge19_Node000012_Node000011" class="edge">
<title>Node12&#45;&gt;Node11</title>
<g id="a_edge19_Node000012_Node000011"><a xlink:title=" ">
<path fill="none" stroke="#63b8ff" d="M158.26,-111.59C143.16,-103.36 120.97,-91.26 103.52,-81.74"/>
<polygon fill="#63b8ff" stroke="#63b8ff" points="105.66,-78.92 95.21,-77.2 102.31,-85.07 105.66,-78.92"/>
</a>
</g>
</g>
<!-- Node13&#45;&gt;Node3 -->
<g id="edge22_Node000013_Node000003" class="edge">
<title>Node13&#45;&gt;Node3</title>
<g id="a_edge22_Node000013_Node000003"><a xlink:title=" ">
<path fill="none" stroke="#63b8ff" d="M651.35,-111.92C642.85,-97.75 624.49,-70.53 601.5,-56 558.37,-28.74 499.11,-17.9 463.16,-13.65"/>
<polygon fill="#63b8ff" stroke="#63b8ff" points="463.73,-10.19 453.42,-12.61 462.99,-17.15 463.73,-10.19"/>
</a>
</g>
</g>
<!-- Node13&#45;&gt;Node4 -->
<g id="edge21_Node000013_Node000004" class="edge">
<title>Node13&#45;&gt;Node4</title>
<g id="a_edge21_Node000013_Node000004"><a xlink:title=" ">
<path fill="none" stroke="#63b8ff" d="M655.21,-111.8C653.16,-98.85 648.42,-74.75 639.5,-56 634.99,-46.53 628.39,-37.02 622.28,-29.2"/>
<polygon fill="#63b8ff" stroke="#63b8ff" points="625,-27 615.95,-21.49 619.59,-31.44 625,-27"/>
</a>
</g>
</g>
<!-- Node14 -->
<g id="Node000014" class="node">
<title>Node14</title>
<g id="a_Node000014"><a xlink:href="_utils_8h.html" target="_top" xlink:title=" ">
<polygon fill="white" stroke="#666666" points="735.75,-76 691.25,-76 691.25,-56 735.75,-56 735.75,-76"/>
<text text-anchor="middle" x="713.5" y="-62.5" font-family="Helvetica,sans-Serif" font-size="10.00">Utils.h</text>
</a>
</g>
</g>
<!-- Node13&#45;&gt;Node14 -->
<g id="edge23_Node000013_Node000014" class="edge">
<title>Node13&#45;&gt;Node14</title>
<g id="a_edge23_Node000013_Node000014"><a xlink:title=" ">
<path fill="none" stroke="#63b8ff" d="M666.43,-111.59C674.44,-104.01 685.92,-93.13 695.53,-84.02"/>
<polygon fill="#63b8ff" stroke="#63b8ff" points="697.73,-86.76 702.59,-77.34 692.92,-81.68 697.73,-86.76"/>
</a>
</g>
</g>
<!-- Node14&#45;&gt;Node3 -->
<g id="edge25_Node000014_Node000003" class="edge">
<title>Node14&#45;&gt;Node3</title>
<g id="a_edge25_Node000014_Node000003"><a xlink:title=" ">
<path fill="none" stroke="#63b8ff" d="M690.9,-60.67C640.87,-51.09 520.66,-28.07 463.17,-17.06"/>
<polygon fill="#63b8ff" stroke="#63b8ff" points="463.87,-13.63 453.39,-15.19 462.55,-20.51 463.87,-13.63"/>
</a>
</g>
</g>
<!-- Node14&#45;&gt;Node4 -->
<g id="edge24_Node000014_Node000004" class="edge">
<title>Node14&#45;&gt;Node4</title>
<g id="a_edge24_Node000014_Node000004"><a xlink:title=" ">
<path fill="none" stroke="#63b8ff" d="M694.86,-55.59C678.47,-47.32 654.34,-35.14 635.44,-25.6"/>
<polygon fill="#63b8ff" stroke="#63b8ff" points="637.14,-22.54 626.63,-21.16 633.99,-28.79 637.14,-22.54"/>
</a>
</g>
</g>
<!-- Node14&#45;&gt;Node5 -->
<g id="edge26_Node000014_Node000005" class="edge">
<title>Node14&#45;&gt;Node5</title>
<g id="a_edge26_Node000014_Node000005"><a xlink:title=" ">
<path fill="none" stroke="#63b8ff" d="M721.16,-55.59C727.09,-48.32 735.49,-38.02 742.71,-29.15"/>
<polygon fill="#63b8ff" stroke="#63b8ff" points="745.36,-31.43 748.97,-21.47 739.94,-27.01 745.36,-31.43"/>
</a>
</g>
</g>
<!-- Node15&#45;&gt;Node3 -->
<g id="edge28_Node000015_Node000003" class="edge">
<title>Node15&#45;&gt;Node3</title>
<g id="a_edge28_Node000015_Node000003"><a xlink:title=" ">
<path fill="none" stroke="#63b8ff" d="M284.51,-55.59C317.03,-45.73 367.85,-30.31 400.4,-20.43"/>
<polygon fill="#63b8ff" stroke="#63b8ff" points="401.1,-23.88 409.65,-17.63 399.06,-17.18 401.1,-23.88"/>
</a>
</g>
</g>
<!-- Node15&#45;&gt;Node7 -->
<g id="edge29_Node000015_Node000007" class="edge">
<title>Node15&#45;&gt;Node7</title>
<g id="a_edge29_Node000015_Node000007"><a xlink:title=" ">
<path fill="none" stroke="#63b8ff" d="M228.07,-55.59C204.76,-46.97 170,-34.12 143.78,-24.42"/>
<polygon fill="#63b8ff" stroke="#63b8ff" points="145.14,-21.19 134.55,-21 142.71,-27.76 145.14,-21.19"/>
</a>
</g>
</g>
<!-- Node15&#45;&gt;Node10 -->
<g id="edge30_Node000015_Node000010" class="edge">
<title>Node15&#45;&gt;Node10</title>
<g id="a_edge30_Node000015_Node000010"><a xlink:title=" ">
<path fill="none" stroke="#63b8ff" d="M260.12,-55.59C265.19,-48.39 272.34,-38.23 278.53,-29.43"/>
<polygon fill="#63b8ff" stroke="#63b8ff" points="281.19,-31.73 284.09,-21.54 275.47,-27.7 281.19,-31.73"/>
</a>
</g>
</g>
<!-- Node16&#45;&gt;Node3 -->
<g id="edge33_Node000016_Node000003" class="edge">
<title>Node16&#45;&gt;Node3</title>
<g id="a_edge33_Node000016_Node000003"><a xlink:title=" ">
<path fill="none" stroke="#63b8ff" d="M448.57,-111.74C440.33,-103.33 429.23,-90.11 424.5,-76 419.63,-61.48 421.84,-44.22 425.01,-31.13"/>
<polygon fill="#63b8ff" stroke="#63b8ff" points="428.37,-32.12 427.74,-21.55 421.64,-30.21 428.37,-32.12"/>
</a>
</g>
</g>
<!-- Node16&#45;&gt;Node4 -->
<g id="edge32_Node000016_Node000004" class="edge">
<title>Node16&#45;&gt;Node4</title>
<g id="a_edge32_Node000016_Node000004"><a xlink:title=" ">
<path fill="none" stroke="#63b8ff" d="M468.6,-111.7C482.97,-98.65 510.39,-74.42 535.5,-56 549.94,-45.41 566.85,-34.63 580.55,-26.28"/>
<polygon fill="#63b8ff" stroke="#63b8ff" points="582.24,-29.34 589,-21.19 578.63,-23.35 582.24,-29.34"/>
</a>
</g>
</g>
<!-- Node16&#45;&gt;Node17 -->
<g id="edge34_Node000016_Node000017" class="edge">
<title>Node16&#45;&gt;Node17</title>
<g id="a_edge34_Node000016_Node000017"><a xlink:title=" ">
<path fill="none" stroke="#63b8ff" d="M458.5,-111.59C458.5,-105.01 458.5,-95.96 458.5,-87.73"/>
<polygon fill="#63b8ff" stroke="#63b8ff" points="462,-87.81 458.5,-77.81 455,-87.81 462,-87.81"/>
</a>
</g>
</g>
<!-- Node17&#45;&gt;Node3 -->
<g id="edge36_Node000017_Node000003" class="edge">
<title>Node17&#45;&gt;Node3</title>
<g id="a_edge36_Node000017_Node000003"><a xlink:title=" ">
<path fill="none" stroke="#63b8ff" d="M453.8,-55.59C450.35,-48.7 445.55,-39.1 441.29,-30.57"/>
<polygon fill="#63b8ff" stroke="#63b8ff" points="444.43,-29.03 436.83,-21.65 438.17,-32.16 444.43,-29.03"/>
</a>
</g>
</g>
<!-- Node17&#45;&gt;Node4 -->
<g id="edge35_Node000017_Node000004" class="edge">
<title>Node17&#45;&gt;Node4</title>
<g id="a_edge35_Node000017_Node000004"><a xlink:title=" ">
<path fill="none" stroke="#63b8ff" d="M483.94,-55.72C508.06,-46.92 544.49,-33.62 571.37,-23.82"/>
<polygon fill="#63b8ff" stroke="#63b8ff" points="572.27,-27.22 580.46,-20.5 569.87,-20.64 572.27,-27.22"/>
</a>
</g>
</g>
<!-- Node17&#45;&gt;Node10 -->
<g id="edge37_Node000017_Node000010" class="edge">
<title>Node17&#45;&gt;Node10</title>
<g id="a_edge37_Node000017_Node000010"><a xlink:title=" ">
<path fill="none" stroke="#63b8ff" d="M432.77,-56.68C405.68,-47.92 362.68,-34.02 331.23,-23.85"/>
<polygon fill="#63b8ff" stroke="#63b8ff" points="332.66,-20.63 322.07,-20.88 330.51,-27.29 332.66,-20.63"/>
</a>
</g>
</g>
<!-- Node18&#45;&gt;Node8 -->
<g id="edge43_Node000018_Node000008" class="edge">
<title>Node18&#45;&gt;Node8</title>
<g id="a_edge43_Node000018_Node000008"><a xlink:title=" ">
<path fill="none" stroke="#63b8ff" d="M439.56,-223.59C423.85,-215.36 400.77,-203.26 382.61,-193.74"/>
<polygon fill="#63b8ff" stroke="#63b8ff" points="384.4,-190.73 373.92,-189.18 381.15,-196.93 384.4,-190.73"/>
</a>
</g>
</g>
</g>
</svg>
