<?xml version="1.0" encoding="UTF-8" standalone="no"?>
<!DOCTYPE svg PUBLIC "-//W3C//DTD SVG 1.1//EN"
 "http://www.w3.org/Graphics/SVG/1.1/DTD/svg11.dtd">
<!-- Generated by graphviz version 12.2.1 (20241206.2353)
 -->
<!-- Title: C:/Users/emilly/Documents/Lucca/Projetos/Cpp/NikiScript/example/src/example.cpp Pages: 1 -->
<svg width="897pt" height="332pt"
 viewBox="0.00 0.00 896.75 332.00" xmlns="http://www.w3.org/2000/svg" xmlns:xlink="http://www.w3.org/1999/xlink">
<g id="graph0" class="graph" transform="scale(1 1) rotate(0) translate(4 328)">
<title>C:/Users/emilly/Documents/Lucca/Projetos/Cpp/NikiScript/example/src/example.cpp</title>
<!-- Node1 -->
<g id="Node000001" class="node">
<title>Node1</title>
<g id="a_Node000001"><a xlink:title=" ">
<polygon fill="#999999" stroke="#666666" points="579.25,-324 428.25,-324 428.25,-280 579.25,-280 579.25,-324"/>
<text text-anchor="start" x="436.25" y="-310.5" font-family="Helvetica,sans-Serif" font-size="10.00">C:/Users/emilly/Documents</text>
<text text-anchor="start" x="436.25" y="-298.5" font-family="Helvetica,sans-Serif" font-size="10.00">/Lucca/Projetos/Cpp/NikiScript</text>
<text text-anchor="middle" x="503.75" y="-286.5" font-family="Helvetica,sans-Serif" font-size="10.00">/example/src/example.cpp</text>
</a>
</g>
</g>
<!-- Node2 -->
<g id="Node000002" class="node">
<title>Node2</title>
<g id="a_Node000002"><a xlink:title=" ">
<polygon fill="#e0e0e0" stroke="#999999" points="53.5,-244 0,-244 0,-224 53.5,-224 53.5,-244"/>
<text text-anchor="middle" x="26.75" y="-230.5" font-family="Helvetica,sans-Serif" font-size="10.00">iostream</text>
</a>
</g>
</g>
<!-- Node1&#45;&gt;Node2 -->
<g id="edge1_Node000001_Node000002" class="edge">
<title>Node1&#45;&gt;Node2</title>
<g id="a_edge1_Node000001_Node000002"><a xlink:title=" ">
<path fill="none" stroke="#63b8ff" d="M427.83,-293.08C340.61,-283.52 193.33,-265.95 67.75,-244 66.74,-243.82 65.73,-243.64 64.7,-243.45"/>
<polygon fill="#63b8ff" stroke="#63b8ff" points="65.57,-240.05 55.08,-241.53 64.2,-246.92 65.57,-240.05"/>
</a>
</g>
</g>
<!-- Node3 -->
<g id="Node000003" class="node">
<title>Node3</title>
<g id="a_Node000003"><a xlink:title=" ">
<polygon fill="#e0e0e0" stroke="#999999" points="558.75,-20 518.75,-20 518.75,0 558.75,0 558.75,-20"/>
<text text-anchor="middle" x="538.75" y="-6.5" font-family="Helvetica,sans-Serif" font-size="10.00">string</text>
</a>
</g>
</g>
<!-- Node1&#45;&gt;Node3 -->
<g id="edge2_Node000001_Node000003" class="edge">
<title>Node1&#45;&gt;Node3</title>
<g id="a_edge2_Node000001_Node000003"><a xlink:title=" ">
<path fill="none" stroke="#63b8ff" d="M511.41,-279.72C519.4,-255.62 530.75,-215.01 530.75,-179 530.75,-179 530.75,-179 530.75,-121 530.75,-89.79 533.99,-53.72 536.35,-31.64"/>
<polygon fill="#63b8ff" stroke="#63b8ff" points="539.81,-32.23 537.44,-21.9 532.85,-31.46 539.81,-32.23"/>
</a>
</g>
</g>
<!-- Node4 -->
<g id="Node000004" class="node">
<title>Node4</title>
<g id="a_Node000004"><a xlink:title=" ">
<polygon fill="#e0e0e0" stroke="#999999" points="790.88,-20 742.62,-20 742.62,0 790.88,0 790.88,-20"/>
<text text-anchor="middle" x="766.75" y="-6.5" font-family="Helvetica,sans-Serif" font-size="10.00">stdint.h</text>
</a>
</g>
</g>
<!-- Node1&#45;&gt;Node4 -->
<g id="edge3_Node000001_Node000004" class="edge">
<title>Node1&#45;&gt;Node4</title>
<g id="a_edge3_Node000001_Node000004"><a xlink:title=" ">
<path fill="none" stroke="#63b8ff" d="M579.35,-292.61C691.48,-278.03 888.75,-243.24 888.75,-179 888.75,-179 888.75,-179 888.75,-121 888.75,-73.63 837.39,-41.42 801.32,-24.64"/>
<polygon fill="#63b8ff" stroke="#63b8ff" points="803.09,-21.6 792.53,-20.74 800.25,-28 803.09,-21.6"/>
</a>
</g>
</g>
<!-- Node5 -->
<g id="Node000005" class="node">
<title>Node5</title>
<g id="a_Node000005"><a xlink:title=" ">
<polygon fill="#e0e0e0" stroke="#999999" points="366.38,-20 315.12,-20 315.12,0 366.38,0 366.38,-20"/>
<text text-anchor="middle" x="340.75" y="-6.5" font-family="Helvetica,sans-Serif" font-size="10.00">sstream</text>
</a>
</g>
</g>
<!-- Node1&#45;&gt;Node5 -->
<g id="edge4_Node000001_Node000005" class="edge">
<title>Node1&#45;&gt;Node5</title>
<g id="a_edge4_Node000001_Node000005"><a xlink:title=" ">
<path fill="none" stroke="#63b8ff" d="M428.07,-287.1C392.75,-278.35 351.22,-264.69 317.75,-244 230.04,-189.79 196.04,-171.74 157.75,-76 154.45,-67.75 152.27,-63 157.75,-56 162.31,-50.18 251.73,-30.13 303.86,-18.86"/>
<polygon fill="#63b8ff" stroke="#63b8ff" points="304.47,-22.3 313.51,-16.78 303,-15.46 304.47,-22.3"/>
</a>
</g>
</g>
<!-- Node6 -->
<g id="Node000006" class="node">
<title>Node6</title>
<g id="a_Node000006"><a xlink:href="_niki_script_8h.html" target="_top" xlink:title=" ">
<polygon fill="white" stroke="#666666" points="394.25,-244 327.25,-244 327.25,-224 394.25,-224 394.25,-244"/>
<text text-anchor="middle" x="360.75" y="-230.5" font-family="Helvetica,sans-Serif" font-size="10.00">NikiScript.h</text>
</a>
</g>
</g>
<!-- Node1&#45;&gt;Node6 -->
<g id="edge5_Node000001_Node000006" class="edge">
<title>Node1&#45;&gt;Node6</title>
<g id="a_edge5_Node000001_Node000006"><a xlink:title=" ">
<path fill="none" stroke="#63b8ff" d="M457.32,-279.57C435.68,-269.58 410.53,-257.97 391.32,-249.11"/>
<polygon fill="#63b8ff" stroke="#63b8ff" points="392.96,-246.01 382.42,-245 390.03,-252.37 392.96,-246.01"/>
</a>
</g>
</g>
<!-- Node8 -->
<g id="Node000008" class="node">
<title>Node8</title>
<g id="a_Node000008"><a xlink:href="_context_8h.html" target="_top" xlink:title=" ">
<polygon fill="white" stroke="#666666" points="468.12,-188 409.38,-188 409.38,-168 468.12,-168 468.12,-188"/>
<text text-anchor="middle" x="438.75" y="-174.5" font-family="Helvetica,sans-Serif" font-size="10.00">Context.h</text>
</a>
</g>
</g>
<!-- Node1&#45;&gt;Node8 -->
<g id="edge40_Node000001_Node000008" class="edge">
<title>Node1&#45;&gt;Node8</title>
<g id="a_edge40_Node000001_Node000008"><a xlink:title=" ">
<path fill="none" stroke="#63b8ff" d="M471.59,-279.69C460.06,-270.23 448.31,-258.04 441.75,-244 435.3,-230.19 434.82,-212.89 435.8,-199.61"/>
<polygon fill="#63b8ff" stroke="#63b8ff" points="439.26,-200.18 436.88,-189.86 432.3,-199.41 439.26,-200.18"/>
</a>
</g>
</g>
<!-- Node13 -->
<g id="Node000013" class="node">
<title>Node13</title>
<g id="a_Node000013"><a xlink:href="_print_callback_8h.html" target="_top" xlink:title=" ">
<polygon fill="white" stroke="#666666" points="641.12,-132 558.38,-132 558.38,-112 641.12,-112 641.12,-132"/>
<text text-anchor="middle" x="599.75" y="-118.5" font-family="Helvetica,sans-Serif" font-size="10.00">PrintCallback.h</text>
</a>
</g>
</g>
<!-- Node1&#45;&gt;Node13 -->
<g id="edge39_Node000001_Node000013" class="edge">
<title>Node1&#45;&gt;Node13</title>
<g id="a_edge39_Node000001_Node000013"><a xlink:title=" ">
<path fill="none" stroke="#63b8ff" d="M520.56,-279.75C528.42,-269.31 537.6,-256.34 544.75,-244 564.53,-209.85 582.43,-167.33 592.13,-142.86"/>
<polygon fill="#63b8ff" stroke="#63b8ff" points="595.28,-144.41 595.66,-133.83 588.76,-141.87 595.28,-144.41"/>
</a>
</g>
</g>
<!-- Node16 -->
<g id="Node000016" class="node">
<title>Node16</title>
<g id="a_Node000016"><a xlink:href="_lexer_8h.html" target="_top" xlink:title=" ">
<polygon fill="white" stroke="#666666" points="745.88,-132 697.62,-132 697.62,-112 745.88,-112 745.88,-132"/>
<text text-anchor="middle" x="721.75" y="-118.5" font-family="Helvetica,sans-Serif" font-size="10.00">Lexer.h</text>
</a>
</g>
</g>
<!-- Node1&#45;&gt;Node16 -->
<g id="edge42_Node000001_Node000016" class="edge">
<title>Node1&#45;&gt;Node16</title>
<g id="a_edge42_Node000001_Node000016"><a xlink:title=" ">
<path fill="none" stroke="#63b8ff" d="M579.56,-293.23C615.37,-285.87 656.2,-271.62 683.75,-244 710.88,-216.81 718.68,-170.48 720.9,-143.73"/>
<polygon fill="#63b8ff" stroke="#63b8ff" points="724.38,-144.05 721.5,-133.85 717.4,-143.62 724.38,-144.05"/>
</a>
</g>
</g>
<!-- Node17 -->
<g id="Node000017" class="node">
<title>Node17</title>
<g id="a_Node000017"><a xlink:href="_token_8h.html" target="_top" xlink:title=" ">
<polygon fill="white" stroke="#666666" points="747,-76 696.5,-76 696.5,-56 747,-56 747,-76"/>
<text text-anchor="middle" x="721.75" y="-62.5" font-family="Helvetica,sans-Serif" font-size="10.00">Token.h</text>
</a>
</g>
</g>
<!-- Node1&#45;&gt;Node17 -->
<g id="edge41_Node000001_Node000017" class="edge">
<title>Node1&#45;&gt;Node17</title>
<g id="a_edge41_Node000001_Node000017"><a xlink:title=" ">
<path fill="none" stroke="#63b8ff" d="M527.26,-279.51C538.51,-269.01 552.05,-256.07 563.75,-244 618.29,-187.74 679.01,-117.36 706.62,-84.91"/>
<polygon fill="#63b8ff" stroke="#63b8ff" points="709.01,-87.5 712.81,-77.61 703.67,-82.97 709.01,-87.5"/>
</a>
</g>
</g>
<!-- Node18 -->
<g id="Node000018" class="node">
<title>Node18</title>
<g id="a_Node000018"><a xlink:href="_parser_8h.html" target="_top" xlink:title=" ">
<polygon fill="white" stroke="#666666" points="503.12,-244 450.38,-244 450.38,-224 503.12,-224 503.12,-244"/>
<text text-anchor="middle" x="476.75" y="-230.5" font-family="Helvetica,sans-Serif" font-size="10.00">Parser.h</text>
</a>
</g>
</g>
<!-- Node1&#45;&gt;Node18 -->
<g id="edge43_Node000001_Node000018" class="edge">
<title>Node1&#45;&gt;Node18</title>
<g id="a_edge43_Node000001_Node000018"><a xlink:title=" ">
<path fill="none" stroke="#63b8ff" d="M495.06,-279.75C491.79,-271.75 488.08,-262.69 484.86,-254.83"/>
<polygon fill="#63b8ff" stroke="#63b8ff" points="488.2,-253.75 481.18,-245.82 481.72,-256.4 488.2,-253.75"/>
</a>
</g>
</g>
<!-- Node7 -->
<g id="Node000007" class="node">
<title>Node7</title>
<g id="a_Node000007"><a xlink:title=" ">
<polygon fill="#e0e0e0" stroke="#999999" points="284.5,-20 219,-20 219,0 284.5,0 284.5,-20"/>
<text text-anchor="middle" x="251.75" y="-6.5" font-family="Helvetica,sans-Serif" font-size="10.00">string_view</text>
</a>
</g>
</g>
<!-- Node6&#45;&gt;Node7 -->
<g id="edge6_Node000006_Node000007" class="edge">
<title>Node6&#45;&gt;Node7</title>
<g id="a_edge6_Node000006_Node000007"><a xlink:title=" ">
<path fill="none" stroke="#63b8ff" d="M337.84,-223.64C293.27,-204 195.93,-153.79 157.75,-76 144.98,-49.98 177.38,-32.5 207.57,-22.27"/>
<polygon fill="#63b8ff" stroke="#63b8ff" points="208.57,-25.63 217.06,-19.29 206.47,-18.95 208.57,-25.63"/>
</a>
</g>
</g>
<!-- Node6&#45;&gt;Node8 -->
<g id="edge7_Node000006_Node000008" class="edge">
<title>Node6&#45;&gt;Node8</title>
<g id="a_edge7_Node000006_Node000008"><a xlink:title=" ">
<path fill="none" stroke="#63b8ff" d="M374.34,-223.59C385.79,-215.67 402.41,-204.16 415.91,-194.82"/>
<polygon fill="#63b8ff" stroke="#63b8ff" points="417.58,-197.91 423.81,-189.34 413.6,-192.16 417.58,-197.91"/>
</a>
</g>
</g>
<!-- Node8&#45;&gt;Node3 -->
<g id="edge10_Node000008_Node000003" class="edge">
<title>Node8&#45;&gt;Node3</title>
<g id="a_edge10_Node000008_Node000003"><a xlink:title=" ">
<path fill="none" stroke="#63b8ff" d="M444.41,-167.6C460.36,-141.12 505.9,-65.54 527.33,-29.96"/>
<polygon fill="#63b8ff" stroke="#63b8ff" points="530.21,-31.97 532.37,-21.59 524.21,-28.35 530.21,-31.97"/>
</a>
</g>
</g>
<!-- Node8&#45;&gt;Node4 -->
<g id="edge9_Node000008_Node000004" class="edge">
<title>Node8&#45;&gt;Node4</title>
<g id="a_edge9_Node000008_Node000004"><a xlink:title=" ">
<path fill="none" stroke="#63b8ff" d="M468.41,-175.37C537.19,-171.17 705.41,-158.42 754.75,-132 784.16,-116.25 792.86,-107.17 804.75,-76 811.34,-58.73 799.06,-40.71 786.74,-28.04"/>
<polygon fill="#63b8ff" stroke="#63b8ff" points="789.22,-25.56 779.54,-21.23 784.41,-30.65 789.22,-25.56"/>
</a>
</g>
</g>
<!-- Node9 -->
<g id="Node000009" class="node">
<title>Node9</title>
<g id="a_Node000009"><a xlink:title=" ">
<polygon fill="#e0e0e0" stroke="#999999" points="174.25,-20 131.25,-20 131.25,0 174.25,0 174.25,-20"/>
<text text-anchor="middle" x="152.75" y="-6.5" font-family="Helvetica,sans-Serif" font-size="10.00">vector</text>
</a>
</g>
</g>
<!-- Node8&#45;&gt;Node9 -->
<g id="edge8_Node000008_Node000009" class="edge">
<title>Node8&#45;&gt;Node9</title>
<g id="a_edge8_Node000008_Node000009"><a xlink:title=" ">
<path fill="none" stroke="#63b8ff" d="M409.19,-174.51C368.04,-170.18 291.86,-158.98 232.75,-132 194.91,-114.73 177.81,-112.45 157.75,-76 150.31,-62.47 149.38,-44.91 150.13,-31.45"/>
<polygon fill="#63b8ff" stroke="#63b8ff" points="153.61,-31.86 151.07,-21.57 146.64,-31.2 153.61,-31.86"/>
</a>
</g>
</g>
<!-- Node10 -->
<g id="Node000010" class="node">
<title>Node10</title>
<g id="a_Node000010"><a xlink:title=" ">
<polygon fill="#e0e0e0" stroke="#999999" points="488.12,-20 405.38,-20 405.38,0 488.12,0 488.12,-20"/>
<text text-anchor="middle" x="446.75" y="-6.5" font-family="Helvetica,sans-Serif" font-size="10.00">unordered_map</text>
</a>
</g>
</g>
<!-- Node8&#45;&gt;Node10 -->
<g id="edge11_Node000008_Node000010" class="edge">
<title>Node8&#45;&gt;Node10</title>
<g id="a_edge11_Node000008_Node000010"><a xlink:title=" ">
<path fill="none" stroke="#63b8ff" d="M439.2,-167.6C440.46,-141.46 444.03,-67.48 445.77,-31.36"/>
<polygon fill="#63b8ff" stroke="#63b8ff" points="449.24,-31.97 446.23,-21.81 442.25,-31.63 449.24,-31.97"/>
</a>
</g>
</g>
<!-- Node11 -->
<g id="Node000011" class="node">
<title>Node11</title>
<g id="a_Node000011"><a xlink:href="_command_8h.html" target="_top" xlink:title=" ">
<polygon fill="white" stroke="#666666" points="236.38,-76 167.12,-76 167.12,-56 236.38,-56 236.38,-76"/>
<text text-anchor="middle" x="201.75" y="-62.5" font-family="Helvetica,sans-Serif" font-size="10.00">Command.h</text>
</a>
</g>
</g>
<!-- Node8&#45;&gt;Node11 -->
<g id="edge12_Node000008_Node000011" class="edge">
<title>Node8&#45;&gt;Node11</title>
<g id="a_edge12_Node000008_Node000011"><a xlink:title=" ">
<path fill="none" stroke="#63b8ff" d="M409.02,-174.76C371.95,-170.83 307.75,-160.22 260.75,-132 241.22,-120.27 224.38,-100.07 213.75,-85.3"/>
<polygon fill="#63b8ff" stroke="#63b8ff" points="216.83,-83.61 208.28,-77.35 211.06,-87.58 216.83,-83.61"/>
</a>
</g>
</g>
<!-- Node12 -->
<g id="Node000012" class="node">
<title>Node12</title>
<g id="a_Node000012"><a xlink:href="_command_handler_8h.html" target="_top" xlink:title=" ">
<polygon fill="white" stroke="#666666" points="373.25,-132 270.25,-132 270.25,-112 373.25,-112 373.25,-132"/>
<text text-anchor="middle" x="321.75" y="-118.5" font-family="Helvetica,sans-Serif" font-size="10.00">CommandHandler.h</text>
</a>
</g>
</g>
<!-- Node8&#45;&gt;Node12 -->
<g id="edge16_Node000008_Node000012" class="edge">
<title>Node8&#45;&gt;Node12</title>
<g id="a_edge16_Node000008_Node000012"><a xlink:title=" ">
<path fill="none" stroke="#63b8ff" d="M418.37,-167.59C400.19,-159.21 373.32,-146.8 352.53,-137.21"/>
<polygon fill="#63b8ff" stroke="#63b8ff" points="354.21,-134.13 343.66,-133.11 351.28,-140.48 354.21,-134.13"/>
</a>
</g>
</g>
<!-- Node8&#45;&gt;Node13 -->
<g id="edge20_Node000008_Node000013" class="edge">
<title>Node8&#45;&gt;Node13</title>
<g id="a_edge20_Node000008_Node000013"><a xlink:title=" ">
<path fill="none" stroke="#63b8ff" d="M466.79,-167.59C492.84,-158.86 531.85,-145.77 560.89,-136.03"/>
<polygon fill="#63b8ff" stroke="#63b8ff" points="561.68,-139.46 570.05,-132.96 559.46,-132.82 561.68,-139.46"/>
</a>
</g>
</g>
<!-- Node15 -->
<g id="Node000015" class="node">
<title>Node15</title>
<g id="a_Node000015"><a xlink:href="_program_variable_8h.html" target="_top" xlink:title=" ">
<polygon fill="white" stroke="#666666" points="388.5,-76 293,-76 293,-56 388.5,-56 388.5,-76"/>
<text text-anchor="middle" x="340.75" y="-62.5" font-family="Helvetica,sans-Serif" font-size="10.00">ProgramVariable.h</text>
</a>
</g>
</g>
<!-- Node8&#45;&gt;Node15 -->
<g id="edge27_Node000008_Node000015" class="edge">
<title>Node8&#45;&gt;Node15</title>
<g id="a_edge27_Node000008_Node000015"><a xlink:title=" ">
<path fill="none" stroke="#63b8ff" d="M430.89,-167.64C420.16,-154.92 400.25,-131.52 382.75,-112 374.47,-102.77 365.07,-92.66 357.26,-84.37"/>
<polygon fill="#63b8ff" stroke="#63b8ff" points="360,-82.17 350.59,-77.31 354.91,-86.98 360,-82.17"/>
</a>
</g>
</g>
<!-- Node8&#45;&gt;Node16 -->
<g id="edge32_Node000008_Node000016" class="edge">
<title>Node8&#45;&gt;Node16</title>
<g id="a_edge32_Node000008_Node000016"><a xlink:title=" ">
<path fill="none" stroke="#63b8ff" d="M468.5,-171.32C520.97,-161.31 629.71,-140.56 686.1,-129.8"/>
<polygon fill="#63b8ff" stroke="#63b8ff" points="686.64,-133.26 695.81,-127.95 685.33,-126.39 686.64,-133.26"/>
</a>
</g>
</g>
<!-- Node11&#45;&gt;Node3 -->
<g id="edge15_Node000011_Node000003" class="edge">
<title>Node11&#45;&gt;Node3</title>
<g id="a_edge15_Node000011_Node000003"><a xlink:title=" ">
<path fill="none" stroke="#63b8ff" d="M236.83,-60.34C292.21,-52.83 403.24,-37.14 496.75,-20 500.16,-19.37 503.72,-18.68 507.26,-17.96"/>
<polygon fill="#63b8ff" stroke="#63b8ff" points="507.74,-21.44 516.81,-15.95 506.3,-14.59 507.74,-21.44"/>
</a>
</g>
</g>
<!-- Node11&#45;&gt;Node7 -->
<g id="edge14_Node000011_Node000007" class="edge">
<title>Node11&#45;&gt;Node7</title>
<g id="a_edge14_Node000011_Node000007"><a xlink:title=" ">
<path fill="none" stroke="#63b8ff" d="M210.46,-55.59C217.34,-48.16 227.14,-37.58 235.47,-28.58"/>
<polygon fill="#63b8ff" stroke="#63b8ff" points="237.89,-31.12 242.11,-21.41 232.75,-26.37 237.89,-31.12"/>
</a>
</g>
</g>
<!-- Node11&#45;&gt;Node9 -->
<g id="edge13_Node000011_Node000009" class="edge">
<title>Node11&#45;&gt;Node9</title>
<g id="a_edge13_Node000011_Node000009"><a xlink:title=" ">
<path fill="none" stroke="#63b8ff" d="M193.21,-55.59C186.47,-48.16 176.86,-37.58 168.71,-28.58"/>
<polygon fill="#63b8ff" stroke="#63b8ff" points="171.52,-26.47 162.2,-21.42 166.33,-31.18 171.52,-26.47"/>
</a>
</g>
</g>
<!-- Node12&#45;&gt;Node7 -->
<g id="edge18_Node000012_Node000007" class="edge">
<title>Node12&#45;&gt;Node7</title>
<g id="a_edge18_Node000012_Node000007"><a xlink:title=" ">
<path fill="none" stroke="#63b8ff" d="M312.57,-111.54C304.37,-102.79 292.37,-89.18 283.75,-76 274.27,-61.51 265.73,-43.81 259.86,-30.54"/>
<polygon fill="#63b8ff" stroke="#63b8ff" points="263.19,-29.41 256.03,-21.6 256.76,-32.17 263.19,-29.41"/>
</a>
</g>
</g>
<!-- Node12&#45;&gt;Node10 -->
<g id="edge17_Node000012_Node000010" class="edge">
<title>Node12&#45;&gt;Node10</title>
<g id="a_edge17_Node000012_Node000010"><a xlink:title=" ">
<path fill="none" stroke="#63b8ff" d="M342.21,-111.65C358.38,-103.63 380.95,-91.03 397.75,-76 412.86,-62.49 426.42,-43.71 435.42,-29.81"/>
<polygon fill="#63b8ff" stroke="#63b8ff" points="438.23,-31.92 440.57,-21.58 432.3,-28.21 438.23,-31.92"/>
</a>
</g>
</g>
<!-- Node12&#45;&gt;Node11 -->
<g id="edge19_Node000012_Node000011" class="edge">
<title>Node12&#45;&gt;Node11</title>
<g id="a_edge19_Node000012_Node000011"><a xlink:title=" ">
<path fill="none" stroke="#63b8ff" d="M300.85,-111.59C282.12,-103.17 254.39,-90.69 233.03,-81.07"/>
<polygon fill="#63b8ff" stroke="#63b8ff" points="234.75,-78.01 224.2,-77.1 231.88,-84.4 234.75,-78.01"/>
</a>
</g>
</g>
<!-- Node13&#45;&gt;Node3 -->
<g id="edge22_Node000013_Node000003" class="edge">
<title>Node13&#45;&gt;Node3</title>
<g id="a_edge22_Node000013_Node000003"><a xlink:title=" ">
<path fill="none" stroke="#63b8ff" d="M605.19,-111.54C612.02,-98.29 621.71,-73.83 611.75,-56 602.67,-39.73 585.03,-28.62 569.36,-21.5"/>
<polygon fill="#63b8ff" stroke="#63b8ff" points="570.94,-18.37 560.36,-17.78 568.26,-24.84 570.94,-18.37"/>
</a>
</g>
</g>
<!-- Node13&#45;&gt;Node4 -->
<g id="edge21_Node000013_Node000004" class="edge">
<title>Node13&#45;&gt;Node4</title>
<g id="a_edge21_Node000013_Node000004"><a xlink:title=" ">
<path fill="none" stroke="#63b8ff" d="M611.39,-111.71C627.94,-98.66 659.41,-74.44 687.75,-56 704.3,-45.23 723.55,-34.23 738.9,-25.81"/>
<polygon fill="#63b8ff" stroke="#63b8ff" points="740.37,-28.99 747.49,-21.15 737.03,-22.84 740.37,-28.99"/>
</a>
</g>
</g>
<!-- Node14 -->
<g id="Node000014" class="node">
<title>Node14</title>
<g id="a_Node000014"><a xlink:href="_utils_8h.html" target="_top" xlink:title=" ">
<polygon fill="white" stroke="#666666" points="603,-76 558.5,-76 558.5,-56 603,-56 603,-76"/>
<text text-anchor="middle" x="580.75" y="-62.5" font-family="Helvetica,sans-Serif" font-size="10.00">Utils.h</text>
</a>
</g>
</g>
<!-- Node13&#45;&gt;Node14 -->
<g id="edge23_Node000013_Node000014" class="edge">
<title>Node13&#45;&gt;Node14</title>
<g id="a_edge23_Node000013_Node000014"><a xlink:title=" ">
<path fill="none" stroke="#63b8ff" d="M596.44,-111.59C594.07,-104.86 590.79,-95.53 587.84,-87.15"/>
<polygon fill="#63b8ff" stroke="#63b8ff" points="591.14,-86 584.52,-77.73 584.54,-88.32 591.14,-86"/>
</a>
</g>
</g>
<!-- Node14&#45;&gt;Node3 -->
<g id="edge25_Node000014_Node000003" class="edge">
<title>Node14&#45;&gt;Node3</title>
<g id="a_edge25_Node000014_Node000003"><a xlink:title=" ">
<path fill="none" stroke="#63b8ff" d="M573.43,-55.59C567.77,-48.32 559.76,-38.02 552.86,-29.15"/>
<polygon fill="#63b8ff" stroke="#63b8ff" points="555.81,-27.24 546.91,-21.49 550.29,-31.54 555.81,-27.24"/>
</a>
</g>
</g>
<!-- Node14&#45;&gt;Node4 -->
<g id="edge24_Node000014_Node000004" class="edge">
<title>Node14&#45;&gt;Node4</title>
<g id="a_edge24_Node000014_Node000004"><a xlink:title=" ">
<path fill="none" stroke="#63b8ff" d="M603.19,-58.49C634.97,-49.26 693.44,-32.28 731.17,-21.33"/>
<polygon fill="#63b8ff" stroke="#63b8ff" points="732.09,-24.71 740.71,-18.56 730.13,-17.99 732.09,-24.71"/>
</a>
</g>
</g>
<!-- Node14&#45;&gt;Node5 -->
<g id="edge26_Node000014_Node000005" class="edge">
<title>Node14&#45;&gt;Node5</title>
<g id="a_edge26_Node000014_Node000005"><a xlink:title=" ">
<path fill="none" stroke="#63b8ff" d="M558.17,-59.92C516.71,-50.59 428.08,-30.65 377.72,-19.32"/>
<polygon fill="#63b8ff" stroke="#63b8ff" points="378.69,-15.95 368.17,-17.17 377.15,-22.78 378.69,-15.95"/>
</a>
</g>
</g>
<!-- Node15&#45;&gt;Node3 -->
<g id="edge28_Node000015_Node000003" class="edge">
<title>Node15&#45;&gt;Node3</title>
<g id="a_edge28_Node000015_Node000003"><a xlink:title=" ">
<path fill="none" stroke="#63b8ff" d="M375.24,-55.59C412.53,-45.42 471.45,-29.35 507.45,-19.54"/>
<polygon fill="#63b8ff" stroke="#63b8ff" points="508.09,-22.99 516.82,-16.98 506.25,-16.24 508.09,-22.99"/>
</a>
</g>
</g>
<!-- Node15&#45;&gt;Node5 -->
<g id="edge30_Node000015_Node000005" class="edge">
<title>Node15&#45;&gt;Node5</title>
<g id="a_edge30_Node000015_Node000005"><a xlink:title=" ">
<path fill="none" stroke="#63b8ff" d="M340.75,-55.59C340.75,-49.01 340.75,-39.96 340.75,-31.73"/>
<polygon fill="#63b8ff" stroke="#63b8ff" points="344.25,-31.81 340.75,-21.81 337.25,-31.81 344.25,-31.81"/>
</a>
</g>
</g>
<!-- Node15&#45;&gt;Node7 -->
<g id="edge29_Node000015_Node000007" class="edge">
<title>Node15&#45;&gt;Node7</title>
<g id="a_edge29_Node000015_Node000007"><a xlink:title=" ">
<path fill="none" stroke="#63b8ff" d="M325.25,-55.59C311.93,-47.51 292.47,-35.71 276.92,-26.27"/>
<polygon fill="#63b8ff" stroke="#63b8ff" points="279.03,-23.46 268.67,-21.26 275.4,-29.44 279.03,-23.46"/>
</a>
</g>
</g>
<!-- Node15&#45;&gt;Node10 -->
<g id="edge31_Node000015_Node000010" class="edge">
<title>Node15&#45;&gt;Node10</title>
<g id="a_edge31_Node000015_Node000010"><a xlink:title=" ">
<path fill="none" stroke="#63b8ff" d="M359.21,-55.59C375.45,-47.32 399.36,-35.14 418.08,-25.6"/>
<polygon fill="#63b8ff" stroke="#63b8ff" points="419.47,-28.82 426.79,-21.17 416.29,-22.59 419.47,-28.82"/>
</a>
</g>
</g>
<!-- Node16&#45;&gt;Node3 -->
<g id="edge34_Node000016_Node000003" class="edge">
<title>Node16&#45;&gt;Node3</title>
<g id="a_edge34_Node000016_Node000003"><a xlink:title=" ">
<path fill="none" stroke="#63b8ff" d="M732.79,-111.92C747.53,-98.69 770.22,-73.78 755.75,-56 732.72,-27.7 624.71,-16.63 570.28,-12.8"/>
<polygon fill="#63b8ff" stroke="#63b8ff" points="570.63,-9.31 560.42,-12.15 570.16,-16.3 570.63,-9.31"/>
</a>
</g>
</g>
<!-- Node16&#45;&gt;Node4 -->
<g id="edge33_Node000016_Node000004" class="edge">
<title>Node16&#45;&gt;Node4</title>
<g id="a_edge33_Node000016_Node000004"><a xlink:title=" ">
<path fill="none" stroke="#63b8ff" d="M746.21,-111.69C761.44,-104.47 779.79,-92.82 788.75,-76 796.7,-61.09 789.08,-42.74 780.71,-29.35"/>
<polygon fill="#63b8ff" stroke="#63b8ff" points="783.83,-27.7 775.27,-21.46 778.07,-31.68 783.83,-27.7"/>
</a>
</g>
</g>
<!-- Node16&#45;&gt;Node17 -->
<g id="edge35_Node000016_Node000017" class="edge">
<title>Node16&#45;&gt;Node17</title>
<g id="a_edge35_Node000016_Node000017"><a xlink:title=" ">
<path fill="none" stroke="#63b8ff" d="M721.75,-111.59C721.75,-105.01 721.75,-95.96 721.75,-87.73"/>
<polygon fill="#63b8ff" stroke="#63b8ff" points="725.25,-87.81 721.75,-77.81 718.25,-87.81 725.25,-87.81"/>
</a>
</g>
</g>
<!-- Node17&#45;&gt;Node3 -->
<g id="edge37_Node000017_Node000003" class="edge">
<title>Node17&#45;&gt;Node3</title>
<g id="a_edge37_Node000017_Node000003"><a xlink:title=" ">
<path fill="none" stroke="#63b8ff" d="M696.3,-57.49C663.25,-47.74 605.57,-30.72 569.92,-20.2"/>
<polygon fill="#63b8ff" stroke="#63b8ff" points="571.22,-16.93 560.63,-17.46 569.23,-23.64 571.22,-16.93"/>
</a>
</g>
</g>
<!-- Node17&#45;&gt;Node4 -->
<g id="edge36_Node000017_Node000004" class="edge">
<title>Node17&#45;&gt;Node4</title>
<g id="a_edge36_Node000017_Node000004"><a xlink:title=" ">
<path fill="none" stroke="#63b8ff" d="M729.59,-55.59C735.72,-48.24 744.42,-37.8 751.86,-28.87"/>
<polygon fill="#63b8ff" stroke="#63b8ff" points="754.32,-31.38 758.03,-21.46 748.94,-26.9 754.32,-31.38"/>
</a>
</g>
</g>
<!-- Node17&#45;&gt;Node10 -->
<g id="edge38_Node000017_Node000010" class="edge">
<title>Node17&#45;&gt;Node10</title>
<g id="a_edge38_Node000017_Node000010"><a xlink:title=" ">
<path fill="none" stroke="#63b8ff" d="M696.37,-60.02C651.78,-51.26 558.5,-32.94 499.45,-21.35"/>
<polygon fill="#63b8ff" stroke="#63b8ff" points="500.45,-17.98 489.96,-19.49 499.1,-24.85 500.45,-17.98"/>
</a>
</g>
</g>
<!-- Node18&#45;&gt;Node8 -->
<g id="edge44_Node000018_Node000008" class="edge">
<title>Node18&#45;&gt;Node8</title>
<g id="a_edge44_Node000018_Node000008"><a xlink:title=" ">
<path fill="none" stroke="#63b8ff" d="M470.13,-223.59C465.06,-216.39 457.91,-206.23 451.72,-197.43"/>
<polygon fill="#63b8ff" stroke="#63b8ff" points="454.78,-195.7 446.16,-189.54 449.06,-199.73 454.78,-195.7"/>
</a>
</g>
</g>
</g>
</svg>
