<?xml version="1.0" encoding="UTF-8" standalone="no"?>
<!DOCTYPE svg PUBLIC "-//W3C//DTD SVG 1.1//EN"
 "http://www.w3.org/Graphics/SVG/1.1/DTD/svg11.dtd">
<!-- Generated by graphviz version 12.2.1 (20241206.2353)
 -->
<!-- Title: C:/Users/emilly/Documents/Lucca/Projetos/Cpp/NikiScript/example/src/example.cpp Pages: 1 -->
<svg width="887pt" height="332pt"
 viewBox="0.00 0.00 886.84 332.00" xmlns="http://www.w3.org/2000/svg" xmlns:xlink="http://www.w3.org/1999/xlink">
<g id="graph0" class="graph" transform="scale(1 1) rotate(0) translate(4 328)">
<title>C:/Users/emilly/Documents/Lucca/Projetos/Cpp/NikiScript/example/src/example.cpp</title>
<!-- Node1 -->
<g id="Node000001" class="node">
<title>Node1</title>
<g id="a_Node000001"><a xlink:title=" ">
<polygon fill="#999999" stroke="#666666" points="510.25,-324 359.25,-324 359.25,-280 510.25,-280 510.25,-324"/>
<text text-anchor="start" x="367.25" y="-310.5" font-family="Helvetica,sans-Serif" font-size="10.00">C:/Users/emilly/Documents</text>
<text text-anchor="start" x="367.25" y="-298.5" font-family="Helvetica,sans-Serif" font-size="10.00">/Lucca/Projetos/Cpp/NikiScript</text>
<text text-anchor="middle" x="434.75" y="-286.5" font-family="Helvetica,sans-Serif" font-size="10.00">/example/src/example.cpp</text>
</a>
</g>
</g>
<!-- Node2 -->
<g id="Node000002" class="node">
<title>Node2</title>
<g id="a_Node000002"><a xlink:title=" ">
<polygon fill="#e0e0e0" stroke="#999999" points="53.5,-244 0,-244 0,-224 53.5,-224 53.5,-244"/>
<text text-anchor="middle" x="26.75" y="-230.5" font-family="Helvetica,sans-Serif" font-size="10.00">iostream</text>
</a>
</g>
</g>
<!-- Node1&#45;&gt;Node2 -->
<g id="edge1_Node000001_Node000002" class="edge">
<title>Node1&#45;&gt;Node2</title>
<g id="a_edge1_Node000001_Node000002"><a xlink:title=" ">
<path fill="none" stroke="#63b8ff" d="M358.96,-290.63C284.58,-280.12 168.05,-262.78 67.75,-244 66.75,-243.81 65.73,-243.62 64.71,-243.42"/>
<polygon fill="#63b8ff" stroke="#63b8ff" points="65.59,-240.03 55.09,-241.45 64.18,-246.88 65.59,-240.03"/>
</a>
</g>
</g>
<!-- Node3 -->
<g id="Node000003" class="node">
<title>Node3</title>
<g id="a_Node000003"><a xlink:title=" ">
<polygon fill="#e0e0e0" stroke="#999999" points="460.75,-20 420.75,-20 420.75,0 460.75,0 460.75,-20"/>
<text text-anchor="middle" x="440.75" y="-6.5" font-family="Helvetica,sans-Serif" font-size="10.00">string</text>
</a>
</g>
</g>
<!-- Node1&#45;&gt;Node3 -->
<g id="edge2_Node000001_Node000003" class="edge">
<title>Node1&#45;&gt;Node3</title>
<g id="a_edge2_Node000001_Node000003"><a xlink:title=" ">
<path fill="none" stroke="#63b8ff" d="M358.9,-287.25C265.69,-268.16 119.75,-230.1 119.75,-179 119.75,-179 119.75,-179 119.75,-121 119.75,-75.53 157.54,-75.21 198.75,-56 268.94,-23.28 361.03,-14.34 408.84,-11.9"/>
<polygon fill="#63b8ff" stroke="#63b8ff" points="408.92,-15.4 418.76,-11.47 408.62,-8.41 408.92,-15.4"/>
</a>
</g>
</g>
<!-- Node4 -->
<g id="Node000004" class="node">
<title>Node4</title>
<g id="a_Node000004"><a xlink:title=" ">
<polygon fill="#e0e0e0" stroke="#999999" points="735.88,-20 687.62,-20 687.62,0 735.88,0 735.88,-20"/>
<text text-anchor="middle" x="711.75" y="-6.5" font-family="Helvetica,sans-Serif" font-size="10.00">stdint.h</text>
</a>
</g>
</g>
<!-- Node1&#45;&gt;Node4 -->
<g id="edge3_Node000001_Node000004" class="edge">
<title>Node1&#45;&gt;Node4</title>
<g id="a_edge3_Node000001_Node000004"><a xlink:title=" ">
<path fill="none" stroke="#63b8ff" d="M510.6,-287.25C603.81,-268.16 749.75,-230.1 749.75,-179 749.75,-179 749.75,-179 749.75,-121 749.75,-87.77 734.07,-51.85 722.85,-30.4"/>
<polygon fill="#63b8ff" stroke="#63b8ff" points="725.95,-28.76 718.08,-21.66 719.81,-32.12 725.95,-28.76"/>
</a>
</g>
</g>
<!-- Node5 -->
<g id="Node000005" class="node">
<title>Node5</title>
<g id="a_Node000005"><a xlink:title=" ">
<polygon fill="#e0e0e0" stroke="#999999" points="183.38,-20 132.12,-20 132.12,0 183.38,0 183.38,-20"/>
<text text-anchor="middle" x="157.75" y="-6.5" font-family="Helvetica,sans-Serif" font-size="10.00">sstream</text>
</a>
</g>
</g>
<!-- Node1&#45;&gt;Node5 -->
<g id="edge4_Node000001_Node000005" class="edge">
<title>Node1&#45;&gt;Node5</title>
<g id="a_edge4_Node000001_Node000005"><a xlink:title=" ">
<path fill="none" stroke="#63b8ff" d="M358.75,-296.31C300.36,-290.21 219.07,-276.2 154.75,-244 115.9,-224.55 81.75,-222.44 81.75,-179 81.75,-179 81.75,-179 81.75,-121 81.75,-82.24 114.09,-47.24 136.58,-27.59"/>
<polygon fill="#63b8ff" stroke="#63b8ff" points="138.62,-30.44 144.04,-21.34 134.12,-25.08 138.62,-30.44"/>
</a>
</g>
</g>
<!-- Node6 -->
<g id="Node000006" class="node">
<title>Node6</title>
<g id="a_Node000006"><a xlink:href="_niki_script_8h.html" target="_top" xlink:title=" ">
<polygon fill="white" stroke="#666666" points="429.25,-244 362.25,-244 362.25,-224 429.25,-224 429.25,-244"/>
<text text-anchor="middle" x="395.75" y="-230.5" font-family="Helvetica,sans-Serif" font-size="10.00">NikiScript.h</text>
</a>
</g>
</g>
<!-- Node1&#45;&gt;Node6 -->
<g id="edge5_Node000001_Node000006" class="edge">
<title>Node1&#45;&gt;Node6</title>
<g id="a_edge5_Node000001_Node000006"><a xlink:title=" ">
<path fill="none" stroke="#63b8ff" d="M422.2,-279.75C417.36,-271.57 411.86,-262.27 407.14,-254.28"/>
<polygon fill="#63b8ff" stroke="#63b8ff" points="410.19,-252.55 402.09,-245.72 404.16,-256.11 410.19,-252.55"/>
</a>
</g>
</g>
<!-- Node7 -->
<g id="Node000007" class="node">
<title>Node7</title>
<g id="a_Node000007"><a xlink:href="_context_8h.html" target="_top" xlink:title=" ">
<polygon fill="white" stroke="#666666" points="557.12,-188 498.38,-188 498.38,-168 557.12,-168 557.12,-188"/>
<text text-anchor="middle" x="527.75" y="-174.5" font-family="Helvetica,sans-Serif" font-size="10.00">Context.h</text>
</a>
</g>
</g>
<!-- Node1&#45;&gt;Node7 -->
<g id="edge39_Node000001_Node000007" class="edge">
<title>Node1&#45;&gt;Node7</title>
<g id="a_edge39_Node000001_Node000007"><a xlink:title=" ">
<path fill="none" stroke="#63b8ff" d="M471.59,-279.58C484.97,-270.17 499.14,-258.06 508.75,-244 517.89,-230.62 522.7,-212.81 525.19,-199.22"/>
<polygon fill="#63b8ff" stroke="#63b8ff" points="528.59,-200.08 526.65,-189.66 521.67,-199.02 528.59,-200.08"/>
</a>
</g>
</g>
<!-- Node12 -->
<g id="Node000012" class="node">
<title>Node12</title>
<g id="a_Node000012"><a xlink:href="_print_callback_8h.html" target="_top" xlink:title=" ">
<polygon fill="white" stroke="#666666" points="306.12,-132 223.38,-132 223.38,-112 306.12,-112 306.12,-132"/>
<text text-anchor="middle" x="264.75" y="-118.5" font-family="Helvetica,sans-Serif" font-size="10.00">PrintCallback.h</text>
</a>
</g>
</g>
<!-- Node1&#45;&gt;Node12 -->
<g id="edge38_Node000001_Node000012" class="edge">
<title>Node1&#45;&gt;Node12</title>
<g id="a_edge38_Node000001_Node000012"><a xlink:title=" ">
<path fill="none" stroke="#63b8ff" d="M399.35,-279.71C384.43,-269.84 367.39,-257.35 353.75,-244 321.13,-212.05 291.5,-167.21 276.03,-142.05"/>
<polygon fill="#63b8ff" stroke="#63b8ff" points="279.07,-140.32 270.91,-133.57 273.08,-143.94 279.07,-140.32"/>
</a>
</g>
</g>
<!-- Node15 -->
<g id="Node000015" class="node">
<title>Node15</title>
<g id="a_Node000015"><a xlink:href="_lexer_8h.html" target="_top" xlink:title=" ">
<polygon fill="white" stroke="#666666" points="825.88,-132 777.62,-132 777.62,-112 825.88,-112 825.88,-132"/>
<text text-anchor="middle" x="801.75" y="-118.5" font-family="Helvetica,sans-Serif" font-size="10.00">Lexer.h</text>
</a>
</g>
</g>
<!-- Node1&#45;&gt;Node15 -->
<g id="edge41_Node000001_Node000015" class="edge">
<title>Node1&#45;&gt;Node15</title>
<g id="a_edge41_Node000001_Node000015"><a xlink:title=" ">
<path fill="none" stroke="#63b8ff" d="M510.52,-296.88C595.71,-290.73 726.95,-276.22 763.75,-244 792.93,-218.46 799.94,-170.8 801.48,-143.54"/>
<polygon fill="#63b8ff" stroke="#63b8ff" points="804.97,-143.91 801.82,-133.8 797.98,-143.67 804.97,-143.91"/>
</a>
</g>
</g>
<!-- Node16 -->
<g id="Node000016" class="node">
<title>Node16</title>
<g id="a_Node000016"><a xlink:href="_token_8h.html" target="_top" xlink:title=" ">
<polygon fill="white" stroke="#666666" points="866,-76 815.5,-76 815.5,-56 866,-56 866,-76"/>
<text text-anchor="middle" x="840.75" y="-62.5" font-family="Helvetica,sans-Serif" font-size="10.00">Token.h</text>
</a>
</g>
</g>
<!-- Node1&#45;&gt;Node16 -->
<g id="edge40_Node000001_Node000016" class="edge">
<title>Node1&#45;&gt;Node16</title>
<g id="a_edge40_Node000001_Node000016"><a xlink:title=" ">
<path fill="none" stroke="#63b8ff" d="M510.52,-297.02C600.53,-290.9 743.8,-276.29 785.75,-244 834.78,-206.27 841.19,-125.37 841.34,-87.43"/>
<polygon fill="#63b8ff" stroke="#63b8ff" points="844.84,-87.81 841.22,-77.85 837.84,-87.89 844.84,-87.81"/>
</a>
</g>
</g>
<!-- Node17 -->
<g id="Node000017" class="node">
<title>Node17</title>
<g id="a_Node000017"><a xlink:href="_parser_8h.html" target="_top" xlink:title=" ">
<polygon fill="white" stroke="#666666" points="500.12,-244 447.38,-244 447.38,-224 500.12,-224 500.12,-244"/>
<text text-anchor="middle" x="473.75" y="-230.5" font-family="Helvetica,sans-Serif" font-size="10.00">Parser.h</text>
</a>
</g>
</g>
<!-- Node1&#45;&gt;Node17 -->
<g id="edge42_Node000001_Node000017" class="edge">
<title>Node1&#45;&gt;Node17</title>
<g id="a_edge42_Node000001_Node000017"><a xlink:title=" ">
<path fill="none" stroke="#63b8ff" d="M447.3,-279.75C452.14,-271.57 457.64,-262.27 462.36,-254.28"/>
<polygon fill="#63b8ff" stroke="#63b8ff" points="465.34,-256.11 467.41,-245.72 459.31,-252.55 465.34,-256.11"/>
</a>
</g>
</g>
<!-- Node6&#45;&gt;Node3 -->
<g id="edge6_Node000006_Node000003" class="edge">
<title>Node6&#45;&gt;Node3</title>
<g id="a_edge6_Node000006_Node000003"><a xlink:title=" ">
<path fill="none" stroke="#63b8ff" d="M362.06,-225.27C319.09,-213.41 246.54,-186.15 214.75,-132 197.65,-102.87 193.32,-82.11 214.75,-56 238.98,-26.47 352.84,-15.95 409.11,-12.52"/>
<polygon fill="#63b8ff" stroke="#63b8ff" points="409.22,-16.02 419,-11.96 408.82,-9.03 409.22,-16.02"/>
</a>
</g>
</g>
<!-- Node6&#45;&gt;Node7 -->
<g id="edge7_Node000006_Node000007" class="edge">
<title>Node6&#45;&gt;Node7</title>
<g id="a_edge7_Node000006_Node000007"><a xlink:title=" ">
<path fill="none" stroke="#63b8ff" d="M418.74,-223.59C439.53,-215.09 470.4,-202.46 493.99,-192.81"/>
<polygon fill="#63b8ff" stroke="#63b8ff" points="495.25,-196.08 503.18,-189.05 492.6,-189.6 495.25,-196.08"/>
</a>
</g>
</g>
<!-- Node7&#45;&gt;Node3 -->
<g id="edge10_Node000007_Node000003" class="edge">
<title>Node7&#45;&gt;Node3</title>
<g id="a_edge10_Node000007_Node000003"><a xlink:title=" ">
<path fill="none" stroke="#63b8ff" d="M548.23,-167.64C570.28,-156.14 600.69,-135.27 588.75,-112 564.62,-64.97 507.32,-35.88 471.51,-21.63"/>
<polygon fill="#63b8ff" stroke="#63b8ff" points="473.15,-18.51 462.56,-18.22 470.66,-25.05 473.15,-18.51"/>
</a>
</g>
</g>
<!-- Node7&#45;&gt;Node4 -->
<g id="edge9_Node000007_Node000004" class="edge">
<title>Node7&#45;&gt;Node4</title>
<g id="a_edge9_Node000007_Node000004"><a xlink:title=" ">
<path fill="none" stroke="#63b8ff" d="M557.17,-169.42C581.32,-162.3 615.66,-150.01 641.75,-132 669.46,-112.88 676.27,-105.35 692.75,-76 700.51,-62.17 705.37,-44.87 708.23,-31.59"/>
<polygon fill="#63b8ff" stroke="#63b8ff" points="711.66,-32.31 710.1,-21.83 704.78,-30.99 711.66,-32.31"/>
</a>
</g>
</g>
<!-- Node8 -->
<g id="Node000008" class="node">
<title>Node8</title>
<g id="a_Node000008"><a xlink:title=" ">
<polygon fill="#e0e0e0" stroke="#999999" points="862.25,-20 819.25,-20 819.25,0 862.25,0 862.25,-20"/>
<text text-anchor="middle" x="840.75" y="-6.5" font-family="Helvetica,sans-Serif" font-size="10.00">vector</text>
</a>
</g>
</g>
<!-- Node7&#45;&gt;Node8 -->
<g id="edge8_Node000007_Node000008" class="edge">
<title>Node7&#45;&gt;Node8</title>
<g id="a_edge8_Node000007_Node000008"><a xlink:title=" ">
<path fill="none" stroke="#63b8ff" d="M557.52,-175.58C625.23,-171.89 788.48,-160.24 834.75,-132 867.33,-112.11 886.88,-92.19 874.75,-56 871.39,-45.97 864.8,-36.39 858.32,-28.66"/>
<polygon fill="#63b8ff" stroke="#63b8ff" points="861.02,-26.43 851.7,-21.38 855.84,-31.13 861.02,-26.43"/>
</a>
</g>
</g>
<!-- Node9 -->
<g id="Node000009" class="node">
<title>Node9</title>
<g id="a_Node000009"><a xlink:title=" ">
<polygon fill="#e0e0e0" stroke="#999999" points="482.12,-76 399.38,-76 399.38,-56 482.12,-56 482.12,-76"/>
<text text-anchor="middle" x="440.75" y="-62.5" font-family="Helvetica,sans-Serif" font-size="10.00">unordered_map</text>
</a>
</g>
</g>
<!-- Node7&#45;&gt;Node9 -->
<g id="edge11_Node000007_Node000009" class="edge">
<title>Node7&#45;&gt;Node9</title>
<g id="a_edge11_Node000007_Node000009"><a xlink:title=" ">
<path fill="none" stroke="#63b8ff" d="M510.5,-167.53C497.29,-159.54 479.41,-147.01 467.75,-132 457.31,-118.57 450.24,-100.52 445.96,-86.85"/>
<polygon fill="#63b8ff" stroke="#63b8ff" points="449.45,-86.3 443.33,-77.65 442.72,-88.22 449.45,-86.3"/>
</a>
</g>
</g>
<!-- Node10 -->
<g id="Node000010" class="node">
<title>Node10</title>
<g id="a_Node000010"><a xlink:href="_command_8h.html" target="_top" xlink:title=" ">
<polygon fill="white" stroke="#666666" points="683.38,-76 614.12,-76 614.12,-56 683.38,-56 683.38,-76"/>
<text text-anchor="middle" x="648.75" y="-62.5" font-family="Helvetica,sans-Serif" font-size="10.00">Command.h</text>
</a>
</g>
</g>
<!-- Node7&#45;&gt;Node10 -->
<g id="edge12_Node000007_Node000010" class="edge">
<title>Node7&#45;&gt;Node10</title>
<g id="a_edge12_Node000007_Node000010"><a xlink:title=" ">
<path fill="none" stroke="#63b8ff" d="M557.42,-168.97C577.84,-162.11 604.32,-150.38 621.75,-132 633.59,-119.52 640.57,-101.11 644.46,-87.07"/>
<polygon fill="#63b8ff" stroke="#63b8ff" points="647.8,-88.12 646.77,-77.58 641,-86.47 647.8,-88.12"/>
</a>
</g>
</g>
<!-- Node11 -->
<g id="Node000011" class="node">
<title>Node11</title>
<g id="a_Node000011"><a xlink:href="_command_handler_8h.html" target="_top" xlink:title=" ">
<polygon fill="white" stroke="#666666" points="579.25,-132 476.25,-132 476.25,-112 579.25,-112 579.25,-132"/>
<text text-anchor="middle" x="527.75" y="-118.5" font-family="Helvetica,sans-Serif" font-size="10.00">CommandHandler.h</text>
</a>
</g>
</g>
<!-- Node7&#45;&gt;Node11 -->
<g id="edge16_Node000007_Node000011" class="edge">
<title>Node7&#45;&gt;Node11</title>
<g id="a_edge16_Node000007_Node000011"><a xlink:title=" ">
<path fill="none" stroke="#63b8ff" d="M527.75,-167.59C527.75,-161.01 527.75,-151.96 527.75,-143.73"/>
<polygon fill="#63b8ff" stroke="#63b8ff" points="531.25,-143.81 527.75,-133.81 524.25,-143.81 531.25,-143.81"/>
</a>
</g>
</g>
<!-- Node7&#45;&gt;Node12 -->
<g id="edge20_Node000007_Node000012" class="edge">
<title>Node7&#45;&gt;Node12</title>
<g id="a_edge20_Node000007_Node000012"><a xlink:title=" ">
<path fill="none" stroke="#63b8ff" d="M498.09,-170.91C454.32,-161.92 371.76,-144.97 317.51,-133.83"/>
<polygon fill="#63b8ff" stroke="#63b8ff" points="318.37,-130.44 307.87,-131.85 316.96,-137.29 318.37,-130.44"/>
</a>
</g>
</g>
<!-- Node14 -->
<g id="Node000014" class="node">
<title>Node14</title>
<g id="a_Node000014"><a xlink:href="_program_variable_8h.html" target="_top" xlink:title=" ">
<polygon fill="white" stroke="#666666" points="419.5,-132 324,-132 324,-112 419.5,-112 419.5,-132"/>
<text text-anchor="middle" x="371.75" y="-118.5" font-family="Helvetica,sans-Serif" font-size="10.00">ProgramVariable.h</text>
</a>
</g>
</g>
<!-- Node7&#45;&gt;Node14 -->
<g id="edge27_Node000007_Node000014" class="edge">
<title>Node7&#45;&gt;Node14</title>
<g id="a_edge27_Node000007_Node000014"><a xlink:title=" ">
<path fill="none" stroke="#63b8ff" d="M500.58,-167.59C475.45,-158.9 437.87,-145.89 409.77,-136.16"/>
<polygon fill="#63b8ff" stroke="#63b8ff" points="411.16,-132.94 400.57,-132.97 408.87,-139.55 411.16,-132.94"/>
</a>
</g>
</g>
<!-- Node7&#45;&gt;Node15 -->
<g id="edge31_Node000007_Node000015" class="edge">
<title>Node7&#45;&gt;Node15</title>
<g id="a_edge31_Node000007_Node000015"><a xlink:title=" ">
<path fill="none" stroke="#63b8ff" d="M557.59,-171.12C608.38,-161.11 711.39,-140.81 765.96,-130.05"/>
<polygon fill="#63b8ff" stroke="#63b8ff" points="766.53,-133.51 775.66,-128.14 765.17,-126.64 766.53,-133.51"/>
</a>
</g>
</g>
<!-- Node10&#45;&gt;Node3 -->
<g id="edge14_Node000010_Node000003" class="edge">
<title>Node10&#45;&gt;Node3</title>
<g id="a_edge14_Node000010_Node000003"><a xlink:title=" ">
<path fill="none" stroke="#63b8ff" d="M613.94,-55.96C574.32,-45.68 510.19,-29.03 472.08,-19.13"/>
<polygon fill="#63b8ff" stroke="#63b8ff" points="473.17,-15.8 462.61,-16.68 471.41,-22.58 473.17,-15.8"/>
</a>
</g>
</g>
<!-- Node10&#45;&gt;Node4 -->
<g id="edge15_Node000010_Node000004" class="edge">
<title>Node10&#45;&gt;Node4</title>
<g id="a_edge15_Node000010_Node000004"><a xlink:title=" ">
<path fill="none" stroke="#63b8ff" d="M659.72,-55.59C668.67,-47.93 681.52,-36.91 692.21,-27.75"/>
<polygon fill="#63b8ff" stroke="#63b8ff" points="694.44,-30.45 699.75,-21.28 689.88,-25.13 694.44,-30.45"/>
</a>
</g>
</g>
<!-- Node10&#45;&gt;Node8 -->
<g id="edge13_Node000010_Node000008" class="edge">
<title>Node10&#45;&gt;Node8</title>
<g id="a_edge13_Node000010_Node000008"><a xlink:title=" ">
<path fill="none" stroke="#63b8ff" d="M682.19,-55.59C717.52,-45.66 772.87,-30.09 807.95,-20.22"/>
<polygon fill="#63b8ff" stroke="#63b8ff" points="808.88,-23.6 817.56,-17.52 806.99,-16.86 808.88,-23.6"/>
</a>
</g>
</g>
<!-- Node11&#45;&gt;Node3 -->
<g id="edge18_Node000011_Node000003" class="edge">
<title>Node11&#45;&gt;Node3</title>
<g id="a_edge18_Node000011_Node000003"><a xlink:title=" ">
<path fill="none" stroke="#63b8ff" d="M523.57,-111.59C517.47,-98.4 505.24,-74.01 490.75,-56 482.4,-45.63 471.57,-35.57 462.13,-27.6"/>
<polygon fill="#63b8ff" stroke="#63b8ff" points="464.43,-24.96 454.46,-21.36 460,-30.39 464.43,-24.96"/>
</a>
</g>
</g>
<!-- Node11&#45;&gt;Node9 -->
<g id="edge17_Node000011_Node000009" class="edge">
<title>Node11&#45;&gt;Node9</title>
<g id="a_edge17_Node000011_Node000009"><a xlink:title=" ">
<path fill="none" stroke="#63b8ff" d="M512.6,-111.59C499.7,-103.59 480.92,-91.93 465.79,-82.54"/>
<polygon fill="#63b8ff" stroke="#63b8ff" points="467.65,-79.58 457.31,-77.28 463.96,-85.53 467.65,-79.58"/>
</a>
</g>
</g>
<!-- Node11&#45;&gt;Node10 -->
<g id="edge19_Node000011_Node000010" class="edge">
<title>Node11&#45;&gt;Node10</title>
<g id="a_edge19_Node000011_Node000010"><a xlink:title=" ">
<path fill="none" stroke="#63b8ff" d="M548.83,-111.59C567.71,-103.17 595.67,-90.69 617.21,-81.07"/>
<polygon fill="#63b8ff" stroke="#63b8ff" points="618.42,-84.37 626.13,-77.1 615.57,-77.98 618.42,-84.37"/>
</a>
</g>
</g>
<!-- Node12&#45;&gt;Node3 -->
<g id="edge22_Node000012_Node000003" class="edge">
<title>Node12&#45;&gt;Node3</title>
<g id="a_edge22_Node000012_Node000003"><a xlink:title=" ">
<path fill="none" stroke="#63b8ff" d="M270.36,-111.72C279.22,-97.79 297.73,-71.46 319.75,-56 347.11,-36.79 383.66,-24.69 409.41,-17.93"/>
<polygon fill="#63b8ff" stroke="#63b8ff" points="410.08,-21.37 418.94,-15.56 408.39,-14.58 410.08,-21.37"/>
</a>
</g>
</g>
<!-- Node12&#45;&gt;Node4 -->
<g id="edge21_Node000012_Node000004" class="edge">
<title>Node12&#45;&gt;Node4</title>
<g id="a_edge21_Node000012_Node000004"><a xlink:title=" ">
<path fill="none" stroke="#63b8ff" d="M278.8,-111.72C301.38,-97.3 347.59,-69.72 390.75,-56 491.05,-24.12 616.13,-14.8 676.25,-12.1"/>
<polygon fill="#63b8ff" stroke="#63b8ff" points="676.02,-15.61 685.87,-11.7 675.73,-8.61 676.02,-15.61"/>
</a>
</g>
</g>
<!-- Node13 -->
<g id="Node000013" class="node">
<title>Node13</title>
<g id="a_Node000013"><a xlink:href="_utils_8h.html" target="_top" xlink:title=" ">
<polygon fill="white" stroke="#666666" points="268,-76 223.5,-76 223.5,-56 268,-56 268,-76"/>
<text text-anchor="middle" x="245.75" y="-62.5" font-family="Helvetica,sans-Serif" font-size="10.00">Utils.h</text>
</a>
</g>
</g>
<!-- Node12&#45;&gt;Node13 -->
<g id="edge23_Node000012_Node000013" class="edge">
<title>Node12&#45;&gt;Node13</title>
<g id="a_edge23_Node000012_Node000013"><a xlink:title=" ">
<path fill="none" stroke="#63b8ff" d="M261.44,-111.59C259.07,-104.86 255.79,-95.53 252.84,-87.15"/>
<polygon fill="#63b8ff" stroke="#63b8ff" points="256.14,-86 249.52,-77.73 249.54,-88.32 256.14,-86"/>
</a>
</g>
</g>
<!-- Node13&#45;&gt;Node3 -->
<g id="edge25_Node000013_Node000003" class="edge">
<title>Node13&#45;&gt;Node3</title>
<g id="a_edge25_Node000013_Node000003"><a xlink:title=" ">
<path fill="none" stroke="#63b8ff" d="M268.12,-58.81C302.83,-49.19 369.76,-30.66 409.31,-19.71"/>
<polygon fill="#63b8ff" stroke="#63b8ff" points="410.24,-23.08 418.95,-17.04 408.37,-16.33 410.24,-23.08"/>
</a>
</g>
</g>
<!-- Node13&#45;&gt;Node4 -->
<g id="edge24_Node000013_Node000004" class="edge">
<title>Node13&#45;&gt;Node4</title>
<g id="a_edge24_Node000013_Node000004"><a xlink:title=" ">
<path fill="none" stroke="#63b8ff" d="M268.42,-62.2C283.06,-60.41 302.53,-58.04 319.75,-56 451.26,-40.45 607.69,-22.73 676.41,-14.98"/>
<polygon fill="#63b8ff" stroke="#63b8ff" points="676.38,-18.5 685.93,-13.9 675.6,-11.55 676.38,-18.5"/>
</a>
</g>
</g>
<!-- Node13&#45;&gt;Node5 -->
<g id="edge26_Node000013_Node000005" class="edge">
<title>Node13&#45;&gt;Node5</title>
<g id="a_edge26_Node000013_Node000005"><a xlink:title=" ">
<path fill="none" stroke="#63b8ff" d="M230.42,-55.59C217.25,-47.51 198.02,-35.71 182.64,-26.27"/>
<polygon fill="#63b8ff" stroke="#63b8ff" points="184.84,-23.52 174.49,-21.27 181.18,-29.48 184.84,-23.52"/>
</a>
</g>
</g>
<!-- Node14&#45;&gt;Node3 -->
<g id="edge28_Node000014_Node000003" class="edge">
<title>Node14&#45;&gt;Node3</title>
<g id="a_edge28_Node000014_Node000003"><a xlink:title=" ">
<path fill="none" stroke="#63b8ff" d="M372.86,-111.51C374.78,-98.22 379.61,-73.72 390.75,-56 397.65,-45.03 407.97,-35.11 417.44,-27.39"/>
<polygon fill="#63b8ff" stroke="#63b8ff" points="419.47,-30.24 425.27,-21.38 415.21,-24.69 419.47,-30.24"/>
</a>
</g>
</g>
<!-- Node14&#45;&gt;Node5 -->
<g id="edge29_Node000014_Node000005" class="edge">
<title>Node14&#45;&gt;Node5</title>
<g id="a_edge29_Node000014_Node000005"><a xlink:title=" ">
<path fill="none" stroke="#63b8ff" d="M328.66,-111.54C289.04,-102.32 233.67,-87.99 214.75,-76 196,-64.12 179.9,-44.27 169.63,-29.63"/>
<polygon fill="#63b8ff" stroke="#63b8ff" points="172.82,-28.1 164.34,-21.74 167.01,-32 172.82,-28.1"/>
</a>
</g>
</g>
<!-- Node14&#45;&gt;Node9 -->
<g id="edge30_Node000014_Node000009" class="edge">
<title>Node14&#45;&gt;Node9</title>
<g id="a_edge30_Node000014_Node000009"><a xlink:title=" ">
<path fill="none" stroke="#63b8ff" d="M383.77,-111.59C393.76,-103.77 408.21,-92.46 420.06,-83.19"/>
<polygon fill="#63b8ff" stroke="#63b8ff" points="421.96,-86.15 427.68,-77.23 417.64,-80.64 421.96,-86.15"/>
</a>
</g>
</g>
<!-- Node15&#45;&gt;Node3 -->
<g id="edge33_Node000015_Node000003" class="edge">
<title>Node15&#45;&gt;Node3</title>
<g id="a_edge33_Node000015_Node000003"><a xlink:title=" ">
<path fill="none" stroke="#63b8ff" d="M777.34,-117.13C739.65,-110.78 665.32,-96.74 604.75,-76 584.81,-69.17 581.2,-64.12 561.75,-56 531.58,-43.4 496.5,-30.54 471.9,-21.82"/>
<polygon fill="#63b8ff" stroke="#63b8ff" points="473.09,-18.53 462.49,-18.5 470.76,-25.13 473.09,-18.53"/>
</a>
</g>
</g>
<!-- Node15&#45;&gt;Node4 -->
<g id="edge32_Node000015_Node000004" class="edge">
<title>Node15&#45;&gt;Node4</title>
<g id="a_edge32_Node000015_Node000004"><a xlink:title=" ">
<path fill="none" stroke="#63b8ff" d="M797.46,-111.56C791.18,-98.33 778.62,-73.9 763.75,-56 754.96,-45.42 743.55,-35.25 733.66,-27.27"/>
<polygon fill="#63b8ff" stroke="#63b8ff" points="736.01,-24.66 725.97,-21.27 731.71,-30.18 736.01,-24.66"/>
</a>
</g>
</g>
<!-- Node15&#45;&gt;Node16 -->
<g id="edge34_Node000015_Node000016" class="edge">
<title>Node15&#45;&gt;Node16</title>
<g id="a_edge34_Node000015_Node000016"><a xlink:title=" ">
<path fill="none" stroke="#63b8ff" d="M808.54,-111.59C813.74,-104.39 821.08,-94.23 827.44,-85.43"/>
<polygon fill="#63b8ff" stroke="#63b8ff" points="830.13,-87.68 833.15,-77.53 824.46,-83.58 830.13,-87.68"/>
</a>
</g>
</g>
<!-- Node16&#45;&gt;Node3 -->
<g id="edge36_Node000016_Node000003" class="edge">
<title>Node16&#45;&gt;Node3</title>
<g id="a_edge36_Node000016_Node000003"><a xlink:title=" ">
<path fill="none" stroke="#63b8ff" d="M815.12,-61.54C744.9,-52.06 549.56,-25.69 472.55,-15.29"/>
<polygon fill="#63b8ff" stroke="#63b8ff" points="473.12,-11.84 462.74,-13.97 472.18,-18.78 473.12,-11.84"/>
</a>
</g>
</g>
<!-- Node16&#45;&gt;Node4 -->
<g id="edge35_Node000016_Node000004" class="edge">
<title>Node16&#45;&gt;Node4</title>
<g id="a_edge35_Node000016_Node000004"><a xlink:title=" ">
<path fill="none" stroke="#63b8ff" d="M818.28,-55.59C797.96,-47.09 767.8,-34.46 744.74,-24.81"/>
<polygon fill="#63b8ff" stroke="#63b8ff" points="746.37,-21.7 735.79,-21.06 743.66,-28.15 746.37,-21.7"/>
</a>
</g>
</g>
<!-- Node16&#45;&gt;Node8 -->
<g id="edge37_Node000016_Node000008" class="edge">
<title>Node16&#45;&gt;Node8</title>
<g id="a_edge37_Node000016_Node000008"><a xlink:title=" ">
<path fill="none" stroke="#63b8ff" d="M840.75,-55.59C840.75,-49.01 840.75,-39.96 840.75,-31.73"/>
<polygon fill="#63b8ff" stroke="#63b8ff" points="844.25,-31.81 840.75,-21.81 837.25,-31.81 844.25,-31.81"/>
</a>
</g>
</g>
<!-- Node17&#45;&gt;Node7 -->
<g id="edge43_Node000017_Node000007" class="edge">
<title>Node17&#45;&gt;Node7</title>
<g id="a_edge43_Node000017_Node000007"><a xlink:title=" ">
<path fill="none" stroke="#63b8ff" d="M483.16,-223.59C490.67,-216.08 501.4,-205.35 510.45,-196.3"/>
<polygon fill="#63b8ff" stroke="#63b8ff" points="512.79,-198.91 517.38,-189.37 507.84,-193.96 512.79,-198.91"/>
</a>
</g>
</g>
</g>
</svg>
